<svg width="1047" height="401" viewBox="0 0 1047 401" fill="none" xmlns="http://www.w3.org/2000/svg">
<rect y="66" width="100" height="37" rx="18.5" fill="#E50014"/>
<rect x="2" y="297" width="100" height="37" rx="18.5" fill="#E50014"/>
<rect x="43" y="109" width="19" height="183" fill="#D9D9D9"/>
<rect x="547" y="41" width="100" height="37" rx="18.5" fill="#E50014"/>
<rect x="546" width="100" height="37" rx="18.5" fill="#E50014"/>
<rect x="548" y="364" width="100" height="37" rx="18.5" fill="#E50014"/>
<rect x="548" y="322" width="100" height="37" rx="18.5" fill="#E50014"/>
<rect x="589" y="82" width="19" height="235" fill="#D9D9D9"/>
<rect x="946" y="41" width="100" height="37" rx="18.5" fill="#D9D9D9"/>
<rect x="945" width="100" height="37" rx="18.5" fill="#E50014"/>
<rect x="947" y="364" width="100" height="37" rx="18.5" fill="#E50014"/>
<rect x="947" y="322" width="100" height="37" rx="18.5" fill="#E50014"/>
<rect x="988" y="82" width="19" height="235" fill="#D9D9D9"/>
<rect x="376" y="66" width="100" height="37" rx="18.5" fill="#E50014"/>
<rect x="375" y="25" width="100" height="37" rx="18.5" fill="#E50014"/>
<rect x="376" y="350" width="100" height="37" rx="18.5" fill="#E50014"/>
<rect x="376" y="308" width="100" height="37" rx="18.5" fill="#E50014"/>
<rect x="425" y="194" width="19" height="399" transform="rotate(90 425 194)" fill="#D9D9D9"/>
<rect x="996" y="195" width="19" height="399" transform="rotate(90 996 195)" fill="#D9D9D9"/>
<rect x="416" y="114" width="19" height="183" fill="#D9D9D9"/>
<circle cx="52.5" cy="203.5" r="26.5" fill="#D9D9D9"/>
<circle cx="424.5" cy="203.5" r="26.5" fill="#D9D9D9"/>
<circle cx="598.5" cy="204.5" r="26.5" fill="#D9D9D9"/>
<circle cx="997.5" cy="205.5" r="26.5" fill="#D9D9D9"/>
</svg>
