<svg width="23" height="53" viewBox="0 0 23 53" fill="none" xmlns="http://www.w3.org/2000/svg">
<g clip-path="url(#clip0_3278_35347)">
<path d="M21.8328 31.7651V39.5047C21.8328 39.7316 21.7467 39.9534 21.595 40.1148L20.8765 40.8711V31.7701H21.8378L21.8328 31.7651Z" fill="#CCCCCC"/>
<path d="M21.6812 31.9207H21.0234V40.4871L21.4839 40.0031C21.6104 39.872 21.6812 39.6955 21.6812 39.5039V31.9207Z" fill="url(#paint0_linear_3278_35347)"/>
<path opacity="0.5" d="M21.8328 31.7651V39.5047C21.8328 39.7316 21.7467 39.9534 21.595 40.1148L20.8765 40.8711V31.7701H21.8378L21.8328 31.7651Z" fill="url(#paint1_linear_3278_35347)"/>
<path opacity="0.4" d="M21.8328 31.7651V39.5047C21.8328 39.7316 21.7467 39.9534 21.595 40.1148L20.8765 40.8711V31.7701H21.8378L21.8328 31.7651Z" fill="url(#paint2_linear_3278_35347)"/>
<mask id="mask0_3278_35347" style="mask-type:luminance" maskUnits="userSpaceOnUse" x="21" y="31" width="1" height="10">
<path d="M21.6812 31.9207H21.0234V40.4871L21.4839 40.0031C21.6104 39.872 21.6812 39.6955 21.6812 39.5039V31.9207Z" fill="white"/>
</mask>
<g mask="url(#mask0_3278_35347)">
<path d="M21.1702 31.9855C21.2258 32.0208 21.2866 32.0259 21.2866 32.0259C21.2866 32.0259 21.2511 31.9754 21.1955 31.9452C21.1398 31.9099 21.0791 31.9048 21.0791 31.9048C21.0791 31.9048 21.1145 31.9553 21.1702 31.9855Z" fill="#989898"/>
<path d="M21.6257 32.2573C21.6814 32.2926 21.7421 32.2976 21.7421 32.2976C21.7421 32.2976 21.7067 32.2472 21.651 32.217C21.5954 32.1817 21.5347 32.1766 21.5347 32.1766C21.5347 32.1766 21.5701 32.2271 21.6257 32.2573Z" fill="#989898"/>
<path d="M21.3928 32.0912C21.3625 32.1517 21.3574 32.2122 21.3574 32.2122C21.3574 32.2122 21.403 32.1769 21.4333 32.1164C21.4637 32.0559 21.4687 31.9954 21.4687 31.9954C21.4687 31.9954 21.4232 32.0307 21.3928 32.0912Z" fill="#989898"/>
<path d="M21.1048 32.2587C21.0744 32.3192 21.0693 32.3797 21.0693 32.3797C21.0693 32.3797 21.1149 32.3444 21.1452 32.2839C21.1756 32.2234 21.1807 32.1629 21.1807 32.1629C21.1807 32.1629 21.1351 32.1982 21.1048 32.2587Z" fill="#989898"/>
<path d="M21.5603 32.5305C21.53 32.591 21.5249 32.6515 21.5249 32.6515C21.5249 32.6515 21.5704 32.6162 21.6008 32.5557C21.6312 32.4952 21.6362 32.4347 21.6362 32.4347C21.6362 32.4347 21.5907 32.47 21.5603 32.5305Z" fill="#989898"/>
<path d="M21.3678 32.3904C21.3122 32.3551 21.2515 32.35 21.2515 32.35C21.2515 32.35 21.2869 32.4005 21.3425 32.4307C21.3982 32.461 21.4589 32.471 21.4589 32.471C21.4589 32.471 21.4235 32.4206 21.3678 32.3904Z" fill="#989898"/>
<path d="M21.0183 32.6257C21.074 32.661 21.1347 32.666 21.1347 32.666C21.1347 32.666 21.0993 32.6156 21.0436 32.5853C20.988 32.55 20.9272 32.545 20.9272 32.545C20.9272 32.545 20.9627 32.5954 21.0183 32.6257Z" fill="#989898"/>
<path d="M21.4685 32.8974C21.5242 32.9327 21.5849 32.9378 21.5849 32.9378C21.5849 32.9378 21.5495 32.8874 21.4938 32.8571C21.4382 32.8218 21.3774 32.8168 21.3774 32.8168C21.3774 32.8168 21.4129 32.8672 21.4685 32.8974Z" fill="#989898"/>
<path d="M21.2361 32.7314C21.2057 32.7919 21.2007 32.8524 21.2007 32.8524C21.2007 32.8524 21.2462 32.8171 21.2766 32.7566C21.3069 32.6961 21.312 32.6356 21.312 32.6356C21.312 32.6356 21.2665 32.6709 21.2361 32.7314Z" fill="#989898"/>
<path d="M20.9529 32.8988C20.9225 32.9593 20.9175 33.0198 20.9175 33.0198C20.9175 33.0198 20.963 32.9845 20.9934 32.924C21.0237 32.8635 21.0288 32.803 21.0288 32.803C21.0288 32.803 20.9833 32.8383 20.9529 32.8988Z" fill="#989898"/>
<path d="M21.4031 33.1706C21.3727 33.2311 21.3677 33.2916 21.3677 33.2916C21.3677 33.2916 21.4132 33.2563 21.4436 33.1958C21.4739 33.1353 21.479 33.0748 21.479 33.0748C21.479 33.0748 21.4335 33.1101 21.4031 33.1706Z" fill="#989898"/>
<path d="M21.2106 33.0245C21.155 32.9892 21.0942 32.9842 21.0942 32.9842C21.0942 32.9842 21.1297 33.0346 21.1853 33.0649C21.241 33.1002 21.3017 33.1052 21.3017 33.1052C21.3017 33.1052 21.2663 33.0548 21.2106 33.0245Z" fill="#989898"/>
<path d="M21.6462 33.2727C21.5905 33.2374 21.5298 33.2324 21.5298 33.2324C21.5298 33.2324 21.5652 33.2828 21.6209 33.313C21.6765 33.3483 21.7372 33.3534 21.7372 33.3534C21.7372 33.3534 21.7018 33.3029 21.6462 33.2727Z" fill="#989898"/>
<path d="M21.0642 33.3222C21.0339 33.3827 21.0288 33.4432 21.0288 33.4432C21.0288 33.4432 21.0743 33.408 21.1047 33.3474C21.1351 33.2869 21.1401 33.2264 21.1401 33.2264C21.1401 33.2264 21.0946 33.2617 21.0642 33.3222Z" fill="#989898"/>
<path d="M21.5198 33.594C21.4894 33.6545 21.4844 33.715 21.4844 33.715C21.4844 33.715 21.5299 33.6797 21.5603 33.6192C21.5906 33.5587 21.5957 33.4982 21.5957 33.4982C21.5957 33.4982 21.5502 33.5335 21.5198 33.594Z" fill="#989898"/>
<path d="M21.3219 33.4539C21.2663 33.4186 21.2056 33.4135 21.2056 33.4135C21.2056 33.4135 21.241 33.4639 21.2966 33.4942C21.3523 33.5295 21.413 33.5345 21.413 33.5345C21.413 33.5345 21.3776 33.4841 21.3219 33.4539Z" fill="#989898"/>
<path d="M20.9778 33.6912C21.0335 33.7265 21.0942 33.7315 21.0942 33.7315C21.0942 33.7315 21.0588 33.6811 21.0031 33.6509C20.9474 33.6156 20.8867 33.6105 20.8867 33.6105C20.8867 33.6105 20.9221 33.661 20.9778 33.6912Z" fill="#989898"/>
<path d="M21.428 33.963C21.4836 33.9983 21.5444 34.0033 21.5444 34.0033C21.5444 34.0033 21.5089 33.9529 21.4533 33.9227C21.3976 33.8874 21.3369 33.8823 21.3369 33.8823C21.3369 33.8823 21.3723 33.9327 21.428 33.963Z" fill="#989898"/>
<path d="M21.1956 33.7969C21.1652 33.8574 21.1602 33.9179 21.1602 33.9179C21.1602 33.9179 21.2057 33.8826 21.2361 33.8221C21.2664 33.7616 21.2715 33.7011 21.2715 33.7011C21.2715 33.7011 21.2259 33.7364 21.1956 33.7969Z" fill="#989898"/>
<path d="M21.3626 34.2361C21.3322 34.2966 21.3271 34.3571 21.3271 34.3571C21.3271 34.3571 21.3727 34.3218 21.403 34.2613C21.4334 34.2008 21.4385 34.1403 21.4385 34.1403C21.4385 34.1403 21.3929 34.1756 21.3626 34.2361Z" fill="#989898"/>
<path d="M21.1701 34.0901C21.1144 34.0548 21.0537 34.0497 21.0537 34.0497C21.0537 34.0497 21.0891 34.1002 21.1448 34.1304C21.2004 34.1607 21.2612 34.1707 21.2612 34.1707C21.2612 34.1707 21.2257 34.1203 21.1701 34.0901Z" fill="#989898"/>
<path d="M21.6056 34.3323C21.55 34.297 21.4893 34.292 21.4893 34.292C21.4893 34.292 21.5247 34.3424 21.5803 34.3727C21.636 34.408 21.6967 34.413 21.6967 34.413C21.6967 34.413 21.6613 34.3626 21.6056 34.3323Z" fill="#989898"/>
<path d="M21.0642 34.3897C21.0339 34.4502 21.0288 34.5108 21.0288 34.5108C21.0288 34.5108 21.0743 34.4755 21.1047 34.415C21.1351 34.3544 21.1401 34.2939 21.1401 34.2939C21.1401 34.2939 21.0946 34.3292 21.0642 34.3897Z" fill="#989898"/>
<path d="M21.5198 34.6615C21.4894 34.722 21.4844 34.7825 21.4844 34.7825C21.4844 34.7825 21.5299 34.7472 21.5603 34.6867C21.5906 34.6262 21.5957 34.5657 21.5957 34.5657C21.5957 34.5657 21.5502 34.601 21.5198 34.6615Z" fill="#989898"/>
<path d="M21.3219 34.5155C21.2663 34.4802 21.2056 34.4752 21.2056 34.4752C21.2056 34.4752 21.241 34.5256 21.2966 34.5558C21.3523 34.5911 21.413 34.5962 21.413 34.5962C21.413 34.5962 21.3776 34.5457 21.3219 34.5155Z" fill="#989898"/>
<path d="M20.9778 34.7527C21.0335 34.788 21.0942 34.7931 21.0942 34.7931C21.0942 34.7931 21.0588 34.7426 21.0031 34.7124C20.9474 34.6771 20.8867 34.6721 20.8867 34.6721C20.8867 34.6721 20.9221 34.7225 20.9778 34.7527Z" fill="#989898"/>
<path d="M21.428 35.0246C21.4836 35.0599 21.5444 35.0649 21.5444 35.0649C21.5444 35.0649 21.5089 35.0145 21.4533 34.9842C21.3976 34.9489 21.3369 34.9439 21.3369 34.9439C21.3369 34.9439 21.3723 34.9943 21.428 35.0246Z" fill="#989898"/>
<path d="M21.1956 34.8585C21.1652 34.919 21.1602 34.9795 21.1602 34.9795C21.1602 34.9795 21.2057 34.9442 21.2361 34.8837C21.2664 34.8232 21.2715 34.7627 21.2715 34.7627C21.2715 34.7627 21.2259 34.798 21.1956 34.8585Z" fill="#989898"/>
<path d="M21.3626 35.2977C21.3322 35.3582 21.3271 35.4187 21.3271 35.4187C21.3271 35.4187 21.3727 35.3834 21.403 35.3229C21.4334 35.2624 21.4385 35.2019 21.4385 35.2019C21.4385 35.2019 21.3929 35.2372 21.3626 35.2977Z" fill="#989898"/>
<path d="M21.1701 35.1575C21.1144 35.1222 21.0537 35.1172 21.0537 35.1172C21.0537 35.1172 21.0891 35.1676 21.1448 35.1979C21.2004 35.2332 21.2612 35.2382 21.2612 35.2382C21.2612 35.2382 21.2257 35.1878 21.1701 35.1575Z" fill="#989898"/>
<path d="M21.6056 35.3998C21.55 35.3645 21.4893 35.3595 21.4893 35.3595C21.4893 35.3595 21.5247 35.4099 21.5803 35.4402C21.636 35.4755 21.6967 35.4805 21.6967 35.4805C21.6967 35.4805 21.6613 35.4301 21.6056 35.3998Z" fill="#989898"/>
<path d="M21.0642 35.4553C21.0339 35.5158 21.0288 35.5763 21.0288 35.5763C21.0288 35.5763 21.0743 35.541 21.1047 35.4805C21.1351 35.42 21.1401 35.3595 21.1401 35.3595C21.1401 35.3595 21.0946 35.3948 21.0642 35.4553Z" fill="#989898"/>
<path d="M21.5198 35.7271C21.4894 35.7876 21.4844 35.8481 21.4844 35.8481C21.4844 35.8481 21.5299 35.8128 21.5603 35.7523C21.5906 35.6918 21.5957 35.6313 21.5957 35.6313C21.5957 35.6313 21.5502 35.6666 21.5198 35.7271Z" fill="#989898"/>
<path d="M21.3219 35.5869C21.2663 35.5516 21.2056 35.5466 21.2056 35.5466C21.2056 35.5466 21.241 35.597 21.2966 35.6272C21.3523 35.6625 21.413 35.6676 21.413 35.6676C21.413 35.6676 21.3776 35.6172 21.3219 35.5869Z" fill="#989898"/>
<path d="M20.9778 35.8242C21.0335 35.8595 21.0942 35.8645 21.0942 35.8645C21.0942 35.8645 21.0588 35.8141 21.0031 35.7839C20.9474 35.7486 20.8867 35.7435 20.8867 35.7435C20.8867 35.7435 20.9221 35.7939 20.9778 35.8242Z" fill="#989898"/>
<path d="M21.428 36.096C21.4836 36.1313 21.5444 36.1363 21.5444 36.1363C21.5444 36.1363 21.5089 36.0859 21.4533 36.0557C21.3976 36.0204 21.3369 36.0153 21.3369 36.0153C21.3369 36.0153 21.3723 36.0657 21.428 36.096Z" fill="#989898"/>
<path d="M21.1956 35.9299C21.1652 35.9904 21.1602 36.0509 21.1602 36.0509C21.1602 36.0509 21.2057 36.0156 21.2361 35.9551C21.2664 35.8946 21.2715 35.8341 21.2715 35.8341C21.2715 35.8341 21.2259 35.8694 21.1956 35.9299Z" fill="#989898"/>
<path d="M21.3626 36.3692C21.3322 36.4297 21.3271 36.4902 21.3271 36.4902C21.3271 36.4902 21.3727 36.4549 21.403 36.3944C21.4334 36.3339 21.4385 36.2734 21.4385 36.2734C21.4385 36.2734 21.3929 36.3087 21.3626 36.3692Z" fill="#989898"/>
<path d="M21.1701 36.2231C21.1144 36.1878 21.0537 36.1827 21.0537 36.1827C21.0537 36.1827 21.0891 36.2332 21.1448 36.2634C21.2004 36.2987 21.2612 36.3037 21.2612 36.3037C21.2612 36.3037 21.2257 36.2533 21.1701 36.2231Z" fill="#989898"/>
<path d="M21.6056 36.4712C21.55 36.436 21.4893 36.4309 21.4893 36.4309C21.4893 36.4309 21.5247 36.4813 21.5803 36.5116C21.636 36.5469 21.6967 36.5519 21.6967 36.5519C21.6967 36.5519 21.6613 36.5015 21.6056 36.4712Z" fill="#989898"/>
<path d="M21.0642 36.5228C21.0339 36.5833 21.0288 36.6438 21.0288 36.6438C21.0288 36.6438 21.0743 36.6085 21.1047 36.548C21.1351 36.4875 21.1401 36.427 21.1401 36.427C21.1401 36.427 21.0946 36.4623 21.0642 36.5228Z" fill="#989898"/>
<path d="M21.5198 36.7946C21.4894 36.8551 21.4844 36.9156 21.4844 36.9156C21.4844 36.9156 21.5299 36.8803 21.5603 36.8198C21.5906 36.7593 21.5957 36.6988 21.5957 36.6988C21.5957 36.6988 21.5502 36.7341 21.5198 36.7946Z" fill="#989898"/>
<path d="M21.3219 36.6486C21.2663 36.6133 21.2056 36.6082 21.2056 36.6082C21.2056 36.6082 21.241 36.6586 21.2966 36.6889C21.3523 36.7242 21.413 36.7292 21.413 36.7292C21.413 36.7292 21.3776 36.6788 21.3219 36.6486Z" fill="#989898"/>
<path d="M20.9778 36.8858C21.0335 36.9211 21.0942 36.9261 21.0942 36.9261C21.0942 36.9261 21.0588 36.8757 21.0031 36.8455C20.9474 36.8102 20.8867 36.8051 20.8867 36.8051C20.8867 36.8051 20.9221 36.8555 20.9778 36.8858Z" fill="#989898"/>
<path d="M21.428 37.1635C21.4836 37.1988 21.5444 37.2038 21.5444 37.2038C21.5444 37.2038 21.5089 37.1534 21.4533 37.1232C21.3976 37.0879 21.3369 37.0828 21.3369 37.0828C21.3369 37.0828 21.3723 37.1332 21.428 37.1635Z" fill="#989898"/>
<path d="M21.1956 36.9916C21.1652 37.0521 21.1602 37.1126 21.1602 37.1126C21.1602 37.1126 21.2057 37.0773 21.2361 37.0168C21.2664 36.9563 21.2715 36.8958 21.2715 36.8958C21.2715 36.8958 21.2259 36.931 21.1956 36.9916Z" fill="#989898"/>
<path d="M21.3626 37.4308C21.3322 37.4913 21.3271 37.5518 21.3271 37.5518C21.3271 37.5518 21.3727 37.5165 21.403 37.456C21.4334 37.3955 21.4385 37.335 21.4385 37.335C21.4385 37.335 21.3929 37.3703 21.3626 37.4308Z" fill="#989898"/>
<path d="M21.1701 37.2906C21.1144 37.2553 21.0537 37.2502 21.0537 37.2502C21.0537 37.2502 21.0891 37.3007 21.1448 37.3309C21.2004 37.3612 21.2612 37.3713 21.2612 37.3713C21.2612 37.3713 21.2257 37.3208 21.1701 37.2906Z" fill="#989898"/>
<path d="M21.6056 37.5328C21.55 37.4975 21.4893 37.4925 21.4893 37.4925C21.4893 37.4925 21.5247 37.5429 21.5803 37.5732C21.636 37.6085 21.6967 37.6135 21.6967 37.6135C21.6967 37.6135 21.6613 37.5631 21.6056 37.5328Z" fill="#989898"/>
<path d="M21.0642 37.5863C21.0339 37.6468 21.0288 37.7073 21.0288 37.7073C21.0288 37.7073 21.0743 37.6721 21.1047 37.6115C21.1351 37.551 21.1401 37.4905 21.1401 37.4905C21.1401 37.4905 21.0946 37.5258 21.0642 37.5863Z" fill="#989898"/>
<path d="M21.5198 37.8581C21.4894 37.9186 21.4844 37.9791 21.4844 37.9791C21.4844 37.9791 21.5299 37.9438 21.5603 37.8833C21.5906 37.8228 21.5957 37.7623 21.5957 37.7623C21.5957 37.7623 21.5502 37.7976 21.5198 37.8581Z" fill="#989898"/>
<path d="M21.3219 37.718C21.2663 37.6827 21.2056 37.6777 21.2056 37.6777C21.2056 37.6777 21.241 37.7281 21.2966 37.7583C21.3523 37.7936 21.413 37.7987 21.413 37.7987C21.413 37.7987 21.3776 37.7483 21.3219 37.718Z" fill="#989898"/>
<path d="M20.9778 37.9553C21.0335 37.9906 21.0942 37.9956 21.0942 37.9956C21.0942 37.9956 21.0588 37.9452 21.0031 37.915C20.9474 37.8797 20.8867 37.8746 20.8867 37.8746C20.8867 37.8746 20.9221 37.9251 20.9778 37.9553Z" fill="#989898"/>
<path d="M21.428 38.227C21.4836 38.2623 21.5444 38.2674 21.5444 38.2674C21.5444 38.2674 21.5089 38.217 21.4533 38.1867C21.3976 38.1514 21.3369 38.1464 21.3369 38.1464C21.3369 38.1464 21.3723 38.1968 21.428 38.227Z" fill="#989898"/>
<path d="M21.1956 38.061C21.1652 38.1215 21.1602 38.182 21.1602 38.182C21.1602 38.182 21.2057 38.1467 21.2361 38.0862C21.2664 38.0257 21.2715 37.9652 21.2715 37.9652C21.2715 37.9652 21.2259 38.0005 21.1956 38.061Z" fill="#989898"/>
<path d="M21.3626 38.5002C21.3322 38.5607 21.3271 38.6212 21.3271 38.6212C21.3271 38.6212 21.3727 38.5859 21.403 38.5254C21.4334 38.4649 21.4385 38.4044 21.4385 38.4044C21.4385 38.4044 21.3929 38.4397 21.3626 38.5002Z" fill="#989898"/>
<path d="M21.1701 38.3542C21.1144 38.3189 21.0537 38.3138 21.0537 38.3138C21.0537 38.3138 21.0891 38.3643 21.1448 38.3945C21.2004 38.4298 21.2612 38.4349 21.2612 38.4349C21.2612 38.4349 21.2257 38.3844 21.1701 38.3542Z" fill="#989898"/>
<path d="M21.6056 38.6023C21.55 38.5671 21.4893 38.562 21.4893 38.562C21.4893 38.562 21.5247 38.6124 21.5803 38.6427C21.636 38.678 21.6967 38.683 21.6967 38.683C21.6967 38.683 21.6613 38.6326 21.6056 38.6023Z" fill="#989898"/>
<path d="M21.0642 38.6559C21.0339 38.7164 21.0288 38.7769 21.0288 38.7769C21.0288 38.7769 21.0743 38.7416 21.1047 38.6811C21.1351 38.6206 21.1401 38.5601 21.1401 38.5601C21.1401 38.5601 21.0946 38.5954 21.0642 38.6559Z" fill="#989898"/>
<path d="M21.5198 38.9276C21.4894 38.9881 21.4844 39.0486 21.4844 39.0486C21.4844 39.0486 21.5299 39.0133 21.5603 38.9528C21.5906 38.8923 21.5957 38.8318 21.5957 38.8318C21.5957 38.8318 21.5502 38.8671 21.5198 38.9276Z" fill="#989898"/>
<path d="M21.3219 38.7815C21.2663 38.7463 21.2056 38.7412 21.2056 38.7412C21.2056 38.7412 21.241 38.7916 21.2966 38.8219C21.3523 38.8572 21.413 38.8622 21.413 38.8622C21.413 38.8622 21.3776 38.8118 21.3219 38.7815Z" fill="#989898"/>
<path d="M20.9778 39.0248C21.0335 39.0601 21.0942 39.0651 21.0942 39.0651C21.0942 39.0651 21.0588 39.0147 21.0031 38.9844C20.9474 38.9491 20.8867 38.9441 20.8867 38.9441C20.8867 38.9441 20.9221 38.9945 20.9778 39.0248Z" fill="#989898"/>
<path d="M21.428 39.2965C21.4836 39.3318 21.5444 39.3368 21.5444 39.3368C21.5444 39.3368 21.5089 39.2864 21.4533 39.2562C21.3976 39.2209 21.3369 39.2158 21.3369 39.2158C21.3369 39.2158 21.3723 39.2662 21.428 39.2965Z" fill="#989898"/>
<path d="M21.1956 39.1266C21.1652 39.1871 21.1602 39.2476 21.1602 39.2476C21.1602 39.2476 21.2057 39.2123 21.2361 39.1518C21.2664 39.0913 21.2715 39.0308 21.2715 39.0308C21.2715 39.0308 21.2259 39.0661 21.1956 39.1266Z" fill="#989898"/>
<path d="M21.3626 39.5697C21.3322 39.6302 21.3271 39.6907 21.3271 39.6907C21.3271 39.6907 21.3727 39.6554 21.403 39.5949C21.4334 39.5344 21.4385 39.4739 21.4385 39.4739C21.4385 39.4739 21.3929 39.5092 21.3626 39.5697Z" fill="#989898"/>
<path d="M21.1701 39.4236C21.1144 39.3883 21.0537 39.3833 21.0537 39.3833C21.0537 39.3833 21.0891 39.4337 21.1448 39.464C21.2004 39.4942 21.2612 39.5043 21.2612 39.5043C21.2612 39.5043 21.2257 39.4539 21.1701 39.4236Z" fill="#989898"/>
<path d="M21.6056 39.6659C21.55 39.6306 21.4893 39.6255 21.4893 39.6255C21.4893 39.6255 21.5247 39.676 21.5803 39.7062C21.636 39.7415 21.6967 39.7466 21.6967 39.7466C21.6967 39.7466 21.6613 39.6961 21.6056 39.6659Z" fill="#989898"/>
<path d="M21.0642 39.7253C21.0339 39.7858 21.0288 39.8463 21.0288 39.8463C21.0288 39.8463 21.0743 39.811 21.1047 39.7505C21.1351 39.69 21.1401 39.6295 21.1401 39.6295C21.1401 39.6295 21.0946 39.6648 21.0642 39.7253Z" fill="#989898"/>
<path d="M21.5198 39.997C21.4894 40.0575 21.4844 40.1181 21.4844 40.1181C21.4844 40.1181 21.5299 40.0828 21.5603 40.0223C21.5906 39.9617 21.5957 39.9012 21.5957 39.9012C21.5957 39.9012 21.5502 39.9365 21.5198 39.997Z" fill="#989898"/>
<path d="M21.3219 39.851C21.2663 39.8157 21.2056 39.8107 21.2056 39.8107C21.2056 39.8107 21.241 39.8611 21.2966 39.8913C21.3523 39.9266 21.413 39.9317 21.413 39.9317C21.413 39.9317 21.3776 39.8813 21.3219 39.851Z" fill="#989898"/>
<path d="M20.9778 40.0884C21.0335 40.1237 21.0942 40.1287 21.0942 40.1287C21.0942 40.1287 21.0588 40.0783 21.0031 40.048C20.9474 40.0127 20.8867 40.0077 20.8867 40.0077C20.8867 40.0077 20.9221 40.0581 20.9778 40.0884Z" fill="#989898"/>
<path d="M21.428 40.3601C21.4836 40.3954 21.5444 40.4004 21.5444 40.4004C21.5444 40.4004 21.5089 40.35 21.4533 40.3198C21.3976 40.2845 21.3369 40.2794 21.3369 40.2794C21.3369 40.2794 21.3723 40.3298 21.428 40.3601Z" fill="#989898"/>
<path d="M21.1956 40.194C21.1652 40.2545 21.1602 40.315 21.1602 40.315C21.1602 40.315 21.2057 40.2797 21.2361 40.2192C21.2664 40.1587 21.2715 40.0982 21.2715 40.0982C21.2715 40.0982 21.2259 40.1335 21.1956 40.194Z" fill="#989898"/>
<path d="M21.1701 40.4931C21.1144 40.4578 21.0537 40.4528 21.0537 40.4528C21.0537 40.4528 21.0891 40.5032 21.1448 40.5334C21.2004 40.5687 21.2612 40.5738 21.2612 40.5738C21.2612 40.5738 21.2257 40.5233 21.1701 40.4931Z" fill="#989898"/>
</g>
<path d="M17.9725 52.0045H18.1698C18.2369 52.0045 18.2913 51.95 18.2913 51.8835V51.8482C18.2913 51.7811 18.2369 51.7272 18.1698 51.7272H17.9725C17.9054 51.7272 17.8511 51.7811 17.8511 51.8482V51.8835C17.8511 51.95 17.9054 52.0045 17.9725 52.0045Z" fill="url(#paint3_linear_3278_35347)"/>
<path d="M17.2993 51.7307H17.0463C16.9957 51.7307 16.9502 51.7761 16.9502 51.8316V51.9122C16.9502 51.9677 16.9907 52.0131 17.0463 52.0131H17.2993C17.3499 52.0131 17.3955 51.9677 17.3955 51.9122V51.8316C17.3955 51.7761 17.355 51.7307 17.2993 51.7307Z" fill="url(#paint4_linear_3278_35347)"/>
<path d="M17.4716 50.9446H17.7196C17.8714 50.9446 17.9928 51.0757 17.9928 51.2371V52.0993C17.9928 52.2606 17.8663 52.3867 17.7145 52.3867H17.4666C17.3148 52.3867 17.1934 52.2556 17.1934 52.0942V51.232C17.1934 51.0707 17.3199 50.9446 17.4716 50.9446Z" fill="url(#paint5_linear_3278_35347)"/>
<path d="M5.17124 52.0045H5.36857C5.43561 52.0045 5.49 51.95 5.49 51.8835V51.8482C5.49 51.7811 5.43561 51.7272 5.36857 51.7272H5.17124C5.10415 51.7272 5.0498 51.7811 5.0498 51.8482V51.8835C5.0498 51.95 5.10415 52.0045 5.17124 52.0045Z" fill="url(#paint6_linear_3278_35347)"/>
<path d="M4.49805 51.7307H4.24506C4.19446 51.7307 4.14893 51.7761 4.14893 51.8316V51.9122C4.14893 51.9677 4.1894 52.0131 4.24506 52.0131H4.49805C4.54865 52.0131 4.59419 51.9677 4.59419 51.9122V51.8316C4.59419 51.7761 4.55371 51.7307 4.49805 51.7307Z" fill="url(#paint7_linear_3278_35347)"/>
<path d="M4.67526 50.9446H4.92319C5.07497 50.9446 5.1964 51.0757 5.1964 51.2371V52.0993C5.1964 52.2606 5.06991 52.3867 4.91813 52.3867H4.6702C4.51841 52.3867 4.39697 52.2556 4.39697 52.0942V51.232C4.39697 51.0707 4.52347 50.9446 4.67526 50.9446Z" fill="url(#paint8_linear_3278_35347)"/>
<path d="M17.8359 51.5749H4.59951C2.88931 51.5749 1.50293 50.1934 1.50293 48.4892L1.50293 32.0823H20.9375V48.4892C20.9375 50.1934 19.5511 51.5749 17.8409 51.5749H17.8359Z" fill="#989898"/>
<path d="M3.3442 51.5759H19.0952C20.1122 51.5759 20.937 50.7086 20.937 49.6396V48.7623H1.50244V49.6396C1.50244 50.7086 2.32718 51.5759 3.3442 51.5759Z" fill="url(#paint9_linear_3278_35347)"/>
<path d="M3.3442 51.5759H19.0952C20.1122 51.5759 20.937 50.7086 20.937 49.6396V48.7623H1.50244V49.6396C1.50244 50.7086 2.32718 51.5759 3.3442 51.5759Z" fill="url(#paint10_linear_3278_35347)"/>
<path opacity="0.2" d="M3.6077 51.0959H18.8275C19.8091 51.0959 20.6085 50.2288 20.6085 49.1598V48.7565H1.82666V49.1598C1.82666 50.2288 2.6261 51.0959 3.6077 51.0959Z" fill="#010101"/>
<path d="M2.10498 48.308L2.10498 32.4658H20.3353V48.308C20.3353 49.4576 19.3993 50.3853 18.2507 50.3853H4.19466C3.04103 50.3853 2.11004 49.4525 2.11004 48.308H2.10498Z" fill="#F6F8EB"/>
<g opacity="0.1">
<path d="M2.10498 48.3099L2.10498 32.4677H20.3353V48.3099C20.3353 49.4595 19.3993 50.3872 18.2507 50.3872H4.19466C3.04103 50.3872 2.11004 49.4545 2.11004 48.3099H2.10498Z" fill="url(#paint11_radial_3278_35347)"/>
</g>
<g opacity="0.5">
<path d="M2.10498 48.3099L2.10498 32.4677H20.3353V48.3099C20.3353 49.4595 19.3993 50.3872 18.2507 50.3872H4.19466C3.04103 50.3872 2.11004 49.4545 2.11004 48.3099H2.10498Z" fill="url(#paint12_linear_3278_35347)"/>
</g>
<path opacity="0.3" d="M15.5386 50.3906H16.6011L17.5169 37.6796L16.4544 37.5989L15.5386 50.3906Z" fill="url(#paint13_linear_3278_35347)"/>
<path opacity="0.3" d="M6.91147 50.3906H5.84892L4.93311 37.6796L5.99566 37.5989L6.91147 50.3906Z" fill="url(#paint14_linear_3278_35347)"/>
<path d="M3.34462 50.9446H19.0957C19.7788 50.9446 20.3353 50.36 20.3353 49.644V49.0894C20.3353 49.8104 19.7788 50.3902 19.0957 50.3902H3.34462C2.66155 50.3902 2.10498 49.8053 2.10498 49.0894V49.644C2.10498 50.36 2.66155 50.9446 3.34462 50.9446Z" fill="#CCCCCC"/>
<path opacity="0.4" d="M6.98242 50.8796H15.5385V50.809H6.98242V50.8796Z" fill="#676767"/>
<path opacity="0.4" d="M6.98242 50.7575H15.5385V50.687H6.98242V50.7575Z" fill="#676767"/>
<path opacity="0.4" d="M6.98242 50.6375H15.5385V50.567H6.98242V50.6375Z" fill="#676767"/>
<path opacity="0.4" d="M6.98242 50.5115H15.5385V50.4409H6.98242V50.5115Z" fill="#676767"/>
<path d="M19.0908 50.9446C19.7739 50.9446 20.3305 50.36 20.3305 49.644V49.0894C20.3305 49.8104 19.7739 50.3902 19.0908 50.3902V50.9446Z" fill="#F26722"/>
<path d="M15.5843 50.3892H19.0958V50.9441H15.2402L15.5843 50.3892Z" fill="#E0F2F6"/>
<g style="mix-blend-mode:overlay">
<path d="M19.0902 50.4404H15.5534L15.4775 50.5614H19.0902H19.0953V50.4404H19.0902Z" fill="white"/>
</g>
<g style="mix-blend-mode:overlay" opacity="0.4">
<path d="M19.0957 50.5624C19.7788 50.5624 20.3353 49.9775 20.3353 49.2615V49.1405C20.3353 49.8565 19.7788 50.4414 19.0957 50.4414V50.5624Z" fill="white"/>
</g>
<path d="M20.3354 49.1405H20.4569C20.4872 49.1405 20.5125 49.1808 20.5125 49.2363V49.5993C20.5125 49.6498 20.4872 49.6951 20.4569 49.6951H20.3354V49.1405Z" fill="#F26722"/>
<path d="M3.36953 50.9446C2.68646 50.9446 2.12988 50.36 2.12988 49.644V49.0894C2.12988 49.8104 2.68646 50.3902 3.36953 50.3902V50.9446Z" fill="#F26722"/>
<path d="M6.87606 50.3892H3.36963V50.9441H7.22519L6.87606 50.3892Z" fill="#E0F2F6"/>
<g style="mix-blend-mode:overlay">
<path d="M3.36963 50.4404H6.90642L6.98232 50.5614H3.36963V50.4404Z" fill="white"/>
</g>
<g style="mix-blend-mode:overlay" opacity="0.4">
<path d="M3.36953 50.5624C2.68646 50.5624 2.12988 49.9775 2.12988 49.2615V49.1405C2.12988 49.8565 2.68646 50.4414 3.36953 50.4414V50.5624Z" fill="white"/>
</g>
<path d="M2.12485 49.1405H2.00341C1.97305 49.1405 1.94775 49.1808 1.94775 49.2363V49.5993C1.94775 49.6498 1.97305 49.6951 2.00341 49.6951H2.12485V49.1405Z" fill="#F26722"/>
<path d="M18.7212 36.1009C16.7783 36.3984 8.18171 37.1093 3.9467 36.1665C3.52674 36.0707 3.10172 36.3026 2.92968 36.7161L2.16566 42.2119C1.98857 42.6405 2.20108 43.1296 2.6261 43.2657C4.78662 43.9666 11.253 45.58 19.7989 43.185C20.229 43.064 20.4567 42.5699 20.2897 42.1413L19.6977 36.6858C19.5409 36.2774 19.1412 36.0354 18.7313 36.1009H18.7212Z" fill="#F4F4F4"/>
<path opacity="0.5" d="M18.7212 36.1009C16.7783 36.3984 8.18171 37.1093 3.9467 36.1665C3.52674 36.0707 3.10172 36.3026 2.92968 36.7161L2.16566 42.2119C1.98857 42.6405 2.20108 43.1296 2.6261 43.2657C4.78662 43.9666 11.253 45.58 19.7989 43.185C20.229 43.064 20.4567 42.5699 20.2897 42.1413L19.6977 36.6858C19.5409 36.2774 19.1412 36.0354 18.7313 36.1009H18.7212Z" fill="url(#paint15_linear_3278_35347)"/>
<path d="M18.8527 36.4734C19.0702 36.4734 19.2676 36.6146 19.3536 36.8264L19.9456 42.2819C19.9861 42.3878 19.981 42.5088 19.9304 42.6096C19.8849 42.7105 19.7988 42.7811 19.6977 42.8113C16.7326 43.6433 13.7372 44.0617 10.7925 44.0617C6.89644 44.0617 4.06801 43.3306 2.72717 42.892C2.62598 42.8567 2.53996 42.7811 2.49949 42.6802C2.45395 42.5743 2.45395 42.4584 2.49949 42.3525L3.26857 36.8566C3.35459 36.6499 3.54686 36.5138 3.75937 36.5138C3.79479 36.5138 3.83526 36.5138 3.87068 36.5289C5.30768 36.8516 8.52569 37.0129 10.4788 37.0129C13.3223 37.0129 17.4562 36.6751 18.7717 36.4734C18.797 36.4734 18.8223 36.4684 18.8476 36.4684L18.8527 36.4734Z" fill="#010101"/>
<path d="M18.8529 36.6653C18.9997 36.6653 19.1262 36.7561 19.1818 36.9023L19.7738 42.3578C19.8042 42.4335 19.7839 42.499 19.7688 42.5292C19.7536 42.5645 19.7182 42.6099 19.6524 42.6301C16.7025 43.457 13.7223 43.8755 10.7978 43.8755C6.92706 43.8755 4.11386 43.1495 2.7882 42.7158C2.71736 42.6906 2.68194 42.6402 2.67182 42.6099C2.65665 42.5797 2.64147 42.5141 2.67182 42.4385L3.44091 36.9427C3.49657 36.8065 3.62306 36.7157 3.76473 36.7157C3.79003 36.7157 3.81533 36.7158 3.84063 36.7258C5.2877 37.0485 8.52089 37.2149 10.4891 37.2149C13.3428 37.2149 17.4919 36.8721 18.8125 36.6704C18.8276 36.6704 18.8479 36.6704 18.8631 36.6704L18.8529 36.6653Z" fill="#686C86"/>
<path opacity="0.2" d="M19.6116 40.8664C17.4865 41.4109 14.3039 41.8446 11.2174 41.8446C8.13099 41.8446 4.99898 41.4009 2.88399 40.8664L2.66642 42.4345C2.63607 42.5101 2.65631 42.5706 2.66642 42.6059C2.6816 42.6362 2.71196 42.6916 2.7828 42.7118C4.11352 43.1454 6.9217 43.8715 10.7924 43.8715C13.722 43.8715 16.6972 43.453 19.647 42.6261C19.7128 42.6059 19.7482 42.5605 19.7634 42.5252C19.7786 42.495 19.7988 42.4294 19.7685 42.3538L19.6065 40.8664H19.6116Z" fill="#010101"/>
<path d="M19.7332 42.2471C17.4563 42.837 14.4761 43.195 11.2176 43.195C7.95912 43.195 5.00927 42.842 2.73744 42.2572L2.66154 42.4387C2.63118 42.5143 2.65142 42.5748 2.66154 42.6101C2.67672 42.6404 2.70708 42.6958 2.77792 42.716C4.10864 43.1496 6.91681 43.8757 10.7875 43.8757C13.7171 43.8757 16.6923 43.4572 19.6421 42.6303C19.7079 42.6101 19.7433 42.5647 19.7585 42.5294C19.7737 42.4992 19.7939 42.4336 19.7636 42.358L19.7231 42.2521L19.7332 42.2471Z" fill="#333333"/>
<path d="M16.9757 42.343L14.5925 42.8624L14.5723 42.7414L16.9605 42.2825L16.9757 42.343Z" fill="#010101"/>
<path d="M11.2686 43.3706L14.522 42.7454L14.3601 42.9067L11.2888 43.4966L11.2686 43.3706Z" fill="#010101"/>
<path d="M16.8242 42.2766L11.1421 43.3607L11.1522 43.4262L16.9709 42.3119L16.8242 42.2766Z" fill="#333333"/>
<path d="M11.2884 43.4003C11.3036 43.4961 11.2429 43.5869 11.1518 43.607C11.0607 43.6222 10.9747 43.5617 10.9545 43.4659C10.9393 43.3701 11 43.2793 11.0911 43.2591C11.1822 43.239 11.2682 43.3045 11.2884 43.4003Z" fill="#010101"/>
<path d="M11.2832 43.3663C11.2984 43.4469 11.2478 43.5175 11.1719 43.5326C11.096 43.5478 11.0252 43.4974 11.01 43.4167C10.9948 43.336 11.0454 43.2654 11.1213 43.2503C11.1972 43.2352 11.2681 43.2856 11.2832 43.3663Z" fill="#333333"/>
<path d="M11.6933 42.6258L9.27477 42.893L9.26465 42.767L11.6883 42.5602L11.6933 42.6258Z" fill="#010101"/>
<path d="M5.91992 43.0443L9.21889 42.767L9.0418 42.9132L5.93004 43.1754L5.91992 43.0443Z" fill="#010101"/>
<path d="M11.5515 42.5405L5.79346 43.0246L5.79852 43.0901L11.6931 42.596L11.5515 42.5405Z" fill="#333333"/>
<path d="M5.93529 43.075C5.94035 43.1708 5.87458 43.2565 5.7835 43.2666C5.69242 43.2767 5.61147 43.2011 5.60135 43.1053C5.59629 43.0095 5.66206 42.9238 5.75314 42.9137C5.84422 42.9036 5.92517 42.9792 5.93529 43.075Z" fill="#010101"/>
<path d="M5.93517 43.0442C5.94023 43.1249 5.88457 43.1955 5.80867 43.2005C5.73278 43.2055 5.667 43.1501 5.66194 43.0694C5.65688 42.9887 5.71254 42.9181 5.78843 42.9131C5.86433 42.9081 5.93011 42.9635 5.93517 43.0442Z" fill="#333333"/>
<path opacity="0.5" d="M18.8529 36.6653C18.9997 36.6653 19.1262 36.7561 19.1818 36.9023L19.7738 42.3578C19.8042 42.4335 19.7839 42.499 19.7688 42.5292C19.7536 42.5645 19.7182 42.6099 19.6524 42.6301C16.7025 43.457 13.7223 43.8755 10.7978 43.8755C6.92706 43.8755 4.11386 43.1495 2.7882 42.7158C2.71736 42.6906 2.68194 42.6402 2.67182 42.6099C2.65665 42.5797 2.64147 42.5141 2.67182 42.4385L3.44091 36.9427C3.49657 36.8065 3.62306 36.7157 3.76473 36.7157C3.79003 36.7157 3.81533 36.7158 3.84063 36.7258C5.2877 37.0485 8.52089 37.2149 10.4891 37.2149C13.3428 37.2149 17.4919 36.8721 18.8125 36.6704C18.8276 36.6704 18.8479 36.6704 18.8631 36.6704L18.8529 36.6653Z" fill="url(#paint16_radial_3278_35347)"/>
<path style="mix-blend-mode:overlay" opacity="0.3" d="M18.8529 36.6653C18.9997 36.6653 19.1262 36.7561 19.1818 36.9023L19.7738 42.3578C19.8042 42.4335 19.7839 42.499 19.7688 42.5292C19.7536 42.5645 19.7182 42.6099 19.6524 42.6301C16.7025 43.457 13.7223 43.8755 10.7978 43.8755C6.92706 43.8755 4.11386 43.1495 2.7882 42.7158C2.71736 42.6906 2.68194 42.6402 2.67182 42.6099C2.65665 42.5797 2.64147 42.5141 2.67182 42.4385L3.44091 36.9427C3.49657 36.8065 3.62306 36.7157 3.76473 36.7157C3.79003 36.7157 3.81533 36.7158 3.84063 36.7258C5.2877 37.0485 8.52089 37.2149 10.4891 37.2149C13.3428 37.2149 17.4919 36.8721 18.8125 36.6704C18.8276 36.6704 18.8479 36.6704 18.8631 36.6704L18.8529 36.6653Z" fill="url(#paint17_radial_3278_35347)"/>
<path d="M20.3456 32.4654C20.3456 32.4654 20.3304 32.4654 20.3203 32.4654H19.4804C19.3944 32.4906 19.3286 32.6519 19.3286 32.8385V35.3797C19.3286 35.4301 19.3286 35.4805 19.3438 35.5259L20.2444 42.5697C20.2596 42.6504 20.295 42.7008 20.3355 42.7008C20.3912 42.7008 20.4367 42.605 20.4367 42.484L20.5227 32.8385C20.5227 32.7376 20.5025 32.6418 20.4721 32.5713C20.4367 32.5007 20.3962 32.4603 20.3456 32.4603V32.4654Z" fill="#F4F4F4"/>
<path opacity="0.5" d="M20.3456 32.4654C20.3456 32.4654 20.3304 32.4654 20.3203 32.4654H19.4804C19.3944 32.4906 19.3286 32.6519 19.3286 32.8385V35.3797C19.3286 35.4301 19.3286 35.4805 19.3438 35.5259L20.2444 42.5697C20.2596 42.6504 20.295 42.7008 20.3355 42.7008C20.3912 42.7008 20.4367 42.605 20.4367 42.484L20.5227 32.8385C20.5227 32.7376 20.5025 32.6418 20.4721 32.5713C20.4367 32.5007 20.3962 32.4603 20.3456 32.4603V32.4654Z" fill="url(#paint18_linear_3278_35347)"/>
<path d="M20.3048 42.5202L19.4042 35.4764C19.3991 35.4462 19.394 35.4159 19.394 35.3856V32.8444C19.394 32.7285 19.4345 32.6276 19.4902 32.6075H20.3301C20.3959 32.5923 20.4566 32.7033 20.4566 32.8444L20.3706 42.4899C20.3706 42.5706 20.32 42.5908 20.3048 42.5202Z" fill="#010101"/>
<path d="M20.3355 32.7518H19.4956C19.4956 32.7518 19.4551 32.7972 19.4551 32.8426V35.3838C19.4551 35.3838 19.4551 35.409 19.4551 35.4191L20.295 42.1452L20.381 32.8426C20.381 32.8174 20.381 32.7922 20.3658 32.777C20.3557 32.7569 20.3456 32.7518 20.3355 32.7518Z" fill="#686C86"/>
<path opacity="0.2" d="M20.062 32.8375L20.3403 32.7518H20.3454C20.3454 32.7518 20.3707 32.7619 20.3757 32.777C20.3858 32.7972 20.3909 32.8174 20.3909 32.8426L20.3049 42.1452L20.1632 38.9334L20.0671 32.8375H20.062Z" fill="#010101"/>
<path opacity="0.5" d="M20.3355 32.7518H19.4956C19.4956 32.7518 19.4551 32.7972 19.4551 32.8426V35.3838C19.4551 35.3838 19.4551 35.409 19.4551 35.4191L20.295 42.1452L20.381 32.8426C20.381 32.8174 20.381 32.7922 20.3658 32.777C20.3557 32.7569 20.3456 32.7518 20.3355 32.7518Z" fill="url(#paint19_linear_3278_35347)"/>
<path style="mix-blend-mode:overlay" opacity="0.3" d="M20.3355 32.7518H19.4956C19.4956 32.7518 19.4551 32.7972 19.4551 32.8426V35.3838C19.4551 35.3838 19.4551 35.409 19.4551 35.4191L20.295 42.1452L20.381 32.8426C20.381 32.8174 20.381 32.7922 20.3658 32.777C20.3557 32.7569 20.3456 32.7518 20.3355 32.7518Z" fill="url(#paint20_linear_3278_35347)"/>
<path d="M2.04428 32.4654C2.04428 32.4654 2.05946 32.4654 2.06958 32.4654H2.9095C2.99552 32.4906 3.06129 32.6519 3.06129 32.8385V35.3797C3.06129 35.4301 3.06129 35.4805 3.04611 35.5259L2.14547 42.5697C2.1303 42.6504 2.09488 42.7008 2.0544 42.7008C1.99874 42.7008 1.9532 42.605 1.9532 42.484L1.86719 32.8385C1.86719 32.7376 1.88743 32.6418 1.91779 32.5713C1.9532 32.5007 1.99368 32.4603 2.04428 32.4603V32.4654Z" fill="#F4F4F4"/>
<path opacity="0.5" d="M2.04428 32.4654C2.04428 32.4654 2.05946 32.4654 2.06958 32.4654H2.9095C2.99552 32.4906 3.06129 32.6519 3.06129 32.8385V35.3797C3.06129 35.4301 3.06129 35.4805 3.04611 35.5259L2.14547 42.5697C2.1303 42.6504 2.09488 42.7008 2.0544 42.7008C1.99874 42.7008 1.9532 42.605 1.9532 42.484L1.86719 32.8385C1.86719 32.7376 1.88743 32.6418 1.91779 32.5713C1.9532 32.5007 1.99368 32.4603 2.04428 32.4603V32.4654Z" fill="url(#paint21_linear_3278_35347)"/>
<path d="M2.0849 42.5202L2.98554 35.4764C2.9906 35.4462 2.99566 35.4159 2.99566 35.3856V32.8444C2.99566 32.7285 2.95518 32.6276 2.89952 32.6075H2.0596C1.99382 32.5923 1.93311 32.7033 1.93311 32.8444L2.01912 42.4899C2.01912 42.5706 2.06972 42.5908 2.0849 42.5202Z" fill="#010101"/>
<path d="M2.05433 32.7518H2.89425C2.89425 32.7518 2.93473 32.7972 2.93473 32.8426V35.3838C2.93473 35.3838 2.93473 35.409 2.93473 35.4191L2.09481 42.1452L2.00879 32.8426C2.00879 32.8174 2.00879 32.7922 2.02397 32.777C2.03409 32.7569 2.04421 32.7518 2.05433 32.7518Z" fill="#686C86"/>
<path opacity="0.2" d="M2.32742 32.8375L2.04913 32.7518H2.04407C2.04407 32.7518 2.01877 32.7619 2.01371 32.777C2.00359 32.7972 1.99854 32.8174 1.99854 32.8426L2.08455 42.1452L2.22622 38.9334L2.32236 32.8375H2.32742Z" fill="#010101"/>
<path opacity="0.5" d="M2.05433 32.7518H2.89425C2.89425 32.7518 2.93473 32.7972 2.93473 32.8426V35.3838C2.93473 35.3838 2.93473 35.409 2.93473 35.4191L2.09481 42.1452L2.00879 32.8426C2.00879 32.8174 2.00879 32.7922 2.02397 32.777C2.03409 32.7569 2.04421 32.7518 2.05433 32.7518Z" fill="url(#paint22_linear_3278_35347)"/>
<path style="mix-blend-mode:overlay" opacity="0.3" d="M2.05433 32.7518H2.89425C2.89425 32.7518 2.93473 32.7972 2.93473 32.8426V35.3838C2.93473 35.3838 2.93473 35.409 2.93473 35.4191L2.09481 42.1452L2.00879 32.8426C2.00879 32.8174 2.00879 32.7922 2.02397 32.777C2.03409 32.7569 2.04421 32.7518 2.05433 32.7518Z" fill="url(#paint23_linear_3278_35347)"/>
<path d="M20.3351 41.4598L22.3692 40.6379V41.0363C22.3692 41.2228 22.2578 41.3942 22.0909 41.4598L20.3301 42.1707V41.4598H20.3351Z" fill="#989898"/>
<path opacity="0.4" d="M20.3351 41.4105L22.3692 40.5887V40.987C22.3692 41.1736 22.2578 41.345 22.0909 41.4105L20.3301 42.1215V41.4105H20.3351Z" fill="url(#paint24_linear_3278_35347)"/>
<path d="M20.9172 40.9009L22.2024 40.4622C22.2834 40.432 22.3694 40.4975 22.3694 40.5883V41.0774L20.8262 41.6068V41.027C20.8262 40.9665 20.8616 40.916 20.9122 40.9009H20.9172Z" fill="#676767"/>
<path opacity="0.3" d="M20.9172 40.9009L22.2024 40.4622C22.2834 40.432 22.3694 40.4975 22.3694 40.5883V41.0774L20.8262 41.6068V41.027C20.8262 40.9665 20.8616 40.916 20.9122 40.9009H20.9172Z" fill="url(#paint25_linear_3278_35347)"/>
<path d="M2.03403 41.4598L0 40.6379L0 41.0363C0 41.2228 0.111315 41.3942 0.278287 41.4598L2.03909 42.1707V41.4598H2.03403Z" fill="#989898"/>
<path opacity="0.4" d="M2.03403 41.4105L0 40.5887L0 40.987C0 41.1736 0.111315 41.345 0.278287 41.4105L2.03909 42.1215V41.4105H2.03403Z" fill="url(#paint26_linear_3278_35347)"/>
<path d="M1.45215 40.9009L0.166972 40.4622C0.086016 40.432 0 40.4975 0 40.5883L0 41.0774L1.54323 41.6068V41.027C1.54323 40.9665 1.50781 40.916 1.45721 40.9009H1.45215Z" fill="#676767"/>
<path opacity="0.3" d="M1.45215 40.9009L0.166972 40.4622C0.086016 40.432 0 40.4975 0 40.5883L0 41.0774L1.54323 41.6068V41.027C1.54323 40.9665 1.50781 40.916 1.45721 40.9009H1.45215Z" fill="url(#paint27_linear_3278_35347)"/>
<path d="M5.8542 33.2127H16.5809C16.9047 33.2127 17.1729 33.49 17.1729 33.8329V34.4934C17.1729 34.8363 16.9098 35.1136 16.5809 35.1136H5.8542C5.53037 35.1136 5.26221 34.8363 5.26221 34.4934V33.8329C5.26221 33.49 5.52531 33.2127 5.8542 33.2127Z" fill="#989898"/>
<path d="M5.8542 35.1085H9.89189V33.2127H5.8542C5.53037 33.2127 5.26221 33.49 5.26221 33.8329V34.4934C5.26221 34.8363 5.52531 35.1136 5.8542 35.1136V35.1085Z" fill="#ED2224"/>
<path opacity="0.5" d="M9.46679 33.6617V34.655H5.85918C5.77316 34.655 5.69727 34.5794 5.69727 34.4886V33.8281C5.69727 33.7374 5.7681 33.6617 5.85918 33.6617H9.46679Z" fill="#640E0E"/>
<path d="M16.5865 35.1085H12.5488V33.2127H16.5865C16.9103 33.2127 17.1785 33.49 17.1785 33.8329V34.4934C17.1785 34.8363 16.9154 35.1136 16.5865 35.1136V35.1085Z" fill="#CB2026"/>
<path opacity="0.3" d="M16.5861 33.6617C16.6721 33.6617 16.748 33.7374 16.748 33.8281V34.4886C16.748 34.5794 16.6772 34.655 16.5861 34.655H12.9785V33.6617H16.5861Z" fill="#640E0E"/>
<path style="mix-blend-mode:overlay" opacity="0.5" d="M5.8542 33.2127H16.5809C16.9047 33.2127 17.1729 33.49 17.1729 33.8329V34.4934C17.1729 34.8363 16.9098 35.1136 16.5809 35.1136H5.8542C5.53037 35.1136 5.26221 34.8363 5.26221 34.4934V33.8329C5.26221 33.49 5.52531 33.2127 5.8542 33.2127Z" fill="url(#paint28_radial_3278_35347)"/>
<path opacity="0.5" d="M5.8542 33.2127H16.5809C16.9047 33.2127 17.1729 33.49 17.1729 33.8329V34.4934C17.1729 34.8363 16.9098 35.1136 16.5809 35.1136H5.8542C5.53037 35.1136 5.26221 34.8363 5.26221 34.4934V33.8329C5.26221 33.49 5.52531 33.2127 5.8542 33.2127Z" fill="url(#paint29_linear_3278_35347)"/>
<g style="mix-blend-mode:overlay">
<path d="M6.07206 34.9477H16.3687C16.6824 34.9477 16.9354 34.7057 16.9354 34.4032V34.1561C16.9354 34.4536 16.6824 34.7007 16.3687 34.7007H6.07206C5.75836 34.7007 5.50537 34.4587 5.50537 34.1561V34.4032C5.50537 34.7007 5.75836 34.9477 6.07206 34.9477Z" fill="url(#paint30_linear_3278_35347)"/>
</g>
<path style="mix-blend-mode:overlay" d="M6.07206 33.3683H16.3687C16.6824 33.3683 16.9354 33.6103 16.9354 33.9128V34.1599C16.9354 33.8624 16.6824 33.6153 16.3687 33.6153H6.07206C5.75836 33.6153 5.50537 33.8574 5.50537 34.1599V33.9128C5.50537 33.6153 5.75836 33.3683 6.07206 33.3683Z" fill="url(#paint31_linear_3278_35347)"/>
<path opacity="0.4" d="M16.9154 35.0028L16.7687 34.8163C16.7181 34.7507 16.6878 34.6297 16.6878 34.4986V33.8179C16.6878 33.6868 16.7181 33.5658 16.7687 33.5003L16.9154 33.3137C16.875 33.2835 16.8294 33.2633 16.7839 33.2482L16.6827 33.3742C16.627 33.4398 16.5967 33.5709 16.5967 33.707V34.6045C16.5967 34.7406 16.6321 34.8667 16.6827 34.9373L16.7839 35.0684C16.8294 35.0532 16.875 35.028 16.9154 35.0028Z" fill="white"/>
<path opacity="0.4" d="M5.53564 35.0028L5.68238 34.8163C5.73298 34.7507 5.76333 34.6297 5.76333 34.4986V33.8179C5.76333 33.6868 5.73298 33.5658 5.68238 33.5003L5.53564 33.3137C5.57612 33.2835 5.62166 33.2633 5.6672 33.2482L5.76839 33.3742C5.82405 33.4398 5.85441 33.5709 5.85441 33.707V34.6045C5.85441 34.7406 5.81899 34.8667 5.76839 34.9373L5.6672 35.0684C5.62166 35.0532 5.57612 35.028 5.53564 35.0028Z" fill="white"/>
<g style="mix-blend-mode:overlay" opacity="0.4">
<path d="M16.3178 34.1148H6.12744V34.2056H16.3178V34.1148Z" fill="#010101"/>
</g>
<path d="M0.986763 0.478577L21.4535 0.478577C21.6964 0.478577 21.8988 0.685302 21.8988 0.942448L21.8988 31.6134C21.8988 31.8705 21.7014 32.0773 21.4535 32.0773H0.986763C0.743895 32.0773 0.541504 31.8705 0.541504 31.6134L0.541504 0.942448C0.541504 0.685302 0.738835 0.478577 0.986763 0.478577Z" fill="#989898"/>
<path d="M21.4531 0.79679C21.5341 0.79679 21.5948 0.862337 21.5948 0.948052L21.5948 31.619C21.5948 31.6997 21.529 31.7703 21.4531 31.7703H0.9864C0.905444 31.7703 0.844727 31.7047 0.844727 31.619L0.844727 0.94301C0.844727 0.862337 0.910504 0.791748 0.9864 0.791748L21.4531 0.791748V0.79679Z" fill="#F6F8EB"/>
<path d="M21.4531 0.79679C21.5341 0.79679 21.5948 0.862337 21.5948 0.948052L21.5948 31.619C21.5948 31.6997 21.529 31.7703 21.4531 31.7703H0.9864C0.905444 31.7703 0.844727 31.7047 0.844727 31.619L0.844727 0.94301C0.844727 0.862337 0.910504 0.791748 0.9864 0.791748L21.4531 0.791748V0.79679Z" fill="url(#paint32_radial_3278_35347)"/>
<path opacity="0.2" d="M21.4531 0.79679C21.5341 0.79679 21.5948 0.862337 21.5948 0.948052L21.5948 31.619C21.5948 31.6997 21.529 31.7703 21.4531 31.7703H0.9864C0.905444 31.7703 0.844727 31.7047 0.844727 31.619L0.844727 0.94301C0.844727 0.862337 0.910504 0.791748 0.9864 0.791748L21.4531 0.791748V0.79679Z" fill="url(#paint33_radial_3278_35347)"/>
<path d="M0.541491 30.3793H0.501015C0.268266 30.3793 0.0810547 30.1928 0.0810547 29.9608L0.0810547 28.6297C0.0810547 28.3978 0.268266 28.2112 0.501015 28.2112H0.541491L0.541491 30.3844V30.3793Z" fill="#989898"/>
<path opacity="0.4" d="M0.490902 28.4523L0.490902 30.1363C0.293572 30.1363 0.136719 29.9699 0.136719 29.7632L0.136719 28.8254C0.136719 28.6187 0.293572 28.4523 0.490902 28.4523Z" fill="#640E0E"/>
<path d="M0.516107 30.242V30.2319C0.333958 30.1915 0.202404 30.0201 0.202404 29.8184L0.202404 28.7596C0.202404 28.5579 0.339018 28.3915 0.516107 28.3461V28.3361C0.29348 28.3361 0.111328 28.5277 0.111328 28.7596L0.111328 29.8184C0.111328 30.0504 0.29348 30.242 0.516107 30.242Z" fill="url(#paint34_linear_3278_35347)"/>
<path opacity="0.6" d="M0.318936 28.9271C0.318936 29.1288 0.318936 29.3305 0.318936 29.5321C0.318936 29.6229 0.308817 29.7187 0.329056 29.8044C0.334115 29.8397 0.349295 29.9103 0.394833 29.9103C0.440371 29.9103 0.44543 29.8548 0.44543 29.8195C0.44543 29.7187 0.45049 28.5842 0.435311 28.5842C0.394833 28.5842 0.359414 28.6195 0.344235 28.6599C0.329056 28.7002 0.329056 28.7456 0.329056 28.7859C0.329056 28.8313 0.329056 28.8767 0.329056 28.922L0.318936 28.9271Z" fill="url(#paint35_linear_3278_35347)"/>
<path d="M0.541491 21.7468H0.501015C0.268266 21.7468 0.0810547 21.5602 0.0810547 21.3283L0.0810547 19.9972C0.0810547 19.7652 0.268266 19.5787 0.501015 19.5787H0.541491L0.541491 21.7518V21.7468Z" fill="#989898"/>
<path opacity="0.4" d="M0.490902 19.8197L0.490902 21.5038C0.293572 21.5038 0.136719 21.3374 0.136719 21.1306L0.136719 20.1928C0.136719 19.9861 0.293572 19.8197 0.490902 19.8197Z" fill="#640E0E"/>
<path d="M0.516107 21.6094V21.5993C0.333958 21.559 0.202404 21.3875 0.202404 21.1859L0.202404 20.127C0.202404 19.9253 0.339018 19.759 0.516107 19.7136V19.7035C0.29348 19.7035 0.111328 19.8951 0.111328 20.127L0.111328 21.1859C0.111328 21.4178 0.29348 21.6094 0.516107 21.6094Z" fill="url(#paint36_linear_3278_35347)"/>
<path opacity="0.6" d="M0.318936 20.2945C0.318936 20.4962 0.318936 20.6979 0.318936 20.8996C0.318936 20.9903 0.308817 21.0861 0.329056 21.1718C0.334115 21.2071 0.349295 21.2777 0.394833 21.2777C0.440371 21.2777 0.44543 21.2223 0.44543 21.187C0.44543 21.0861 0.45049 19.9517 0.435311 19.9517C0.394833 19.9517 0.359414 19.987 0.344235 20.0273C0.329056 20.0676 0.329056 20.113 0.329056 20.1533C0.329056 20.1987 0.329056 20.2441 0.329056 20.2895L0.318936 20.2945Z" fill="url(#paint37_linear_3278_35347)"/>
<path d="M0.541491 13.1142H0.501015C0.268266 13.1142 0.0810547 12.9276 0.0810547 12.6957L0.0810547 11.3646C0.0810547 11.1327 0.268266 10.9461 0.501015 10.9461H0.541491L0.541491 13.1192V13.1142Z" fill="#989898"/>
<path opacity="0.4" d="M0.490902 11.1871L0.490902 12.8712C0.293572 12.8712 0.136719 12.7048 0.136719 12.4981L0.136719 11.5602C0.136719 11.3535 0.293572 11.1871 0.490902 11.1871Z" fill="#640E0E"/>
<path d="M0.516107 12.9827V12.9726C0.333958 12.9323 0.202404 12.7608 0.202404 12.5592L0.202404 11.5004C0.202404 11.2987 0.339018 11.1323 0.516107 11.0869V11.0768C0.29348 11.0768 0.111328 11.2684 0.111328 11.5004L0.111328 12.5592C0.111328 12.7911 0.29348 12.9827 0.516107 12.9827Z" fill="url(#paint38_linear_3278_35347)"/>
<path opacity="0.6" d="M0.318936 11.6619C0.318936 11.8636 0.318936 12.0653 0.318936 12.2669C0.318936 12.3577 0.308817 12.4535 0.329056 12.5392C0.334115 12.5745 0.349295 12.6451 0.394833 12.6451C0.440371 12.6451 0.44543 12.5896 0.44543 12.5543C0.44543 12.4535 0.45049 11.319 0.435311 11.319C0.394833 11.319 0.359414 11.3543 0.344235 11.3947C0.329056 11.435 0.329056 11.4804 0.329056 11.5207C0.329056 11.5661 0.329056 11.6115 0.329056 11.6568L0.318936 11.6619Z" fill="url(#paint39_linear_3278_35347)"/>
<path d="M0.541491 4.48358H0.501015C0.268266 4.48358 0.0810547 4.29702 0.0810547 4.06509L0.0810547 2.73398C0.0810547 2.50204 0.268266 2.31549 0.501015 2.31549H0.541491L0.541491 4.48862V4.48358Z" fill="#989898"/>
<path opacity="0.4" d="M0.490902 2.55652L0.490902 4.24057C0.293572 4.24057 0.136719 4.07418 0.136719 3.86746L0.136719 2.92963C0.136719 2.72291 0.293572 2.55652 0.490902 2.55652Z" fill="#640E0E"/>
<path d="M0.516107 4.35207V4.34199C0.333958 4.30165 0.202404 4.13022 0.202404 3.92854L0.202404 2.8697C0.202404 2.66802 0.339018 2.50163 0.516107 2.45625V2.44617C0.29348 2.44617 0.111328 2.63777 0.111328 2.8697L0.111328 3.92854C0.111328 4.16047 0.29348 4.35207 0.516107 4.35207Z" fill="url(#paint40_linear_3278_35347)"/>
<path opacity="0.6" d="M0.318936 3.03134C0.318936 3.23302 0.318936 3.4347 0.318936 3.63639C0.318936 3.72714 0.308817 3.82294 0.329056 3.90866C0.334115 3.94395 0.349295 4.01454 0.394833 4.01454C0.440371 4.01454 0.44543 3.95908 0.44543 3.92379C0.44543 3.82294 0.45049 2.68848 0.435311 2.68848C0.394833 2.68848 0.359414 2.72377 0.344235 2.76411C0.329056 2.80444 0.329056 2.84982 0.329056 2.89016C0.329056 2.93554 0.329056 2.98092 0.329056 3.0263L0.318936 3.03134Z" fill="url(#paint41_linear_3278_35347)"/>
<path d="M21.8989 28.2052H21.9394C22.1722 28.2052 22.3594 28.3918 22.3594 28.6237V29.9548C22.3594 30.1868 22.1722 30.3733 21.9394 30.3733H21.8989V28.2002V28.2052Z" fill="#989898"/>
<path opacity="0.4" d="M21.9492 28.4523V30.1363C22.1465 30.1363 22.3034 29.9699 22.3034 29.7632V28.8254C22.3034 28.6187 22.1465 28.4523 21.9492 28.4523Z" fill="#640E0E"/>
<path d="M21.9238 30.242V30.2319C22.106 30.1915 22.2375 30.0201 22.2375 29.8184V28.7596C22.2375 28.5579 22.1009 28.3915 21.9238 28.3461V28.3361C22.1465 28.3361 22.3286 28.5277 22.3286 28.7596V29.8184C22.3286 30.0504 22.1465 30.242 21.9238 30.242Z" fill="url(#paint42_linear_3278_35347)"/>
<path opacity="0.6" d="M22.1214 28.9271C22.1214 29.1288 22.1214 29.3305 22.1214 29.5321C22.1214 29.6229 22.1315 29.7187 22.1113 29.8044C22.1062 29.8397 22.0911 29.9103 22.0455 29.9103C22 29.9103 21.9949 29.8548 21.9949 29.8195C21.9949 29.7187 21.9899 28.5842 22.0051 28.5842C22.0456 28.5842 22.0809 28.6195 22.0961 28.6599C22.1113 28.7002 22.1113 28.7456 22.1113 28.7859C22.1113 28.8313 22.1113 28.8767 22.1113 28.922L22.1214 28.9271Z" fill="url(#paint43_linear_3278_35347)"/>
<path d="M21.8989 19.5726H21.9394C22.1722 19.5726 22.3594 19.7592 22.3594 19.9911V21.3222C22.3594 21.5541 22.1722 21.7407 21.9394 21.7407H21.8989V19.5676V19.5726Z" fill="#989898"/>
<path opacity="0.4" d="M21.9492 19.8197V21.5038C22.1465 21.5038 22.3034 21.3374 22.3034 21.1306V20.1928C22.3034 19.9861 22.1465 19.8197 21.9492 19.8197Z" fill="#640E0E"/>
<path d="M21.9238 21.6094V21.5993C22.106 21.559 22.2375 21.3875 22.2375 21.1859V20.127C22.2375 19.9253 22.1009 19.759 21.9238 19.7136V19.7035C22.1465 19.7035 22.3286 19.8951 22.3286 20.127V21.1859C22.3286 21.4178 22.1465 21.6094 21.9238 21.6094Z" fill="url(#paint44_linear_3278_35347)"/>
<path opacity="0.6" d="M22.1214 20.2945C22.1214 20.4962 22.1214 20.6979 22.1214 20.8996C22.1214 20.9903 22.1315 21.0861 22.1113 21.1718C22.1062 21.2071 22.0911 21.2777 22.0455 21.2777C22 21.2777 21.9949 21.2223 21.9949 21.187C21.9949 21.0861 21.9899 19.9517 22.0051 19.9517C22.0456 19.9517 22.0809 19.987 22.0961 20.0273C22.1113 20.0676 22.1113 20.113 22.1113 20.1533C22.1113 20.1987 22.1113 20.2441 22.1113 20.2895L22.1214 20.2945Z" fill="url(#paint45_linear_3278_35347)"/>
<path d="M21.8989 10.946H21.9394C22.1722 10.946 22.3594 11.1325 22.3594 11.3645V12.6956C22.3594 12.9275 22.1722 13.1141 21.9394 13.1141H21.8989V10.9409V10.946Z" fill="#989898"/>
<path opacity="0.4" d="M21.9492 11.1871V12.8712C22.1465 12.8712 22.3034 12.7048 22.3034 12.4981V11.5602C22.3034 11.3535 22.1465 11.1871 21.9492 11.1871Z" fill="#640E0E"/>
<path d="M21.9238 12.9827V12.9726C22.106 12.9323 22.2375 12.7608 22.2375 12.5592V11.5004C22.2375 11.2987 22.1009 11.1323 21.9238 11.0869V11.0768C22.1465 11.0768 22.3286 11.2684 22.3286 11.5004V12.5592C22.3286 12.7911 22.1465 12.9827 21.9238 12.9827Z" fill="url(#paint46_linear_3278_35347)"/>
<path opacity="0.6" d="M22.1214 11.6619C22.1214 11.8636 22.1214 12.0653 22.1214 12.2669C22.1214 12.3577 22.1315 12.4535 22.1113 12.5392C22.1062 12.5745 22.0911 12.6451 22.0455 12.6451C22 12.6451 21.9949 12.5896 21.9949 12.5543C21.9949 12.4535 21.9899 11.319 22.0051 11.319C22.0456 11.319 22.0809 11.3543 22.0961 11.3947C22.1113 11.435 22.1113 11.4804 22.1113 11.5207C22.1113 11.5661 22.1113 11.6115 22.1113 11.6568L22.1214 11.6619Z" fill="url(#paint47_linear_3278_35347)"/>
<path d="M21.8989 2.31339H21.9394C22.1722 2.31339 22.3594 2.49995 22.3594 2.73189V4.06299C22.3594 4.29493 22.1722 4.48148 21.9394 4.48148H21.8989V2.30835V2.31339Z" fill="#989898"/>
<path opacity="0.4" d="M21.9492 2.5545V4.23856C22.1465 4.23856 22.3034 4.07217 22.3034 3.86544V2.92762C22.3034 2.72089 22.1465 2.5545 21.9492 2.5545Z" fill="#640E0E"/>
<path d="M21.9238 4.35012V4.34003C22.106 4.29969 22.2375 4.12826 22.2375 3.92658V2.86775C22.2375 2.66607 22.1009 2.49968 21.9238 2.4543V2.44421C22.1465 2.44421 22.3286 2.63581 22.3286 2.86775V3.92658C22.3286 4.15851 22.1465 4.35012 21.9238 4.35012Z" fill="url(#paint48_linear_3278_35347)"/>
<path opacity="0.6" d="M22.1214 3.02933C22.1214 3.23101 22.1214 3.43269 22.1214 3.63437C22.1214 3.72513 22.1315 3.82093 22.1113 3.90664C22.1062 3.94194 22.0911 4.01253 22.0455 4.01253C22 4.01253 21.9949 3.95707 21.9949 3.92178C21.9949 3.82093 21.9899 2.68646 22.0051 2.68646C22.0456 2.68646 22.0809 2.72176 22.0961 2.76209C22.1113 2.80243 22.1113 2.84781 22.1113 2.88815C22.1113 2.93352 22.1113 2.9789 22.1113 3.02428L22.1214 3.02933Z" fill="url(#paint49_linear_3278_35347)"/>
<path d="M18.6198 0.478631V0.423168C18.6198 0.186191 18.8121 -0.000366211 19.0448 -0.000366211L20.2592 -0.000366211C20.497 -0.000366211 20.6842 0.191233 20.6842 0.423168V0.478631L18.6147 0.478631H18.6198Z" fill="#989898"/>
<path opacity="0.4" d="M18.8525 0.424322L20.4565 0.424322C20.4565 0.217597 20.2996 0.0512085 20.1023 0.0512085L19.2118 0.0512085C19.0145 0.0512085 18.8576 0.217597 18.8576 0.424322H18.8525Z" fill="#640E0E"/>
<path d="M20.5577 0.449169H20.5475C20.5071 0.25757 20.3452 0.116393 20.1529 0.116393L19.146 0.116393C18.9537 0.116393 18.7918 0.25757 18.7513 0.449169H18.7412C18.7412 0.217234 18.9234 0.0256348 19.146 0.0256348L20.1529 0.0256348C20.3755 0.0256348 20.5577 0.217234 20.5577 0.449169Z" fill="url(#paint50_linear_3278_35347)"/>
<path opacity="0.6" d="M19.3028 0.242817C19.4951 0.242817 19.6874 0.242817 19.8796 0.242817C19.9657 0.242817 20.0567 0.232732 20.1427 0.2529C20.1782 0.257942 20.2439 0.273069 20.2439 0.32349C20.2439 0.368869 20.1933 0.378952 20.1579 0.378952C20.0618 0.378952 18.979 0.383995 18.979 0.368869C18.979 0.32349 19.0144 0.288195 19.0498 0.273069C19.0903 0.257943 19.1308 0.257942 19.1713 0.257942C19.2118 0.257942 19.2573 0.257942 19.2978 0.257942L19.3028 0.242817Z" fill="url(#paint51_linear_3278_35347)"/>
<path d="M2.17596 0.478631V0.423168C2.17596 0.186191 2.36823 -0.000366211 2.60098 -0.000366211L3.81532 -0.000366211C4.05313 -0.000366211 4.24034 0.191233 4.24034 0.423168V0.478631L2.1709 0.478631H2.17596Z" fill="#989898"/>
<path opacity="0.4" d="M2.40869 0.424322L4.01264 0.424322C4.01264 0.217597 3.85578 0.0512085 3.65845 0.0512085L2.76793 0.0512085C2.5706 0.0512085 2.41375 0.217597 2.41375 0.424322H2.40869Z" fill="#640E0E"/>
<path d="M4.11382 0.449169H4.1037C4.06322 0.25757 3.90131 0.116393 3.70904 0.116393L2.70214 0.116393C2.50987 0.116393 2.34796 0.25757 2.30748 0.449169H2.29736C2.29736 0.217234 2.47951 0.0256348 2.70214 0.0256348L3.70904 0.0256348C3.93167 0.0256348 4.11382 0.217234 4.11382 0.449169Z" fill="url(#paint52_linear_3278_35347)"/>
<path opacity="0.6" d="M2.85898 0.242817C3.05125 0.242817 3.24352 0.242817 3.43579 0.242817C3.52181 0.242817 3.61289 0.232732 3.6989 0.2529C3.73432 0.257942 3.8001 0.273069 3.8001 0.32349C3.8001 0.368869 3.7495 0.378952 3.71408 0.378952C3.61795 0.378952 2.53516 0.383995 2.53516 0.368869C2.53516 0.32349 2.57057 0.288195 2.60599 0.273069C2.64647 0.257943 2.68695 0.257942 2.72743 0.257942C2.76791 0.257942 2.81344 0.257942 2.85392 0.257942L2.85898 0.242817Z" fill="url(#paint53_linear_3278_35347)"/>
<path d="M10.6562 9.76564C12.8303 9.76564 14.5927 7.91681 14.5927 5.63618C14.5927 3.35554 12.8303 1.50671 10.6562 1.50671C8.48214 1.50671 6.71973 3.35554 6.71973 5.63618C6.71973 7.91681 8.48214 9.76564 10.6562 9.76564Z" fill="#989898"/>
<path d="M11.4708 8.30922V6.63021C11.4708 6.55458 11.5315 6.48903 11.6074 6.48903H13.2063C13.2822 6.48903 13.3429 6.42348 13.3429 6.34785V4.92097C13.3429 4.84534 13.2822 4.77979 13.2063 4.77979H11.6074C11.5315 4.77979 11.4708 4.71424 11.4708 4.63861V2.9596C11.4708 2.88397 11.4101 2.81842 11.3342 2.81842L9.97308 2.81842C9.89719 2.81842 9.83647 2.88397 9.83647 2.9596V4.63861C9.83647 4.71424 9.77575 4.77979 9.69986 4.77979H8.10097C8.02507 4.77979 7.96436 4.84534 7.96436 4.92097V6.34785C7.96436 6.42348 8.02507 6.48903 8.10097 6.48903H9.69986C9.77575 6.48903 9.83647 6.55458 9.83647 6.63021V8.30922C9.83647 8.38485 9.89719 8.4504 9.97308 8.4504H11.3342C11.4101 8.4504 11.4708 8.38485 11.4708 8.30922Z" fill="#F6F8EB"/>
<path d="M4.74609 0.478588L18.1494 0.478588V0.0550537L4.74609 0.0550537V0.478588Z" fill="#F6F8EB"/>
<path opacity="0.5" d="M4.74609 0.478588L18.1494 0.478588V0.0550537L4.74609 0.0550537V0.478588Z" fill="url(#paint54_linear_3278_35347)"/>
<path opacity="0.5" d="M11.395 0.478588H11.5013V0.0550537L11.395 0.0550537V0.478588Z" fill="#676767"/>
<path d="M11.8503 0.201396L17.8512 0.201396C17.922 0.201396 17.9827 0.140891 17.9827 0.0652599V0.0551758L11.7188 0.0551758V0.0652599C11.7188 0.140891 11.7795 0.201396 11.8503 0.201396Z" fill="#ADD4F1"/>
<path d="M11.8503 0.201396L17.8512 0.201396C17.922 0.201396 17.9827 0.140891 17.9827 0.0652599V0.0551758H17.9676C17.9473 0.100554 17.9018 0.130807 17.8512 0.130807L11.8503 0.130807C11.7997 0.130807 11.7592 0.100554 11.7339 0.0551758H11.7188V0.0652599C11.7188 0.140891 11.7795 0.201396 11.8503 0.201396Z" fill="white"/>
<path d="M5.04464 0.201396L11.0455 0.201396C11.1164 0.201396 11.1771 0.140891 11.1771 0.0652599V0.0551758L4.91309 0.0551758V0.0652599C4.91309 0.140891 4.9738 0.201396 5.04464 0.201396Z" fill="#ADD4F1"/>
<path d="M5.04464 0.201396L11.0455 0.201396C11.1164 0.201396 11.1771 0.140891 11.1771 0.0652599V0.0551758H11.1619C11.1417 0.100554 11.0961 0.130807 11.0455 0.130807L5.04464 0.130807C4.99404 0.130807 4.95356 0.100554 4.92827 0.0551758H4.91309V0.0652599C4.91309 0.140891 4.9738 0.201396 5.04464 0.201396Z" fill="white"/>
<path d="M0.541193 31.7651L0.541193 39.5047C0.541193 39.7316 0.627209 39.9534 0.779002 40.1148L1.49749 40.8711L1.49749 31.7701H0.536133L0.541193 31.7651Z" fill="#CCCCCC"/>
<path d="M0.692871 31.9207H1.35064L1.35064 40.4871L0.890202 40.0031C0.763708 39.872 0.692871 39.6955 0.692871 39.5039L0.692871 31.9207Z" fill="url(#paint55_linear_3278_35347)"/>
<path opacity="0.5" d="M0.541193 31.7651L0.541193 39.5047C0.541193 39.7316 0.627209 39.9534 0.779002 40.1148L1.49749 40.8711L1.49749 31.7701H0.536133L0.541193 31.7651Z" fill="url(#paint56_linear_3278_35347)"/>
<path opacity="0.4" d="M0.541193 31.7651L0.541193 39.5047C0.541193 39.7316 0.627209 39.9534 0.779002 40.1148L1.49749 40.8711L1.49749 31.7701H0.536133L0.541193 31.7651Z" fill="url(#paint57_linear_3278_35347)"/>
<mask id="mask1_3278_35347" style="mask-type:luminance" maskUnits="userSpaceOnUse" x="0" y="31" width="2" height="10">
<path d="M0.692871 31.9207H1.35064L1.35064 40.4871L0.890202 40.0031C0.763708 39.872 0.692871 39.6955 0.692871 39.5039L0.692871 31.9207Z" fill="white"/>
</mask>
<g mask="url(#mask1_3278_35347)">
<path d="M1.20378 31.9855C1.14812 32.0208 1.0874 32.0259 1.0874 32.0259C1.0874 32.0259 1.12282 31.9754 1.17848 31.9452C1.23414 31.9149 1.29485 31.9048 1.29485 31.9048C1.29485 31.9048 1.25943 31.9553 1.20378 31.9855Z" fill="#989898"/>
<path d="M0.753582 32.2574C0.697924 32.2927 0.637207 32.2977 0.637207 32.2977C0.637207 32.2977 0.672625 32.2473 0.728283 32.217C0.78394 32.1817 0.844657 32.1767 0.844657 32.1767C0.844657 32.1767 0.809239 32.2271 0.753582 32.2574Z" fill="#989898"/>
<path d="M0.986541 32.0913C1.0169 32.1518 1.02196 32.2123 1.02196 32.2123C1.02196 32.2123 0.976421 32.177 0.946063 32.1165C0.915704 32.056 0.910645 31.9955 0.910645 31.9955C0.910645 31.9955 0.956182 32.0308 0.986541 32.0913Z" fill="#989898"/>
<path d="M1.26974 32.2587C1.3001 32.3192 1.30516 32.3797 1.30516 32.3797C1.30516 32.3797 1.25962 32.3444 1.22927 32.2839C1.19891 32.2234 1.19385 32.1629 1.19385 32.1629C1.19385 32.1629 1.23939 32.1982 1.26974 32.2587Z" fill="#989898"/>
<path d="M0.819549 32.5305C0.849907 32.591 0.854967 32.6515 0.854967 32.6515C0.854967 32.6515 0.809429 32.6162 0.779071 32.5557C0.748712 32.4952 0.743652 32.4347 0.743652 32.4347C0.743652 32.4347 0.78919 32.47 0.819549 32.5305Z" fill="#989898"/>
<path d="M1.01149 32.3904C1.06714 32.3551 1.12786 32.35 1.12786 32.35C1.12786 32.35 1.09244 32.4005 1.03678 32.4307C0.981127 32.466 0.92041 32.471 0.92041 32.471C0.92041 32.471 0.955828 32.4206 1.01149 32.3904Z" fill="#989898"/>
<path d="M1.35563 32.6257C1.29998 32.661 1.23926 32.666 1.23926 32.666C1.23926 32.666 1.27468 32.6156 1.33033 32.5853C1.38599 32.55 1.44671 32.545 1.44671 32.545C1.44671 32.545 1.41129 32.5954 1.35563 32.6257Z" fill="#989898"/>
<path d="M0.905437 32.8974C0.84978 32.9327 0.789062 32.9378 0.789062 32.9378C0.789062 32.9378 0.824481 32.8874 0.880138 32.8571C0.935796 32.8218 0.996513 32.8168 0.996513 32.8168C0.996513 32.8168 0.961095 32.8672 0.905437 32.8974Z" fill="#989898"/>
<path d="M1.13791 32.7314C1.16827 32.7919 1.17333 32.8524 1.17333 32.8524C1.17333 32.8524 1.12779 32.8171 1.09743 32.7566C1.06707 32.6961 1.06201 32.6356 1.06201 32.6356C1.06201 32.6356 1.10755 32.6709 1.13791 32.7314Z" fill="#989898"/>
<path d="M1.4216 32.8988C1.45196 32.9593 1.45702 33.0198 1.45702 33.0198C1.45702 33.0198 1.41148 32.9846 1.38112 32.924C1.35076 32.8635 1.3457 32.803 1.3457 32.803C1.3457 32.803 1.39124 32.8383 1.4216 32.8988Z" fill="#989898"/>
<path d="M0.970916 33.1706C1.00127 33.2311 1.00633 33.2916 1.00633 33.2916C1.00633 33.2916 0.960796 33.2563 0.930438 33.1958C0.900079 33.1353 0.89502 33.0748 0.89502 33.0748C0.89502 33.0748 0.940557 33.1101 0.970916 33.1706Z" fill="#989898"/>
<path d="M1.16334 33.0246C1.219 32.9893 1.27972 32.9843 1.27972 32.9843C1.27972 32.9843 1.2443 33.0347 1.18864 33.0649C1.13298 33.1002 1.07227 33.1053 1.07227 33.1053C1.07227 33.1053 1.10768 33.0548 1.16334 33.0246Z" fill="#989898"/>
<path d="M0.728283 33.2728C0.78394 33.2375 0.844657 33.2324 0.844657 33.2324C0.844657 33.2324 0.809239 33.2828 0.753582 33.3131C0.697924 33.3484 0.637207 33.3534 0.637207 33.3534C0.637207 33.3534 0.672625 33.303 0.728283 33.2728Z" fill="#989898"/>
<path d="M1.31027 33.3222C1.34063 33.3827 1.34569 33.4432 1.34569 33.4432C1.34569 33.4432 1.30015 33.408 1.26979 33.3474C1.23943 33.2869 1.23438 33.2264 1.23438 33.2264C1.23438 33.2264 1.27991 33.2617 1.31027 33.3222Z" fill="#989898"/>
<path d="M0.860076 33.5941C0.890435 33.6546 0.895495 33.7151 0.895495 33.7151C0.895495 33.7151 0.849957 33.6798 0.819598 33.6193C0.789239 33.5588 0.78418 33.4983 0.78418 33.4983C0.78418 33.4983 0.829718 33.5336 0.860076 33.5941Z" fill="#989898"/>
<path d="M1.05201 33.4539C1.10767 33.4186 1.16839 33.4136 1.16839 33.4136C1.16839 33.4136 1.13297 33.464 1.07731 33.4942C1.02165 33.5295 0.960938 33.5346 0.960938 33.5346C0.960938 33.5346 0.996356 33.4842 1.05201 33.4539Z" fill="#989898"/>
<path d="M1.39616 33.6912C1.3405 33.7265 1.27979 33.7315 1.27979 33.7315C1.27979 33.7315 1.3152 33.6811 1.37086 33.6509C1.42652 33.6156 1.48724 33.6105 1.48724 33.6105C1.48724 33.6105 1.45182 33.661 1.39616 33.6912Z" fill="#989898"/>
<path d="M0.945964 33.963C0.890307 33.9983 0.82959 34.0033 0.82959 34.0033C0.82959 34.0033 0.865008 33.9529 0.920666 33.9227C0.976323 33.8874 1.03704 33.8823 1.03704 33.8823C1.03704 33.8823 1.00162 33.9327 0.945964 33.963Z" fill="#989898"/>
<path d="M1.17844 33.7969C1.20879 33.8574 1.21385 33.9179 1.21385 33.9179C1.21385 33.9179 1.16832 33.8826 1.13796 33.8221C1.1076 33.7616 1.10254 33.7011 1.10254 33.7011C1.10254 33.7011 1.14808 33.7364 1.17844 33.7969Z" fill="#989898"/>
<path d="M1.01144 34.2361C1.0418 34.2966 1.04686 34.3571 1.04686 34.3571C1.04686 34.3571 1.00132 34.3218 0.970965 34.2613C0.940607 34.2008 0.935547 34.1403 0.935547 34.1403C0.935547 34.1403 0.981085 34.1756 1.01144 34.2361Z" fill="#989898"/>
<path d="M1.20387 34.0901C1.25953 34.0548 1.32024 34.0497 1.32024 34.0497C1.32024 34.0497 1.28483 34.1002 1.22917 34.1305C1.17351 34.1658 1.11279 34.1708 1.11279 34.1708C1.11279 34.1708 1.14821 34.1204 1.20387 34.0901Z" fill="#989898"/>
<path d="M0.76881 34.3323C0.824468 34.297 0.885185 34.292 0.885185 34.292C0.885185 34.292 0.849766 34.3424 0.794109 34.3727C0.738452 34.408 0.677734 34.413 0.677734 34.413C0.677734 34.413 0.713153 34.3626 0.76881 34.3323Z" fill="#989898"/>
<path d="M1.31027 34.3897C1.34063 34.4502 1.34569 34.5108 1.34569 34.5108C1.34569 34.5108 1.30015 34.4755 1.26979 34.415C1.23943 34.3544 1.23438 34.2939 1.23438 34.2939C1.23438 34.2939 1.27991 34.3292 1.31027 34.3897Z" fill="#989898"/>
<path d="M0.860076 34.6616C0.890435 34.7221 0.895495 34.7826 0.895495 34.7826C0.895495 34.7826 0.849957 34.7473 0.819598 34.6868C0.789239 34.6263 0.78418 34.5658 0.78418 34.5658C0.78418 34.5658 0.829718 34.6011 0.860076 34.6616Z" fill="#989898"/>
<path d="M1.05201 34.5155C1.10767 34.4802 1.16839 34.4752 1.16839 34.4752C1.16839 34.4752 1.13297 34.5256 1.07731 34.5558C1.02165 34.5861 0.960938 34.5962 0.960938 34.5962C0.960938 34.5962 0.996356 34.5457 1.05201 34.5155Z" fill="#989898"/>
<path d="M1.39616 34.7528C1.3405 34.7881 1.27979 34.7931 1.27979 34.7931C1.27979 34.7931 1.3152 34.7427 1.37086 34.7125C1.42652 34.6772 1.48724 34.6721 1.48724 34.6721C1.48724 34.6721 1.45182 34.7225 1.39616 34.7528Z" fill="#989898"/>
<path d="M0.945964 35.0246C0.890307 35.0599 0.82959 35.0649 0.82959 35.0649C0.82959 35.0649 0.865008 35.0145 0.920666 34.9842C0.976323 34.9489 1.03704 34.9439 1.03704 34.9439C1.03704 34.9439 1.00162 34.9943 0.945964 35.0246Z" fill="#989898"/>
<path d="M1.17844 34.8585C1.20879 34.919 1.21385 34.9795 1.21385 34.9795C1.21385 34.9795 1.16832 34.9442 1.13796 34.8837C1.1076 34.8232 1.10254 34.7627 1.10254 34.7627C1.10254 34.7627 1.14808 34.798 1.17844 34.8585Z" fill="#989898"/>
<path d="M1.01144 35.2978C1.0418 35.3583 1.04686 35.4188 1.04686 35.4188C1.04686 35.4188 1.00132 35.3835 0.970965 35.323C0.940607 35.2625 0.935547 35.202 0.935547 35.202C0.935547 35.202 0.981085 35.2373 1.01144 35.2978Z" fill="#989898"/>
<path d="M1.20387 35.1576C1.25953 35.1223 1.32024 35.1172 1.32024 35.1172C1.32024 35.1172 1.28483 35.1677 1.22917 35.1979C1.17351 35.2332 1.11279 35.2383 1.11279 35.2383C1.11279 35.2383 1.14821 35.1878 1.20387 35.1576Z" fill="#989898"/>
<path d="M0.76881 35.3998C0.824468 35.3645 0.885185 35.3595 0.885185 35.3595C0.885185 35.3595 0.849766 35.4099 0.794109 35.4402C0.738452 35.4755 0.677734 35.4805 0.677734 35.4805C0.677734 35.4805 0.713153 35.4301 0.76881 35.3998Z" fill="#989898"/>
<path d="M1.31027 35.4553C1.34063 35.5158 1.34569 35.5763 1.34569 35.5763C1.34569 35.5763 1.30015 35.541 1.26979 35.4805C1.23943 35.42 1.23438 35.3595 1.23438 35.3595C1.23438 35.3595 1.27991 35.3948 1.31027 35.4553Z" fill="#989898"/>
<path d="M0.860076 35.7271C0.890435 35.7877 0.895495 35.8482 0.895495 35.8482C0.895495 35.8482 0.849957 35.8129 0.819598 35.7524C0.789239 35.6919 0.78418 35.6313 0.78418 35.6313C0.78418 35.6313 0.829718 35.6666 0.860076 35.7271Z" fill="#989898"/>
<path d="M1.05201 35.587C1.10767 35.5517 1.16839 35.5466 1.16839 35.5466C1.16839 35.5466 1.13297 35.5971 1.07731 35.6273C1.02165 35.6626 0.960938 35.6676 0.960938 35.6676C0.960938 35.6676 0.996356 35.6172 1.05201 35.587Z" fill="#989898"/>
<path d="M1.39616 35.8242C1.3405 35.8595 1.27979 35.8645 1.27979 35.8645C1.27979 35.8645 1.3152 35.8141 1.37086 35.7839C1.42652 35.7536 1.48724 35.7435 1.48724 35.7435C1.48724 35.7435 1.45182 35.7939 1.39616 35.8242Z" fill="#989898"/>
<path d="M0.945964 36.0961C0.890307 36.1313 0.82959 36.1364 0.82959 36.1364C0.82959 36.1364 0.865008 36.086 0.920666 36.0557C0.976323 36.0204 1.03704 36.0154 1.03704 36.0154C1.03704 36.0154 1.00162 36.0658 0.945964 36.0961Z" fill="#989898"/>
<path d="M1.17844 35.93C1.20879 35.9905 1.21385 36.051 1.21385 36.051C1.21385 36.051 1.16832 36.0157 1.13796 35.9552C1.1076 35.8947 1.10254 35.8342 1.10254 35.8342C1.10254 35.8342 1.14808 35.8695 1.17844 35.93Z" fill="#989898"/>
<path d="M1.01144 36.3692C1.0418 36.4297 1.04686 36.4902 1.04686 36.4902C1.04686 36.4902 1.00132 36.4549 0.970965 36.3944C0.940607 36.3339 0.935547 36.2734 0.935547 36.2734C0.935547 36.2734 0.981085 36.3087 1.01144 36.3692Z" fill="#989898"/>
<path d="M1.20387 36.2231C1.25953 36.1878 1.32024 36.1828 1.32024 36.1828C1.32024 36.1828 1.28483 36.2332 1.22917 36.2635C1.17351 36.2988 1.11279 36.3038 1.11279 36.3038C1.11279 36.3038 1.14821 36.2534 1.20387 36.2231Z" fill="#989898"/>
<path d="M0.76881 36.4713C0.824468 36.436 0.885185 36.431 0.885185 36.431C0.885185 36.431 0.849766 36.4814 0.794109 36.5116C0.738452 36.5469 0.677734 36.552 0.677734 36.552C0.677734 36.552 0.713153 36.5016 0.76881 36.4713Z" fill="#989898"/>
<path d="M1.31027 36.5228C1.34063 36.5833 1.34569 36.6438 1.34569 36.6438C1.34569 36.6438 1.30015 36.6085 1.26979 36.548C1.23943 36.4875 1.23438 36.427 1.23438 36.427C1.23438 36.427 1.27991 36.4623 1.31027 36.5228Z" fill="#989898"/>
<path d="M0.860076 36.7946C0.890435 36.8552 0.895495 36.9157 0.895495 36.9157C0.895495 36.9157 0.849957 36.8804 0.819598 36.8199C0.789239 36.7594 0.78418 36.6989 0.78418 36.6989C0.78418 36.6989 0.829718 36.7341 0.860076 36.7946Z" fill="#989898"/>
<path d="M1.05201 36.6486C1.10767 36.6133 1.16839 36.6082 1.16839 36.6082C1.16839 36.6082 1.13297 36.6586 1.07731 36.6889C1.02165 36.7242 0.960938 36.7292 0.960938 36.7292C0.960938 36.7292 0.996356 36.6788 1.05201 36.6486Z" fill="#989898"/>
<path d="M1.39616 36.8858C1.3405 36.9211 1.27979 36.9262 1.27979 36.9262C1.27979 36.9262 1.3152 36.8758 1.37086 36.8455C1.42652 36.8102 1.48724 36.8052 1.48724 36.8052C1.48724 36.8052 1.45182 36.8556 1.39616 36.8858Z" fill="#989898"/>
<path d="M0.945964 37.1636C0.890307 37.1989 0.82959 37.2039 0.82959 37.2039C0.82959 37.2039 0.865008 37.1535 0.920666 37.1232C0.976323 37.0879 1.03704 37.0829 1.03704 37.0829C1.03704 37.0829 1.00162 37.1333 0.945964 37.1636Z" fill="#989898"/>
<path d="M1.17844 36.9916C1.20879 37.0521 1.21385 37.1126 1.21385 37.1126C1.21385 37.1126 1.16832 37.0773 1.13796 37.0168C1.1076 36.9563 1.10254 36.8958 1.10254 36.8958C1.10254 36.8958 1.14808 36.931 1.17844 36.9916Z" fill="#989898"/>
<path d="M1.01144 37.4308C1.0418 37.4913 1.04686 37.5518 1.04686 37.5518C1.04686 37.5518 1.00132 37.5165 0.970965 37.456C0.940607 37.3955 0.935547 37.335 0.935547 37.335C0.935547 37.335 0.981085 37.3703 1.01144 37.4308Z" fill="#989898"/>
<path d="M1.20387 37.2906C1.25953 37.2553 1.32024 37.2503 1.32024 37.2503C1.32024 37.2503 1.28483 37.3007 1.22917 37.331C1.17351 37.3663 1.11279 37.3713 1.11279 37.3713C1.11279 37.3713 1.14821 37.3209 1.20387 37.2906Z" fill="#989898"/>
<path d="M0.76881 37.5329C0.824468 37.4976 0.885185 37.4926 0.885185 37.4926C0.885185 37.4926 0.849766 37.543 0.794109 37.5732C0.738452 37.6085 0.677734 37.6136 0.677734 37.6136C0.677734 37.6136 0.713153 37.5631 0.76881 37.5329Z" fill="#989898"/>
<path d="M1.31027 37.5864C1.34063 37.6469 1.34569 37.7074 1.34569 37.7074C1.34569 37.7074 1.30015 37.6721 1.26979 37.6116C1.23943 37.5511 1.23438 37.4906 1.23438 37.4906C1.23438 37.4906 1.27991 37.5259 1.31027 37.5864Z" fill="#989898"/>
<path d="M0.860076 37.8581C0.890435 37.9186 0.895495 37.9791 0.895495 37.9791C0.895495 37.9791 0.849957 37.9438 0.819598 37.8833C0.789239 37.8228 0.78418 37.7623 0.78418 37.7623C0.78418 37.7623 0.829718 37.7976 0.860076 37.8581Z" fill="#989898"/>
<path d="M1.05201 37.718C1.10767 37.6827 1.16839 37.6777 1.16839 37.6777C1.16839 37.6777 1.13297 37.7281 1.07731 37.7583C1.02165 37.7886 0.960938 37.7987 0.960938 37.7987C0.960938 37.7987 0.996356 37.7483 1.05201 37.718Z" fill="#989898"/>
<path d="M1.39616 37.9553C1.3405 37.9906 1.27979 37.9956 1.27979 37.9956C1.27979 37.9956 1.3152 37.9452 1.37086 37.915C1.42652 37.8797 1.48724 37.8746 1.48724 37.8746C1.48724 37.8746 1.45182 37.9251 1.39616 37.9553Z" fill="#989898"/>
<path d="M0.945964 38.2271C0.890307 38.2624 0.82959 38.2674 0.82959 38.2674C0.82959 38.2674 0.865008 38.217 0.920666 38.1868C0.976323 38.1515 1.03704 38.1464 1.03704 38.1464C1.03704 38.1464 1.00162 38.1968 0.945964 38.2271Z" fill="#989898"/>
<path d="M1.17844 38.0611C1.20879 38.1216 1.21385 38.1821 1.21385 38.1821C1.21385 38.1821 1.16832 38.1468 1.13796 38.0863C1.1076 38.0258 1.10254 37.9653 1.10254 37.9653C1.10254 37.9653 1.14808 38.0006 1.17844 38.0611Z" fill="#989898"/>
<path d="M1.01144 38.5003C1.0418 38.5608 1.04686 38.6213 1.04686 38.6213C1.04686 38.6213 1.00132 38.586 0.970965 38.5255C0.940607 38.465 0.935547 38.4045 0.935547 38.4045C0.935547 38.4045 0.981085 38.4398 1.01144 38.5003Z" fill="#989898"/>
<path d="M1.20387 38.3542C1.25953 38.3189 1.32024 38.3138 1.32024 38.3138C1.32024 38.3138 1.28483 38.3643 1.22917 38.3945C1.17351 38.4298 1.11279 38.4349 1.11279 38.4349C1.11279 38.4349 1.14821 38.3844 1.20387 38.3542Z" fill="#989898"/>
<path d="M0.76881 38.6023C0.824468 38.5671 0.885185 38.562 0.885185 38.562C0.885185 38.562 0.849766 38.6124 0.794109 38.6427C0.738452 38.678 0.677734 38.683 0.677734 38.683C0.677734 38.683 0.713153 38.6326 0.76881 38.6023Z" fill="#989898"/>
<path d="M1.31027 38.6559C1.34063 38.7164 1.34569 38.7769 1.34569 38.7769C1.34569 38.7769 1.30015 38.7416 1.26979 38.6811C1.23943 38.6206 1.23438 38.5601 1.23438 38.5601C1.23438 38.5601 1.27991 38.5954 1.31027 38.6559Z" fill="#989898"/>
<path d="M0.860076 38.9276C0.890435 38.9881 0.895495 39.0487 0.895495 39.0487C0.895495 39.0487 0.849957 39.0134 0.819598 38.9529C0.789239 38.8924 0.78418 38.8318 0.78418 38.8318C0.78418 38.8318 0.829718 38.8671 0.860076 38.9276Z" fill="#989898"/>
<path d="M1.05201 38.7815C1.10767 38.7463 1.16839 38.7412 1.16839 38.7412C1.16839 38.7412 1.13297 38.7916 1.07731 38.8219C1.02165 38.8572 0.960938 38.8622 0.960938 38.8622C0.960938 38.8622 0.996356 38.8118 1.05201 38.7815Z" fill="#989898"/>
<path d="M1.39616 39.0248C1.3405 39.0601 1.27979 39.0651 1.27979 39.0651C1.27979 39.0651 1.3152 39.0147 1.37086 38.9844C1.42652 38.9542 1.48724 38.9441 1.48724 38.9441C1.48724 38.9441 1.45182 38.9945 1.39616 39.0248Z" fill="#989898"/>
<path d="M0.945964 39.2966C0.890307 39.3319 0.82959 39.3369 0.82959 39.3369C0.82959 39.3369 0.865008 39.2865 0.920666 39.2562C0.976323 39.2209 1.03704 39.2159 1.03704 39.2159C1.03704 39.2159 1.00162 39.2663 0.945964 39.2966Z" fill="#989898"/>
<path d="M1.17844 39.1266C1.20879 39.1871 1.21385 39.2476 1.21385 39.2476C1.21385 39.2476 1.16832 39.2123 1.13796 39.1518C1.1076 39.0913 1.10254 39.0308 1.10254 39.0308C1.10254 39.0308 1.14808 39.0661 1.17844 39.1266Z" fill="#989898"/>
<path d="M1.01144 39.5697C1.0418 39.6302 1.04686 39.6907 1.04686 39.6907C1.04686 39.6907 1.00132 39.6555 0.970965 39.5949C0.940607 39.5344 0.935547 39.4739 0.935547 39.4739C0.935547 39.4739 0.981085 39.5092 1.01144 39.5697Z" fill="#989898"/>
<path d="M1.20387 39.4236C1.25953 39.3883 1.32024 39.3833 1.32024 39.3833C1.32024 39.3833 1.28483 39.4337 1.22917 39.464C1.17351 39.4993 1.11279 39.5043 1.11279 39.5043C1.11279 39.5043 1.14821 39.4539 1.20387 39.4236Z" fill="#989898"/>
<path d="M0.76881 39.6659C0.824468 39.6306 0.885185 39.6255 0.885185 39.6255C0.885185 39.6255 0.849766 39.676 0.794109 39.7062C0.738452 39.7415 0.677734 39.7466 0.677734 39.7466C0.677734 39.7466 0.713153 39.6961 0.76881 39.6659Z" fill="#989898"/>
<path d="M1.31027 39.7253C1.34063 39.7858 1.34569 39.8463 1.34569 39.8463C1.34569 39.8463 1.30015 39.811 1.26979 39.7505C1.23943 39.69 1.23438 39.6295 1.23438 39.6295C1.23438 39.6295 1.27991 39.6648 1.31027 39.7253Z" fill="#989898"/>
<path d="M0.860076 39.9971C0.890435 40.0576 0.895495 40.1181 0.895495 40.1181C0.895495 40.1181 0.849957 40.0828 0.819598 40.0223C0.789239 39.9618 0.78418 39.9013 0.78418 39.9013C0.78418 39.9013 0.829718 39.9366 0.860076 39.9971Z" fill="#989898"/>
<path d="M1.05201 39.851C1.10767 39.8157 1.16839 39.8107 1.16839 39.8107C1.16839 39.8107 1.13297 39.8611 1.07731 39.8913C1.02165 39.9266 0.960938 39.9317 0.960938 39.9317C0.960938 39.9317 0.996356 39.8813 1.05201 39.851Z" fill="#989898"/>
<path d="M1.39616 40.0884C1.3405 40.1237 1.27979 40.1287 1.27979 40.1287C1.27979 40.1287 1.3152 40.0783 1.37086 40.048C1.42652 40.0127 1.48724 40.0077 1.48724 40.0077C1.48724 40.0077 1.45182 40.0581 1.39616 40.0884Z" fill="#989898"/>
<path d="M0.945964 40.3602C0.890307 40.3954 0.82959 40.4005 0.82959 40.4005C0.82959 40.4005 0.865008 40.3501 0.920666 40.3198C0.976323 40.2896 1.03704 40.2795 1.03704 40.2795C1.03704 40.2795 1.00162 40.3299 0.945964 40.3602Z" fill="#989898"/>
<path d="M1.17844 40.1941C1.20879 40.2546 1.21385 40.3151 1.21385 40.3151C1.21385 40.3151 1.16832 40.2798 1.13796 40.2193C1.1076 40.1588 1.10254 40.0983 1.10254 40.0983C1.10254 40.0983 1.14808 40.1336 1.17844 40.1941Z" fill="#989898"/>
<path d="M1.20387 40.4932C1.25953 40.4579 1.32024 40.4528 1.32024 40.4528C1.32024 40.4528 1.28483 40.5032 1.22917 40.5335C1.17351 40.5688 1.11279 40.5738 1.11279 40.5738C1.11279 40.5738 1.14821 40.5234 1.20387 40.4932Z" fill="#989898"/>
</g>
</g>
<defs>
<linearGradient id="paint0_linear_3278_35347" x1="21.4535" y1="30.3879" x2="21.0315" y2="52.6892" gradientUnits="userSpaceOnUse">
<stop stop-color="#C8C5C5"/>
<stop offset="0.04" stop-color="#676868"/>
<stop offset="0.11" stop-color="white"/>
<stop offset="0.3" stop-color="#939292"/>
<stop offset="0.49" stop-color="white"/>
<stop offset="0.63" stop-color="#676868"/>
<stop offset="0.77" stop-color="#939292"/>
<stop offset="0.82" stop-color="#C8C5C5"/>
<stop offset="1" stop-color="#343433"/>
</linearGradient>
<linearGradient id="paint1_linear_3278_35347" x1="20.8765" y1="36.3181" x2="21.0637" y2="36.3181" gradientUnits="userSpaceOnUse">
<stop stop-color="#010101"/>
<stop offset="1" stop-color="#010101" stop-opacity="0"/>
</linearGradient>
<linearGradient id="paint2_linear_3278_35347" x1="21.3521" y1="31.7651" x2="21.3521" y2="32.4609" gradientUnits="userSpaceOnUse">
<stop stop-color="#010101"/>
<stop offset="1" stop-color="#010101" stop-opacity="0"/>
</linearGradient>
<linearGradient id="paint3_linear_3278_35347" x1="18.4785" y1="51.8482" x2="17.841" y2="51.8786" gradientUnits="userSpaceOnUse">
<stop stop-color="#C8C5C5"/>
<stop offset="0.04" stop-color="#676868"/>
<stop offset="0.11" stop-color="white"/>
<stop offset="0.3" stop-color="#939292"/>
<stop offset="0.49" stop-color="white"/>
<stop offset="0.68" stop-color="#676868"/>
<stop offset="0.77" stop-color="#939292"/>
<stop offset="0.82" stop-color="#C8C5C5"/>
<stop offset="1" stop-color="#343433"/>
</linearGradient>
<linearGradient id="paint4_linear_3278_35347" x1="16.763" y1="51.8467" x2="17.4056" y2="51.8771" gradientUnits="userSpaceOnUse">
<stop stop-color="#C8C5C5"/>
<stop offset="0.04" stop-color="#676868"/>
<stop offset="0.11" stop-color="white"/>
<stop offset="0.3" stop-color="#939292"/>
<stop offset="0.49" stop-color="white"/>
<stop offset="0.68" stop-color="#676868"/>
<stop offset="0.77" stop-color="#939292"/>
<stop offset="0.82" stop-color="#C8C5C5"/>
<stop offset="1" stop-color="#343433"/>
</linearGradient>
<linearGradient id="paint5_linear_3278_35347" x1="18.6202" y1="51.6606" x2="15.5085" y2="51.6606" gradientUnits="userSpaceOnUse">
<stop stop-color="#C8C5C5"/>
<stop offset="0.04" stop-color="#676868"/>
<stop offset="0.11" stop-color="white"/>
<stop offset="0.3" stop-color="#939292"/>
<stop offset="0.49" stop-color="white"/>
<stop offset="0.63" stop-color="#676868"/>
<stop offset="0.77" stop-color="#939292"/>
<stop offset="0.82" stop-color="#C8C5C5"/>
<stop offset="1" stop-color="#343433"/>
</linearGradient>
<linearGradient id="paint6_linear_3278_35347" x1="5.67722" y1="51.8482" x2="5.0397" y2="51.8786" gradientUnits="userSpaceOnUse">
<stop stop-color="#C8C5C5"/>
<stop offset="0.04" stop-color="#676868"/>
<stop offset="0.11" stop-color="white"/>
<stop offset="0.3" stop-color="#939292"/>
<stop offset="0.49" stop-color="white"/>
<stop offset="0.68" stop-color="#676868"/>
<stop offset="0.77" stop-color="#939292"/>
<stop offset="0.82" stop-color="#C8C5C5"/>
<stop offset="1" stop-color="#343433"/>
</linearGradient>
<linearGradient id="paint7_linear_3278_35347" x1="3.96677" y1="51.8467" x2="4.60429" y2="51.8771" gradientUnits="userSpaceOnUse">
<stop stop-color="#C8C5C5"/>
<stop offset="0.04" stop-color="#676868"/>
<stop offset="0.11" stop-color="white"/>
<stop offset="0.3" stop-color="#939292"/>
<stop offset="0.49" stop-color="white"/>
<stop offset="0.68" stop-color="#676868"/>
<stop offset="0.77" stop-color="#939292"/>
<stop offset="0.82" stop-color="#C8C5C5"/>
<stop offset="1" stop-color="#343433"/>
</linearGradient>
<linearGradient id="paint8_linear_3278_35347" x1="5.81875" y1="51.6606" x2="2.70701" y2="51.6606" gradientUnits="userSpaceOnUse">
<stop stop-color="#C8C5C5"/>
<stop offset="0.04" stop-color="#676868"/>
<stop offset="0.11" stop-color="white"/>
<stop offset="0.3" stop-color="#939292"/>
<stop offset="0.49" stop-color="white"/>
<stop offset="0.63" stop-color="#676868"/>
<stop offset="0.77" stop-color="#939292"/>
<stop offset="0.82" stop-color="#C8C5C5"/>
<stop offset="1" stop-color="#343433"/>
</linearGradient>
<linearGradient id="paint9_linear_3278_35347" x1="22.0603" y1="50.2144" x2="-9.14838" y2="50.0621" gradientUnits="userSpaceOnUse">
<stop stop-color="#C8C5C5"/>
<stop offset="0.04" stop-color="#676868"/>
<stop offset="0.11" stop-color="white"/>
<stop offset="0.3" stop-color="#939292"/>
<stop offset="0.49" stop-color="white"/>
<stop offset="0.63" stop-color="#676868"/>
<stop offset="0.77" stop-color="#939292"/>
<stop offset="0.82" stop-color="#C8C5C5"/>
<stop offset="1" stop-color="#343433"/>
</linearGradient>
<linearGradient id="paint10_linear_3278_35347" x1="22.0603" y1="50.2144" x2="-9.14838" y2="50.0621" gradientUnits="userSpaceOnUse">
<stop stop-color="#C8C5C5"/>
<stop offset="0.04" stop-color="#676868"/>
<stop offset="0.11" stop-color="white"/>
<stop offset="0.3" stop-color="#939292"/>
<stop offset="0.49" stop-color="white"/>
<stop offset="0.63" stop-color="#676868"/>
<stop offset="0.77" stop-color="#939292"/>
<stop offset="0.82" stop-color="#C8C5C5"/>
<stop offset="1" stop-color="#343433"/>
</linearGradient>
<radialGradient id="paint11_radial_3278_35347" cx="0" cy="0" r="1" gradientUnits="userSpaceOnUse" gradientTransform="translate(19.6727 44.7266) rotate(180) scale(22.4138 23.5878)">
<stop offset="0.01" stop-color="#010101"/>
<stop offset="1" stop-color="#010101" stop-opacity="0"/>
</radialGradient>
<linearGradient id="paint12_linear_3278_35347" x1="20.3302" y1="41.4325" x2="2.09992" y2="41.4325" gradientUnits="userSpaceOnUse">
<stop offset="0.34" stop-color="white" stop-opacity="0"/>
<stop offset="0.65" stop-color="white"/>
</linearGradient>
<linearGradient id="paint13_linear_3278_35347" x1="15.9959" y1="43.9977" x2="16.6367" y2="44.0459" gradientUnits="userSpaceOnUse">
<stop stop-color="#010101"/>
<stop offset="1" stop-color="#010101" stop-opacity="0"/>
</linearGradient>
<linearGradient id="paint14_linear_3278_35347" x1="6.46955" y1="43.9605" x2="5.82881" y2="44.0086" gradientUnits="userSpaceOnUse">
<stop stop-color="#989898"/>
<stop offset="1" stop-color="#989898" stop-opacity="0"/>
</linearGradient>
<linearGradient id="paint15_linear_3278_35347" x1="11.2226" y1="44.4708" x2="11.2226" y2="43.9061" gradientUnits="userSpaceOnUse">
<stop stop-color="#010101"/>
<stop offset="1" stop-color="#010101" stop-opacity="0"/>
</linearGradient>
<radialGradient id="paint16_radial_3278_35347" cx="0" cy="0" r="1" gradientUnits="userSpaceOnUse" gradientTransform="translate(16.148 43.1681) rotate(-180) scale(14.818 15.5942)">
<stop stop-color="white" stop-opacity="0"/>
<stop offset="1" stop-color="white"/>
</radialGradient>
<radialGradient id="paint17_radial_3278_35347" cx="0" cy="0" r="1" gradientUnits="userSpaceOnUse" gradientTransform="translate(14.4426 42.2793) rotate(180) scale(14.2658 15.013)">
<stop offset="0.01" stop-color="#010101"/>
<stop offset="1" stop-color="#010101" stop-opacity="0"/>
</radialGradient>
<linearGradient id="paint18_linear_3278_35347" x1="20.5278" y1="37.5831" x2="20.4569" y2="37.5831" gradientUnits="userSpaceOnUse">
<stop stop-color="#010101"/>
<stop offset="1" stop-color="#010101" stop-opacity="0"/>
</linearGradient>
<linearGradient id="paint19_linear_3278_35347" x1="20.381" y1="37.441" x2="20.0825" y2="37.441" gradientUnits="userSpaceOnUse">
<stop stop-color="white"/>
<stop offset="1" stop-color="white" stop-opacity="0"/>
</linearGradient>
<linearGradient id="paint20_linear_3278_35347" x1="19.8801" y1="37.441" x2="19.4753" y2="37.441" gradientUnits="userSpaceOnUse">
<stop stop-color="#010101" stop-opacity="0"/>
<stop offset="0.99" stop-color="#010101"/>
</linearGradient>
<linearGradient id="paint21_linear_3278_35347" x1="1.85707" y1="37.5831" x2="1.93296" y2="37.5831" gradientUnits="userSpaceOnUse">
<stop stop-color="#010101"/>
<stop offset="1" stop-color="#010101" stop-opacity="0"/>
</linearGradient>
<linearGradient id="paint22_linear_3278_35347" x1="2.00879" y1="37.441" x2="2.30732" y2="37.441" gradientUnits="userSpaceOnUse">
<stop stop-color="white"/>
<stop offset="1" stop-color="white" stop-opacity="0"/>
</linearGradient>
<linearGradient id="paint23_linear_3278_35347" x1="2.50971" y1="37.441" x2="2.91449" y2="37.441" gradientUnits="userSpaceOnUse">
<stop stop-color="#010101" stop-opacity="0"/>
<stop offset="0.99" stop-color="#010101"/>
</linearGradient>
<linearGradient id="paint24_linear_3278_35347" x1="21.4736" y1="41.6828" x2="21.4132" y2="41.5113" gradientUnits="userSpaceOnUse">
<stop stop-color="white"/>
<stop offset="1" stop-color="white" stop-opacity="0"/>
</linearGradient>
<linearGradient id="paint25_linear_3278_35347" x1="20.8869" y1="41.4102" x2="21.9123" y2="40.8323" gradientUnits="userSpaceOnUse">
<stop stop-color="#010101"/>
<stop offset="1" stop-color="#010101" stop-opacity="0"/>
</linearGradient>
<linearGradient id="paint26_linear_3278_35347" x1="0.900639" y1="41.6828" x2="0.960979" y2="41.5113" gradientUnits="userSpaceOnUse">
<stop stop-color="white"/>
<stop offset="1" stop-color="white" stop-opacity="0"/>
</linearGradient>
<linearGradient id="paint27_linear_3278_35347" x1="1.48757" y1="41.4102" x2="0.462165" y2="40.8323" gradientUnits="userSpaceOnUse">
<stop stop-color="#010101"/>
<stop offset="1" stop-color="#010101" stop-opacity="0"/>
</linearGradient>
<radialGradient id="paint28_radial_3278_35347" cx="0" cy="0" r="1" gradientUnits="userSpaceOnUse" gradientTransform="translate(7.65871 36.7709) rotate(180) scale(4.23912 4.46117)">
<stop stop-color="white" stop-opacity="0"/>
<stop offset="1" stop-color="white"/>
</radialGradient>
<linearGradient id="paint29_linear_3278_35347" x1="11.2226" y1="33.6262" x2="11.2226" y2="33.2228" gradientUnits="userSpaceOnUse">
<stop stop-color="#010101" stop-opacity="0"/>
<stop offset="0.99" stop-color="#010101"/>
</linearGradient>
<linearGradient id="paint30_linear_3278_35347" x1="16.9354" y1="34.5545" x2="5.50537" y2="34.5545" gradientUnits="userSpaceOnUse">
<stop stop-color="white" stop-opacity="0"/>
<stop offset="1" stop-color="white"/>
</linearGradient>
<linearGradient id="paint31_linear_3278_35347" x1="9.33056" y1="33.7616" x2="16.3485" y2="33.7616" gradientUnits="userSpaceOnUse">
<stop stop-color="white" stop-opacity="0"/>
<stop offset="1" stop-color="white"/>
</linearGradient>
<radialGradient id="paint32_radial_3278_35347" cx="0" cy="0" r="1" gradientUnits="userSpaceOnUse" gradientTransform="translate(-2.08129 32.2809) rotate(-180) scale(27.0752 28.4934)">
<stop stop-color="white" stop-opacity="0"/>
<stop offset="1" stop-color="white"/>
</radialGradient>
<radialGradient id="paint33_radial_3278_35347" cx="0" cy="0" r="1" gradientUnits="userSpaceOnUse" gradientTransform="translate(24.669 14.1114) rotate(180) scale(39.3648 41.4269)">
<stop offset="0.01" stop-color="#010101"/>
<stop offset="1" stop-color="#010101" stop-opacity="0"/>
</radialGradient>
<linearGradient id="paint34_linear_3278_35347" x1="0.505987" y1="28.2251" x2="0.129098" y2="30.7314" gradientUnits="userSpaceOnUse">
<stop stop-color="white" stop-opacity="0"/>
<stop offset="1" stop-color="white"/>
</linearGradient>
<linearGradient id="paint35_linear_3278_35347" x1="0.44543" y1="29.2447" x2="0.313876" y2="29.2447" gradientUnits="userSpaceOnUse">
<stop stop-color="white" stop-opacity="0"/>
<stop offset="1" stop-color="white"/>
</linearGradient>
<linearGradient id="paint36_linear_3278_35347" x1="0.505987" y1="19.5926" x2="0.129098" y2="22.0989" gradientUnits="userSpaceOnUse">
<stop stop-color="white" stop-opacity="0"/>
<stop offset="1" stop-color="white"/>
</linearGradient>
<linearGradient id="paint37_linear_3278_35347" x1="0.44543" y1="20.6172" x2="0.313876" y2="20.6172" gradientUnits="userSpaceOnUse">
<stop stop-color="white" stop-opacity="0"/>
<stop offset="1" stop-color="white"/>
</linearGradient>
<linearGradient id="paint38_linear_3278_35347" x1="0.505987" y1="10.9609" x2="0.129098" y2="13.4671" gradientUnits="userSpaceOnUse">
<stop stop-color="white" stop-opacity="0"/>
<stop offset="1" stop-color="white"/>
</linearGradient>
<linearGradient id="paint39_linear_3278_35347" x1="0.44543" y1="11.9846" x2="0.313876" y2="11.9846" gradientUnits="userSpaceOnUse">
<stop stop-color="white" stop-opacity="0"/>
<stop offset="1" stop-color="white"/>
</linearGradient>
<linearGradient id="paint40_linear_3278_35347" x1="0.505987" y1="2.33524" x2="0.129098" y2="4.84154" gradientUnits="userSpaceOnUse">
<stop stop-color="white" stop-opacity="0"/>
<stop offset="1" stop-color="white"/>
</linearGradient>
<linearGradient id="paint41_linear_3278_35347" x1="0.44543" y1="3.35403" x2="0.313876" y2="3.35403" gradientUnits="userSpaceOnUse">
<stop stop-color="white" stop-opacity="0"/>
<stop offset="1" stop-color="white"/>
</linearGradient>
<linearGradient id="paint42_linear_3278_35347" x1="21.9339" y1="28.2251" x2="22.3058" y2="30.7314" gradientUnits="userSpaceOnUse">
<stop stop-color="white" stop-opacity="0"/>
<stop offset="1" stop-color="white"/>
</linearGradient>
<linearGradient id="paint43_linear_3278_35347" x1="21.9949" y1="29.2447" x2="22.1265" y2="29.2447" gradientUnits="userSpaceOnUse">
<stop stop-color="white" stop-opacity="0"/>
<stop offset="1" stop-color="white"/>
</linearGradient>
<linearGradient id="paint44_linear_3278_35347" x1="21.9339" y1="19.5926" x2="22.3058" y2="22.0989" gradientUnits="userSpaceOnUse">
<stop stop-color="white" stop-opacity="0"/>
<stop offset="1" stop-color="white"/>
</linearGradient>
<linearGradient id="paint45_linear_3278_35347" x1="21.9949" y1="20.6172" x2="22.1265" y2="20.6172" gradientUnits="userSpaceOnUse">
<stop stop-color="white" stop-opacity="0"/>
<stop offset="1" stop-color="white"/>
</linearGradient>
<linearGradient id="paint46_linear_3278_35347" x1="21.9339" y1="10.9609" x2="22.3058" y2="13.4671" gradientUnits="userSpaceOnUse">
<stop stop-color="white" stop-opacity="0"/>
<stop offset="1" stop-color="white"/>
</linearGradient>
<linearGradient id="paint47_linear_3278_35347" x1="21.9949" y1="11.9846" x2="22.1265" y2="11.9846" gradientUnits="userSpaceOnUse">
<stop stop-color="white" stop-opacity="0"/>
<stop offset="1" stop-color="white"/>
</linearGradient>
<linearGradient id="paint48_linear_3278_35347" x1="21.9339" y1="2.33329" x2="22.3058" y2="4.83957" gradientUnits="userSpaceOnUse">
<stop stop-color="white" stop-opacity="0"/>
<stop offset="1" stop-color="white"/>
</linearGradient>
<linearGradient id="paint49_linear_3278_35347" x1="21.9949" y1="3.35202" x2="22.1265" y2="3.35202" gradientUnits="userSpaceOnUse">
<stop stop-color="white" stop-opacity="0"/>
<stop offset="1" stop-color="white"/>
</linearGradient>
<linearGradient id="paint50_linear_3278_35347" x1="18.635" y1="0.418916" x2="21.0228" y2="0.0635438" gradientUnits="userSpaceOnUse">
<stop stop-color="white" stop-opacity="0"/>
<stop offset="1" stop-color="white"/>
</linearGradient>
<linearGradient id="paint51_linear_3278_35347" x1="19.6115" y1="0.37391" x2="19.6115" y2="0.242816" gradientUnits="userSpaceOnUse">
<stop stop-color="white" stop-opacity="0"/>
<stop offset="1" stop-color="white"/>
</linearGradient>
<linearGradient id="paint52_linear_3278_35347" x1="2.19111" y1="0.418916" x2="4.57896" y2="0.0635438" gradientUnits="userSpaceOnUse">
<stop stop-color="white" stop-opacity="0"/>
<stop offset="1" stop-color="white"/>
</linearGradient>
<linearGradient id="paint53_linear_3278_35347" x1="3.16763" y1="0.37391" x2="3.16763" y2="0.242816" gradientUnits="userSpaceOnUse">
<stop stop-color="white" stop-opacity="0"/>
<stop offset="1" stop-color="white"/>
</linearGradient>
<linearGradient id="paint54_linear_3278_35347" x1="11.4452" y1="0.292031" x2="11.4452" y2="0.478588" gradientUnits="userSpaceOnUse">
<stop stop-color="#010101" stop-opacity="0"/>
<stop offset="0.99" stop-color="#010101"/>
</linearGradient>
<linearGradient id="paint55_linear_3278_35347" x1="0.92056" y1="30.3879" x2="1.34261" y2="52.6892" gradientUnits="userSpaceOnUse">
<stop stop-color="#C8C5C5"/>
<stop offset="0.04" stop-color="#676868"/>
<stop offset="0.11" stop-color="white"/>
<stop offset="0.3" stop-color="#939292"/>
<stop offset="0.49" stop-color="white"/>
<stop offset="0.63" stop-color="#676868"/>
<stop offset="0.77" stop-color="#939292"/>
<stop offset="0.82" stop-color="#C8C5C5"/>
<stop offset="1" stop-color="#343433"/>
</linearGradient>
<linearGradient id="paint56_linear_3278_35347" x1="1.49749" y1="36.3181" x2="1.31028" y2="36.3181" gradientUnits="userSpaceOnUse">
<stop stop-color="#010101"/>
<stop offset="1" stop-color="#010101" stop-opacity="0"/>
</linearGradient>
<linearGradient id="paint57_linear_3278_35347" x1="1.02187" y1="31.7651" x2="1.02187" y2="32.4609" gradientUnits="userSpaceOnUse">
<stop stop-color="#010101"/>
<stop offset="1" stop-color="#010101" stop-opacity="0"/>
</linearGradient>
<clipPath id="clip0_3278_35347">
<rect width="22.7689" height="52.4376" fill="white"/>
</clipPath>
</defs>
</svg>
