<svg width="45" height="104" viewBox="0 0 45 104" fill="none" xmlns="http://www.w3.org/2000/svg">
<path d="M43.1498 63V78.35C43.1498 78.8 42.9798 79.24 42.6798 79.56L41.2598 81.06V63.01H43.1598L43.1498 63Z" fill="#CCCCCC"/>
<path d="M42.8498 63.3086H41.5498V80.2986L42.4598 79.3386C42.7098 79.0786 42.8498 78.7286 42.8498 78.3486V63.3086Z" fill="url(#paint0_linear_2227_85863)"/>
<path opacity="0.5" d="M43.1498 63V78.35C43.1498 78.8 42.9798 79.24 42.6798 79.56L41.2598 81.06V63.01H43.1598L43.1498 63Z" fill="url(#paint1_linear_2227_85863)"/>
<path opacity="0.4" d="M43.1498 63V78.35C43.1498 78.8 42.9798 79.24 42.6798 79.56L41.2598 81.06V63.01H43.1598L43.1498 63Z" fill="url(#paint2_linear_2227_85863)"/>
<mask id="mask0_2227_85863" style="mask-type:luminance" maskUnits="userSpaceOnUse" x="41" y="63" width="2" height="18">
<path d="M42.8498 63.3086H41.5498V80.2986L42.4598 79.3386C42.7098 79.0786 42.8498 78.7286 42.8498 78.3486V63.3086Z" fill="white"/>
</mask>
<g mask="url(#mask0_2227_85863)">
<path d="M41.8392 63.4373C41.9492 63.5073 42.0692 63.5173 42.0692 63.5173C42.0692 63.5173 41.9992 63.4173 41.8892 63.3573C41.7792 63.2873 41.6592 63.2773 41.6592 63.2773C41.6592 63.2773 41.7292 63.3773 41.8392 63.4373Z" fill="#989898"/>
<path d="M42.7396 63.9764C42.8496 64.0464 42.9696 64.0564 42.9696 64.0564C42.9696 64.0564 42.8996 63.9564 42.7896 63.8964C42.6796 63.8264 42.5596 63.8164 42.5596 63.8164C42.5596 63.8164 42.6296 63.9164 42.7396 63.9764Z" fill="#989898"/>
<path d="M42.279 63.647C42.219 63.767 42.209 63.887 42.209 63.887C42.209 63.887 42.299 63.817 42.359 63.697C42.419 63.577 42.429 63.457 42.429 63.457C42.429 63.457 42.339 63.527 42.279 63.647Z" fill="#989898"/>
<path d="M41.7096 63.9791C41.6496 64.0991 41.6396 64.2191 41.6396 64.2191C41.6396 64.2191 41.7296 64.1491 41.7896 64.0291C41.8496 63.9091 41.8596 63.7891 41.8596 63.7891C41.8596 63.7891 41.7696 63.8591 41.7096 63.9791Z" fill="#989898"/>
<path d="M42.61 64.5181C42.55 64.6381 42.54 64.7581 42.54 64.7581C42.54 64.7581 42.63 64.6881 42.69 64.5681C42.75 64.4481 42.76 64.3281 42.76 64.3281C42.76 64.3281 42.67 64.3981 42.61 64.5181Z" fill="#989898"/>
<path d="M42.23 64.2402C42.12 64.1702 42 64.1602 42 64.1602C42 64.1602 42.07 64.2602 42.18 64.3202C42.29 64.3802 42.41 64.4002 42.41 64.4002C42.41 64.4002 42.34 64.3002 42.23 64.2402Z" fill="#989898"/>
<path d="M41.5394 64.7069C41.6494 64.7769 41.7694 64.7869 41.7694 64.7869C41.7694 64.7869 41.6994 64.6869 41.5894 64.6269C41.4794 64.5569 41.3594 64.5469 41.3594 64.5469C41.3594 64.5469 41.4294 64.6469 41.5394 64.7069Z" fill="#989898"/>
<path d="M42.429 65.2459C42.539 65.3159 42.659 65.3259 42.659 65.3259C42.659 65.3259 42.589 65.2259 42.479 65.1659C42.369 65.0959 42.249 65.0859 42.249 65.0859C42.249 65.0859 42.319 65.1859 42.429 65.2459Z" fill="#989898"/>
<path d="M41.9694 64.9166C41.9094 65.0366 41.8994 65.1566 41.8994 65.1566C41.8994 65.1566 41.9894 65.0866 42.0494 64.9666C42.1094 64.8466 42.1194 64.7266 42.1194 64.7266C42.1194 64.7266 42.0294 64.7966 41.9694 64.9166Z" fill="#989898"/>
<path d="M41.4098 65.2486C41.3498 65.3686 41.3398 65.4886 41.3398 65.4886C41.3398 65.4886 41.4298 65.4186 41.4898 65.2986C41.5498 65.1786 41.5598 65.0586 41.5598 65.0586C41.5598 65.0586 41.4698 65.1286 41.4098 65.2486Z" fill="#989898"/>
<path d="M42.2995 65.7877C42.2395 65.9077 42.2295 66.0277 42.2295 66.0277C42.2295 66.0277 42.3195 65.9577 42.3795 65.8377C42.4395 65.7177 42.4495 65.5977 42.4495 65.5977C42.4495 65.5977 42.3595 65.6677 42.2995 65.7877Z" fill="#989898"/>
<path d="M41.9195 65.498C41.8095 65.428 41.6895 65.418 41.6895 65.418C41.6895 65.418 41.7595 65.518 41.8695 65.578C41.9795 65.648 42.0995 65.658 42.0995 65.658C42.0995 65.658 42.0295 65.558 41.9195 65.498Z" fill="#989898"/>
<path d="M42.7798 65.9902C42.6698 65.9202 42.5498 65.9102 42.5498 65.9102C42.5498 65.9102 42.6198 66.0102 42.7298 66.0702C42.8398 66.1402 42.9598 66.1502 42.9598 66.1502C42.9598 66.1502 42.8898 66.0502 42.7798 65.9902Z" fill="#989898"/>
<path d="M41.6296 66.0884C41.5696 66.2084 41.5596 66.3284 41.5596 66.3284C41.5596 66.3284 41.6496 66.2584 41.7096 66.1384C41.7696 66.0184 41.7796 65.8984 41.7796 65.8984C41.7796 65.8984 41.6896 65.9684 41.6296 66.0884Z" fill="#989898"/>
<path d="M42.53 66.6275C42.47 66.7475 42.46 66.8675 42.46 66.8675C42.46 66.8675 42.55 66.7975 42.61 66.6775C42.67 66.5575 42.68 66.4375 42.68 66.4375C42.68 66.4375 42.59 66.5075 42.53 66.6275Z" fill="#989898"/>
<path d="M42.1392 66.3495C42.0292 66.2795 41.9092 66.2695 41.9092 66.2695C41.9092 66.2695 41.9792 66.3695 42.0892 66.4295C42.1992 66.4995 42.3192 66.5095 42.3192 66.5095C42.3192 66.5095 42.2492 66.4095 42.1392 66.3495Z" fill="#989898"/>
<path d="M41.4593 66.8202C41.5693 66.8902 41.6893 66.9002 41.6893 66.9002C41.6893 66.9002 41.6193 66.8002 41.5093 66.7402C41.3993 66.6702 41.2793 66.6602 41.2793 66.6602C41.2793 66.6602 41.3493 66.7602 41.4593 66.8202Z" fill="#989898"/>
<path d="M42.3489 67.3592C42.4589 67.4292 42.5789 67.4392 42.5789 67.4392C42.5789 67.4392 42.5089 67.3392 42.3989 67.2792C42.2889 67.2092 42.1689 67.1992 42.1689 67.1992C42.1689 67.1992 42.2389 67.2992 42.3489 67.3592Z" fill="#989898"/>
<path d="M41.8893 67.0298C41.8293 67.1498 41.8193 67.2698 41.8193 67.2698C41.8193 67.2698 41.9093 67.1998 41.9693 67.0798C42.0293 66.9598 42.0393 66.8398 42.0393 66.8398C42.0393 66.8398 41.9493 66.9098 41.8893 67.0298Z" fill="#989898"/>
<path d="M42.2194 67.9009C42.1594 68.0209 42.1494 68.1409 42.1494 68.1409C42.1494 68.1409 42.2394 68.0709 42.2994 67.9509C42.3594 67.8309 42.3694 67.7109 42.3694 67.7109C42.3694 67.7109 42.2794 67.7809 42.2194 67.9009Z" fill="#989898"/>
<path d="M41.8394 67.6113C41.7294 67.5413 41.6094 67.5312 41.6094 67.5312C41.6094 67.5312 41.6794 67.6313 41.7894 67.6913C41.8994 67.7513 42.0194 67.7713 42.0194 67.7713C42.0194 67.7713 41.9494 67.6713 41.8394 67.6113Z" fill="#989898"/>
<path d="M42.6997 68.0917C42.5897 68.0217 42.4697 68.0117 42.4697 68.0117C42.4697 68.0117 42.5397 68.1117 42.6497 68.1717C42.7597 68.2417 42.8797 68.2517 42.8797 68.2517C42.8797 68.2517 42.8097 68.1517 42.6997 68.0917Z" fill="#989898"/>
<path d="M41.6296 68.2056C41.5696 68.3256 41.5596 68.4456 41.5596 68.4456C41.5596 68.4456 41.6496 68.3756 41.7096 68.2556C41.7696 68.1356 41.7796 68.0156 41.7796 68.0156C41.7796 68.0156 41.6896 68.0856 41.6296 68.2056Z" fill="#989898"/>
<path d="M42.53 68.7447C42.47 68.8647 42.46 68.9847 42.46 68.9847C42.46 68.9847 42.55 68.9147 42.61 68.7947C42.67 68.6747 42.68 68.5547 42.68 68.5547C42.68 68.5547 42.59 68.6247 42.53 68.7447Z" fill="#989898"/>
<path d="M42.1392 68.455C42.0292 68.385 41.9092 68.375 41.9092 68.375C41.9092 68.375 41.9792 68.475 42.0892 68.535C42.1992 68.605 42.3192 68.615 42.3192 68.615C42.3192 68.615 42.2492 68.515 42.1392 68.455Z" fill="#989898"/>
<path d="M41.4593 68.9256C41.5693 68.9956 41.6893 69.0056 41.6893 69.0056C41.6893 69.0056 41.6193 68.9056 41.5093 68.8456C41.3993 68.7756 41.2793 68.7656 41.2793 68.7656C41.2793 68.7656 41.3493 68.8656 41.4593 68.9256Z" fill="#989898"/>
<path d="M42.3489 69.4647C42.4589 69.5347 42.5789 69.5447 42.5789 69.5447C42.5789 69.5447 42.5089 69.4447 42.3989 69.3847C42.2889 69.3147 42.1689 69.3047 42.1689 69.3047C42.1689 69.3047 42.2389 69.4047 42.3489 69.4647Z" fill="#989898"/>
<path d="M41.8893 69.1353C41.8293 69.2553 41.8193 69.3753 41.8193 69.3753C41.8193 69.3753 41.9093 69.3053 41.9693 69.1853C42.0293 69.0653 42.0393 68.9453 42.0393 68.9453C42.0393 68.9453 41.9493 69.0153 41.8893 69.1353Z" fill="#989898"/>
<path d="M42.2194 70.0064C42.1594 70.1264 42.1494 70.2464 42.1494 70.2464C42.1494 70.2464 42.2394 70.1764 42.2994 70.0564C42.3594 69.9364 42.3694 69.8164 42.3694 69.8164C42.3694 69.8164 42.2794 69.8864 42.2194 70.0064Z" fill="#989898"/>
<path d="M41.8394 69.7284C41.7294 69.6584 41.6094 69.6484 41.6094 69.6484C41.6094 69.6484 41.6794 69.7484 41.7894 69.8084C41.8994 69.8784 42.0194 69.8884 42.0194 69.8884C42.0194 69.8884 41.9494 69.7884 41.8394 69.7284Z" fill="#989898"/>
<path d="M42.6997 70.2089C42.5897 70.1389 42.4697 70.1289 42.4697 70.1289C42.4697 70.1289 42.5397 70.2289 42.6497 70.2889C42.7597 70.3589 42.8797 70.3689 42.8797 70.3689C42.8797 70.3689 42.8097 70.2689 42.6997 70.2089Z" fill="#989898"/>
<path d="M41.6296 70.3189C41.5696 70.4389 41.5596 70.5589 41.5596 70.5589C41.5596 70.5589 41.6496 70.4889 41.7096 70.3689C41.7696 70.2489 41.7796 70.1289 41.7796 70.1289C41.7796 70.1289 41.6896 70.1989 41.6296 70.3189Z" fill="#989898"/>
<path d="M42.53 70.858C42.47 70.978 42.46 71.098 42.46 71.098C42.46 71.098 42.55 71.028 42.61 70.908C42.67 70.788 42.68 70.668 42.68 70.668C42.68 70.668 42.59 70.738 42.53 70.858Z" fill="#989898"/>
<path d="M42.1392 70.58C42.0292 70.51 41.9092 70.5 41.9092 70.5C41.9092 70.5 41.9792 70.6 42.0892 70.66C42.1992 70.73 42.3192 70.74 42.3192 70.74C42.3192 70.74 42.2492 70.64 42.1392 70.58Z" fill="#989898"/>
<path d="M41.4593 71.0506C41.5693 71.1206 41.6893 71.1306 41.6893 71.1306C41.6893 71.1306 41.6193 71.0306 41.5093 70.9706C41.3993 70.9006 41.2793 70.8906 41.2793 70.8906C41.2793 70.8906 41.3493 70.9906 41.4593 71.0506Z" fill="#989898"/>
<path d="M42.3489 71.5897C42.4589 71.6597 42.5789 71.6697 42.5789 71.6697C42.5789 71.6697 42.5089 71.5697 42.3989 71.5097C42.2889 71.4397 42.1689 71.4297 42.1689 71.4297C42.1689 71.4297 42.2389 71.5297 42.3489 71.5897Z" fill="#989898"/>
<path d="M41.8893 71.2603C41.8293 71.3803 41.8193 71.5003 41.8193 71.5003C41.8193 71.5003 41.9093 71.4303 41.9693 71.3103C42.0293 71.1903 42.0393 71.0703 42.0393 71.0703C42.0393 71.0703 41.9493 71.1403 41.8893 71.2603Z" fill="#989898"/>
<path d="M42.2194 72.1314C42.1594 72.2514 42.1494 72.3714 42.1494 72.3714C42.1494 72.3714 42.2394 72.3014 42.2994 72.1814C42.3594 72.0614 42.3694 71.9414 42.3694 71.9414C42.3694 71.9414 42.2794 72.0114 42.2194 72.1314Z" fill="#989898"/>
<path d="M41.8394 71.8417C41.7294 71.7717 41.6094 71.7617 41.6094 71.7617C41.6094 71.7617 41.6794 71.8617 41.7894 71.9217C41.8994 71.9917 42.0194 72.0017 42.0194 72.0017C42.0194 72.0017 41.9494 71.9017 41.8394 71.8417Z" fill="#989898"/>
<path d="M42.6997 72.3339C42.5897 72.2639 42.4697 72.2539 42.4697 72.2539C42.4697 72.2539 42.5397 72.3539 42.6497 72.4139C42.7597 72.4839 42.8797 72.4939 42.8797 72.4939C42.8797 72.4939 42.8097 72.3939 42.6997 72.3339Z" fill="#989898"/>
<path d="M41.6296 72.4361C41.5696 72.5561 41.5596 72.6761 41.5596 72.6761C41.5596 72.6761 41.6496 72.6061 41.7096 72.4861C41.7696 72.3661 41.7796 72.2461 41.7796 72.2461C41.7796 72.2461 41.6896 72.3161 41.6296 72.4361Z" fill="#989898"/>
<path d="M42.53 72.9752C42.47 73.0952 42.46 73.2152 42.46 73.2152C42.46 73.2152 42.55 73.1452 42.61 73.0252C42.67 72.9052 42.68 72.7852 42.68 72.7852C42.68 72.7852 42.59 72.8552 42.53 72.9752Z" fill="#989898"/>
<path d="M42.1392 72.6855C42.0292 72.6155 41.9092 72.6055 41.9092 72.6055C41.9092 72.6055 41.9792 72.7055 42.0892 72.7655C42.1992 72.8355 42.3192 72.8455 42.3192 72.8455C42.3192 72.8455 42.2492 72.7455 42.1392 72.6855Z" fill="#989898"/>
<path d="M41.4593 73.1561C41.5693 73.2261 41.6893 73.2361 41.6893 73.2361C41.6893 73.2361 41.6193 73.1361 41.5093 73.0761C41.3993 73.0061 41.2793 72.9961 41.2793 72.9961C41.2793 72.9961 41.3493 73.0961 41.4593 73.1561Z" fill="#989898"/>
<path d="M42.3489 73.7069C42.4589 73.7769 42.5789 73.7869 42.5789 73.7869C42.5789 73.7869 42.5089 73.6869 42.3989 73.6269C42.2889 73.5569 42.1689 73.5469 42.1689 73.5469C42.1689 73.5469 42.2389 73.6469 42.3489 73.7069Z" fill="#989898"/>
<path d="M41.8893 73.3658C41.8293 73.4858 41.8193 73.6058 41.8193 73.6058C41.8193 73.6058 41.9093 73.5358 41.9693 73.4158C42.0293 73.2958 42.0393 73.1758 42.0393 73.1758C42.0393 73.1758 41.9493 73.2458 41.8893 73.3658Z" fill="#989898"/>
<path d="M42.2194 74.2369C42.1594 74.3569 42.1494 74.4769 42.1494 74.4769C42.1494 74.4769 42.2394 74.4069 42.2994 74.2869C42.3594 74.1669 42.3694 74.0469 42.3694 74.0469C42.3694 74.0469 42.2794 74.1169 42.2194 74.2369Z" fill="#989898"/>
<path d="M41.8394 73.9589C41.7294 73.8889 41.6094 73.8789 41.6094 73.8789C41.6094 73.8789 41.6794 73.9789 41.7894 74.0389C41.8994 74.0989 42.0194 74.1189 42.0194 74.1189C42.0194 74.1189 41.9494 74.0189 41.8394 73.9589Z" fill="#989898"/>
<path d="M42.6997 74.4394C42.5897 74.3694 42.4697 74.3594 42.4697 74.3594C42.4697 74.3594 42.5397 74.4594 42.6497 74.5194C42.7597 74.5894 42.8797 74.5994 42.8797 74.5994C42.8797 74.5994 42.8097 74.4994 42.6997 74.4394Z" fill="#989898"/>
<path d="M41.6296 74.5455C41.5696 74.6655 41.5596 74.7855 41.5596 74.7855C41.5596 74.7855 41.6496 74.7155 41.7096 74.5955C41.7696 74.4755 41.7796 74.3555 41.7796 74.3555C41.7796 74.3555 41.6896 74.4255 41.6296 74.5455Z" fill="#989898"/>
<path d="M42.53 75.0845C42.47 75.2045 42.46 75.3245 42.46 75.3245C42.46 75.3245 42.55 75.2545 42.61 75.1345C42.67 75.0145 42.68 74.8945 42.68 74.8945C42.68 74.8945 42.59 74.9645 42.53 75.0845Z" fill="#989898"/>
<path d="M42.1392 74.8066C42.0292 74.7366 41.9092 74.7266 41.9092 74.7266C41.9092 74.7266 41.9792 74.8266 42.0892 74.8866C42.1992 74.9566 42.3192 74.9666 42.3192 74.9666C42.3192 74.9666 42.2492 74.8666 42.1392 74.8066Z" fill="#989898"/>
<path d="M41.4593 75.2772C41.5693 75.3472 41.6893 75.3572 41.6893 75.3572C41.6893 75.3572 41.6193 75.2572 41.5093 75.1972C41.3993 75.1272 41.2793 75.1172 41.2793 75.1172C41.2793 75.1172 41.3493 75.2172 41.4593 75.2772Z" fill="#989898"/>
<path d="M42.3489 75.8162C42.4589 75.8862 42.5789 75.8962 42.5789 75.8962C42.5789 75.8962 42.5089 75.7962 42.3989 75.7362C42.2889 75.6662 42.1689 75.6562 42.1689 75.6562C42.1689 75.6562 42.2389 75.7562 42.3489 75.8162Z" fill="#989898"/>
<path d="M41.8893 75.4869C41.8293 75.6069 41.8193 75.7269 41.8193 75.7269C41.8193 75.7269 41.9093 75.6569 41.9693 75.5369C42.0293 75.4169 42.0393 75.2969 42.0393 75.2969C42.0393 75.2969 41.9493 75.3669 41.8893 75.4869Z" fill="#989898"/>
<path d="M42.2194 76.358C42.1594 76.478 42.1494 76.598 42.1494 76.598C42.1494 76.598 42.2394 76.528 42.2994 76.408C42.3594 76.288 42.3694 76.168 42.3694 76.168C42.3694 76.168 42.2794 76.238 42.2194 76.358Z" fill="#989898"/>
<path d="M41.8394 76.0683C41.7294 75.9983 41.6094 75.9883 41.6094 75.9883C41.6094 75.9883 41.6794 76.0883 41.7894 76.1483C41.8994 76.2183 42.0194 76.2283 42.0194 76.2283C42.0194 76.2283 41.9494 76.1283 41.8394 76.0683Z" fill="#989898"/>
<path d="M42.6997 76.5605C42.5897 76.4905 42.4697 76.4805 42.4697 76.4805C42.4697 76.4805 42.5397 76.5805 42.6497 76.6405C42.7597 76.7105 42.8797 76.7205 42.8797 76.7205C42.8797 76.7205 42.8097 76.6205 42.6997 76.5605Z" fill="#989898"/>
<path d="M41.6296 76.6666C41.5696 76.7866 41.5596 76.9066 41.5596 76.9066C41.5596 76.9066 41.6496 76.8366 41.7096 76.7166C41.7696 76.5966 41.7796 76.4766 41.7796 76.4766C41.7796 76.4766 41.6896 76.5466 41.6296 76.6666Z" fill="#989898"/>
<path d="M42.53 77.2056C42.47 77.3256 42.46 77.4456 42.46 77.4456C42.46 77.4456 42.55 77.3756 42.61 77.2556C42.67 77.1356 42.68 77.0156 42.68 77.0156C42.68 77.0156 42.59 77.0856 42.53 77.2056Z" fill="#989898"/>
<path d="M42.1392 76.9159C42.0292 76.8459 41.9092 76.8359 41.9092 76.8359C41.9092 76.8359 41.9792 76.9359 42.0892 76.9959C42.1992 77.0659 42.3192 77.0759 42.3192 77.0759C42.3192 77.0759 42.2492 76.9759 42.1392 76.9159Z" fill="#989898"/>
<path d="M41.4593 77.3983C41.5693 77.4683 41.6893 77.4783 41.6893 77.4783C41.6893 77.4783 41.6193 77.3783 41.5093 77.3183C41.3993 77.2483 41.2793 77.2383 41.2793 77.2383C41.2793 77.2383 41.3493 77.3383 41.4593 77.3983Z" fill="#989898"/>
<path d="M42.3489 77.9373C42.4589 78.0073 42.5789 78.0173 42.5789 78.0173C42.5789 78.0173 42.5089 77.9173 42.3989 77.8573C42.2889 77.7873 42.1689 77.7773 42.1689 77.7773C42.1689 77.7773 42.2389 77.8773 42.3489 77.9373Z" fill="#989898"/>
<path d="M41.8893 77.6002C41.8293 77.7202 41.8193 77.8402 41.8193 77.8402C41.8193 77.8402 41.9093 77.7702 41.9693 77.6502C42.0293 77.5302 42.0393 77.4102 42.0393 77.4102C42.0393 77.4102 41.9493 77.4802 41.8893 77.6002Z" fill="#989898"/>
<path d="M42.2194 78.4791C42.1594 78.5991 42.1494 78.7191 42.1494 78.7191C42.1494 78.7191 42.2394 78.6491 42.2994 78.5291C42.3594 78.4091 42.3694 78.2891 42.3694 78.2891C42.3694 78.2891 42.2794 78.3591 42.2194 78.4791Z" fill="#989898"/>
<path d="M41.8394 78.1894C41.7294 78.1194 41.6094 78.1094 41.6094 78.1094C41.6094 78.1094 41.6794 78.2094 41.7894 78.2694C41.8994 78.3294 42.0194 78.3494 42.0194 78.3494C42.0194 78.3494 41.9494 78.2494 41.8394 78.1894Z" fill="#989898"/>
<path d="M42.6997 78.6698C42.5897 78.5998 42.4697 78.5898 42.4697 78.5898C42.4697 78.5898 42.5397 78.6898 42.6497 78.7498C42.7597 78.8198 42.8797 78.8298 42.8797 78.8298C42.8797 78.8298 42.8097 78.7298 42.6997 78.6698Z" fill="#989898"/>
<path d="M41.6296 78.7877C41.5696 78.9077 41.5596 79.0277 41.5596 79.0277C41.5596 79.0277 41.6496 78.9577 41.7096 78.8377C41.7696 78.7177 41.7796 78.5977 41.7796 78.5977C41.7796 78.5977 41.6896 78.6677 41.6296 78.7877Z" fill="#989898"/>
<path d="M42.53 79.3267C42.47 79.4467 42.46 79.5667 42.46 79.5667C42.46 79.5667 42.55 79.4967 42.61 79.3767C42.67 79.2567 42.68 79.1367 42.68 79.1367C42.68 79.1367 42.59 79.2067 42.53 79.3267Z" fill="#989898"/>
<path d="M42.1392 79.037C42.0292 78.967 41.9092 78.957 41.9092 78.957C41.9092 78.957 41.9792 79.057 42.0892 79.117C42.1992 79.187 42.3192 79.197 42.3192 79.197C42.3192 79.197 42.2492 79.097 42.1392 79.037Z" fill="#989898"/>
<path d="M41.4593 79.5077C41.5693 79.5777 41.6893 79.5877 41.6893 79.5877C41.6893 79.5877 41.6193 79.4877 41.5093 79.4277C41.3993 79.3577 41.2793 79.3477 41.2793 79.3477C41.2793 79.3477 41.3493 79.4477 41.4593 79.5077Z" fill="#989898"/>
<path d="M42.3489 80.0467C42.4589 80.1167 42.5789 80.1267 42.5789 80.1267C42.5789 80.1267 42.5089 80.0267 42.3989 79.9667C42.2889 79.8967 42.1689 79.8867 42.1689 79.8867C42.1689 79.8867 42.2389 79.9867 42.3489 80.0467Z" fill="#989898"/>
<path d="M41.8893 79.7173C41.8293 79.8373 41.8193 79.9573 41.8193 79.9573C41.8193 79.9573 41.9093 79.8873 41.9693 79.7673C42.0293 79.6473 42.0393 79.5273 42.0393 79.5273C42.0393 79.5273 41.9493 79.5973 41.8893 79.7173Z" fill="#989898"/>
<path d="M41.8394 80.3105C41.7294 80.2405 41.6094 80.2305 41.6094 80.2305C41.6094 80.2305 41.6794 80.3305 41.7894 80.3905C41.8994 80.4605 42.0194 80.4705 42.0194 80.4705C42.0194 80.4705 41.9494 80.3705 41.8394 80.3105Z" fill="#989898"/>
</g>
<path d="M35.5204 103.141H35.9104C36.0429 103.141 36.1504 103.033 36.1504 102.901V102.831C36.1504 102.698 36.0429 102.591 35.9104 102.591H35.5204C35.3878 102.591 35.2804 102.698 35.2804 102.831V102.901C35.2804 103.033 35.3878 103.141 35.5204 103.141Z" fill="url(#paint3_linear_2227_85863)"/>
<path d="M34.19 102.598H33.69C33.59 102.598 33.5 102.688 33.5 102.798V102.958C33.5 103.068 33.58 103.158 33.69 103.158H34.19C34.29 103.158 34.38 103.068 34.38 102.958V102.798C34.38 102.688 34.3 102.598 34.19 102.598Z" fill="url(#paint4_linear_2227_85863)"/>
<path d="M34.5305 101.039H35.0205C35.3205 101.039 35.5605 101.299 35.5605 101.619V103.329C35.5605 103.649 35.3105 103.899 35.0105 103.899H34.5205C34.2205 103.899 33.9805 103.639 33.9805 103.319V101.609C33.9805 101.289 34.2305 101.039 34.5305 101.039Z" fill="url(#paint5_linear_2227_85863)"/>
<path d="M10.2201 103.141H10.6101C10.7426 103.141 10.8501 103.033 10.8501 102.901V102.831C10.8501 102.698 10.7426 102.591 10.6101 102.591H10.2201C10.0875 102.591 9.9801 102.698 9.9801 102.831V102.901C9.9801 103.033 10.0875 103.141 10.2201 103.141Z" fill="url(#paint6_linear_2227_85863)"/>
<path d="M8.8902 102.598H8.3902C8.2902 102.598 8.2002 102.688 8.2002 102.798V102.958C8.2002 103.068 8.2802 103.158 8.3902 103.158H8.8902C8.9902 103.158 9.0802 103.068 9.0802 102.958V102.798C9.0802 102.688 9.0002 102.598 8.8902 102.598Z" fill="url(#paint7_linear_2227_85863)"/>
<path d="M9.24043 101.039H9.73043C10.0304 101.039 10.2704 101.299 10.2704 101.619V103.329C10.2704 103.649 10.0204 103.899 9.72043 103.899H9.23043C8.93043 103.899 8.69043 103.639 8.69043 103.319V101.609C8.69043 101.289 8.94043 101.039 9.24043 101.039Z" fill="url(#paint8_linear_2227_85863)"/>
<path d="M35.2499 102.289H9.08989C5.70989 102.289 2.96988 99.5491 2.96988 96.1691L2.96988 63.6291L41.3799 63.6291L41.3799 96.1691C41.3799 99.5491 38.6399 102.289 35.2599 102.289H35.2499Z" fill="#CB3827"/>
<path d="M6.60973 102.291H37.7397C39.7497 102.291 41.3797 100.571 41.3797 98.4509V96.7109H2.96973V98.4509C2.96973 100.571 4.59973 102.291 6.60973 102.291Z" fill="url(#paint9_linear_2227_85863)"/>
<path d="M6.60973 102.291H37.7397C39.7497 102.291 41.3797 100.571 41.3797 98.4509V96.7109H2.96973V98.4509C2.96973 100.571 4.59973 102.291 6.60973 102.291Z" fill="url(#paint10_linear_2227_85863)"/>
<path opacity="0.2" d="M7.13035 101.339H37.2104C39.1504 101.339 40.7304 99.6192 40.7304 97.4992V96.6992H3.61035V97.4992C3.61035 99.6192 5.19035 101.339 7.13035 101.339Z" fill="#010101"/>
<path d="M4.16016 95.8097L4.16016 64.3897H40.1901V95.8097C40.1901 98.0897 38.3402 99.9297 36.0702 99.9297H8.29015C6.01015 99.9297 4.17015 98.0797 4.17015 95.8097H4.16016Z" fill="#F6F8EB"/>
<g opacity="0.1">
<path d="M4.16016 95.8136L4.16016 64.3936H40.1901V95.8136C40.1901 98.0936 38.3402 99.9336 36.0702 99.9336H8.29015C6.01015 99.9336 4.17015 98.0836 4.17015 95.8136H4.16016Z" fill="url(#paint11_radial_2227_85863)"/>
</g>
<g opacity="0.5">
<path d="M4.16016 95.8136L4.16016 64.3936H40.1901V95.8136C40.1901 98.0936 38.3402 99.9336 36.0702 99.9336H8.29015C6.01015 99.9336 4.17015 98.0836 4.17015 95.8136H4.16016Z" fill="url(#paint12_linear_2227_85863)"/>
</g>
<path opacity="0.3" d="M30.71 99.9403H32.81L34.62 74.7303L32.52 74.5703L30.71 99.9403Z" fill="url(#paint13_linear_2227_85863)"/>
<path opacity="0.3" d="M13.66 99.9403H11.56L9.75 74.7303L11.85 74.5703L13.66 99.9403Z" fill="url(#paint14_linear_2227_85863)"/>
<path d="M6.61016 101.039H37.7402C39.0902 101.039 40.1902 99.8794 40.1902 98.4594V97.3594C40.1902 98.7894 39.0902 99.9394 37.7402 99.9394H6.61016C5.26016 99.9394 4.16016 98.7794 4.16016 97.3594V98.4594C4.16016 99.8794 5.26016 101.039 6.61016 101.039Z" fill="#CCCCCC"/>
<path opacity="0.4" d="M13.8 100.91H30.71V100.77H13.8V100.91Z" fill="#676767"/>
<path opacity="0.4" d="M13.8 100.668H30.71V100.528H13.8V100.668Z" fill="#676767"/>
<path opacity="0.4" d="M13.8 100.43H30.71V100.29H13.8V100.43Z" fill="#676767"/>
<path opacity="0.4" d="M13.8 100.18H30.71V100.04H13.8V100.18Z" fill="#676767"/>
<path d="M37.7305 101.039C39.0805 101.039 40.1805 99.8794 40.1805 98.4594V97.3594C40.1805 98.7894 39.0805 99.9394 37.7305 99.9394V101.039Z" fill="#F26722"/>
<path d="M30.8001 99.9375H37.7401V101.038H30.1201L30.8001 99.9375Z" fill="#E0F2F6"/>
<g style="mix-blend-mode:overlay">
<path d="M37.7298 100.039H30.7398L30.5898 100.279H37.7298H37.7398V100.039H37.7298Z" fill="white"/>
</g>
<g style="mix-blend-mode:overlay" opacity="0.4">
<path d="M37.7402 100.281C39.0902 100.281 40.1902 99.1209 40.1902 97.7009V97.4609C40.1902 98.8809 39.0902 100.041 37.7402 100.041V100.281Z" fill="white"/>
</g>
<path d="M40.1904 97.4609H40.4304C40.4904 97.4609 40.5404 97.5409 40.5404 97.6509V98.3709C40.5404 98.4709 40.4904 98.5609 40.4304 98.5609H40.1904V97.4609Z" fill="#F26722"/>
<path d="M6.65947 101.039C5.30947 101.039 4.20947 99.8794 4.20947 98.4594V97.3594C4.20947 98.7894 5.30947 99.9394 6.65947 99.9394V101.039Z" fill="#F26722"/>
<path d="M13.5897 99.9375H6.65967V101.038H14.2797L13.5897 99.9375Z" fill="#E0F2F6"/>
<g style="mix-blend-mode:overlay">
<path d="M6.65967 100.039H13.6497L13.7997 100.279H6.65967V100.039Z" fill="white"/>
</g>
<g style="mix-blend-mode:overlay" opacity="0.4">
<path d="M6.65947 100.281C5.30947 100.281 4.20947 99.1209 4.20947 97.7009V97.4609C4.20947 98.8809 5.30947 100.041 6.65947 100.041V100.281Z" fill="white"/>
</g>
<path d="M4.19961 97.4609H3.95961C3.89961 97.4609 3.84961 97.5409 3.84961 97.6509V98.3709C3.84961 98.4709 3.89961 98.5609 3.95961 98.5609H4.19961V97.4609Z" fill="#F26722"/>
<path d="M37 71.5993C33.16 72.1893 16.17 73.5993 7.80003 71.7293C6.97003 71.5393 6.13003 71.9993 5.79003 72.8193L4.28003 83.7193C3.93003 84.5693 4.35003 85.5393 5.19003 85.8093C9.46003 87.1993 22.24 90.3993 39.13 85.6493C39.98 85.4093 40.43 84.4293 40.1 83.5793L38.93 72.7593C38.62 71.9493 37.83 71.4693 37.02 71.5993H37Z" fill="#F4F4F4"/>
<path opacity="0.5" d="M37 71.5993C33.16 72.1893 16.17 73.5993 7.80003 71.7293C6.97003 71.5393 6.13003 71.9993 5.79003 72.8193L4.28003 83.7193C3.93003 84.5693 4.35003 85.5393 5.19003 85.8093C9.46003 87.1993 22.24 90.3993 39.13 85.6493C39.98 85.4093 40.43 84.4293 40.1 83.5793L38.93 72.7593C38.62 71.9493 37.83 71.4693 37.02 71.5993H37Z" fill="url(#paint15_linear_2227_85863)"/>
<path d="M37.2601 72.3381C37.6901 72.3381 38.0801 72.6181 38.2501 73.0381L39.4201 83.8581C39.5001 84.0681 39.4901 84.3081 39.3901 84.5081C39.3001 84.7081 39.1301 84.8481 38.9301 84.9081C33.0701 86.5581 27.1501 87.3881 21.3301 87.3881C13.6301 87.3881 8.04006 85.9381 5.39006 85.0681C5.19006 84.9981 5.02006 84.8481 4.94006 84.6481C4.85006 84.4381 4.85006 84.2081 4.94006 83.9981L6.46006 73.0981C6.63006 72.6881 7.01006 72.4181 7.43006 72.4181C7.50006 72.4181 7.58006 72.4181 7.65006 72.4481C10.4901 73.0881 16.8501 73.4081 20.7101 73.4081C26.3301 73.4081 34.5001 72.7381 37.1001 72.3381C37.1501 72.3381 37.2001 72.3281 37.2501 72.3281L37.2601 72.3381Z" fill="#010101"/>
<path d="M37.2602 72.7188C37.5502 72.7188 37.8002 72.8988 37.9102 73.1888L39.0802 84.0088C39.1402 84.1588 39.1002 84.2887 39.0702 84.3487C39.0402 84.4187 38.9702 84.5088 38.8402 84.5488C33.0102 86.1888 27.1202 87.0188 21.3402 87.0188C13.6902 87.0188 8.13025 85.5788 5.51025 84.7188C5.37025 84.6687 5.30025 84.5688 5.28025 84.5088C5.25025 84.4488 5.22025 84.3187 5.28025 84.1687L6.80025 73.2688C6.91025 72.9988 7.16025 72.8187 7.44025 72.8187C7.49025 72.8187 7.54025 72.8188 7.59025 72.8388C10.4502 73.4788 16.8402 73.8087 20.7302 73.8087C26.3702 73.8087 34.5702 73.1288 37.1802 72.7288C37.2102 72.7288 37.2502 72.7288 37.2802 72.7288L37.2602 72.7188Z" fill="#686C86"/>
<path opacity="0.2" d="M38.76 81.0508C34.56 82.1308 28.27 82.9908 22.17 82.9908C16.07 82.9908 9.87997 82.1108 5.69997 81.0508L5.26997 84.1608C5.20997 84.3108 5.24997 84.4308 5.26997 84.5008C5.29997 84.5608 5.35997 84.6708 5.49997 84.7108C8.12997 85.5708 13.68 87.0108 21.33 87.0108C27.12 87.0108 33 86.1808 38.83 84.5408C38.96 84.5008 39.03 84.4108 39.06 84.3408C39.09 84.2808 39.13 84.1508 39.07 84.0008L38.75 81.0508H38.76Z" fill="#010101"/>
<path d="M39.0002 83.7891C34.5002 84.9591 28.6102 85.6691 22.1702 85.6691C15.7302 85.6691 9.9002 84.9691 5.4102 83.8091L5.2602 84.1691C5.2002 84.3191 5.2402 84.4391 5.2602 84.5091C5.2902 84.5691 5.3502 84.6791 5.4902 84.7191C8.1202 85.5791 13.6702 87.0191 21.3202 87.0191C27.1102 87.0191 32.9902 86.1891 38.8202 84.5491C38.9502 84.5091 39.0202 84.4191 39.0502 84.3491C39.0802 84.2891 39.1202 84.1591 39.0602 84.0091L38.9802 83.7991L39.0002 83.7891Z" fill="#333333"/>
<path d="M33.5498 83.9794L28.8398 85.0094L28.7998 84.7694L33.5198 83.8594L33.5498 83.9794Z" fill="#010101"/>
<path d="M22.2705 86.0173L28.7005 84.7773L28.3805 85.0973L22.3105 86.2673L22.2705 86.0173Z" fill="#010101"/>
<path d="M33.2505 83.8477L22.0205 85.9977L22.0405 86.1277L33.5405 83.9177L33.2505 83.8477Z" fill="#333333"/>
<path d="M22.3101 86.0763C22.3401 86.2663 22.2201 86.4463 22.0401 86.4863C21.8601 86.5163 21.6901 86.3963 21.6501 86.2063C21.6201 86.0163 21.7401 85.8363 21.9201 85.7963C22.1001 85.7563 22.2701 85.8863 22.3101 86.0763Z" fill="#010101"/>
<path d="M22.3002 86.0087C22.3302 86.1687 22.2302 86.3087 22.0802 86.3387C21.9302 86.3687 21.7902 86.2687 21.7602 86.1087C21.7302 85.9487 21.8302 85.8087 21.9802 85.7787C22.1302 85.7487 22.2702 85.8487 22.3002 86.0087Z" fill="#333333"/>
<path d="M23.1101 84.5402L18.3301 85.0702L18.3101 84.8202L23.1001 84.4102L23.1101 84.5402Z" fill="#010101"/>
<path d="M11.6997 85.3703L18.2197 84.8203L17.8697 85.1103L11.7197 85.6303L11.6997 85.3703Z" fill="#010101"/>
<path d="M22.8297 84.3711L11.4497 85.3311L11.4597 85.4611L23.1097 84.4811L22.8297 84.3711Z" fill="#333333"/>
<path d="M11.7299 85.4312C11.7399 85.6212 11.6099 85.7912 11.4299 85.8112C11.2499 85.8312 11.0899 85.6812 11.0699 85.4912C11.0599 85.3012 11.1899 85.1312 11.3699 85.1112C11.5499 85.0912 11.7099 85.2412 11.7299 85.4312Z" fill="#010101"/>
<path d="M11.7301 85.37C11.7401 85.53 11.6301 85.67 11.4801 85.68C11.3301 85.69 11.2001 85.58 11.1901 85.42C11.1801 85.26 11.2901 85.12 11.4401 85.11C11.5901 85.1 11.7201 85.21 11.7301 85.37Z" fill="#333333"/>
<path opacity="0.5" d="M37.2602 72.7188C37.5502 72.7188 37.8002 72.8988 37.9102 73.1888L39.0802 84.0088C39.1402 84.1588 39.1002 84.2887 39.0702 84.3487C39.0402 84.4187 38.9702 84.5088 38.8402 84.5488C33.0102 86.1888 27.1202 87.0188 21.3402 87.0188C13.6902 87.0188 8.13025 85.5788 5.51025 84.7188C5.37025 84.6687 5.30025 84.5688 5.28025 84.5088C5.25025 84.4488 5.22025 84.3187 5.28025 84.1687L6.80025 73.2688C6.91025 72.9988 7.16025 72.8187 7.44025 72.8187C7.49025 72.8187 7.54025 72.8188 7.59025 72.8388C10.4502 73.4788 16.8402 73.8087 20.7302 73.8087C26.3702 73.8087 34.5702 73.1288 37.1802 72.7288C37.2102 72.7288 37.2502 72.7288 37.2802 72.7288L37.2602 72.7188Z" fill="url(#paint16_radial_2227_85863)"/>
<path style="mix-blend-mode:overlay" opacity="0.3" d="M37.2602 72.7188C37.5502 72.7188 37.8002 72.8988 37.9102 73.1888L39.0802 84.0088C39.1402 84.1588 39.1002 84.2887 39.0702 84.3487C39.0402 84.4187 38.9702 84.5088 38.8402 84.5488C33.0102 86.1888 27.1202 87.0188 21.3402 87.0188C13.6902 87.0188 8.13025 85.5788 5.51025 84.7188C5.37025 84.6687 5.30025 84.5688 5.28025 84.5088C5.25025 84.4488 5.22025 84.3187 5.28025 84.1687L6.80025 73.2688C6.91025 72.9988 7.16025 72.8187 7.44025 72.8187C7.49025 72.8187 7.54025 72.8188 7.59025 72.8388C10.4502 73.4788 16.8402 73.8087 20.7302 73.8087C26.3702 73.8087 34.5702 73.1288 37.1802 72.7288C37.2102 72.7288 37.2502 72.7288 37.2802 72.7288L37.2602 72.7188Z" fill="url(#paint17_radial_2227_85863)"/>
<path d="M40.2102 64.3889C40.2102 64.3889 40.1802 64.3889 40.1602 64.3889H38.5002C38.3302 64.4389 38.2002 64.7589 38.2002 65.1289V70.1689C38.2002 70.2689 38.2002 70.3689 38.2302 70.4589L40.0102 84.4289C40.0402 84.5889 40.1102 84.6889 40.1902 84.6889C40.3002 84.6889 40.3902 84.4989 40.3902 84.2589L40.5602 65.1289C40.5602 64.9289 40.5202 64.7389 40.4602 64.5989C40.3902 64.4589 40.3102 64.3789 40.2102 64.3789V64.3889Z" fill="#F4F4F4"/>
<path opacity="0.5" d="M40.2102 64.3889C40.2102 64.3889 40.1802 64.3889 40.1602 64.3889H38.5002C38.3302 64.4389 38.2002 64.7589 38.2002 65.1289V70.1689C38.2002 70.2689 38.2002 70.3689 38.2302 70.4589L40.0102 84.4289C40.0402 84.5889 40.1102 84.6889 40.1902 84.6889C40.3002 84.6889 40.3902 84.4989 40.3902 84.2589L40.5602 65.1289C40.5602 64.9289 40.5202 64.7389 40.4602 64.5989C40.3902 64.4589 40.3102 64.3789 40.2102 64.3789V64.3889Z" fill="url(#paint18_linear_2227_85863)"/>
<path d="M40.1301 84.3307L38.3501 70.3607C38.3401 70.3007 38.3301 70.2407 38.3301 70.1807V65.1407C38.3301 64.9107 38.4101 64.7107 38.5201 64.6707H40.1801C40.3101 64.6407 40.4301 64.8607 40.4301 65.1407L40.2601 84.2707C40.2601 84.4307 40.1601 84.4707 40.1301 84.3307Z" fill="#010101"/>
<path d="M40.1902 64.957H38.5302C38.5302 64.957 38.4502 65.047 38.4502 65.137V70.177C38.4502 70.177 38.4502 70.227 38.4502 70.247L40.1102 83.587L40.2802 65.137C40.2802 65.087 40.2802 65.037 40.2502 65.007C40.2302 64.967 40.2102 64.957 40.1902 64.957Z" fill="#686C86"/>
<path opacity="0.2" d="M39.6504 65.127L40.2004 64.957H40.2104C40.2104 64.957 40.2604 64.977 40.2704 65.007C40.2904 65.047 40.3004 65.087 40.3004 65.137L40.1304 83.587L39.8504 77.217L39.6604 65.127H39.6504Z" fill="#010101"/>
<path opacity="0.5" d="M40.1902 64.957H38.5302C38.5302 64.957 38.4502 65.047 38.4502 65.137V70.177C38.4502 70.177 38.4502 70.227 38.4502 70.247L40.1102 83.587L40.2802 65.137C40.2802 65.087 40.2802 65.037 40.2502 65.007C40.2302 64.967 40.2102 64.957 40.1902 64.957Z" fill="url(#paint19_linear_2227_85863)"/>
<path style="mix-blend-mode:overlay" opacity="0.3" d="M40.1902 64.957H38.5302C38.5302 64.957 38.4502 65.047 38.4502 65.137V70.177C38.4502 70.177 38.4502 70.227 38.4502 70.247L40.1102 83.587L40.2802 65.137C40.2802 65.087 40.2802 65.037 40.2502 65.007C40.2302 64.967 40.2102 64.957 40.1902 64.957Z" fill="url(#paint20_linear_2227_85863)"/>
<path d="M4.04043 64.3889C4.04043 64.3889 4.07043 64.3889 4.09043 64.3889H5.75043C5.92043 64.4389 6.05043 64.7589 6.05043 65.1289V70.1689C6.05043 70.2689 6.05043 70.3689 6.02043 70.4589L4.24043 84.4289C4.21043 84.5889 4.14043 84.6889 4.06043 84.6889C3.95043 84.6889 3.86043 84.4989 3.86043 84.2589L3.69043 65.1289C3.69043 64.9289 3.73043 64.7389 3.79043 64.5989C3.86043 64.4589 3.94043 64.3789 4.04043 64.3789V64.3889Z" fill="#F4F4F4"/>
<path opacity="0.5" d="M4.04043 64.3889C4.04043 64.3889 4.07043 64.3889 4.09043 64.3889H5.75043C5.92043 64.4389 6.05043 64.7589 6.05043 65.1289V70.1689C6.05043 70.2689 6.05043 70.3689 6.02043 70.4589L4.24043 84.4289C4.21043 84.5889 4.14043 84.6889 4.06043 84.6889C3.95043 84.6889 3.86043 84.4989 3.86043 84.2589L3.69043 65.1289C3.69043 64.9289 3.73043 64.7389 3.79043 64.5989C3.86043 64.4589 3.94043 64.3789 4.04043 64.3789V64.3889Z" fill="url(#paint21_linear_2227_85863)"/>
<path d="M4.12031 84.3307L5.90031 70.3607C5.91031 70.3007 5.92031 70.2407 5.92031 70.1807V65.1407C5.92031 64.9107 5.84031 64.7107 5.73031 64.6707H4.07031C3.94031 64.6407 3.82031 64.8607 3.82031 65.1407L3.99031 84.2707C3.99031 84.4307 4.09031 84.4707 4.12031 84.3307Z" fill="#010101"/>
<path d="M4.06021 64.957H5.72021C5.72021 64.957 5.80022 65.047 5.80022 65.137V70.177C5.80022 70.177 5.80022 70.227 5.80022 70.247L4.14021 83.587L3.97021 65.137C3.97021 65.087 3.97021 65.037 4.00021 65.007C4.02021 64.967 4.04021 64.957 4.06021 64.957Z" fill="#686C86"/>
<path opacity="0.2" d="M4.6002 65.127L4.0502 64.957H4.0402C4.0402 64.957 3.9902 64.977 3.9802 65.007C3.9602 65.047 3.9502 65.087 3.9502 65.137L4.1202 83.587L4.4002 77.217L4.5902 65.127H4.6002Z" fill="#010101"/>
<path opacity="0.5" d="M4.06021 64.957H5.72021C5.72021 64.957 5.80022 65.047 5.80022 65.137V70.177C5.80022 70.177 5.80022 70.227 5.80022 70.247L4.14021 83.587L3.97021 65.137C3.97021 65.087 3.97021 65.037 4.00021 65.007C4.02021 64.967 4.04021 64.957 4.06021 64.957Z" fill="url(#paint22_linear_2227_85863)"/>
<path style="mix-blend-mode:overlay" opacity="0.3" d="M4.06021 64.957H5.72021C5.72021 64.957 5.80022 65.047 5.80022 65.137V70.177C5.80022 70.177 5.80022 70.227 5.80022 70.247L4.14021 83.587L3.97021 65.137C3.97021 65.087 3.97021 65.037 4.00021 65.007C4.02021 64.967 4.04021 64.957 4.06021 64.957Z" fill="url(#paint23_linear_2227_85863)"/>
<path d="M40.1897 82.2277L44.2097 80.5977V81.3877C44.2097 81.7577 43.9897 82.0977 43.6597 82.2277L40.1797 83.6377V82.2277H40.1897Z" fill="#989898"/>
<path opacity="0.4" d="M40.1897 82.13L44.2097 80.5V81.29C44.2097 81.66 43.9897 82 43.6597 82.13L40.1797 83.54V82.13H40.1897Z" fill="url(#paint24_linear_2227_85863)"/>
<path d="M41.3402 81.1192L43.8802 80.2492C44.0402 80.1892 44.2102 80.3192 44.2102 80.4992V81.4692L41.1602 82.5192V81.3692C41.1602 81.2492 41.2302 81.1492 41.3302 81.1192H41.3402Z" fill="#676767"/>
<path opacity="0.3" d="M41.3402 81.1192L43.8802 80.2492C44.0402 80.1892 44.2102 80.3192 44.2102 80.4992V81.4692L41.1602 82.5192V81.3692C41.1602 81.2492 41.2302 81.1492 41.3302 81.1192H41.3402Z" fill="url(#paint25_linear_2227_85863)"/>
<path d="M4.02 82.2277L0 80.5977V81.3877C0 81.7577 0.22 82.0977 0.55 82.2277L4.03 83.6377V82.2277H4.02Z" fill="#989898"/>
<path opacity="0.4" d="M4.02 82.13L0 80.5V81.29C0 81.66 0.22 82 0.55 82.13L4.03 83.54V82.13H4.02Z" fill="url(#paint26_linear_2227_85863)"/>
<path d="M2.87 81.1192L0.33 80.2492C0.17 80.1892 0 80.3192 0 80.4992V81.4692L3.05 82.5192V81.3692C3.05 81.2492 2.98 81.1492 2.88 81.1192H2.87Z" fill="#676767"/>
<path opacity="0.3" d="M2.87 81.1192L0.33 80.2492C0.17 80.1892 0 80.3192 0 80.4992V81.4692L3.05 82.5192V81.3692C3.05 81.2492 2.98 81.1492 2.88 81.1192H2.87Z" fill="url(#paint27_linear_2227_85863)"/>
<path d="M11.5704 65.8711H32.7704C33.4104 65.8711 33.9404 66.4211 33.9404 67.1011V68.4111C33.9404 69.0911 33.4204 69.6411 32.7704 69.6411H11.5704C10.9304 69.6411 10.4004 69.0911 10.4004 68.4111V67.1011C10.4004 66.4211 10.9204 65.8711 11.5704 65.8711Z" fill="#989898"/>
<path d="M11.5704 69.6311H19.5504V65.8711H11.5704C10.9304 65.8711 10.4004 66.4211 10.4004 67.1011V68.4111C10.4004 69.0911 10.9204 69.6411 11.5704 69.6411V69.6311Z" fill="#ED2224"/>
<path opacity="0.5" d="M18.7103 66.7617V68.7317H11.5803C11.4103 68.7317 11.2603 68.5817 11.2603 68.4017V67.0917C11.2603 66.9117 11.4003 66.7617 11.5803 66.7617H18.7103Z" fill="#640E0E"/>
<path d="M32.7808 69.6311H24.8008V65.8711H32.7808C33.4208 65.8711 33.9508 66.4211 33.9508 67.1011V68.4111C33.9508 69.0911 33.4308 69.6411 32.7808 69.6411V69.6311Z" fill="#CB2026"/>
<path opacity="0.3" d="M32.7804 66.7617C32.9504 66.7617 33.1004 66.9117 33.1004 67.0917V68.4017C33.1004 68.5817 32.9604 68.7317 32.7804 68.7317H25.6504V66.7617H32.7804Z" fill="#640E0E"/>
<path style="mix-blend-mode:overlay" opacity="0.5" d="M11.5704 65.8711H32.7704C33.4104 65.8711 33.9404 66.4211 33.9404 67.1011V68.4111C33.9404 69.0911 33.4204 69.6411 32.7704 69.6411H11.5704C10.9304 69.6411 10.4004 69.0911 10.4004 68.4111V67.1011C10.4004 66.4211 10.9204 65.8711 11.5704 65.8711Z" fill="url(#paint28_radial_2227_85863)"/>
<path opacity="0.5" d="M11.5704 65.8711H32.7704C33.4104 65.8711 33.9404 66.4211 33.9404 67.1011V68.4111C33.9404 69.0911 33.4204 69.6411 32.7704 69.6411H11.5704C10.9304 69.6411 10.4004 69.0911 10.4004 68.4111V67.1011C10.4004 66.4211 10.9204 65.8711 11.5704 65.8711Z" fill="url(#paint29_linear_2227_85863)"/>
<g style="mix-blend-mode:overlay">
<path d="M12.0004 69.3122H32.3504C32.9704 69.3122 33.4704 68.8322 33.4704 68.2322V67.7422C33.4704 68.3322 32.9704 68.8222 32.3504 68.8222H12.0004C11.3804 68.8222 10.8804 68.3422 10.8804 67.7422V68.2322C10.8804 68.8222 11.3804 69.3122 12.0004 69.3122Z" fill="url(#paint30_linear_2227_85863)"/>
</g>
<path style="mix-blend-mode:overlay" d="M12.0004 66.1797H32.3504C32.9704 66.1797 33.4704 66.6597 33.4704 67.2597V67.7497C33.4704 67.1597 32.9704 66.6697 32.3504 66.6697H12.0004C11.3804 66.6697 10.8804 67.1497 10.8804 67.7497V67.2597C10.8804 66.6697 11.3804 66.1797 12.0004 66.1797Z" fill="url(#paint31_linear_2227_85863)"/>
<path opacity="0.4" d="M33.4308 69.4214L33.1408 69.0514C33.0408 68.9214 32.9808 68.6814 32.9808 68.4214V67.0714C32.9808 66.8114 33.0408 66.5714 33.1408 66.4414L33.4308 66.0714C33.3508 66.0114 33.2608 65.9714 33.1708 65.9414L32.9708 66.1914C32.8608 66.3214 32.8008 66.5814 32.8008 66.8514V68.6314C32.8008 68.9014 32.8708 69.1514 32.9708 69.2914L33.1708 69.5514C33.2608 69.5214 33.3508 69.4714 33.4308 69.4214Z" fill="white"/>
<path opacity="0.4" d="M10.9404 69.4214L11.2304 69.0514C11.3304 68.9214 11.3904 68.6814 11.3904 68.4214V67.0714C11.3904 66.8114 11.3304 66.5714 11.2304 66.4414L10.9404 66.0714C11.0204 66.0114 11.1104 65.9714 11.2004 65.9414L11.4004 66.1914C11.5104 66.3214 11.5704 66.5814 11.5704 66.8514V68.6314C11.5704 68.9014 11.5004 69.1514 11.4004 69.2914L11.2004 69.5514C11.1104 69.5214 11.0204 69.4714 10.9404 69.4214Z" fill="white"/>
<g style="mix-blend-mode:overlay" opacity="0.4">
<path d="M32.2504 67.6602H12.1104V67.8402H32.2504V67.6602Z" fill="#010101"/>
</g>
<path d="M1.95031 0.949219H42.4003C42.8803 0.949219 43.2803 1.35922 43.2803 1.86922V62.6992C43.2803 63.2092 42.8903 63.6192 42.4003 63.6192H1.95031C1.47031 63.6192 1.07031 63.2092 1.07031 62.6992V1.86922C1.07031 1.35922 1.46031 0.949219 1.95031 0.949219Z" fill="#CB3827"/>
<path d="M42.3999 1.58031C42.5599 1.58031 42.6799 1.71031 42.6799 1.88031V62.7103C42.6799 62.8703 42.5499 63.0103 42.3999 63.0103H1.94992C1.78992 63.0103 1.66992 62.8803 1.66992 62.7103V1.87031C1.66992 1.71031 1.79992 1.57031 1.94992 1.57031H42.3999V1.58031Z" fill="#F6F8EB"/>
<path d="M42.3999 1.58031C42.5599 1.58031 42.6799 1.71031 42.6799 1.88031V62.7103C42.6799 62.8703 42.5499 63.0103 42.3999 63.0103H1.94992C1.78992 63.0103 1.66992 62.8803 1.66992 62.7103V1.87031C1.66992 1.71031 1.79992 1.57031 1.94992 1.57031H42.3999V1.58031Z" fill="url(#paint32_radial_2227_85863)"/>
<path opacity="0.2" d="M42.3999 1.58031C42.5599 1.58031 42.6799 1.71031 42.6799 1.88031V62.7103C42.6799 62.8703 42.5499 63.0103 42.3999 63.0103H1.94992C1.78992 63.0103 1.66992 62.8803 1.66992 62.7103V1.87031C1.66992 1.71031 1.79992 1.57031 1.94992 1.57031H42.3999V1.58031Z" fill="url(#paint33_radial_2227_85863)"/>
<path d="M1.06982 60.2517H0.989824C0.529824 60.2517 0.159824 59.8817 0.159824 59.4217L0.159824 56.7817C0.159824 56.3217 0.529824 55.9517 0.989824 55.9517H1.06982L1.06982 60.2617V60.2517Z" fill="#ED1C24"/>
<path opacity="0.4" d="M0.97002 56.4297V59.7697C0.58002 59.7697 0.27002 59.4397 0.27002 59.0297V57.1697C0.27002 56.7597 0.58002 56.4297 0.97002 56.4297Z" fill="#640E0E"/>
<path d="M1.02021 59.9792V59.9592C0.660215 59.8792 0.400215 59.5392 0.400215 59.1392V57.0392C0.400215 56.6392 0.670215 56.3092 1.02021 56.2192V56.1992C0.580215 56.1992 0.220215 56.5792 0.220215 57.0392V59.1392C0.220215 59.5992 0.580215 59.9792 1.02021 59.9792Z" fill="url(#paint34_linear_2227_85863)"/>
<path opacity="0.6" d="M0.63 57.3714C0.63 57.7714 0.63 58.1714 0.63 58.5714C0.63 58.7514 0.61 58.9414 0.65 59.1114C0.66 59.1814 0.69 59.3214 0.78 59.3214C0.87 59.3214 0.88 59.2114 0.88 59.1414C0.88 58.9414 0.89 56.6914 0.86 56.6914C0.78 56.6914 0.71 56.7614 0.68 56.8414C0.65 56.9214 0.65 57.0114 0.65 57.0914C0.65 57.1814 0.65 57.2714 0.65 57.3614L0.63 57.3714Z" fill="url(#paint35_linear_2227_85863)"/>
<path d="M1.06982 43.1306H0.989824C0.529824 43.1306 0.159824 42.7606 0.159824 42.3006L0.159824 39.6606C0.159824 39.2006 0.529824 38.8306 0.989824 38.8306H1.06982L1.06982 43.1406V43.1306Z" fill="#ED1C24"/>
<path opacity="0.4" d="M0.97002 39.3086V42.6486C0.58002 42.6486 0.27002 42.3186 0.27002 41.9086V40.0486C0.27002 39.6386 0.58002 39.3086 0.97002 39.3086Z" fill="#640E0E"/>
<path d="M1.02021 42.8581V42.8381C0.660215 42.7581 0.400215 42.4181 0.400215 42.0181V39.9181C0.400215 39.5181 0.670215 39.1881 1.02021 39.0981V39.0781C0.580215 39.0781 0.220215 39.4581 0.220215 39.9181V42.0181C0.220215 42.4781 0.580215 42.8581 1.02021 42.8581Z" fill="url(#paint36_linear_2227_85863)"/>
<path opacity="0.6" d="M0.63 40.2503C0.63 40.6503 0.63 41.0503 0.63 41.4503C0.63 41.6303 0.61 41.8203 0.65 41.9903C0.66 42.0603 0.69 42.2003 0.78 42.2003C0.87 42.2003 0.88 42.0903 0.88 42.0203C0.88 41.8203 0.89 39.5703 0.86 39.5703C0.78 39.5703 0.71 39.6403 0.68 39.7203C0.65 39.8003 0.65 39.8903 0.65 39.9703C0.65 40.0603 0.65 40.1503 0.65 40.2403L0.63 40.2503Z" fill="url(#paint37_linear_2227_85863)"/>
<path d="M1.06982 26.0095H0.989824C0.529824 26.0095 0.159824 25.6395 0.159824 25.1795L0.159824 22.5395C0.159824 22.0795 0.529824 21.7095 0.989824 21.7095H1.06982L1.06982 26.0195V26.0095Z" fill="#ED1C24"/>
<path opacity="0.4" d="M0.97002 22.1875V25.5275C0.58002 25.5275 0.27002 25.1975 0.27002 24.7875V22.9275C0.27002 22.5175 0.58002 22.1875 0.97002 22.1875Z" fill="#640E0E"/>
<path d="M1.02021 25.7487V25.7287C0.660215 25.6487 0.400215 25.3087 0.400215 24.9087V22.8088C0.400215 22.4088 0.670215 22.0788 1.02021 21.9888V21.9688C0.580215 21.9688 0.220215 22.3488 0.220215 22.8088V24.9087C0.220215 25.3687 0.580215 25.7487 1.02021 25.7487Z" fill="url(#paint38_linear_2227_85863)"/>
<path opacity="0.6" d="M0.63 23.1292C0.63 23.5292 0.63 23.9292 0.63 24.3292C0.63 24.5092 0.61 24.6992 0.65 24.8692C0.66 24.9392 0.69 25.0792 0.78 25.0792C0.87 25.0792 0.88 24.9692 0.88 24.8992C0.88 24.6992 0.89 22.4492 0.86 22.4492C0.78 22.4492 0.71 22.5192 0.68 22.5992C0.65 22.6792 0.65 22.7692 0.65 22.8492C0.65 22.9392 0.65 23.0292 0.65 23.1192L0.63 23.1292Z" fill="url(#paint39_linear_2227_85863)"/>
<path d="M1.06982 8.89235H0.989824C0.529824 8.89235 0.159824 8.52234 0.159824 8.06234L0.159824 5.42234C0.159824 4.96234 0.529824 4.59235 0.989824 4.59235H1.06982L1.06982 8.90234V8.89235Z" fill="#ED1C24"/>
<path opacity="0.4" d="M0.97002 5.07031V8.41031C0.58002 8.41031 0.27002 8.08031 0.27002 7.67031V5.81031C0.27002 5.40031 0.58002 5.07031 0.97002 5.07031Z" fill="#640E0E"/>
<path d="M1.02021 8.63156V8.61156C0.660215 8.53156 0.400215 8.19156 0.400215 7.79156V5.69156C0.400215 5.29156 0.670215 4.96156 1.02021 4.87156V4.85156C0.580215 4.85156 0.220215 5.23156 0.220215 5.69156V7.79156C0.220215 8.25156 0.580215 8.63156 1.02021 8.63156Z" fill="url(#paint40_linear_2227_85863)"/>
<path opacity="0.6" d="M0.63 6.01203C0.63 6.41203 0.63 6.81203 0.63 7.21203C0.63 7.39203 0.61 7.58203 0.65 7.75203C0.66 7.82203 0.69 7.96203 0.78 7.96203C0.87 7.96203 0.88 7.85203 0.88 7.78203C0.88 7.58203 0.89 5.33203 0.86 5.33203C0.78 5.33203 0.71 5.40203 0.68 5.48203C0.65 5.56203 0.65 5.65203 0.65 5.73203C0.65 5.82203 0.65 5.91203 0.65 6.00203L0.63 6.01203Z" fill="url(#paint41_linear_2227_85863)"/>
<path d="M43.2803 55.9397H43.3603C43.8203 55.9397 44.1903 56.3097 44.1903 56.7697V59.4097C44.1903 59.8697 43.8203 60.2397 43.3603 60.2397H43.2803V55.9297V55.9397Z" fill="#ED1C24"/>
<path opacity="0.4" d="M43.3799 56.4297V59.7697C43.7699 59.7697 44.0799 59.4397 44.0799 59.0297V57.1697C44.0799 56.7597 43.7699 56.4297 43.3799 56.4297Z" fill="#640E0E"/>
<path d="M43.3301 59.9792V59.9592C43.6901 59.8792 43.9501 59.5392 43.9501 59.1392V57.0392C43.9501 56.6392 43.6801 56.3092 43.3301 56.2192V56.1992C43.7701 56.1992 44.1301 56.5792 44.1301 57.0392V59.1392C44.1301 59.5992 43.7701 59.9792 43.3301 59.9792Z" fill="url(#paint42_linear_2227_85863)"/>
<path opacity="0.6" d="M43.7203 57.3714C43.7203 57.7714 43.7203 58.1714 43.7203 58.5714C43.7203 58.7514 43.7403 58.9414 43.7003 59.1114C43.6903 59.1814 43.6603 59.3214 43.5703 59.3214C43.4803 59.3214 43.4703 59.2114 43.4703 59.1414C43.4703 58.9414 43.4604 56.6914 43.4904 56.6914C43.5704 56.6914 43.6403 56.7614 43.6703 56.8414C43.7003 56.9214 43.7003 57.0114 43.7003 57.0914C43.7003 57.1814 43.7003 57.2714 43.7003 57.3614L43.7203 57.3714Z" fill="url(#paint43_linear_2227_85863)"/>
<path d="M43.2803 38.8186H43.3603C43.8203 38.8186 44.1903 39.1886 44.1903 39.6486V42.2886C44.1903 42.7486 43.8203 43.1186 43.3603 43.1186H43.2803V38.8086V38.8186Z" fill="#ED1C24"/>
<path opacity="0.4" d="M43.3799 39.3086V42.6486C43.7699 42.6486 44.0799 42.3186 44.0799 41.9086V40.0486C44.0799 39.6386 43.7699 39.3086 43.3799 39.3086Z" fill="#640E0E"/>
<path d="M43.3301 42.8581V42.8381C43.6901 42.7581 43.9501 42.4181 43.9501 42.0181V39.9181C43.9501 39.5181 43.6801 39.1881 43.3301 39.0981V39.0781C43.7701 39.0781 44.1301 39.4581 44.1301 39.9181V42.0181C44.1301 42.4781 43.7701 42.8581 43.3301 42.8581Z" fill="url(#paint44_linear_2227_85863)"/>
<path opacity="0.6" d="M43.7203 40.2503C43.7203 40.6503 43.7203 41.0503 43.7203 41.4503C43.7203 41.6303 43.7403 41.8203 43.7003 41.9903C43.6903 42.0603 43.6603 42.2003 43.5703 42.2003C43.4803 42.2003 43.4703 42.0903 43.4703 42.0203C43.4703 41.8203 43.4604 39.5703 43.4904 39.5703C43.5704 39.5703 43.6403 39.6403 43.6703 39.7203C43.7003 39.8003 43.7003 39.8903 43.7003 39.9703C43.7003 40.0603 43.7003 40.1503 43.7003 40.2403L43.7203 40.2503Z" fill="url(#paint45_linear_2227_85863)"/>
<path d="M43.2803 21.7092H43.3603C43.8203 21.7092 44.1903 22.0792 44.1903 22.5392V25.1792C44.1903 25.6392 43.8203 26.0092 43.3603 26.0092H43.2803V21.6992V21.7092Z" fill="#ED1C24"/>
<path opacity="0.4" d="M43.3799 22.1875V25.5275C43.7699 25.5275 44.0799 25.1975 44.0799 24.7875V22.9275C44.0799 22.5175 43.7699 22.1875 43.3799 22.1875Z" fill="#640E0E"/>
<path d="M43.3301 25.7487V25.7287C43.6901 25.6487 43.9501 25.3087 43.9501 24.9087V22.8088C43.9501 22.4088 43.6801 22.0788 43.3301 21.9888V21.9688C43.7701 21.9688 44.1301 22.3488 44.1301 22.8088V24.9087C44.1301 25.3687 43.7701 25.7487 43.3301 25.7487Z" fill="url(#paint46_linear_2227_85863)"/>
<path opacity="0.6" d="M43.7203 23.1292C43.7203 23.5292 43.7203 23.9292 43.7203 24.3292C43.7203 24.5092 43.7403 24.6992 43.7003 24.8692C43.6903 24.9392 43.6603 25.0792 43.5703 25.0792C43.4803 25.0792 43.4703 24.9692 43.4703 24.8992C43.4703 24.6992 43.4604 22.4492 43.4904 22.4492C43.5704 22.4492 43.6403 22.5192 43.6703 22.5992C43.7003 22.6792 43.7003 22.7692 43.7003 22.8492C43.7003 22.9392 43.7003 23.0292 43.7003 23.1192L43.7203 23.1292Z" fill="url(#paint47_linear_2227_85863)"/>
<path d="M43.2803 4.58812H43.3603C43.8203 4.58812 44.1903 4.95813 44.1903 5.41813V8.05812C44.1903 8.51812 43.8203 8.88812 43.3603 8.88812H43.2803V4.57812V4.58812Z" fill="#ED1C24"/>
<path opacity="0.4" d="M43.3799 5.06641V8.40641C43.7699 8.40641 44.0799 8.07641 44.0799 7.66641V5.80641C44.0799 5.39641 43.7699 5.06641 43.3799 5.06641Z" fill="#640E0E"/>
<path d="M43.3301 8.62766V8.60765C43.6901 8.52765 43.9501 8.18765 43.9501 7.78765V5.68766C43.9501 5.28766 43.6801 4.95766 43.3301 4.86766V4.84766C43.7701 4.84766 44.1301 5.22766 44.1301 5.68766V7.78765C44.1301 8.24765 43.7701 8.62766 43.3301 8.62766Z" fill="url(#paint48_linear_2227_85863)"/>
<path opacity="0.6" d="M43.7203 6.00813C43.7203 6.40813 43.7203 6.80812 43.7203 7.20812C43.7203 7.38812 43.7403 7.57812 43.7003 7.74812C43.6903 7.81812 43.6603 7.95812 43.5703 7.95812C43.4803 7.95812 43.4703 7.84813 43.4703 7.77813C43.4703 7.57813 43.4604 5.32812 43.4904 5.32812C43.5704 5.32812 43.6403 5.39812 43.6703 5.47812C43.7003 5.55812 43.7003 5.64812 43.7003 5.72812C43.7003 5.81812 43.7003 5.90812 43.7003 5.99812L43.7203 6.00813Z" fill="url(#paint49_linear_2227_85863)"/>
<path d="M36.8 0.949219V0.839218C36.8 0.369218 37.18 -0.000782013 37.64 -0.000782013L40.04 -0.000782013C40.51 -0.000782013 40.88 0.379218 40.88 0.839218V0.949219L36.79 0.949219H36.8Z" fill="#ED1C24"/>
<path opacity="0.4" d="M37.2598 0.841562H40.4298C40.4298 0.431562 40.1198 0.101562 39.7298 0.101562H37.9698C37.5798 0.101562 37.2698 0.431562 37.2698 0.841562H37.2598Z" fill="#640E0E"/>
<path d="M40.63 0.890781H40.61C40.53 0.510781 40.21 0.230782 39.83 0.230782H37.84C37.46 0.230782 37.14 0.510781 37.06 0.890781H37.04C37.04 0.430781 37.4 0.0507812 37.84 0.0507812H39.83C40.27 0.0507812 40.63 0.430781 40.63 0.890781Z" fill="url(#paint50_linear_2227_85863)"/>
<path opacity="0.6" d="M38.1498 0.481563C38.5298 0.481563 38.9098 0.481563 39.2898 0.481563C39.4598 0.481563 39.6398 0.461562 39.8098 0.501562C39.8798 0.511562 40.0098 0.541563 40.0098 0.641563C40.0098 0.731563 39.9098 0.751562 39.8398 0.751562C39.6498 0.751562 37.5098 0.761563 37.5098 0.731563C37.5098 0.641563 37.5798 0.571563 37.6498 0.541563C37.7298 0.511563 37.8098 0.511562 37.8898 0.511562C37.9698 0.511562 38.0598 0.511562 38.1398 0.511562L38.1498 0.481563Z" fill="url(#paint51_linear_2227_85863)"/>
<path d="M4.30004 0.949219V0.839219C4.30004 0.369219 4.68004 -0.000781059 5.14004 -0.000781059L7.54004 -0.000781059C8.01004 -0.000781059 8.38004 0.379219 8.38004 0.839219V0.949219L4.29004 0.949219H4.30004Z" fill="#ED1C24"/>
<path opacity="0.4" d="M4.76025 0.841562H7.93025C7.93025 0.431562 7.62025 0.101562 7.23025 0.101562H5.47025C5.08025 0.101562 4.77025 0.431562 4.77025 0.841562H4.76025Z" fill="#640E0E"/>
<path d="M8.13004 0.890781H8.11004C8.03004 0.510781 7.71004 0.230782 7.33004 0.230782H5.34004C4.96004 0.230782 4.64004 0.510781 4.56004 0.890781H4.54004C4.54004 0.430781 4.90004 0.0507812 5.34004 0.0507812H7.33004C7.77004 0.0507812 8.13004 0.430781 8.13004 0.890781Z" fill="url(#paint52_linear_2227_85863)"/>
<path opacity="0.6" d="M5.65025 0.481563C6.03025 0.481563 6.41025 0.481563 6.79025 0.481563C6.96025 0.481563 7.14025 0.461562 7.31025 0.501562C7.38025 0.511562 7.51025 0.541563 7.51025 0.641563C7.51025 0.731563 7.41025 0.751562 7.34025 0.751562C7.15025 0.751562 5.01025 0.761563 5.01025 0.731563C5.01025 0.641563 5.08025 0.571563 5.15025 0.541563C5.23025 0.511563 5.31025 0.511562 5.39025 0.511562C5.47025 0.511562 5.56025 0.511562 5.64025 0.511562L5.65025 0.481563Z" fill="url(#paint53_linear_2227_85863)"/>
<path d="M21.0603 19.3683C25.357 19.3683 28.8403 15.7015 28.8403 11.1783C28.8403 6.65507 25.357 2.98828 21.0603 2.98828C16.7635 2.98828 13.2803 6.65507 13.2803 11.1783C13.2803 15.7015 16.7635 19.3683 21.0603 19.3683Z" fill="#CB3827"/>
<path d="M22.6702 16.4798V13.1498C22.6702 12.9998 22.7902 12.8698 22.9402 12.8698H26.1002C26.2502 12.8698 26.3702 12.7398 26.3702 12.5898V9.75985C26.3702 9.60985 26.2502 9.47984 26.1002 9.47984H22.9402C22.7902 9.47984 22.6702 9.34984 22.6702 9.19984V5.86985C22.6702 5.71985 22.5502 5.58984 22.4002 5.58984H19.7102C19.5602 5.58984 19.4402 5.71985 19.4402 5.86985V9.19984C19.4402 9.34984 19.3202 9.47984 19.1702 9.47984H16.0102C15.8602 9.47984 15.7402 9.60985 15.7402 9.75985V12.5898C15.7402 12.7398 15.8602 12.8698 16.0102 12.8698H19.1702C19.3202 12.8698 19.4402 12.9998 19.4402 13.1498V16.4798C19.4402 16.6298 19.5602 16.7598 19.7102 16.7598H22.4002C22.5502 16.7598 22.6702 16.6298 22.6702 16.4798Z" fill="#F6F8EB"/>
<path d="M9.38012 0.949219L35.8701 0.949219V0.109219L9.38012 0.109219V0.949219Z" fill="#F6F8EB"/>
<path opacity="0.5" d="M9.38012 0.949219L35.8701 0.949219V0.109219L9.38012 0.109219V0.949219Z" fill="url(#paint54_linear_2227_85863)"/>
<path opacity="0.5" d="M22.5205 0.949219H22.7305V0.109219H22.5205V0.949219Z" fill="#676767"/>
<path d="M23.4202 0.399376H35.2802C35.4202 0.399376 35.5402 0.279375 35.5402 0.129375V0.109375H23.1602V0.129375C23.1602 0.279375 23.2802 0.399376 23.4202 0.399376Z" fill="#ADD4F1"/>
<path d="M23.4202 0.399376H35.2802C35.4202 0.399376 35.5402 0.279375 35.5402 0.129375V0.109375H35.5102C35.4702 0.199375 35.3802 0.259375 35.2802 0.259375H23.4202C23.3202 0.259375 23.2402 0.199375 23.1902 0.109375H23.1602V0.129375C23.1602 0.279375 23.2802 0.399376 23.4202 0.399376Z" fill="white"/>
<path d="M9.96996 0.399376H21.83C21.97 0.399376 22.09 0.279375 22.09 0.129375V0.109375H9.70996V0.129375C9.70996 0.279375 9.82996 0.399376 9.96996 0.399376Z" fill="#ADD4F1"/>
<path d="M9.96996 0.399376H21.83C21.97 0.399376 22.09 0.279375 22.09 0.129375V0.109375H22.06C22.02 0.199375 21.93 0.259375 21.83 0.259375H9.96996C9.86996 0.259375 9.78996 0.199375 9.73996 0.109375H9.70996V0.129375C9.70996 0.279375 9.82996 0.399376 9.96996 0.399376Z" fill="white"/>
<path d="M1.06957 63V78.35C1.06957 78.8 1.23957 79.24 1.53957 79.56L2.95957 81.06V63.01H1.05957L1.06957 63Z" fill="#CCCCCC"/>
<path d="M1.36963 63.3086H2.66963V80.2986L1.75963 79.3386C1.50963 79.0786 1.36963 78.7286 1.36963 78.3486V63.3086Z" fill="url(#paint55_linear_2227_85863)"/>
<path opacity="0.5" d="M1.06957 63V78.35C1.06957 78.8 1.23957 79.24 1.53957 79.56L2.95957 81.06V63.01H1.05957L1.06957 63Z" fill="url(#paint56_linear_2227_85863)"/>
<path opacity="0.4" d="M1.06957 63V78.35C1.06957 78.8 1.23957 79.24 1.53957 79.56L2.95957 81.06V63.01H1.05957L1.06957 63Z" fill="url(#paint57_linear_2227_85863)"/>
<mask id="mask1_2227_85863" style="mask-type:luminance" maskUnits="userSpaceOnUse" x="1" y="63" width="2" height="18">
<path d="M1.36963 63.3086H2.66963V80.2986L1.75963 79.3386C1.50963 79.0786 1.36963 78.7286 1.36963 78.3486V63.3086Z" fill="white"/>
</mask>
<g mask="url(#mask1_2227_85863)">
<path d="M2.3799 63.4373C2.2699 63.5073 2.1499 63.5173 2.1499 63.5173C2.1499 63.5173 2.2199 63.4173 2.3299 63.3573C2.4399 63.2973 2.5599 63.2773 2.5599 63.2773C2.5599 63.2773 2.4899 63.3773 2.3799 63.4373Z" fill="#989898"/>
<path d="M1.48977 63.9764C1.37977 64.0464 1.25977 64.0564 1.25977 64.0564C1.25977 64.0564 1.32977 63.9564 1.43977 63.8964C1.54977 63.8264 1.66977 63.8164 1.66977 63.8164C1.66977 63.8164 1.59977 63.9164 1.48977 63.9764Z" fill="#989898"/>
<path d="M1.9498 63.647C2.0098 63.767 2.0198 63.887 2.0198 63.887C2.0198 63.887 1.9298 63.817 1.8698 63.697C1.8098 63.577 1.7998 63.457 1.7998 63.457C1.7998 63.457 1.8898 63.527 1.9498 63.647Z" fill="#989898"/>
<path d="M2.50986 63.9791C2.56986 64.0991 2.57986 64.2191 2.57986 64.2191C2.57986 64.2191 2.48986 64.1491 2.42986 64.0291C2.36986 63.9091 2.35986 63.7891 2.35986 63.7891C2.35986 63.7891 2.44986 63.8591 2.50986 63.9791Z" fill="#989898"/>
<path d="M1.61973 64.5181C1.67973 64.6381 1.68973 64.7581 1.68973 64.7581C1.68973 64.7581 1.59973 64.6881 1.53973 64.5681C1.47973 64.4481 1.46973 64.3281 1.46973 64.3281C1.46973 64.3281 1.55973 64.3981 1.61973 64.5181Z" fill="#989898"/>
<path d="M1.99982 64.2402C2.10982 64.1702 2.22982 64.1602 2.22982 64.1602C2.22982 64.1602 2.15982 64.2602 2.04982 64.3202C1.93982 64.3902 1.81982 64.4002 1.81982 64.4002C1.81982 64.4002 1.88982 64.3002 1.99982 64.2402Z" fill="#989898"/>
<path d="M2.67971 64.7069C2.56971 64.7769 2.44971 64.7869 2.44971 64.7869C2.44971 64.7869 2.51971 64.6869 2.62971 64.6269C2.73971 64.5569 2.85971 64.5469 2.85971 64.5469C2.85971 64.5469 2.78971 64.6469 2.67971 64.7069Z" fill="#989898"/>
<path d="M1.78957 65.2459C1.67957 65.3159 1.55957 65.3259 1.55957 65.3259C1.55957 65.3259 1.62957 65.2259 1.73957 65.1659C1.84957 65.0959 1.96957 65.0859 1.96957 65.0859C1.96957 65.0859 1.89957 65.1859 1.78957 65.2459Z" fill="#989898"/>
<path d="M2.24961 64.9166C2.30961 65.0366 2.31961 65.1566 2.31961 65.1566C2.31961 65.1566 2.22961 65.0866 2.16961 64.9666C2.10961 64.8466 2.09961 64.7266 2.09961 64.7266C2.09961 64.7266 2.18961 64.7966 2.24961 64.9166Z" fill="#989898"/>
<path d="M2.80967 65.2486C2.86967 65.3686 2.87967 65.4886 2.87967 65.4886C2.87967 65.4886 2.78967 65.4186 2.72967 65.2986C2.66967 65.1786 2.65967 65.0586 2.65967 65.0586C2.65967 65.0586 2.74967 65.1286 2.80967 65.2486Z" fill="#989898"/>
<path d="M1.91953 65.7877C1.97953 65.9077 1.98953 66.0277 1.98953 66.0277C1.98953 66.0277 1.89953 65.9577 1.83953 65.8377C1.77953 65.7177 1.76953 65.5977 1.76953 65.5977C1.76953 65.5977 1.85953 65.6677 1.91953 65.7877Z" fill="#989898"/>
<path d="M2.29963 65.498C2.40963 65.428 2.52963 65.418 2.52963 65.418C2.52963 65.418 2.45963 65.518 2.34963 65.578C2.23963 65.648 2.11963 65.658 2.11963 65.658C2.11963 65.658 2.18963 65.558 2.29963 65.498Z" fill="#989898"/>
<path d="M1.43977 65.9902C1.54977 65.9202 1.66977 65.9102 1.66977 65.9102C1.66977 65.9102 1.59977 66.0102 1.48977 66.0702C1.37977 66.1402 1.25977 66.1502 1.25977 66.1502C1.25977 66.1502 1.32977 66.0502 1.43977 65.9902Z" fill="#989898"/>
<path d="M2.58994 66.0884C2.64994 66.2084 2.65994 66.3284 2.65994 66.3284C2.65994 66.3284 2.56994 66.2584 2.50994 66.1384C2.44994 66.0184 2.43994 65.8984 2.43994 65.8984C2.43994 65.8984 2.52994 65.9684 2.58994 66.0884Z" fill="#989898"/>
<path d="M1.6998 66.6275C1.7598 66.7475 1.7698 66.8675 1.7698 66.8675C1.7698 66.8675 1.6798 66.7975 1.6198 66.6775C1.5598 66.5575 1.5498 66.4375 1.5498 66.4375C1.5498 66.4375 1.6398 66.5075 1.6998 66.6275Z" fill="#989898"/>
<path d="M2.0799 66.3495C2.1899 66.2795 2.3099 66.2695 2.3099 66.2695C2.3099 66.2695 2.2399 66.3695 2.1299 66.4295C2.0199 66.4995 1.8999 66.5095 1.8999 66.5095C1.8999 66.5095 1.9699 66.4095 2.0799 66.3495Z" fill="#989898"/>
<path d="M2.75979 66.8202C2.64979 66.8902 2.52979 66.9002 2.52979 66.9002C2.52979 66.9002 2.59979 66.8002 2.70979 66.7402C2.81979 66.6702 2.93979 66.6602 2.93979 66.6602C2.93979 66.6602 2.86979 66.7602 2.75979 66.8202Z" fill="#989898"/>
<path d="M1.86965 67.3592C1.75965 67.4292 1.63965 67.4392 1.63965 67.4392C1.63965 67.4392 1.70965 67.3392 1.81965 67.2792C1.92965 67.2092 2.04965 67.1992 2.04965 67.1992C2.04965 67.1992 1.97965 67.2992 1.86965 67.3592Z" fill="#989898"/>
<path d="M2.32969 67.0298C2.38969 67.1498 2.39969 67.2698 2.39969 67.2698C2.39969 67.2698 2.30969 67.1998 2.24969 67.0798C2.18969 66.9598 2.17969 66.8398 2.17969 66.8398C2.17969 66.8398 2.26969 66.9098 2.32969 67.0298Z" fill="#989898"/>
<path d="M1.99961 67.9009C2.05961 68.0209 2.06961 68.1409 2.06961 68.1409C2.06961 68.1409 1.97961 68.0709 1.91961 67.9509C1.85961 67.8309 1.84961 67.7109 1.84961 67.7109C1.84961 67.7109 1.93961 67.7809 1.99961 67.9009Z" fill="#989898"/>
<path d="M2.37971 67.6113C2.48971 67.5413 2.60971 67.5312 2.60971 67.5312C2.60971 67.5312 2.53971 67.6313 2.42971 67.6913C2.31971 67.7613 2.19971 67.7713 2.19971 67.7713C2.19971 67.7713 2.26971 67.6713 2.37971 67.6113Z" fill="#989898"/>
<path d="M1.51984 68.0917C1.62984 68.0217 1.74984 68.0117 1.74984 68.0117C1.74984 68.0117 1.67984 68.1117 1.56984 68.1717C1.45984 68.2417 1.33984 68.2517 1.33984 68.2517C1.33984 68.2517 1.40984 68.1517 1.51984 68.0917Z" fill="#989898"/>
<path d="M2.58994 68.2056C2.64994 68.3256 2.65994 68.4456 2.65994 68.4456C2.65994 68.4456 2.56994 68.3756 2.50994 68.2556C2.44994 68.1356 2.43994 68.0156 2.43994 68.0156C2.43994 68.0156 2.52994 68.0856 2.58994 68.2056Z" fill="#989898"/>
<path d="M1.6998 68.7447C1.7598 68.8647 1.7698 68.9847 1.7698 68.9847C1.7698 68.9847 1.6798 68.9147 1.6198 68.7947C1.5598 68.6747 1.5498 68.5547 1.5498 68.5547C1.5498 68.5547 1.6398 68.6247 1.6998 68.7447Z" fill="#989898"/>
<path d="M2.0799 68.455C2.1899 68.385 2.3099 68.375 2.3099 68.375C2.3099 68.375 2.2399 68.475 2.1299 68.535C2.0199 68.595 1.8999 68.615 1.8999 68.615C1.8999 68.615 1.9699 68.515 2.0799 68.455Z" fill="#989898"/>
<path d="M2.75979 68.9256C2.64979 68.9956 2.52979 69.0056 2.52979 69.0056C2.52979 69.0056 2.59979 68.9056 2.70979 68.8456C2.81979 68.7756 2.93979 68.7656 2.93979 68.7656C2.93979 68.7656 2.86979 68.8656 2.75979 68.9256Z" fill="#989898"/>
<path d="M1.86965 69.4647C1.75965 69.5347 1.63965 69.5447 1.63965 69.5447C1.63965 69.5447 1.70965 69.4447 1.81965 69.3847C1.92965 69.3147 2.04965 69.3047 2.04965 69.3047C2.04965 69.3047 1.97965 69.4047 1.86965 69.4647Z" fill="#989898"/>
<path d="M2.32969 69.1353C2.38969 69.2553 2.39969 69.3753 2.39969 69.3753C2.39969 69.3753 2.30969 69.3053 2.24969 69.1853C2.18969 69.0653 2.17969 68.9453 2.17969 68.9453C2.17969 68.9453 2.26969 69.0153 2.32969 69.1353Z" fill="#989898"/>
<path d="M1.99961 70.0064C2.05961 70.1264 2.06961 70.2464 2.06961 70.2464C2.06961 70.2464 1.97961 70.1764 1.91961 70.0564C1.85961 69.9364 1.84961 69.8164 1.84961 69.8164C1.84961 69.8164 1.93961 69.8864 1.99961 70.0064Z" fill="#989898"/>
<path d="M2.37971 69.7284C2.48971 69.6584 2.60971 69.6484 2.60971 69.6484C2.60971 69.6484 2.53971 69.7484 2.42971 69.8084C2.31971 69.8784 2.19971 69.8884 2.19971 69.8884C2.19971 69.8884 2.26971 69.7884 2.37971 69.7284Z" fill="#989898"/>
<path d="M1.51984 70.2089C1.62984 70.1389 1.74984 70.1289 1.74984 70.1289C1.74984 70.1289 1.67984 70.2289 1.56984 70.2889C1.45984 70.3589 1.33984 70.3689 1.33984 70.3689C1.33984 70.3689 1.40984 70.2689 1.51984 70.2089Z" fill="#989898"/>
<path d="M2.58994 70.3189C2.64994 70.4389 2.65994 70.5589 2.65994 70.5589C2.65994 70.5589 2.56994 70.4889 2.50994 70.3689C2.44994 70.2489 2.43994 70.1289 2.43994 70.1289C2.43994 70.1289 2.52994 70.1989 2.58994 70.3189Z" fill="#989898"/>
<path d="M1.6998 70.858C1.7598 70.978 1.7698 71.098 1.7698 71.098C1.7698 71.098 1.6798 71.028 1.6198 70.908C1.5598 70.788 1.5498 70.668 1.5498 70.668C1.5498 70.668 1.6398 70.738 1.6998 70.858Z" fill="#989898"/>
<path d="M2.0799 70.58C2.1899 70.51 2.3099 70.5 2.3099 70.5C2.3099 70.5 2.2399 70.6 2.1299 70.66C2.0199 70.73 1.8999 70.74 1.8999 70.74C1.8999 70.74 1.9699 70.64 2.0799 70.58Z" fill="#989898"/>
<path d="M2.75979 71.0506C2.64979 71.1206 2.52979 71.1306 2.52979 71.1306C2.52979 71.1306 2.59979 71.0306 2.70979 70.9706C2.81979 70.9106 2.93979 70.8906 2.93979 70.8906C2.93979 70.8906 2.86979 70.9906 2.75979 71.0506Z" fill="#989898"/>
<path d="M1.86965 71.5897C1.75965 71.6597 1.63965 71.6697 1.63965 71.6697C1.63965 71.6697 1.70965 71.5697 1.81965 71.5097C1.92965 71.4397 2.04965 71.4297 2.04965 71.4297C2.04965 71.4297 1.97965 71.5297 1.86965 71.5897Z" fill="#989898"/>
<path d="M2.32969 71.2603C2.38969 71.3803 2.39969 71.5003 2.39969 71.5003C2.39969 71.5003 2.30969 71.4303 2.24969 71.3103C2.18969 71.1903 2.17969 71.0703 2.17969 71.0703C2.17969 71.0703 2.26969 71.1403 2.32969 71.2603Z" fill="#989898"/>
<path d="M1.99961 72.1314C2.05961 72.2514 2.06961 72.3714 2.06961 72.3714C2.06961 72.3714 1.97961 72.3014 1.91961 72.1814C1.85961 72.0614 1.84961 71.9414 1.84961 71.9414C1.84961 71.9414 1.93961 72.0114 1.99961 72.1314Z" fill="#989898"/>
<path d="M2.37971 71.8417C2.48971 71.7717 2.60971 71.7617 2.60971 71.7617C2.60971 71.7617 2.53971 71.8617 2.42971 71.9217C2.31971 71.9917 2.19971 72.0017 2.19971 72.0017C2.19971 72.0017 2.26971 71.9017 2.37971 71.8417Z" fill="#989898"/>
<path d="M1.51984 72.3339C1.62984 72.2639 1.74984 72.2539 1.74984 72.2539C1.74984 72.2539 1.67984 72.3539 1.56984 72.4139C1.45984 72.4839 1.33984 72.4939 1.33984 72.4939C1.33984 72.4939 1.40984 72.3939 1.51984 72.3339Z" fill="#989898"/>
<path d="M2.58994 72.4361C2.64994 72.5561 2.65994 72.6761 2.65994 72.6761C2.65994 72.6761 2.56994 72.6061 2.50994 72.4861C2.44994 72.3661 2.43994 72.2461 2.43994 72.2461C2.43994 72.2461 2.52994 72.3161 2.58994 72.4361Z" fill="#989898"/>
<path d="M1.6998 72.9752C1.7598 73.0952 1.7698 73.2152 1.7698 73.2152C1.7698 73.2152 1.6798 73.1452 1.6198 73.0252C1.5598 72.9052 1.5498 72.7852 1.5498 72.7852C1.5498 72.7852 1.6398 72.8552 1.6998 72.9752Z" fill="#989898"/>
<path d="M2.0799 72.6855C2.1899 72.6155 2.3099 72.6055 2.3099 72.6055C2.3099 72.6055 2.2399 72.7055 2.1299 72.7655C2.0199 72.8355 1.8999 72.8455 1.8999 72.8455C1.8999 72.8455 1.9699 72.7455 2.0799 72.6855Z" fill="#989898"/>
<path d="M2.75979 73.1561C2.64979 73.2261 2.52979 73.2361 2.52979 73.2361C2.52979 73.2361 2.59979 73.1361 2.70979 73.0761C2.81979 73.0061 2.93979 72.9961 2.93979 72.9961C2.93979 72.9961 2.86979 73.0961 2.75979 73.1561Z" fill="#989898"/>
<path d="M1.86965 73.7069C1.75965 73.7769 1.63965 73.7869 1.63965 73.7869C1.63965 73.7869 1.70965 73.6869 1.81965 73.6269C1.92965 73.5569 2.04965 73.5469 2.04965 73.5469C2.04965 73.5469 1.97965 73.6469 1.86965 73.7069Z" fill="#989898"/>
<path d="M2.32969 73.3658C2.38969 73.4858 2.39969 73.6058 2.39969 73.6058C2.39969 73.6058 2.30969 73.5358 2.24969 73.4158C2.18969 73.2958 2.17969 73.1758 2.17969 73.1758C2.17969 73.1758 2.26969 73.2458 2.32969 73.3658Z" fill="#989898"/>
<path d="M1.99961 74.2369C2.05961 74.3569 2.06961 74.4769 2.06961 74.4769C2.06961 74.4769 1.97961 74.4069 1.91961 74.2869C1.85961 74.1669 1.84961 74.0469 1.84961 74.0469C1.84961 74.0469 1.93961 74.1169 1.99961 74.2369Z" fill="#989898"/>
<path d="M2.37971 73.9589C2.48971 73.8889 2.60971 73.8789 2.60971 73.8789C2.60971 73.8789 2.53971 73.9789 2.42971 74.0389C2.31971 74.1089 2.19971 74.1189 2.19971 74.1189C2.19971 74.1189 2.26971 74.0189 2.37971 73.9589Z" fill="#989898"/>
<path d="M1.51984 74.4394C1.62984 74.3694 1.74984 74.3594 1.74984 74.3594C1.74984 74.3594 1.67984 74.4594 1.56984 74.5194C1.45984 74.5894 1.33984 74.5994 1.33984 74.5994C1.33984 74.5994 1.40984 74.4994 1.51984 74.4394Z" fill="#989898"/>
<path d="M2.58994 74.5455C2.64994 74.6655 2.65994 74.7855 2.65994 74.7855C2.65994 74.7855 2.56994 74.7155 2.50994 74.5955C2.44994 74.4755 2.43994 74.3555 2.43994 74.3555C2.43994 74.3555 2.52994 74.4255 2.58994 74.5455Z" fill="#989898"/>
<path d="M1.6998 75.0845C1.7598 75.2045 1.7698 75.3245 1.7698 75.3245C1.7698 75.3245 1.6798 75.2545 1.6198 75.1345C1.5598 75.0145 1.5498 74.8945 1.5498 74.8945C1.5498 74.8945 1.6398 74.9645 1.6998 75.0845Z" fill="#989898"/>
<path d="M2.0799 74.8066C2.1899 74.7366 2.3099 74.7266 2.3099 74.7266C2.3099 74.7266 2.2399 74.8266 2.1299 74.8866C2.0199 74.9466 1.8999 74.9666 1.8999 74.9666C1.8999 74.9666 1.9699 74.8666 2.0799 74.8066Z" fill="#989898"/>
<path d="M2.75979 75.2772C2.64979 75.3472 2.52979 75.3572 2.52979 75.3572C2.52979 75.3572 2.59979 75.2572 2.70979 75.1972C2.81979 75.1272 2.93979 75.1172 2.93979 75.1172C2.93979 75.1172 2.86979 75.2172 2.75979 75.2772Z" fill="#989898"/>
<path d="M1.86965 75.8162C1.75965 75.8862 1.63965 75.8962 1.63965 75.8962C1.63965 75.8962 1.70965 75.7962 1.81965 75.7362C1.92965 75.6662 2.04965 75.6562 2.04965 75.6562C2.04965 75.6562 1.97965 75.7562 1.86965 75.8162Z" fill="#989898"/>
<path d="M2.32969 75.4869C2.38969 75.6069 2.39969 75.7269 2.39969 75.7269C2.39969 75.7269 2.30969 75.6569 2.24969 75.5369C2.18969 75.4169 2.17969 75.2969 2.17969 75.2969C2.17969 75.2969 2.26969 75.3669 2.32969 75.4869Z" fill="#989898"/>
<path d="M1.99961 76.358C2.05961 76.478 2.06961 76.598 2.06961 76.598C2.06961 76.598 1.97961 76.528 1.91961 76.408C1.85961 76.288 1.84961 76.168 1.84961 76.168C1.84961 76.168 1.93961 76.238 1.99961 76.358Z" fill="#989898"/>
<path d="M2.37971 76.0683C2.48971 75.9983 2.60971 75.9883 2.60971 75.9883C2.60971 75.9883 2.53971 76.0883 2.42971 76.1483C2.31971 76.2183 2.19971 76.2283 2.19971 76.2283C2.19971 76.2283 2.26971 76.1283 2.37971 76.0683Z" fill="#989898"/>
<path d="M1.51984 76.5605C1.62984 76.4905 1.74984 76.4805 1.74984 76.4805C1.74984 76.4805 1.67984 76.5805 1.56984 76.6405C1.45984 76.7105 1.33984 76.7205 1.33984 76.7205C1.33984 76.7205 1.40984 76.6205 1.51984 76.5605Z" fill="#989898"/>
<path d="M2.58994 76.6666C2.64994 76.7866 2.65994 76.9066 2.65994 76.9066C2.65994 76.9066 2.56994 76.8366 2.50994 76.7166C2.44994 76.5966 2.43994 76.4766 2.43994 76.4766C2.43994 76.4766 2.52994 76.5466 2.58994 76.6666Z" fill="#989898"/>
<path d="M1.6998 77.2056C1.7598 77.3256 1.7698 77.4456 1.7698 77.4456C1.7698 77.4456 1.6798 77.3756 1.6198 77.2556C1.5598 77.1356 1.5498 77.0156 1.5498 77.0156C1.5498 77.0156 1.6398 77.0856 1.6998 77.2056Z" fill="#989898"/>
<path d="M2.0799 76.9159C2.1899 76.8459 2.3099 76.8359 2.3099 76.8359C2.3099 76.8359 2.2399 76.9359 2.1299 76.9959C2.0199 77.0659 1.8999 77.0759 1.8999 77.0759C1.8999 77.0759 1.9699 76.9759 2.0799 76.9159Z" fill="#989898"/>
<path d="M2.75979 77.3983C2.64979 77.4683 2.52979 77.4783 2.52979 77.4783C2.52979 77.4783 2.59979 77.3783 2.70979 77.3183C2.81979 77.2583 2.93979 77.2383 2.93979 77.2383C2.93979 77.2383 2.86979 77.3383 2.75979 77.3983Z" fill="#989898"/>
<path d="M1.86965 77.9373C1.75965 78.0073 1.63965 78.0173 1.63965 78.0173C1.63965 78.0173 1.70965 77.9173 1.81965 77.8573C1.92965 77.7873 2.04965 77.7773 2.04965 77.7773C2.04965 77.7773 1.97965 77.8773 1.86965 77.9373Z" fill="#989898"/>
<path d="M2.32969 77.6002C2.38969 77.7202 2.39969 77.8402 2.39969 77.8402C2.39969 77.8402 2.30969 77.7702 2.24969 77.6502C2.18969 77.5302 2.17969 77.4102 2.17969 77.4102C2.17969 77.4102 2.26969 77.4802 2.32969 77.6002Z" fill="#989898"/>
<path d="M1.99961 78.4791C2.05961 78.5991 2.06961 78.7191 2.06961 78.7191C2.06961 78.7191 1.97961 78.6491 1.91961 78.5291C1.85961 78.4091 1.84961 78.2891 1.84961 78.2891C1.84961 78.2891 1.93961 78.3591 1.99961 78.4791Z" fill="#989898"/>
<path d="M2.37971 78.1894C2.48971 78.1194 2.60971 78.1094 2.60971 78.1094C2.60971 78.1094 2.53971 78.2094 2.42971 78.2694C2.31971 78.3394 2.19971 78.3494 2.19971 78.3494C2.19971 78.3494 2.26971 78.2494 2.37971 78.1894Z" fill="#989898"/>
<path d="M1.51984 78.6698C1.62984 78.5998 1.74984 78.5898 1.74984 78.5898C1.74984 78.5898 1.67984 78.6898 1.56984 78.7498C1.45984 78.8198 1.33984 78.8298 1.33984 78.8298C1.33984 78.8298 1.40984 78.7298 1.51984 78.6698Z" fill="#989898"/>
<path d="M2.58994 78.7877C2.64994 78.9077 2.65994 79.0277 2.65994 79.0277C2.65994 79.0277 2.56994 78.9577 2.50994 78.8377C2.44994 78.7177 2.43994 78.5977 2.43994 78.5977C2.43994 78.5977 2.52994 78.6677 2.58994 78.7877Z" fill="#989898"/>
<path d="M1.6998 79.3267C1.7598 79.4467 1.7698 79.5667 1.7698 79.5667C1.7698 79.5667 1.6798 79.4967 1.6198 79.3767C1.5598 79.2567 1.5498 79.1367 1.5498 79.1367C1.5498 79.1367 1.6398 79.2067 1.6998 79.3267Z" fill="#989898"/>
<path d="M2.0799 79.037C2.1899 78.967 2.3099 78.957 2.3099 78.957C2.3099 78.957 2.2399 79.057 2.1299 79.117C2.0199 79.187 1.8999 79.197 1.8999 79.197C1.8999 79.197 1.9699 79.097 2.0799 79.037Z" fill="#989898"/>
<path d="M2.75979 79.5077C2.64979 79.5777 2.52979 79.5877 2.52979 79.5877C2.52979 79.5877 2.59979 79.4877 2.70979 79.4277C2.81979 79.3577 2.93979 79.3477 2.93979 79.3477C2.93979 79.3477 2.86979 79.4477 2.75979 79.5077Z" fill="#989898"/>
<path d="M1.86965 80.0467C1.75965 80.1167 1.63965 80.1267 1.63965 80.1267C1.63965 80.1267 1.70965 80.0267 1.81965 79.9667C1.92965 79.9067 2.04965 79.8867 2.04965 79.8867C2.04965 79.8867 1.97965 79.9867 1.86965 80.0467Z" fill="#989898"/>
<path d="M2.32969 79.7173C2.38969 79.8373 2.39969 79.9573 2.39969 79.9573C2.39969 79.9573 2.30969 79.8873 2.24969 79.7673C2.18969 79.6473 2.17969 79.5273 2.17969 79.5273C2.17969 79.5273 2.26969 79.5973 2.32969 79.7173Z" fill="#989898"/>
<path d="M2.37971 80.3105C2.48971 80.2405 2.60971 80.2305 2.60971 80.2305C2.60971 80.2305 2.53971 80.3305 2.42971 80.3905C2.31971 80.4605 2.19971 80.4705 2.19971 80.4705C2.19971 80.4705 2.26971 80.3705 2.37971 80.3105Z" fill="#989898"/>
</g>
<defs>
<linearGradient id="paint0_linear_2227_85863" x1="42.3998" y1="60.2686" x2="41.5598" y2="104.499" gradientUnits="userSpaceOnUse">
<stop stop-color="#C8C5C5"/>
<stop offset="0.04" stop-color="#676868"/>
<stop offset="0.11" stop-color="white"/>
<stop offset="0.3" stop-color="#939292"/>
<stop offset="0.49" stop-color="white"/>
<stop offset="0.63" stop-color="#676868"/>
<stop offset="0.77" stop-color="#939292"/>
<stop offset="0.82" stop-color="#C8C5C5"/>
<stop offset="1" stop-color="#343433"/>
</linearGradient>
<linearGradient id="paint1_linear_2227_85863" x1="41.2598" y1="72.03" x2="41.6298" y2="72.03" gradientUnits="userSpaceOnUse">
<stop stop-color="#010101"/>
<stop offset="1" stop-color="#010101" stop-opacity="0"/>
</linearGradient>
<linearGradient id="paint2_linear_2227_85863" x1="42.1998" y1="63" x2="42.1998" y2="64.38" gradientUnits="userSpaceOnUse">
<stop stop-color="#010101"/>
<stop offset="1" stop-color="#010101" stop-opacity="0"/>
</linearGradient>
<linearGradient id="paint3_linear_2227_85863" x1="36.5204" y1="102.831" x2="35.2604" y2="102.891" gradientUnits="userSpaceOnUse">
<stop stop-color="#C8C5C5"/>
<stop offset="0.04" stop-color="#676868"/>
<stop offset="0.11" stop-color="white"/>
<stop offset="0.3" stop-color="#939292"/>
<stop offset="0.49" stop-color="white"/>
<stop offset="0.68" stop-color="#676868"/>
<stop offset="0.77" stop-color="#939292"/>
<stop offset="0.82" stop-color="#C8C5C5"/>
<stop offset="1" stop-color="#343433"/>
</linearGradient>
<linearGradient id="paint4_linear_2227_85863" x1="33.13" y1="102.828" x2="34.4" y2="102.888" gradientUnits="userSpaceOnUse">
<stop stop-color="#C8C5C5"/>
<stop offset="0.04" stop-color="#676868"/>
<stop offset="0.11" stop-color="white"/>
<stop offset="0.3" stop-color="#939292"/>
<stop offset="0.49" stop-color="white"/>
<stop offset="0.68" stop-color="#676868"/>
<stop offset="0.77" stop-color="#939292"/>
<stop offset="0.82" stop-color="#C8C5C5"/>
<stop offset="1" stop-color="#343433"/>
</linearGradient>
<linearGradient id="paint5_linear_2227_85863" x1="36.8005" y1="102.459" x2="30.6505" y2="102.459" gradientUnits="userSpaceOnUse">
<stop stop-color="#C8C5C5"/>
<stop offset="0.04" stop-color="#676868"/>
<stop offset="0.11" stop-color="white"/>
<stop offset="0.3" stop-color="#939292"/>
<stop offset="0.49" stop-color="white"/>
<stop offset="0.63" stop-color="#676868"/>
<stop offset="0.77" stop-color="#939292"/>
<stop offset="0.82" stop-color="#C8C5C5"/>
<stop offset="1" stop-color="#343433"/>
</linearGradient>
<linearGradient id="paint6_linear_2227_85863" x1="11.2201" y1="102.831" x2="9.9601" y2="102.891" gradientUnits="userSpaceOnUse">
<stop stop-color="#C8C5C5"/>
<stop offset="0.04" stop-color="#676868"/>
<stop offset="0.11" stop-color="white"/>
<stop offset="0.3" stop-color="#939292"/>
<stop offset="0.49" stop-color="white"/>
<stop offset="0.68" stop-color="#676868"/>
<stop offset="0.77" stop-color="#939292"/>
<stop offset="0.82" stop-color="#C8C5C5"/>
<stop offset="1" stop-color="#343433"/>
</linearGradient>
<linearGradient id="paint7_linear_2227_85863" x1="7.8402" y1="102.828" x2="9.1002" y2="102.888" gradientUnits="userSpaceOnUse">
<stop stop-color="#C8C5C5"/>
<stop offset="0.04" stop-color="#676868"/>
<stop offset="0.11" stop-color="white"/>
<stop offset="0.3" stop-color="#939292"/>
<stop offset="0.49" stop-color="white"/>
<stop offset="0.68" stop-color="#676868"/>
<stop offset="0.77" stop-color="#939292"/>
<stop offset="0.82" stop-color="#C8C5C5"/>
<stop offset="1" stop-color="#343433"/>
</linearGradient>
<linearGradient id="paint8_linear_2227_85863" x1="11.5004" y1="102.459" x2="5.35043" y2="102.459" gradientUnits="userSpaceOnUse">
<stop stop-color="#C8C5C5"/>
<stop offset="0.04" stop-color="#676868"/>
<stop offset="0.11" stop-color="white"/>
<stop offset="0.3" stop-color="#939292"/>
<stop offset="0.49" stop-color="white"/>
<stop offset="0.63" stop-color="#676868"/>
<stop offset="0.77" stop-color="#939292"/>
<stop offset="0.82" stop-color="#C8C5C5"/>
<stop offset="1" stop-color="#343433"/>
</linearGradient>
<linearGradient id="paint9_linear_2227_85863" x1="43.5997" y1="99.5909" x2="-18.0803" y2="99.2909" gradientUnits="userSpaceOnUse">
<stop stop-color="#C8C5C5"/>
<stop offset="0.04" stop-color="#676868"/>
<stop offset="0.11" stop-color="white"/>
<stop offset="0.3" stop-color="#939292"/>
<stop offset="0.49" stop-color="white"/>
<stop offset="0.63" stop-color="#676868"/>
<stop offset="0.77" stop-color="#939292"/>
<stop offset="0.82" stop-color="#C8C5C5"/>
<stop offset="1" stop-color="#343433"/>
</linearGradient>
<linearGradient id="paint10_linear_2227_85863" x1="43.5997" y1="99.5909" x2="-18.0803" y2="99.2909" gradientUnits="userSpaceOnUse">
<stop stop-color="#C8C5C5"/>
<stop offset="0.04" stop-color="#676868"/>
<stop offset="0.11" stop-color="white"/>
<stop offset="0.3" stop-color="#939292"/>
<stop offset="0.49" stop-color="white"/>
<stop offset="0.63" stop-color="#676868"/>
<stop offset="0.77" stop-color="#939292"/>
<stop offset="0.82" stop-color="#C8C5C5"/>
<stop offset="1" stop-color="#343433"/>
</linearGradient>
<radialGradient id="paint11_radial_2227_85863" cx="0" cy="0" r="1" gradientUnits="userSpaceOnUse" gradientTransform="translate(38.8805 88.7068) rotate(-180) scale(44.298 46.782)">
<stop offset="0.01" stop-color="#010101"/>
<stop offset="1" stop-color="#010101" stop-opacity="0"/>
</radialGradient>
<linearGradient id="paint12_linear_2227_85863" x1="40.1801" y1="82.1736" x2="4.15016" y2="82.1736" gradientUnits="userSpaceOnUse">
<stop offset="0.34" stop-color="white" stop-opacity="0"/>
<stop offset="0.65" stop-color="white"/>
</linearGradient>
<linearGradient id="paint13_linear_2227_85863" x1="31.6139" y1="87.2612" x2="32.8804" y2="87.356" gradientUnits="userSpaceOnUse">
<stop stop-color="#010101"/>
<stop offset="1" stop-color="#010101" stop-opacity="0"/>
</linearGradient>
<linearGradient id="paint14_linear_2227_85863" x1="12.7866" y1="87.1873" x2="11.5202" y2="87.2821" gradientUnits="userSpaceOnUse">
<stop stop-color="#989898"/>
<stop offset="1" stop-color="#989898" stop-opacity="0"/>
</linearGradient>
<linearGradient id="paint15_linear_2227_85863" x1="22.18" y1="88.1993" x2="22.18" y2="87.0793" gradientUnits="userSpaceOnUse">
<stop stop-color="#010101"/>
<stop offset="1" stop-color="#010101" stop-opacity="0"/>
</linearGradient>
<radialGradient id="paint16_radial_2227_85863" cx="0" cy="0" r="1" gradientUnits="userSpaceOnUse" gradientTransform="translate(31.9142 85.6158) rotate(-180) scale(29.2859 30.9281)">
<stop stop-color="white" stop-opacity="0"/>
<stop offset="1" stop-color="white"/>
</radialGradient>
<radialGradient id="paint17_radial_2227_85863" cx="0" cy="0" r="1" gradientUnits="userSpaceOnUse" gradientTransform="translate(28.5437 83.853) rotate(-180) scale(28.1945 29.7755)">
<stop offset="0.01" stop-color="#010101"/>
<stop offset="1" stop-color="#010101" stop-opacity="0"/>
</radialGradient>
<linearGradient id="paint18_linear_2227_85863" x1="40.5702" y1="74.5389" x2="40.4302" y2="74.5389" gradientUnits="userSpaceOnUse">
<stop stop-color="#010101"/>
<stop offset="1" stop-color="#010101" stop-opacity="0"/>
</linearGradient>
<linearGradient id="paint19_linear_2227_85863" x1="40.2802" y1="74.257" x2="39.6902" y2="74.257" gradientUnits="userSpaceOnUse">
<stop stop-color="white"/>
<stop offset="1" stop-color="white" stop-opacity="0"/>
</linearGradient>
<linearGradient id="paint20_linear_2227_85863" x1="39.2902" y1="74.257" x2="38.4902" y2="74.257" gradientUnits="userSpaceOnUse">
<stop stop-color="#010101" stop-opacity="0"/>
<stop offset="0.99" stop-color="#010101"/>
</linearGradient>
<linearGradient id="paint21_linear_2227_85863" x1="3.67043" y1="74.5389" x2="3.82043" y2="74.5389" gradientUnits="userSpaceOnUse">
<stop stop-color="#010101"/>
<stop offset="1" stop-color="#010101" stop-opacity="0"/>
</linearGradient>
<linearGradient id="paint22_linear_2227_85863" x1="3.97021" y1="74.257" x2="4.56021" y2="74.257" gradientUnits="userSpaceOnUse">
<stop stop-color="white"/>
<stop offset="1" stop-color="white" stop-opacity="0"/>
</linearGradient>
<linearGradient id="paint23_linear_2227_85863" x1="4.96021" y1="74.257" x2="5.76022" y2="74.257" gradientUnits="userSpaceOnUse">
<stop stop-color="#010101" stop-opacity="0"/>
<stop offset="0.99" stop-color="#010101"/>
</linearGradient>
<linearGradient id="paint24_linear_2227_85863" x1="42.4397" y1="82.67" x2="42.3197" y2="82.33" gradientUnits="userSpaceOnUse">
<stop stop-color="white"/>
<stop offset="1" stop-color="white" stop-opacity="0"/>
</linearGradient>
<linearGradient id="paint25_linear_2227_85863" x1="41.2802" y1="82.1292" x2="43.3102" y2="80.9892" gradientUnits="userSpaceOnUse">
<stop stop-color="#010101"/>
<stop offset="1" stop-color="#010101" stop-opacity="0"/>
</linearGradient>
<linearGradient id="paint26_linear_2227_85863" x1="1.78" y1="82.67" x2="1.9" y2="82.33" gradientUnits="userSpaceOnUse">
<stop stop-color="white"/>
<stop offset="1" stop-color="white" stop-opacity="0"/>
</linearGradient>
<linearGradient id="paint27_linear_2227_85863" x1="2.94" y1="82.1292" x2="0.909998" y2="80.9892" gradientUnits="userSpaceOnUse">
<stop stop-color="#010101"/>
<stop offset="1" stop-color="#010101" stop-opacity="0"/>
</linearGradient>
<radialGradient id="paint28_radial_2227_85863" cx="0" cy="0" r="1" gradientUnits="userSpaceOnUse" gradientTransform="translate(15.1368 72.9282) rotate(180) scale(8.3781 8.84789)">
<stop stop-color="white" stop-opacity="0"/>
<stop offset="1" stop-color="white"/>
</radialGradient>
<linearGradient id="paint29_linear_2227_85863" x1="22.1804" y1="66.6911" x2="22.1804" y2="65.8911" gradientUnits="userSpaceOnUse">
<stop stop-color="#010101" stop-opacity="0"/>
<stop offset="0.99" stop-color="#010101"/>
</linearGradient>
<linearGradient id="paint30_linear_2227_85863" x1="33.4704" y1="68.5322" x2="10.8804" y2="68.5322" gradientUnits="userSpaceOnUse">
<stop stop-color="white" stop-opacity="0"/>
<stop offset="1" stop-color="white"/>
</linearGradient>
<linearGradient id="paint31_linear_2227_85863" x1="18.4404" y1="66.9597" x2="32.3104" y2="66.9597" gradientUnits="userSpaceOnUse">
<stop stop-color="white" stop-opacity="0"/>
<stop offset="1" stop-color="white"/>
</linearGradient>
<radialGradient id="paint32_radial_2227_85863" cx="0" cy="0" r="1" gradientUnits="userSpaceOnUse" gradientTransform="translate(-4.11298 64.023) rotate(-180) scale(53.5107 56.5113)">
<stop stop-color="white" stop-opacity="0"/>
<stop offset="1" stop-color="white"/>
</radialGradient>
<radialGradient id="paint33_radial_2227_85863" cx="0" cy="0" r="1" gradientUnits="userSpaceOnUse" gradientTransform="translate(48.7557 27.9873) rotate(180) scale(77.7997 82.1623)">
<stop offset="0.01" stop-color="#010101"/>
<stop offset="1" stop-color="#010101" stop-opacity="0"/>
</radialGradient>
<linearGradient id="paint34_linear_2227_85863" x1="1.00021" y1="55.9792" x2="0.250215" y2="60.9492" gradientUnits="userSpaceOnUse">
<stop stop-color="white" stop-opacity="0"/>
<stop offset="1" stop-color="white"/>
</linearGradient>
<linearGradient id="paint35_linear_2227_85863" x1="0.88" y1="58.0014" x2="0.62" y2="58.0014" gradientUnits="userSpaceOnUse">
<stop stop-color="white" stop-opacity="0"/>
<stop offset="1" stop-color="white"/>
</linearGradient>
<linearGradient id="paint36_linear_2227_85863" x1="1.00021" y1="38.8581" x2="0.250215" y2="43.8281" gradientUnits="userSpaceOnUse">
<stop stop-color="white" stop-opacity="0"/>
<stop offset="1" stop-color="white"/>
</linearGradient>
<linearGradient id="paint37_linear_2227_85863" x1="0.88" y1="40.8903" x2="0.62" y2="40.8903" gradientUnits="userSpaceOnUse">
<stop stop-color="white" stop-opacity="0"/>
<stop offset="1" stop-color="white"/>
</linearGradient>
<linearGradient id="paint38_linear_2227_85863" x1="1.00021" y1="21.7388" x2="0.250215" y2="26.7087" gradientUnits="userSpaceOnUse">
<stop stop-color="white" stop-opacity="0"/>
<stop offset="1" stop-color="white"/>
</linearGradient>
<linearGradient id="paint39_linear_2227_85863" x1="0.88" y1="23.7692" x2="0.62" y2="23.7692" gradientUnits="userSpaceOnUse">
<stop stop-color="white" stop-opacity="0"/>
<stop offset="1" stop-color="white"/>
</linearGradient>
<linearGradient id="paint40_linear_2227_85863" x1="1.00021" y1="4.63156" x2="0.250215" y2="9.60156" gradientUnits="userSpaceOnUse">
<stop stop-color="white" stop-opacity="0"/>
<stop offset="1" stop-color="white"/>
</linearGradient>
<linearGradient id="paint41_linear_2227_85863" x1="0.88" y1="6.65203" x2="0.62" y2="6.65203" gradientUnits="userSpaceOnUse">
<stop stop-color="white" stop-opacity="0"/>
<stop offset="1" stop-color="white"/>
</linearGradient>
<linearGradient id="paint42_linear_2227_85863" x1="43.3501" y1="55.9792" x2="44.0901" y2="60.9492" gradientUnits="userSpaceOnUse">
<stop stop-color="white" stop-opacity="0"/>
<stop offset="1" stop-color="white"/>
</linearGradient>
<linearGradient id="paint43_linear_2227_85863" x1="43.4703" y1="58.0014" x2="43.7303" y2="58.0014" gradientUnits="userSpaceOnUse">
<stop stop-color="white" stop-opacity="0"/>
<stop offset="1" stop-color="white"/>
</linearGradient>
<linearGradient id="paint44_linear_2227_85863" x1="43.3501" y1="38.8581" x2="44.0901" y2="43.8281" gradientUnits="userSpaceOnUse">
<stop stop-color="white" stop-opacity="0"/>
<stop offset="1" stop-color="white"/>
</linearGradient>
<linearGradient id="paint45_linear_2227_85863" x1="43.4703" y1="40.8903" x2="43.7303" y2="40.8903" gradientUnits="userSpaceOnUse">
<stop stop-color="white" stop-opacity="0"/>
<stop offset="1" stop-color="white"/>
</linearGradient>
<linearGradient id="paint46_linear_2227_85863" x1="43.3501" y1="21.7388" x2="44.0901" y2="26.7087" gradientUnits="userSpaceOnUse">
<stop stop-color="white" stop-opacity="0"/>
<stop offset="1" stop-color="white"/>
</linearGradient>
<linearGradient id="paint47_linear_2227_85863" x1="43.4703" y1="23.7692" x2="43.7303" y2="23.7692" gradientUnits="userSpaceOnUse">
<stop stop-color="white" stop-opacity="0"/>
<stop offset="1" stop-color="white"/>
</linearGradient>
<linearGradient id="paint48_linear_2227_85863" x1="43.3501" y1="4.62766" x2="44.0901" y2="9.59765" gradientUnits="userSpaceOnUse">
<stop stop-color="white" stop-opacity="0"/>
<stop offset="1" stop-color="white"/>
</linearGradient>
<linearGradient id="paint49_linear_2227_85863" x1="43.4703" y1="6.64812" x2="43.7303" y2="6.64812" gradientUnits="userSpaceOnUse">
<stop stop-color="white" stop-opacity="0"/>
<stop offset="1" stop-color="white"/>
</linearGradient>
<linearGradient id="paint50_linear_2227_85863" x1="36.83" y1="0.830781" x2="41.55" y2="0.130781" gradientUnits="userSpaceOnUse">
<stop stop-color="white" stop-opacity="0"/>
<stop offset="1" stop-color="white"/>
</linearGradient>
<linearGradient id="paint51_linear_2227_85863" x1="38.7598" y1="0.741562" x2="38.7598" y2="0.481562" gradientUnits="userSpaceOnUse">
<stop stop-color="white" stop-opacity="0"/>
<stop offset="1" stop-color="white"/>
</linearGradient>
<linearGradient id="paint52_linear_2227_85863" x1="4.33004" y1="0.830781" x2="9.05004" y2="0.130781" gradientUnits="userSpaceOnUse">
<stop stop-color="white" stop-opacity="0"/>
<stop offset="1" stop-color="white"/>
</linearGradient>
<linearGradient id="paint53_linear_2227_85863" x1="6.26025" y1="0.741562" x2="6.26025" y2="0.481562" gradientUnits="userSpaceOnUse">
<stop stop-color="white" stop-opacity="0"/>
<stop offset="1" stop-color="white"/>
</linearGradient>
<linearGradient id="paint54_linear_2227_85863" x1="22.6201" y1="0.579219" x2="22.6201" y2="0.949219" gradientUnits="userSpaceOnUse">
<stop stop-color="#010101" stop-opacity="0"/>
<stop offset="0.99" stop-color="#010101"/>
</linearGradient>
<linearGradient id="paint55_linear_2227_85863" x1="1.81963" y1="60.2686" x2="2.65963" y2="104.499" gradientUnits="userSpaceOnUse">
<stop stop-color="#C8C5C5"/>
<stop offset="0.04" stop-color="#676868"/>
<stop offset="0.11" stop-color="white"/>
<stop offset="0.3" stop-color="#939292"/>
<stop offset="0.49" stop-color="white"/>
<stop offset="0.63" stop-color="#676868"/>
<stop offset="0.77" stop-color="#939292"/>
<stop offset="0.82" stop-color="#C8C5C5"/>
<stop offset="1" stop-color="#343433"/>
</linearGradient>
<linearGradient id="paint56_linear_2227_85863" x1="2.95957" y1="72.03" x2="2.58957" y2="72.03" gradientUnits="userSpaceOnUse">
<stop stop-color="#010101"/>
<stop offset="1" stop-color="#010101" stop-opacity="0"/>
</linearGradient>
<linearGradient id="paint57_linear_2227_85863" x1="2.01957" y1="63" x2="2.01957" y2="64.38" gradientUnits="userSpaceOnUse">
<stop stop-color="#010101"/>
<stop offset="1" stop-color="#010101" stop-opacity="0"/>
</linearGradient>
</defs>
</svg>
