<svg width="45" height="90" viewBox="0 0 45 90" fill="none" xmlns="http://www.w3.org/2000/svg">
<path d="M35.29 2.1875L9.48003 2.1875V1.8275C9.48003 1.1875 10 0.6675 10.64 0.6675L34.12 0.6675C34.76 0.6675 35.28 1.1875 35.28 1.8275V2.1875H35.29Z" fill="url(#paint0_linear_2227_85865)"/>
<path d="M35.29 2.42969L9.48003 2.42969V2.06969C9.48003 1.42969 10 0.909687 10.64 0.909687L34.12 0.909687C34.76 0.909687 35.28 1.42969 35.28 2.06969V2.42969H35.29Z" fill="#333333"/>
<path d="M35.29 2.42969L9.48003 2.42969V2.06969C9.48003 1.42969 10 0.909687 10.64 0.909687L34.12 0.909687C34.76 0.909687 35.28 1.42969 35.28 2.06969V2.42969H35.29Z" fill="url(#paint1_linear_2227_85865)"/>
<path d="M31.4999 1.94531L32.1199 1.94531C32.4016 1.94531 32.6299 1.71698 32.6299 1.43531V0.675312C32.6299 0.393647 32.4016 0.165314 32.1199 0.165314L31.4999 0.165314C31.2182 0.165314 30.9899 0.393647 30.9899 0.675312V1.43531C30.9899 1.71698 31.2182 1.94531 31.4999 1.94531Z" fill="url(#paint2_linear_2227_85865)"/>
<path d="M32.2002 1.6675V0.4375H31.4202L31.4102 1.6575L31.4202 1.6675H32.2002Z" fill="url(#paint3_linear_2227_85865)"/>
<path d="M12.6503 1.94531L13.2703 1.94531C13.5519 1.94531 13.7803 1.71698 13.7803 1.43531V0.675312C13.7803 0.393647 13.5519 0.165314 13.2703 0.165314L12.6503 0.165314C12.3686 0.165314 12.1403 0.393647 12.1403 0.675312V1.43531C12.1403 1.71698 12.3686 1.94531 12.6503 1.94531Z" fill="url(#paint4_linear_2227_85865)"/>
<path d="M13.3603 1.6675V0.4375H12.5803L12.5703 1.6575L12.5803 1.6675H13.3603Z" fill="url(#paint5_linear_2227_85865)"/>
<path d="M31.4102 0.15625L32.2002 0.15625V-0.00374985L31.4102 -0.00374985V0.15625Z" fill="#010101"/>
<path d="M12.5704 0.15625L13.3604 0.15625V-0.00374985L12.5704 -0.00374985V0.15625Z" fill="#010101"/>
<path d="M31.37 89.3398H13.39C12.75 89.3398 12.23 88.8199 12.23 88.1799V87.8199H32.54V88.1799C32.54 88.8199 32.02 89.3398 31.38 89.3398H31.37Z" fill="url(#paint6_linear_2227_85865)"/>
<path d="M31.37 89.1016H13.39C12.75 89.1016 12.23 88.5816 12.23 87.9416V87.5816H32.54V87.9416C32.54 88.5816 32.02 89.1016 31.38 89.1016H31.37Z" fill="#333333"/>
<path d="M31.37 89.1016H13.39C12.75 89.1016 12.23 88.5816 12.23 87.9416V87.5816H32.54V87.9416C32.54 88.5816 32.02 89.1016 31.38 89.1016H31.37Z" fill="url(#paint7_linear_2227_85865)"/>
<path d="M29.6702 89.8477H29.9402C30.2219 89.8477 30.4502 89.6193 30.4502 89.3377V88.5777C30.4502 88.296 30.2219 88.0677 29.9402 88.0677H29.6702C29.3885 88.0677 29.1602 88.296 29.1602 88.5777V89.3377C29.1602 89.6193 29.3885 89.8477 29.6702 89.8477Z" fill="url(#paint8_linear_2227_85865)"/>
<path d="M30.1102 88.3398V89.5699H29.4902V88.3499V88.3398H30.1102Z" fill="url(#paint9_linear_2227_85865)"/>
<path d="M14.8401 89.8477H15.1101C15.3918 89.8477 15.6201 89.6193 15.6201 89.3377V88.5777C15.6201 88.296 15.3918 88.0677 15.1101 88.0677H14.8401C14.5584 88.0677 14.3301 88.296 14.3301 88.5777V89.3377C14.3301 89.6193 14.5584 89.8477 14.8401 89.8477Z" fill="url(#paint10_linear_2227_85865)"/>
<path d="M15.2802 88.3398L15.2902 89.5699H14.6702L14.6602 88.3499L14.6702 88.3398H15.2802Z" fill="url(#paint11_linear_2227_85865)"/>
<path d="M29.4904 90H30.1104V89.84H29.4904V90Z" fill="#010101"/>
<path d="M14.67 90H15.29V89.84H14.67V90Z" fill="#010101"/>
<path d="M14.0702 46.7695H30.7102C31.2102 46.7695 31.6202 47.1095 31.6202 47.5295V48.3395C31.6202 48.7595 31.2102 49.0995 30.7102 49.0995H14.0702C13.5602 49.0995 13.1602 48.7595 13.1602 48.3395V47.5295C13.1602 47.1095 13.5702 46.7695 14.0702 46.7695Z" fill="#989898"/>
<path d="M2.84008 78.8205V8.71047C2.84008 4.99047 6.47008 1.98047 10.9501 1.98047H33.7301C38.2101 1.98047 41.8401 4.99047 41.8401 8.71047V78.8205C41.8401 83.9405 36.8401 88.0805 30.6701 88.0805H14.0001C7.83008 88.0805 2.83008 83.9305 2.83008 78.8205H2.84008Z" fill="#DFDFDE"/>
<path d="M33.2304 86.6802H11.4604C8.8304 86.6802 6.48039 85.7002 4.90039 84.1602C6.92039 86.5302 10.2504 88.0802 14.0104 88.0802H30.6804C34.4504 88.0802 37.7704 86.5302 39.7904 84.1602C38.2104 85.7002 35.8604 86.6802 33.2304 86.6802Z" fill="url(#paint12_linear_2227_85865)"/>
<path opacity="0.4" d="M33.2304 86.6802H11.4604C8.8304 86.6802 6.48039 85.7002 4.90039 84.1602C6.92039 86.5302 10.2504 88.0802 14.0104 88.0802H30.6804C34.4504 88.0802 37.7704 86.5302 39.7904 84.1602C38.2104 85.7002 35.8604 86.6802 33.2304 86.6802Z" fill="url(#paint13_linear_2227_85865)"/>
<path d="M40.5099 7.53078V79.9908C40.5099 83.3108 37.2599 86.0108 33.2599 86.0108H11.4199C7.41992 86.0108 4.16992 83.3208 4.16992 79.9908V7.53078C4.16992 5.61078 6.04992 4.05078 8.35992 4.05078H36.3099C38.6299 4.05078 40.4999 5.61078 40.4999 7.53078H40.5099Z" fill="#DFDFDE"/>
<path d="M35.4799 29.8317L40.5998 20.5317H41.8498V63.7617L35.6298 52.2117L20.1498 52.7717L9.45985 52.1717L3.88985 62.7017L2.83984 62.6817V19.7617H3.88985L9.76984 29.7317C9.76984 29.7317 19.4898 28.9917 22.1998 29.0917C24.9098 29.1917 34.7898 30.3017 34.7898 30.3017L35.4799 29.8117V29.8317Z" fill="#E0E1E0"/>
<path d="M8.36968 4.05016H36.3197C38.6397 4.05016 40.5097 5.61016 40.5097 7.53016V6.89016C40.5097 4.97016 38.6297 3.41016 36.3197 3.41016H8.36968C6.04968 3.41016 4.17969 4.97016 4.17969 6.89016V7.53016C4.17969 5.61016 6.05968 4.05016 8.36968 4.05016Z" fill="#333333"/>
<path d="M8.36968 4.05016H36.3197C38.6397 4.05016 40.5097 5.61016 40.5097 7.53016V6.89016C40.5097 4.97016 38.6297 3.41016 36.3197 3.41016H8.36968C6.04968 3.41016 4.17969 4.97016 4.17969 6.89016V7.53016C4.17969 5.61016 6.05968 4.05016 8.36968 4.05016Z" fill="url(#paint14_linear_2227_85865)"/>
<path opacity="0.5" d="M36.5204 4.28078H8.3904C6.0604 4.28078 4.17039 5.84078 4.17039 7.76078V80.2208C4.17039 81.8208 4.9404 83.2808 6.1804 84.3608C4.7804 83.2608 3.90039 81.7208 3.90039 80.0008V7.53078C3.90039 5.61078 5.79039 4.05078 8.12039 4.05078H36.2504C37.4904 4.05078 38.5904 4.49078 39.3704 5.19078C38.6204 4.63078 37.6204 4.28078 36.5304 4.28078H36.5204Z" fill="url(#paint15_radial_2227_85865)"/>
<path d="M11.4297 86.6822H33.2697C37.2697 86.6822 40.5197 83.9922 40.5197 80.6622V79.9922C40.5197 83.3122 37.2697 86.0122 33.2697 86.0122H11.4297C7.42969 86.0122 4.17969 83.3222 4.17969 79.9922V80.6622C4.17969 83.9822 7.42969 86.6822 11.4297 86.6822Z" fill="#676767"/>
<path d="M37.7998 84.6822V85.3522C39.4498 84.2522 40.5198 82.5622 40.5198 80.6622V79.9922C40.5198 81.8922 39.4598 83.5822 37.7998 84.6822Z" fill="#F26722"/>
<path d="M37.8002 84.6836C36.5602 85.5136 34.9802 86.0136 33.2602 86.0136H28.5602L28.2402 86.6836H33.2602C34.9802 86.6836 36.5502 86.1836 37.8002 85.3536V84.6836Z" fill="#E0F2F6"/>
<path d="M6.88992 84.6822V85.3522C5.23992 84.2522 4.16992 82.5622 4.16992 80.6622V79.9922C4.16992 81.8922 5.22992 83.5822 6.88992 84.6822Z" fill="#F26722"/>
<path d="M6.88965 84.6836C8.12965 85.5136 9.70965 86.0136 11.4296 86.0136H16.1296L16.4496 86.6836H11.4296C9.70965 86.6836 8.13965 86.1836 6.88965 85.3536V84.6836Z" fill="#E0F2F6"/>
<path d="M16.5 86.5117H28.19L28.12 86.6217H16.57L16.5 86.5117Z" fill="#333333"/>
<path d="M16.4199 86.2891H28.2699L28.1999 86.3991H16.4899L16.4199 86.2891Z" fill="#333333"/>
<path d="M16.2695 86.0703H28.4195L28.3495 86.1803H16.3395L16.2695 86.0703Z" fill="#333333"/>
<path d="M22.3496 86.5689C22.7859 86.5689 23.1396 86.4704 23.1396 86.3489C23.1396 86.2274 22.7859 86.1289 22.3496 86.1289C21.9133 86.1289 21.5596 86.2274 21.5596 86.3489C21.5596 86.4704 21.9133 86.5689 22.3496 86.5689Z" fill="#CCCCCC"/>
<path d="M34.2304 51.4712C30.3804 51.9412 19.3104 53.0512 10.9004 51.5712C10.0704 51.4212 9.23038 51.7812 8.89038 52.4312L4.39038 61.0412C4.04038 61.7112 4.46038 62.4812 5.30038 62.6912C9.58038 63.7912 22.4004 66.3212 39.3404 62.5712C40.1904 62.3812 40.6404 61.6112 40.3104 60.9312L36.1504 52.3812C35.8404 51.7412 35.0504 51.3612 34.2304 51.4612V51.4712Z" fill="#676767"/>
<path d="M34.2304 51.4712C30.3804 51.9412 19.3104 53.0512 10.9004 51.5712C10.0704 51.4212 9.23038 51.7812 8.89038 52.4312L4.39038 61.0412C4.04038 61.7112 4.46038 62.4812 5.30038 62.6912C9.58038 63.7912 22.4004 66.3212 39.3404 62.5712C40.1904 62.3812 40.6404 61.6112 40.3104 60.9312L36.1504 52.3812C35.8404 51.7412 35.0504 51.3612 34.2304 51.4612V51.4712Z" fill="url(#paint16_linear_2227_85865)"/>
<path d="M34.4899 52.0508C34.9299 52.0508 35.3099 52.2708 35.4799 52.6108L39.6399 61.1608C39.7199 61.3308 39.7099 61.5208 39.6099 61.6808C39.5099 61.8408 39.3499 61.9508 39.1499 62.0008C33.2699 63.3008 27.3399 63.9608 21.4999 63.9608C13.7799 63.9608 8.16992 62.8108 5.50992 62.1308C5.30992 62.0808 5.13992 61.9608 5.04992 61.8008C4.95992 61.6408 4.95992 61.4608 5.04992 61.2908L9.54992 52.6808C9.71992 52.3608 10.0999 52.1508 10.5299 52.1508C10.5999 52.1508 10.6799 52.1508 10.7499 52.1708C13.5999 52.6708 16.9999 52.9308 20.8699 52.9308C26.5099 52.9308 31.7199 52.4008 34.3299 52.0808C34.3799 52.0808 34.4299 52.0808 34.4899 52.0808V52.0508Z" fill="#010101"/>
<path d="M34.4909 52.3594C34.7809 52.3594 35.0309 52.4994 35.1409 52.7294L39.3009 61.2794C39.3609 61.3994 39.3209 61.4994 39.2909 61.5494C39.2609 61.6094 39.1908 61.6794 39.0608 61.7094C33.2108 62.9994 27.3109 63.6594 21.5109 63.6594C13.8409 63.6594 8.27086 62.5194 5.63086 61.8394C5.49086 61.7994 5.42085 61.7194 5.40085 61.6694C5.37085 61.6194 5.34085 61.5194 5.40085 61.3994L9.90085 52.7894C10.0109 52.5794 10.2609 52.4394 10.5409 52.4394C10.5909 52.4394 10.6409 52.4394 10.6909 52.4494C13.5609 52.9594 16.9909 53.2094 20.8909 53.2094C26.5509 53.2094 31.7909 52.6794 34.4009 52.3594C34.4309 52.3594 34.4709 52.3594 34.5009 52.3594H34.4909Z" fill="#686C86"/>
<path opacity="0.2" d="M38.2501 59.1016C34.0301 59.9516 28.4601 60.4716 22.3501 60.4716C16.2401 60.4716 10.7801 59.9616 6.58008 59.1316L5.39009 61.4016C5.33009 61.5216 5.37009 61.6216 5.39009 61.6716C5.42009 61.7216 5.48008 61.8016 5.62008 61.8416C8.26008 62.5216 13.8301 63.6616 21.5001 63.6616C27.3001 63.6616 33.2101 63.0016 39.0501 61.7116C39.1801 61.6816 39.2501 61.6116 39.2801 61.5516C39.3101 61.5016 39.3501 61.4016 39.2901 61.2816L38.2301 59.1116L38.2501 59.1016Z" fill="#010101"/>
<path d="M39.2203 61.1016C34.7103 62.0216 28.8003 62.5916 22.3403 62.5916C15.8803 62.5916 10.0403 62.0316 5.53032 61.1216L5.38032 61.4016C5.32032 61.5216 5.36032 61.6216 5.38032 61.6716C5.41032 61.7216 5.47033 61.8016 5.61033 61.8416C8.25033 62.5216 13.8203 63.6616 21.4903 63.6616C27.2903 63.6616 33.2003 63.0016 39.0403 61.7116C39.1703 61.6816 39.2403 61.6116 39.2703 61.5516C39.3003 61.5016 39.3403 61.4016 39.2803 61.2816L39.2003 61.1116L39.2203 61.1016Z" fill="#333333"/>
<path d="M33.7502 61.2523L29.0302 62.0623L28.9902 61.8723L33.7302 61.1523L33.7502 61.2523Z" fill="#010101"/>
<path d="M22.4404 62.8589L28.8904 61.8789L28.5704 62.1289L22.4904 63.0489L22.4404 62.8589Z" fill="#010101"/>
<path d="M33.4504 61.1406L22.1904 62.8406L22.2104 62.9506L33.7404 61.2006L33.4504 61.1406Z" fill="#333333"/>
<path d="M22.48 62.9011C22.51 63.0511 22.39 63.1911 22.21 63.2211C22.03 63.2511 21.86 63.1511 21.82 63.0011C21.79 62.8511 21.91 62.7111 22.09 62.6811C22.27 62.6511 22.44 62.7511 22.48 62.9011Z" fill="#010101"/>
<path d="M22.4701 62.851C22.5001 62.971 22.4001 63.091 22.2501 63.111C22.1001 63.131 21.9601 63.051 21.9301 62.931C21.9001 62.811 22.0001 62.691 22.1501 62.671C22.3001 62.651 22.4401 62.731 22.4701 62.851Z" fill="#333333"/>
<path d="M23.2907 61.6937L18.4907 62.1137L18.4707 61.9137L23.2807 61.5938L23.2907 61.6937Z" fill="#010101"/>
<path d="M11.8398 62.3541L18.3798 61.9141L18.0298 62.1441L11.8598 62.5541L11.8398 62.3541Z" fill="#010101"/>
<path d="M23.0098 61.5625L11.5898 62.3125L11.5998 62.4225L23.2798 61.6425L23.0098 61.5625Z" fill="#333333"/>
<path d="M11.8803 62.403C11.8903 62.553 11.7603 62.683 11.5803 62.703C11.4003 62.713 11.2403 62.603 11.2203 62.453C11.2103 62.303 11.3403 62.173 11.5203 62.153C11.7003 62.143 11.8603 62.253 11.8803 62.403Z" fill="#010101"/>
<path d="M11.8707 62.3506C11.8807 62.4706 11.7707 62.5806 11.6207 62.5906C11.4707 62.6006 11.3407 62.5106 11.3307 62.3806C11.3207 62.2606 11.4307 62.1506 11.5807 62.1406C11.7307 62.1406 11.8607 62.2206 11.8707 62.3506Z" fill="#333333"/>
<path opacity="0.5" d="M34.4909 52.3594C34.7809 52.3594 35.0309 52.4994 35.1409 52.7294L39.3009 61.2794C39.3609 61.3994 39.3209 61.4994 39.2909 61.5494C39.2609 61.6094 39.1908 61.6794 39.0608 61.7094C33.2108 62.9994 27.3109 63.6594 21.5109 63.6594C13.8409 63.6594 8.27086 62.5194 5.63086 61.8394C5.49086 61.7994 5.42085 61.7194 5.40085 61.6694C5.37085 61.6194 5.34085 61.5194 5.40085 61.3994L9.90085 52.7894C10.0109 52.5794 10.2609 52.4394 10.5409 52.4394C10.5909 52.4394 10.6409 52.4394 10.6909 52.4494C13.5609 52.9594 16.9909 53.2094 20.8909 53.2094C26.5509 53.2094 31.7909 52.6794 34.4009 52.3594C34.4309 52.3594 34.4709 52.3594 34.5009 52.3594H34.4909Z" fill="url(#paint17_radial_2227_85865)"/>
<path style="mix-blend-mode:overlay" opacity="0.3" d="M34.4909 52.3594C34.7809 52.3594 35.0309 52.4994 35.1409 52.7294L39.3009 61.2794C39.3609 61.3994 39.3209 61.4994 39.2909 61.5494C39.2609 61.6094 39.1908 61.6794 39.0608 61.7094C33.2108 62.9994 27.3109 63.6594 21.5109 63.6594C13.8409 63.6594 8.27086 62.5194 5.63086 61.8394C5.49086 61.7994 5.42085 61.7194 5.40085 61.6694C5.37085 61.6194 5.34085 61.5194 5.40085 61.3994L9.90085 52.7894C10.0109 52.5794 10.2609 52.4394 10.5409 52.4394C10.5909 52.4394 10.6409 52.4394 10.6909 52.4494C13.5609 52.9594 16.9909 53.2094 20.8909 53.2094C26.5509 53.2094 31.7909 52.6794 34.4009 52.3594C34.4309 52.3594 34.4709 52.3594 34.5009 52.3594H34.4909Z" fill="url(#paint18_radial_2227_85865)"/>
<path d="M34.2304 30.3294C30.3804 29.8594 19.3104 28.7494 10.9004 30.2294C10.0704 30.3794 9.23038 30.0194 8.89038 29.3694L4.39038 20.7594C4.04038 20.0894 4.46038 19.3194 5.30038 19.1094C9.58038 18.0094 22.4004 15.4794 39.3404 19.2294C40.1904 19.4194 40.6404 20.1894 40.3104 20.8694L36.1504 29.4194C35.8404 30.0594 35.0504 30.4394 34.2304 30.3394V30.3294Z" fill="#676767"/>
<path d="M34.2304 30.3294C30.3804 29.8594 19.3104 28.7494 10.9004 30.2294C10.0704 30.3794 9.23038 30.0194 8.89038 29.3694L4.39038 20.7594C4.04038 20.0894 4.46038 19.3194 5.30038 19.1094C9.58038 18.0094 22.4004 15.4794 39.3404 19.2294C40.1904 19.4194 40.6404 20.1894 40.3104 20.8694L36.1504 29.4194C35.8404 30.0594 35.0504 30.4394 34.2304 30.3394V30.3294Z" fill="url(#paint19_linear_2227_85865)"/>
<path d="M34.4899 29.7477C34.9299 29.7477 35.3099 29.5277 35.4799 29.1877L39.6399 20.6377C39.7199 20.4677 39.7099 20.2777 39.6099 20.1177C39.5099 19.9577 39.3499 19.8477 39.1499 19.8077C33.2699 18.5077 27.3399 17.8477 21.4999 17.8477C13.7799 17.8477 8.16992 18.9977 5.50992 19.6777C5.30992 19.7277 5.13992 19.8477 5.04992 20.0077C4.95992 20.1677 4.95992 20.3477 5.04992 20.5177L9.54992 29.1277C9.71992 29.4477 10.0999 29.6577 10.5299 29.6577C10.5999 29.6577 10.6799 29.6577 10.7499 29.6377C13.5999 29.1377 16.9999 28.8777 20.8699 28.8777C26.5099 28.8777 31.7199 29.4077 34.3299 29.7277C34.3799 29.7277 34.4299 29.7277 34.4899 29.7277V29.7477Z" fill="#010101"/>
<path d="M34.4909 29.4484C34.7809 29.4484 35.0309 29.3084 35.1409 29.0784L39.3009 20.5284C39.3609 20.4084 39.3209 20.3084 39.2909 20.2584C39.2609 20.1984 39.1908 20.1284 39.0608 20.0984C33.2108 18.8084 27.3109 18.1484 21.5109 18.1484C13.8409 18.1484 8.27086 19.2884 5.63086 19.9684C5.49086 20.0084 5.42085 20.0884 5.40085 20.1384C5.37085 20.1884 5.34085 20.2884 5.40085 20.4084L9.90085 29.0184C10.0109 29.2284 10.2609 29.3684 10.5409 29.3684C10.5909 29.3684 10.6409 29.3684 10.6909 29.3584C13.5609 28.8484 16.9909 28.5984 20.8909 28.5984C26.5509 28.5984 31.7909 29.1284 34.4009 29.4484C34.4309 29.4484 34.4709 29.4484 34.5009 29.4484H34.4909Z" fill="#686C86"/>
<path opacity="0.4" d="M39.3106 20.5284C39.3706 20.4084 39.3306 20.3084 39.3006 20.2584C39.2706 20.1984 39.2006 20.1284 39.0706 20.0984C33.2206 18.8084 27.3206 18.1484 21.5206 18.1484C13.8506 18.1484 8.28062 19.2884 5.64062 19.9684C5.50062 20.0084 5.43062 20.0884 5.41062 20.1384C5.38062 20.1884 5.35062 20.2884 5.41062 20.4084L6.70062 22.8784H38.1906L39.3306 20.5384L39.3106 20.5284Z" fill="#010101"/>
<path d="M39.2203 20.7006C34.7103 19.7806 28.8003 19.2106 22.3403 19.2106C15.8803 19.2106 10.0403 19.7706 5.53032 20.6806L5.38032 20.4006C5.32032 20.2806 5.36032 20.1806 5.38032 20.1306C5.41032 20.0806 5.47033 20.0006 5.61033 19.9606C8.25033 19.2806 13.8203 18.1406 21.4903 18.1406C27.2903 18.1406 33.2003 18.8006 39.0403 20.0906C39.1703 20.1206 39.2403 20.1906 39.2703 20.2506C39.3003 20.3006 39.3403 20.4006 39.2803 20.5206L39.2003 20.6906L39.2203 20.7006Z" fill="#010101"/>
<path opacity="0.5" d="M34.4909 29.4484C34.7809 29.4484 35.0309 29.3084 35.1409 29.0784L39.3009 20.5284C39.3609 20.4084 39.3209 20.3084 39.2909 20.2584C39.2609 20.1984 39.1908 20.1284 39.0608 20.0984C33.2108 18.8084 27.3109 18.1484 21.5109 18.1484C13.8409 18.1484 8.27086 19.2884 5.63086 19.9684C5.49086 20.0084 5.42085 20.0884 5.40085 20.1384C5.37085 20.1884 5.34085 20.2884 5.40085 20.4084L9.90085 29.0184C10.0109 29.2284 10.2609 29.3684 10.5409 29.3684C10.5909 29.3684 10.6409 29.3684 10.6909 29.3584C13.5609 28.8484 16.9909 28.5984 20.8909 28.5984C26.5509 28.5984 31.7909 29.1284 34.4009 29.4484C34.4309 29.4484 34.4709 29.4484 34.5009 29.4484H34.4909Z" fill="url(#paint20_radial_2227_85865)"/>
<path style="mix-blend-mode:overlay" opacity="0.3" d="M34.4909 29.4484C34.7809 29.4484 35.0309 29.3084 35.1409 29.0784L39.3009 20.5284C39.3609 20.4084 39.3209 20.3084 39.2909 20.2584C39.2609 20.1984 39.1908 20.1284 39.0608 20.0984C33.2108 18.8084 27.3109 18.1484 21.5109 18.1484C13.8409 18.1484 8.27086 19.2884 5.63086 19.9684C5.49086 20.0084 5.42085 20.0884 5.40085 20.1384C5.37085 20.1884 5.34085 20.2884 5.40085 20.4084L9.90085 29.0184C10.0109 29.2284 10.2609 29.3684 10.5409 29.3684C10.5909 29.3684 10.6409 29.3684 10.6909 29.3584C13.5609 28.8484 16.9909 28.5984 20.8909 28.5984C26.5509 28.5984 31.7909 29.1284 34.4009 29.4484C34.4309 29.4484 34.4709 29.4484 34.5009 29.4484H34.4909Z" fill="url(#paint21_radial_2227_85865)"/>
<path d="M4.73008 43.5586C4.73008 43.5586 4.82008 43.5586 4.86008 43.5586L9.55008 44.1286C9.98008 44.1786 10.3101 44.4986 10.3101 44.8586V49.4286C10.3101 49.5286 10.2901 49.6286 10.2401 49.7186L4.80008 60.3886C4.72008 60.5486 4.54008 60.6486 4.34008 60.6486C4.06008 60.6486 3.83008 60.4686 3.83008 60.2286V44.2986C3.83008 44.0986 3.92008 43.9186 4.09008 43.7786C4.26008 43.6386 4.48008 43.5686 4.72008 43.5686L4.73008 43.5586Z" fill="#676767"/>
<path d="M4.73008 43.5586C4.73008 43.5586 4.82008 43.5586 4.86008 43.5586L9.55008 44.1286C9.98008 44.1786 10.3101 44.4986 10.3101 44.8586V49.4286C10.3101 49.5286 10.2901 49.6286 10.2401 49.7186L4.80008 60.3886C4.72008 60.5486 4.54008 60.6486 4.34008 60.6486C4.06008 60.6486 3.83008 60.4686 3.83008 60.2286V44.2986C3.83008 44.0986 3.92008 43.9186 4.09008 43.7786C4.26008 43.6386 4.48008 43.5686 4.72008 43.5686L4.73008 43.5586Z" fill="url(#paint22_linear_2227_85865)"/>
<path d="M4.49992 60.2789L9.93992 49.6089C9.96992 49.5489 9.97992 49.4889 9.97992 49.4289V44.8589C9.97992 44.6289 9.77992 44.4389 9.49992 44.3989L4.80992 43.8289C4.46992 43.7889 4.16992 44.0089 4.16992 44.2889V60.2189C4.16992 60.3689 4.41992 60.4189 4.49992 60.2689V60.2789Z" fill="#010101"/>
<path d="M4.76977 44.1172L9.45977 44.6872C9.56977 44.6972 9.64977 44.7772 9.64977 44.8672V49.4372C9.64977 49.4372 9.64977 49.4872 9.62977 49.5072L4.50977 59.5572V44.2972C4.50977 44.2972 4.52977 44.1972 4.57977 44.1672C4.61977 44.1372 4.67977 44.1172 4.73977 44.1172H4.76977Z" fill="#686C86"/>
<path opacity="0.2" d="M6.14977 44.2794L4.76977 44.1094H4.73977C4.67977 44.1094 4.62977 44.1294 4.57977 44.1594C4.53977 44.1994 4.50977 44.2394 4.50977 44.2894V59.5494L6.14977 56.3294V44.2694V44.2794Z" fill="#010101"/>
<path opacity="0.5" d="M4.76977 44.1172L9.45977 44.6872C9.56977 44.6972 9.64977 44.7772 9.64977 44.8672V49.4372C9.64977 49.4372 9.64977 49.4872 9.62977 49.5072L4.50977 59.5572V44.2972C4.50977 44.2972 4.52977 44.1972 4.57977 44.1672C4.61977 44.1372 4.67977 44.1172 4.73977 44.1172H4.76977Z" fill="url(#paint23_linear_2227_85865)"/>
<path style="mix-blend-mode:overlay" opacity="0.3" d="M4.76977 44.1172L9.45977 44.6872C9.56977 44.6972 9.64977 44.7772 9.64977 44.8672V49.4372C9.64977 49.4372 9.64977 49.4872 9.62977 49.5072L4.50977 59.5572V44.2972C4.50977 44.2972 4.52977 44.1972 4.57977 44.1672C4.61977 44.1372 4.67977 44.1172 4.73977 44.1172H4.76977Z" fill="url(#paint24_linear_2227_85865)"/>
<path d="M4.54984 33.0977C4.60984 33.0977 4.66984 33.0977 4.72984 33.1177L9.79984 34.2377C10.1098 34.3077 10.3198 34.5377 10.3198 34.7977V43.4277C10.3198 43.7477 9.99984 44.0077 9.61984 44.0077H9.50984L4.43984 43.3477C4.08984 43.3077 3.83984 43.0577 3.83984 42.7677V33.6777C3.83984 33.3577 4.15985 33.0977 4.53985 33.0977H4.54984Z" fill="#676767"/>
<path d="M4.54984 33.0977C4.60984 33.0977 4.66984 33.0977 4.72984 33.1177L9.79984 34.2377C10.1098 34.3077 10.3198 34.5377 10.3198 34.7977V43.4277C10.3198 43.7477 9.99984 44.0077 9.61984 44.0077H9.50984L4.43984 43.3477C4.08984 43.3077 3.83984 43.0577 3.83984 42.7677V33.6777C3.83984 33.3577 4.15985 33.0977 4.53985 33.0977H4.54984Z" fill="url(#paint25_linear_2227_85865)"/>
<path d="M9.55968 43.7286L4.48969 43.0786C4.30969 43.0586 4.17969 42.9286 4.17969 42.7786V33.6886C4.17969 33.4886 4.40968 33.3386 4.64968 33.3886L9.71968 34.5086C9.87968 34.5486 9.99969 34.6686 9.99969 34.8086V43.4386C9.99969 43.6286 9.79969 43.7686 9.56969 43.7386L9.55968 43.7286Z" fill="#010101"/>
<path d="M9.61977 34.7684L9.64977 43.4284L4.53977 42.7984L4.50977 33.6784L4.54977 33.6484L9.61977 34.7684Z" fill="#686C86"/>
<path opacity="0.2" d="M6.14977 42.9984V33.9984C5.25977 33.7984 4.54977 33.6484 4.54977 33.6484L4.50977 33.6784L4.53977 42.7984L6.14977 42.9984Z" fill="#010101"/>
<path opacity="0.5" d="M9.61977 34.7684L9.64977 43.4284L4.53977 42.7984L4.50977 33.6784L4.54977 33.6484L9.61977 34.7684Z" fill="url(#paint26_linear_2227_85865)"/>
<path style="mix-blend-mode:overlay" opacity="0.3" d="M9.61977 34.7684L9.64977 43.4284L4.53977 42.7984L4.50977 33.6784L4.54977 33.6484L9.61977 34.7684Z" fill="url(#paint27_linear_2227_85865)"/>
<path d="M4.47961 22.6992C4.72961 22.6992 4.94961 22.8192 5.04961 23.0092L10.2596 32.4892C10.2996 32.5592 10.3196 32.6292 10.3196 32.7092V33.5692C10.3196 33.8592 10.0396 34.0892 9.68961 34.0892C9.62961 34.0892 9.56961 34.0892 9.50961 34.0692L4.29961 32.7692C4.02961 32.6992 3.84961 32.4992 3.84961 32.2692V23.2392C3.84961 22.9492 4.12961 22.7192 4.47961 22.7192V22.6992Z" fill="#676767"/>
<path d="M4.47961 22.6992C4.72961 22.6992 4.94961 22.8192 5.04961 23.0092L10.2596 32.4892C10.2996 32.5592 10.3196 32.6292 10.3196 32.7092V33.5692C10.3196 33.8592 10.0396 34.0892 9.68961 34.0892C9.62961 34.0892 9.56961 34.0892 9.50961 34.0692L4.29961 32.7692C4.02961 32.6992 3.84961 32.4992 3.84961 32.2692V23.2392C3.84961 22.9492 4.12961 22.7192 4.47961 22.7192V22.6992Z" fill="url(#paint28_linear_2227_85865)"/>
<path d="M9.59969 33.79L4.38969 32.49C4.25969 32.46 4.17969 32.36 4.17969 32.25V23.22C4.17969 22.96 4.60969 22.88 4.74969 23.12L9.95969 32.6C9.95969 32.6 9.98969 32.67 9.98969 32.7V33.56C9.98969 33.72 9.79969 33.84 9.60969 33.8L9.59969 33.79Z" fill="#010101"/>
<path d="M9.64949 32.7094V33.5594L4.47949 32.2194L4.50949 23.3594L9.64949 32.7094Z" fill="#686C86"/>
<path opacity="0.2" d="M6.14949 26.3394L4.50949 23.3594L4.47949 32.2194L6.14949 32.6494V26.3394Z" fill="#010101"/>
<path opacity="0.5" d="M9.64949 32.7094V33.5594L4.47949 32.2194L4.50949 23.3594L9.64949 32.7094Z" fill="url(#paint29_linear_2227_85865)"/>
<path style="mix-blend-mode:overlay" opacity="0.3" d="M9.64949 32.7094V33.5594L4.47949 32.2194L4.50949 23.3594L9.64949 32.7094Z" fill="url(#paint30_linear_2227_85865)"/>
<path d="M40.04 43.5586C40.04 43.5586 39.95 43.5586 39.91 43.5586L35.22 44.1286C34.79 44.1786 34.46 44.4986 34.46 44.8586V49.4286C34.46 49.5286 34.48 49.6286 34.53 49.7186L39.97 60.3886C40.05 60.5486 40.23 60.6486 40.43 60.6486C40.71 60.6486 40.94 60.4686 40.94 60.2286V44.2986C40.94 44.0986 40.85 43.9186 40.68 43.7786C40.51 43.6386 40.29 43.5686 40.05 43.5686L40.04 43.5586Z" fill="#676767"/>
<path d="M40.04 43.5586C40.04 43.5586 39.95 43.5586 39.91 43.5586L35.22 44.1286C34.79 44.1786 34.46 44.4986 34.46 44.8586V49.4286C34.46 49.5286 34.48 49.6286 34.53 49.7186L39.97 60.3886C40.05 60.5486 40.23 60.6486 40.43 60.6486C40.71 60.6486 40.94 60.4686 40.94 60.2286V44.2986C40.94 44.0986 40.85 43.9186 40.68 43.7786C40.51 43.6386 40.29 43.5686 40.05 43.5686L40.04 43.5586Z" fill="url(#paint31_linear_2227_85865)"/>
<path d="M40.27 60.2789L34.83 49.6089C34.8 49.5489 34.79 49.4889 34.79 49.4289V44.8589C34.79 44.6289 34.99 44.4389 35.27 44.3989L39.96 43.8289C40.3 43.7889 40.6 44.0089 40.6 44.2889V60.2189C40.6 60.3689 40.35 60.4189 40.27 60.2689V60.2789Z" fill="#010101"/>
<path d="M40.0099 44.1172L35.3199 44.6872C35.2099 44.6972 35.1299 44.7772 35.1299 44.8672V49.4372C35.1299 49.4372 35.1299 49.4872 35.1499 49.5072L40.2699 59.5572V44.2972C40.2699 44.2972 40.2499 44.1972 40.1999 44.1672C40.1599 44.1372 40.0999 44.1172 40.0399 44.1172H40.0099Z" fill="#686C86"/>
<path opacity="0.2" d="M38.6299 44.2794L40.0099 44.1094H40.0399C40.0999 44.1094 40.1499 44.1294 40.1999 44.1594C40.2399 44.1994 40.2699 44.2394 40.2699 44.2894V59.5494L38.6299 56.3294V44.2694V44.2794Z" fill="#010101"/>
<path opacity="0.5" d="M40.0099 44.1172L35.3199 44.6872C35.2099 44.6972 35.1299 44.7772 35.1299 44.8672V49.4372C35.1299 49.4372 35.1299 49.4872 35.1499 49.5072L40.2699 59.5572V44.2972C40.2699 44.2972 40.2499 44.1972 40.1999 44.1672C40.1599 44.1372 40.0999 44.1172 40.0399 44.1172H40.0099Z" fill="url(#paint32_linear_2227_85865)"/>
<path style="mix-blend-mode:overlay" opacity="0.3" d="M40.0099 44.1172L35.3199 44.6872C35.2099 44.6972 35.1299 44.7772 35.1299 44.8672V49.4372C35.1299 49.4372 35.1299 49.4872 35.1499 49.5072L40.2699 59.5572V44.2972C40.2699 44.2972 40.2499 44.1972 40.1999 44.1672C40.1599 44.1372 40.0999 44.1172 40.0399 44.1172H40.0099Z" fill="url(#paint33_linear_2227_85865)"/>
<path d="M40.23 33.0977C40.17 33.0977 40.11 33.0977 40.05 33.1177L34.98 34.2377C34.67 34.3077 34.46 34.5377 34.46 34.7977V43.4277C34.46 43.7477 34.78 44.0077 35.16 44.0077H35.27L40.34 43.3477C40.69 43.3077 40.94 43.0577 40.94 42.7677V33.6777C40.94 33.3577 40.62 33.0977 40.24 33.0977H40.23Z" fill="#676767"/>
<path d="M40.23 33.0977C40.17 33.0977 40.11 33.0977 40.05 33.1177L34.98 34.2377C34.67 34.3077 34.46 34.5377 34.46 34.7977V43.4277C34.46 43.7477 34.78 44.0077 35.16 44.0077H35.27L40.34 43.3477C40.69 43.3077 40.94 43.0577 40.94 42.7677V33.6777C40.94 33.3577 40.62 33.0977 40.24 33.0977H40.23Z" fill="url(#paint34_linear_2227_85865)"/>
<path d="M35.2203 43.7286L40.2903 43.0786C40.4703 43.0586 40.6003 42.9286 40.6003 42.7786V33.6886C40.6003 33.4886 40.3703 33.3386 40.1303 33.3886L35.0603 34.5086C34.9003 34.5486 34.7803 34.6686 34.7803 34.8086V43.4386C34.7803 43.6286 34.9803 43.7686 35.2103 43.7386L35.2203 43.7286Z" fill="#010101"/>
<path d="M35.1499 34.7684L35.1299 43.4284L40.2299 42.7984L40.2699 33.6784L40.2299 33.6484L35.1499 34.7684Z" fill="#686C86"/>
<path opacity="0.2" d="M38.6299 42.9984V33.9984C39.5199 33.7984 40.2299 33.6484 40.2299 33.6484L40.2699 33.6784L40.2399 42.7984L38.6299 42.9984Z" fill="#010101"/>
<path opacity="0.5" d="M35.1499 34.7684L35.1299 43.4284L40.2299 42.7984L40.2699 33.6784L40.2299 33.6484L35.1499 34.7684Z" fill="url(#paint35_linear_2227_85865)"/>
<path style="mix-blend-mode:overlay" opacity="0.3" d="M35.1499 34.7684L35.1299 43.4284L40.2299 42.7984L40.2699 33.6784L40.2299 33.6484L35.1499 34.7684Z" fill="url(#paint36_linear_2227_85865)"/>
<path d="M40.3 22.6992C40.05 22.6992 39.83 22.8192 39.73 23.0092L34.52 32.4892C34.48 32.5592 34.46 32.6292 34.46 32.7092V33.5692C34.46 33.8592 34.74 34.0892 35.09 34.0892C35.15 34.0892 35.21 34.0892 35.27 34.0692L40.48 32.7692C40.75 32.6992 40.93 32.4992 40.93 32.2692V23.2392C40.93 22.9492 40.65 22.7192 40.3 22.7192V22.6992Z" fill="#676767"/>
<path d="M40.3 22.6992C40.05 22.6992 39.83 22.8192 39.73 23.0092L34.52 32.4892C34.48 32.5592 34.46 32.6292 34.46 32.7092V33.5692C34.46 33.8592 34.74 34.0892 35.09 34.0892C35.15 34.0892 35.21 34.0892 35.27 34.0692L40.48 32.7692C40.75 32.6992 40.93 32.4992 40.93 32.2692V23.2392C40.93 22.9492 40.65 22.7192 40.3 22.7192V22.6992Z" fill="url(#paint37_linear_2227_85865)"/>
<path d="M35.1703 33.79L40.3803 32.49C40.5103 32.46 40.5903 32.36 40.5903 32.25V23.22C40.5903 22.96 40.1603 22.88 40.0203 23.12L34.8103 32.6C34.8103 32.6 34.7803 32.67 34.7803 32.7V33.56C34.7803 33.72 34.9703 33.84 35.1603 33.8L35.1703 33.79Z" fill="#010101"/>
<path d="M35.1201 32.7094L35.1301 33.5594L40.2901 32.2194L40.2701 23.3594L35.1201 32.7094Z" fill="#686C86"/>
<path opacity="0.2" d="M38.6299 26.3394L40.2699 23.3594L40.2899 32.2194L38.6299 32.6494V26.3394Z" fill="#010101"/>
<path opacity="0.5" d="M35.1201 32.7094L35.1301 33.5594L40.2901 32.2194L40.2701 23.3594L35.1201 32.7094Z" fill="url(#paint38_linear_2227_85865)"/>
<path style="mix-blend-mode:overlay" opacity="0.3" d="M35.1201 32.7094L35.1301 33.5594L40.2901 32.2194L40.2701 23.3594L35.1201 32.7094Z" fill="url(#paint39_linear_2227_85865)"/>
<path d="M7.55023 63.7617C7.72023 63.7617 7.86024 63.8817 7.86024 64.0217V65.2517C7.86024 65.3917 7.72023 65.5117 7.55023 65.5117C7.38023 65.5117 7.24023 65.3917 7.24023 65.2517V64.0217C7.24023 63.8817 7.38023 63.7617 7.55023 63.7617Z" fill="#676767"/>
<path d="M7.59992 65.4416C7.70992 65.4016 7.77992 65.3216 7.77992 65.2216V64.0716C7.77992 63.9716 7.70992 63.8816 7.59992 63.8516C7.48992 63.8916 7.41992 63.9716 7.41992 64.0716V65.2216C7.41992 65.3216 7.48992 65.4116 7.59992 65.4416Z" fill="url(#paint40_linear_2227_85865)"/>
<path d="M8.76019 63.9922C8.93019 63.9922 9.0702 64.1122 9.0702 64.2522V65.4822C9.0702 65.6222 8.93019 65.7422 8.76019 65.7422C8.59019 65.7422 8.4502 65.6222 8.4502 65.4822V64.2522C8.4502 64.1122 8.59019 63.9922 8.76019 63.9922Z" fill="#676767"/>
<path d="M8.80988 65.672C8.91988 65.632 8.98988 65.552 8.98988 65.452V64.302C8.98988 64.202 8.91988 64.112 8.80988 64.082C8.69988 64.122 8.62988 64.202 8.62988 64.302V65.452C8.62988 65.552 8.69988 65.642 8.80988 65.672Z" fill="url(#paint41_linear_2227_85865)"/>
<path d="M9.9604 64.2617C10.1304 64.2617 10.2704 64.3817 10.2704 64.5217V65.7517C10.2704 65.8917 10.1304 66.0117 9.9604 66.0117C9.7904 66.0117 9.65039 65.8917 9.65039 65.7517V64.5217C9.65039 64.3817 9.7904 64.2617 9.9604 64.2617Z" fill="#676767"/>
<path d="M10.0208 65.9416C10.1308 65.9016 10.2008 65.8216 10.2008 65.7216V64.5716C10.2008 64.4716 10.1308 64.3816 10.0208 64.3516C9.91082 64.3916 9.84082 64.4716 9.84082 64.5716V65.7216C9.84082 65.8216 9.91082 65.9116 10.0208 65.9416Z" fill="url(#paint42_linear_2227_85865)"/>
<path d="M34.3598 66.0078C34.5298 66.0078 34.6698 65.8878 34.6698 65.7478V64.5178C34.6698 64.3778 34.5298 64.2578 34.3598 64.2578C34.1898 64.2578 34.0498 64.3778 34.0498 64.5178V65.7478C34.0498 65.8878 34.1898 66.0078 34.3598 66.0078Z" fill="#676767"/>
<path d="M34.4202 64.3359C34.5302 64.3759 34.6002 64.4559 34.6002 64.5559V65.7059C34.6002 65.8059 34.5302 65.8959 34.4202 65.9259C34.3102 65.8859 34.2402 65.8059 34.2402 65.7059V64.5559C34.2402 64.4559 34.3102 64.3659 34.4202 64.3359Z" fill="url(#paint43_linear_2227_85865)"/>
<path d="M35.5698 65.7891C35.7398 65.7891 35.8798 65.6691 35.8798 65.5291V64.2991C35.8798 64.1591 35.7398 64.0391 35.5698 64.0391C35.3998 64.0391 35.2598 64.1591 35.2598 64.2991V65.5291C35.2598 65.6691 35.3998 65.7891 35.5698 65.7891Z" fill="#676767"/>
<path d="M35.6302 64.1094C35.7402 64.1494 35.8102 64.2294 35.8102 64.3294V65.4794C35.8102 65.5794 35.7402 65.6694 35.6302 65.6994C35.5202 65.6594 35.4502 65.5794 35.4502 65.4794V64.3294C35.4502 64.2294 35.5202 64.1394 35.6302 64.1094Z" fill="url(#paint44_linear_2227_85865)"/>
<path d="M36.7797 65.5195C36.9497 65.5195 37.0897 65.3995 37.0897 65.2595V64.0295C37.0897 63.8895 36.9497 63.7695 36.7797 63.7695C36.6097 63.7695 36.4697 63.8895 36.4697 64.0295V65.2595C36.4697 65.3995 36.6097 65.5195 36.7797 65.5195Z" fill="#676767"/>
<path d="M36.8294 63.8398C36.9394 63.8798 37.0094 63.9598 37.0094 64.0598V65.2098C37.0094 65.3098 36.9394 65.3998 36.8294 65.4298C36.7194 65.3898 36.6494 65.3098 36.6494 65.2098V64.0598C36.6494 63.9598 36.7194 63.8698 36.8294 63.8398Z" fill="url(#paint45_linear_2227_85865)"/>
<path d="M38.4902 3.92188V4.56187C39.7002 5.17187 40.5202 6.27187 40.5202 7.54187V6.90187C40.5202 5.64187 39.7102 4.53188 38.4902 3.92188Z" fill="#F26722"/>
<path d="M40.5105 7.53281V7.36281C40.5105 6.10281 39.7005 4.99281 38.4805 4.38281V4.55281C39.6905 5.16281 40.5105 6.26281 40.5105 7.53281Z" fill="url(#paint46_radial_2227_85865)"/>
<path d="M38.49 3.92188C37.86 3.60188 37.12 3.42188 36.32 3.42188H33.67L33.5 4.06187H36.32C37.11 4.06187 37.85 4.25187 38.49 4.56187V3.92188Z" fill="#CB2026"/>
<path d="M33.54 3.91016L33.5 4.06015H36.32C37.11 4.06015 37.85 4.25015 38.49 4.56015V4.41016C37.86 4.09016 37.12 3.91016 36.32 3.91016H33.54Z" fill="url(#paint47_radial_2227_85865)"/>
<path opacity="0.3" d="M38.0099 4.21255C38.1099 4.26255 38.2299 4.32255 38.3299 4.27255C38.4199 4.23255 38.4299 4.11255 38.3799 4.04255C38.3299 3.97255 38.2299 3.92255 38.1299 3.89255C37.4899 3.65255 36.7899 3.58255 36.0899 3.55255C35.6899 3.54255 35.2899 3.55255 34.8999 3.55255C34.6699 3.55255 34.1399 3.46255 33.9699 3.65255C33.9099 3.72255 33.9099 3.88255 33.8799 3.96255C34.5399 3.96255 35.2099 3.95255 35.8699 3.96255C36.4399 3.96255 37.0199 3.98255 37.5799 4.09255C37.7299 4.12255 37.8799 4.16255 38.0099 4.22255V4.21255Z" fill="#640E0E"/>
<path opacity="0.5" d="M40.3597 6.26234C40.1597 5.90234 39.9597 5.54234 39.6797 5.22234C39.3997 4.90234 39.0397 4.62234 38.5997 4.47234C38.5697 4.36234 38.5997 4.25234 38.6597 4.15234C39.5397 4.62234 40.1697 5.40235 40.3497 6.25235L40.3597 6.26234Z" fill="#EF3D23"/>
<path d="M5.86984 3.92188V4.56187C4.65984 5.17187 3.83984 6.27187 3.83984 7.54187V6.90187C3.83984 5.64187 4.64984 4.53188 5.86984 3.92188Z" fill="#F26722"/>
<path d="M3.83984 7.53281V7.36281C3.83984 6.10281 4.64984 4.99281 5.86984 4.38281V4.55281C4.65984 5.16281 3.83984 6.26281 3.83984 7.53281Z" fill="url(#paint48_radial_2227_85865)"/>
<path d="M5.87012 3.92188C6.50012 3.60188 7.24012 3.42188 8.04012 3.42188H10.6901L10.8601 4.06187H8.04012C7.25012 4.06187 6.51012 4.25187 5.87012 4.56187V3.92188Z" fill="#CB2026"/>
<path d="M10.8201 3.91016L10.8601 4.06015H8.04012C7.25012 4.06015 6.51012 4.25015 5.87012 4.56015V4.41016C6.50012 4.09016 7.24012 3.91016 8.04012 3.91016H10.8201Z" fill="url(#paint49_radial_2227_85865)"/>
<path opacity="0.3" d="M6.35013 4.21255C6.25013 4.26255 6.13013 4.32255 6.03013 4.27255C5.94013 4.23255 5.93013 4.11255 5.98013 4.04255C6.04013 3.97255 6.13013 3.92255 6.23013 3.89255C6.87013 3.65255 7.57013 3.58255 8.27013 3.55255C8.67013 3.54255 9.07013 3.55255 9.46013 3.55255C9.69013 3.55255 10.2201 3.46255 10.3901 3.65255C10.4501 3.72255 10.4501 3.88255 10.4801 3.96255C9.82013 3.96255 9.15013 3.95255 8.49013 3.96255C7.92013 3.96255 7.34013 3.98255 6.78013 4.09255C6.63013 4.12255 6.48013 4.16255 6.35013 4.22255V4.21255Z" fill="#640E0E"/>
<path opacity="0.5" d="M3.99023 6.26234C4.19023 5.90234 4.39023 5.54234 4.67023 5.22234C4.95023 4.90234 5.31024 4.62234 5.75024 4.47234C5.78024 4.36234 5.75023 4.25234 5.69023 4.15234C4.81023 4.62234 4.18024 5.40235 4.00024 6.25235L3.99023 6.26234Z" fill="#EF3D23"/>
<path d="M20.6104 3.73078C20.6104 3.63078 20.9103 3.55078 21.2803 3.55078H24.4804C24.8504 3.55078 25.1504 3.63078 25.1504 3.73078C25.1504 3.83078 24.8504 3.91078 24.4804 3.91078H21.2803C20.9103 3.91078 20.6104 3.83078 20.6104 3.73078Z" fill="#676767"/>
<path d="M24.9506 3.68984C24.8606 3.62984 24.6306 3.58984 24.3706 3.58984H21.3905C21.1305 3.58984 20.9105 3.62984 20.8105 3.68984C20.9005 3.74984 21.1305 3.78984 21.3905 3.78984H24.3706C24.6306 3.78984 24.8506 3.74984 24.9506 3.68984Z" fill="url(#paint50_linear_2227_85865)"/>
<path style="mix-blend-mode:overlay" opacity="0.5" d="M20.8 52.9022H21.11C21.11 52.9022 20.29 42.0022 21.11 29.4922C21.11 29.4922 21 29.4922 20.8 29.4922C19.99 41.8322 20.78 52.6022 20.8 52.8922V52.9022Z" fill="url(#paint51_linear_2227_85865)"/>
<path style="mix-blend-mode:overlay" opacity="0.5" d="M10.2297 52.4414C13.4497 53.1014 17.5697 53.2414 20.4797 53.2314C17.6097 53.2314 13.7197 53.0814 10.6197 52.4614L10.2197 52.4414H10.2297Z" fill="url(#paint52_linear_2227_85865)"/>
<path style="mix-blend-mode:overlay" opacity="0.5" d="M6.23985 4.40164C6.68985 4.17164 8.83985 3.21164 14.0298 3.19164C7.88985 3.17164 5.83984 4.45164 5.83984 4.45164C5.95984 4.43164 6.08985 4.42164 6.23985 4.40164Z" fill="url(#paint53_linear_2227_85865)"/>
<path style="mix-blend-mode:overlay" opacity="0.5" d="M15.96 86.0703L16.14 86.6803H16.45L16.27 86.0703H15.96Z" fill="url(#paint54_linear_2227_85865)"/>
<path style="mix-blend-mode:overlay" opacity="0.5" d="M18.6494 3.39219C18.7594 3.39219 18.8695 3.41219 18.9795 3.42219C18.9795 3.42219 18.0995 2.67219 18.9795 1.99219H18.6695C17.8895 2.60219 18.4995 3.26219 18.6395 3.40219L18.6494 3.39219Z" fill="url(#paint55_linear_2227_85865)"/>
<path style="mix-blend-mode:overlay" opacity="0.5" d="M22.3497 86.6836H22.0397C20.9397 87.3536 22.0397 88.0836 22.0397 88.0836H22.3497C22.3497 88.0836 21.2497 87.3536 22.3497 86.6836Z" fill="url(#paint56_linear_2227_85865)"/>
<path d="M40.2695 58.9283L44.7795 57.4883V58.1883C44.7795 58.5183 44.5395 58.8083 44.1695 58.9283L40.2695 60.1783V58.9383V58.9283Z" fill="#010101"/>
<path opacity="0.4" d="M40.2695 58.8384L44.7795 57.3984V58.0984C44.7795 58.4284 44.5395 58.7184 44.1695 58.8384L40.2695 60.0884V58.8484V58.8384Z" fill="url(#paint57_linear_2227_85865)"/>
<path d="M41.5594 57.9501L44.4094 57.1801C44.5894 57.1301 44.7794 57.2401 44.7794 57.4001V58.2601L41.3594 59.1801V58.1702C41.3594 58.0702 41.4394 57.9801 41.5594 57.9501Z" fill="#333333"/>
<path d="M41.5594 57.9501L44.4094 57.1801C44.5894 57.1301 44.7794 57.2401 44.7794 57.4001V58.2601L41.3594 59.1801V58.1702C41.3594 58.0702 41.4394 57.9801 41.5594 57.9501Z" fill="url(#paint58_linear_2227_85865)"/>
<path d="M4.50999 58.9283L0 57.4883V58.1883C0 58.5183 0.240001 58.8083 0.610001 58.9283L4.50999 60.1783V58.9383V58.9283Z" fill="#010101"/>
<path opacity="0.4" d="M4.50999 58.8384L0 57.3984V58.0984C0 58.4284 0.240001 58.7184 0.610001 58.8384L4.50999 60.0884V58.8484V58.8384Z" fill="url(#paint59_linear_2227_85865)"/>
<path d="M3.21999 57.9501L0.369995 57.1801C0.189995 57.1301 0 57.2401 0 57.4001V58.2601L3.42 59.1801V58.1702C3.42 58.0702 3.33999 57.9801 3.21999 57.9501Z" fill="#333333"/>
<path d="M3.21999 57.9501L0.369995 57.1801C0.189995 57.1301 0 57.2401 0 57.4001V58.2601L3.42 59.1801V58.1702C3.42 58.0702 3.33999 57.9801 3.21999 57.9501Z" fill="url(#paint60_linear_2227_85865)"/>
<defs>
<linearGradient id="paint0_linear_2227_85865" x1="35.29" y1="1.4275" x2="9.48003" y2="1.4275" gradientUnits="userSpaceOnUse">
<stop stop-color="#C8C5C5"/>
<stop offset="0.04" stop-color="#676868"/>
<stop offset="0.11" stop-color="white"/>
<stop offset="0.3" stop-color="#939292"/>
<stop offset="0.49" stop-color="white"/>
<stop offset="0.63" stop-color="#676868"/>
<stop offset="0.77" stop-color="#939292"/>
<stop offset="0.82" stop-color="#C8C5C5"/>
<stop offset="1" stop-color="#343433"/>
</linearGradient>
<linearGradient id="paint1_linear_2227_85865" x1="22.39" y1="2.36969" x2="22.39" y2="1.17969" gradientUnits="userSpaceOnUse">
<stop stop-color="#010101"/>
<stop offset="1" stop-color="#010101" stop-opacity="0"/>
</linearGradient>
<linearGradient id="paint2_linear_2227_85865" x1="30.6399" y1="1.05531" x2="35.4799" y2="1.05531" gradientUnits="userSpaceOnUse">
<stop stop-color="#C8C5C5"/>
<stop offset="0.04" stop-color="#676868"/>
<stop offset="0.11" stop-color="white"/>
<stop offset="0.3" stop-color="#939292"/>
<stop offset="0.49" stop-color="white"/>
<stop offset="0.63" stop-color="#676868"/>
<stop offset="0.77" stop-color="#939292"/>
<stop offset="0.82" stop-color="#C8C5C5"/>
<stop offset="1" stop-color="#343433"/>
</linearGradient>
<linearGradient id="paint3_linear_2227_85865" x1="31.8102" y1="-0.3525" x2="31.8102" y2="2.8775" gradientUnits="userSpaceOnUse">
<stop stop-color="#C8C5C5"/>
<stop offset="0.04" stop-color="#676868"/>
<stop offset="0.11" stop-color="white"/>
<stop offset="0.3" stop-color="#939292"/>
<stop offset="0.49" stop-color="white"/>
<stop offset="0.63" stop-color="#676868"/>
<stop offset="0.77" stop-color="#939292"/>
<stop offset="0.82" stop-color="#C8C5C5"/>
<stop offset="1" stop-color="#343433"/>
</linearGradient>
<linearGradient id="paint4_linear_2227_85865" x1="11.7903" y1="1.05531" x2="16.6303" y2="1.05531" gradientUnits="userSpaceOnUse">
<stop stop-color="#C8C5C5"/>
<stop offset="0.04" stop-color="#676868"/>
<stop offset="0.11" stop-color="white"/>
<stop offset="0.3" stop-color="#939292"/>
<stop offset="0.49" stop-color="white"/>
<stop offset="0.63" stop-color="#676868"/>
<stop offset="0.77" stop-color="#939292"/>
<stop offset="0.82" stop-color="#C8C5C5"/>
<stop offset="1" stop-color="#343433"/>
</linearGradient>
<linearGradient id="paint5_linear_2227_85865" x1="12.9603" y1="0.0775001" x2="12.9603" y2="2.3775" gradientUnits="userSpaceOnUse">
<stop stop-color="#C8C5C5"/>
<stop offset="0.04" stop-color="#676868"/>
<stop offset="0.11" stop-color="white"/>
<stop offset="0.3" stop-color="#939292"/>
<stop offset="0.49" stop-color="white"/>
<stop offset="0.63" stop-color="#676868"/>
<stop offset="0.77" stop-color="#939292"/>
<stop offset="0.82" stop-color="#C8C5C5"/>
<stop offset="1" stop-color="#343433"/>
</linearGradient>
<linearGradient id="paint6_linear_2227_85865" x1="32.54" y1="88.5798" x2="12.23" y2="88.5798" gradientUnits="userSpaceOnUse">
<stop stop-color="#C8C5C5"/>
<stop offset="0.04" stop-color="#676868"/>
<stop offset="0.11" stop-color="white"/>
<stop offset="0.3" stop-color="#939292"/>
<stop offset="0.49" stop-color="white"/>
<stop offset="0.63" stop-color="#676868"/>
<stop offset="0.77" stop-color="#939292"/>
<stop offset="0.82" stop-color="#C8C5C5"/>
<stop offset="1" stop-color="#343433"/>
</linearGradient>
<linearGradient id="paint7_linear_2227_85865" x1="22.39" y1="87.5916" x2="22.39" y2="88.7816" gradientUnits="userSpaceOnUse">
<stop stop-color="#010101"/>
<stop offset="1" stop-color="#010101" stop-opacity="0"/>
</linearGradient>
<linearGradient id="paint8_linear_2227_85865" x1="28.8702" y1="88.9577" x2="32.6802" y2="88.9577" gradientUnits="userSpaceOnUse">
<stop stop-color="#C8C5C5"/>
<stop offset="0.04" stop-color="#676868"/>
<stop offset="0.11" stop-color="white"/>
<stop offset="0.3" stop-color="#939292"/>
<stop offset="0.49" stop-color="white"/>
<stop offset="0.63" stop-color="#676868"/>
<stop offset="0.77" stop-color="#939292"/>
<stop offset="0.82" stop-color="#C8C5C5"/>
<stop offset="1" stop-color="#343433"/>
</linearGradient>
<linearGradient id="paint9_linear_2227_85865" x1="29.8002" y1="90.3599" x2="29.8002" y2="87.1298" gradientUnits="userSpaceOnUse">
<stop stop-color="#C8C5C5"/>
<stop offset="0.04" stop-color="#676868"/>
<stop offset="0.11" stop-color="white"/>
<stop offset="0.3" stop-color="#939292"/>
<stop offset="0.49" stop-color="white"/>
<stop offset="0.63" stop-color="#676868"/>
<stop offset="0.77" stop-color="#939292"/>
<stop offset="0.82" stop-color="#C8C5C5"/>
<stop offset="1" stop-color="#343433"/>
</linearGradient>
<linearGradient id="paint10_linear_2227_85865" x1="14.0401" y1="88.9577" x2="17.8501" y2="88.9577" gradientUnits="userSpaceOnUse">
<stop stop-color="#C8C5C5"/>
<stop offset="0.04" stop-color="#676868"/>
<stop offset="0.11" stop-color="white"/>
<stop offset="0.3" stop-color="#939292"/>
<stop offset="0.49" stop-color="white"/>
<stop offset="0.63" stop-color="#676868"/>
<stop offset="0.77" stop-color="#939292"/>
<stop offset="0.82" stop-color="#C8C5C5"/>
<stop offset="1" stop-color="#343433"/>
</linearGradient>
<linearGradient id="paint11_linear_2227_85865" x1="14.9702" y1="89.9299" x2="14.9702" y2="87.6298" gradientUnits="userSpaceOnUse">
<stop stop-color="#C8C5C5"/>
<stop offset="0.04" stop-color="#676868"/>
<stop offset="0.11" stop-color="white"/>
<stop offset="0.3" stop-color="#939292"/>
<stop offset="0.49" stop-color="white"/>
<stop offset="0.63" stop-color="#676868"/>
<stop offset="0.77" stop-color="#939292"/>
<stop offset="0.82" stop-color="#C8C5C5"/>
<stop offset="1" stop-color="#343433"/>
</linearGradient>
<linearGradient id="paint12_linear_2227_85865" x1="22.3404" y1="87.2102" x2="22.3404" y2="86.6802" gradientUnits="userSpaceOnUse">
<stop stop-color="#010101" stop-opacity="0"/>
<stop offset="0.99" stop-color="#010101"/>
</linearGradient>
<linearGradient id="paint13_linear_2227_85865" x1="22.3404" y1="86.8302" x2="22.3404" y2="88.0702" gradientUnits="userSpaceOnUse">
<stop offset="0.42" stop-color="white" stop-opacity="0"/>
<stop offset="1" stop-color="white"/>
</linearGradient>
<linearGradient id="paint14_linear_2227_85865" x1="22.3397" y1="3.39016" x2="22.3397" y2="4.12016" gradientUnits="userSpaceOnUse">
<stop stop-color="#010101"/>
<stop offset="1" stop-color="#010101" stop-opacity="0"/>
</linearGradient>
<radialGradient id="paint15_radial_2227_85865" cx="0" cy="0" r="1" gradientUnits="userSpaceOnUse" gradientTransform="translate(17.5373 44.2108) scale(0.605 0.5)">
<stop stop-color="white" stop-opacity="0"/>
<stop offset="1" stop-color="white"/>
</radialGradient>
<linearGradient id="paint16_linear_2227_85865" x1="22.3404" y1="64.5812" x2="22.3404" y2="63.7012" gradientUnits="userSpaceOnUse">
<stop stop-color="#010101"/>
<stop offset="1" stop-color="#010101" stop-opacity="0"/>
</linearGradient>
<radialGradient id="paint17_radial_2227_85865" cx="0" cy="0" r="1" gradientUnits="userSpaceOnUse" gradientTransform="translate(45.2721 58.4694) rotate(-180) scale(29.6208 24.48)">
<stop stop-color="white" stop-opacity="0"/>
<stop offset="1" stop-color="white"/>
</radialGradient>
<radialGradient id="paint18_radial_2227_85865" cx="0" cy="0" r="1" gradientUnits="userSpaceOnUse" gradientTransform="translate(41.8599 57.0794) rotate(-180) scale(28.5076 23.56)">
<stop offset="0.01" stop-color="#010101"/>
<stop offset="1" stop-color="#010101" stop-opacity="0"/>
</radialGradient>
<linearGradient id="paint19_linear_2227_85865" x1="22.3404" y1="17.2994" x2="22.3404" y2="18.1794" gradientUnits="userSpaceOnUse">
<stop stop-color="#010101"/>
<stop offset="1" stop-color="#010101" stop-opacity="0"/>
</linearGradient>
<radialGradient id="paint20_radial_2227_85865" cx="0" cy="0" r="1" gradientUnits="userSpaceOnUse" gradientTransform="translate(45.2721 23.3384) rotate(-180) scale(29.6208 24.48)">
<stop stop-color="white" stop-opacity="0"/>
<stop offset="1" stop-color="white"/>
</radialGradient>
<radialGradient id="paint21_radial_2227_85865" cx="0" cy="0" r="1" gradientUnits="userSpaceOnUse" gradientTransform="translate(38.6292 27.6184) rotate(180) scale(39.0951 32.31)">
<stop offset="0.01" stop-color="#010101"/>
<stop offset="1" stop-color="#010101" stop-opacity="0"/>
</radialGradient>
<linearGradient id="paint22_linear_2227_85865" x1="3.79008" y1="52.0986" x2="4.19008" y2="52.0986" gradientUnits="userSpaceOnUse">
<stop stop-color="#010101"/>
<stop offset="1" stop-color="#010101" stop-opacity="0"/>
</linearGradient>
<linearGradient id="paint23_linear_2227_85865" x1="4.53977" y1="51.8372" x2="6.19977" y2="51.8372" gradientUnits="userSpaceOnUse">
<stop stop-color="white"/>
<stop offset="1" stop-color="white" stop-opacity="0"/>
</linearGradient>
<linearGradient id="paint24_linear_2227_85865" x1="7.30977" y1="51.8372" x2="9.55977" y2="51.8372" gradientUnits="userSpaceOnUse">
<stop stop-color="#010101" stop-opacity="0"/>
<stop offset="0.99" stop-color="#010101"/>
</linearGradient>
<linearGradient id="paint25_linear_2227_85865" x1="3.84984" y1="38.5477" x2="4.18984" y2="38.5477" gradientUnits="userSpaceOnUse">
<stop stop-color="#010101"/>
<stop offset="1" stop-color="#010101" stop-opacity="0"/>
</linearGradient>
<linearGradient id="paint26_linear_2227_85865" x1="4.53977" y1="38.5384" x2="6.19977" y2="38.5384" gradientUnits="userSpaceOnUse">
<stop stop-color="white"/>
<stop offset="1" stop-color="white" stop-opacity="0"/>
</linearGradient>
<linearGradient id="paint27_linear_2227_85865" x1="7.30977" y1="38.5384" x2="9.55977" y2="38.5384" gradientUnits="userSpaceOnUse">
<stop stop-color="#010101" stop-opacity="0"/>
<stop offset="0.99" stop-color="#010101"/>
</linearGradient>
<linearGradient id="paint28_linear_2227_85865" x1="3.84961" y1="28.3892" x2="4.18961" y2="28.3892" gradientUnits="userSpaceOnUse">
<stop stop-color="#010101"/>
<stop offset="1" stop-color="#010101" stop-opacity="0"/>
</linearGradient>
<linearGradient id="paint29_linear_2227_85865" x1="4.53949" y1="28.4594" x2="6.19949" y2="28.4594" gradientUnits="userSpaceOnUse">
<stop stop-color="white"/>
<stop offset="1" stop-color="white" stop-opacity="0"/>
</linearGradient>
<linearGradient id="paint30_linear_2227_85865" x1="7.30949" y1="28.4594" x2="9.55949" y2="28.4594" gradientUnits="userSpaceOnUse">
<stop stop-color="#010101" stop-opacity="0"/>
<stop offset="0.99" stop-color="#010101"/>
</linearGradient>
<linearGradient id="paint31_linear_2227_85865" x1="40.98" y1="52.0986" x2="40.58" y2="52.0986" gradientUnits="userSpaceOnUse">
<stop stop-color="#010101"/>
<stop offset="1" stop-color="#010101" stop-opacity="0"/>
</linearGradient>
<linearGradient id="paint32_linear_2227_85865" x1="40.2399" y1="51.8372" x2="38.5699" y2="51.8372" gradientUnits="userSpaceOnUse">
<stop stop-color="white"/>
<stop offset="1" stop-color="white" stop-opacity="0"/>
</linearGradient>
<linearGradient id="paint33_linear_2227_85865" x1="37.4599" y1="51.8372" x2="35.2099" y2="51.8372" gradientUnits="userSpaceOnUse">
<stop stop-color="#010101" stop-opacity="0"/>
<stop offset="0.99" stop-color="#010101"/>
</linearGradient>
<linearGradient id="paint34_linear_2227_85865" x1="40.92" y1="38.5477" x2="40.58" y2="38.5477" gradientUnits="userSpaceOnUse">
<stop stop-color="#010101"/>
<stop offset="1" stop-color="#010101" stop-opacity="0"/>
</linearGradient>
<linearGradient id="paint35_linear_2227_85865" x1="40.2399" y1="38.5384" x2="38.5699" y2="38.5384" gradientUnits="userSpaceOnUse">
<stop stop-color="white"/>
<stop offset="1" stop-color="white" stop-opacity="0"/>
</linearGradient>
<linearGradient id="paint36_linear_2227_85865" x1="37.4599" y1="38.5384" x2="35.2099" y2="38.5384" gradientUnits="userSpaceOnUse">
<stop stop-color="#010101" stop-opacity="0"/>
<stop offset="0.99" stop-color="#010101"/>
</linearGradient>
<linearGradient id="paint37_linear_2227_85865" x1="40.92" y1="28.3892" x2="40.58" y2="28.3892" gradientUnits="userSpaceOnUse">
<stop stop-color="#010101"/>
<stop offset="1" stop-color="#010101" stop-opacity="0"/>
</linearGradient>
<linearGradient id="paint38_linear_2227_85865" x1="40.2401" y1="28.4594" x2="38.5701" y2="28.4594" gradientUnits="userSpaceOnUse">
<stop stop-color="white"/>
<stop offset="1" stop-color="white" stop-opacity="0"/>
</linearGradient>
<linearGradient id="paint39_linear_2227_85865" x1="37.4601" y1="28.4594" x2="35.2101" y2="28.4594" gradientUnits="userSpaceOnUse">
<stop stop-color="#010101" stop-opacity="0"/>
<stop offset="0.99" stop-color="#010101"/>
</linearGradient>
<linearGradient id="paint40_linear_2227_85865" x1="7.77992" y1="64.6416" x2="7.41992" y2="64.6416" gradientUnits="userSpaceOnUse">
<stop stop-color="#010101"/>
<stop offset="1" stop-color="#010101" stop-opacity="0"/>
</linearGradient>
<linearGradient id="paint41_linear_2227_85865" x1="8.98988" y1="64.872" x2="8.62988" y2="64.872" gradientUnits="userSpaceOnUse">
<stop stop-color="#010101"/>
<stop offset="1" stop-color="#010101" stop-opacity="0"/>
</linearGradient>
<linearGradient id="paint42_linear_2227_85865" x1="10.2008" y1="65.1416" x2="9.84082" y2="65.1416" gradientUnits="userSpaceOnUse">
<stop stop-color="#010101"/>
<stop offset="1" stop-color="#010101" stop-opacity="0"/>
</linearGradient>
<linearGradient id="paint43_linear_2227_85865" x1="34.6002" y1="65.1359" x2="34.2402" y2="65.1359" gradientUnits="userSpaceOnUse">
<stop stop-color="#010101"/>
<stop offset="1" stop-color="#010101" stop-opacity="0"/>
</linearGradient>
<linearGradient id="paint44_linear_2227_85865" x1="35.8002" y1="64.9094" x2="35.4402" y2="64.9094" gradientUnits="userSpaceOnUse">
<stop stop-color="#010101"/>
<stop offset="1" stop-color="#010101" stop-opacity="0"/>
</linearGradient>
<linearGradient id="paint45_linear_2227_85865" x1="37.0094" y1="64.6398" x2="36.6494" y2="64.6398" gradientUnits="userSpaceOnUse">
<stop stop-color="#010101"/>
<stop offset="1" stop-color="#010101" stop-opacity="0"/>
</linearGradient>
<radialGradient id="paint46_radial_2227_85865" cx="0" cy="0" r="1" gradientUnits="userSpaceOnUse" gradientTransform="translate(45.5258 5.96281) rotate(180) scale(1.5246 1.26)">
<stop stop-color="white" stop-opacity="0"/>
<stop offset="1" stop-color="white"/>
</radialGradient>
<radialGradient id="paint47_radial_2227_85865" cx="0" cy="0" r="1" gradientUnits="userSpaceOnUse" gradientTransform="translate(42.0042 4.23016) rotate(180) scale(1.7908 1.47999)">
<stop stop-color="white" stop-opacity="0"/>
<stop offset="1" stop-color="white"/>
</radialGradient>
<radialGradient id="paint48_radial_2227_85865" cx="0" cy="0" r="1" gradientUnits="userSpaceOnUse" gradientTransform="translate(10.1586 5.96281) scale(1.5246 1.26)">
<stop stop-color="white" stop-opacity="0"/>
<stop offset="1" stop-color="white"/>
</radialGradient>
<radialGradient id="paint49_radial_2227_85865" cx="0" cy="0" r="1" gradientUnits="userSpaceOnUse" gradientTransform="translate(13.68 4.23016) scale(1.7908 1.47999)">
<stop stop-color="white" stop-opacity="0"/>
<stop offset="1" stop-color="white"/>
</radialGradient>
<linearGradient id="paint50_linear_2227_85865" x1="22.8806" y1="3.58984" x2="22.8806" y2="3.79984" gradientUnits="userSpaceOnUse">
<stop stop-color="#010101"/>
<stop offset="1" stop-color="#010101" stop-opacity="0"/>
</linearGradient>
<linearGradient id="paint51_linear_2227_85865" x1="20.4" y1="41.2022" x2="21.09" y2="41.2022" gradientUnits="userSpaceOnUse">
<stop offset="0.42" stop-color="white" stop-opacity="0"/>
<stop offset="1" stop-color="white"/>
</linearGradient>
<linearGradient id="paint52_linear_2227_85865" x1="9.72973" y1="52.8414" x2="20.2797" y2="52.8414" gradientUnits="userSpaceOnUse">
<stop offset="0.42" stop-color="white" stop-opacity="0"/>
<stop offset="1" stop-color="white"/>
</linearGradient>
<linearGradient id="paint53_linear_2227_85865" x1="5.43984" y1="3.82164" x2="13.8698" y2="3.82164" gradientUnits="userSpaceOnUse">
<stop offset="0.42" stop-color="white" stop-opacity="0"/>
<stop offset="1" stop-color="white"/>
</linearGradient>
<linearGradient id="paint54_linear_2227_85865" x1="15.94" y1="86.3803" x2="16.43" y2="86.3803" gradientUnits="userSpaceOnUse">
<stop offset="0.42" stop-color="white" stop-opacity="0"/>
<stop offset="1" stop-color="white"/>
</linearGradient>
<linearGradient id="paint55_linear_2227_85865" x1="18.2495" y1="2.70219" x2="18.9695" y2="2.70219" gradientUnits="userSpaceOnUse">
<stop offset="0.42" stop-color="white" stop-opacity="0"/>
<stop offset="1" stop-color="white"/>
</linearGradient>
<linearGradient id="paint56_linear_2227_85865" x1="21.5097" y1="87.3836" x2="22.3297" y2="87.3836" gradientUnits="userSpaceOnUse">
<stop offset="0.42" stop-color="white" stop-opacity="0"/>
<stop offset="1" stop-color="white"/>
</linearGradient>
<linearGradient id="paint57_linear_2227_85865" x1="42.7295" y1="59.3184" x2="42.6195" y2="59.0184" gradientUnits="userSpaceOnUse">
<stop stop-color="white"/>
<stop offset="1" stop-color="white" stop-opacity="0"/>
</linearGradient>
<linearGradient id="paint58_linear_2227_85865" x1="41.5894" y1="58.9901" x2="43.7294" y2="57.7901" gradientUnits="userSpaceOnUse">
<stop stop-color="#010101"/>
<stop offset="1" stop-color="#010101" stop-opacity="0"/>
</linearGradient>
<linearGradient id="paint59_linear_2227_85865" x1="2.04" y1="59.3184" x2="2.15" y2="59.0184" gradientUnits="userSpaceOnUse">
<stop stop-color="white"/>
<stop offset="1" stop-color="white" stop-opacity="0"/>
</linearGradient>
<linearGradient id="paint60_linear_2227_85865" x1="3.18" y1="58.9901" x2="1.04" y2="57.7901" gradientUnits="userSpaceOnUse">
<stop stop-color="#010101"/>
<stop offset="1" stop-color="#010101" stop-opacity="0"/>
</linearGradient>
</defs>
</svg>
