<svg width="45" height="90" viewBox="0 0 45 90" fill="none" xmlns="http://www.w3.org/2000/svg">
<path d="M35.2896 2.1875L9.47955 2.1875V1.8275C9.47955 1.1875 9.99955 0.6675 10.6395 0.6675L34.1196 0.6675C34.7596 0.6675 35.2795 1.1875 35.2795 1.8275V2.1875H35.2896Z" fill="url(#paint0_linear_2227_85865)"/>
<path d="M35.2896 2.42969L9.47955 2.42969V2.06969C9.47955 1.42969 9.99955 0.909687 10.6395 0.909687L34.1196 0.909687C34.7596 0.909687 35.2795 1.42969 35.2795 2.06969V2.42969H35.2896Z" fill="#333333"/>
<path d="M35.2896 2.42969L9.47955 2.42969V2.06969C9.47955 1.42969 9.99955 0.909687 10.6395 0.909687L34.1196 0.909687C34.7596 0.909687 35.2795 1.42969 35.2795 2.06969V2.42969H35.2896Z" fill="url(#paint1_linear_2227_85865)"/>
<path d="M31.4999 1.94531L32.1199 1.94531C32.4016 1.94531 32.6299 1.71698 32.6299 1.43531V0.675312C32.6299 0.393647 32.4016 0.165314 32.1199 0.165314L31.4999 0.165314C31.2182 0.165314 30.9899 0.393647 30.9899 0.675312V1.43531C30.9899 1.71698 31.2182 1.94531 31.4999 1.94531Z" fill="url(#paint2_linear_2227_85865)"/>
<path d="M32.2002 1.6675V0.4375H31.4202L31.4102 1.6575L31.4202 1.6675H32.2002Z" fill="url(#paint3_linear_2227_85865)"/>
<path d="M12.6498 1.94531L13.2698 1.94531C13.5514 1.94531 13.7798 1.71698 13.7798 1.43531V0.675312C13.7798 0.393647 13.5514 0.165314 13.2698 0.165314L12.6498 0.165314C12.3681 0.165314 12.1398 0.393647 12.1398 0.675312V1.43531C12.1398 1.71698 12.3681 1.94531 12.6498 1.94531Z" fill="url(#paint4_linear_2227_85865)"/>
<path d="M13.3598 1.6675V0.4375H12.5798L12.5698 1.6575L12.5798 1.6675H13.3598Z" fill="url(#paint5_linear_2227_85865)"/>
<path d="M31.4097 0.15625L32.1997 0.15625V-0.00374985L31.4097 -0.00374985V0.15625Z" fill="#010101"/>
<path d="M12.5699 0.15625L13.3599 0.15625V-0.00374985L12.5699 -0.00374985V0.15625Z" fill="#010101"/>
<path d="M31.3696 89.3398H13.3895C12.7495 89.3398 12.2295 88.8199 12.2295 88.1799V87.8199H32.5396V88.1799C32.5396 88.8199 32.0195 89.3398 31.3795 89.3398H31.3696Z" fill="url(#paint6_linear_2227_85865)"/>
<path d="M31.3696 89.1016H13.3895C12.7495 89.1016 12.2295 88.5816 12.2295 87.9416V87.5816H32.5396V87.9416C32.5396 88.5816 32.0195 89.1016 31.3795 89.1016H31.3696Z" fill="#333333"/>
<path d="M31.3696 89.1016H13.3895C12.7495 89.1016 12.2295 88.5816 12.2295 87.9416V87.5816H32.5396V87.9416C32.5396 88.5816 32.0195 89.1016 31.3795 89.1016H31.3696Z" fill="url(#paint7_linear_2227_85865)"/>
<path d="M29.6697 89.8477H29.9397C30.2214 89.8477 30.4497 89.6193 30.4497 89.3377V88.5777C30.4497 88.296 30.2214 88.0677 29.9397 88.0677H29.6697C29.388 88.0677 29.1597 88.296 29.1597 88.5777V89.3377C29.1597 89.6193 29.388 89.8477 29.6697 89.8477Z" fill="url(#paint8_linear_2227_85865)"/>
<path d="M30.1097 88.3398V89.5699H29.4897V88.3499V88.3398H30.1097Z" fill="url(#paint9_linear_2227_85865)"/>
<path d="M14.8396 89.8477H15.1096C15.3913 89.8477 15.6196 89.6193 15.6196 89.3377V88.5777C15.6196 88.296 15.3913 88.0677 15.1096 88.0677H14.8396C14.558 88.0677 14.3296 88.296 14.3296 88.5777V89.3377C14.3296 89.6193 14.558 89.8477 14.8396 89.8477Z" fill="url(#paint10_linear_2227_85865)"/>
<path d="M15.2797 88.3398L15.2897 89.5699H14.6697L14.6597 88.3499L14.6697 88.3398H15.2797Z" fill="url(#paint11_linear_2227_85865)"/>
<path d="M29.4899 90H30.1099V89.84H29.4899V90Z" fill="#010101"/>
<path d="M14.6695 90H15.2896V89.84H14.6695V90Z" fill="#010101"/>
<path d="M14.0702 46.7695H30.7102C31.2102 46.7695 31.6202 47.1095 31.6202 47.5295V48.3395C31.6202 48.7595 31.2102 49.0995 30.7102 49.0995H14.0702C13.5602 49.0995 13.1602 48.7595 13.1602 48.3395V47.5295C13.1602 47.1095 13.5702 46.7695 14.0702 46.7695Z" fill="#989898"/>
<path d="M2.84008 78.8205V8.71047C2.84008 4.99047 6.47008 1.98047 10.9501 1.98047H33.7301C38.2101 1.98047 41.8401 4.99047 41.8401 8.71047V78.8205C41.8401 83.9405 36.8401 88.0805 30.6701 88.0805H14.0001C7.83008 88.0805 2.83008 83.9305 2.83008 78.8205H2.84008Z" fill="#C31F32"/>
<path d="M33.2299 86.6802H11.4599C8.82991 86.6802 6.4799 85.7002 4.8999 84.1602C6.9199 86.5302 10.2499 88.0802 14.0099 88.0802H30.6799C34.4499 88.0802 37.7699 86.5302 39.7899 84.1602C38.2099 85.7002 35.8599 86.6802 33.2299 86.6802Z" fill="url(#paint12_linear_2227_85865)"/>
<path opacity="0.4" d="M33.2299 86.6802H11.4599C8.82991 86.6802 6.4799 85.7002 4.8999 84.1602C6.9199 86.5302 10.2499 88.0802 14.0099 88.0802H30.6799C34.4499 88.0802 37.7699 86.5302 39.7899 84.1602C38.2099 85.7002 35.8599 86.6802 33.2299 86.6802Z" fill="url(#paint13_linear_2227_85865)"/>
<path d="M40.5099 7.53078V79.9908C40.5099 83.3108 37.2599 86.0108 33.2599 86.0108H11.4199C7.41992 86.0108 4.16992 83.3208 4.16992 79.9908V7.53078C4.16992 5.61078 6.04992 4.05078 8.35992 4.05078H36.3099C38.6299 4.05078 40.4999 5.61078 40.4999 7.53078H40.5099Z" fill="#C31F32"/>
<path d="M35.4799 29.8317L40.5998 20.5317H41.8498V63.7617L35.6298 52.2117L20.1498 52.7717L9.45985 52.1717L3.88985 62.7017L2.83984 62.6817V19.7617H3.88985L9.76984 29.7317C9.76984 29.7317 19.4898 28.9917 22.1998 29.0917C24.9098 29.1917 34.7898 30.3017 34.7898 30.3017L35.4799 29.8117V29.8317Z" fill="#C31F32"/>
<path d="M8.37017 4.05016H36.3202C38.6402 4.05016 40.5102 5.61016 40.5102 7.53016V6.89016C40.5102 4.97016 38.6302 3.41016 36.3202 3.41016H8.37017C6.05017 3.41016 4.18018 4.97016 4.18018 6.89016V7.53016C4.18018 5.61016 6.06017 4.05016 8.37017 4.05016Z" fill="#333333"/>
<path d="M8.37017 4.05016H36.3202C38.6402 4.05016 40.5102 5.61016 40.5102 7.53016V6.89016C40.5102 4.97016 38.6302 3.41016 36.3202 3.41016H8.37017C6.05017 3.41016 4.18018 4.97016 4.18018 6.89016V7.53016C4.18018 5.61016 6.06017 4.05016 8.37017 4.05016Z" fill="url(#paint14_linear_2227_85865)"/>
<path opacity="0.5" d="M36.5199 4.28078H8.38991C6.05991 4.28078 4.16991 5.84078 4.16991 7.76078V80.2208C4.16991 81.8208 4.93991 83.2808 6.17991 84.3608C4.77991 83.2608 3.8999 81.7208 3.8999 80.0008V7.53078C3.8999 5.61078 5.7899 4.05078 8.1199 4.05078H36.2499C37.4899 4.05078 38.5899 4.49078 39.3699 5.19078C38.6199 4.63078 37.6199 4.28078 36.5299 4.28078H36.5199Z" fill="url(#paint15_radial_2227_85865)"/>
<path d="M11.4302 86.6822H33.2702C37.2702 86.6822 40.5202 83.9922 40.5202 80.6622V79.9922C40.5202 83.3122 37.2702 86.0122 33.2702 86.0122H11.4302C7.43018 86.0122 4.18018 83.3222 4.18018 79.9922V80.6622C4.18018 83.9822 7.43018 86.6822 11.4302 86.6822Z" fill="#676767"/>
<path d="M37.8003 84.6822V85.3522C39.4503 84.2522 40.5203 82.5622 40.5203 80.6622V79.9922C40.5203 81.8922 39.4603 83.5822 37.8003 84.6822Z" fill="#F26722"/>
<path d="M37.8002 84.6836C36.5602 85.5136 34.9802 86.0136 33.2602 86.0136H28.5602L28.2402 86.6836H33.2602C34.9802 86.6836 36.5502 86.1836 37.8002 85.3536V84.6836Z" fill="#E0F2F6"/>
<path d="M6.88992 84.6822V85.3522C5.23992 84.2522 4.16992 82.5622 4.16992 80.6622V79.9922C4.16992 81.8922 5.22992 83.5822 6.88992 84.6822Z" fill="#F26722"/>
<path d="M6.89014 84.6836C8.13014 85.5136 9.71014 86.0136 11.4301 86.0136H16.1301L16.4501 86.6836H11.4301C9.71014 86.6836 8.14014 86.1836 6.89014 85.3536V84.6836Z" fill="#E0F2F6"/>
<path d="M16.5 86.5117H28.19L28.12 86.6217H16.57L16.5 86.5117Z" fill="#333333"/>
<path d="M16.4199 86.2891H28.2699L28.1999 86.3991H16.4899L16.4199 86.2891Z" fill="#333333"/>
<path d="M16.27 86.0703H28.42L28.35 86.1803H16.34L16.27 86.0703Z" fill="#333333"/>
<path d="M22.3501 86.5689C22.7864 86.5689 23.1401 86.4704 23.1401 86.3489C23.1401 86.2274 22.7864 86.1289 22.3501 86.1289C21.9138 86.1289 21.5601 86.2274 21.5601 86.3489C21.5601 86.4704 21.9138 86.5689 22.3501 86.5689Z" fill="#CCCCCC"/>
<path d="M34.2299 51.4712C30.3799 51.9412 19.3099 53.0512 10.8999 51.5712C10.0699 51.4212 9.2299 51.7812 8.8899 52.4312L4.3899 61.0412C4.0399 61.7112 4.45989 62.4812 5.29989 62.6912C9.57989 63.7912 22.3999 66.3212 39.3399 62.5712C40.1899 62.3812 40.6399 61.6112 40.3099 60.9312L36.1499 52.3812C35.8399 51.7412 35.0499 51.3612 34.2299 51.4612V51.4712Z" fill="#676767"/>
<path d="M34.2299 51.4712C30.3799 51.9412 19.3099 53.0512 10.8999 51.5712C10.0699 51.4212 9.2299 51.7812 8.8899 52.4312L4.3899 61.0412C4.0399 61.7112 4.45989 62.4812 5.29989 62.6912C9.57989 63.7912 22.3999 66.3212 39.3399 62.5712C40.1899 62.3812 40.6399 61.6112 40.3099 60.9312L36.1499 52.3812C35.8399 51.7412 35.0499 51.3612 34.2299 51.4612V51.4712Z" fill="url(#paint16_linear_2227_85865)"/>
<path d="M34.4899 52.0508C34.9299 52.0508 35.3099 52.2708 35.4799 52.6108L39.6399 61.1608C39.7199 61.3308 39.7099 61.5208 39.6099 61.6808C39.5099 61.8408 39.3499 61.9508 39.1499 62.0008C33.2699 63.3008 27.3399 63.9608 21.4999 63.9608C13.7799 63.9608 8.16992 62.8108 5.50992 62.1308C5.30992 62.0808 5.13992 61.9608 5.04992 61.8008C4.95992 61.6408 4.95992 61.4608 5.04992 61.2908L9.54992 52.6808C9.71992 52.3608 10.0999 52.1508 10.5299 52.1508C10.5999 52.1508 10.6799 52.1508 10.7499 52.1708C13.5999 52.6708 16.9999 52.9308 20.8699 52.9308C26.5099 52.9308 31.7199 52.4008 34.3299 52.0808C34.3799 52.0808 34.4299 52.0808 34.4899 52.0808V52.0508Z" fill="#010101"/>
<path d="M34.4899 52.3594C34.7799 52.3594 35.0299 52.4994 35.1399 52.7294L39.2999 61.2794C39.3599 61.3994 39.3199 61.4994 39.2899 61.5494C39.2599 61.6094 39.1899 61.6794 39.0599 61.7094C33.2099 62.9994 27.3099 63.6594 21.5099 63.6594C13.8399 63.6594 8.26988 62.5194 5.62988 61.8394C5.48988 61.7994 5.41988 61.7194 5.39988 61.6694C5.36988 61.6194 5.33988 61.5194 5.39988 61.3994L9.89988 52.7894C10.0099 52.5794 10.2599 52.4394 10.5399 52.4394C10.5899 52.4394 10.6399 52.4394 10.6899 52.4494C13.5599 52.9594 16.9899 53.2094 20.8899 53.2094C26.5499 53.2094 31.7899 52.6794 34.3999 52.3594C34.4299 52.3594 34.4699 52.3594 34.4999 52.3594H34.4899Z" fill="#686C86"/>
<path opacity="0.2" d="M38.2501 59.1016C34.0301 59.9516 28.4601 60.4716 22.3501 60.4716C16.2401 60.4716 10.7801 59.9616 6.58008 59.1316L5.39009 61.4016C5.33009 61.5216 5.37009 61.6216 5.39009 61.6716C5.42009 61.7216 5.48008 61.8016 5.62008 61.8416C8.26008 62.5216 13.8301 63.6616 21.5001 63.6616C27.3001 63.6616 33.2101 63.0016 39.0501 61.7116C39.1801 61.6816 39.2501 61.6116 39.2801 61.5516C39.3101 61.5016 39.3501 61.4016 39.2901 61.2816L38.2301 59.1116L38.2501 59.1016Z" fill="#010101"/>
<path d="M39.2198 61.1016C34.7098 62.0216 28.7998 62.5916 22.3398 62.5916C15.8798 62.5916 10.0398 62.0316 5.52984 61.1216L5.37983 61.4016C5.31983 61.5216 5.35983 61.6216 5.37983 61.6716C5.40983 61.7216 5.46984 61.8016 5.60984 61.8416C8.24984 62.5216 13.8198 63.6616 21.4898 63.6616C27.2898 63.6616 33.1998 63.0016 39.0398 61.7116C39.1698 61.6816 39.2398 61.6116 39.2698 61.5516C39.2998 61.5016 39.3398 61.4016 39.2798 61.2816L39.1998 61.1116L39.2198 61.1016Z" fill="#333333"/>
<path d="M33.7502 61.2523L29.0302 62.0623L28.9902 61.8723L33.7302 61.1523L33.7502 61.2523Z" fill="#010101"/>
<path d="M22.4399 62.8589L28.8899 61.8789L28.5699 62.1289L22.4899 63.0489L22.4399 62.8589Z" fill="#010101"/>
<path d="M33.45 61.1406L22.1899 62.8406L22.2099 62.9506L33.7399 61.2006L33.45 61.1406Z" fill="#333333"/>
<path d="M22.48 62.9011C22.51 63.0511 22.39 63.1911 22.21 63.2211C22.03 63.2511 21.86 63.1511 21.82 63.0011C21.79 62.8511 21.91 62.7111 22.09 62.6811C22.27 62.6511 22.44 62.7511 22.48 62.9011Z" fill="#010101"/>
<path d="M22.4701 62.851C22.5001 62.971 22.4001 63.091 22.2501 63.111C22.1001 63.131 21.9601 63.051 21.9301 62.931C21.9001 62.811 22.0001 62.691 22.1501 62.671C22.3001 62.651 22.4401 62.731 22.4701 62.851Z" fill="#333333"/>
<path d="M23.2897 61.6937L18.4897 62.1137L18.4697 61.9137L23.2797 61.5938L23.2897 61.6937Z" fill="#010101"/>
<path d="M11.8398 62.3541L18.3798 61.9141L18.0298 62.1441L11.8598 62.5541L11.8398 62.3541Z" fill="#010101"/>
<path d="M23.0098 61.5625L11.5898 62.3125L11.5998 62.4225L23.2798 61.6425L23.0098 61.5625Z" fill="#333333"/>
<path d="M11.8798 62.403C11.8898 62.553 11.7598 62.683 11.5798 62.703C11.3998 62.713 11.2398 62.603 11.2198 62.453C11.2098 62.303 11.3398 62.173 11.5198 62.153C11.6998 62.143 11.8598 62.253 11.8798 62.403Z" fill="#010101"/>
<path d="M11.8697 62.3506C11.8797 62.4706 11.7697 62.5806 11.6197 62.5906C11.4697 62.6006 11.3397 62.5106 11.3297 62.3806C11.3197 62.2606 11.4297 62.1506 11.5797 62.1406C11.7297 62.1406 11.8597 62.2206 11.8697 62.3506Z" fill="#333333"/>
<path opacity="0.5" d="M34.4899 52.3594C34.7799 52.3594 35.0299 52.4994 35.1399 52.7294L39.2999 61.2794C39.3599 61.3994 39.3199 61.4994 39.2899 61.5494C39.2599 61.6094 39.1899 61.6794 39.0599 61.7094C33.2099 62.9994 27.3099 63.6594 21.5099 63.6594C13.8399 63.6594 8.26988 62.5194 5.62988 61.8394C5.48988 61.7994 5.41988 61.7194 5.39988 61.6694C5.36988 61.6194 5.33988 61.5194 5.39988 61.3994L9.89988 52.7894C10.0099 52.5794 10.2599 52.4394 10.5399 52.4394C10.5899 52.4394 10.6399 52.4394 10.6899 52.4494C13.5599 52.9594 16.9899 53.2094 20.8899 53.2094C26.5499 53.2094 31.7899 52.6794 34.3999 52.3594C34.4299 52.3594 34.4699 52.3594 34.4999 52.3594H34.4899Z" fill="url(#paint17_radial_2227_85865)"/>
<path style="mix-blend-mode:overlay" opacity="0.3" d="M34.4899 52.3594C34.7799 52.3594 35.0299 52.4994 35.1399 52.7294L39.2999 61.2794C39.3599 61.3994 39.3199 61.4994 39.2899 61.5494C39.2599 61.6094 39.1899 61.6794 39.0599 61.7094C33.2099 62.9994 27.3099 63.6594 21.5099 63.6594C13.8399 63.6594 8.26988 62.5194 5.62988 61.8394C5.48988 61.7994 5.41988 61.7194 5.39988 61.6694C5.36988 61.6194 5.33988 61.5194 5.39988 61.3994L9.89988 52.7894C10.0099 52.5794 10.2599 52.4394 10.5399 52.4394C10.5899 52.4394 10.6399 52.4394 10.6899 52.4494C13.5599 52.9594 16.9899 53.2094 20.8899 53.2094C26.5499 53.2094 31.7899 52.6794 34.3999 52.3594C34.4299 52.3594 34.4699 52.3594 34.4999 52.3594H34.4899Z" fill="url(#paint18_radial_2227_85865)"/>
<path d="M34.2299 30.3294C30.3799 29.8594 19.3099 28.7494 10.8999 30.2294C10.0699 30.3794 9.2299 30.0194 8.8899 29.3694L4.3899 20.7594C4.0399 20.0894 4.45989 19.3194 5.29989 19.1094C9.57989 18.0094 22.3999 15.4794 39.3399 19.2294C40.1899 19.4194 40.6399 20.1894 40.3099 20.8694L36.1499 29.4194C35.8399 30.0594 35.0499 30.4394 34.2299 30.3394V30.3294Z" fill="#676767"/>
<path d="M34.2299 30.3294C30.3799 29.8594 19.3099 28.7494 10.8999 30.2294C10.0699 30.3794 9.2299 30.0194 8.8899 29.3694L4.3899 20.7594C4.0399 20.0894 4.45989 19.3194 5.29989 19.1094C9.57989 18.0094 22.3999 15.4794 39.3399 19.2294C40.1899 19.4194 40.6399 20.1894 40.3099 20.8694L36.1499 29.4194C35.8399 30.0594 35.0499 30.4394 34.2299 30.3394V30.3294Z" fill="url(#paint19_linear_2227_85865)"/>
<path d="M34.4899 29.7477C34.9299 29.7477 35.3099 29.5277 35.4799 29.1877L39.6399 20.6377C39.7199 20.4677 39.7099 20.2777 39.6099 20.1177C39.5099 19.9577 39.3499 19.8477 39.1499 19.8077C33.2699 18.5077 27.3399 17.8477 21.4999 17.8477C13.7799 17.8477 8.16992 18.9977 5.50992 19.6777C5.30992 19.7277 5.13992 19.8477 5.04992 20.0077C4.95992 20.1677 4.95992 20.3477 5.04992 20.5177L9.54992 29.1277C9.71992 29.4477 10.0999 29.6577 10.5299 29.6577C10.5999 29.6577 10.6799 29.6577 10.7499 29.6377C13.5999 29.1377 16.9999 28.8777 20.8699 28.8777C26.5099 28.8777 31.7199 29.4077 34.3299 29.7277C34.3799 29.7277 34.4299 29.7277 34.4899 29.7277V29.7477Z" fill="#010101"/>
<path d="M34.4899 29.4484C34.7799 29.4484 35.0299 29.3084 35.1399 29.0784L39.2999 20.5284C39.3599 20.4084 39.3199 20.3084 39.2899 20.2584C39.2599 20.1984 39.1899 20.1284 39.0599 20.0984C33.2099 18.8084 27.3099 18.1484 21.5099 18.1484C13.8399 18.1484 8.26988 19.2884 5.62988 19.9684C5.48988 20.0084 5.41988 20.0884 5.39988 20.1384C5.36988 20.1884 5.33988 20.2884 5.39988 20.4084L9.89988 29.0184C10.0099 29.2284 10.2599 29.3684 10.5399 29.3684C10.5899 29.3684 10.6399 29.3684 10.6899 29.3584C13.5599 28.8484 16.9899 28.5984 20.8899 28.5984C26.5499 28.5984 31.7899 29.1284 34.3999 29.4484C34.4299 29.4484 34.4699 29.4484 34.4999 29.4484H34.4899Z" fill="#686C86"/>
<path opacity="0.4" d="M39.3101 20.5284C39.3701 20.4084 39.3301 20.3084 39.3001 20.2584C39.2701 20.1984 39.2001 20.1284 39.0701 20.0984C33.2201 18.8084 27.3201 18.1484 21.5201 18.1484C13.8501 18.1484 8.28013 19.2884 5.64013 19.9684C5.50013 20.0084 5.43013 20.0884 5.41013 20.1384C5.38013 20.1884 5.35013 20.2884 5.41013 20.4084L6.70013 22.8784H38.1901L39.3301 20.5384L39.3101 20.5284Z" fill="#010101"/>
<path d="M39.2198 20.7006C34.7098 19.7806 28.7998 19.2106 22.3398 19.2106C15.8798 19.2106 10.0398 19.7706 5.52984 20.6806L5.37983 20.4006C5.31983 20.2806 5.35983 20.1806 5.37983 20.1306C5.40983 20.0806 5.46984 20.0006 5.60984 19.9606C8.24984 19.2806 13.8198 18.1406 21.4898 18.1406C27.2898 18.1406 33.1998 18.8006 39.0398 20.0906C39.1698 20.1206 39.2398 20.1906 39.2698 20.2506C39.2998 20.3006 39.3398 20.4006 39.2798 20.5206L39.1998 20.6906L39.2198 20.7006Z" fill="#010101"/>
<path opacity="0.5" d="M34.4899 29.4484C34.7799 29.4484 35.0299 29.3084 35.1399 29.0784L39.2999 20.5284C39.3599 20.4084 39.3199 20.3084 39.2899 20.2584C39.2599 20.1984 39.1899 20.1284 39.0599 20.0984C33.2099 18.8084 27.3099 18.1484 21.5099 18.1484C13.8399 18.1484 8.26988 19.2884 5.62988 19.9684C5.48988 20.0084 5.41988 20.0884 5.39988 20.1384C5.36988 20.1884 5.33988 20.2884 5.39988 20.4084L9.89988 29.0184C10.0099 29.2284 10.2599 29.3684 10.5399 29.3684C10.5899 29.3684 10.6399 29.3684 10.6899 29.3584C13.5599 28.8484 16.9899 28.5984 20.8899 28.5984C26.5499 28.5984 31.7899 29.1284 34.3999 29.4484C34.4299 29.4484 34.4699 29.4484 34.4999 29.4484H34.4899Z" fill="url(#paint20_radial_2227_85865)"/>
<path style="mix-blend-mode:overlay" opacity="0.3" d="M34.4899 29.4484C34.7799 29.4484 35.0299 29.3084 35.1399 29.0784L39.2999 20.5284C39.3599 20.4084 39.3199 20.3084 39.2899 20.2584C39.2599 20.1984 39.1899 20.1284 39.0599 20.0984C33.2099 18.8084 27.3099 18.1484 21.5099 18.1484C13.8399 18.1484 8.26988 19.2884 5.62988 19.9684C5.48988 20.0084 5.41988 20.0884 5.39988 20.1384C5.36988 20.1884 5.33988 20.2884 5.39988 20.4084L9.89988 29.0184C10.0099 29.2284 10.2599 29.3684 10.5399 29.3684C10.5899 29.3684 10.6399 29.3684 10.6899 29.3584C13.5599 28.8484 16.9899 28.5984 20.8899 28.5984C26.5499 28.5984 31.7899 29.1284 34.3999 29.4484C34.4299 29.4484 34.4699 29.4484 34.4999 29.4484H34.4899Z" fill="url(#paint21_radial_2227_85865)"/>
<path d="M4.73008 43.5586C4.73008 43.5586 4.82008 43.5586 4.86008 43.5586L9.55008 44.1286C9.98008 44.1786 10.3101 44.4986 10.3101 44.8586V49.4286C10.3101 49.5286 10.2901 49.6286 10.2401 49.7186L4.80008 60.3886C4.72008 60.5486 4.54008 60.6486 4.34008 60.6486C4.06008 60.6486 3.83008 60.4686 3.83008 60.2286V44.2986C3.83008 44.0986 3.92008 43.9186 4.09008 43.7786C4.26008 43.6386 4.48008 43.5686 4.72008 43.5686L4.73008 43.5586Z" fill="#676767"/>
<path d="M4.73008 43.5586C4.73008 43.5586 4.82008 43.5586 4.86008 43.5586L9.55008 44.1286C9.98008 44.1786 10.3101 44.4986 10.3101 44.8586V49.4286C10.3101 49.5286 10.2901 49.6286 10.2401 49.7186L4.80008 60.3886C4.72008 60.5486 4.54008 60.6486 4.34008 60.6486C4.06008 60.6486 3.83008 60.4686 3.83008 60.2286V44.2986C3.83008 44.0986 3.92008 43.9186 4.09008 43.7786C4.26008 43.6386 4.48008 43.5686 4.72008 43.5686L4.73008 43.5586Z" fill="url(#paint22_linear_2227_85865)"/>
<path d="M4.49992 60.2789L9.93992 49.6089C9.96992 49.5489 9.97992 49.4889 9.97992 49.4289V44.8589C9.97992 44.6289 9.77992 44.4389 9.49992 44.3989L4.80992 43.8289C4.46992 43.7889 4.16992 44.0089 4.16992 44.2889V60.2189C4.16992 60.3689 4.41992 60.4189 4.49992 60.2689V60.2789Z" fill="#010101"/>
<path d="M4.77026 44.1172L9.46026 44.6872C9.57026 44.6972 9.65025 44.7772 9.65025 44.8672V49.4372C9.65025 49.4372 9.65026 49.4872 9.63026 49.5072L4.51025 59.5572V44.2972C4.51025 44.2972 4.53025 44.1972 4.58025 44.1672C4.62025 44.1372 4.68026 44.1172 4.74026 44.1172H4.77026Z" fill="#686C86"/>
<path opacity="0.2" d="M6.15025 44.2794L4.77026 44.1094H4.74026C4.68026 44.1094 4.63025 44.1294 4.58025 44.1594C4.54025 44.1994 4.51025 44.2394 4.51025 44.2894V59.5494L6.15025 56.3294V44.2694V44.2794Z" fill="#010101"/>
<path opacity="0.5" d="M4.77026 44.1172L9.46026 44.6872C9.57026 44.6972 9.65025 44.7772 9.65025 44.8672V49.4372C9.65025 49.4372 9.65026 49.4872 9.63026 49.5072L4.51025 59.5572V44.2972C4.51025 44.2972 4.53025 44.1972 4.58025 44.1672C4.62025 44.1372 4.68026 44.1172 4.74026 44.1172H4.77026Z" fill="url(#paint23_linear_2227_85865)"/>
<path style="mix-blend-mode:overlay" opacity="0.3" d="M4.77026 44.1172L9.46026 44.6872C9.57026 44.6972 9.65025 44.7772 9.65025 44.8672V49.4372C9.65025 49.4372 9.65026 49.4872 9.63026 49.5072L4.51025 59.5572V44.2972C4.51025 44.2972 4.53025 44.1972 4.58025 44.1672C4.62025 44.1372 4.68026 44.1172 4.74026 44.1172H4.77026Z" fill="url(#paint24_linear_2227_85865)"/>
<path d="M4.54984 33.0977C4.60984 33.0977 4.66984 33.0977 4.72984 33.1177L9.79984 34.2377C10.1098 34.3077 10.3198 34.5377 10.3198 34.7977V43.4277C10.3198 43.7477 9.99984 44.0077 9.61984 44.0077H9.50984L4.43984 43.3477C4.08984 43.3077 3.83984 43.0577 3.83984 42.7677V33.6777C3.83984 33.3577 4.15985 33.0977 4.53985 33.0977H4.54984Z" fill="#676767"/>
<path d="M4.54984 33.0977C4.60984 33.0977 4.66984 33.0977 4.72984 33.1177L9.79984 34.2377C10.1098 34.3077 10.3198 34.5377 10.3198 34.7977V43.4277C10.3198 43.7477 9.99984 44.0077 9.61984 44.0077H9.50984L4.43984 43.3477C4.08984 43.3077 3.83984 43.0577 3.83984 42.7677V33.6777C3.83984 33.3577 4.15985 33.0977 4.53985 33.0977H4.54984Z" fill="url(#paint25_linear_2227_85865)"/>
<path d="M9.55968 43.7286L4.48969 43.0786C4.30969 43.0586 4.17969 42.9286 4.17969 42.7786V33.6886C4.17969 33.4886 4.40968 33.3386 4.64968 33.3886L9.71968 34.5086C9.87968 34.5486 9.99969 34.6686 9.99969 34.8086V43.4386C9.99969 43.6286 9.79969 43.7686 9.56969 43.7386L9.55968 43.7286Z" fill="#010101"/>
<path d="M9.61977 34.7684L9.64977 43.4284L4.53977 42.7984L4.50977 33.6784L4.54977 33.6484L9.61977 34.7684Z" fill="#686C86"/>
<path opacity="0.2" d="M6.14977 42.9984V33.9984C5.25977 33.7984 4.54977 33.6484 4.54977 33.6484L4.50977 33.6784L4.53977 42.7984L6.14977 42.9984Z" fill="#010101"/>
<path opacity="0.5" d="M9.61977 34.7684L9.64977 43.4284L4.53977 42.7984L4.50977 33.6784L4.54977 33.6484L9.61977 34.7684Z" fill="url(#paint26_linear_2227_85865)"/>
<path style="mix-blend-mode:overlay" opacity="0.3" d="M9.61977 34.7684L9.64977 43.4284L4.53977 42.7984L4.50977 33.6784L4.54977 33.6484L9.61977 34.7684Z" fill="url(#paint27_linear_2227_85865)"/>
<path d="M4.48009 22.6992C4.73009 22.6992 4.95009 22.8192 5.05009 23.0092L10.2601 32.4892C10.3001 32.5592 10.3201 32.6292 10.3201 32.7092V33.5692C10.3201 33.8592 10.0401 34.0892 9.69009 34.0892C9.63009 34.0892 9.57009 34.0892 9.51009 34.0692L4.30009 32.7692C4.03009 32.6992 3.8501 32.4992 3.8501 32.2692V23.2392C3.8501 22.9492 4.13009 22.7192 4.48009 22.7192V22.6992Z" fill="#676767"/>
<path d="M4.48009 22.6992C4.73009 22.6992 4.95009 22.8192 5.05009 23.0092L10.2601 32.4892C10.3001 32.5592 10.3201 32.6292 10.3201 32.7092V33.5692C10.3201 33.8592 10.0401 34.0892 9.69009 34.0892C9.63009 34.0892 9.57009 34.0892 9.51009 34.0692L4.30009 32.7692C4.03009 32.6992 3.8501 32.4992 3.8501 32.2692V23.2392C3.8501 22.9492 4.13009 22.7192 4.48009 22.7192V22.6992Z" fill="url(#paint28_linear_2227_85865)"/>
<path d="M9.60017 33.79L4.39017 32.49C4.26017 32.46 4.18018 32.36 4.18018 32.25V23.22C4.18018 22.96 4.61018 22.88 4.75018 23.12L9.96017 32.6C9.96017 32.6 9.99017 32.67 9.99017 32.7V33.56C9.99017 33.72 9.80018 33.84 9.61018 33.8L9.60017 33.79Z" fill="#010101"/>
<path d="M9.64998 32.7094V33.5594L4.47998 32.2194L4.50998 23.3594L9.64998 32.7094Z" fill="#686C86"/>
<path opacity="0.2" d="M6.14998 26.3394L4.50998 23.3594L4.47998 32.2194L6.14998 32.6494V26.3394Z" fill="#010101"/>
<path opacity="0.5" d="M9.64998 32.7094V33.5594L4.47998 32.2194L4.50998 23.3594L9.64998 32.7094Z" fill="url(#paint29_linear_2227_85865)"/>
<path style="mix-blend-mode:overlay" opacity="0.3" d="M9.64998 32.7094V33.5594L4.47998 32.2194L4.50998 23.3594L9.64998 32.7094Z" fill="url(#paint30_linear_2227_85865)"/>
<path d="M40.04 43.5586C40.04 43.5586 39.95 43.5586 39.91 43.5586L35.22 44.1286C34.79 44.1786 34.46 44.4986 34.46 44.8586V49.4286C34.46 49.5286 34.48 49.6286 34.53 49.7186L39.97 60.3886C40.05 60.5486 40.23 60.6486 40.43 60.6486C40.71 60.6486 40.94 60.4686 40.94 60.2286V44.2986C40.94 44.0986 40.85 43.9186 40.68 43.7786C40.51 43.6386 40.29 43.5686 40.05 43.5686L40.04 43.5586Z" fill="#676767"/>
<path d="M40.04 43.5586C40.04 43.5586 39.95 43.5586 39.91 43.5586L35.22 44.1286C34.79 44.1786 34.46 44.4986 34.46 44.8586V49.4286C34.46 49.5286 34.48 49.6286 34.53 49.7186L39.97 60.3886C40.05 60.5486 40.23 60.6486 40.43 60.6486C40.71 60.6486 40.94 60.4686 40.94 60.2286V44.2986C40.94 44.0986 40.85 43.9186 40.68 43.7786C40.51 43.6386 40.29 43.5686 40.05 43.5686L40.04 43.5586Z" fill="url(#paint31_linear_2227_85865)"/>
<path d="M40.27 60.2789L34.83 49.6089C34.8 49.5489 34.79 49.4889 34.79 49.4289V44.8589C34.79 44.6289 34.99 44.4389 35.27 44.3989L39.96 43.8289C40.3 43.7889 40.6 44.0089 40.6 44.2889V60.2189C40.6 60.3689 40.35 60.4189 40.27 60.2689V60.2789Z" fill="#010101"/>
<path d="M40.0099 44.1172L35.3199 44.6872C35.2099 44.6972 35.1299 44.7772 35.1299 44.8672V49.4372C35.1299 49.4372 35.1299 49.4872 35.1499 49.5072L40.2699 59.5572V44.2972C40.2699 44.2972 40.2499 44.1972 40.1999 44.1672C40.1599 44.1372 40.0999 44.1172 40.0399 44.1172H40.0099Z" fill="#686C86"/>
<path opacity="0.2" d="M38.6299 44.2794L40.0099 44.1094H40.0399C40.0999 44.1094 40.1499 44.1294 40.1999 44.1594C40.2399 44.1994 40.2699 44.2394 40.2699 44.2894V59.5494L38.6299 56.3294V44.2694V44.2794Z" fill="#010101"/>
<path opacity="0.5" d="M40.0099 44.1172L35.3199 44.6872C35.2099 44.6972 35.1299 44.7772 35.1299 44.8672V49.4372C35.1299 49.4372 35.1299 49.4872 35.1499 49.5072L40.2699 59.5572V44.2972C40.2699 44.2972 40.2499 44.1972 40.1999 44.1672C40.1599 44.1372 40.0999 44.1172 40.0399 44.1172H40.0099Z" fill="url(#paint32_linear_2227_85865)"/>
<path style="mix-blend-mode:overlay" opacity="0.3" d="M40.0099 44.1172L35.3199 44.6872C35.2099 44.6972 35.1299 44.7772 35.1299 44.8672V49.4372C35.1299 49.4372 35.1299 49.4872 35.1499 49.5072L40.2699 59.5572V44.2972C40.2699 44.2972 40.2499 44.1972 40.1999 44.1672C40.1599 44.1372 40.0999 44.1172 40.0399 44.1172H40.0099Z" fill="url(#paint33_linear_2227_85865)"/>
<path d="M40.23 33.0977C40.17 33.0977 40.11 33.0977 40.05 33.1177L34.98 34.2377C34.67 34.3077 34.46 34.5377 34.46 34.7977V43.4277C34.46 43.7477 34.78 44.0077 35.16 44.0077H35.27L40.34 43.3477C40.69 43.3077 40.94 43.0577 40.94 42.7677V33.6777C40.94 33.3577 40.62 33.0977 40.24 33.0977H40.23Z" fill="#676767"/>
<path d="M40.23 33.0977C40.17 33.0977 40.11 33.0977 40.05 33.1177L34.98 34.2377C34.67 34.3077 34.46 34.5377 34.46 34.7977V43.4277C34.46 43.7477 34.78 44.0077 35.16 44.0077H35.27L40.34 43.3477C40.69 43.3077 40.94 43.0577 40.94 42.7677V33.6777C40.94 33.3577 40.62 33.0977 40.24 33.0977H40.23Z" fill="url(#paint34_linear_2227_85865)"/>
<path d="M35.2198 43.7286L40.2898 43.0786C40.4698 43.0586 40.5998 42.9286 40.5998 42.7786V33.6886C40.5998 33.4886 40.3698 33.3386 40.1298 33.3886L35.0598 34.5086C34.8998 34.5486 34.7798 34.6686 34.7798 34.8086V43.4386C34.7798 43.6286 34.9798 43.7686 35.2098 43.7386L35.2198 43.7286Z" fill="#010101"/>
<path d="M35.1499 34.7684L35.1299 43.4284L40.2299 42.7984L40.2699 33.6784L40.2299 33.6484L35.1499 34.7684Z" fill="#686C86"/>
<path opacity="0.2" d="M38.6299 42.9984V33.9984C39.5199 33.7984 40.2299 33.6484 40.2299 33.6484L40.2699 33.6784L40.2399 42.7984L38.6299 42.9984Z" fill="#010101"/>
<path opacity="0.5" d="M35.1499 34.7684L35.1299 43.4284L40.2299 42.7984L40.2699 33.6784L40.2299 33.6484L35.1499 34.7684Z" fill="url(#paint35_linear_2227_85865)"/>
<path style="mix-blend-mode:overlay" opacity="0.3" d="M35.1499 34.7684L35.1299 43.4284L40.2299 42.7984L40.2699 33.6784L40.2299 33.6484L35.1499 34.7684Z" fill="url(#paint36_linear_2227_85865)"/>
<path d="M40.3 22.6992C40.05 22.6992 39.83 22.8192 39.73 23.0092L34.52 32.4892C34.48 32.5592 34.46 32.6292 34.46 32.7092V33.5692C34.46 33.8592 34.74 34.0892 35.09 34.0892C35.15 34.0892 35.21 34.0892 35.27 34.0692L40.48 32.7692C40.75 32.6992 40.93 32.4992 40.93 32.2692V23.2392C40.93 22.9492 40.65 22.7192 40.3 22.7192V22.6992Z" fill="#676767"/>
<path d="M40.3 22.6992C40.05 22.6992 39.83 22.8192 39.73 23.0092L34.52 32.4892C34.48 32.5592 34.46 32.6292 34.46 32.7092V33.5692C34.46 33.8592 34.74 34.0892 35.09 34.0892C35.15 34.0892 35.21 34.0892 35.27 34.0692L40.48 32.7692C40.75 32.6992 40.93 32.4992 40.93 32.2692V23.2392C40.93 22.9492 40.65 22.7192 40.3 22.7192V22.6992Z" fill="url(#paint37_linear_2227_85865)"/>
<path d="M35.1698 33.79L40.3798 32.49C40.5098 32.46 40.5898 32.36 40.5898 32.25V23.22C40.5898 22.96 40.1598 22.88 40.0198 23.12L34.8098 32.6C34.8098 32.6 34.7798 32.67 34.7798 32.7V33.56C34.7798 33.72 34.9698 33.84 35.1598 33.8L35.1698 33.79Z" fill="#010101"/>
<path d="M35.1201 32.7094L35.1301 33.5594L40.2901 32.2194L40.2701 23.3594L35.1201 32.7094Z" fill="#686C86"/>
<path opacity="0.2" d="M38.6299 26.3394L40.2699 23.3594L40.2899 32.2194L38.6299 32.6494V26.3394Z" fill="#010101"/>
<path opacity="0.5" d="M35.1201 32.7094L35.1301 33.5594L40.2901 32.2194L40.2701 23.3594L35.1201 32.7094Z" fill="url(#paint38_linear_2227_85865)"/>
<path style="mix-blend-mode:overlay" opacity="0.3" d="M35.1201 32.7094L35.1301 33.5594L40.2901 32.2194L40.2701 23.3594L35.1201 32.7094Z" fill="url(#paint39_linear_2227_85865)"/>
<path d="M7.55023 63.7617C7.72023 63.7617 7.86024 63.8817 7.86024 64.0217V65.2517C7.86024 65.3917 7.72023 65.5117 7.55023 65.5117C7.38023 65.5117 7.24023 65.3917 7.24023 65.2517V64.0217C7.24023 63.8817 7.38023 63.7617 7.55023 63.7617Z" fill="#676767"/>
<path d="M7.60041 65.4416C7.71041 65.4016 7.78041 65.3216 7.78041 65.2216V64.0716C7.78041 63.9716 7.71041 63.8816 7.60041 63.8516C7.49041 63.8916 7.42041 63.9716 7.42041 64.0716V65.2216C7.42041 65.3216 7.49041 65.4116 7.60041 65.4416Z" fill="url(#paint40_linear_2227_85865)"/>
<path d="M8.76019 63.9922C8.93019 63.9922 9.0702 64.1122 9.0702 64.2522V65.4822C9.0702 65.6222 8.93019 65.7422 8.76019 65.7422C8.59019 65.7422 8.4502 65.6222 8.4502 65.4822V64.2522C8.4502 64.1122 8.59019 63.9922 8.76019 63.9922Z" fill="#676767"/>
<path d="M8.81037 65.672C8.92037 65.632 8.99037 65.552 8.99037 65.452V64.302C8.99037 64.202 8.92037 64.112 8.81037 64.082C8.70037 64.122 8.63037 64.202 8.63037 64.302V65.452C8.63037 65.552 8.70037 65.642 8.81037 65.672Z" fill="url(#paint41_linear_2227_85865)"/>
<path d="M9.9604 64.2617C10.1304 64.2617 10.2704 64.3817 10.2704 64.5217V65.7517C10.2704 65.8917 10.1304 66.0117 9.9604 66.0117C9.7904 66.0117 9.65039 65.8917 9.65039 65.7517V64.5217C9.65039 64.3817 9.7904 64.2617 9.9604 64.2617Z" fill="#676767"/>
<path d="M10.0203 65.9416C10.1303 65.9016 10.2003 65.8216 10.2003 65.7216V64.5716C10.2003 64.4716 10.1303 64.3816 10.0203 64.3516C9.91033 64.3916 9.84033 64.4716 9.84033 64.5716V65.7216C9.84033 65.8216 9.91033 65.9116 10.0203 65.9416Z" fill="url(#paint42_linear_2227_85865)"/>
<path d="M34.3598 66.0078C34.5298 66.0078 34.6698 65.8878 34.6698 65.7478V64.5178C34.6698 64.3778 34.5298 64.2578 34.3598 64.2578C34.1898 64.2578 34.0498 64.3778 34.0498 64.5178V65.7478C34.0498 65.8878 34.1898 66.0078 34.3598 66.0078Z" fill="#676767"/>
<path d="M34.4197 64.3359C34.5297 64.3759 34.5997 64.4559 34.5997 64.5559V65.7059C34.5997 65.8059 34.5297 65.8959 34.4197 65.9259C34.3097 65.8859 34.2397 65.8059 34.2397 65.7059V64.5559C34.2397 64.4559 34.3097 64.3659 34.4197 64.3359Z" fill="url(#paint43_linear_2227_85865)"/>
<path d="M35.5698 65.7891C35.7398 65.7891 35.8798 65.6691 35.8798 65.5291V64.2991C35.8798 64.1591 35.7398 64.0391 35.5698 64.0391C35.3998 64.0391 35.2598 64.1591 35.2598 64.2991V65.5291C35.2598 65.6691 35.3998 65.7891 35.5698 65.7891Z" fill="#676767"/>
<path d="M35.6297 64.1094C35.7397 64.1494 35.8097 64.2294 35.8097 64.3294V65.4794C35.8097 65.5794 35.7397 65.6694 35.6297 65.6994C35.5197 65.6594 35.4497 65.5794 35.4497 65.4794V64.3294C35.4497 64.2294 35.5197 64.1394 35.6297 64.1094Z" fill="url(#paint44_linear_2227_85865)"/>
<path d="M36.7797 65.5195C36.9497 65.5195 37.0897 65.3995 37.0897 65.2595V64.0295C37.0897 63.8895 36.9497 63.7695 36.7797 63.7695C36.6097 63.7695 36.4697 63.8895 36.4697 64.0295V65.2595C36.4697 65.3995 36.6097 65.5195 36.7797 65.5195Z" fill="#676767"/>
<path d="M36.8299 63.8398C36.9399 63.8798 37.0099 63.9598 37.0099 64.0598V65.2098C37.0099 65.3098 36.9399 65.3998 36.8299 65.4298C36.7199 65.3898 36.6499 65.3098 36.6499 65.2098V64.0598C36.6499 63.9598 36.7199 63.8698 36.8299 63.8398Z" fill="url(#paint45_linear_2227_85865)"/>
<path d="M38.4902 3.92188V4.56187C39.7002 5.17187 40.5202 6.27187 40.5202 7.54187V6.90187C40.5202 5.64187 39.7102 4.53188 38.4902 3.92188Z" fill="#F26722"/>
<path d="M40.51 7.53281V7.36281C40.51 6.10281 39.7 4.99281 38.48 4.38281V4.55281C39.69 5.16281 40.51 6.26281 40.51 7.53281Z" fill="url(#paint46_radial_2227_85865)"/>
<path d="M38.49 3.92188C37.86 3.60188 37.12 3.42188 36.32 3.42188H33.67L33.5 4.06187H36.32C37.11 4.06187 37.85 4.25187 38.49 4.56187V3.92188Z" fill="#CB2026"/>
<path d="M33.54 3.91016L33.5 4.06015H36.32C37.11 4.06015 37.85 4.25015 38.49 4.56015V4.41016C37.86 4.09016 37.12 3.91016 36.32 3.91016H33.54Z" fill="url(#paint47_radial_2227_85865)"/>
<path opacity="0.3" d="M38.0099 4.21255C38.1099 4.26255 38.2299 4.32255 38.3299 4.27255C38.4199 4.23255 38.4299 4.11255 38.3799 4.04255C38.3299 3.97255 38.2299 3.92255 38.1299 3.89255C37.4899 3.65255 36.7899 3.58255 36.0899 3.55255C35.6899 3.54255 35.2899 3.55255 34.8999 3.55255C34.6699 3.55255 34.1399 3.46255 33.9699 3.65255C33.9099 3.72255 33.9099 3.88255 33.8799 3.96255C34.5399 3.96255 35.2099 3.95255 35.8699 3.96255C36.4399 3.96255 37.0199 3.98255 37.5799 4.09255C37.7299 4.12255 37.8799 4.16255 38.0099 4.22255V4.21255Z" fill="#640E0E"/>
<path opacity="0.5" d="M40.3601 6.26234C40.1601 5.90234 39.9602 5.54234 39.6802 5.22234C39.4002 4.90234 39.0401 4.62234 38.6001 4.47234C38.5701 4.36234 38.6001 4.25234 38.6601 4.15234C39.5401 4.62234 40.1701 5.40235 40.3501 6.25235L40.3601 6.26234Z" fill="#EF3D23"/>
<path d="M5.86984 3.92188V4.56187C4.65984 5.17187 3.83984 6.27187 3.83984 7.54187V6.90187C3.83984 5.64187 4.64984 4.53188 5.86984 3.92188Z" fill="#F26722"/>
<path d="M3.83984 7.53281V7.36281C3.83984 6.10281 4.64984 4.99281 5.86984 4.38281V4.55281C4.65984 5.16281 3.83984 6.26281 3.83984 7.53281Z" fill="url(#paint48_radial_2227_85865)"/>
<path d="M5.86963 3.92188C6.49963 3.60188 7.23963 3.42188 8.03963 3.42188H10.6896L10.8596 4.06187H8.03963C7.24963 4.06187 6.50963 4.25187 5.86963 4.56187V3.92188Z" fill="#CB2026"/>
<path d="M10.8196 3.91016L10.8596 4.06015H8.03963C7.24963 4.06015 6.50963 4.25015 5.86963 4.56015V4.41016C6.49963 4.09016 7.23963 3.91016 8.03963 3.91016H10.8196Z" fill="url(#paint49_radial_2227_85865)"/>
<path opacity="0.3" d="M6.34964 4.21255C6.24964 4.26255 6.12964 4.32255 6.02964 4.27255C5.93964 4.23255 5.92964 4.11255 5.97964 4.04255C6.03964 3.97255 6.12964 3.92255 6.22964 3.89255C6.86964 3.65255 7.56964 3.58255 8.26964 3.55255C8.66964 3.54255 9.06965 3.55255 9.45965 3.55255C9.68965 3.55255 10.2196 3.46255 10.3896 3.65255C10.4496 3.72255 10.4496 3.88255 10.4796 3.96255C9.81964 3.96255 9.14964 3.95255 8.48964 3.96255C7.91964 3.96255 7.33964 3.98255 6.77964 4.09255C6.62964 4.12255 6.47964 4.16255 6.34964 4.22255V4.21255Z" fill="#640E0E"/>
<path opacity="0.5" d="M3.98975 6.26234C4.18975 5.90234 4.38975 5.54234 4.66975 5.22234C4.94975 4.90234 5.30975 4.62234 5.74975 4.47234C5.77975 4.36234 5.74974 4.25234 5.68974 4.15234C4.80974 4.62234 4.17975 5.40235 3.99975 6.25235L3.98975 6.26234Z" fill="#EF3D23"/>
<path d="M20.6099 3.73078C20.6099 3.63078 20.9099 3.55078 21.2799 3.55078H24.4799C24.8499 3.55078 25.1499 3.63078 25.1499 3.73078C25.1499 3.83078 24.8499 3.91078 24.4799 3.91078H21.2799C20.9099 3.91078 20.6099 3.83078 20.6099 3.73078Z" fill="#676767"/>
<path d="M24.9501 3.68984C24.8601 3.62984 24.6301 3.58984 24.3701 3.58984H21.3901C21.1301 3.58984 20.9101 3.62984 20.8101 3.68984C20.9001 3.74984 21.1301 3.78984 21.3901 3.78984H24.3701C24.6301 3.78984 24.8501 3.74984 24.9501 3.68984Z" fill="url(#paint50_linear_2227_85865)"/>
<path style="mix-blend-mode:overlay" opacity="0.5" d="M20.8 52.9022H21.11C21.11 52.9022 20.29 42.0022 21.11 29.4922C21.11 29.4922 21 29.4922 20.8 29.4922C19.99 41.8322 20.78 52.6022 20.8 52.8922V52.9022Z" fill="url(#paint51_linear_2227_85865)"/>
<path style="mix-blend-mode:overlay" opacity="0.5" d="M10.2297 52.4414C13.4497 53.1014 17.5697 53.2414 20.4797 53.2314C17.6097 53.2314 13.7197 53.0814 10.6197 52.4614L10.2197 52.4414H10.2297Z" fill="url(#paint52_linear_2227_85865)"/>
<path style="mix-blend-mode:overlay" opacity="0.5" d="M6.23985 4.40164C6.68985 4.17164 8.83985 3.21164 14.0298 3.19164C7.88985 3.17164 5.83984 4.45164 5.83984 4.45164C5.95984 4.43164 6.08985 4.42164 6.23985 4.40164Z" fill="url(#paint53_linear_2227_85865)"/>
<path style="mix-blend-mode:overlay" opacity="0.5" d="M15.96 86.0703L16.14 86.6803H16.45L16.27 86.0703H15.96Z" fill="url(#paint54_linear_2227_85865)"/>
<path style="mix-blend-mode:overlay" opacity="0.5" d="M18.6499 3.39219C18.7599 3.39219 18.8699 3.41219 18.9799 3.42219C18.9799 3.42219 18.0999 2.67219 18.9799 1.99219H18.6699C17.8899 2.60219 18.4999 3.26219 18.6399 3.40219L18.6499 3.39219Z" fill="url(#paint55_linear_2227_85865)"/>
<path style="mix-blend-mode:overlay" opacity="0.5" d="M22.3497 86.6836H22.0397C20.9397 87.3536 22.0397 88.0836 22.0397 88.0836H22.3497C22.3497 88.0836 21.2497 87.3536 22.3497 86.6836Z" fill="url(#paint56_linear_2227_85865)"/>
<path d="M40.27 58.9283L44.78 57.4883V58.1883C44.78 58.5183 44.54 58.8083 44.17 58.9283L40.27 60.1783V58.9383V58.9283Z" fill="#010101"/>
<path opacity="0.4" d="M40.27 58.8384L44.78 57.3984V58.0984C44.78 58.4284 44.54 58.7184 44.17 58.8384L40.27 60.0884V58.8484V58.8384Z" fill="url(#paint57_linear_2227_85865)"/>
<path d="M41.5599 57.9501L44.4099 57.1801C44.5899 57.1301 44.7799 57.2401 44.7799 57.4001V58.2601L41.3599 59.1801V58.1702C41.3599 58.0702 41.4399 57.9801 41.5599 57.9501Z" fill="#333333"/>
<path d="M41.5599 57.9501L44.4099 57.1801C44.5899 57.1301 44.7799 57.2401 44.7799 57.4001V58.2601L41.3599 59.1801V58.1702C41.3599 58.0702 41.4399 57.9801 41.5599 57.9501Z" fill="url(#paint58_linear_2227_85865)"/>
<path d="M4.50999 58.9283L0 57.4883V58.1883C0 58.5183 0.240001 58.8083 0.610001 58.9283L4.50999 60.1783V58.9383V58.9283Z" fill="#010101"/>
<path opacity="0.4" d="M4.50999 58.8384L0 57.3984V58.0984C0 58.4284 0.240001 58.7184 0.610001 58.8384L4.50999 60.0884V58.8484V58.8384Z" fill="url(#paint59_linear_2227_85865)"/>
<path d="M3.21999 57.9501L0.369995 57.1801C0.189995 57.1301 0 57.2401 0 57.4001V58.2601L3.42 59.1801V58.1702C3.42 58.0702 3.33999 57.9801 3.21999 57.9501Z" fill="#333333"/>
<path d="M3.21999 57.9501L0.369995 57.1801C0.189995 57.1301 0 57.2401 0 57.4001V58.2601L3.42 59.1801V58.1702C3.42 58.0702 3.33999 57.9801 3.21999 57.9501Z" fill="url(#paint60_linear_2227_85865)"/>
<defs>
<linearGradient id="paint0_linear_2227_85865" x1="35.2896" y1="1.4275" x2="9.47955" y2="1.4275" gradientUnits="userSpaceOnUse">
<stop stop-color="#C8C5C5"/>
<stop offset="0.04" stop-color="#676868"/>
<stop offset="0.11" stop-color="white"/>
<stop offset="0.3" stop-color="#939292"/>
<stop offset="0.49" stop-color="white"/>
<stop offset="0.63" stop-color="#676868"/>
<stop offset="0.77" stop-color="#939292"/>
<stop offset="0.82" stop-color="#C8C5C5"/>
<stop offset="1" stop-color="#343433"/>
</linearGradient>
<linearGradient id="paint1_linear_2227_85865" x1="22.3895" y1="2.36969" x2="22.3895" y2="1.17969" gradientUnits="userSpaceOnUse">
<stop stop-color="#010101"/>
<stop offset="1" stop-color="#010101" stop-opacity="0"/>
</linearGradient>
<linearGradient id="paint2_linear_2227_85865" x1="30.6399" y1="1.05531" x2="35.4799" y2="1.05531" gradientUnits="userSpaceOnUse">
<stop stop-color="#C8C5C5"/>
<stop offset="0.04" stop-color="#676868"/>
<stop offset="0.11" stop-color="white"/>
<stop offset="0.3" stop-color="#939292"/>
<stop offset="0.49" stop-color="white"/>
<stop offset="0.63" stop-color="#676868"/>
<stop offset="0.77" stop-color="#939292"/>
<stop offset="0.82" stop-color="#C8C5C5"/>
<stop offset="1" stop-color="#343433"/>
</linearGradient>
<linearGradient id="paint3_linear_2227_85865" x1="31.8102" y1="-0.3525" x2="31.8102" y2="2.8775" gradientUnits="userSpaceOnUse">
<stop stop-color="#C8C5C5"/>
<stop offset="0.04" stop-color="#676868"/>
<stop offset="0.11" stop-color="white"/>
<stop offset="0.3" stop-color="#939292"/>
<stop offset="0.49" stop-color="white"/>
<stop offset="0.63" stop-color="#676868"/>
<stop offset="0.77" stop-color="#939292"/>
<stop offset="0.82" stop-color="#C8C5C5"/>
<stop offset="1" stop-color="#343433"/>
</linearGradient>
<linearGradient id="paint4_linear_2227_85865" x1="11.7898" y1="1.05531" x2="16.6298" y2="1.05531" gradientUnits="userSpaceOnUse">
<stop stop-color="#C8C5C5"/>
<stop offset="0.04" stop-color="#676868"/>
<stop offset="0.11" stop-color="white"/>
<stop offset="0.3" stop-color="#939292"/>
<stop offset="0.49" stop-color="white"/>
<stop offset="0.63" stop-color="#676868"/>
<stop offset="0.77" stop-color="#939292"/>
<stop offset="0.82" stop-color="#C8C5C5"/>
<stop offset="1" stop-color="#343433"/>
</linearGradient>
<linearGradient id="paint5_linear_2227_85865" x1="12.9598" y1="0.0775001" x2="12.9598" y2="2.3775" gradientUnits="userSpaceOnUse">
<stop stop-color="#C8C5C5"/>
<stop offset="0.04" stop-color="#676868"/>
<stop offset="0.11" stop-color="white"/>
<stop offset="0.3" stop-color="#939292"/>
<stop offset="0.49" stop-color="white"/>
<stop offset="0.63" stop-color="#676868"/>
<stop offset="0.77" stop-color="#939292"/>
<stop offset="0.82" stop-color="#C8C5C5"/>
<stop offset="1" stop-color="#343433"/>
</linearGradient>
<linearGradient id="paint6_linear_2227_85865" x1="32.5396" y1="88.5798" x2="12.2295" y2="88.5798" gradientUnits="userSpaceOnUse">
<stop stop-color="#C8C5C5"/>
<stop offset="0.04" stop-color="#676868"/>
<stop offset="0.11" stop-color="white"/>
<stop offset="0.3" stop-color="#939292"/>
<stop offset="0.49" stop-color="white"/>
<stop offset="0.63" stop-color="#676868"/>
<stop offset="0.77" stop-color="#939292"/>
<stop offset="0.82" stop-color="#C8C5C5"/>
<stop offset="1" stop-color="#343433"/>
</linearGradient>
<linearGradient id="paint7_linear_2227_85865" x1="22.3895" y1="87.5916" x2="22.3895" y2="88.7816" gradientUnits="userSpaceOnUse">
<stop stop-color="#010101"/>
<stop offset="1" stop-color="#010101" stop-opacity="0"/>
</linearGradient>
<linearGradient id="paint8_linear_2227_85865" x1="28.8697" y1="88.9577" x2="32.6797" y2="88.9577" gradientUnits="userSpaceOnUse">
<stop stop-color="#C8C5C5"/>
<stop offset="0.04" stop-color="#676868"/>
<stop offset="0.11" stop-color="white"/>
<stop offset="0.3" stop-color="#939292"/>
<stop offset="0.49" stop-color="white"/>
<stop offset="0.63" stop-color="#676868"/>
<stop offset="0.77" stop-color="#939292"/>
<stop offset="0.82" stop-color="#C8C5C5"/>
<stop offset="1" stop-color="#343433"/>
</linearGradient>
<linearGradient id="paint9_linear_2227_85865" x1="29.7997" y1="90.3599" x2="29.7997" y2="87.1298" gradientUnits="userSpaceOnUse">
<stop stop-color="#C8C5C5"/>
<stop offset="0.04" stop-color="#676868"/>
<stop offset="0.11" stop-color="white"/>
<stop offset="0.3" stop-color="#939292"/>
<stop offset="0.49" stop-color="white"/>
<stop offset="0.63" stop-color="#676868"/>
<stop offset="0.77" stop-color="#939292"/>
<stop offset="0.82" stop-color="#C8C5C5"/>
<stop offset="1" stop-color="#343433"/>
</linearGradient>
<linearGradient id="paint10_linear_2227_85865" x1="14.0396" y1="88.9577" x2="17.8496" y2="88.9577" gradientUnits="userSpaceOnUse">
<stop stop-color="#C8C5C5"/>
<stop offset="0.04" stop-color="#676868"/>
<stop offset="0.11" stop-color="white"/>
<stop offset="0.3" stop-color="#939292"/>
<stop offset="0.49" stop-color="white"/>
<stop offset="0.63" stop-color="#676868"/>
<stop offset="0.77" stop-color="#939292"/>
<stop offset="0.82" stop-color="#C8C5C5"/>
<stop offset="1" stop-color="#343433"/>
</linearGradient>
<linearGradient id="paint11_linear_2227_85865" x1="14.9697" y1="89.9299" x2="14.9697" y2="87.6298" gradientUnits="userSpaceOnUse">
<stop stop-color="#C8C5C5"/>
<stop offset="0.04" stop-color="#676868"/>
<stop offset="0.11" stop-color="white"/>
<stop offset="0.3" stop-color="#939292"/>
<stop offset="0.49" stop-color="white"/>
<stop offset="0.63" stop-color="#676868"/>
<stop offset="0.77" stop-color="#939292"/>
<stop offset="0.82" stop-color="#C8C5C5"/>
<stop offset="1" stop-color="#343433"/>
</linearGradient>
<linearGradient id="paint12_linear_2227_85865" x1="22.3399" y1="87.2102" x2="22.3399" y2="86.6802" gradientUnits="userSpaceOnUse">
<stop stop-color="#010101" stop-opacity="0"/>
<stop offset="0.99" stop-color="#010101"/>
</linearGradient>
<linearGradient id="paint13_linear_2227_85865" x1="22.3399" y1="86.8302" x2="22.3399" y2="88.0702" gradientUnits="userSpaceOnUse">
<stop offset="0.42" stop-color="white" stop-opacity="0"/>
<stop offset="1" stop-color="white"/>
</linearGradient>
<linearGradient id="paint14_linear_2227_85865" x1="22.3402" y1="3.39016" x2="22.3402" y2="4.12016" gradientUnits="userSpaceOnUse">
<stop stop-color="#010101"/>
<stop offset="1" stop-color="#010101" stop-opacity="0"/>
</linearGradient>
<radialGradient id="paint15_radial_2227_85865" cx="0" cy="0" r="1" gradientUnits="userSpaceOnUse" gradientTransform="translate(17.5368 44.2108) scale(0.605 0.5)">
<stop stop-color="white" stop-opacity="0"/>
<stop offset="1" stop-color="white"/>
</radialGradient>
<linearGradient id="paint16_linear_2227_85865" x1="22.3399" y1="64.5812" x2="22.3399" y2="63.7012" gradientUnits="userSpaceOnUse">
<stop stop-color="#010101"/>
<stop offset="1" stop-color="#010101" stop-opacity="0"/>
</linearGradient>
<radialGradient id="paint17_radial_2227_85865" cx="0" cy="0" r="1" gradientUnits="userSpaceOnUse" gradientTransform="translate(45.2711 58.4694) rotate(-180) scale(29.6208 24.48)">
<stop stop-color="white" stop-opacity="0"/>
<stop offset="1" stop-color="white"/>
</radialGradient>
<radialGradient id="paint18_radial_2227_85865" cx="0" cy="0" r="1" gradientUnits="userSpaceOnUse" gradientTransform="translate(41.8589 57.0794) rotate(-180) scale(28.5076 23.56)">
<stop offset="0.01" stop-color="#010101"/>
<stop offset="1" stop-color="#010101" stop-opacity="0"/>
</radialGradient>
<linearGradient id="paint19_linear_2227_85865" x1="22.3399" y1="17.2994" x2="22.3399" y2="18.1794" gradientUnits="userSpaceOnUse">
<stop stop-color="#010101"/>
<stop offset="1" stop-color="#010101" stop-opacity="0"/>
</linearGradient>
<radialGradient id="paint20_radial_2227_85865" cx="0" cy="0" r="1" gradientUnits="userSpaceOnUse" gradientTransform="translate(45.2711 23.3384) rotate(-180) scale(29.6208 24.48)">
<stop stop-color="white" stop-opacity="0"/>
<stop offset="1" stop-color="white"/>
</radialGradient>
<radialGradient id="paint21_radial_2227_85865" cx="0" cy="0" r="1" gradientUnits="userSpaceOnUse" gradientTransform="translate(38.6282 27.6184) rotate(180) scale(39.0951 32.31)">
<stop offset="0.01" stop-color="#010101"/>
<stop offset="1" stop-color="#010101" stop-opacity="0"/>
</radialGradient>
<linearGradient id="paint22_linear_2227_85865" x1="3.79008" y1="52.0986" x2="4.19008" y2="52.0986" gradientUnits="userSpaceOnUse">
<stop stop-color="#010101"/>
<stop offset="1" stop-color="#010101" stop-opacity="0"/>
</linearGradient>
<linearGradient id="paint23_linear_2227_85865" x1="4.54025" y1="51.8372" x2="6.20025" y2="51.8372" gradientUnits="userSpaceOnUse">
<stop stop-color="white"/>
<stop offset="1" stop-color="white" stop-opacity="0"/>
</linearGradient>
<linearGradient id="paint24_linear_2227_85865" x1="7.31025" y1="51.8372" x2="9.56025" y2="51.8372" gradientUnits="userSpaceOnUse">
<stop stop-color="#010101" stop-opacity="0"/>
<stop offset="0.99" stop-color="#010101"/>
</linearGradient>
<linearGradient id="paint25_linear_2227_85865" x1="3.84984" y1="38.5477" x2="4.18984" y2="38.5477" gradientUnits="userSpaceOnUse">
<stop stop-color="#010101"/>
<stop offset="1" stop-color="#010101" stop-opacity="0"/>
</linearGradient>
<linearGradient id="paint26_linear_2227_85865" x1="4.53977" y1="38.5384" x2="6.19977" y2="38.5384" gradientUnits="userSpaceOnUse">
<stop stop-color="white"/>
<stop offset="1" stop-color="white" stop-opacity="0"/>
</linearGradient>
<linearGradient id="paint27_linear_2227_85865" x1="7.30977" y1="38.5384" x2="9.55977" y2="38.5384" gradientUnits="userSpaceOnUse">
<stop stop-color="#010101" stop-opacity="0"/>
<stop offset="0.99" stop-color="#010101"/>
</linearGradient>
<linearGradient id="paint28_linear_2227_85865" x1="3.8501" y1="28.3892" x2="4.1901" y2="28.3892" gradientUnits="userSpaceOnUse">
<stop stop-color="#010101"/>
<stop offset="1" stop-color="#010101" stop-opacity="0"/>
</linearGradient>
<linearGradient id="paint29_linear_2227_85865" x1="4.53998" y1="28.4594" x2="6.19998" y2="28.4594" gradientUnits="userSpaceOnUse">
<stop stop-color="white"/>
<stop offset="1" stop-color="white" stop-opacity="0"/>
</linearGradient>
<linearGradient id="paint30_linear_2227_85865" x1="7.30998" y1="28.4594" x2="9.55998" y2="28.4594" gradientUnits="userSpaceOnUse">
<stop stop-color="#010101" stop-opacity="0"/>
<stop offset="0.99" stop-color="#010101"/>
</linearGradient>
<linearGradient id="paint31_linear_2227_85865" x1="40.98" y1="52.0986" x2="40.58" y2="52.0986" gradientUnits="userSpaceOnUse">
<stop stop-color="#010101"/>
<stop offset="1" stop-color="#010101" stop-opacity="0"/>
</linearGradient>
<linearGradient id="paint32_linear_2227_85865" x1="40.2399" y1="51.8372" x2="38.5699" y2="51.8372" gradientUnits="userSpaceOnUse">
<stop stop-color="white"/>
<stop offset="1" stop-color="white" stop-opacity="0"/>
</linearGradient>
<linearGradient id="paint33_linear_2227_85865" x1="37.4599" y1="51.8372" x2="35.2099" y2="51.8372" gradientUnits="userSpaceOnUse">
<stop stop-color="#010101" stop-opacity="0"/>
<stop offset="0.99" stop-color="#010101"/>
</linearGradient>
<linearGradient id="paint34_linear_2227_85865" x1="40.92" y1="38.5477" x2="40.58" y2="38.5477" gradientUnits="userSpaceOnUse">
<stop stop-color="#010101"/>
<stop offset="1" stop-color="#010101" stop-opacity="0"/>
</linearGradient>
<linearGradient id="paint35_linear_2227_85865" x1="40.2399" y1="38.5384" x2="38.5699" y2="38.5384" gradientUnits="userSpaceOnUse">
<stop stop-color="white"/>
<stop offset="1" stop-color="white" stop-opacity="0"/>
</linearGradient>
<linearGradient id="paint36_linear_2227_85865" x1="37.4599" y1="38.5384" x2="35.2099" y2="38.5384" gradientUnits="userSpaceOnUse">
<stop stop-color="#010101" stop-opacity="0"/>
<stop offset="0.99" stop-color="#010101"/>
</linearGradient>
<linearGradient id="paint37_linear_2227_85865" x1="40.92" y1="28.3892" x2="40.58" y2="28.3892" gradientUnits="userSpaceOnUse">
<stop stop-color="#010101"/>
<stop offset="1" stop-color="#010101" stop-opacity="0"/>
</linearGradient>
<linearGradient id="paint38_linear_2227_85865" x1="40.2401" y1="28.4594" x2="38.5701" y2="28.4594" gradientUnits="userSpaceOnUse">
<stop stop-color="white"/>
<stop offset="1" stop-color="white" stop-opacity="0"/>
</linearGradient>
<linearGradient id="paint39_linear_2227_85865" x1="37.4601" y1="28.4594" x2="35.2101" y2="28.4594" gradientUnits="userSpaceOnUse">
<stop stop-color="#010101" stop-opacity="0"/>
<stop offset="0.99" stop-color="#010101"/>
</linearGradient>
<linearGradient id="paint40_linear_2227_85865" x1="7.78041" y1="64.6416" x2="7.42041" y2="64.6416" gradientUnits="userSpaceOnUse">
<stop stop-color="#010101"/>
<stop offset="1" stop-color="#010101" stop-opacity="0"/>
</linearGradient>
<linearGradient id="paint41_linear_2227_85865" x1="8.99037" y1="64.872" x2="8.63037" y2="64.872" gradientUnits="userSpaceOnUse">
<stop stop-color="#010101"/>
<stop offset="1" stop-color="#010101" stop-opacity="0"/>
</linearGradient>
<linearGradient id="paint42_linear_2227_85865" x1="10.2003" y1="65.1416" x2="9.84033" y2="65.1416" gradientUnits="userSpaceOnUse">
<stop stop-color="#010101"/>
<stop offset="1" stop-color="#010101" stop-opacity="0"/>
</linearGradient>
<linearGradient id="paint43_linear_2227_85865" x1="34.5997" y1="65.1359" x2="34.2397" y2="65.1359" gradientUnits="userSpaceOnUse">
<stop stop-color="#010101"/>
<stop offset="1" stop-color="#010101" stop-opacity="0"/>
</linearGradient>
<linearGradient id="paint44_linear_2227_85865" x1="35.7997" y1="64.9094" x2="35.4397" y2="64.9094" gradientUnits="userSpaceOnUse">
<stop stop-color="#010101"/>
<stop offset="1" stop-color="#010101" stop-opacity="0"/>
</linearGradient>
<linearGradient id="paint45_linear_2227_85865" x1="37.0099" y1="64.6398" x2="36.6499" y2="64.6398" gradientUnits="userSpaceOnUse">
<stop stop-color="#010101"/>
<stop offset="1" stop-color="#010101" stop-opacity="0"/>
</linearGradient>
<radialGradient id="paint46_radial_2227_85865" cx="0" cy="0" r="1" gradientUnits="userSpaceOnUse" gradientTransform="translate(45.5253 5.96281) rotate(180) scale(1.5246 1.26)">
<stop stop-color="white" stop-opacity="0"/>
<stop offset="1" stop-color="white"/>
</radialGradient>
<radialGradient id="paint47_radial_2227_85865" cx="0" cy="0" r="1" gradientUnits="userSpaceOnUse" gradientTransform="translate(42.0042 4.23016) rotate(180) scale(1.7908 1.47999)">
<stop stop-color="white" stop-opacity="0"/>
<stop offset="1" stop-color="white"/>
</radialGradient>
<radialGradient id="paint48_radial_2227_85865" cx="0" cy="0" r="1" gradientUnits="userSpaceOnUse" gradientTransform="translate(10.1586 5.96281) scale(1.5246 1.26)">
<stop stop-color="white" stop-opacity="0"/>
<stop offset="1" stop-color="white"/>
</radialGradient>
<radialGradient id="paint49_radial_2227_85865" cx="0" cy="0" r="1" gradientUnits="userSpaceOnUse" gradientTransform="translate(13.6795 4.23016) scale(1.7908 1.47999)">
<stop stop-color="white" stop-opacity="0"/>
<stop offset="1" stop-color="white"/>
</radialGradient>
<linearGradient id="paint50_linear_2227_85865" x1="22.8801" y1="3.58984" x2="22.8801" y2="3.79984" gradientUnits="userSpaceOnUse">
<stop stop-color="#010101"/>
<stop offset="1" stop-color="#010101" stop-opacity="0"/>
</linearGradient>
<linearGradient id="paint51_linear_2227_85865" x1="20.4" y1="41.2022" x2="21.09" y2="41.2022" gradientUnits="userSpaceOnUse">
<stop offset="0.42" stop-color="white" stop-opacity="0"/>
<stop offset="1" stop-color="white"/>
</linearGradient>
<linearGradient id="paint52_linear_2227_85865" x1="9.72973" y1="52.8414" x2="20.2797" y2="52.8414" gradientUnits="userSpaceOnUse">
<stop offset="0.42" stop-color="white" stop-opacity="0"/>
<stop offset="1" stop-color="white"/>
</linearGradient>
<linearGradient id="paint53_linear_2227_85865" x1="5.43984" y1="3.82164" x2="13.8698" y2="3.82164" gradientUnits="userSpaceOnUse">
<stop offset="0.42" stop-color="white" stop-opacity="0"/>
<stop offset="1" stop-color="white"/>
</linearGradient>
<linearGradient id="paint54_linear_2227_85865" x1="15.94" y1="86.3803" x2="16.43" y2="86.3803" gradientUnits="userSpaceOnUse">
<stop offset="0.42" stop-color="white" stop-opacity="0"/>
<stop offset="1" stop-color="white"/>
</linearGradient>
<linearGradient id="paint55_linear_2227_85865" x1="18.2499" y1="2.70219" x2="18.9699" y2="2.70219" gradientUnits="userSpaceOnUse">
<stop offset="0.42" stop-color="white" stop-opacity="0"/>
<stop offset="1" stop-color="white"/>
</linearGradient>
<linearGradient id="paint56_linear_2227_85865" x1="21.5097" y1="87.3836" x2="22.3297" y2="87.3836" gradientUnits="userSpaceOnUse">
<stop offset="0.42" stop-color="white" stop-opacity="0"/>
<stop offset="1" stop-color="white"/>
</linearGradient>
<linearGradient id="paint57_linear_2227_85865" x1="42.73" y1="59.3184" x2="42.62" y2="59.0184" gradientUnits="userSpaceOnUse">
<stop stop-color="white"/>
<stop offset="1" stop-color="white" stop-opacity="0"/>
</linearGradient>
<linearGradient id="paint58_linear_2227_85865" x1="41.5899" y1="58.9901" x2="43.7299" y2="57.7901" gradientUnits="userSpaceOnUse">
<stop stop-color="#010101"/>
<stop offset="1" stop-color="#010101" stop-opacity="0"/>
</linearGradient>
<linearGradient id="paint59_linear_2227_85865" x1="2.04" y1="59.3184" x2="2.15" y2="59.0184" gradientUnits="userSpaceOnUse">
<stop stop-color="white"/>
<stop offset="1" stop-color="white" stop-opacity="0"/>
</linearGradient>
<linearGradient id="paint60_linear_2227_85865" x1="3.18" y1="58.9901" x2="1.04" y2="57.7901" gradientUnits="userSpaceOnUse">
<stop stop-color="#010101"/>
<stop offset="1" stop-color="#010101" stop-opacity="0"/>
</linearGradient>
</defs>
</svg>
