<svg width="24" height="47" viewBox="0 0 24 47" fill="none" xmlns="http://www.w3.org/2000/svg">
<g clip-path="url(#clip0_3278_35999)">
<path d="M18.197 1.17935L4.99885 1.13493L4.99947 0.950842C5.00057 0.623572 5.26736 0.358561 5.59463 0.359663L17.6013 0.400076C17.9286 0.401177 18.1936 0.667978 18.1925 0.995248L18.1919 1.17934L18.197 1.17935Z" fill="url(#paint0_linear_3278_35999)"/>
<path d="M18.1965 1.3032L4.99836 1.25877L4.99898 1.07468C5.00008 0.747414 5.26687 0.482401 5.59414 0.483503L17.6008 0.523916C17.9281 0.525017 18.1931 0.79182 18.192 1.11909L18.1914 1.30318L18.1965 1.3032Z" fill="#333333"/>
<path d="M18.1965 1.3032L4.99836 1.25877L4.99898 1.07468C5.00008 0.747414 5.26687 0.482401 5.59414 0.483503L17.6008 0.523916C17.9281 0.525017 18.1931 0.79182 18.192 1.11909L18.1914 1.30318L18.1965 1.3032Z" fill="url(#paint1_linear_3278_35999)"/>
<path d="M16.2592 1.04897L16.5762 1.05004C16.7203 1.05052 16.8374 0.934158 16.8379 0.790124L16.8392 0.401493C16.8397 0.257461 16.7233 0.140308 16.5793 0.139823L16.2623 0.138756C16.1182 0.138271 16.0011 0.254638 16.0006 0.39867L15.9993 0.787301C15.9988 0.931336 16.1151 1.04849 16.2592 1.04897Z" fill="url(#paint2_linear_3278_35999)"/>
<path d="M16.6177 0.908101L16.6198 0.279131L16.2209 0.277788L16.2137 0.901628L16.2188 0.906759L16.6177 0.908101Z" fill="url(#paint3_linear_3278_35999)"/>
<path d="M6.62003 1.0165L6.93708 1.01757C7.08107 1.01805 7.19826 0.901688 7.19875 0.757653L7.20005 0.369022C7.20054 0.22499 7.08414 0.107837 6.94014 0.107353L6.6231 0.106286C6.47905 0.105801 6.36191 0.222168 6.36143 0.366199L6.36012 0.754831C6.35963 0.898865 6.47598 1.01602 6.62003 1.0165Z" fill="url(#paint4_linear_3278_35999)"/>
<path d="M6.98389 0.875692L6.986 0.246721L6.58714 0.245379L6.57993 0.869218L6.58503 0.874349L6.98389 0.875692Z" fill="url(#paint5_linear_3278_35999)"/>
<path d="M16.2165 0.133941L16.6205 0.135301L16.6208 0.0534837L16.2168 0.052124L16.2165 0.133941Z" fill="#010101"/>
<path d="M6.58273 0.101532L6.98671 0.102891L6.98698 0.0210741L6.58301 0.0197144L6.58273 0.101532Z" fill="#010101"/>
<path d="M16.0421 45.7386L6.84788 45.7077C6.52061 45.7066 6.2556 45.4398 6.2567 45.1126L6.25732 44.9285L16.643 44.9634L16.6424 45.1475C16.6413 45.4748 16.3745 45.7397 16.0472 45.7386L16.0421 45.7386Z" fill="url(#paint6_linear_3278_35999)"/>
<path d="M16.0426 45.6169L6.84837 45.5859C6.5211 45.5848 6.25609 45.318 6.25719 44.9907L6.25781 44.8066L16.6435 44.8416L16.6429 45.0257C16.6418 45.353 16.375 45.618 16.0477 45.6169L16.0426 45.6169Z" fill="#333333"/>
<path d="M16.0426 45.6169L6.84837 45.5859C6.5211 45.5848 6.25609 45.318 6.25719 44.9907L6.25781 44.8066L16.6435 44.8416L16.6429 45.0257C16.6418 45.353 16.375 45.618 16.0477 45.6169L16.0426 45.6169Z" fill="url(#paint7_linear_3278_35999)"/>
<path d="M15.1723 45.9954L15.3103 45.9959C15.4544 45.9964 15.5715 45.88 15.572 45.736L15.5733 45.3474C15.5738 45.2033 15.4575 45.0862 15.3134 45.0857L15.1753 45.0852C15.0313 45.0847 14.9142 45.2011 14.9137 45.3451L14.9124 45.7338C14.9119 45.8778 15.0282 45.995 15.1723 45.9954Z" fill="url(#paint8_linear_3278_35999)"/>
<path d="M15.4001 45.2251L15.3979 45.8542L15.0809 45.8531L15.083 45.2292L15.083 45.2241L15.4001 45.2251Z" fill="url(#paint9_linear_3278_35999)"/>
<path d="M7.58878 45.9699L7.72685 45.9703C7.8709 45.9708 7.98804 45.8544 7.98852 45.7104L7.98983 45.3218C7.99031 45.1777 7.87396 45.0606 7.72991 45.0601L7.59185 45.0597C7.4478 45.0592 7.33066 45.1755 7.33018 45.3196L7.32887 45.7082C7.32838 45.8522 7.44473 45.9694 7.58878 45.9699Z" fill="url(#paint10_linear_3278_35999)"/>
<path d="M7.81655 45.1996L7.81955 45.8286L7.50251 45.8275L7.49949 45.2037L7.50463 45.1985L7.81655 45.1996Z" fill="url(#paint11_linear_3278_35999)"/>
<path d="M15.0798 46.073L15.3968 46.074L15.3971 45.9922L15.0801 45.9911L15.0798 46.073Z" fill="#010101"/>
<path d="M7.50168 46.0475L7.81872 46.0485L7.819 45.9667L7.50195 45.9656L7.50168 46.0475Z" fill="#010101"/>
<path d="M7.26905 23.9402L15.778 23.9688C16.0337 23.9697 16.2428 24.1442 16.2421 24.359L16.2407 24.7732C16.24 24.988 16.0297 25.1611 15.774 25.1603L7.26504 25.1316C7.00424 25.1308 6.80029 24.9562 6.80101 24.7414L6.8024 24.3272C6.80313 24.1125 7.01337 23.9393 7.26905 23.9402Z" fill="#989898"/>
<path d="M1.47149 40.3104L1.59216 4.45904C1.59857 2.55678 3.45998 1.02384 5.75087 1.03155L17.3996 1.07076C19.6905 1.07847 21.5415 2.62391 21.5351 4.52616L21.4145 40.3775C21.4057 42.9957 18.8417 45.1041 15.6867 45.0935L7.16232 45.0648C4.00723 45.0541 1.45758 42.9234 1.46638 40.3104L1.47149 40.3104Z" fill="#989898"/>
<path d="M16.9981 44.3818L5.8658 44.3443C4.52093 44.3398 3.32092 43.8346 2.51562 43.0444C3.54449 44.2598 5.24465 45.0582 7.16736 45.0646L15.6917 45.0933C17.6195 45.0998 19.3199 44.3129 20.3569 43.1045C19.5463 43.8893 18.3429 44.3863 16.9981 44.3818Z" fill="url(#paint12_linear_3278_35999)"/>
<path opacity="0.4" d="M16.9981 44.3818L5.8658 44.3443C4.52093 44.3398 3.32092 43.8346 2.51562 43.0444C3.54449 44.2598 5.24465 45.0582 7.16736 45.0646L15.6917 45.0933C17.6195 45.0998 19.3199 44.3129 20.3569 43.1045C19.5463 43.8893 18.3429 44.3863 16.9981 44.3818Z" fill="url(#paint13_linear_3278_35999)"/>
<path d="M20.857 3.92063L20.7323 40.9737C20.7266 42.6714 19.06 44.0464 17.0146 44.0396L5.84654 44.002C3.80112 43.9951 2.14384 42.6139 2.14957 40.9111L2.27428 3.85808C2.27759 2.87627 3.24163 2.08179 4.42286 2.08576L18.7153 2.13387C19.9017 2.13786 20.8552 2.9388 20.8519 3.92061L20.857 3.92063Z" fill="#989898"/>
<path d="M18.2462 15.3157L20.8803 10.5689L21.5195 10.5711L21.4451 32.6771L18.2843 26.7602L10.3675 27.0199L4.90217 26.6947L2.03578 32.0697L1.49888 32.0577L1.57275 10.1102L2.10969 10.112L5.09931 15.2203C5.09931 15.2203 10.071 14.8587 11.4566 14.9145C12.8422 14.9703 17.8925 15.5549 17.8925 15.5549L18.2462 15.3055L18.2462 15.3157Z" fill="#989898"/>
<path d="M4.42762 2.08552L18.7201 2.13363C19.9064 2.13762 20.86 2.93856 20.8567 3.92036L20.8578 3.59309C20.8611 2.61129 19.9024 1.81033 18.7212 1.80636L4.42872 1.75825C3.24237 1.75426 2.28345 2.54876 2.28014 3.53056L2.27904 3.85783C2.28235 2.87603 3.24638 2.08154 4.42762 2.08552Z" fill="#333333"/>
<path d="M4.42762 2.08552L18.7201 2.13363C19.9064 2.13762 20.86 2.93856 20.8567 3.92036L20.8578 3.59309C20.8611 2.61129 19.9024 1.81033 18.7212 1.80636L4.42872 1.75825C3.24237 1.75426 2.28345 2.54876 2.28014 3.53056L2.27904 3.85783C2.28235 2.87603 3.24638 2.08154 4.42762 2.08552Z" fill="url(#paint14_linear_3278_35999)"/>
<path opacity="0.5" d="M18.8222 2.25188L4.4377 2.20347C3.24623 2.19946 2.27708 2.99392 2.27377 3.97573L2.14906 41.0288C2.1463 41.8469 2.53754 42.5948 3.16976 43.1492C2.45576 42.5843 2.00841 41.7953 2.01137 40.9158L2.1361 3.85765C2.1394 2.87584 3.10856 2.08138 4.30002 2.08539L18.6845 2.1338C19.3186 2.13594 19.8804 2.36283 20.278 2.72212C19.8955 2.43447 19.3847 2.25378 18.8273 2.2519L18.8222 2.25188Z" fill="url(#paint15_radial_3278_35999)"/>
<path d="M5.85013 44.3453L17.0182 44.3829C19.0636 44.3898 20.7302 43.0198 20.7359 41.317L20.7371 40.9744C20.7313 42.6721 19.0648 44.0472 17.0193 44.0403L5.85129 44.0027C3.80585 43.9958 2.14857 42.6147 2.1543 40.9119L2.15314 41.2545C2.14743 42.9522 3.8047 44.3384 5.85013 44.3453Z" fill="#676767"/>
<path d="M19.3381 43.368L19.337 43.7106C20.1826 43.151 20.7327 42.2886 20.7359 41.317L20.7371 40.9744C20.7338 41.946 20.1889 42.8084 19.3381 43.368Z" fill="#989898"/>
<path d="M19.3383 43.3687C18.7028 43.791 17.894 44.0439 17.0144 44.041L14.6111 44.0329L14.4463 44.375L17.0133 44.3836C17.8928 44.3866 18.6965 44.1336 19.3371 43.7113L19.3383 43.3687Z" fill="#E0F2F6"/>
<path d="M3.53224 43.3148L3.53108 43.6574C2.68924 43.0921 2.14499 42.2261 2.14826 41.2545L2.14941 40.9119C2.14614 41.8834 2.68527 42.7495 3.53224 43.3148Z" fill="#989898"/>
<path d="M3.53223 43.3155C4.16488 43.7421 4.97197 44.0005 5.85148 44.0034L8.25486 44.0115L8.41734 44.3547L5.85032 44.346C4.97081 44.3431 4.16884 44.0847 3.53107 43.6581L3.53223 43.3155Z" fill="#E0F2F6"/>
<path d="M8.44336 44.2668L14.4211 44.287L14.3852 44.3431L8.47896 44.3232L8.44336 44.2668Z" fill="#333333"/>
<path d="M8.40283 44.1529L14.4624 44.1733L14.4264 44.2294L8.43844 44.2093L8.40283 44.1529Z" fill="#333333"/>
<path d="M8.32617 44.0408L14.5392 44.0617L14.5032 44.1178L8.36178 44.0971L8.32617 44.0408Z" fill="#333333"/>
<path d="M11.4345 44.3062C11.6576 44.3069 11.8386 44.2572 11.8388 44.1951C11.839 44.1329 11.6583 44.0819 11.4352 44.0812C11.2121 44.0804 11.0311 44.1302 11.0309 44.1923C11.0307 44.2545 11.2114 44.3054 11.4345 44.3062Z" fill="#CCCCCC"/>
<path d="M17.5702 26.3791C15.6007 26.6129 9.93805 27.1614 5.64008 26.3901C5.21591 26.312 4.78574 26.4946 4.61076 26.8264L2.29483 31.2215C2.1147 31.5635 2.32814 31.958 2.75732 32.0668C4.94404 32.6366 11.4953 33.9524 20.1642 32.064C20.5992 31.9683 20.8306 31.5753 20.663 31.2271L18.5505 26.8478C18.3931 26.52 17.9897 26.3243 17.5703 26.374L17.5702 26.3791Z" fill="#676767"/>
<path d="M17.5702 26.3791C15.6007 26.6129 9.93805 27.1614 5.64008 26.3901C5.21591 26.312 4.78574 26.4946 4.61076 26.8264L2.29483 31.2215C2.1147 31.5635 2.32814 31.958 2.75732 32.0668C4.94404 32.6366 11.4953 33.9524 20.1642 32.064C20.5992 31.9683 20.8306 31.5753 20.663 31.2271L18.5505 26.8478C18.3931 26.52 17.9897 26.3243 17.5703 26.374L17.5702 26.3791Z" fill="url(#paint16_linear_3278_35999)"/>
<path d="M17.7017 26.676C17.9267 26.6767 18.1206 26.7899 18.207 26.964L20.3195 31.3433C20.3601 31.4304 20.3547 31.5275 20.3033 31.6092C20.2519 31.6908 20.1698 31.7468 20.0675 31.772C17.0585 32.4267 14.025 32.7539 11.0386 32.7439C7.09096 32.7306 4.22423 32.1329 2.86519 31.7806C2.763 31.7547 2.67628 31.693 2.63053 31.611C2.58478 31.5291 2.58509 31.437 2.63141 31.3502L4.94734 26.9552C5.03482 26.7919 5.22949 26.6851 5.44937 26.6859C5.48516 26.686 5.52607 26.6861 5.56183 26.6965C7.01834 26.9571 8.75651 27.0959 10.7355 27.1025C13.6195 27.1122 16.2846 26.8502 17.6198 26.691C17.6454 26.6911 17.671 26.6912 17.7016 26.6913L17.7017 26.676Z" fill="#010101"/>
<path d="M17.7017 26.8338C17.85 26.8343 17.9776 26.9063 18.0335 27.0241L20.146 31.4034C20.1765 31.4648 20.1559 31.5159 20.1404 31.5414C20.125 31.572 20.089 31.6077 20.0225 31.6228C17.0288 32.2724 14.0107 32.5997 11.0449 32.5898C7.12275 32.5766 4.27642 31.984 2.92761 31.6318C2.85609 31.6111 2.82042 31.57 2.81028 31.5444C2.79503 31.5188 2.77986 31.4676 2.81075 31.4064L5.12668 27.0113C5.18332 26.9041 5.3114 26.833 5.45458 26.8334C5.48014 26.8335 5.50571 26.8336 5.53126 26.8388C6.99798 27.1045 8.75151 27.2383 10.7458 27.245C13.6401 27.2547 16.3205 26.9927 17.6557 26.8336C17.6711 26.8337 17.6915 26.8337 17.7069 26.8338L17.7017 26.8338Z" fill="#686C86"/>
<path opacity="0.2" d="M19.6124 30.2879C17.453 30.7153 14.6039 30.9716 11.4795 30.9611C8.35506 30.9506 5.56392 30.6804 3.41763 30.2488L2.80521 31.4075C2.77433 31.4688 2.79461 31.52 2.80475 31.5456C2.82 31.5712 2.85054 31.6122 2.92206 31.6329C4.27088 31.9852 7.11719 32.5777 11.0393 32.5909C14.0052 32.6009 17.0285 32.2736 20.017 31.624C20.0835 31.6088 20.1194 31.5732 20.1349 31.5425C20.1503 31.517 20.1709 31.466 20.1405 31.4045L19.6022 30.293L19.6124 30.2879Z" fill="#010101"/>
<path d="M20.1052 31.3123C17.7974 31.775 14.7743 32.0563 11.4709 32.0452C8.16756 32.0341 5.18219 31.7377 2.87754 31.2646L2.80036 31.4075C2.76947 31.4687 2.78975 31.52 2.79989 31.5456C2.81515 31.5712 2.8457 31.6122 2.91722 31.6329C4.26603 31.9852 7.11232 32.5777 11.0344 32.5909C14.0003 32.6009 17.0236 32.2735 20.0121 31.6239C20.0787 31.6088 20.1146 31.5732 20.13 31.5425C20.1454 31.517 20.1661 31.4659 20.1356 31.4045L20.095 31.3174L20.1052 31.3123Z" fill="#333333"/>
<path d="M17.3079 31.3799L14.8929 31.786L14.8728 31.6888L17.2979 31.3288L17.3079 31.3799Z" fill="#010101"/>
<path d="M11.5218 32.182L14.8217 31.692L14.6576 31.8193L11.547 32.2793L11.5218 32.182Z" fill="#010101"/>
<path d="M17.1549 31.3223L11.394 32.1722L11.4041 32.2285L17.3031 31.3535L17.1549 31.3223Z" fill="#333333"/>
<path d="M11.5421 32.2037C11.5572 32.2805 11.4956 32.3518 11.4035 32.3669C11.3114 32.3819 11.2246 32.3305 11.2044 32.2537C11.1893 32.1769 11.2509 32.1056 11.343 32.0905C11.4351 32.0755 11.5219 32.1269 11.5421 32.2037Z" fill="#010101"/>
<path d="M11.5368 32.178C11.552 32.2395 11.5006 32.3007 11.4239 32.3106C11.3472 32.3206 11.2757 32.2794 11.2606 32.218C11.2454 32.1566 11.2968 32.0954 11.3735 32.0855C11.4503 32.0755 11.5217 32.1166 11.5368 32.178Z" fill="#333333"/>
<path d="M11.9587 31.5876L9.50347 31.7941L9.49359 31.6918L11.9538 31.5365L11.9587 31.5876Z" fill="#010101"/>
<path d="M6.10178 31.9057L9.44682 31.6919L9.26745 31.8089L6.11166 32.008L6.10178 31.9057Z" fill="#010101"/>
<path d="M11.8153 31.5201L5.9743 31.8839L5.97922 31.9402L11.9532 31.5615L11.8153 31.5201Z" fill="#333333"/>
<path d="M6.1225 31.9308C6.12735 32.0075 6.06065 32.0737 5.96857 32.0836C5.87651 32.0884 5.79488 32.0319 5.78491 31.9552C5.78006 31.8785 5.84676 31.8122 5.93884 31.8023C6.0309 31.7975 6.11253 31.854 6.1225 31.9308Z" fill="#010101"/>
<path d="M6.11789 31.9039C6.1228 31.9653 6.06636 32.0213 5.98964 32.0262C5.91292 32.0311 5.8466 31.9848 5.84171 31.9183C5.8368 31.8569 5.89324 31.8009 5.96996 31.796C6.04666 31.7963 6.113 31.8374 6.11789 31.9039Z" fill="#333333"/>
<path opacity="0.5" d="M17.7017 26.8338C17.85 26.8343 17.9776 26.9063 18.0335 27.0241L20.146 31.4034C20.1765 31.4648 20.1559 31.5159 20.1404 31.5414C20.125 31.572 20.089 31.6077 20.0225 31.6228C17.0288 32.2724 14.0107 32.5997 11.0449 32.5898C7.12275 32.5766 4.27642 31.984 2.92761 31.6318C2.85609 31.6111 2.82042 31.57 2.81028 31.5444C2.79503 31.5188 2.77986 31.4676 2.81075 31.4064L5.12668 27.0113C5.18332 26.9041 5.3114 26.833 5.45458 26.8334C5.48014 26.8335 5.50571 26.8336 5.53126 26.8388C6.99798 27.1045 8.75151 27.2383 10.7458 27.245C13.6401 27.2547 16.3205 26.9927 17.6557 26.8336C17.6711 26.8337 17.6915 26.8337 17.7069 26.8338L17.7017 26.8338Z" fill="url(#paint17_radial_3278_35999)"/>
<path style="mix-blend-mode:overlay" opacity="0.3" d="M17.7017 26.8338C17.85 26.8343 17.9776 26.9063 18.0335 27.0241L20.146 31.4034C20.1765 31.4648 20.1559 31.5159 20.1404 31.5414C20.125 31.572 20.089 31.6077 20.0225 31.6228C17.0288 32.2724 14.0107 32.5997 11.0449 32.5898C7.12275 32.5766 4.27642 31.984 2.92761 31.6318C2.85609 31.6111 2.82042 31.57 2.81028 31.5444C2.79503 31.5188 2.77986 31.4676 2.81075 31.4064L5.12668 27.0113C5.18332 26.9041 5.3114 26.833 5.45458 26.8334C5.48014 26.8335 5.50571 26.8336 5.53126 26.8388C6.99798 27.1045 8.75151 27.2383 10.7458 27.245C13.6401 27.2547 16.3205 26.9927 17.6557 26.8336C17.6711 26.8337 17.6915 26.8337 17.7069 26.8338L17.7017 26.8338Z" fill="url(#paint18_radial_3278_35999)"/>
<path d="M17.6064 15.5681C15.6384 15.3211 9.97962 14.7345 5.67655 15.4768C5.25186 15.5521 4.82293 15.3665 4.65019 15.0336L2.3639 10.623C2.18608 10.2798 2.40217 9.8868 2.83207 9.78086C5.02258 9.22573 11.5826 7.95406 20.2385 9.90081C20.6728 9.99943 20.9016 10.3939 20.7317 10.7411L18.5897 15.1061C18.4301 15.4328 18.0255 15.6257 17.6063 15.5732L17.6064 15.5681Z" fill="#676767"/>
<path d="M17.6064 15.5681C15.6384 15.3211 9.97962 14.7345 5.67655 15.4768C5.25186 15.5521 4.82293 15.3665 4.65019 15.0336L2.3639 10.623C2.18608 10.2798 2.40217 9.8868 2.83207 9.78086C5.02258 9.22573 11.5826 7.95406 20.2385 9.90081C20.6728 9.99943 20.9016 10.3939 20.7317 10.7411L18.5897 15.1061C18.4301 15.4328 18.0255 15.6257 17.6063 15.5732L17.6064 15.5681Z" fill="url(#paint19_linear_3278_35999)"/>
<path d="M17.7403 15.2711C17.9653 15.2718 18.16 15.16 18.2475 14.9864L20.3895 10.6215C20.4307 10.5347 20.4259 10.4375 20.375 10.3555C20.3242 10.2735 20.2425 10.217 20.1403 10.1962C17.1358 9.52132 14.1046 9.17361 11.1182 9.16356C7.17054 9.15027 4.29985 9.72868 2.93847 10.0718C2.83611 10.097 2.74897 10.1581 2.70267 10.2398C2.65638 10.3214 2.65607 10.4135 2.7018 10.5006L4.98809 14.9111C5.07447 15.075 5.26841 15.1831 5.4883 15.1838C5.52409 15.1839 5.565 15.1841 5.60083 15.174C7.05906 14.9232 8.79813 14.7961 10.7771 14.8028C13.6611 14.8125 16.3244 15.0925 17.6585 15.2606C17.6841 15.2607 17.7096 15.2608 17.7403 15.2609L17.7403 15.2711Z" fill="#010101"/>
<path d="M17.7414 15.118C17.8897 15.1185 18.0178 15.0474 18.0744 14.9299L20.2164 10.565C20.2473 10.5037 20.227 10.4525 20.2117 10.4269C20.1965 10.3962 20.1608 10.3603 20.0943 10.3447C17.1051 9.67497 14.0893 9.32732 11.1234 9.31734C7.20128 9.30414 4.35103 9.8775 2.99987 10.2207C2.92822 10.2409 2.89228 10.2817 2.88196 10.3072C2.86654 10.3327 2.85102 10.3838 2.8815 10.4453L5.16779 14.8558C5.22371 14.9634 5.3513 15.0354 5.49449 15.0359C5.52005 15.036 5.54562 15.0361 5.57121 15.031C7.03968 14.7752 8.79407 14.6533 10.7884 14.66C13.6827 14.6697 16.3613 14.9497 17.6954 15.1179C17.7107 15.1179 17.7311 15.118 17.7465 15.118L17.7414 15.118Z" fill="#686C86"/>
<path opacity="0.4" d="M20.2212 10.5651C20.2521 10.5038 20.2318 10.4526 20.2166 10.427C20.2013 10.3962 20.1656 10.3603 20.0992 10.3448C17.11 9.67503 14.0941 9.32738 11.1282 9.3174C7.20613 9.3042 4.35591 9.87756 3.00475 10.2207C2.93309 10.241 2.89716 10.2817 2.88685 10.3073C2.87142 10.3328 2.85591 10.3839 2.88638 10.4453L3.54178 11.7106L19.6444 11.7648L20.2314 10.5702L20.2212 10.5651Z" fill="#010101"/>
<path d="M20.1745 10.6529C17.8699 10.1747 14.8488 9.87304 11.5454 9.86192C8.24201 9.8508 5.25472 10.1271 2.94693 10.5847L2.87071 10.4412C2.84024 10.3798 2.86086 10.3287 2.87118 10.3032C2.8866 10.2777 2.91743 10.2369 2.98909 10.2166C4.34024 9.87346 7.19046 9.3001 11.1126 9.31331C14.0785 9.32329 17.0994 9.67096 20.0836 10.3407C20.15 10.3562 20.1857 10.3921 20.2009 10.4229C20.2161 10.4485 20.2364 10.4997 20.2055 10.561L20.1643 10.6478L20.1745 10.6529Z" fill="#010101"/>
<path opacity="0.5" d="M17.7414 15.118C17.8897 15.1185 18.0178 15.0474 18.0744 14.9299L20.2164 10.565C20.2473 10.5037 20.227 10.4525 20.2117 10.4269C20.1965 10.3962 20.1608 10.3603 20.0943 10.3447C17.1051 9.67497 14.0893 9.32732 11.1234 9.31734C7.20128 9.30414 4.35103 9.8775 2.99987 10.2207C2.92822 10.2409 2.89228 10.2817 2.88196 10.3072C2.86654 10.3327 2.85102 10.3838 2.8815 10.4453L5.16779 14.8558C5.22371 14.9634 5.3513 15.0354 5.49449 15.0359C5.52005 15.036 5.54562 15.0361 5.57121 15.031C7.03968 14.7752 8.79407 14.6533 10.7884 14.66C13.6827 14.6697 16.3613 14.9497 17.6954 15.1179C17.7107 15.1179 17.7311 15.118 17.7465 15.118L17.7414 15.118Z" fill="url(#paint20_radial_3278_35999)"/>
<path style="mix-blend-mode:overlay" opacity="0.3" d="M17.7414 15.118C17.8897 15.1185 18.0178 15.0474 18.0744 14.9299L20.2164 10.565C20.2473 10.5037 20.227 10.4525 20.2117 10.4269C20.1965 10.3962 20.1608 10.3603 20.0943 10.3447C17.1051 9.67497 14.0893 9.32732 11.1234 9.31734C7.20128 9.30414 4.35103 9.8775 2.99987 10.2207C2.92822 10.2409 2.89228 10.2817 2.88196 10.3072C2.86654 10.3327 2.85102 10.3838 2.8815 10.4453L5.16779 14.8558C5.22371 14.9634 5.3513 15.0354 5.49449 15.0359C5.52005 15.036 5.54562 15.0361 5.57121 15.031C7.03968 14.7752 8.79407 14.6533 10.7884 14.66C13.6827 14.6697 16.3613 14.9497 17.6954 15.1179C17.7107 15.1179 17.7311 15.118 17.7465 15.118L17.7414 15.118Z" fill="url(#paint21_radial_3278_35999)"/>
<path d="M2.4988 22.2822C2.4988 22.2822 2.54482 22.2823 2.56527 22.2824L4.96256 22.582C5.18236 22.6083 5.35057 22.7725 5.34995 22.9566L5.34208 25.2935C5.34191 25.3446 5.33151 25.3957 5.30579 25.4416L2.50562 30.8885C2.46444 30.9701 2.37222 31.021 2.26995 31.0206C2.12677 31.0201 2.00947 30.9277 2.00988 30.805L2.0373 22.659C2.03764 22.5568 2.08398 22.4649 2.17115 22.3936C2.25832 22.3223 2.37094 22.2869 2.49367 22.2873L2.4988 22.2822Z" fill="#676767"/>
<path d="M2.4988 22.2822C2.4988 22.2822 2.54482 22.2823 2.56527 22.2824L4.96256 22.582C5.18236 22.6083 5.35057 22.7725 5.34995 22.9566L5.34208 25.2935C5.34191 25.3446 5.33151 25.3957 5.30579 25.4416L2.50562 30.8885C2.46444 30.9701 2.37222 31.021 2.26995 31.0206C2.12677 31.0201 2.00947 30.9277 2.00988 30.805L2.0373 22.659C2.03764 22.5568 2.08398 22.4649 2.17115 22.3936C2.25832 22.3223 2.37094 22.2869 2.49367 22.2873L2.4988 22.2822Z" fill="url(#paint22_linear_3278_35999)"/>
<path d="M2.35234 30.8319L5.15249 25.385C5.16794 25.3544 5.17316 25.3238 5.17326 25.2931L5.18112 22.9562C5.18152 22.8385 5.07958 22.741 4.93646 22.7201L2.53918 22.4206C2.36538 22.3995 2.2116 22.5115 2.21111 22.6547L2.1837 30.8006C2.18344 30.8773 2.31119 30.9033 2.35236 30.8268L2.35234 30.8319Z" fill="#010101"/>
<path d="M2.51772 22.5679L4.91501 22.8674C4.97124 22.8727 5.01201 22.9138 5.01186 22.9598L5.00399 25.2967C5.00399 25.2967 5.0039 25.3223 4.99364 25.3325L2.35819 30.4628L2.38446 22.6595C2.38446 22.6595 2.39486 22.6084 2.42047 22.5931C2.44098 22.5779 2.4717 22.5677 2.50238 22.5678L2.51772 22.5679Z" fill="#686C86"/>
<path opacity="0.2" d="M3.2231 22.6532L2.51772 22.5639L2.50238 22.5639C2.4717 22.5638 2.44609 22.5739 2.42047 22.5892C2.39995 22.6096 2.38454 22.63 2.38446 22.6555L2.35819 30.4588L3.20236 28.8151L3.22312 22.6481L3.2231 22.6532Z" fill="#010101"/>
<path opacity="0.5" d="M2.51772 22.5679L4.91501 22.8674C4.97124 22.8727 5.01201 22.9138 5.01186 22.9598L5.00399 25.2967C5.00399 25.2967 5.0039 25.3223 4.99364 25.3325L2.35819 30.4628L2.38446 22.6595C2.38446 22.6595 2.39486 22.6084 2.42047 22.5931C2.44098 22.5779 2.4717 22.5677 2.50238 22.5678L2.51772 22.5679Z" fill="url(#paint23_linear_3278_35999)"/>
<path style="mix-blend-mode:overlay" opacity="0.3" d="M2.51772 22.5679L4.91501 22.8674C4.97124 22.8727 5.01201 22.9138 5.01186 22.9598L5.00399 25.2967C5.00399 25.2967 5.0039 25.3223 4.99364 25.3325L2.35819 30.4628L2.38446 22.6595C2.38446 22.6595 2.39486 22.6084 2.42047 22.5931C2.44098 22.5779 2.4717 22.5677 2.50238 22.5678L2.51772 22.5679Z" fill="url(#paint24_linear_3278_35999)"/>
<path d="M2.42459 16.9326C2.45527 16.9327 2.48595 16.9328 2.5166 16.9432L5.10726 17.5246C5.26564 17.5609 5.37263 17.6789 5.37218 17.8119L5.35732 22.2249C5.35677 22.3885 5.19271 22.5209 4.9984 22.5203L4.94215 22.5201L2.3507 22.1739C2.17179 22.1528 2.04438 22.0245 2.04488 21.8762L2.06053 17.228C2.06108 17.0644 2.22516 16.9319 2.41948 16.9326L2.42459 16.9326Z" fill="#676767"/>
<path d="M2.42459 16.9326C2.45527 16.9327 2.48595 16.9328 2.5166 16.9432L5.10726 17.5246C5.26564 17.5609 5.37263 17.6789 5.37218 17.8119L5.35732 22.2249C5.35677 22.3885 5.19271 22.5209 4.9984 22.5203L4.94215 22.5201L2.3507 22.1739C2.17179 22.1528 2.04438 22.0245 2.04488 21.8762L2.06053 17.228C2.06108 17.0644 2.22516 16.9319 2.41948 16.9326L2.42459 16.9326Z" fill="url(#paint25_linear_3278_35999)"/>
<path d="M4.96815 22.3774L2.37669 22.0363C2.28468 22.0258 2.21843 21.9591 2.21868 21.8824L2.23433 17.2341C2.23467 17.1318 2.35254 17.0555 2.47518 17.0815L5.06584 17.663C5.14759 17.6837 5.20875 17.7453 5.20851 17.8168L5.19365 22.2299C5.19333 22.327 5.09081 22.3983 4.97325 22.3825L4.96815 22.3774Z" fill="#010101"/>
<path d="M5.01394 17.7957L5.01438 22.2241L2.40242 21.8932L2.40278 17.2295L2.42329 17.2142L5.01394 17.7957Z" fill="#686C86"/>
<path opacity="0.2" d="M3.22537 21.9982L3.24086 17.396C2.78609 17.2922 2.42329 17.2142 2.42329 17.2142L2.40278 17.2295L2.40242 21.8932L3.22537 21.9982Z" fill="#010101"/>
<path opacity="0.5" d="M5.01394 17.7957L5.01438 22.2241L2.40242 21.8932L2.40278 17.2295L2.42329 17.2142L5.01394 17.7957Z" fill="url(#paint26_linear_3278_35999)"/>
<path style="mix-blend-mode:overlay" opacity="0.3" d="M5.01394 17.7957L5.01438 22.2241L2.40242 21.8932L2.40278 17.2295L2.42329 17.2142L5.01394 17.7957Z" fill="url(#paint27_linear_3278_35999)"/>
<path d="M2.40663 11.6152C2.53447 11.6156 2.64676 11.6773 2.69757 11.7747L5.34542 16.6313C5.36576 16.6672 5.37586 16.703 5.37573 16.7439L5.37425 17.1837C5.37375 17.332 5.23017 17.4491 5.0512 17.4485C5.02052 17.4484 4.98984 17.4483 4.95919 17.438L2.29725 16.7642C2.15931 16.728 2.06761 16.6254 2.068 16.5078L2.08354 11.8902C2.08404 11.7419 2.22762 11.6248 2.40659 11.6254L2.40663 11.6152Z" fill="#676767"/>
<path d="M2.40663 11.6152C2.53447 11.6156 2.64676 11.6773 2.69757 11.7747L5.34542 16.6313C5.36576 16.6672 5.37586 16.703 5.37573 16.7439L5.37425 17.1837C5.37375 17.332 5.23017 17.4491 5.0512 17.4485C5.02052 17.4484 4.98984 17.4483 4.95919 17.438L2.29725 16.7642C2.15931 16.728 2.06761 16.6254 2.068 16.5078L2.08354 11.8902C2.08404 11.7419 2.22762 11.6248 2.40659 11.6254L2.40663 11.6152Z" fill="url(#paint28_linear_3278_35999)"/>
<path d="M5.00539 17.2953L2.34345 16.6216C2.27703 16.606 2.23629 16.5547 2.23648 16.4985L2.25202 11.8809C2.25247 11.748 2.47249 11.7078 2.54367 11.8308L5.19153 16.6874C5.19153 16.6874 5.20675 16.7232 5.2067 16.7386L5.20522 17.1784C5.20494 17.2602 5.10758 17.3212 5.01049 17.3004L5.00539 17.2953Z" fill="#010101"/>
<path d="M5.0329 16.7429L5.03144 17.1775L2.39002 16.4834L2.42061 11.9528L5.0329 16.7429Z" fill="#686C86"/>
<path opacity="0.2" d="M3.25411 13.4795L2.42061 11.9528L2.39002 16.4834L3.24325 16.7062L3.25411 13.4795Z" fill="#010101"/>
<path opacity="0.5" d="M5.0329 16.7429L5.03144 17.1775L2.39002 16.4834L2.42061 11.9528L5.0329 16.7429Z" fill="url(#paint29_linear_3278_35999)"/>
<path style="mix-blend-mode:overlay" opacity="0.3" d="M5.0329 16.7429L5.03144 17.1775L2.39002 16.4834L2.42061 11.9528L5.0329 16.7429Z" fill="url(#paint30_linear_3278_35999)"/>
<path d="M20.5546 22.343C20.5546 22.343 20.5085 22.3428 20.4881 22.3428L18.0888 22.6262C17.8689 22.651 17.6996 22.8141 17.6989 22.9981L17.6911 25.335C17.6909 25.3862 17.701 25.4374 17.7264 25.4835L20.4898 30.949C20.5304 31.031 20.6223 31.0824 20.7246 31.0828C20.8677 31.0832 20.9857 30.9916 20.9861 30.8689L21.0135 22.7229C21.0138 22.6207 20.9681 22.5285 20.8814 22.4566C20.7948 22.3847 20.6824 22.3485 20.5596 22.3481L20.5546 22.343Z" fill="#676767"/>
<path d="M20.5546 22.343C20.5546 22.343 20.5085 22.3428 20.4881 22.3428L18.0888 22.6262C17.8689 22.651 17.6996 22.8141 17.6989 22.9981L17.6911 25.335C17.6909 25.3862 17.701 25.4374 17.7264 25.4835L20.4898 30.949C20.5304 31.031 20.6223 31.0824 20.7246 31.0828C20.8677 31.0832 20.9857 30.9916 20.9861 30.8689L21.0135 22.7229C21.0138 22.6207 20.9681 22.5285 20.8814 22.4566C20.7948 22.3847 20.6824 22.3485 20.5596 22.3481L20.5546 22.343Z" fill="url(#paint31_linear_3278_35999)"/>
<path d="M20.6436 30.8934L17.8801 25.4279C17.8649 25.3971 17.8599 25.3664 17.86 25.3357L17.8678 22.9988C17.8682 22.8812 17.9708 22.7844 18.1141 22.7644L20.5133 22.481C20.6873 22.4612 20.8403 22.5742 20.8398 22.7174L20.8124 30.8633C20.8121 30.94 20.6842 30.9651 20.6436 30.8883L20.6436 30.8934Z" fill="#010101"/>
<path d="M20.5384 22.6286L18.1391 22.912C18.0829 22.9169 18.0418 22.9577 18.0417 23.0037L18.0338 25.3406C18.0338 25.3406 18.0337 25.3662 18.0439 25.3764L20.6448 30.5244L20.671 22.7211C20.671 22.7211 20.661 22.6699 20.6355 22.6545C20.6151 22.6391 20.5844 22.6287 20.5537 22.6286L20.5384 22.6286Z" fill="#686C86"/>
<path opacity="0.2" d="M19.8322 22.7091L20.5382 22.6246L20.5535 22.6246C20.5842 22.6247 20.6097 22.635 20.6353 22.6505C20.6557 22.671 20.6709 22.6915 20.6708 22.7171L20.6446 30.5204L19.8115 28.871L19.8322 22.704L19.8322 22.7091Z" fill="#010101"/>
<path opacity="0.5" d="M20.5384 22.6286L18.1391 22.912C18.0829 22.9169 18.0418 22.9577 18.0417 23.0037L18.0338 25.3406C18.0338 25.3406 18.0337 25.3662 18.0439 25.3764L20.6448 30.5244L20.671 22.7211C20.671 22.7211 20.661 22.6699 20.6355 22.6545C20.6151 22.6391 20.5844 22.6287 20.5537 22.6286L20.5384 22.6286Z" fill="url(#paint32_linear_3278_35999)"/>
<path style="mix-blend-mode:overlay" opacity="0.3" d="M20.5384 22.6286L18.1391 22.912C18.0829 22.9169 18.0418 22.9577 18.0417 23.0037L18.0338 25.3406C18.0338 25.3406 18.0337 25.3662 18.0439 25.3764L20.6448 30.5244L20.671 22.7211C20.671 22.7211 20.661 22.6699 20.6355 22.6545C20.6151 22.6391 20.5844 22.6287 20.5537 22.6286L20.5384 22.6286Z" fill="url(#paint33_linear_3278_35999)"/>
<path d="M20.6698 16.994C20.6391 16.9939 20.6084 16.9938 20.5777 17.0039L17.9832 17.5679C17.8245 17.6032 17.7168 17.7204 17.7163 17.8534L17.7015 22.2664C17.7009 22.43 17.8641 22.5635 18.0584 22.5642L18.1147 22.5644L20.7084 22.2356C20.8874 22.2158 21.0157 22.0884 21.0162 21.9401L21.0318 17.2918C21.0324 17.1282 20.8692 16.9947 20.6749 16.994L20.6698 16.994Z" fill="#676767"/>
<path d="M20.6698 16.994C20.6391 16.9939 20.6084 16.9938 20.5777 17.0039L17.9832 17.5679C17.8245 17.6032 17.7168 17.7204 17.7163 17.8534L17.7015 22.2664C17.7009 22.43 17.8641 22.5635 18.0584 22.5642L18.1147 22.5644L20.7084 22.2356C20.8874 22.2158 21.0157 22.0884 21.0162 21.9401L21.0318 17.2918C21.0324 17.1282 20.8692 16.9947 20.6749 16.994L20.6698 16.994Z" fill="url(#paint34_linear_3278_35999)"/>
<path d="M18.0895 22.4216L20.6832 22.0979C20.7753 22.088 20.842 22.0217 20.8423 21.945L20.8579 17.2968C20.8582 17.1945 20.7409 17.1174 20.6181 17.1426L18.0236 17.7066C17.9417 17.7268 17.8801 17.7879 17.8799 17.8595L17.865 22.2725C17.8647 22.3697 17.9667 22.4416 18.0844 22.4267L18.0895 22.4216Z" fill="#010101"/>
<path d="M18.0693 17.8396L18.0442 22.2679L20.6532 21.9546L20.6894 17.291L20.669 17.2756L18.0693 17.8396Z" fill="#686C86"/>
<path opacity="0.2" d="M19.8345 22.0541L19.85 17.4519C20.3054 17.3511 20.6688 17.2756 20.6688 17.2756L20.6892 17.2911L20.6581 21.9546L19.8345 22.0541Z" fill="#010101"/>
<path opacity="0.5" d="M18.0693 17.8396L18.0442 22.2679L20.6532 21.9546L20.6894 17.291L20.669 17.2756L18.0693 17.8396Z" fill="url(#paint35_linear_3278_35999)"/>
<path style="mix-blend-mode:overlay" opacity="0.3" d="M18.0693 17.8396L18.0442 22.2679L20.6532 21.9546L20.6894 17.291L20.669 17.2756L18.0693 17.8396Z" fill="url(#paint36_linear_3278_35999)"/>
<path d="M20.7236 11.6768C20.5958 11.6764 20.4831 11.7374 20.4316 11.8343L17.7511 16.673C17.7306 16.7088 17.7202 16.7445 17.7201 16.7854L17.7186 17.2252C17.7181 17.3735 17.8609 17.4916 18.0399 17.4922C18.0705 17.4923 18.1012 17.4924 18.1319 17.4823L20.7983 16.8265C20.9365 16.7912 21.0289 16.6892 21.0293 16.5716L21.0449 11.954C21.0454 11.8057 20.9026 11.6876 20.7236 11.687L20.7236 11.6768Z" fill="#676767"/>
<path d="M20.7236 11.6768C20.5958 11.6764 20.4831 11.7374 20.4316 11.8343L17.7511 16.673C17.7306 16.7088 17.7202 16.7445 17.7201 16.7854L17.7186 17.2252C17.7181 17.3735 17.8609 17.4916 18.0399 17.4922C18.0705 17.4923 18.1012 17.4924 18.1319 17.4823L20.7983 16.8265C20.9365 16.7912 21.0289 16.6892 21.0293 16.5716L21.0449 11.954C21.0454 11.8057 20.9026 11.6876 20.7236 11.687L20.7236 11.6768Z" fill="url(#paint37_linear_3278_35999)"/>
<path d="M18.0812 17.3393L20.7476 16.6835C20.8141 16.6684 20.8552 16.6174 20.8554 16.5612L20.871 11.9436C20.8714 11.8106 20.6517 11.769 20.5797 11.8915L17.8992 16.7302C17.8992 16.7302 17.8837 16.7659 17.8837 16.7813L17.8822 17.221C17.8819 17.3028 17.9789 17.3645 18.0761 17.3444L18.0812 17.3393Z" fill="#010101"/>
<path d="M18.0576 16.7867L18.0613 17.2214L20.7022 16.545L20.7072 12.0144L18.0576 16.7867Z" fill="#686C86"/>
<path opacity="0.2" d="M19.863 13.5354L20.7068 12.0144L20.7018 16.545L19.8522 16.7621L19.863 13.5354Z" fill="#010101"/>
<path opacity="0.5" d="M18.0576 16.7867L18.0613 17.2214L20.7022 16.545L20.7072 12.0144L18.0576 16.7867Z" fill="url(#paint38_linear_3278_35999)"/>
<path style="mix-blend-mode:overlay" opacity="0.3" d="M18.0576 16.7867L18.0613 17.2214L20.7022 16.545L20.7072 12.0144L18.0576 16.7867Z" fill="url(#paint39_linear_3278_35999)"/>
<path d="M3.90608 32.6181C3.99301 32.6184 4.0644 32.68 4.06416 32.7516L4.06204 33.3805C4.0618 33.4521 3.99 33.5133 3.90307 33.513C3.81614 33.5127 3.74475 33.4511 3.74499 33.3795L3.74711 32.7505C3.74735 32.6789 3.81915 32.6178 3.90608 32.6181Z" fill="#676767"/>
<path d="M3.92866 33.4772C3.98498 33.4569 4.02091 33.4161 4.02109 33.365L4.02307 32.7769C4.02324 32.7258 3.9876 32.6797 3.9314 32.6641C3.87508 32.6844 3.83915 32.7252 3.83898 32.7763L3.837 33.3644C3.83683 33.4155 3.87247 33.4617 3.92866 33.4772Z" fill="url(#paint40_linear_3278_35999)"/>
<path d="M4.52424 32.738C4.61117 32.7383 4.68256 32.7999 4.68232 32.8715L4.6802 33.5005C4.67996 33.5721 4.60816 33.6332 4.52123 33.6329C4.4343 33.6326 4.36292 33.571 4.36316 33.4994L4.36528 32.8704C4.36552 32.7988 4.43731 32.7377 4.52424 32.738Z" fill="#676767"/>
<path d="M4.54683 33.5971C4.60315 33.5768 4.63908 33.536 4.63925 33.4849L4.64123 32.8968C4.6414 32.8457 4.60576 32.7995 4.54956 32.784C4.49325 32.8043 4.45731 32.8451 4.45714 32.8962L4.45516 33.4843C4.45499 33.5354 4.49063 33.5815 4.54683 33.5971Z" fill="url(#paint41_linear_3278_35999)"/>
<path d="M5.13753 32.8779C5.22446 32.8782 5.29584 32.9398 5.2956 33.0114L5.29349 33.6404C5.29325 33.712 5.22145 33.7731 5.13452 33.7728C5.04759 33.7725 4.9762 33.7109 4.97644 33.6393L4.97856 33.0103C4.9788 32.9387 5.0506 32.8776 5.13753 32.8779Z" fill="#676767"/>
<path d="M5.16547 33.737C5.22179 33.7167 5.25772 33.676 5.25789 33.6248L5.25987 33.0368C5.26004 32.9856 5.2244 32.9395 5.16821 32.924C5.1119 32.9442 5.07597 32.985 5.07579 33.0361L5.07381 33.6242C5.07364 33.6753 5.10928 33.7215 5.16547 33.737Z" fill="url(#paint42_linear_3278_35999)"/>
<path d="M17.6116 33.8128C17.6985 33.8131 17.7703 33.7519 17.7705 33.6804L17.7726 33.0514C17.7729 32.9798 17.7015 32.9182 17.6146 32.9179C17.5276 32.9176 17.4558 32.9787 17.4556 33.0503L17.4535 33.6793C17.4532 33.7509 17.5246 33.8125 17.6116 33.8128Z" fill="#676767"/>
<path d="M17.6453 32.958C17.7014 32.9786 17.7371 33.0196 17.7369 33.0708L17.735 33.6588C17.7348 33.71 17.6988 33.7559 17.6425 33.771C17.5864 33.7504 17.5507 33.7093 17.5509 33.6582L17.5528 33.0701C17.553 33.019 17.589 32.9731 17.6453 32.958Z" fill="url(#paint43_linear_3278_35999)"/>
<path d="M18.2307 33.703C18.3176 33.7033 18.3894 33.6422 18.3897 33.5706L18.3918 32.9416C18.392 32.87 18.3206 32.8084 18.2337 32.8082C18.1468 32.8079 18.075 32.869 18.0747 32.9406L18.0726 33.5695C18.0724 33.6411 18.1438 33.7027 18.2307 33.703Z" fill="#676767"/>
<path d="M18.2644 32.8442C18.3206 32.8648 18.3562 32.9059 18.3561 32.957L18.3541 33.5451C18.3539 33.5962 18.318 33.6421 18.2617 33.6572C18.2055 33.6366 18.1698 33.5956 18.17 33.5444L18.172 32.9564C18.1722 32.9052 18.2081 32.8593 18.2644 32.8442Z" fill="url(#paint44_linear_3278_35999)"/>
<path d="M18.8498 33.5672C18.9368 33.5675 19.0086 33.5064 19.0088 33.4348L19.0109 32.8058C19.0112 32.7342 18.9398 32.6726 18.8529 32.6723C18.7659 32.6721 18.6941 32.7332 18.6939 32.8048L18.6918 33.4337C18.6915 33.5053 18.7629 33.5669 18.8498 33.5672Z" fill="#676767"/>
<path d="M18.8777 32.7084C18.9339 32.729 18.9695 32.7701 18.9694 32.8212L18.9674 33.4092C18.9672 33.4604 18.9313 33.5063 18.875 33.5214C18.8188 33.5008 18.7831 33.4598 18.7833 33.4086L18.7853 32.8206C18.7854 32.7694 18.8214 32.7235 18.8777 32.7084Z" fill="url(#paint45_linear_3278_35999)"/>
<path d="M19.8301 2.07172L19.829 2.39898C20.4467 2.71299 20.8641 3.2769 20.8619 3.92632L20.863 3.59905C20.8652 2.95474 20.4529 2.38574 19.8301 2.07172Z" fill="#989898"/>
<path d="M20.8573 3.92171L20.8576 3.83478C20.8598 3.19046 20.4475 2.62146 19.8247 2.30743L19.8244 2.39437C20.4421 2.70838 20.8595 3.27228 20.8573 3.92171Z" fill="url(#paint46_radial_3278_35999)"/>
<path d="M19.8301 2.07176C19.5085 1.90704 19.1304 1.81373 18.7213 1.81235L17.3662 1.80779L17.2782 2.13476L18.7202 2.13961C19.1242 2.14097 19.5023 2.2394 19.829 2.39903L19.8301 2.07176Z" fill="#CB2026"/>
<path d="M17.2988 2.0572L17.2781 2.13383L18.7201 2.13868C19.1241 2.14004 19.5021 2.23847 19.8289 2.3981L19.8291 2.3214C19.5075 2.15668 19.1294 2.06336 18.7204 2.06198L17.2988 2.0572Z" fill="url(#paint47_radial_3278_35999)"/>
<path opacity="0.3" d="M19.5844 2.21957C19.6354 2.24531 19.6967 2.2762 19.7479 2.2508C19.794 2.2305 19.7993 2.16916 19.7739 2.13328C19.7484 2.0974 19.6974 2.07166 19.6463 2.05614C19.3194 1.93232 18.9616 1.89532 18.6037 1.87877C18.3992 1.87297 18.1946 1.87739 17.9952 1.87672C17.8776 1.87633 17.6067 1.82939 17.5194 1.92626C17.4886 1.96195 17.4884 2.04377 17.4729 2.08462C17.8104 2.08576 18.153 2.0818 18.4905 2.08805C18.782 2.08903 19.0785 2.10026 19.3647 2.15747C19.4413 2.17307 19.518 2.19378 19.5844 2.22469L19.5844 2.21957Z" fill="#640E0E"/>
<path opacity="0.5" d="M20.7823 3.27177C20.6806 3.08734 20.579 2.90291 20.4363 2.73879C20.2937 2.57467 20.1101 2.43087 19.8854 2.35341C19.8702 2.29711 19.8857 2.24091 19.9166 2.18988C20.3658 2.43173 20.6866 2.83168 20.7772 3.26665L20.7823 3.27177Z" fill="#EF3D23"/>
<path d="M3.14939 2.01558L3.14828 2.34284C2.52849 2.65269 2.10728 3.21377 2.1051 3.8632L2.1062 3.53593C2.10837 2.89162 2.52448 2.32541 3.14939 2.01558Z" fill="#989898"/>
<path d="M2.10542 3.85858L2.10571 3.77165C2.10788 3.12734 2.52399 2.56113 3.1489 2.2513L3.1486 2.33823C2.52881 2.64807 2.1076 3.20916 2.10542 3.85858Z" fill="url(#paint48_radial_3278_35999)"/>
<path d="M3.14953 2.01557C3.47224 1.85302 3.85095 1.76225 4.26004 1.76362L5.61513 1.76818L5.70096 2.09574L4.25894 2.09089C3.85496 2.08953 3.47623 2.18541 3.14843 2.34283L3.14953 2.01557Z" fill="#CB2026"/>
<path d="M5.68112 2.0181L5.70131 2.09487L4.25929 2.09002C3.85532 2.08866 3.47659 2.18454 3.14878 2.34196L3.14904 2.26526C3.47175 2.10271 3.85046 2.01194 4.25955 2.01332L5.68112 2.0181Z" fill="url(#paint49_radial_3278_35999)"/>
<path opacity="0.3" d="M3.39474 2.16506C3.34352 2.19045 3.28206 2.22093 3.23101 2.19519C3.18505 2.17458 3.18015 2.1132 3.20583 2.07749C3.23664 2.0418 3.28274 2.01638 3.33393 2.00121C3.66161 1.87959 4.01969 1.845 4.37769 1.83086C4.58225 1.82644 4.78677 1.83224 4.9862 1.83291C5.10382 1.83331 5.37498 1.7882 5.46158 1.88565C5.49214 1.92155 5.49186 2.00336 5.50707 2.04432C5.16959 2.04319 4.82699 2.03692 4.48948 2.0409C4.19801 2.03992 3.90138 2.04915 3.61483 2.10443C3.53808 2.11952 3.46131 2.13971 3.39473 2.17017L3.39474 2.16506Z" fill="#640E0E"/>
<path opacity="0.5" d="M2.18436 3.20915C2.28725 3.02541 2.39014 2.84166 2.53387 2.67851C2.6776 2.51536 2.86218 2.3728 3.08743 2.29685C3.10296 2.24065 3.08781 2.18435 3.0573 2.13311C2.60649 2.37194 2.283 2.76972 2.18949 3.20406L2.18436 3.20915Z" fill="#EF3D23"/>
<path d="M10.6877 1.94324C10.6879 1.8921 10.8413 1.85171 11.0305 1.85235L12.6669 1.85786C12.8561 1.85849 13.0094 1.89992 13.0092 1.95105C13.0091 2.00219 12.8555 2.04258 12.6663 2.04195L11.0299 2.03644C10.8407 2.0358 10.6875 1.99438 10.6877 1.94324Z" fill="#676767"/>
<path d="M12.9069 1.92978C12.861 1.89895 12.7435 1.8781 12.6105 1.87765L11.0866 1.87252C10.9537 1.87207 10.8411 1.89215 10.7899 1.92266C10.8358 1.95349 10.9533 1.97434 11.0863 1.97479L12.6102 1.97992C12.7431 1.98037 12.8557 1.96029 12.9069 1.92978Z" fill="url(#paint50_linear_3278_35999)"/>
<path style="mix-blend-mode:overlay" opacity="0.5" d="M10.6998 27.0878L10.8583 27.0883C10.8583 27.0883 10.4578 21.5131 10.8986 15.1174C10.8986 15.1174 10.8424 15.1172 10.7401 15.1169C10.3047 21.4257 10.6901 26.9344 10.6998 27.0827L10.6998 27.0878Z" fill="url(#paint51_linear_3278_35999)"/>
<path style="mix-blend-mode:overlay" opacity="0.5" d="M5.29564 26.8339C6.94108 27.177 9.04763 27.2557 10.5357 27.2556C9.0681 27.2506 7.07918 27.1672 5.49504 26.8448L5.29053 26.8339L5.29564 26.8339Z" fill="url(#paint52_linear_3278_35999)"/>
<path style="mix-blend-mode:overlay" opacity="0.5" d="M3.33821 2.26158C3.56871 2.14474 4.66979 1.65754 7.32374 1.65624C4.18407 1.63545 3.13357 2.28646 3.13357 2.28646C3.19497 2.27644 3.26147 2.27155 3.33821 2.26158Z" fill="url(#paint53_linear_3278_35999)"/>
<path style="mix-blend-mode:overlay" opacity="0.5" d="M8.16797 44.0402L8.25896 44.3525L8.41748 44.353L8.32649 44.0408L8.16797 44.0402Z" fill="url(#paint54_linear_3278_35999)"/>
<path style="mix-blend-mode:overlay" opacity="0.5" d="M9.68535 1.76671C9.7416 1.7669 9.79786 1.77731 9.85409 1.78262C9.85409 1.78262 9.40539 1.39758 9.85655 1.05137L9.69803 1.05084C9.29812 1.36143 9.60892 1.69997 9.68027 1.7718L9.68535 1.76671Z" fill="url(#paint55_linear_3278_35999)"/>
<path style="mix-blend-mode:overlay" opacity="0.5" d="M11.4344 44.3648L11.2759 44.3643C10.7122 44.705 11.2735 45.0802 11.2735 45.0802L11.432 45.0807C11.432 45.0807 10.8708 44.7056 11.4344 44.3648Z" fill="url(#paint56_linear_3278_35999)"/>
<path d="M20.6455 30.2028L22.9542 29.4742L22.953 29.8321C22.9524 30.0009 22.8292 30.1488 22.6398 30.2095L20.6433 30.842L20.6455 30.2079L20.6455 30.2028Z" fill="#010101"/>
<path opacity="0.4" d="M20.6455 30.1568L22.9542 29.4282L22.953 29.7862C22.9524 29.9549 22.8292 30.1028 22.6398 30.1635L20.6433 30.796L20.6455 30.1619L20.6455 30.1568Z" fill="url(#paint57_linear_3278_35999)"/>
<path d="M21.307 29.7048L22.7657 29.3159C22.8578 29.2907 22.9548 29.3472 22.9545 29.4291L22.953 29.8688L21.2026 30.3334L21.2043 29.817C21.2045 29.7658 21.2456 29.7199 21.307 29.7048Z" fill="#333333"/>
<path d="M21.307 29.7048L22.7657 29.3159C22.8578 29.2907 22.9548 29.3472 22.9545 29.4291L22.953 29.8688L21.2026 30.3334L21.2043 29.817C21.2045 29.7658 21.2456 29.7199 21.307 29.7048Z" fill="url(#paint58_linear_3278_35999)"/>
<path d="M2.35941 30.1412L0.0556641 29.3971L0.0544592 29.755C0.0538913 29.9238 0.176119 30.0725 0.365115 30.1345L2.35725 30.7804L2.35939 30.1463L2.35941 30.1412Z" fill="#010101"/>
<path opacity="0.4" d="M2.35989 30.0953L0.0561523 29.3511L0.0549475 29.7091C0.0543795 29.8778 0.176607 30.0265 0.365603 30.0885L2.35774 30.7345L2.35988 30.1004L2.35989 30.0953Z" fill="url(#paint59_linear_3278_35999)"/>
<path d="M1.70137 29.6388L0.245331 29.2401C0.153373 29.2143 0.0560281 29.2702 0.0557527 29.352L0.0542725 29.7918L1.80153 30.2681L1.80327 29.7517C1.80344 29.7005 1.76269 29.6543 1.70137 29.6388Z" fill="#333333"/>
<path d="M1.70137 29.6388L0.245331 29.2401C0.153373 29.2143 0.0560281 29.2702 0.0557527 29.352L0.0542725 29.7918L1.80153 30.2681L1.80327 29.7517C1.80344 29.7005 1.76269 29.6543 1.70137 29.6388Z" fill="url(#paint60_linear_3278_35999)"/>
</g>
<defs>
<linearGradient id="paint0_linear_3278_35999" x1="18.1983" y1="0.790722" x2="5.00016" y2="0.746299" gradientUnits="userSpaceOnUse">
<stop stop-color="#C8C5C5"/>
<stop offset="0.04" stop-color="#676868"/>
<stop offset="0.11" stop-color="white"/>
<stop offset="0.3" stop-color="#939292"/>
<stop offset="0.49" stop-color="white"/>
<stop offset="0.63" stop-color="#676868"/>
<stop offset="0.77" stop-color="#939292"/>
<stop offset="0.82" stop-color="#C8C5C5"/>
<stop offset="1" stop-color="#343433"/>
</linearGradient>
<linearGradient id="paint1_linear_3278_35999" x1="11.6001" y1="1.25031" x2="11.6021" y2="0.641795" gradientUnits="userSpaceOnUse">
<stop stop-color="#010101"/>
<stop offset="1" stop-color="#010101" stop-opacity="0"/>
</linearGradient>
<linearGradient id="paint2_linear_3278_35999" x1="15.821" y1="0.592383" x2="18.2959" y2="0.600713" gradientUnits="userSpaceOnUse">
<stop stop-color="#C8C5C5"/>
<stop offset="0.04" stop-color="#676868"/>
<stop offset="0.11" stop-color="white"/>
<stop offset="0.3" stop-color="#939292"/>
<stop offset="0.49" stop-color="white"/>
<stop offset="0.63" stop-color="#676868"/>
<stop offset="0.77" stop-color="#939292"/>
<stop offset="0.82" stop-color="#C8C5C5"/>
<stop offset="1" stop-color="#343433"/>
</linearGradient>
<linearGradient id="paint3_linear_3278_35999" x1="16.4217" y1="-0.125514" x2="16.4162" y2="1.52617" gradientUnits="userSpaceOnUse">
<stop stop-color="#C8C5C5"/>
<stop offset="0.04" stop-color="#676868"/>
<stop offset="0.11" stop-color="white"/>
<stop offset="0.3" stop-color="#939292"/>
<stop offset="0.49" stop-color="white"/>
<stop offset="0.63" stop-color="#676868"/>
<stop offset="0.77" stop-color="#939292"/>
<stop offset="0.82" stop-color="#C8C5C5"/>
<stop offset="1" stop-color="#343433"/>
</linearGradient>
<linearGradient id="paint4_linear_3278_35999" x1="6.1818" y1="0.559912" x2="8.65677" y2="0.568242" gradientUnits="userSpaceOnUse">
<stop stop-color="#C8C5C5"/>
<stop offset="0.04" stop-color="#676868"/>
<stop offset="0.11" stop-color="white"/>
<stop offset="0.3" stop-color="#939292"/>
<stop offset="0.49" stop-color="white"/>
<stop offset="0.63" stop-color="#676868"/>
<stop offset="0.77" stop-color="#939292"/>
<stop offset="0.82" stop-color="#C8C5C5"/>
<stop offset="1" stop-color="#343433"/>
</linearGradient>
<linearGradient id="paint5_linear_3278_35999" x1="6.78208" y1="0.0619437" x2="6.77812" y2="1.23807" gradientUnits="userSpaceOnUse">
<stop stop-color="#C8C5C5"/>
<stop offset="0.04" stop-color="#676868"/>
<stop offset="0.11" stop-color="white"/>
<stop offset="0.3" stop-color="#939292"/>
<stop offset="0.49" stop-color="white"/>
<stop offset="0.63" stop-color="#676868"/>
<stop offset="0.77" stop-color="#939292"/>
<stop offset="0.82" stop-color="#C8C5C5"/>
<stop offset="1" stop-color="#343433"/>
</linearGradient>
<linearGradient id="paint6_linear_3278_35999" x1="16.6417" y1="45.352" x2="6.25602" y2="45.317" gradientUnits="userSpaceOnUse">
<stop stop-color="#C8C5C5"/>
<stop offset="0.04" stop-color="#676868"/>
<stop offset="0.11" stop-color="white"/>
<stop offset="0.3" stop-color="#939292"/>
<stop offset="0.49" stop-color="white"/>
<stop offset="0.63" stop-color="#676868"/>
<stop offset="0.77" stop-color="#939292"/>
<stop offset="0.82" stop-color="#C8C5C5"/>
<stop offset="1" stop-color="#343433"/>
</linearGradient>
<linearGradient id="paint7_linear_3278_35999" x1="11.4532" y1="44.8292" x2="11.4511" y2="45.4378" gradientUnits="userSpaceOnUse">
<stop stop-color="#010101"/>
<stop offset="1" stop-color="#010101" stop-opacity="0"/>
</linearGradient>
<linearGradient id="paint8_linear_3278_35999" x1="14.7647" y1="45.539" x2="16.713" y2="45.5455" gradientUnits="userSpaceOnUse">
<stop stop-color="#C8C5C5"/>
<stop offset="0.04" stop-color="#676868"/>
<stop offset="0.11" stop-color="white"/>
<stop offset="0.3" stop-color="#939292"/>
<stop offset="0.49" stop-color="white"/>
<stop offset="0.63" stop-color="#676868"/>
<stop offset="0.77" stop-color="#939292"/>
<stop offset="0.82" stop-color="#C8C5C5"/>
<stop offset="1" stop-color="#343433"/>
</linearGradient>
<linearGradient id="paint9_linear_3278_35999" x1="15.2381" y1="46.2576" x2="15.2436" y2="44.6058" gradientUnits="userSpaceOnUse">
<stop stop-color="#C8C5C5"/>
<stop offset="0.04" stop-color="#676868"/>
<stop offset="0.11" stop-color="white"/>
<stop offset="0.3" stop-color="#939292"/>
<stop offset="0.49" stop-color="white"/>
<stop offset="0.63" stop-color="#676868"/>
<stop offset="0.77" stop-color="#939292"/>
<stop offset="0.82" stop-color="#C8C5C5"/>
<stop offset="1" stop-color="#343433"/>
</linearGradient>
<linearGradient id="paint10_linear_3278_35999" x1="7.18123" y1="45.5134" x2="9.1295" y2="45.5199" gradientUnits="userSpaceOnUse">
<stop stop-color="#C8C5C5"/>
<stop offset="0.04" stop-color="#676868"/>
<stop offset="0.11" stop-color="white"/>
<stop offset="0.3" stop-color="#939292"/>
<stop offset="0.49" stop-color="white"/>
<stop offset="0.63" stop-color="#676868"/>
<stop offset="0.77" stop-color="#939292"/>
<stop offset="0.82" stop-color="#C8C5C5"/>
<stop offset="1" stop-color="#343433"/>
</linearGradient>
<linearGradient id="paint11_linear_3278_35999" x1="7.6553" y1="46.0121" x2="7.65925" y2="44.836" gradientUnits="userSpaceOnUse">
<stop stop-color="#C8C5C5"/>
<stop offset="0.04" stop-color="#676868"/>
<stop offset="0.11" stop-color="white"/>
<stop offset="0.3" stop-color="#939292"/>
<stop offset="0.49" stop-color="white"/>
<stop offset="0.63" stop-color="#676868"/>
<stop offset="0.77" stop-color="#939292"/>
<stop offset="0.82" stop-color="#C8C5C5"/>
<stop offset="1" stop-color="#343433"/>
</linearGradient>
<linearGradient id="paint12_linear_3278_35999" x1="11.4285" y1="44.6341" x2="11.4294" y2="44.3631" gradientUnits="userSpaceOnUse">
<stop stop-color="#010101" stop-opacity="0"/>
<stop offset="0.99" stop-color="#010101"/>
</linearGradient>
<linearGradient id="paint13_linear_3278_35999" x1="11.4291" y1="44.4398" x2="11.427" y2="45.0739" gradientUnits="userSpaceOnUse">
<stop offset="0.42" stop-color="white" stop-opacity="0"/>
<stop offset="1" stop-color="white"/>
</linearGradient>
<linearGradient id="paint14_linear_3278_35999" x1="11.5724" y1="1.77207" x2="11.5712" y2="2.14536" gradientUnits="userSpaceOnUse">
<stop stop-color="#010101"/>
<stop offset="1" stop-color="#010101" stop-opacity="0"/>
</linearGradient>
<radialGradient id="paint15_radial_3278_35999" cx="0" cy="0" r="1" gradientUnits="userSpaceOnUse" gradientTransform="translate(9.04631 22.6378) rotate(0.19285) scale(0.309373 0.255681)">
<stop stop-color="white" stop-opacity="0"/>
<stop offset="1" stop-color="white"/>
</radialGradient>
<linearGradient id="paint16_linear_3278_35999" x1="11.4676" y1="33.0626" x2="11.4691" y2="32.6126" gradientUnits="userSpaceOnUse">
<stop stop-color="#010101"/>
<stop offset="1" stop-color="#010101" stop-opacity="0"/>
</linearGradient>
<radialGradient id="paint17_radial_3278_35999" cx="0" cy="0" r="1" gradientUnits="userSpaceOnUse" gradientTransform="translate(23.2043 29.9767) rotate(-179.807) scale(15.1469 12.5181)">
<stop stop-color="white" stop-opacity="0"/>
<stop offset="1" stop-color="white"/>
</radialGradient>
<radialGradient id="paint18_radial_3278_35999" cx="0" cy="0" r="1" gradientUnits="userSpaceOnUse" gradientTransform="translate(21.4618 29.2601) rotate(-179.807) scale(14.5777 12.0477)">
<stop offset="0.01" stop-color="#010101"/>
<stop offset="1" stop-color="#010101" stop-opacity="0"/>
</radialGradient>
<linearGradient id="paint19_linear_3278_35999" x1="11.5487" y1="8.88463" x2="11.5472" y2="9.33462" gradientUnits="userSpaceOnUse">
<stop stop-color="#010101"/>
<stop offset="1" stop-color="#010101" stop-opacity="0"/>
</linearGradient>
<radialGradient id="paint20_radial_3278_35999" cx="0" cy="0" r="1" gradientUnits="userSpaceOnUse" gradientTransform="translate(23.2649 12.0122) rotate(-179.807) scale(15.1469 12.5181)">
<stop stop-color="white" stop-opacity="0"/>
<stop offset="1" stop-color="white"/>
</radialGradient>
<radialGradient id="paint21_radial_3278_35999" cx="0" cy="0" r="1" gradientUnits="userSpaceOnUse" gradientTransform="translate(19.8607 14.1894) rotate(-179.807) scale(19.9917 16.5221)">
<stop offset="0.01" stop-color="#010101"/>
<stop offset="1" stop-color="#010101" stop-opacity="0"/>
</radialGradient>
<linearGradient id="paint22_linear_3278_35999" x1="2.00342" y1="26.6476" x2="2.20796" y2="26.6483" gradientUnits="userSpaceOnUse">
<stop stop-color="#010101"/>
<stop offset="1" stop-color="#010101" stop-opacity="0"/>
</linearGradient>
<linearGradient id="paint23_linear_3278_35999" x1="2.38682" y1="26.5152" x2="3.23567" y2="26.518" gradientUnits="userSpaceOnUse">
<stop stop-color="white"/>
<stop offset="1" stop-color="white" stop-opacity="0"/>
</linearGradient>
<linearGradient id="paint24_linear_3278_35999" x1="3.80328" y1="26.5199" x2="4.95384" y2="26.5238" gradientUnits="userSpaceOnUse">
<stop stop-color="#010101" stop-opacity="0"/>
<stop offset="0.99" stop-color="#010101"/>
</linearGradient>
<linearGradient id="paint25_linear_3278_35999" x1="2.05726" y1="19.7183" x2="2.23112" y2="19.7189" gradientUnits="userSpaceOnUse">
<stop stop-color="#010101"/>
<stop offset="1" stop-color="#010101" stop-opacity="0"/>
</linearGradient>
<linearGradient id="paint26_linear_3278_35999" x1="2.40976" y1="19.7148" x2="3.25861" y2="19.7176" gradientUnits="userSpaceOnUse">
<stop stop-color="white"/>
<stop offset="1" stop-color="white" stop-opacity="0"/>
</linearGradient>
<linearGradient id="paint27_linear_3278_35999" x1="3.82622" y1="19.7195" x2="4.97677" y2="19.7234" gradientUnits="userSpaceOnUse">
<stop stop-color="#010101" stop-opacity="0"/>
<stop offset="0.99" stop-color="#010101"/>
</linearGradient>
<linearGradient id="paint28_linear_3278_35999" x1="2.07468" y1="14.5237" x2="2.24854" y2="14.5243" gradientUnits="userSpaceOnUse">
<stop stop-color="#010101"/>
<stop offset="1" stop-color="#010101" stop-opacity="0"/>
</linearGradient>
<linearGradient id="paint29_linear_3278_35999" x1="2.42718" y1="14.5608" x2="3.27603" y2="14.5636" gradientUnits="userSpaceOnUse">
<stop stop-color="white"/>
<stop offset="1" stop-color="white" stop-opacity="0"/>
</linearGradient>
<linearGradient id="paint30_linear_3278_35999" x1="3.84364" y1="14.5656" x2="4.9942" y2="14.5694" gradientUnits="userSpaceOnUse">
<stop stop-color="#010101" stop-opacity="0"/>
<stop offset="0.99" stop-color="#010101"/>
</linearGradient>
<linearGradient id="paint31_linear_3278_35999" x1="21.0205" y1="26.7116" x2="20.816" y2="26.7109" gradientUnits="userSpaceOnUse">
<stop stop-color="#010101"/>
<stop offset="1" stop-color="#010101" stop-opacity="0"/>
</linearGradient>
<linearGradient id="paint32_linear_3278_35999" x1="20.6427" y1="26.5767" x2="19.7888" y2="26.5738" gradientUnits="userSpaceOnUse">
<stop stop-color="white"/>
<stop offset="1" stop-color="white" stop-opacity="0"/>
</linearGradient>
<linearGradient id="paint33_linear_3278_35999" x1="19.2211" y1="26.5719" x2="18.0706" y2="26.568" gradientUnits="userSpaceOnUse">
<stop stop-color="#010101" stop-opacity="0"/>
<stop offset="0.99" stop-color="#010101"/>
</linearGradient>
<linearGradient id="paint34_linear_3278_35999" x1="21.0132" y1="19.7821" x2="20.8394" y2="19.7815" gradientUnits="userSpaceOnUse">
<stop stop-color="#010101"/>
<stop offset="1" stop-color="#010101" stop-opacity="0"/>
</linearGradient>
<linearGradient id="paint35_linear_3278_35999" x1="20.6657" y1="19.7762" x2="19.8117" y2="19.7733" gradientUnits="userSpaceOnUse">
<stop stop-color="white"/>
<stop offset="1" stop-color="white" stop-opacity="0"/>
</linearGradient>
<linearGradient id="paint36_linear_3278_35999" x1="19.2441" y1="19.7714" x2="18.0935" y2="19.7675" gradientUnits="userSpaceOnUse">
<stop stop-color="#010101" stop-opacity="0"/>
<stop offset="0.99" stop-color="#010101"/>
</linearGradient>
<linearGradient id="paint37_linear_3278_35999" x1="21.0309" y1="14.5875" x2="20.857" y2="14.5869" gradientUnits="userSpaceOnUse">
<stop stop-color="#010101"/>
<stop offset="1" stop-color="#010101" stop-opacity="0"/>
</linearGradient>
<linearGradient id="paint38_linear_3278_35999" x1="20.6831" y1="14.6222" x2="19.8291" y2="14.6194" gradientUnits="userSpaceOnUse">
<stop stop-color="white"/>
<stop offset="1" stop-color="white" stop-opacity="0"/>
</linearGradient>
<linearGradient id="paint39_linear_3278_35999" x1="19.2615" y1="14.6174" x2="18.111" y2="14.6136" gradientUnits="userSpaceOnUse">
<stop stop-color="#010101" stop-opacity="0"/>
<stop offset="0.99" stop-color="#010101"/>
</linearGradient>
<linearGradient id="paint40_linear_3278_35999" x1="4.02208" y1="33.0684" x2="3.838" y2="33.0678" gradientUnits="userSpaceOnUse">
<stop stop-color="#010101"/>
<stop offset="1" stop-color="#010101" stop-opacity="0"/>
</linearGradient>
<linearGradient id="paint41_linear_3278_35999" x1="4.64025" y1="33.1883" x2="4.45616" y2="33.1877" gradientUnits="userSpaceOnUse">
<stop stop-color="#010101"/>
<stop offset="1" stop-color="#010101" stop-opacity="0"/>
</linearGradient>
<linearGradient id="paint42_linear_3278_35999" x1="5.25889" y1="33.3282" x2="5.07481" y2="33.3276" gradientUnits="userSpaceOnUse">
<stop stop-color="#010101"/>
<stop offset="1" stop-color="#010101" stop-opacity="0"/>
</linearGradient>
<linearGradient id="paint43_linear_3278_35999" x1="17.7359" y1="33.3673" x2="17.5518" y2="33.3667" gradientUnits="userSpaceOnUse">
<stop stop-color="#010101"/>
<stop offset="1" stop-color="#010101" stop-opacity="0"/>
</linearGradient>
<linearGradient id="paint44_linear_3278_35999" x1="18.35" y1="33.2536" x2="18.1659" y2="33.2529" gradientUnits="userSpaceOnUse">
<stop stop-color="#010101"/>
<stop offset="1" stop-color="#010101" stop-opacity="0"/>
</linearGradient>
<linearGradient id="paint45_linear_3278_35999" x1="18.9684" y1="33.1178" x2="18.7843" y2="33.1172" gradientUnits="userSpaceOnUse">
<stop stop-color="#010101"/>
<stop offset="1" stop-color="#010101" stop-opacity="0"/>
</linearGradient>
<radialGradient id="paint46_radial_3278_35999" cx="0" cy="0" r="1" gradientUnits="userSpaceOnUse" gradientTransform="translate(23.4247 3.12751) rotate(-179.807) scale(0.779622 0.644315)">
<stop stop-color="white" stop-opacity="0"/>
<stop offset="1" stop-color="white"/>
</radialGradient>
<radialGradient id="paint47_radial_3278_35999" cx="0" cy="0" r="1" gradientUnits="userSpaceOnUse" gradientTransform="translate(21.6265 2.2354) rotate(-179.807) scale(0.915746 0.756809)">
<stop stop-color="white" stop-opacity="0"/>
<stop offset="1" stop-color="white"/>
</radialGradient>
<radialGradient id="paint48_radial_3278_35999" cx="0" cy="0" r="1" gradientUnits="userSpaceOnUse" gradientTransform="translate(5.33927 3.06662) rotate(0.19285) scale(0.779621 0.644315)">
<stop stop-color="white" stop-opacity="0"/>
<stop offset="1" stop-color="white"/>
</radialGradient>
<radialGradient id="paint49_radial_3278_35999" cx="0" cy="0" r="1" gradientUnits="userSpaceOnUse" gradientTransform="translate(7.143 2.18666) rotate(0.19285) scale(0.915745 0.756809)">
<stop stop-color="white" stop-opacity="0"/>
<stop offset="1" stop-color="white"/>
</radialGradient>
<linearGradient id="paint50_linear_3278_35999" x1="11.8486" y1="1.87508" x2="11.8482" y2="1.98247" gradientUnits="userSpaceOnUse">
<stop stop-color="#010101"/>
<stop offset="1" stop-color="#010101" stop-opacity="0"/>
</linearGradient>
<linearGradient id="paint51_linear_3278_35999" x1="10.5154" y1="21.1042" x2="10.8682" y2="21.1054" gradientUnits="userSpaceOnUse">
<stop offset="0.42" stop-color="white" stop-opacity="0"/>
<stop offset="1" stop-color="white"/>
</linearGradient>
<linearGradient id="paint52_linear_3278_35999" x1="5.03929" y1="27.0376" x2="10.4341" y2="27.0558" gradientUnits="userSpaceOnUse">
<stop offset="0.42" stop-color="white" stop-opacity="0"/>
<stop offset="1" stop-color="white"/>
</linearGradient>
<linearGradient id="paint53_linear_3278_35999" x1="2.93011" y1="1.96361" x2="7.24084" y2="1.97812" gradientUnits="userSpaceOnUse">
<stop offset="0.42" stop-color="white" stop-opacity="0"/>
<stop offset="1" stop-color="white"/>
</linearGradient>
<linearGradient id="paint54_linear_3278_35999" x1="8.15721" y1="44.1987" x2="8.40777" y2="44.1996" gradientUnits="userSpaceOnUse">
<stop offset="0.42" stop-color="white" stop-opacity="0"/>
<stop offset="1" stop-color="white"/>
</linearGradient>
<linearGradient id="paint55_linear_3278_35999" x1="9.48204" y1="1.41318" x2="9.85022" y2="1.41442" gradientUnits="userSpaceOnUse">
<stop offset="0.42" stop-color="white" stop-opacity="0"/>
<stop offset="1" stop-color="white"/>
</linearGradient>
<linearGradient id="paint56_linear_3278_35999" x1="11.0037" y1="44.7213" x2="11.423" y2="44.7228" gradientUnits="userSpaceOnUse">
<stop offset="0.42" stop-color="white" stop-opacity="0"/>
<stop offset="1" stop-color="white"/>
</linearGradient>
<linearGradient id="paint57_linear_3278_35999" x1="21.9026" y1="30.4065" x2="21.8469" y2="30.2529" gradientUnits="userSpaceOnUse">
<stop stop-color="white"/>
<stop offset="1" stop-color="white" stop-opacity="0"/>
</linearGradient>
<linearGradient id="paint58_linear_3278_35999" x1="21.3205" y1="30.2366" x2="22.4169" y2="29.6267" gradientUnits="userSpaceOnUse">
<stop stop-color="#010101"/>
<stop offset="1" stop-color="#010101" stop-opacity="0"/>
</linearGradient>
<linearGradient id="paint59_linear_3278_35999" x1="1.09602" y1="30.3365" x2="1.15278" y2="30.1832" gradientUnits="userSpaceOnUse">
<stop stop-color="white"/>
<stop offset="1" stop-color="white" stop-opacity="0"/>
</linearGradient>
<linearGradient id="paint60_linear_3278_35999" x1="1.67914" y1="30.1705" x2="0.586894" y2="29.5532" gradientUnits="userSpaceOnUse">
<stop stop-color="#010101"/>
<stop offset="1" stop-color="#010101" stop-opacity="0"/>
</linearGradient>
<clipPath id="clip0_3278_35999">
<rect width="23.0112" height="46.0225" fill="white" transform="translate(0.154785) rotate(0.19285)"/>
</clipPath>
</defs>
</svg>
