<svg width="60" height="60" viewBox="0 0 60 60" fill="none" xmlns="http://www.w3.org/2000/svg">
<path d="M30.0125 16.8691V23.9191M30.0125 23.9191L39.6125 30.3591M30.0125 23.9191L20.4125 30.3591M36.9725 28.8393L36.0625 31.8893M23.0525 28.8391L23.9625 31.8891M33.6424 24.6089C35.1924 21.5389 38.2224 20.3289 40.8724 23.7589C44.1124 27.9489 43.5224 38.8389 43.1524 41.1389C42.8724 42.8389 41.5124 43.6589 39.8024 42.7689C33.4624 39.4989 32.3724 39.1789 32.1824 36.8189C31.8439 32.6302 32.0125 28.1189 33.6424 24.6089ZM26.3578 24.6089C24.8078 21.5389 21.7777 20.3289 19.1277 23.7589C15.8877 27.9489 16.4777 38.8389 16.8477 41.1389C17.1277 42.8389 18.4877 43.6589 20.1977 42.7689C26.5377 39.4989 27.6277 39.1789 27.8177 36.8189C28.1562 32.6302 27.9877 28.1189 26.3578 24.6089Z" stroke="white" stroke-width="1.89" stroke-miterlimit="10" stroke-linecap="round"/>
</svg>
