<svg width="23" height="46" viewBox="0 0 23 46" fill="none" xmlns="http://www.w3.org/2000/svg">
<g clip-path="url(#clip0_3278_35655)">
<path d="M18.0424 1.11405H4.85059V0.930049C4.85059 0.602937 5.11636 0.337158 5.44347 0.337158H17.4444C17.7715 0.337158 18.0373 0.602937 18.0373 0.930049V1.11405H18.0424Z" fill="url(#paint0_linear_3278_35655)"/>
<path d="M18.0424 1.24185H4.85059V1.05785C4.85059 0.730743 5.11636 0.464966 5.44347 0.464966H17.4444C17.7715 0.464966 18.0373 0.730743 18.0373 1.05785V1.24185H18.0424Z" fill="#333333"/>
<path d="M18.0424 1.24185H4.85059V1.05785C4.85059 0.730743 5.11636 0.464966 5.44347 0.464966H17.4444C17.7715 0.464966 18.0373 0.730743 18.0373 1.05785V1.24185H18.0424Z" fill="url(#paint1_linear_3278_35655)"/>
<path d="M16.105 0.990283H16.4218C16.5658 0.990283 16.6825 0.873581 16.6825 0.729616V0.341173C16.6825 0.197211 16.5658 0.0805054 16.4218 0.0805054H16.105C15.961 0.0805054 15.8442 0.197211 15.8442 0.341173V0.729616C15.8442 0.873581 15.961 0.990283 16.105 0.990283Z" fill="url(#paint2_linear_3278_35655)"/>
<path d="M16.4577 0.847188L16.4629 0.223633H16.0591V0.847188H16.4577Z" fill="url(#paint3_linear_3278_35655)"/>
<path d="M6.47551 0.990283H6.7924C6.93638 0.990283 7.05307 0.873581 7.05307 0.729616V0.341173C7.05307 0.197211 6.93638 0.0805054 6.7924 0.0805054H6.47551C6.33153 0.0805054 6.21484 0.197211 6.21484 0.341173V0.729616C6.21484 0.873581 6.33153 0.990283 6.47551 0.990283Z" fill="url(#paint4_linear_3278_35655)"/>
<path d="M6.82787 0.847188L6.83298 0.223633H6.4292V0.847188H6.82787Z" fill="url(#paint5_linear_3278_35655)"/>
<path d="M16.0537 0.0818386H16.4575V6.10352e-05H16.0537V0.0818386Z" fill="#989898"/>
<path d="M6.4292 0.0818386H6.83298V6.10352e-05H6.4292V0.0818386Z" fill="#989898"/>
<path d="M16.0439 45.6626H6.85412C6.52701 45.6626 6.26123 45.3968 6.26123 45.0697V44.8857H16.6419V45.0697C16.6419 45.3968 16.3761 45.6626 16.049 45.6626H16.0439Z" fill="url(#paint6_linear_3278_35655)"/>
<path d="M16.0439 45.5348H6.85412C6.52701 45.5348 6.26123 45.269 6.26123 44.9419V44.7579H16.6419V44.9419C16.6419 45.269 16.3761 45.5348 16.049 45.5348H16.0439Z" fill="#333333"/>
<path d="M16.0439 45.5348H6.85412C6.52701 45.5348 6.26123 45.269 6.26123 44.9419V44.7579H16.6419V44.9419C16.6419 45.269 16.3761 45.5348 16.049 45.5348H16.0439Z" fill="url(#paint7_linear_3278_35655)"/>
<path d="M15.165 45.9181H15.303C15.4469 45.9181 15.5636 45.8015 15.5636 45.6575V45.269C15.5636 45.1251 15.4469 45.0084 15.303 45.0084H15.165C15.021 45.0084 14.9043 45.1251 14.9043 45.269V45.6575C14.9043 45.8015 15.021 45.9181 15.165 45.9181Z" fill="url(#paint8_linear_3278_35655)"/>
<path d="M15.3896 45.1514L15.3948 45.7801H15.0779L15.0728 45.1565L15.0779 45.1514H15.3896Z" fill="url(#paint9_linear_3278_35655)"/>
<path d="M7.58489 45.9181H7.72289C7.86687 45.9181 7.98355 45.8015 7.98355 45.6575V45.269C7.98355 45.1251 7.86687 45.0084 7.72289 45.0084H7.58489C7.44096 45.0084 7.32422 45.1251 7.32422 45.269V45.6575C7.32422 45.8015 7.44096 45.9181 7.58489 45.9181Z" fill="url(#paint10_linear_3278_35655)"/>
<path d="M7.81494 45.1514V45.7801H7.49805V45.1565V45.1514H7.81494Z" fill="url(#paint11_linear_3278_35655)"/>
<path d="M15.0776 46H15.3945V45.9182H15.0776V46Z" fill="#989898"/>
<path d="M7.49805 46H7.81494V45.9182H7.49805V46Z" fill="#989898"/>
<path d="M7.19656 23.9044H15.7014C15.957 23.9044 16.1666 24.0782 16.1666 24.2929V24.7069C16.1666 24.9215 15.957 25.0953 15.7014 25.0953H7.19656C6.93589 25.0953 6.73145 24.9215 6.73145 24.7069V24.2929C6.73145 24.0782 6.941 23.9044 7.19656 23.9044Z" fill="#989898"/>
<path d="M1.45677 40.2861V4.45205C1.45677 2.55071 3.3121 1.01227 5.60186 1.01227H17.245C19.5347 1.01227 21.3901 2.55071 21.3901 4.45205V40.2861C21.3901 42.903 18.8345 45.019 15.681 45.019H7.16075C4.00722 45.019 1.45166 42.8978 1.45166 40.2861H1.45677Z" fill="#989898"/>
<path d="M16.9896 44.3032H5.86267C4.51843 44.3032 3.31732 43.8023 2.50977 43.0152C3.54221 44.2265 5.24423 45.0188 7.16601 45.0188H15.6862C17.6131 45.0188 19.31 44.2265 20.3425 43.0152C19.5349 43.8023 18.3338 44.3032 16.9896 44.3032Z" fill="url(#paint12_linear_3278_35655)"/>
<path opacity="0.4" d="M16.9896 44.3032H5.86267C4.51843 44.3032 3.31732 43.8023 2.50977 43.0152C3.54221 44.2265 5.24423 45.0188 7.16601 45.0188H15.6862C17.6131 45.0188 19.31 44.2265 20.3425 43.0152C19.5349 43.8023 18.3338 44.3032 16.9896 44.3032Z" fill="url(#paint13_linear_3278_35655)"/>
<path d="M20.71 3.84904V40.8842C20.71 42.5811 19.0489 43.9611 17.0045 43.9611H5.84179C3.79734 43.9611 2.13623 42.5862 2.13623 40.8842V3.84904C2.13623 2.86771 3.09712 2.07037 4.27779 2.07037H18.5633C19.7491 2.07037 20.7049 2.86771 20.7049 3.84904H20.71Z" fill="#989898"/>
<path d="M18.1392 15.2473L20.7561 10.494H21.395V32.5893L18.2159 26.686L10.3039 26.9722L4.8401 26.6655L1.99321 32.0475L1.45654 32.0373V10.1004H1.99321L4.99854 15.1962C4.99854 15.1962 9.96654 14.818 11.3517 14.8691C12.7368 14.9202 17.7865 15.4875 17.7865 15.4875L18.1392 15.2371V15.2473Z" fill="#E0E1E0"/>
<path d="M4.28316 2.07009H18.5687C19.7545 2.07009 20.7103 2.86743 20.7103 3.84876V3.52165C20.7103 2.54031 19.7494 1.74298 18.5687 1.74298H4.28316C3.09738 1.74298 2.1416 2.54031 2.1416 3.52165V3.84876C2.1416 2.86743 3.10249 2.07009 4.28316 2.07009Z" fill="#333333"/>
<path d="M4.28316 2.07009H18.5687C19.7545 2.07009 20.7103 2.86743 20.7103 3.84876V3.52165C20.7103 2.54031 19.7494 1.74298 18.5687 1.74298H4.28316C3.09738 1.74298 2.1416 2.54031 2.1416 3.52165V3.84876C2.1416 2.86743 3.10249 2.07009 4.28316 2.07009Z" fill="url(#paint14_linear_3278_35655)"/>
<path opacity="0.5" d="M18.6661 2.18793H4.28854C3.09765 2.18793 2.13165 2.98526 2.13165 3.9666V41.0017C2.13165 41.8195 2.52521 42.5657 3.15899 43.1177C2.44343 42.5555 1.99365 41.7684 1.99365 40.8893V3.84904C1.99365 2.86771 2.95965 2.07037 4.15054 2.07037H18.5281C19.1619 2.07037 19.7241 2.29526 20.1228 2.65304C19.7394 2.36682 19.2283 2.18793 18.6712 2.18793H18.6661Z" fill="url(#paint15_radial_3278_35655)"/>
<path d="M5.84179 44.3042H17.0045C19.0489 44.3042 20.71 42.9293 20.71 41.2273V40.8849C20.71 42.5818 19.0489 43.9618 17.0045 43.9618H5.84179C3.79734 43.9618 2.13623 42.5869 2.13623 40.8849V41.2273C2.13623 42.9242 3.79734 44.3042 5.84179 44.3042Z" fill="#676767"/>
<path d="M19.3247 43.282V43.6244C20.168 43.0622 20.7149 42.1984 20.7149 41.2273V40.8849C20.7149 41.856 20.1732 42.7198 19.3247 43.282Z" fill="#F26722"/>
<path d="M19.3252 43.2827C18.6914 43.7069 17.8839 43.9625 17.0047 43.9625H14.6025L14.439 44.3049H17.0047C17.8839 44.3049 18.6863 44.0494 19.3252 43.6252V43.2827Z" fill="#E0F2F6"/>
<path d="M3.52645 43.282V43.6244C2.68311 43.0622 2.13623 42.1984 2.13623 41.2273V40.8849C2.13623 41.856 2.678 42.7198 3.52645 43.282Z" fill="#F26722"/>
<path d="M3.52637 43.2827C4.16015 43.7069 4.9677 43.9625 5.84681 43.9625H8.24903L8.41258 44.3049H5.84681C4.9677 44.3049 4.16526 44.0494 3.52637 43.6252V43.2827Z" fill="#E0F2F6"/>
<path d="M8.43848 44.2111H14.4083L14.3776 44.2725H8.47425L8.43848 44.2111Z" fill="#333333"/>
<path d="M8.39746 44.1033H14.4541L14.4183 44.1596H8.43324L8.39746 44.1033Z" fill="#333333"/>
<path d="M8.31543 43.9915H14.5305L14.4948 44.0477H8.35632L8.31543 43.9915Z" fill="#333333"/>
<path d="M11.4233 44.2423C11.6463 44.2423 11.8271 44.192 11.8271 44.1299C11.8271 44.0678 11.6463 44.0175 11.4233 44.0175C11.2003 44.0175 11.0195 44.0678 11.0195 44.1299C11.0195 44.192 11.2003 44.2423 11.4233 44.2423Z" fill="#CCCCCC"/>
<path d="M17.5004 26.3075C15.5326 26.5477 9.87462 27.115 5.57617 26.3586C5.15195 26.2819 4.72259 26.4659 4.54881 26.7981L2.24881 31.1988C2.06992 31.5413 2.28459 31.9348 2.71392 32.0421C4.90148 32.6044 11.454 33.8975 20.1122 31.9808C20.5466 31.8837 20.7766 31.4901 20.6079 31.1426L18.4817 26.7726C18.3233 26.4455 17.9195 26.2513 17.5004 26.3024V26.3075Z" fill="#676767"/>
<path d="M17.5004 26.3075C15.5326 26.5477 9.87462 27.115 5.57617 26.3586C5.15195 26.2819 4.72259 26.4659 4.54881 26.7981L2.24881 31.1988C2.06992 31.5413 2.28459 31.9348 2.71392 32.0421C4.90148 32.6044 11.454 33.8975 20.1122 31.9808C20.5466 31.8837 20.7766 31.4901 20.6079 31.1426L18.4817 26.7726C18.3233 26.4455 17.9195 26.2513 17.5004 26.3024V26.3075Z" fill="url(#paint16_linear_3278_35655)"/>
<path d="M17.6334 26.6038C17.8583 26.6038 18.0525 26.7162 18.1394 26.89L20.2656 31.26C20.3065 31.3469 20.3014 31.444 20.2503 31.5258C20.1992 31.6075 20.1174 31.6638 20.0151 31.6893C17.0098 32.3538 13.9789 32.6911 10.994 32.6911C7.04826 32.6911 4.18092 32.1033 2.82137 31.7558C2.71915 31.7302 2.63226 31.6689 2.58626 31.5871C2.54026 31.5053 2.54026 31.4133 2.58626 31.3264L4.88626 26.9258C4.97315 26.7622 5.16737 26.6549 5.38715 26.6549C5.42293 26.6549 5.46382 26.6549 5.4996 26.6651C6.95626 26.9206 8.69404 27.0535 10.672 27.0535C13.5547 27.0535 16.2176 26.7826 17.5516 26.6191C17.5772 26.6191 17.6027 26.6191 17.6334 26.6191V26.6038Z" fill="#989898"/>
<path d="M17.6335 26.7575C17.7817 26.7575 17.9095 26.8291 17.9657 26.9466L20.0919 31.3166C20.1226 31.378 20.1021 31.4291 20.0868 31.4546C20.0715 31.4853 20.0357 31.5211 19.9693 31.5364C16.9793 32.1957 13.9637 32.5331 10.9993 32.5331C7.07903 32.5331 4.23215 31.9504 2.88282 31.6028C2.81126 31.5824 2.77549 31.5415 2.76526 31.516C2.74993 31.4904 2.7346 31.4393 2.76526 31.378L5.06526 26.9773C5.12148 26.87 5.24925 26.7984 5.39236 26.7984C5.41792 26.7984 5.44348 26.7984 5.46903 26.8035C6.93592 27.0642 8.68903 27.192 10.6824 27.192C13.5753 27.192 16.2535 26.9211 17.5875 26.7575C17.6028 26.7575 17.6233 26.7575 17.6386 26.7575H17.6335Z" fill="#686C86"/>
<path opacity="0.2" d="M19.555 30.2075C17.3981 30.6419 14.5512 30.9077 11.4283 30.9077C8.30543 30.9077 5.51476 30.647 3.36808 30.2228L2.75985 31.383C2.72918 31.4443 2.74963 31.4955 2.75985 31.521C2.77518 31.5466 2.80585 31.5875 2.87741 31.6079C4.22674 31.9555 7.07365 32.5381 10.9939 32.5381C13.9583 32.5381 16.979 32.2008 19.9639 31.5415C20.0303 31.5261 20.0661 31.4903 20.0814 31.4597C20.0968 31.4341 20.1172 31.383 20.0865 31.3217L19.5448 30.2126L19.555 30.2075Z" fill="#989898"/>
<path d="M20.051 31.2297C17.7459 31.7 14.7252 31.9913 11.4234 31.9913C8.12164 31.9913 5.13675 31.7051 2.83163 31.24L2.75497 31.3831C2.7243 31.4444 2.74474 31.4955 2.75497 31.5211C2.7703 31.5466 2.80097 31.5875 2.87252 31.608C4.22186 31.9555 7.06875 32.5382 10.989 32.5382C13.9534 32.5382 16.9741 32.2008 19.959 31.5415C20.0254 31.5262 20.0612 31.4904 20.0765 31.4597C20.0919 31.4342 20.1123 31.3831 20.0816 31.3217L20.0407 31.2348L20.051 31.2297Z" fill="#333333"/>
<path d="M17.2554 31.3067L14.8429 31.7207L14.8174 31.6236L17.2452 31.2556L17.2554 31.3067Z" fill="#989898"/>
<path d="M11.4746 32.1279L14.7713 31.627L14.6077 31.7548L11.4951 32.225L11.4746 32.1279Z" fill="#989898"/>
<path d="M17.1018 31.2496L11.3467 32.1185L11.3569 32.1696L17.25 31.2803L17.1018 31.2496Z" fill="#333333"/>
<path d="M11.495 32.1495C11.5103 32.2261 11.449 32.2977 11.357 32.313C11.265 32.3284 11.1781 32.2772 11.1576 32.2006C11.1423 32.1239 11.2036 32.0524 11.2956 32.037C11.3876 32.0217 11.4745 32.0728 11.495 32.1495Z" fill="#989898"/>
<path d="M11.4897 32.1238C11.505 32.1852 11.4539 32.2465 11.3772 32.2567C11.3005 32.2669 11.229 32.2261 11.2137 32.1647C11.1983 32.1034 11.2494 32.0421 11.3261 32.0318C11.4028 32.0216 11.4743 32.0625 11.4897 32.1238Z" fill="#333333"/>
<path d="M11.9042 31.5263L9.45602 31.741L9.4458 31.6388L11.9042 31.4752V31.5263Z" fill="#989898"/>
<path d="M6.05713 31.8679L9.39468 31.643L9.22091 31.7555L6.06735 31.965L6.05713 31.8679Z" fill="#989898"/>
<path d="M11.761 31.4593L5.9292 31.8477L5.93431 31.904L11.9041 31.5053L11.761 31.4593Z" fill="#333333"/>
<path d="M6.07198 31.8889C6.0771 31.9656 6.01065 32.032 5.91865 32.0422C5.82665 32.0473 5.74487 31.9911 5.73465 31.9145C5.72954 31.8378 5.79598 31.7713 5.88798 31.7611C5.97998 31.756 6.06176 31.8122 6.07198 31.8889Z" fill="#989898"/>
<path d="M6.07222 31.8621C6.07733 31.9234 6.02111 31.9797 5.94444 31.9848C5.86778 31.9899 5.80133 31.9439 5.79622 31.8774C5.79111 31.8161 5.84733 31.7599 5.924 31.7548C6.00067 31.7548 6.06711 31.7957 6.07222 31.8621Z" fill="#333333"/>
<path opacity="0.5" d="M17.6335 26.7575C17.7817 26.7575 17.9095 26.8291 17.9657 26.9466L20.0919 31.3166C20.1226 31.378 20.1021 31.4291 20.0868 31.4546C20.0715 31.4853 20.0357 31.5211 19.9693 31.5364C16.9793 32.1957 13.9637 32.5331 10.9993 32.5331C7.07903 32.5331 4.23215 31.9504 2.88282 31.6028C2.81126 31.5824 2.77549 31.5415 2.76526 31.516C2.74993 31.4904 2.7346 31.4393 2.76526 31.378L5.06526 26.9773C5.12148 26.87 5.24925 26.7984 5.39236 26.7984C5.41792 26.7984 5.44348 26.7984 5.46903 26.8035C6.93592 27.0642 8.68903 27.192 10.6824 27.192C13.5753 27.192 16.2535 26.9211 17.5875 26.7575C17.6028 26.7575 17.6233 26.7575 17.6386 26.7575H17.6335Z" fill="url(#paint17_radial_3278_35655)"/>
<path style="mix-blend-mode:overlay" opacity="0.3" d="M17.6335 26.7575C17.7817 26.7575 17.9095 26.8291 17.9657 26.9466L20.0919 31.3166C20.1226 31.378 20.1021 31.4291 20.0868 31.4546C20.0715 31.4853 20.0357 31.5211 19.9693 31.5364C16.9793 32.1957 13.9637 32.5331 10.9993 32.5331C7.07903 32.5331 4.23215 31.9504 2.88282 31.6028C2.81126 31.5824 2.77549 31.5415 2.76526 31.516C2.74993 31.4904 2.7346 31.4393 2.76526 31.378L5.06526 26.9773C5.12148 26.87 5.24925 26.7984 5.39236 26.7984C5.41792 26.7984 5.44348 26.7984 5.46903 26.8035C6.93592 27.0642 8.68903 27.192 10.6824 27.192C13.5753 27.192 16.2535 26.9211 17.5875 26.7575C17.6028 26.7575 17.6233 26.7575 17.6386 26.7575H17.6335Z" fill="url(#paint18_radial_3278_35655)"/>
<path d="M17.5004 15.5017C15.5326 15.2615 9.87462 14.6941 5.57617 15.4506C5.15195 15.5272 4.72259 15.3432 4.54881 15.011L2.24881 10.6104C2.06992 10.2679 2.28459 9.87435 2.71392 9.76702C4.90148 9.2048 11.454 7.91169 20.1122 9.82835C20.5466 9.92547 20.7766 10.319 20.6079 10.6666L18.4817 15.0366C18.3233 15.3637 17.9195 15.5579 17.5004 15.5068V15.5017Z" fill="#676767"/>
<path d="M17.5004 15.5017C15.5326 15.2615 9.87462 14.6941 5.57617 15.4506C5.15195 15.5272 4.72259 15.3432 4.54881 15.011L2.24881 10.6104C2.06992 10.2679 2.28459 9.87435 2.71392 9.76702C4.90148 9.2048 11.454 7.91169 20.1122 9.82835C20.5466 9.92547 20.7766 10.319 20.6079 10.6666L18.4817 15.0366C18.3233 15.3637 17.9195 15.5579 17.5004 15.5068V15.5017Z" fill="url(#paint19_linear_3278_35655)"/>
<path d="M17.6334 15.2044C17.8583 15.2044 18.0525 15.0919 18.1394 14.9181L20.2656 10.5481C20.3065 10.4612 20.3014 10.3641 20.2503 10.2824C20.1992 10.2006 20.1174 10.1444 20.0151 10.1239C17.0098 9.45946 13.9789 9.12213 10.994 9.12213C7.04826 9.12213 4.18092 9.70991 2.82137 10.0575C2.71915 10.083 2.63226 10.1444 2.58626 10.2261C2.54026 10.3079 2.54026 10.3999 2.58626 10.4868L4.88626 14.8875C4.97315 15.051 5.16737 15.1584 5.38715 15.1584C5.42293 15.1584 5.46382 15.1584 5.4996 15.1481C6.95626 14.8926 8.69404 14.7597 10.672 14.7597C13.5547 14.7597 16.2176 15.0306 17.5516 15.1941C17.5772 15.1941 17.6027 15.1941 17.6334 15.1941V15.2044Z" fill="#989898"/>
<path d="M17.6335 15.0514C17.7817 15.0514 17.9095 14.9799 17.9657 14.8623L20.0919 10.4923C20.1226 10.431 20.1021 10.3799 20.0868 10.3543C20.0715 10.3237 20.0357 10.2879 19.9693 10.2725C16.9793 9.61321 13.9637 9.27588 10.9993 9.27588C7.07903 9.27588 4.23215 9.85855 2.88282 10.2061C2.81126 10.2265 2.77549 10.2674 2.76526 10.293C2.74993 10.3185 2.7346 10.3697 2.76526 10.431L5.06526 14.8317C5.12148 14.939 5.24925 15.0105 5.39236 15.0105C5.41792 15.0105 5.44348 15.0105 5.46903 15.0054C6.93592 14.7448 8.68903 14.617 10.6824 14.617C13.5753 14.617 16.2535 14.8879 17.5875 15.0514C17.6028 15.0514 17.6233 15.0514 17.6386 15.0514H17.6335Z" fill="#686C86"/>
<path opacity="0.4" d="M20.0919 10.4923C20.1226 10.431 20.1021 10.3799 20.0868 10.3543C20.0715 10.3237 20.0357 10.2879 19.9693 10.2725C16.9793 9.61321 13.9637 9.27588 10.9993 9.27588C7.07903 9.27588 4.23215 9.85855 2.88282 10.2061C2.81126 10.2265 2.77549 10.2674 2.76526 10.293C2.74993 10.3185 2.7346 10.3697 2.76526 10.431L3.4246 11.6934H19.5195L20.1021 10.4974L20.0919 10.4923Z" fill="#989898"/>
<path d="M20.051 10.5803C17.7459 10.1101 14.7252 9.81874 11.4234 9.81874C8.12164 9.81874 5.13675 10.105 2.83163 10.5701L2.75497 10.427C2.7243 10.3656 2.74474 10.3145 2.75497 10.289C2.7703 10.2634 2.80097 10.2225 2.87252 10.2021C4.22186 9.85452 7.06875 9.27185 10.989 9.27185C13.9534 9.27185 16.9741 9.60918 19.959 10.2685C20.0254 10.2838 20.0612 10.3196 20.0765 10.3503C20.0919 10.3759 20.1123 10.427 20.0816 10.4883L20.0407 10.5752L20.051 10.5803Z" fill="#989898"/>
<path opacity="0.5" d="M17.6335 15.0514C17.7817 15.0514 17.9095 14.9799 17.9657 14.8623L20.0919 10.4923C20.1226 10.431 20.1021 10.3799 20.0868 10.3543C20.0715 10.3237 20.0357 10.2879 19.9693 10.2725C16.9793 9.61321 13.9637 9.27588 10.9993 9.27588C7.07903 9.27588 4.23215 9.85855 2.88282 10.2061C2.81126 10.2265 2.77549 10.2674 2.76526 10.293C2.74993 10.3185 2.7346 10.3697 2.76526 10.431L5.06526 14.8317C5.12148 14.939 5.24925 15.0105 5.39236 15.0105C5.41792 15.0105 5.44348 15.0105 5.46903 15.0054C6.93592 14.7448 8.68903 14.617 10.6824 14.617C13.5753 14.617 16.2535 14.8879 17.5875 15.0514C17.6028 15.0514 17.6233 15.0514 17.6386 15.0514H17.6335Z" fill="url(#paint20_radial_3278_35655)"/>
<path style="mix-blend-mode:overlay" opacity="0.3" d="M17.6335 15.0514C17.7817 15.0514 17.9095 14.9799 17.9657 14.8623L20.0919 10.4923C20.1226 10.431 20.1021 10.3799 20.0868 10.3543C20.0715 10.3237 20.0357 10.2879 19.9693 10.2725C16.9793 9.61321 13.9637 9.27588 10.9993 9.27588C7.07903 9.27588 4.23215 9.85855 2.88282 10.2061C2.81126 10.2265 2.77549 10.2674 2.76526 10.293C2.74993 10.3185 2.7346 10.3697 2.76526 10.431L5.06526 14.8317C5.12148 14.939 5.24925 15.0105 5.39236 15.0105C5.41792 15.0105 5.44348 15.0105 5.46903 15.0054C6.93592 14.7448 8.68903 14.617 10.6824 14.617C13.5753 14.617 16.2535 14.8879 17.5875 15.0514C17.6028 15.0514 17.6233 15.0514 17.6386 15.0514H17.6335Z" fill="url(#paint21_radial_3278_35655)"/>
<path d="M2.4224 22.2653C2.4224 22.2653 2.4684 22.2653 2.48885 22.2653L4.88596 22.5566C5.10574 22.5821 5.27438 22.7457 5.27438 22.9297V25.2655C5.27438 25.3166 5.26416 25.3677 5.2386 25.4137L2.45818 30.8673C2.41729 30.949 2.32529 31.0001 2.22307 31.0001C2.07996 31.0001 1.9624 30.9081 1.9624 30.7855V22.6435C1.9624 22.5413 2.0084 22.4493 2.09529 22.3777C2.18218 22.3061 2.29462 22.2704 2.41729 22.2704L2.4224 22.2653Z" fill="#676767"/>
<path d="M2.4224 22.2653C2.4224 22.2653 2.4684 22.2653 2.48885 22.2653L4.88596 22.5566C5.10574 22.5821 5.27438 22.7457 5.27438 22.9297V25.2655C5.27438 25.3166 5.26416 25.3677 5.2386 25.4137L2.45818 30.8673C2.41729 30.949 2.32529 31.0001 2.22307 31.0001C2.07996 31.0001 1.9624 30.9081 1.9624 30.7855V22.6435C1.9624 22.5413 2.0084 22.4493 2.09529 22.3777C2.18218 22.3061 2.29462 22.2704 2.41729 22.2704L2.4224 22.2653Z" fill="url(#paint22_linear_3278_35655)"/>
<path d="M2.3049 30.8112L5.08534 25.3576C5.10068 25.327 5.10579 25.2963 5.10579 25.2656V22.9299C5.10579 22.8123 5.00356 22.7152 4.86045 22.6947L2.46334 22.4034C2.28956 22.383 2.13623 22.4954 2.13623 22.6385V30.7805C2.13623 30.8572 2.26401 30.8827 2.3049 30.8061V30.8112Z" fill="#989898"/>
<path d="M2.43806 22.5468L4.83518 22.8381C4.8914 22.8433 4.93229 22.8841 4.93229 22.9301V25.2659C4.93229 25.2659 4.93229 25.2915 4.92207 25.3017L2.30518 30.4384V22.6388C2.30518 22.6388 2.3154 22.5877 2.34095 22.5724C2.3614 22.557 2.39206 22.5468 2.42273 22.5468H2.43806Z" fill="#686C86"/>
<path opacity="0.2" d="M3.14828 22.6337L2.44295 22.5468H2.42761C2.39695 22.5468 2.37139 22.557 2.34584 22.5724C2.32539 22.5928 2.31006 22.6133 2.31006 22.6388V30.4384L3.14828 28.7926V22.6286V22.6337Z" fill="#989898"/>
<path opacity="0.5" d="M2.43806 22.5468L4.83518 22.8381C4.8914 22.8433 4.93229 22.8841 4.93229 22.9301V25.2659C4.93229 25.2659 4.93229 25.2915 4.92207 25.3017L2.30518 30.4384V22.6388C2.30518 22.6388 2.3154 22.5877 2.34095 22.5724C2.3614 22.557 2.39206 22.5468 2.42273 22.5468H2.43806Z" fill="url(#paint23_linear_3278_35655)"/>
<path style="mix-blend-mode:overlay" opacity="0.3" d="M2.43806 22.5468L4.83518 22.8381C4.8914 22.8433 4.93229 22.8841 4.93229 22.9301V25.2659C4.93229 25.2659 4.93229 25.2915 4.92207 25.3017L2.30518 30.4384V22.6388C2.30518 22.6388 2.3154 22.5877 2.34095 22.5724C2.3614 22.557 2.39206 22.5468 2.42273 22.5468H2.43806Z" fill="url(#paint24_linear_3278_35655)"/>
<path d="M2.32529 16.9125C2.35596 16.9125 2.38662 16.9125 2.41729 16.9228L5.00862 17.4952C5.16705 17.531 5.27438 17.6485 5.27438 17.7814V22.1923C5.27438 22.3559 5.11085 22.4888 4.91662 22.4888H4.8604L2.26907 22.1514C2.09018 22.131 1.9624 22.0032 1.9624 21.855V17.209C1.9624 17.0454 2.12596 16.9125 2.32018 16.9125H2.32529Z" fill="#676767"/>
<path d="M2.32529 16.9125C2.35596 16.9125 2.38662 16.9125 2.41729 16.9228L5.00862 17.4952C5.16705 17.531 5.27438 17.6485 5.27438 17.7814V22.1923C5.27438 22.3559 5.11085 22.4888 4.91662 22.4888H4.8604L2.26907 22.1514C2.09018 22.131 1.9624 22.0032 1.9624 21.855V17.209C1.9624 17.0454 2.12596 16.9125 2.32018 16.9125H2.32529Z" fill="url(#paint25_linear_3278_35655)"/>
<path d="M4.88601 22.3501L2.29467 22.0179C2.20267 22.0077 2.13623 21.9413 2.13623 21.8646V17.2186C2.13623 17.1164 2.25378 17.0397 2.37645 17.0653L4.96779 17.6377C5.04956 17.6581 5.1109 17.7195 5.1109 17.791V22.2019C5.1109 22.299 5.00868 22.3706 4.89112 22.3553L4.88601 22.3501Z" fill="#989898"/>
<path d="M4.92184 17.7654L4.93717 22.1916L2.32539 21.8747L2.31006 17.2134L2.32539 17.1981L4.92184 17.7654Z" fill="#686C86"/>
<path opacity="0.2" d="M3.14828 21.9769V17.3769C2.69339 17.2747 2.3305 17.1981 2.3305 17.1981L2.31006 17.2134L2.32539 21.8747L3.14828 21.9769Z" fill="#989898"/>
<path opacity="0.5" d="M4.92184 17.7654L4.93717 22.1916L2.32539 21.8747L2.31006 17.2134L2.32539 17.1981L4.92184 17.7654Z" fill="url(#paint26_linear_3278_35655)"/>
<path style="mix-blend-mode:overlay" opacity="0.3" d="M4.92184 17.7654L4.93717 22.1916L2.32539 21.8747L2.31006 17.2134L2.32539 17.1981L4.92184 17.7654Z" fill="url(#paint27_linear_3278_35655)"/>
<path d="M2.28977 11.5978C2.41755 11.5978 2.53 11.6592 2.58111 11.7563L5.24399 16.6016C5.26443 16.6374 5.27466 16.6732 5.27466 16.7141V17.1536C5.27466 17.3018 5.13155 17.4194 4.95266 17.4194C4.922 17.4194 4.89133 17.4194 4.86066 17.4092L2.19777 16.7447C2.05977 16.7089 1.96777 16.6067 1.96777 16.4892V11.8738C1.96777 11.7256 2.11088 11.6081 2.28977 11.6081V11.5978Z" fill="#676767"/>
<path d="M2.28977 11.5978C2.41755 11.5978 2.53 11.6592 2.58111 11.7563L5.24399 16.6016C5.26443 16.6374 5.27466 16.6732 5.27466 16.7141V17.1536C5.27466 17.3018 5.13155 17.4194 4.95266 17.4194C4.922 17.4194 4.89133 17.4194 4.86066 17.4092L2.19777 16.7447C2.05977 16.7089 1.96777 16.6067 1.96777 16.4892V11.8738C1.96777 11.7256 2.11088 11.6081 2.28977 11.6081V11.5978Z" fill="url(#paint28_linear_3278_35655)"/>
<path d="M4.91134 17.2704L2.24845 16.606C2.182 16.5906 2.14111 16.5395 2.14111 16.4833V11.868C2.14111 11.7351 2.36089 11.6942 2.43245 11.8169L5.09534 16.6622C5.09534 16.6622 5.11067 16.698 5.11067 16.7133V17.1529C5.11067 17.2346 5.01356 17.296 4.91645 17.2755L4.91134 17.2704Z" fill="#989898"/>
<path d="M4.93688 16.7201V17.1546L2.29443 16.4697L2.30977 11.9412L4.93688 16.7201Z" fill="#686C86"/>
<path opacity="0.2" d="M3.14799 13.4643L2.30977 11.9412L2.29443 16.4697L3.14799 16.6894V13.4643Z" fill="#989898"/>
<path opacity="0.5" d="M4.93688 16.7201V17.1546L2.29443 16.4697L2.30977 11.9412L4.93688 16.7201Z" fill="url(#paint29_linear_3278_35655)"/>
<path style="mix-blend-mode:overlay" opacity="0.3" d="M4.93688 16.7201V17.1546L2.29443 16.4697L2.30977 11.9412L4.93688 16.7201Z" fill="url(#paint30_linear_3278_35655)"/>
<path d="M20.4697 22.2653C20.4697 22.2653 20.4237 22.2653 20.4032 22.2653L18.0061 22.5566C17.7863 22.5821 17.6177 22.7457 17.6177 22.9297V25.2655C17.6177 25.3166 17.6279 25.3677 17.6535 25.4137L20.4339 30.8673C20.4748 30.949 20.5668 31.0001 20.669 31.0001C20.8121 31.0001 20.9297 30.9081 20.9297 30.7855V22.6435C20.9297 22.5413 20.8837 22.4493 20.7968 22.3777C20.7099 22.3061 20.5975 22.2704 20.4748 22.2704L20.4697 22.2653Z" fill="#676767"/>
<path d="M20.4697 22.2653C20.4697 22.2653 20.4237 22.2653 20.4032 22.2653L18.0061 22.5566C17.7863 22.5821 17.6177 22.7457 17.6177 22.9297V25.2655C17.6177 25.3166 17.6279 25.3677 17.6535 25.4137L20.4339 30.8673C20.4748 30.949 20.5668 31.0001 20.669 31.0001C20.8121 31.0001 20.9297 30.9081 20.9297 30.7855V22.6435C20.9297 22.5413 20.8837 22.4493 20.7968 22.3777C20.7099 22.3061 20.5975 22.2704 20.4748 22.2704L20.4697 22.2653Z" fill="url(#paint31_linear_3278_35655)"/>
<path d="M20.5875 30.8112L17.8071 25.3576C17.7917 25.327 17.7866 25.2963 17.7866 25.2656V22.9299C17.7866 22.8123 17.8888 22.7152 18.032 22.6947L20.4291 22.4034C20.6028 22.383 20.7562 22.4954 20.7562 22.6385V30.7805C20.7562 30.8572 20.6284 30.8827 20.5875 30.8061V30.8112Z" fill="#989898"/>
<path d="M20.4547 22.5468L18.0576 22.8381C18.0013 22.8433 17.9604 22.8841 17.9604 22.9301V25.2659C17.9604 25.2659 17.9604 25.2915 17.9707 25.3017L20.5876 30.4384V22.6388C20.5876 22.6388 20.5773 22.5877 20.5518 22.5724C20.5313 22.557 20.5007 22.5468 20.47 22.5468H20.4547Z" fill="#686C86"/>
<path opacity="0.2" d="M19.7441 22.6337L20.4495 22.5468H20.4648C20.4955 22.5468 20.521 22.557 20.5466 22.5724C20.567 22.5928 20.5824 22.6133 20.5824 22.6388V30.4384L19.7441 28.7926V22.6286V22.6337Z" fill="#989898"/>
<path opacity="0.5" d="M20.4547 22.5468L18.0576 22.8381C18.0013 22.8433 17.9604 22.8841 17.9604 22.9301V25.2659C17.9604 25.2659 17.9604 25.2915 17.9707 25.3017L20.5876 30.4384V22.6388C20.5876 22.6388 20.5773 22.5877 20.5518 22.5724C20.5313 22.557 20.5007 22.5468 20.47 22.5468H20.4547Z" fill="url(#paint32_linear_3278_35655)"/>
<path style="mix-blend-mode:overlay" opacity="0.3" d="M20.4547 22.5468L18.0576 22.8381C18.0013 22.8433 17.9604 22.8841 17.9604 22.9301V25.2659C17.9604 25.2659 17.9604 25.2915 17.9707 25.3017L20.5876 30.4384V22.6388C20.5876 22.6388 20.5773 22.5877 20.5518 22.5724C20.5313 22.557 20.5007 22.5468 20.47 22.5468H20.4547Z" fill="url(#paint33_linear_3278_35655)"/>
<path d="M20.5668 16.9125C20.5361 16.9125 20.5055 16.9125 20.4748 16.9228L17.8835 17.4952C17.725 17.531 17.6177 17.6485 17.6177 17.7814V22.1923C17.6177 22.3559 17.7812 22.4888 17.9755 22.4888H18.0317L20.623 22.1514C20.8019 22.131 20.9297 22.0032 20.9297 21.855V17.209C20.9297 17.0454 20.7661 16.9125 20.5719 16.9125H20.5668Z" fill="#676767"/>
<path d="M20.5668 16.9125C20.5361 16.9125 20.5055 16.9125 20.4748 16.9228L17.8835 17.4952C17.725 17.531 17.6177 17.6485 17.6177 17.7814V22.1923C17.6177 22.3559 17.7812 22.4888 17.9755 22.4888H18.0317L20.623 22.1514C20.8019 22.131 20.9297 22.0032 20.9297 21.855V17.209C20.9297 17.0454 20.7661 16.9125 20.5719 16.9125H20.5668Z" fill="url(#paint34_linear_3278_35655)"/>
<path d="M18.0066 22.3501L20.598 22.0179C20.69 22.0077 20.7564 21.9413 20.7564 21.8646V17.2186C20.7564 17.1164 20.6388 17.0397 20.5162 17.0653L17.9248 17.6377C17.8431 17.6581 17.7817 17.7195 17.7817 17.791V22.2019C17.7817 22.299 17.884 22.3706 18.0015 22.3553L18.0066 22.3501Z" fill="#989898"/>
<path d="M17.9704 17.7654L17.9551 22.1916L20.5669 21.8747L20.5822 17.2134L20.5669 17.1981L17.9704 17.7654Z" fill="#686C86"/>
<path opacity="0.2" d="M19.7441 21.9769V17.3769C20.199 17.2747 20.5619 17.1981 20.5619 17.1981L20.5824 17.2134L20.567 21.8747L19.7441 21.9769Z" fill="#989898"/>
<path opacity="0.5" d="M17.9704 17.7654L17.9551 22.1916L20.5669 21.8747L20.5822 17.2134L20.5669 17.1981L17.9704 17.7654Z" fill="url(#paint35_linear_3278_35655)"/>
<path style="mix-blend-mode:overlay" opacity="0.3" d="M17.9704 17.7654L17.9551 22.1916L20.5669 21.8747L20.5822 17.2134L20.5669 17.1981L17.9704 17.7654Z" fill="url(#paint36_linear_3278_35655)"/>
<path d="M20.5977 11.5978C20.4699 11.5978 20.3575 11.6592 20.3063 11.7563L17.6435 16.6016C17.623 16.6374 17.6128 16.6732 17.6128 16.7141V17.1536C17.6128 17.3018 17.7559 17.4194 17.9348 17.4194C17.9655 17.4194 17.9961 17.4194 18.0268 17.4092L20.6897 16.7447C20.8277 16.7089 20.9197 16.6067 20.9197 16.4892V11.8738C20.9197 11.7256 20.7766 11.6081 20.5977 11.6081V11.5978Z" fill="#676767"/>
<path d="M20.5977 11.5978C20.4699 11.5978 20.3575 11.6592 20.3063 11.7563L17.6435 16.6016C17.623 16.6374 17.6128 16.6732 17.6128 16.7141V17.1536C17.6128 17.3018 17.7559 17.4194 17.9348 17.4194C17.9655 17.4194 17.9961 17.4194 18.0268 17.4092L20.6897 16.7447C20.8277 16.7089 20.9197 16.6067 20.9197 16.4892V11.8738C20.9197 11.7256 20.7766 11.6081 20.5977 11.6081V11.5978Z" fill="url(#paint37_linear_3278_35655)"/>
<path d="M17.9811 17.2704L20.644 16.606C20.7104 16.5906 20.7513 16.5395 20.7513 16.4833V11.868C20.7513 11.7351 20.5315 11.6942 20.46 11.8169L17.7971 16.6622C17.7971 16.6622 17.7817 16.698 17.7817 16.7133V17.1529C17.7817 17.2346 17.8788 17.296 17.976 17.2755L17.9811 17.2704Z" fill="#989898"/>
<path d="M17.9551 16.7201V17.1546L20.5975 16.4697L20.5822 11.9412L17.9551 16.7201Z" fill="#686C86"/>
<path opacity="0.2" d="M19.7441 13.4643L20.5824 11.9412L20.5977 16.4697L19.7441 16.6894V13.4643Z" fill="#989898"/>
<path opacity="0.5" d="M17.9551 16.7201V17.1546L20.5975 16.4697L20.5822 11.9412L17.9551 16.7201Z" fill="url(#paint38_linear_3278_35655)"/>
<path style="mix-blend-mode:overlay" opacity="0.3" d="M17.9551 16.7201V17.1546L20.5975 16.4697L20.5822 11.9412L17.9551 16.7201Z" fill="url(#paint39_linear_3278_35655)"/>
<path d="M3.85913 32.5893C3.94602 32.5893 4.01758 32.6506 4.01758 32.7222V33.3509C4.01758 33.4224 3.94602 33.4837 3.85913 33.4837C3.77224 33.4837 3.70068 33.4224 3.70068 33.3509V32.7222C3.70068 32.6506 3.77224 32.5893 3.85913 32.5893Z" fill="#676767"/>
<path d="M3.88985 33.4479C3.94607 33.4275 3.98185 33.3866 3.98185 33.3355V32.7477C3.98185 32.6966 3.94607 32.6506 3.88985 32.6353C3.83363 32.6557 3.79785 32.6966 3.79785 32.7477V33.3355C3.79785 33.3866 3.83363 33.4326 3.88985 33.4479Z" fill="url(#paint40_linear_3278_35655)"/>
<path d="M4.47729 32.7072C4.56418 32.7072 4.63573 32.7685 4.63573 32.84V33.4687C4.63573 33.5403 4.56418 33.6016 4.47729 33.6016C4.3904 33.6016 4.31885 33.5403 4.31885 33.4687V32.84C4.31885 32.7685 4.3904 32.7072 4.47729 32.7072Z" fill="#676767"/>
<path d="M4.50851 33.5597C4.56473 33.5393 4.60051 33.4984 4.60051 33.4473V32.8595C4.60051 32.8084 4.56473 32.7624 4.50851 32.7471C4.45229 32.7675 4.4165 32.8084 4.4165 32.8595V33.4473C4.4165 33.4984 4.45229 33.5444 4.50851 33.5597Z" fill="url(#paint41_linear_3278_35655)"/>
<path d="M5.09594 32.8448C5.18285 32.8448 5.25441 32.9062 5.25441 32.9777V33.6064C5.25441 33.678 5.18285 33.7393 5.09594 33.7393C5.00906 33.7393 4.9375 33.678 4.9375 33.6064V32.9777C4.9375 32.9062 5.00906 32.8448 5.09594 32.8448Z" fill="#676767"/>
<path d="M5.12667 33.6974C5.1829 33.677 5.21867 33.6361 5.21867 33.585V32.9972C5.21867 32.9461 5.1829 32.9001 5.12667 32.8848C5.07045 32.9052 5.03467 32.9461 5.03467 32.9972V33.585C5.03467 33.6361 5.07045 33.6821 5.12667 33.6974Z" fill="url(#paint42_linear_3278_35655)"/>
<path d="M17.5666 33.7393C17.6535 33.7393 17.7251 33.678 17.7251 33.6064V32.9777C17.7251 32.9062 17.6535 32.8448 17.5666 32.8448C17.4798 32.8448 17.4082 32.9062 17.4082 32.9777V33.6064C17.4082 33.678 17.4798 33.7393 17.5666 33.7393Z" fill="#676767"/>
<path d="M17.592 32.8848C17.6482 32.9052 17.684 32.9461 17.684 32.9972V33.585C17.684 33.6361 17.6482 33.6821 17.592 33.6974C17.5358 33.677 17.5 33.6361 17.5 33.585V32.9972C17.5 32.9461 17.5358 32.9001 17.592 32.8848Z" fill="url(#paint43_linear_3278_35655)"/>
<path d="M18.1853 33.6215C18.2722 33.6215 18.3437 33.5602 18.3437 33.4886V32.86C18.3437 32.7884 18.2722 32.7271 18.1853 32.7271C18.0984 32.7271 18.0269 32.7884 18.0269 32.86V33.4886C18.0269 33.5602 18.0984 33.6215 18.1853 33.6215Z" fill="#676767"/>
<path d="M18.2107 32.767C18.2669 32.7875 18.3027 32.8284 18.3027 32.8795V33.4673C18.3027 33.5184 18.2669 33.5644 18.2107 33.5797C18.1544 33.5593 18.1187 33.5184 18.1187 33.4673V32.8795C18.1187 32.8284 18.1544 32.7824 18.2107 32.767Z" fill="url(#paint44_linear_3278_35655)"/>
<path d="M18.7986 33.4837C18.8855 33.4837 18.957 33.4224 18.957 33.3509V32.7222C18.957 32.6506 18.8855 32.5893 18.7986 32.5893C18.7117 32.5893 18.6401 32.6506 18.6401 32.7222V33.3509C18.6401 33.4224 18.7117 33.4837 18.7986 33.4837Z" fill="#676767"/>
<path d="M18.8293 32.6292C18.8855 32.6497 18.9213 32.6905 18.9213 32.7417V33.3294C18.9213 33.3805 18.8855 33.4265 18.8293 33.4419C18.7731 33.4214 18.7373 33.3805 18.7373 33.3294V32.7417C18.7373 32.6905 18.7731 32.6445 18.8293 32.6292Z" fill="url(#paint45_linear_3278_35655)"/>
<path d="M19.6729 2.00452V2.33162C20.2913 2.6434 20.7104 3.20562 20.7104 3.85473V3.52762C20.7104 2.88362 20.2964 2.31629 19.6729 2.00452Z" fill="#F26722"/>
<path d="M20.7104 3.85011V3.76322C20.7104 3.11922 20.2964 2.55189 19.6729 2.24011V2.327C20.2913 2.63878 20.7104 3.201 20.7104 3.85011Z" fill="url(#paint46_radial_3278_35655)"/>
<path d="M19.6725 2.00452C19.3505 1.84096 18.9723 1.74896 18.5634 1.74896H17.209L17.1221 2.07607H18.5634C18.9672 2.07607 19.3454 2.17318 19.6725 2.33162V2.00452Z" fill="#CB2026"/>
<path d="M17.1479 1.99854L17.1274 2.0752H18.5688C18.9726 2.0752 19.3508 2.17231 19.6779 2.33075V2.25409C19.3559 2.09054 18.9777 1.99854 18.5688 1.99854H17.1479Z" fill="url(#paint47_radial_3278_35655)"/>
<path opacity="0.3" d="M19.4322 2.14711C19.4833 2.17266 19.5446 2.20333 19.5957 2.17778C19.6417 2.15733 19.6468 2.096 19.6213 2.06022C19.5957 2.02444 19.5446 1.99889 19.4935 1.98355C19.1664 1.86089 18.8086 1.82511 18.4508 1.80978C18.2464 1.80466 18.042 1.80978 17.8426 1.80978C17.7251 1.80978 17.4542 1.76378 17.3673 1.86089C17.3366 1.89666 17.3366 1.97844 17.3213 2.01933C17.6586 2.01933 18.0011 2.01422 18.3384 2.01933C18.6297 2.01933 18.9262 2.02955 19.2124 2.08578C19.2891 2.10111 19.3657 2.12155 19.4322 2.15222V2.14711Z" fill="#640E0E"/>
<path opacity="0.5" d="M20.6336 3.20076C20.5314 3.01676 20.4292 2.83276 20.286 2.6692C20.1429 2.50565 19.9589 2.36254 19.734 2.28587C19.7187 2.22965 19.734 2.17343 19.7647 2.12231C20.2145 2.36254 20.5365 2.76121 20.6285 3.19565L20.6336 3.20076Z" fill="#EF3D23"/>
<path d="M3.00533 2.00452V2.33162C2.38688 2.6434 1.96777 3.20562 1.96777 3.85473V3.52762C1.96777 2.88362 2.38177 2.31629 3.00533 2.00452Z" fill="#F26722"/>
<path d="M1.96777 3.85011V3.76322C1.96777 3.11922 2.38177 2.55189 3.00533 2.24011V2.327C2.38688 2.63878 1.96777 3.201 1.96777 3.85011Z" fill="url(#paint48_radial_3278_35655)"/>
<path d="M3.00537 2.00452C3.32737 1.84096 3.70559 1.74896 4.11448 1.74896H5.46894L5.55583 2.07607H4.11448C3.7107 2.07607 3.33248 2.17318 3.00537 2.33162V2.00452Z" fill="#CB2026"/>
<path d="M5.52998 1.99854L5.55042 2.0752H4.10911C3.70533 2.0752 3.32711 2.17231 3 2.33075V2.25409C3.322 2.09054 3.70022 1.99854 4.10911 1.99854H5.52998Z" fill="url(#paint49_radial_3278_35655)"/>
<path opacity="0.3" d="M3.24494 2.14711C3.19383 2.17266 3.13249 2.20333 3.08138 2.17778C3.03538 2.15733 3.03027 2.096 3.05583 2.06022C3.08649 2.02444 3.13249 1.99889 3.18361 1.98355C3.51072 1.86089 3.8685 1.82511 4.22628 1.80978C4.43072 1.80466 4.63516 1.80978 4.83449 1.80978C4.95205 1.80978 5.22296 1.76378 5.30985 1.86089C5.34052 1.89666 5.34052 1.97844 5.35585 2.01933C5.0185 2.01933 4.67605 2.01422 4.33872 2.01933C4.04738 2.01933 3.75094 2.02955 3.46472 2.08578C3.38805 2.10111 3.31138 2.12155 3.24494 2.15222V2.14711Z" fill="#640E0E"/>
<path opacity="0.5" d="M2.04443 3.20076C2.14666 3.01676 2.24888 2.83276 2.39199 2.6692C2.5351 2.50565 2.7191 2.36254 2.94399 2.28587C2.95932 2.22965 2.94399 2.17343 2.91332 2.12231C2.46354 2.36254 2.14154 2.76121 2.04954 3.19565L2.04443 3.20076Z" fill="#EF3D23"/>
<path d="M10.5391 1.90084C10.5391 1.84973 10.6924 1.80884 10.8815 1.80884H12.5171C12.7062 1.80884 12.8595 1.84973 12.8595 1.90084C12.8595 1.95195 12.7062 1.99284 12.5171 1.99284H10.8815C10.6924 1.99284 10.5391 1.95195 10.5391 1.90084Z" fill="#676767"/>
<path d="M12.7576 1.88589C12.7116 1.85523 12.594 1.83478 12.4612 1.83478H10.938C10.8052 1.83478 10.6927 1.85523 10.6416 1.88589C10.6876 1.91656 10.8052 1.937 10.938 1.937H12.4612C12.594 1.937 12.7065 1.91656 12.7576 1.88589Z" fill="url(#paint50_linear_3278_35655)"/>
<path style="mix-blend-mode:overlay" opacity="0.5" d="M10.636 27.0389H10.7944C10.7944 27.0389 10.3753 21.4678 10.7944 15.0738C10.7944 15.0738 10.7382 15.0738 10.636 15.0738C10.222 21.3809 10.6258 26.8856 10.636 27.0338V27.0389Z" fill="url(#paint51_linear_3278_35655)"/>
<path style="mix-blend-mode:overlay" opacity="0.5" d="M5.23363 26.8034C6.8794 27.1407 8.98518 27.2123 10.4725 27.2072C9.00563 27.2072 7.0174 27.1305 5.43296 26.8136L5.22852 26.8034H5.23363Z" fill="url(#paint52_linear_3278_35655)"/>
<path style="mix-blend-mode:overlay" opacity="0.5" d="M3.19419 2.24973C3.42419 2.13217 4.52308 1.64151 7.17574 1.63128C4.03752 1.62106 2.98975 2.27528 2.98975 2.27528C3.05108 2.26506 3.11752 2.25995 3.19419 2.24973Z" fill="url(#paint53_linear_3278_35655)"/>
<path style="mix-blend-mode:overlay" opacity="0.5" d="M8.16211 43.9915L8.25411 44.3032H8.40744L8.31544 43.9915H8.16211Z" fill="url(#paint54_linear_3278_35655)"/>
<path style="mix-blend-mode:overlay" opacity="0.5" d="M9.53684 1.73381C9.59306 1.73381 9.64928 1.74403 9.7055 1.74914C9.7055 1.74914 9.25573 1.36581 9.7055 1.01825H9.54706C9.14839 1.33003 9.46017 1.66736 9.53173 1.73892L9.53684 1.73381Z" fill="url(#paint55_linear_3278_35655)"/>
<path style="mix-blend-mode:overlay" opacity="0.5" d="M11.423 44.3049H11.2645C10.7023 44.6474 11.2645 45.0205 11.2645 45.0205H11.423C11.423 45.0205 10.8607 44.6474 11.423 44.3049Z" fill="url(#paint56_linear_3278_35655)"/>
<path d="M20.582 30.1189L22.8871 29.3829V29.7407C22.8871 29.9094 22.7645 30.0576 22.5754 30.1189L20.582 30.7578V30.124V30.1189Z" fill="#989898"/>
<path opacity="0.4" d="M20.582 30.073L22.8871 29.337V29.6948C22.8871 29.8634 22.7645 30.0116 22.5754 30.073L20.582 30.7119V30.0781V30.073Z" fill="url(#paint57_linear_3278_35655)"/>
<path d="M21.2414 29.619L22.698 29.2254C22.79 29.1998 22.8872 29.2561 22.8872 29.3378V29.7774L21.1392 30.2476V29.7314C21.1392 29.6803 21.18 29.6343 21.2414 29.619Z" fill="#333333"/>
<path d="M21.2414 29.619L22.698 29.2254C22.79 29.1998 22.8872 29.2561 22.8872 29.3378V29.7774L21.1392 30.2476V29.7314C21.1392 29.6803 21.18 29.6343 21.2414 29.619Z" fill="url(#paint58_linear_3278_35655)"/>
<path d="M2.31 30.1189L0.00488281 29.3829V29.7407C0.00488281 29.9094 0.12755 30.0576 0.316661 30.1189L2.31 30.7578V30.124V30.1189Z" fill="#989898"/>
<path opacity="0.4" d="M2.31 30.073L0.00488281 29.337V29.6948C0.00488281 29.8634 0.12755 30.0116 0.316661 30.073L2.31 30.7119V30.0781V30.073Z" fill="url(#paint59_linear_3278_35655)"/>
<path d="M1.64578 29.619L0.189111 29.2254C0.0971106 29.1998 0 29.2561 0 29.3378V29.7774L1.748 30.2476V29.7314C1.748 29.6803 1.70711 29.6343 1.64578 29.619Z" fill="#333333"/>
<path d="M1.64578 29.619L0.189111 29.2254C0.0971106 29.1998 0 29.2561 0 29.3378V29.7774L1.748 30.2476V29.7314C1.748 29.6803 1.70711 29.6343 1.64578 29.619Z" fill="url(#paint60_linear_3278_35655)"/>
<path opacity="0.7" d="M7.06803 23.6349H16.3345L15.992 24.5804H6.72559L7.06803 23.6349Z" fill="url(#paint61_linear_3278_35655)"/>
<path d="M6.89981 23.8645H15.9874C16.2634 23.8645 16.4883 24.0485 16.4883 24.2785V24.7181C16.4883 24.9481 16.2634 25.1321 15.9874 25.1321H6.89981C6.62381 25.1321 6.39893 24.9481 6.39893 24.7181V24.2785C6.39893 24.0485 6.62381 23.8645 6.89981 23.8645Z" fill="#989898"/>
<path d="M6.89981 25.1321H10.3243V23.8645H6.89981C6.62381 23.8645 6.39893 24.0485 6.39893 24.2785V24.7181C6.39893 24.9481 6.62381 25.1321 6.89981 25.1321Z" fill="#5690CC"/>
<path opacity="0.5" d="M9.96179 24.166V24.8304H6.90535C6.82868 24.8304 6.77246 24.7793 6.77246 24.718V24.2785C6.77246 24.2171 6.83379 24.166 6.90535 24.166H9.96179Z" fill="#166AB4"/>
<path d="M15.9869 25.1321H12.5625V23.8645H15.9869C16.2629 23.8645 16.4878 24.0485 16.4878 24.2785V24.7181C16.4878 24.9481 16.2629 25.1321 15.9869 25.1321Z" fill="#CB2026"/>
<path opacity="0.3" d="M15.9876 24.166C16.0643 24.166 16.1205 24.2171 16.1205 24.2785V24.718C16.1205 24.7793 16.0592 24.8304 15.9876 24.8304H12.9312V24.166H15.9876Z" fill="#640E0E"/>
<path style="mix-blend-mode:overlay" opacity="0.5" d="M6.89981 23.8645H15.9874C16.2634 23.8645 16.4883 24.0485 16.4883 24.2785V24.7181C16.4883 24.9481 16.2634 25.1321 15.9874 25.1321H6.89981C6.62381 25.1321 6.39893 24.9481 6.39893 24.7181V24.2785C6.39893 24.0485 6.62381 23.8645 6.89981 23.8645Z" fill="url(#paint62_radial_3278_35655)"/>
<path opacity="0.5" d="M6.89981 23.8645H15.9874C16.2634 23.8645 16.4883 24.0485 16.4883 24.2785V24.7181C16.4883 24.9481 16.2634 25.1321 15.9874 25.1321H6.89981C6.62381 25.1321 6.39893 24.9481 6.39893 24.7181V24.2785C6.39893 24.0485 6.62381 23.8645 6.89981 23.8645Z" fill="url(#paint63_linear_3278_35655)"/>
<g style="mix-blend-mode:overlay">
<path d="M7.08396 25.0298H15.8035C16.0693 25.0298 16.284 24.8662 16.284 24.6669V24.5034C16.284 24.7027 16.0693 24.8662 15.8035 24.8662H7.08396C6.81818 24.8662 6.60352 24.7027 6.60352 24.5034V24.6669C6.60352 24.8662 6.81818 25.0298 7.08396 25.0298Z" fill="url(#paint64_linear_3278_35655)"/>
</g>
<path style="mix-blend-mode:overlay" d="M7.08396 23.9723H15.8035C16.0693 23.9723 16.284 24.1358 16.284 24.3352V24.4987C16.284 24.2994 16.0693 24.1358 15.8035 24.1358H7.08396C6.81818 24.1358 6.60352 24.2994 6.60352 24.4987V24.3352C6.60352 24.1358 6.81818 23.9723 7.08396 23.9723Z" fill="url(#paint65_linear_3278_35655)"/>
<path opacity="0.4" d="M16.2684 25.0649L16.1407 24.9422C16.0998 24.9014 16.0691 24.8196 16.0691 24.7327V24.2778C16.0691 24.1909 16.0947 24.1091 16.1407 24.0631L16.2684 23.9405C16.2327 23.92 16.1969 23.9047 16.156 23.8945L16.0691 23.9762C16.0231 24.0222 15.9976 24.104 15.9976 24.2011V24.8042C15.9976 24.8962 16.0282 24.9831 16.0691 25.024L16.156 25.1109C16.1969 25.1007 16.2327 25.0854 16.2684 25.0649Z" fill="white"/>
<path opacity="0.4" d="M6.62891 25.0649L6.75668 24.9422C6.79757 24.9014 6.82824 24.8196 6.82824 24.7327V24.2778C6.82824 24.1909 6.80268 24.1091 6.75668 24.0631L6.62891 23.9405C6.66468 23.92 6.70046 23.9047 6.74135 23.8945L6.82824 23.9762C6.87424 24.0222 6.89979 24.104 6.89979 24.2011V24.8042C6.89979 24.8962 6.86913 24.9831 6.82824 25.024L6.74135 25.1109C6.70046 25.1007 6.66468 25.0854 6.62891 25.0649Z" fill="white"/>
<g style="mix-blend-mode:overlay" opacity="0.4">
<path d="M15.757 24.4675H7.12939V24.5288H15.757V24.4675Z" fill="#989898"/>
</g>
</g>
<defs>
<linearGradient id="paint0_linear_3278_35655" x1="18.0424" y1="0.725604" x2="4.85059" y2="0.725604" gradientUnits="userSpaceOnUse">
<stop stop-color="#C8C5C5"/>
<stop offset="0.04" stop-color="#676868"/>
<stop offset="0.11" stop-color="white"/>
<stop offset="0.3" stop-color="#939292"/>
<stop offset="0.49" stop-color="white"/>
<stop offset="0.63" stop-color="#676868"/>
<stop offset="0.77" stop-color="#939292"/>
<stop offset="0.82" stop-color="#C8C5C5"/>
<stop offset="1" stop-color="#343433"/>
</linearGradient>
<linearGradient id="paint1_linear_3278_35655" x1="11.4439" y1="1.21119" x2="11.4439" y2="0.602965" gradientUnits="userSpaceOnUse">
<stop stop-color="#010101"/>
<stop offset="1" stop-color="#010101" stop-opacity="0"/>
</linearGradient>
<linearGradient id="paint2_linear_3278_35655" x1="15.6551" y1="0.535394" x2="18.1289" y2="0.535394" gradientUnits="userSpaceOnUse">
<stop stop-color="#C8C5C5"/>
<stop offset="0.04" stop-color="#676868"/>
<stop offset="0.11" stop-color="white"/>
<stop offset="0.3" stop-color="#939292"/>
<stop offset="0.49" stop-color="white"/>
<stop offset="0.63" stop-color="#676868"/>
<stop offset="0.77" stop-color="#939292"/>
<stop offset="0.82" stop-color="#C8C5C5"/>
<stop offset="1" stop-color="#343433"/>
</linearGradient>
<linearGradient id="paint3_linear_3278_35655" x1="16.2584" y1="-0.180145" x2="16.2584" y2="1.47074" gradientUnits="userSpaceOnUse">
<stop stop-color="#C8C5C5"/>
<stop offset="0.04" stop-color="#676868"/>
<stop offset="0.11" stop-color="white"/>
<stop offset="0.3" stop-color="#939292"/>
<stop offset="0.49" stop-color="white"/>
<stop offset="0.63" stop-color="#676868"/>
<stop offset="0.77" stop-color="#939292"/>
<stop offset="0.82" stop-color="#C8C5C5"/>
<stop offset="1" stop-color="#343433"/>
</linearGradient>
<linearGradient id="paint4_linear_3278_35655" x1="6.02573" y1="0.535394" x2="8.49951" y2="0.535394" gradientUnits="userSpaceOnUse">
<stop stop-color="#C8C5C5"/>
<stop offset="0.04" stop-color="#676868"/>
<stop offset="0.11" stop-color="white"/>
<stop offset="0.3" stop-color="#939292"/>
<stop offset="0.49" stop-color="white"/>
<stop offset="0.63" stop-color="#676868"/>
<stop offset="0.77" stop-color="#939292"/>
<stop offset="0.82" stop-color="#C8C5C5"/>
<stop offset="1" stop-color="#343433"/>
</linearGradient>
<linearGradient id="paint5_linear_3278_35655" x1="6.62853" y1="0.0396326" x2="6.62853" y2="1.21008" gradientUnits="userSpaceOnUse">
<stop stop-color="#C8C5C5"/>
<stop offset="0.04" stop-color="#676868"/>
<stop offset="0.11" stop-color="white"/>
<stop offset="0.3" stop-color="#939292"/>
<stop offset="0.49" stop-color="white"/>
<stop offset="0.63" stop-color="#676868"/>
<stop offset="0.77" stop-color="#939292"/>
<stop offset="0.82" stop-color="#C8C5C5"/>
<stop offset="1" stop-color="#343433"/>
</linearGradient>
<linearGradient id="paint6_linear_3278_35655" x1="16.6368" y1="45.2741" x2="6.25612" y2="45.2741" gradientUnits="userSpaceOnUse">
<stop stop-color="#C8C5C5"/>
<stop offset="0.04" stop-color="#676868"/>
<stop offset="0.11" stop-color="white"/>
<stop offset="0.3" stop-color="#939292"/>
<stop offset="0.49" stop-color="white"/>
<stop offset="0.63" stop-color="#676868"/>
<stop offset="0.77" stop-color="#939292"/>
<stop offset="0.82" stop-color="#C8C5C5"/>
<stop offset="1" stop-color="#343433"/>
</linearGradient>
<linearGradient id="paint7_linear_3278_35655" x1="-629.122" y1="44.7682" x2="-629.633" y2="45.3713" gradientUnits="userSpaceOnUse">
<stop stop-color="#010101"/>
<stop offset="1" stop-color="#010101" stop-opacity="0"/>
</linearGradient>
<linearGradient id="paint8_linear_3278_35655" x1="14.7612" y1="45.4684" x2="16.7085" y2="45.4684" gradientUnits="userSpaceOnUse">
<stop stop-color="#C8C5C5"/>
<stop offset="0.04" stop-color="#676868"/>
<stop offset="0.11" stop-color="white"/>
<stop offset="0.3" stop-color="#939292"/>
<stop offset="0.49" stop-color="white"/>
<stop offset="0.63" stop-color="#676868"/>
<stop offset="0.77" stop-color="#939292"/>
<stop offset="0.82" stop-color="#C8C5C5"/>
<stop offset="1" stop-color="#343433"/>
</linearGradient>
<linearGradient id="paint9_linear_3278_35655" x1="15.2312" y1="46.1788" x2="15.2312" y2="44.533" gradientUnits="userSpaceOnUse">
<stop stop-color="#C8C5C5"/>
<stop offset="0.04" stop-color="#676868"/>
<stop offset="0.11" stop-color="white"/>
<stop offset="0.3" stop-color="#939292"/>
<stop offset="0.49" stop-color="white"/>
<stop offset="0.63" stop-color="#676868"/>
<stop offset="0.77" stop-color="#939292"/>
<stop offset="0.82" stop-color="#C8C5C5"/>
<stop offset="1" stop-color="#343433"/>
</linearGradient>
<linearGradient id="paint10_linear_3278_35655" x1="7.18111" y1="45.4684" x2="9.12844" y2="45.4684" gradientUnits="userSpaceOnUse">
<stop stop-color="#C8C5C5"/>
<stop offset="0.04" stop-color="#676868"/>
<stop offset="0.11" stop-color="white"/>
<stop offset="0.3" stop-color="#939292"/>
<stop offset="0.49" stop-color="white"/>
<stop offset="0.63" stop-color="#676868"/>
<stop offset="0.77" stop-color="#939292"/>
<stop offset="0.82" stop-color="#C8C5C5"/>
<stop offset="1" stop-color="#343433"/>
</linearGradient>
<linearGradient id="paint11_linear_3278_35655" x1="7.65649" y1="45.9641" x2="7.65649" y2="44.7885" gradientUnits="userSpaceOnUse">
<stop stop-color="#C8C5C5"/>
<stop offset="0.04" stop-color="#676868"/>
<stop offset="0.11" stop-color="white"/>
<stop offset="0.3" stop-color="#939292"/>
<stop offset="0.49" stop-color="white"/>
<stop offset="0.63" stop-color="#676868"/>
<stop offset="0.77" stop-color="#939292"/>
<stop offset="0.82" stop-color="#C8C5C5"/>
<stop offset="1" stop-color="#343433"/>
</linearGradient>
<linearGradient id="paint12_linear_3278_35655" x1="11.4236" y1="44.5741" x2="11.4236" y2="44.3032" gradientUnits="userSpaceOnUse">
<stop stop-color="#010101" stop-opacity="0"/>
<stop offset="0.99" stop-color="#010101"/>
</linearGradient>
<linearGradient id="paint13_linear_3278_35655" x1="11.4236" y1="44.3799" x2="11.4236" y2="45.0136" gradientUnits="userSpaceOnUse">
<stop offset="0.42" stop-color="white" stop-opacity="0"/>
<stop offset="1" stop-color="white"/>
</linearGradient>
<linearGradient id="paint14_linear_3278_35655" x1="11.4234" y1="1.73276" x2="11.4234" y2="2.10587" gradientUnits="userSpaceOnUse">
<stop stop-color="#010101"/>
<stop offset="1" stop-color="#010101" stop-opacity="0"/>
</linearGradient>
<radialGradient id="paint15_radial_3278_35655" cx="0" cy="0" r="1" gradientUnits="userSpaceOnUse" gradientTransform="translate(9.04259 22.5915) scale(18.6832 15.4407)">
<stop stop-color="white" stop-opacity="0"/>
<stop offset="1" stop-color="white"/>
</radialGradient>
<linearGradient id="paint16_linear_3278_35655" x1="11.4232" y1="33.0081" x2="11.4232" y2="32.5584" gradientUnits="userSpaceOnUse">
<stop stop-color="#010101"/>
<stop offset="1" stop-color="#010101" stop-opacity="0"/>
</linearGradient>
<radialGradient id="paint17_radial_3278_35655" cx="0" cy="0" r="1" gradientUnits="userSpaceOnUse" gradientTransform="translate(23.0384 29.8855) rotate(-180) scale(15.1395 12.512)">
<stop stop-color="white" stop-opacity="0"/>
<stop offset="1" stop-color="white"/>
</radialGradient>
<radialGradient id="paint18_radial_3278_35655" cx="0" cy="0" r="1" gradientUnits="userSpaceOnUse" gradientTransform="translate(21.2944 29.17) rotate(-180) scale(14.5706 12.0418)">
<stop offset="0.01" stop-color="#010101"/>
<stop offset="1" stop-color="#010101" stop-opacity="0"/>
</radialGradient>
<linearGradient id="paint19_linear_3278_35655" x1="11.4232" y1="8.8368" x2="11.4232" y2="9.28658" gradientUnits="userSpaceOnUse">
<stop stop-color="#010101"/>
<stop offset="1" stop-color="#010101" stop-opacity="0"/>
</linearGradient>
<radialGradient id="paint20_radial_3278_35655" cx="0" cy="0" r="1" gradientUnits="userSpaceOnUse" gradientTransform="translate(23.0384 11.9234) rotate(-180) scale(15.1395 12.512)">
<stop stop-color="white" stop-opacity="0"/>
<stop offset="1" stop-color="white"/>
</radialGradient>
<radialGradient id="paint21_radial_3278_35655" cx="0" cy="0" r="1" gradientUnits="userSpaceOnUse" gradientTransform="translate(19.6431 14.1161) rotate(180) scale(19.9819 16.514)">
<stop offset="0.01" stop-color="#010101"/>
<stop offset="1" stop-color="#010101" stop-opacity="0"/>
</radialGradient>
<linearGradient id="paint22_linear_3278_35655" x1="1.94196" y1="26.6301" x2="2.14129" y2="26.6301" gradientUnits="userSpaceOnUse">
<stop stop-color="#010101"/>
<stop offset="1" stop-color="#010101" stop-opacity="0"/>
</linearGradient>
<linearGradient id="paint23_linear_3278_35655" x1="2.32051" y1="26.4926" x2="3.17406" y2="26.4926" gradientUnits="userSpaceOnUse">
<stop stop-color="white"/>
<stop offset="1" stop-color="white" stop-opacity="0"/>
</linearGradient>
<linearGradient id="paint24_linear_3278_35655" x1="3.7414" y1="26.4926" x2="4.8914" y2="26.4926" gradientUnits="userSpaceOnUse">
<stop stop-color="#010101" stop-opacity="0"/>
<stop offset="0.99" stop-color="#010101"/>
</linearGradient>
<linearGradient id="paint25_linear_3278_35655" x1="1.97262" y1="19.7032" x2="2.14129" y2="19.7032" gradientUnits="userSpaceOnUse">
<stop stop-color="#010101"/>
<stop offset="1" stop-color="#010101" stop-opacity="0"/>
</linearGradient>
<linearGradient id="paint26_linear_3278_35655" x1="-629.122" y1="19.6974" x2="-629.633" y2="19.6974" gradientUnits="userSpaceOnUse">
<stop stop-color="white"/>
<stop offset="1" stop-color="white" stop-opacity="0"/>
</linearGradient>
<linearGradient id="paint27_linear_3278_35655" x1="3.74117" y1="19.6974" x2="4.89117" y2="19.6974" gradientUnits="userSpaceOnUse">
<stop stop-color="#010101" stop-opacity="0"/>
<stop offset="0.99" stop-color="#010101"/>
</linearGradient>
<linearGradient id="paint28_linear_3278_35655" x1="1.97288" y1="14.5112" x2="2.14155" y2="14.5112" gradientUnits="userSpaceOnUse">
<stop stop-color="#010101"/>
<stop offset="1" stop-color="#010101" stop-opacity="0"/>
</linearGradient>
<linearGradient id="paint29_linear_3278_35655" x1="2.31999" y1="14.5479" x2="3.17354" y2="14.5479" gradientUnits="userSpaceOnUse">
<stop stop-color="white"/>
<stop offset="1" stop-color="white" stop-opacity="0"/>
</linearGradient>
<linearGradient id="paint30_linear_3278_35655" x1="3.74088" y1="14.5479" x2="4.89088" y2="14.5479" gradientUnits="userSpaceOnUse">
<stop stop-color="#010101" stop-opacity="0"/>
<stop offset="0.99" stop-color="#010101"/>
</linearGradient>
<linearGradient id="paint31_linear_3278_35655" x1="20.9501" y1="26.6301" x2="20.7457" y2="26.6301" gradientUnits="userSpaceOnUse">
<stop stop-color="#010101"/>
<stop offset="1" stop-color="#010101" stop-opacity="0"/>
</linearGradient>
<linearGradient id="paint32_linear_3278_35655" x1="20.5671" y1="26.4926" x2="19.7187" y2="26.4926" gradientUnits="userSpaceOnUse">
<stop stop-color="white"/>
<stop offset="1" stop-color="white" stop-opacity="0"/>
</linearGradient>
<linearGradient id="paint33_linear_3278_35655" x1="19.1513" y1="26.4926" x2="18.0013" y2="26.4926" gradientUnits="userSpaceOnUse">
<stop stop-color="#010101" stop-opacity="0"/>
<stop offset="0.99" stop-color="#010101"/>
</linearGradient>
<linearGradient id="paint34_linear_3278_35655" x1="20.9143" y1="19.7032" x2="20.7457" y2="19.7032" gradientUnits="userSpaceOnUse">
<stop stop-color="#010101"/>
<stop offset="1" stop-color="#010101" stop-opacity="0"/>
</linearGradient>
<linearGradient id="paint35_linear_3278_35655" x1="20.5669" y1="19.6974" x2="19.7184" y2="19.6974" gradientUnits="userSpaceOnUse">
<stop stop-color="white"/>
<stop offset="1" stop-color="white" stop-opacity="0"/>
</linearGradient>
<linearGradient id="paint36_linear_3278_35655" x1="19.1511" y1="19.6974" x2="18.0011" y2="19.6974" gradientUnits="userSpaceOnUse">
<stop stop-color="#010101" stop-opacity="0"/>
<stop offset="0.99" stop-color="#010101"/>
</linearGradient>
<linearGradient id="paint37_linear_3278_35655" x1="20.9146" y1="14.5112" x2="20.7459" y2="14.5112" gradientUnits="userSpaceOnUse">
<stop stop-color="#010101"/>
<stop offset="1" stop-color="#010101" stop-opacity="0"/>
</linearGradient>
<linearGradient id="paint38_linear_3278_35655" x1="20.5669" y1="14.5479" x2="19.7184" y2="14.5479" gradientUnits="userSpaceOnUse">
<stop stop-color="white"/>
<stop offset="1" stop-color="white" stop-opacity="0"/>
</linearGradient>
<linearGradient id="paint39_linear_3278_35655" x1="19.1511" y1="14.5479" x2="18.0011" y2="14.5479" gradientUnits="userSpaceOnUse">
<stop stop-color="#010101" stop-opacity="0"/>
<stop offset="0.99" stop-color="#010101"/>
</linearGradient>
<linearGradient id="paint40_linear_3278_35655" x1="3.98185" y1="33.039" x2="3.79785" y2="33.039" gradientUnits="userSpaceOnUse">
<stop stop-color="#010101"/>
<stop offset="1" stop-color="#010101" stop-opacity="0"/>
</linearGradient>
<linearGradient id="paint41_linear_3278_35655" x1="4.60051" y1="33.156" x2="4.4165" y2="33.156" gradientUnits="userSpaceOnUse">
<stop stop-color="#010101"/>
<stop offset="1" stop-color="#010101" stop-opacity="0"/>
</linearGradient>
<linearGradient id="paint42_linear_3278_35655" x1="5.21867" y1="33.2937" x2="5.03467" y2="33.2937" gradientUnits="userSpaceOnUse">
<stop stop-color="#010101"/>
<stop offset="1" stop-color="#010101" stop-opacity="0"/>
</linearGradient>
<linearGradient id="paint43_linear_3278_35655" x1="17.684" y1="33.2937" x2="17.5" y2="33.2937" gradientUnits="userSpaceOnUse">
<stop stop-color="#010101"/>
<stop offset="1" stop-color="#010101" stop-opacity="0"/>
</linearGradient>
<linearGradient id="paint44_linear_3278_35655" x1="18.3027" y1="33.1759" x2="18.1187" y2="33.1759" gradientUnits="userSpaceOnUse">
<stop stop-color="#010101"/>
<stop offset="1" stop-color="#010101" stop-opacity="0"/>
</linearGradient>
<linearGradient id="paint45_linear_3278_35655" x1="18.9213" y1="33.0381" x2="18.7373" y2="33.0381" gradientUnits="userSpaceOnUse">
<stop stop-color="#010101"/>
<stop offset="1" stop-color="#010101" stop-opacity="0"/>
</linearGradient>
<radialGradient id="paint46_radial_3278_35655" cx="0" cy="0" r="1" gradientUnits="userSpaceOnUse" gradientTransform="translate(23.1683 3.04767) rotate(180) scale(0.77924 0.644)">
<stop stop-color="white" stop-opacity="0"/>
<stop offset="1" stop-color="white"/>
</radialGradient>
<radialGradient id="paint47_radial_3278_35655" cx="0" cy="0" r="1" gradientUnits="userSpaceOnUse" gradientTransform="translate(21.3685 2.16209) rotate(180) scale(0.915298 0.756439)">
<stop stop-color="white" stop-opacity="0"/>
<stop offset="1" stop-color="white"/>
</radialGradient>
<radialGradient id="paint48_radial_3278_35655" cx="0" cy="0" r="1" gradientUnits="userSpaceOnUse" gradientTransform="translate(5.09808 3.04767) scale(0.77924 0.644)">
<stop stop-color="white" stop-opacity="0"/>
<stop offset="1" stop-color="white"/>
</radialGradient>
<radialGradient id="paint49_radial_3278_35655" cx="0" cy="0" r="1" gradientUnits="userSpaceOnUse" gradientTransform="translate(6.89751 2.16209) scale(0.915298 0.756439)">
<stop stop-color="white" stop-opacity="0"/>
<stop offset="1" stop-color="white"/>
</radialGradient>
<linearGradient id="paint50_linear_3278_35655" x1="11.6996" y1="1.83478" x2="11.6996" y2="1.94211" gradientUnits="userSpaceOnUse">
<stop stop-color="#010101"/>
<stop offset="1" stop-color="#010101" stop-opacity="0"/>
</linearGradient>
<linearGradient id="paint51_linear_3278_35655" x1="10.4316" y1="21.0589" x2="10.7842" y2="21.0589" gradientUnits="userSpaceOnUse">
<stop offset="0.42" stop-color="white" stop-opacity="0"/>
<stop offset="1" stop-color="white"/>
</linearGradient>
<linearGradient id="paint52_linear_3278_35655" x1="4.97295" y1="27.0027" x2="10.3652" y2="27.0027" gradientUnits="userSpaceOnUse">
<stop offset="0.42" stop-color="white" stop-opacity="0"/>
<stop offset="1" stop-color="white"/>
</linearGradient>
<linearGradient id="paint53_linear_3278_35655" x1="2.7853" y1="1.95328" x2="7.09396" y2="1.95328" gradientUnits="userSpaceOnUse">
<stop offset="0.42" stop-color="white" stop-opacity="0"/>
<stop offset="1" stop-color="white"/>
</linearGradient>
<linearGradient id="paint54_linear_3278_35655" x1="8.14678" y1="44.1499" x2="8.40233" y2="44.1499" gradientUnits="userSpaceOnUse">
<stop offset="0.42" stop-color="white" stop-opacity="0"/>
<stop offset="1" stop-color="white"/>
</linearGradient>
<linearGradient id="paint55_linear_3278_35655" x1="9.33239" y1="1.38114" x2="9.69528" y2="1.38114" gradientUnits="userSpaceOnUse">
<stop offset="0.42" stop-color="white" stop-opacity="0"/>
<stop offset="1" stop-color="white"/>
</linearGradient>
<linearGradient id="paint56_linear_3278_35655" x1="10.9987" y1="44.6627" x2="11.4127" y2="44.6627" gradientUnits="userSpaceOnUse">
<stop offset="0.42" stop-color="white" stop-opacity="0"/>
<stop offset="1" stop-color="white"/>
</linearGradient>
<linearGradient id="paint57_linear_3278_35655" x1="21.8445" y1="30.3183" x2="21.7831" y2="30.1599" gradientUnits="userSpaceOnUse">
<stop stop-color="white"/>
<stop offset="1" stop-color="white" stop-opacity="0"/>
</linearGradient>
<linearGradient id="paint58_linear_3278_35655" x1="21.2567" y1="30.1505" x2="22.3556" y2="29.5321" gradientUnits="userSpaceOnUse">
<stop stop-color="#010101"/>
<stop offset="1" stop-color="#010101" stop-opacity="0"/>
</linearGradient>
<linearGradient id="paint59_linear_3278_35655" x1="1.04755" y1="30.3183" x2="1.10377" y2="30.1599" gradientUnits="userSpaceOnUse">
<stop stop-color="white"/>
<stop offset="1" stop-color="white" stop-opacity="0"/>
</linearGradient>
<linearGradient id="paint60_linear_3278_35655" x1="1.63044" y1="30.1505" x2="0.531556" y2="29.5321" gradientUnits="userSpaceOnUse">
<stop stop-color="#010101"/>
<stop offset="1" stop-color="#010101" stop-opacity="0"/>
</linearGradient>
<linearGradient id="paint61_linear_3278_35655" x1="11.53" y1="23.6298" x2="11.53" y2="23.962" gradientUnits="userSpaceOnUse">
<stop stop-color="#010101" stop-opacity="0"/>
<stop offset="0.99" stop-color="#010101"/>
</linearGradient>
<radialGradient id="paint62_radial_3278_35655" cx="0" cy="0" r="1" gradientUnits="userSpaceOnUse" gradientTransform="translate(14.3922 24.4983) rotate(-180) scale(3.6179 2.99)">
<stop stop-color="white" stop-opacity="0"/>
<stop offset="1" stop-color="white"/>
</radialGradient>
<linearGradient id="paint63_linear_3278_35655" x1="11.4436" y1="24.1456" x2="11.4436" y2="23.8747" gradientUnits="userSpaceOnUse">
<stop stop-color="#010101" stop-opacity="0"/>
<stop offset="0.99" stop-color="#010101"/>
</linearGradient>
<linearGradient id="paint64_linear_3278_35655" x1="16.284" y1="24.764" x2="6.60352" y2="24.764" gradientUnits="userSpaceOnUse">
<stop stop-color="white" stop-opacity="0"/>
<stop offset="1" stop-color="white"/>
</linearGradient>
<linearGradient id="paint65_linear_3278_35655" x1="9.84396" y1="24.2381" x2="15.7882" y2="24.2381" gradientUnits="userSpaceOnUse">
<stop stop-color="white" stop-opacity="0"/>
<stop offset="1" stop-color="white"/>
</linearGradient>
<clipPath id="clip0_3278_35655">
<rect width="23" height="46" fill="white"/>
</clipPath>
</defs>
</svg>
