<svg width="45" height="90" viewBox="0 0 45 90" fill="none" xmlns="http://www.w3.org/2000/svg">
<path d="M35.2998 2.17969L9.4898 2.17969V1.81969C9.4898 1.17969 10.0098 0.659687 10.6498 0.659687L34.1298 0.659687C34.7698 0.659687 35.2898 1.17969 35.2898 1.81969V2.17969H35.2998Z" fill="url(#paint0_linear_2227_85864)"/>
<path d="M35.2998 2.42969L9.4898 2.42969V2.06969C9.4898 1.42969 10.0098 0.909691 10.6498 0.909691L34.1298 0.909691C34.7698 0.909691 35.2898 1.42969 35.2898 2.06969V2.42969H35.2998Z" fill="#333333"/>
<path d="M35.2998 2.42969L9.4898 2.42969V2.06969C9.4898 1.42969 10.0098 0.909691 10.6498 0.909691L34.1298 0.909691C34.7698 0.909691 35.2898 1.42969 35.2898 2.06969V2.42969H35.2998Z" fill="url(#paint1_linear_2227_85864)"/>
<path d="M31.5097 1.9375L32.1297 1.9375C32.4113 1.9375 32.6396 1.70917 32.6396 1.4275V0.667503C32.6396 0.385838 32.4113 0.157501 32.1297 0.157501L31.5097 0.157501C31.228 0.157501 30.9996 0.385838 30.9996 0.667503V1.4275C30.9996 1.70917 31.228 1.9375 31.5097 1.9375Z" fill="url(#paint2_linear_2227_85864)"/>
<path d="M32.1999 1.6575L32.2099 0.4375H31.4199V1.6575H32.1999Z" fill="url(#paint3_linear_2227_85864)"/>
<path d="M12.6698 1.9375L13.2898 1.9375C13.5715 1.9375 13.7998 1.70917 13.7998 1.4275V0.667503C13.7998 0.385838 13.5715 0.157501 13.2898 0.157501L12.6698 0.157501C12.3881 0.157501 12.1598 0.385838 12.1598 0.667503V1.4275C12.1598 1.70917 12.3881 1.9375 12.6698 1.9375Z" fill="url(#paint4_linear_2227_85864)"/>
<path d="M13.3591 1.6575L13.3691 0.4375H12.5791V1.6575H13.3591Z" fill="url(#paint5_linear_2227_85864)"/>
<path d="M31.4092 0.160156L32.1992 0.160156V0.000156403L31.4092 0.000156403V0.160156Z" fill="#010101"/>
<path d="M12.5791 0.160156L13.3691 0.160156V0.000156403L12.5791 0.000156403V0.160156Z" fill="#010101"/>
<path d="M31.3905 89.3398H13.4105C12.7705 89.3398 12.2505 88.8198 12.2505 88.1798V87.8198H32.5605V88.1798C32.5605 88.8198 32.0405 89.3398 31.4005 89.3398H31.3905Z" fill="url(#paint6_linear_2227_85864)"/>
<path d="M31.3905 89.0898H13.4105C12.7705 89.0898 12.2505 88.5698 12.2505 87.9298V87.5699H32.5605V87.9298C32.5605 88.5698 32.0405 89.0898 31.4005 89.0898H31.3905Z" fill="#333333"/>
<path d="M31.3905 89.0898H13.4105C12.7705 89.0898 12.2505 88.5698 12.2505 87.9298V87.5699H32.5605V87.9298C32.5605 88.5698 32.0405 89.0898 31.4005 89.0898H31.3905Z" fill="url(#paint7_linear_2227_85864)"/>
<path d="M29.6702 89.8398H29.9402C30.2219 89.8398 30.4502 89.6115 30.4502 89.3298V88.5698C30.4502 88.2882 30.2219 88.0598 29.9402 88.0598H29.6702C29.3885 88.0598 29.1602 88.2882 29.1602 88.5698V89.3298C29.1602 89.6115 29.3885 89.8398 29.6702 89.8398Z" fill="url(#paint8_linear_2227_85864)"/>
<path d="M30.1102 88.3398L30.1202 89.5698H29.5002L29.4902 88.3498L29.5002 88.3398H30.1102Z" fill="url(#paint9_linear_2227_85864)"/>
<path d="M14.8401 89.8398H15.1101C15.3918 89.8398 15.6201 89.6115 15.6201 89.3298V88.5698C15.6201 88.2882 15.3918 88.0598 15.1101 88.0598H14.8401C14.5585 88.0598 14.3301 88.2882 14.3301 88.5698V89.3298C14.3301 89.6115 14.5585 89.8398 14.8401 89.8398Z" fill="url(#paint10_linear_2227_85864)"/>
<path d="M15.2899 88.3398V89.5698H14.6699V88.3498V88.3398H15.2899Z" fill="url(#paint11_linear_2227_85864)"/>
<path d="M29.5001 90H30.1201V89.84H29.5001V90Z" fill="#010101"/>
<path d="M14.67 90H15.29V89.84H14.67V90Z" fill="#010101"/>
<path d="M14.0799 46.7695H30.7199C31.2199 46.7695 31.6299 47.1095 31.6299 47.5295V48.3395C31.6299 48.7595 31.2199 49.0995 30.7199 49.0995H14.0799C13.5699 49.0995 13.1699 48.7595 13.1699 48.3395V47.5295C13.1699 47.1095 13.5799 46.7695 14.0799 46.7695Z" fill="#989898"/>
<path d="M2.84984 78.8205V8.71047C2.84984 4.99047 6.47984 1.98047 10.9598 1.98047H33.7398C38.2198 1.98047 41.8498 4.99047 41.8498 8.71047V78.8205C41.8498 83.9405 36.8498 88.0805 30.6798 88.0805H14.0098C7.83984 88.0805 2.83984 83.9305 2.83984 78.8205H2.84984Z" fill="#DFDFDE"/>
<path d="M33.2402 86.6802H11.4702C8.84016 86.6802 6.49016 85.7002 4.91016 84.1602C6.93016 86.5302 10.2602 88.0802 14.0202 88.0802H30.6902C34.4602 88.0802 37.7802 86.5302 39.8002 84.1602C38.2202 85.7002 35.8702 86.6802 33.2402 86.6802Z" fill="url(#paint12_linear_2227_85864)"/>
<path opacity="0.4" d="M33.2402 86.6802H11.4702C8.84016 86.6802 6.49016 85.7002 4.91016 84.1602C6.93016 86.5302 10.2602 88.0802 14.0202 88.0802H30.6902C34.4602 88.0802 37.7802 86.5302 39.8002 84.1602C38.2202 85.7002 35.8702 86.6802 33.2402 86.6802Z" fill="url(#paint13_linear_2227_85864)"/>
<path d="M40.5197 7.53078V79.9908C40.5197 83.3108 37.2697 86.0108 33.2697 86.0108H11.4297C7.42969 86.0108 4.17969 83.3208 4.17969 79.9908V7.53078C4.17969 5.61078 6.05969 4.05078 8.36969 4.05078H36.3197C38.6397 4.05078 40.5097 5.61078 40.5097 7.53078H40.5197Z" fill="#376191"/>
<path d="M35.4896 29.8317L40.6096 20.5317H41.8596V63.7617L35.6396 52.2117L20.1596 52.7717L9.46961 52.1717L3.89961 62.7017L2.84961 62.6817V19.7617H3.89961L9.77961 29.7317C9.77961 29.7317 19.4996 28.9917 22.2096 29.0917C24.9196 29.1917 34.7996 30.3017 34.7996 30.3017L35.4896 29.8117V29.8317Z" fill="#E0E1E0"/>
<path d="M8.38043 4.05016H36.3304C38.6504 4.05016 40.5204 5.61016 40.5204 7.53016V6.89016C40.5204 4.97016 38.6404 3.41016 36.3304 3.41016H8.38043C6.06043 3.41016 4.19043 4.97016 4.19043 6.89016V7.53016C4.19043 5.61016 6.07043 4.05016 8.38043 4.05016Z" fill="#333333"/>
<path d="M8.38043 4.05016H36.3304C38.6504 4.05016 40.5204 5.61016 40.5204 7.53016V6.89016C40.5204 4.97016 38.6404 3.41016 36.3304 3.41016H8.38043C6.06043 3.41016 4.19043 4.97016 4.19043 6.89016V7.53016C4.19043 5.61016 6.07043 4.05016 8.38043 4.05016Z" fill="url(#paint14_linear_2227_85864)"/>
<path opacity="0.5" d="M36.5204 4.28078H8.39039C6.06039 4.28078 4.17039 5.84078 4.17039 7.76078V80.2208C4.17039 81.8208 4.94039 83.2808 6.18039 84.3608C4.78039 83.2608 3.90039 81.7208 3.90039 80.0008V7.53078C3.90039 5.61078 5.79039 4.05078 8.12039 4.05078H36.2504C37.4904 4.05078 38.5904 4.49078 39.3704 5.19078C38.6204 4.63078 37.6204 4.28078 36.5304 4.28078H36.5204Z" fill="url(#paint15_radial_2227_85864)"/>
<path d="M11.4297 86.6822H33.2697C37.2697 86.6822 40.5197 83.9922 40.5197 80.6622V79.9922C40.5197 83.3122 37.2697 86.0122 33.2697 86.0122H11.4297C7.42969 86.0122 4.17969 83.3222 4.17969 79.9922V80.6622C4.17969 83.9822 7.42969 86.6822 11.4297 86.6822Z" fill="#676767"/>
<path d="M37.8096 84.6822V85.3522C39.4596 84.2522 40.5296 82.5622 40.5296 80.6622V79.9922C40.5296 81.8922 39.4696 83.5822 37.8096 84.6822Z" fill="#F26722"/>
<path d="M37.81 84.6836C36.57 85.5136 34.99 86.0136 33.27 86.0136H28.57L28.25 86.6836H33.27C34.99 86.6836 36.56 86.1836 37.81 85.3536V84.6836Z" fill="#E0F2F6"/>
<path d="M6.89968 84.6822V85.3522C5.24968 84.2522 4.17969 82.5622 4.17969 80.6622V79.9922C4.17969 81.8922 5.23968 83.5822 6.89968 84.6822Z" fill="#F26722"/>
<path d="M6.89941 84.6836C8.13941 85.5136 9.71941 86.0136 11.4394 86.0136H16.1394L16.4594 86.6836H11.4394C9.71941 86.6836 8.14941 86.1836 6.89941 85.3536V84.6836Z" fill="#E0F2F6"/>
<path d="M16.5098 86.5H28.1898L28.1298 86.62H16.5798L16.5098 86.5Z" fill="#333333"/>
<path d="M16.4297 86.2891H28.2797L28.2097 86.3991H16.4997L16.4297 86.2891Z" fill="#333333"/>
<path d="M16.2695 86.0703H28.4295L28.3595 86.1803H16.3495L16.2695 86.0703Z" fill="#333333"/>
<path d="M22.3496 86.5611C22.7859 86.5611 23.1396 86.4626 23.1396 86.3411C23.1396 86.2196 22.7859 86.1211 22.3496 86.1211C21.9133 86.1211 21.5596 86.2196 21.5596 86.3411C21.5596 86.4626 21.9133 86.5611 22.3496 86.5611Z" fill="#CCCCCC"/>
<path d="M34.2402 51.4712C30.3902 51.9412 19.3202 53.0512 10.9102 51.5712C10.0802 51.4212 9.24015 51.7812 8.90015 52.4312L4.40015 61.0412C4.05015 61.7112 4.47015 62.4812 5.31015 62.6912C9.59015 63.7912 22.4102 66.3212 39.3502 62.5712C40.2002 62.3812 40.6501 61.6112 40.3201 60.9312L36.1602 52.3812C35.8502 51.7412 35.0602 51.3612 34.2402 51.4612V51.4712Z" fill="#676767"/>
<path d="M34.2402 51.4712C30.3902 51.9412 19.3202 53.0512 10.9102 51.5712C10.0802 51.4212 9.24015 51.7812 8.90015 52.4312L4.40015 61.0412C4.05015 61.7112 4.47015 62.4812 5.31015 62.6912C9.59015 63.7912 22.4102 66.3212 39.3502 62.5712C40.2002 62.3812 40.6501 61.6112 40.3201 60.9312L36.1602 52.3812C35.8502 51.7412 35.0602 51.3612 34.2402 51.4612V51.4712Z" fill="url(#paint16_linear_2227_85864)"/>
<path d="M34.4997 52.0508C34.9397 52.0508 35.3197 52.2708 35.4897 52.6108L39.6497 61.1608C39.7297 61.3308 39.7197 61.5208 39.6197 61.6808C39.5197 61.8408 39.3597 61.9508 39.1597 62.0008C33.2797 63.3008 27.3497 63.9608 21.5097 63.9608C13.7897 63.9608 8.17969 62.8108 5.51969 62.1308C5.31969 62.0808 5.14969 61.9608 5.05969 61.8008C4.96969 61.6408 4.96969 61.4608 5.05969 61.2908L9.55969 52.6808C9.72969 52.3608 10.1097 52.1508 10.5397 52.1508C10.6097 52.1508 10.6897 52.1508 10.7597 52.1708C13.6097 52.6708 17.0097 52.9308 20.8797 52.9308C26.5197 52.9308 31.7297 52.4008 34.3397 52.0808C34.3897 52.0808 34.4397 52.0808 34.4997 52.0808V52.0508Z" fill="#010101"/>
<path d="M34.5006 52.3516C34.7906 52.3516 35.0406 52.4916 35.1506 52.7216L39.3106 61.2716C39.3706 61.3916 39.3306 61.4916 39.3006 61.5416C39.2706 61.6016 39.2006 61.6716 39.0706 61.7016C33.2206 62.9916 27.3206 63.6516 21.5206 63.6516C13.8506 63.6516 8.28062 62.5116 5.64062 61.8316C5.50062 61.7916 5.43062 61.7116 5.41062 61.6616C5.38062 61.6116 5.35062 61.5116 5.41062 61.3916L9.91062 52.7816C10.0206 52.5716 10.2706 52.4316 10.5506 52.4316C10.6006 52.4316 10.6506 52.4316 10.7006 52.4416C13.5706 52.9516 17.0006 53.2016 20.9006 53.2016C26.5606 53.2016 31.8006 52.6716 34.4106 52.3516C34.4406 52.3516 34.4806 52.3516 34.5106 52.3516H34.5006Z" fill="#686C86"/>
<path opacity="0.2" d="M38.2599 59.1016C34.0399 59.9516 28.4699 60.4716 22.3599 60.4716C16.2499 60.4716 10.7899 59.9616 6.58986 59.1316L5.39985 61.4016C5.33985 61.5216 5.37985 61.6216 5.39985 61.6716C5.42985 61.7216 5.48986 61.8016 5.62986 61.8416C8.26986 62.5216 13.8399 63.6616 21.5099 63.6616C27.3099 63.6616 33.2199 63.0016 39.0599 61.7116C39.1899 61.6816 39.2599 61.6116 39.2899 61.5516C39.3199 61.5016 39.3599 61.4016 39.2999 61.2816L38.2399 59.1116L38.2599 59.1016Z" fill="#010101"/>
<path d="M39.2301 61.1016C34.7201 62.0216 28.8101 62.5916 22.3501 62.5916C15.8901 62.5916 10.0501 62.0316 5.54009 61.1216L5.39009 61.4016C5.33009 61.5216 5.37009 61.6216 5.39009 61.6716C5.42009 61.7216 5.48009 61.8016 5.62009 61.8416C8.26009 62.5216 13.8301 63.6616 21.5001 63.6616C27.3001 63.6616 33.2101 63.0016 39.0501 61.7116C39.1801 61.6816 39.2501 61.6116 39.2801 61.5516C39.3101 61.5016 39.3501 61.4016 39.2901 61.2816L39.2101 61.1116L39.2301 61.1016Z" fill="#333333"/>
<path d="M33.7602 61.2523L29.0402 62.0623L28.9902 61.8723L33.7402 61.1523L33.7602 61.2523Z" fill="#010101"/>
<path d="M22.4502 62.8589L28.9002 61.8789L28.5802 62.1289L22.4902 63.0489L22.4502 62.8589Z" fill="#010101"/>
<path d="M33.4602 61.1406L22.2002 62.8406L22.2202 62.9406L33.7502 61.2006L33.4602 61.1406Z" fill="#333333"/>
<path d="M22.4898 62.9011C22.5198 63.0511 22.3998 63.1911 22.2198 63.2211C22.0398 63.2511 21.8698 63.1511 21.8298 63.0011C21.7998 62.8511 21.9198 62.7111 22.0998 62.6811C22.2798 62.6511 22.4498 62.7511 22.4898 62.9011Z" fill="#010101"/>
<path d="M22.4799 62.851C22.5099 62.971 22.4099 63.091 22.2599 63.111C22.1099 63.131 21.9699 63.051 21.9399 62.931C21.9099 62.811 22.0099 62.691 22.1599 62.671C22.3099 62.651 22.4499 62.731 22.4799 62.851Z" fill="#333333"/>
<path d="M23.2905 61.682L18.5005 62.102L18.4805 61.902L23.2905 61.582V61.682Z" fill="#010101"/>
<path d="M11.8506 62.3502L18.3806 61.9102L18.0406 62.1302L11.8706 62.5402L11.8506 62.3502Z" fill="#010101"/>
<path d="M23.0106 61.5508L11.6006 62.3108L11.6106 62.4208L23.2906 61.6408L23.0106 61.5508Z" fill="#333333"/>
<path d="M11.8803 62.3913C11.8903 62.5413 11.7603 62.6713 11.5803 62.6913C11.4003 62.7013 11.2403 62.5913 11.2203 62.4413C11.2103 62.2913 11.3403 62.1613 11.5203 62.1413C11.7003 62.1313 11.8603 62.2413 11.8803 62.3913Z" fill="#010101"/>
<path d="M11.8805 62.3389C11.8905 62.4589 11.7805 62.5689 11.6305 62.5789C11.4805 62.5889 11.3505 62.4989 11.3405 62.3689C11.3305 62.2489 11.4405 62.1389 11.5905 62.1289C11.7405 62.1289 11.8705 62.2089 11.8805 62.3389Z" fill="#333333"/>
<path opacity="0.5" d="M34.5006 52.3516C34.7906 52.3516 35.0406 52.4916 35.1506 52.7216L39.3106 61.2716C39.3706 61.3916 39.3306 61.4916 39.3006 61.5416C39.2706 61.6016 39.2006 61.6716 39.0706 61.7016C33.2206 62.9916 27.3206 63.6516 21.5206 63.6516C13.8506 63.6516 8.28062 62.5116 5.64062 61.8316C5.50062 61.7916 5.43062 61.7116 5.41062 61.6616C5.38062 61.6116 5.35062 61.5116 5.41062 61.3916L9.91062 52.7816C10.0206 52.5716 10.2706 52.4316 10.5506 52.4316C10.6006 52.4316 10.6506 52.4316 10.7006 52.4416C13.5706 52.9516 17.0006 53.2016 20.9006 53.2016C26.5606 53.2016 31.8006 52.6716 34.4106 52.3516C34.4406 52.3516 34.4806 52.3516 34.5106 52.3516H34.5006Z" fill="url(#paint17_radial_2227_85864)"/>
<path style="mix-blend-mode:overlay" opacity="0.3" d="M34.5006 52.3516C34.7906 52.3516 35.0406 52.4916 35.1506 52.7216L39.3106 61.2716C39.3706 61.3916 39.3306 61.4916 39.3006 61.5416C39.2706 61.6016 39.2006 61.6716 39.0706 61.7016C33.2206 62.9916 27.3206 63.6516 21.5206 63.6516C13.8506 63.6516 8.28062 62.5116 5.64062 61.8316C5.50062 61.7916 5.43062 61.7116 5.41062 61.6616C5.38062 61.6116 5.35062 61.5116 5.41062 61.3916L9.91062 52.7816C10.0206 52.5716 10.2706 52.4316 10.5506 52.4316C10.6006 52.4316 10.6506 52.4316 10.7006 52.4416C13.5706 52.9516 17.0006 53.2016 20.9006 53.2016C26.5606 53.2016 31.8006 52.6716 34.4106 52.3516C34.4406 52.3516 34.4806 52.3516 34.5106 52.3516H34.5006Z" fill="url(#paint18_radial_2227_85864)"/>
<path d="M34.2402 30.3294C30.3902 29.8594 19.3202 28.7494 10.9102 30.2294C10.0802 30.3794 9.24015 30.0194 8.90015 29.3694L4.40015 20.7594C4.05015 20.0894 4.47015 19.3194 5.31015 19.1094C9.59015 18.0094 22.4102 15.4794 39.3502 19.2294C40.2002 19.4194 40.6501 20.1894 40.3201 20.8694L36.1602 29.4194C35.8502 30.0594 35.0602 30.4394 34.2402 30.3394V30.3294Z" fill="#676767"/>
<path d="M34.2402 30.3294C30.3902 29.8594 19.3202 28.7494 10.9102 30.2294C10.0802 30.3794 9.24015 30.0194 8.90015 29.3694L4.40015 20.7594C4.05015 20.0894 4.47015 19.3194 5.31015 19.1094C9.59015 18.0094 22.4102 15.4794 39.3502 19.2294C40.2002 19.4194 40.6501 20.1894 40.3201 20.8694L36.1602 29.4194C35.8502 30.0594 35.0602 30.4394 34.2402 30.3394V30.3294Z" fill="url(#paint19_linear_2227_85864)"/>
<path d="M34.4997 29.7477C34.9397 29.7477 35.3197 29.5277 35.4897 29.1877L39.6497 20.6377C39.7297 20.4677 39.7197 20.2777 39.6197 20.1177C39.5197 19.9577 39.3597 19.8477 39.1597 19.8077C33.2797 18.5077 27.3497 17.8477 21.5097 17.8477C13.7897 17.8477 8.17969 18.9977 5.51969 19.6777C5.31969 19.7277 5.14969 19.8477 5.05969 20.0077C4.96969 20.1677 4.96969 20.3477 5.05969 20.5177L9.55969 29.1277C9.72969 29.4477 10.1097 29.6577 10.5397 29.6577C10.6097 29.6577 10.6897 29.6577 10.7597 29.6377C13.6097 29.1377 17.0097 28.8777 20.8797 28.8777C26.5197 28.8777 31.7297 29.4077 34.3397 29.7277C34.3897 29.7277 34.4397 29.7277 34.4997 29.7277V29.7477Z" fill="#010101"/>
<path d="M34.5006 29.4484C34.7906 29.4484 35.0406 29.3084 35.1506 29.0784L39.3106 20.5284C39.3706 20.4084 39.3306 20.3084 39.3006 20.2584C39.2706 20.1984 39.2006 20.1284 39.0706 20.0984C33.2206 18.8084 27.3206 18.1484 21.5206 18.1484C13.8506 18.1484 8.28062 19.2884 5.64062 19.9684C5.50062 20.0084 5.43062 20.0884 5.41062 20.1384C5.38062 20.1884 5.35062 20.2884 5.41062 20.4084L9.91062 29.0184C10.0206 29.2284 10.2706 29.3684 10.5506 29.3684C10.6006 29.3684 10.6506 29.3684 10.7006 29.3584C13.5706 28.8484 17.0006 28.5984 20.9006 28.5984C26.5606 28.5984 31.8006 29.1284 34.4106 29.4484C34.4406 29.4484 34.4806 29.4484 34.5106 29.4484H34.5006Z" fill="#686C86"/>
<path opacity="0.4" d="M39.3106 20.5284C39.3706 20.4084 39.3306 20.3084 39.3006 20.2584C39.2706 20.1984 39.2006 20.1284 39.0706 20.0984C33.2206 18.8084 27.3206 18.1484 21.5206 18.1484C13.8506 18.1484 8.28062 19.2884 5.64062 19.9684C5.50062 20.0084 5.43062 20.0884 5.41062 20.1384C5.38062 20.1884 5.35062 20.2884 5.41062 20.4084L6.70062 22.8784H38.1906L39.3306 20.5384L39.3106 20.5284Z" fill="#010101"/>
<path d="M39.2301 20.7006C34.7201 19.7806 28.8101 19.2106 22.3501 19.2106C15.8901 19.2106 10.0501 19.7706 5.54009 20.6806L5.39009 20.4006C5.33009 20.2806 5.37009 20.1806 5.39009 20.1306C5.42009 20.0806 5.48009 20.0006 5.62009 19.9606C8.26009 19.2806 13.8301 18.1406 21.5001 18.1406C27.3001 18.1406 33.2101 18.8006 39.0501 20.0906C39.1801 20.1206 39.2501 20.1906 39.2801 20.2506C39.3101 20.3006 39.3501 20.4006 39.2901 20.5206L39.2101 20.6906L39.2301 20.7006Z" fill="#010101"/>
<path opacity="0.5" d="M34.5006 29.4484C34.7906 29.4484 35.0406 29.3084 35.1506 29.0784L39.3106 20.5284C39.3706 20.4084 39.3306 20.3084 39.3006 20.2584C39.2706 20.1984 39.2006 20.1284 39.0706 20.0984C33.2206 18.8084 27.3206 18.1484 21.5206 18.1484C13.8506 18.1484 8.28062 19.2884 5.64062 19.9684C5.50062 20.0084 5.43062 20.0884 5.41062 20.1384C5.38062 20.1884 5.35062 20.2884 5.41062 20.4084L9.91062 29.0184C10.0206 29.2284 10.2706 29.3684 10.5506 29.3684C10.6006 29.3684 10.6506 29.3684 10.7006 29.3584C13.5706 28.8484 17.0006 28.5984 20.9006 28.5984C26.5606 28.5984 31.8006 29.1284 34.4106 29.4484C34.4406 29.4484 34.4806 29.4484 34.5106 29.4484H34.5006Z" fill="url(#paint20_radial_2227_85864)"/>
<path style="mix-blend-mode:overlay" opacity="0.3" d="M34.5006 29.4484C34.7906 29.4484 35.0406 29.3084 35.1506 29.0784L39.3106 20.5284C39.3706 20.4084 39.3306 20.3084 39.3006 20.2584C39.2706 20.1984 39.2006 20.1284 39.0706 20.0984C33.2206 18.8084 27.3206 18.1484 21.5206 18.1484C13.8506 18.1484 8.28062 19.2884 5.64062 19.9684C5.50062 20.0084 5.43062 20.0884 5.41062 20.1384C5.38062 20.1884 5.35062 20.2884 5.41062 20.4084L9.91062 29.0184C10.0206 29.2284 10.2706 29.3684 10.5506 29.3684C10.6006 29.3684 10.6506 29.3684 10.7006 29.3584C13.5706 28.8484 17.0006 28.5984 20.9006 28.5984C26.5606 28.5984 31.8006 29.1284 34.4106 29.4484C34.4406 29.4484 34.4806 29.4484 34.5106 29.4484H34.5006Z" fill="url(#paint21_radial_2227_85864)"/>
<path d="M4.73984 43.5625C4.73984 43.5625 4.82984 43.5625 4.86984 43.5625L9.55984 44.1325C9.98984 44.1825 10.3198 44.5025 10.3198 44.8625V49.4325C10.3198 49.5325 10.2998 49.6325 10.2498 49.7225L4.80984 60.3925C4.72984 60.5525 4.54984 60.6525 4.34984 60.6525C4.06984 60.6525 3.83984 60.4725 3.83984 60.2325V44.3025C3.83984 44.1025 3.92984 43.9225 4.09984 43.7825C4.26984 43.6425 4.48984 43.5725 4.72984 43.5725L4.73984 43.5625Z" fill="#676767"/>
<path d="M4.73984 43.5625C4.73984 43.5625 4.82984 43.5625 4.86984 43.5625L9.55984 44.1325C9.98984 44.1825 10.3198 44.5025 10.3198 44.8625V49.4325C10.3198 49.5325 10.2998 49.6325 10.2498 49.7225L4.80984 60.3925C4.72984 60.5525 4.54984 60.6525 4.34984 60.6525C4.06984 60.6525 3.83984 60.4725 3.83984 60.2325V44.3025C3.83984 44.1025 3.92984 43.9225 4.09984 43.7825C4.26984 43.6425 4.48984 43.5725 4.72984 43.5725L4.73984 43.5625Z" fill="url(#paint22_linear_2227_85864)"/>
<path d="M4.50969 60.2828L9.94969 49.6128C9.97969 49.5528 9.98969 49.4928 9.98969 49.4328V44.8628C9.98969 44.6328 9.78969 44.4428 9.50969 44.4028L4.81969 43.8328C4.47969 43.7928 4.17969 44.0128 4.17969 44.2928V60.2228C4.17969 60.3728 4.42969 60.4228 4.50969 60.2728V60.2828Z" fill="#010101"/>
<path d="M4.76977 44.1133L9.45977 44.6833C9.56977 44.6933 9.64977 44.7733 9.64977 44.8633V49.4333C9.64977 49.4333 9.64977 49.4833 9.62977 49.5033L4.50977 59.5533V44.2933C4.50977 44.2933 4.52977 44.1933 4.57977 44.1633C4.61977 44.1333 4.67977 44.1133 4.73977 44.1133H4.76977Z" fill="#686C86"/>
<path opacity="0.2" d="M6.15953 44.2833L4.77953 44.1133H4.74953C4.68953 44.1133 4.63953 44.1333 4.58953 44.1633C4.54953 44.2033 4.51953 44.2433 4.51953 44.2933V59.5533L6.15953 56.3333V44.2733V44.2833Z" fill="#010101"/>
<path opacity="0.5" d="M4.76977 44.1133L9.45977 44.6833C9.56977 44.6933 9.64977 44.7733 9.64977 44.8633V49.4333C9.64977 49.4333 9.64977 49.4833 9.62977 49.5033L4.50977 59.5533V44.2933C4.50977 44.2933 4.52977 44.1933 4.57977 44.1633C4.61977 44.1333 4.67977 44.1133 4.73977 44.1133H4.76977Z" fill="url(#paint23_linear_2227_85864)"/>
<path style="mix-blend-mode:overlay" opacity="0.3" d="M4.76977 44.1133L9.45977 44.6833C9.56977 44.6933 9.64977 44.7733 9.64977 44.8633V49.4333C9.64977 49.4333 9.64977 49.4833 9.62977 49.5033L4.50977 59.5533V44.2933C4.50977 44.2933 4.52977 44.1933 4.57977 44.1633C4.61977 44.1333 4.67977 44.1133 4.73977 44.1133H4.76977Z" fill="url(#paint24_linear_2227_85864)"/>
<path d="M4.54984 33.0898C4.60984 33.0898 4.66984 33.0898 4.72984 33.1098L9.79984 34.2298C10.1098 34.2998 10.3198 34.5298 10.3198 34.7898V43.4198C10.3198 43.7398 9.99984 43.9998 9.61984 43.9998H9.50984L4.43984 43.3398C4.08984 43.2998 3.83984 43.0498 3.83984 42.7598V33.6698C3.83984 33.3498 4.15984 33.0898 4.53984 33.0898H4.54984Z" fill="#676767"/>
<path d="M4.54984 33.0898C4.60984 33.0898 4.66984 33.0898 4.72984 33.1098L9.79984 34.2298C10.1098 34.2998 10.3198 34.5298 10.3198 34.7898V43.4198C10.3198 43.7398 9.99984 43.9998 9.61984 43.9998H9.50984L4.43984 43.3398C4.08984 43.2998 3.83984 43.0498 3.83984 42.7598V33.6698C3.83984 33.3498 4.15984 33.0898 4.53984 33.0898H4.54984Z" fill="url(#paint25_linear_2227_85864)"/>
<path d="M9.55969 43.7286L4.48969 43.0786C4.30969 43.0586 4.17969 42.9286 4.17969 42.7786V33.6886C4.17969 33.4886 4.40968 33.3386 4.64968 33.3886L9.71969 34.5086C9.87969 34.5486 9.99969 34.6686 9.99969 34.8086V43.4386C9.99969 43.6286 9.79969 43.7686 9.56969 43.7386L9.55969 43.7286Z" fill="#010101"/>
<path d="M9.62953 34.7584L9.65953 43.4184L4.54953 42.7984L4.51953 33.6784L4.54953 33.6484L9.62953 34.7584Z" fill="#686C86"/>
<path opacity="0.2" d="M6.15953 42.9984V33.9984C5.26953 33.7984 4.55953 33.6484 4.55953 33.6484L4.51953 33.6784L4.54953 42.7984L6.15953 42.9984Z" fill="#010101"/>
<path opacity="0.5" d="M9.62953 34.7584L9.65953 43.4184L4.54953 42.7984L4.51953 33.6784L4.54953 33.6484L9.62953 34.7584Z" fill="url(#paint26_linear_2227_85864)"/>
<path style="mix-blend-mode:overlay" opacity="0.3" d="M9.62953 34.7584L9.65953 43.4184L4.54953 42.7984L4.51953 33.6784L4.54953 33.6484L9.62953 34.7584Z" fill="url(#paint27_linear_2227_85864)"/>
<path d="M4.47961 22.6914C4.72961 22.6914 4.94961 22.8114 5.04961 23.0014L10.2596 32.4814C10.2996 32.5514 10.3196 32.6214 10.3196 32.7014V33.5614C10.3196 33.8514 10.0396 34.0814 9.68961 34.0814C9.62961 34.0814 9.56961 34.0814 9.50961 34.0614L4.29961 32.7614C4.02961 32.6914 3.84961 32.4914 3.84961 32.2614V23.2314C3.84961 22.9414 4.12961 22.7114 4.47961 22.7114V22.6914Z" fill="#676767"/>
<path d="M4.47961 22.6914C4.72961 22.6914 4.94961 22.8114 5.04961 23.0014L10.2596 32.4814C10.2996 32.5514 10.3196 32.6214 10.3196 32.7014V33.5614C10.3196 33.8514 10.0396 34.0814 9.68961 34.0814C9.62961 34.0814 9.56961 34.0814 9.50961 34.0614L4.29961 32.7614C4.02961 32.6914 3.84961 32.4914 3.84961 32.2614V23.2314C3.84961 22.9414 4.12961 22.7114 4.47961 22.7114V22.6914Z" fill="url(#paint28_linear_2227_85864)"/>
<path d="M9.60946 33.79L4.39945 32.49C4.26945 32.46 4.18945 32.36 4.18945 32.25V23.22C4.18945 22.96 4.61945 22.88 4.75945 23.12L9.96946 32.6C9.96946 32.6 9.99945 32.67 9.99945 32.7V33.56C9.99945 33.72 9.80945 33.84 9.61945 33.8L9.60946 33.79Z" fill="#010101"/>
<path d="M9.65926 32.7133V33.5633L4.48926 32.2233L4.51926 23.3633L9.65926 32.7133Z" fill="#686C86"/>
<path opacity="0.2" d="M6.15926 26.3433L4.51926 23.3633L4.48926 32.2233L6.15926 32.6533V26.3433Z" fill="#010101"/>
<path opacity="0.5" d="M9.65926 32.7133V33.5633L4.48926 32.2233L4.51926 23.3633L9.65926 32.7133Z" fill="url(#paint29_linear_2227_85864)"/>
<path style="mix-blend-mode:overlay" opacity="0.3" d="M9.65926 32.7133V33.5633L4.48926 32.2233L4.51926 23.3633L9.65926 32.7133Z" fill="url(#paint30_linear_2227_85864)"/>
<path d="M40.0497 43.5625C40.0497 43.5625 39.9597 43.5625 39.9197 43.5625L35.2297 44.1325C34.7997 44.1825 34.4697 44.5025 34.4697 44.8625V49.4325C34.4697 49.5325 34.4897 49.6325 34.5397 49.7225L39.9797 60.3925C40.0597 60.5525 40.2397 60.6525 40.4397 60.6525C40.7197 60.6525 40.9497 60.4725 40.9497 60.2325V44.3025C40.9497 44.1025 40.8597 43.9225 40.6897 43.7825C40.5197 43.6425 40.2997 43.5725 40.0597 43.5725L40.0497 43.5625Z" fill="#676767"/>
<path d="M40.0497 43.5625C40.0497 43.5625 39.9597 43.5625 39.9197 43.5625L35.2297 44.1325C34.7997 44.1825 34.4697 44.5025 34.4697 44.8625V49.4325C34.4697 49.5325 34.4897 49.6325 34.5397 49.7225L39.9797 60.3925C40.0597 60.5525 40.2397 60.6525 40.4397 60.6525C40.7197 60.6525 40.9497 60.4725 40.9497 60.2325V44.3025C40.9497 44.1025 40.8597 43.9225 40.6897 43.7825C40.5197 43.6425 40.2997 43.5725 40.0597 43.5725L40.0497 43.5625Z" fill="url(#paint31_linear_2227_85864)"/>
<path d="M40.2798 60.2828L34.8398 49.6128C34.8098 49.5528 34.7998 49.4928 34.7998 49.4328V44.8628C34.7998 44.6328 34.9998 44.4428 35.2798 44.4028L39.9698 43.8328C40.3098 43.7928 40.6098 44.0128 40.6098 44.2928V60.2228C40.6098 60.3728 40.3598 60.4228 40.2798 60.2728V60.2828Z" fill="#010101"/>
<path d="M40.0196 44.1133L35.3296 44.6833C35.2196 44.6933 35.1396 44.7733 35.1396 44.8633V49.4333C35.1396 49.4333 35.1396 49.4833 35.1596 49.5033L40.2796 59.5533V44.2933C40.2796 44.2933 40.2596 44.1933 40.2096 44.1633C40.1696 44.1333 40.1096 44.1133 40.0496 44.1133H40.0196Z" fill="#686C86"/>
<path opacity="0.2" d="M38.6299 44.2833L40.0099 44.1133H40.0399C40.0999 44.1133 40.1499 44.1333 40.1999 44.1633C40.2399 44.2033 40.2699 44.2433 40.2699 44.2933V59.5533L38.6299 56.3333V44.2733V44.2833Z" fill="#010101"/>
<path opacity="0.5" d="M40.0196 44.1133L35.3296 44.6833C35.2196 44.6933 35.1396 44.7733 35.1396 44.8633V49.4333C35.1396 49.4333 35.1396 49.4833 35.1596 49.5033L40.2796 59.5533V44.2933C40.2796 44.2933 40.2596 44.1933 40.2096 44.1633C40.1696 44.1333 40.1096 44.1133 40.0496 44.1133H40.0196Z" fill="url(#paint32_linear_2227_85864)"/>
<path style="mix-blend-mode:overlay" opacity="0.3" d="M40.0196 44.1133L35.3296 44.6833C35.2196 44.6933 35.1396 44.7733 35.1396 44.8633V49.4333C35.1396 49.4333 35.1396 49.4833 35.1596 49.5033L40.2796 59.5533V44.2933C40.2796 44.2933 40.2596 44.1933 40.2096 44.1633C40.1696 44.1333 40.1096 44.1133 40.0496 44.1133H40.0196Z" fill="url(#paint33_linear_2227_85864)"/>
<path d="M40.2397 33.0898C40.1797 33.0898 40.1197 33.0898 40.0597 33.1098L34.9897 34.2298C34.6797 34.2998 34.4697 34.5298 34.4697 34.7898V43.4198C34.4697 43.7398 34.7897 43.9998 35.1697 43.9998H35.2797L40.3497 43.3398C40.6997 43.2998 40.9497 43.0498 40.9497 42.7598V33.6698C40.9497 33.3498 40.6297 33.0898 40.2497 33.0898H40.2397Z" fill="#676767"/>
<path d="M40.2397 33.0898C40.1797 33.0898 40.1197 33.0898 40.0597 33.1098L34.9897 34.2298C34.6797 34.2998 34.4697 34.5298 34.4697 34.7898V43.4198C34.4697 43.7398 34.7897 43.9998 35.1697 43.9998H35.2797L40.3497 43.3398C40.6997 43.2998 40.9497 43.0498 40.9497 42.7598V33.6698C40.9497 33.3498 40.6297 33.0898 40.2497 33.0898H40.2397Z" fill="url(#paint34_linear_2227_85864)"/>
<path d="M35.23 43.7286L40.3 43.0786C40.48 43.0586 40.61 42.9286 40.61 42.7786V33.6886C40.61 33.4886 40.38 33.3386 40.14 33.3886L35.07 34.5086C34.91 34.5486 34.79 34.6686 34.79 34.8086V43.4386C34.79 43.6286 34.99 43.7686 35.22 43.7386L35.23 43.7286Z" fill="#010101"/>
<path d="M35.1599 34.7584L35.1299 43.4184L40.2399 42.7984L40.2699 33.6784L40.2399 33.6484L35.1599 34.7584Z" fill="#686C86"/>
<path opacity="0.2" d="M38.6299 42.9984V33.9984C39.5199 33.7984 40.2299 33.6484 40.2299 33.6484L40.2699 33.6784L40.2399 42.7984L38.6299 42.9984Z" fill="#010101"/>
<path opacity="0.5" d="M35.1599 34.7584L35.1299 43.4184L40.2399 42.7984L40.2699 33.6784L40.2399 33.6484L35.1599 34.7584Z" fill="url(#paint35_linear_2227_85864)"/>
<path style="mix-blend-mode:overlay" opacity="0.3" d="M35.1599 34.7584L35.1299 43.4184L40.2399 42.7984L40.2699 33.6784L40.2399 33.6484L35.1599 34.7584Z" fill="url(#paint36_linear_2227_85864)"/>
<path d="M40.3 22.6914C40.05 22.6914 39.83 22.8114 39.73 23.0014L34.52 32.4814C34.48 32.5514 34.46 32.6214 34.46 32.7014V33.5614C34.46 33.8514 34.74 34.0814 35.09 34.0814C35.15 34.0814 35.21 34.0814 35.27 34.0614L40.48 32.7614C40.75 32.6914 40.93 32.4914 40.93 32.2614V23.2314C40.93 22.9414 40.65 22.7114 40.3 22.7114V22.6914Z" fill="#676767"/>
<path d="M40.3 22.6914C40.05 22.6914 39.83 22.8114 39.73 23.0014L34.52 32.4814C34.48 32.5514 34.46 32.6214 34.46 32.7014V33.5614C34.46 33.8514 34.74 34.0814 35.09 34.0814C35.15 34.0814 35.21 34.0814 35.27 34.0614L40.48 32.7614C40.75 32.6914 40.93 32.4914 40.93 32.2614V23.2314C40.93 22.9414 40.65 22.7114 40.3 22.7114V22.6914Z" fill="url(#paint37_linear_2227_85864)"/>
<path d="M35.18 33.79L40.39 32.49C40.52 32.46 40.6 32.36 40.6 32.25V23.22C40.6 22.96 40.17 22.88 40.03 23.12L34.82 32.6C34.82 32.6 34.79 32.67 34.79 32.7V33.56C34.79 33.72 34.98 33.84 35.17 33.8L35.18 33.79Z" fill="#010101"/>
<path d="M35.1299 32.7133V33.5633L40.2999 32.2233L40.2699 23.3633L35.1299 32.7133Z" fill="#686C86"/>
<path opacity="0.2" d="M38.6299 26.3433L40.2699 23.3633L40.2999 32.2233L38.6299 32.6533V26.3433Z" fill="#010101"/>
<path opacity="0.5" d="M35.1299 32.7133V33.5633L40.2999 32.2233L40.2699 23.3633L35.1299 32.7133Z" fill="url(#paint38_linear_2227_85864)"/>
<path style="mix-blend-mode:overlay" opacity="0.3" d="M35.1299 32.7133V33.5633L40.2999 32.2233L40.2699 23.3633L35.1299 32.7133Z" fill="url(#paint39_linear_2227_85864)"/>
<path d="M7.55024 63.7617C7.72024 63.7617 7.86024 63.8817 7.86024 64.0217V65.2517C7.86024 65.3917 7.72024 65.5117 7.55024 65.5117C7.38024 65.5117 7.24023 65.3917 7.24023 65.2517V64.0217C7.24023 63.8817 7.38024 63.7617 7.55024 63.7617Z" fill="#676767"/>
<path d="M7.61066 65.4416C7.72066 65.4016 7.79066 65.3216 7.79066 65.2216V64.0716C7.79066 63.9716 7.72066 63.8816 7.61066 63.8516C7.50066 63.8916 7.43066 63.9716 7.43066 64.0716V65.2216C7.43066 65.3216 7.50066 65.4116 7.61066 65.4416Z" fill="url(#paint40_linear_2227_85864)"/>
<path d="M8.76019 63.9922C8.93019 63.9922 9.07019 64.1122 9.07019 64.2522V65.4822C9.07019 65.6222 8.93019 65.7422 8.76019 65.7422C8.59019 65.7422 8.4502 65.6222 8.4502 65.4822V64.2522C8.4502 64.1122 8.59019 63.9922 8.76019 63.9922Z" fill="#676767"/>
<path d="M8.82063 65.6603C8.93063 65.6203 9.00063 65.5403 9.00063 65.4403V64.2903C9.00063 64.1903 8.93063 64.1003 8.82063 64.0703C8.71063 64.1103 8.64062 64.1903 8.64062 64.2903V65.4403C8.64062 65.5403 8.71063 65.6303 8.82063 65.6603Z" fill="url(#paint41_linear_2227_85864)"/>
<path d="M9.97016 64.2617C10.1402 64.2617 10.2802 64.3817 10.2802 64.5217V65.7517C10.2802 65.8917 10.1402 66.0117 9.97016 66.0117C9.80016 66.0117 9.66016 65.8917 9.66016 65.7517V64.5217C9.66016 64.3817 9.80016 64.2617 9.97016 64.2617Z" fill="#676767"/>
<path d="M10.0306 65.9298C10.1406 65.8898 10.2106 65.8098 10.2106 65.7098V64.5598C10.2106 64.4598 10.1406 64.3698 10.0306 64.3398C9.92059 64.3798 9.85059 64.4598 9.85059 64.5598V65.7098C9.85059 65.8098 9.92059 65.8998 10.0306 65.9298Z" fill="url(#paint42_linear_2227_85864)"/>
<path d="M34.3696 66.0117C34.5396 66.0117 34.6796 65.8917 34.6796 65.7517V64.5217C34.6796 64.3817 34.5396 64.2617 34.3696 64.2617C34.1996 64.2617 34.0596 64.3817 34.0596 64.5217V65.7517C34.0596 65.8917 34.1996 66.0117 34.3696 66.0117Z" fill="#676767"/>
<path d="M34.4193 64.3398C34.5293 64.3798 34.5993 64.4598 34.5993 64.5598V65.7098C34.5993 65.8098 34.5293 65.8998 34.4193 65.9298C34.3093 65.8898 34.2393 65.8098 34.2393 65.7098V64.5598C34.2393 64.4598 34.3093 64.3698 34.4193 64.3398Z" fill="url(#paint43_linear_2227_85864)"/>
<path d="M35.5795 65.7812C35.7495 65.7812 35.8895 65.6612 35.8895 65.5212V64.2913C35.8895 64.1513 35.7495 64.0312 35.5795 64.0312C35.4095 64.0312 35.2695 64.1513 35.2695 64.2913V65.5212C35.2695 65.6612 35.4095 65.7812 35.5795 65.7812Z" fill="#676767"/>
<path d="M35.6292 64.1094C35.7392 64.1494 35.8092 64.2294 35.8092 64.3294V65.4794C35.8092 65.5794 35.7392 65.6694 35.6292 65.6994C35.5192 65.6594 35.4492 65.5794 35.4492 65.4794V64.3294C35.4492 64.2294 35.5192 64.1394 35.6292 64.1094Z" fill="url(#paint44_linear_2227_85864)"/>
<path d="M36.7797 65.5117C36.9497 65.5117 37.0897 65.3917 37.0897 65.2517V64.0217C37.0897 63.8817 36.9497 63.7617 36.7797 63.7617C36.6097 63.7617 36.4697 63.8817 36.4697 64.0217V65.2517C36.4697 65.3917 36.6097 65.5117 36.7797 65.5117Z" fill="#676767"/>
<path d="M36.8402 63.8398C36.9502 63.8798 37.0202 63.9598 37.0202 64.0598V65.2098C37.0202 65.3098 36.9502 65.3998 36.8402 65.4298C36.7302 65.3898 36.6602 65.3098 36.6602 65.2098V64.0598C36.6602 63.9598 36.7302 63.8698 36.8402 63.8398Z" fill="url(#paint45_linear_2227_85864)"/>
<path d="M38.4902 3.92188V4.56187C39.7002 5.17187 40.5202 6.27187 40.5202 7.54187V6.90187C40.5202 5.64187 39.7102 4.53188 38.4902 3.92188Z" fill="#F26722"/>
<path d="M40.5202 7.53281V7.36281C40.5202 6.10281 39.7102 4.99281 38.4902 4.38281V4.55281C39.7002 5.16281 40.5202 6.26281 40.5202 7.53281Z" fill="url(#paint46_radial_2227_85864)"/>
<path d="M38.49 3.92188C37.86 3.60188 37.12 3.42188 36.32 3.42188H33.67L33.5 4.06187H36.32C37.11 4.06187 37.85 4.25187 38.49 4.56187V3.92188Z" fill="#CB2026"/>
<path d="M33.5498 3.91016L33.5098 4.06015H36.3298C37.1198 4.06015 37.8598 4.25015 38.4998 4.56015V4.41016C37.8698 4.09016 37.1298 3.91016 36.3298 3.91016H33.5498Z" fill="url(#paint47_radial_2227_85864)"/>
<path opacity="0.3" d="M38.0196 4.20083C38.1196 4.25083 38.2396 4.31083 38.3396 4.26083C38.4296 4.22083 38.4396 4.10083 38.3896 4.03083C38.3396 3.96083 38.2396 3.91083 38.1396 3.88083C37.4996 3.64083 36.7996 3.57083 36.0996 3.54083C35.6996 3.53083 35.2996 3.54083 34.9096 3.54083C34.6796 3.54083 34.1496 3.45083 33.9796 3.64083C33.9196 3.71083 33.9196 3.87083 33.8896 3.95083C34.5496 3.95083 35.2196 3.94083 35.8796 3.95083C36.4496 3.95083 37.0296 3.97083 37.5896 4.08083C37.7396 4.11083 37.8896 4.15083 38.0196 4.21083V4.20083Z" fill="#640E0E"/>
<path opacity="0.5" d="M40.3704 6.26234C40.1704 5.90234 39.9704 5.54234 39.6904 5.22234C39.4104 4.90234 39.0504 4.62234 38.6104 4.47234C38.5804 4.36234 38.6104 4.25234 38.6704 4.15234C39.5504 4.62234 40.1804 5.40235 40.3604 6.25235L40.3704 6.26234Z" fill="#EF3D23"/>
<path d="M5.87961 3.92188V4.56187C4.66961 5.17187 3.84961 6.27187 3.84961 7.54187V6.90187C3.84961 5.64187 4.65961 4.53188 5.87961 3.92188Z" fill="#F26722"/>
<path d="M3.84961 7.53281V7.36281C3.84961 6.10281 4.65961 4.99281 5.87961 4.38281V4.55281C4.66961 5.16281 3.84961 6.26281 3.84961 7.53281Z" fill="url(#paint48_radial_2227_85864)"/>
<path d="M5.87988 3.92188C6.50988 3.60188 7.24988 3.42188 8.04988 3.42188H10.6999L10.8699 4.06187H8.04988C7.25988 4.06187 6.51988 4.25187 5.87988 4.56187V3.92188Z" fill="#CB2026"/>
<path d="M10.8191 3.91016L10.8591 4.06015H8.03914C7.24914 4.06015 6.50914 4.25015 5.86914 4.56015V4.41016C6.49914 4.09016 7.23914 3.91016 8.03914 3.91016H10.8191Z" fill="url(#paint49_radial_2227_85864)"/>
<path opacity="0.3" d="M6.34915 4.20083C6.24915 4.25083 6.12915 4.31083 6.02915 4.26083C5.93915 4.22083 5.92915 4.10083 5.97915 4.03083C6.03915 3.96083 6.12915 3.91083 6.22915 3.88083C6.86915 3.64083 7.56916 3.57083 8.26916 3.54083C8.66916 3.53083 9.06915 3.54083 9.45915 3.54083C9.68915 3.54083 10.2192 3.45083 10.3892 3.64083C10.4492 3.71083 10.4492 3.87083 10.4792 3.95083C9.81916 3.95083 9.14915 3.94083 8.48915 3.95083C7.91915 3.95083 7.33915 3.97083 6.77915 4.08083C6.62915 4.11083 6.47915 4.15083 6.34915 4.21083V4.20083Z" fill="#640E0E"/>
<path opacity="0.5" d="M4 6.26234C4.2 5.90234 4.4 5.54234 4.68 5.22234C4.96 4.90234 5.32 4.62234 5.76 4.47234C5.79 4.36234 5.76 4.25234 5.7 4.15234C4.82 4.62234 4.19 5.40235 4.01 6.25235L4 6.26234Z" fill="#EF3D23"/>
<path d="M20.6201 3.71906C20.6201 3.61906 20.9201 3.53906 21.2901 3.53906H24.4901C24.8601 3.53906 25.1601 3.61906 25.1601 3.71906C25.1601 3.81906 24.8601 3.89906 24.4901 3.89906H21.2901C20.9201 3.89906 20.6201 3.81906 20.6201 3.71906Z" fill="#676767"/>
<path d="M24.9603 3.68985C24.8703 3.62985 24.6403 3.58984 24.3803 3.58984H21.4003C21.1403 3.58984 20.9203 3.62985 20.8203 3.68985C20.9103 3.74985 21.1403 3.78984 21.4003 3.78984H24.3803C24.6403 3.78984 24.8603 3.74985 24.9603 3.68985Z" fill="url(#paint50_linear_2227_85864)"/>
<path style="mix-blend-mode:overlay" opacity="0.5" d="M20.8098 52.9022H21.1198C21.1198 52.9022 20.2998 42.0022 21.1198 29.4922C21.1198 29.4922 21.0098 29.4922 20.8098 29.4922C19.9998 41.8322 20.7898 52.6022 20.8098 52.8922V52.9022Z" fill="url(#paint51_linear_2227_85864)"/>
<path style="mix-blend-mode:overlay" opacity="0.5" d="M10.2395 52.4414C13.4595 53.1014 17.5795 53.2414 20.4895 53.2314C17.6195 53.2314 13.7295 53.0814 10.6295 52.4614L10.2295 52.4414H10.2395Z" fill="url(#paint52_linear_2227_85864)"/>
<path style="mix-blend-mode:overlay" opacity="0.5" d="M6.24961 4.40164C6.69961 4.17164 8.84961 3.21164 14.0396 3.19164C7.89961 3.17164 5.84961 4.45164 5.84961 4.45164C5.96961 4.43164 6.09961 4.42164 6.24961 4.40164Z" fill="url(#paint53_linear_2227_85864)"/>
<path style="mix-blend-mode:overlay" opacity="0.5" d="M15.9697 86.0703L16.1497 86.6803H16.4497L16.2697 86.0703H15.9697Z" fill="url(#paint54_linear_2227_85864)"/>
<path style="mix-blend-mode:overlay" opacity="0.5" d="M18.6592 3.39219C18.7692 3.39219 18.8792 3.41219 18.9892 3.42219C18.9892 3.42219 18.1092 2.67219 18.9892 1.99219H18.6792C17.8992 2.60219 18.5092 3.26219 18.6492 3.40219L18.6592 3.39219Z" fill="url(#paint55_linear_2227_85864)"/>
<path style="mix-blend-mode:overlay" opacity="0.5" d="M22.3497 86.6836H22.0397C20.9397 87.3536 22.0397 88.0836 22.0397 88.0836H22.3497C22.3497 88.0836 21.2497 87.3536 22.3497 86.6836Z" fill="url(#paint56_linear_2227_85864)"/>
<path d="M40.2695 58.9283L44.7795 57.4883V58.1883C44.7795 58.5183 44.5395 58.8083 44.1695 58.9283L40.2695 60.1783V58.9383V58.9283Z" fill="#010101"/>
<path opacity="0.4" d="M40.2695 58.8384L44.7795 57.3984V58.0984C44.7795 58.4284 44.5395 58.7184 44.1695 58.8384L40.2695 60.0884V58.8484V58.8384Z" fill="url(#paint57_linear_2227_85864)"/>
<path d="M41.5594 57.9501L44.4094 57.1801C44.5894 57.1301 44.7794 57.2401 44.7794 57.4001V58.2601L41.3594 59.1801V58.1701C41.3594 58.0701 41.4394 57.9801 41.5594 57.9501Z" fill="#333333"/>
<path d="M41.5594 57.9501L44.4094 57.1801C44.5894 57.1301 44.7794 57.2401 44.7794 57.4001V58.2601L41.3594 59.1801V58.1701C41.3594 58.0701 41.4394 57.9801 41.5594 57.9501Z" fill="url(#paint58_linear_2227_85864)"/>
<path d="M4.51977 58.9283L0.00976562 57.4883V58.1883C0.00976562 58.5183 0.249766 58.8083 0.619766 58.9283L4.51977 60.1783V58.9383V58.9283Z" fill="#010101"/>
<path opacity="0.4" d="M4.51977 58.8384L0.00976562 57.3984V58.0984C0.00976562 58.4284 0.249766 58.7184 0.619766 58.8384L4.51977 60.0884V58.8484V58.8384Z" fill="url(#paint59_linear_2227_85864)"/>
<path d="M3.22 57.9501L0.369999 57.1801C0.189999 57.1301 0 57.2401 0 57.4001V58.2601L3.42 59.1801V58.1701C3.42 58.0701 3.34 57.9801 3.22 57.9501Z" fill="#333333"/>
<path d="M3.22 57.9501L0.369999 57.1801C0.189999 57.1301 0 57.2401 0 57.4001V58.2601L3.42 59.1801V58.1701C3.42 58.0701 3.34 57.9801 3.22 57.9501Z" fill="url(#paint60_linear_2227_85864)"/>
<path opacity="0.7" d="M13.8292 46.2422H31.9592L31.2892 48.0922H13.1592L13.8292 46.2422Z" fill="url(#paint61_linear_2227_85864)"/>
<path d="M13.4995 46.6914H31.2795C31.8195 46.6914 32.2595 47.0514 32.2595 47.5014V48.3614C32.2595 48.8114 31.8195 49.1714 31.2795 49.1714H13.4995C12.9595 49.1714 12.5195 48.8114 12.5195 48.3614V47.5014C12.5195 47.0514 12.9595 46.6914 13.4995 46.6914Z" fill="#989898"/>
<path d="M13.4995 49.1714H20.1995V46.6914H13.4995C12.9595 46.6914 12.5195 47.0514 12.5195 47.5014V48.3614C12.5195 48.8114 12.9595 49.1714 13.4995 49.1714Z" fill="#5690CC"/>
<path opacity="0.5" d="M19.49 47.2812V48.5813H13.51C13.36 48.5813 13.25 48.4813 13.25 48.3613V47.5013C13.25 47.3813 13.37 47.2812 13.51 47.2812H19.49Z" fill="#166AB4"/>
<path d="M31.2791 49.1714H24.5791V46.6914H31.2791C31.8191 46.6914 32.2591 47.0514 32.2591 47.5014V48.3614C32.2591 48.8114 31.8191 49.1714 31.2791 49.1714Z" fill="#CB2026"/>
<path opacity="0.3" d="M31.2798 47.2812C31.4298 47.2812 31.5398 47.3813 31.5398 47.5013V48.3613C31.5398 48.4813 31.4198 48.5813 31.2798 48.5813H25.2998V47.2812H31.2798Z" fill="#640E0E"/>
<path style="mix-blend-mode:overlay" opacity="0.5" d="M13.4995 46.6914H31.2795C31.8195 46.6914 32.2595 47.0514 32.2595 47.5014V48.3614C32.2595 48.8114 31.8195 49.1714 31.2795 49.1714H13.4995C12.9595 49.1714 12.5195 48.8114 12.5195 48.3614V47.5014C12.5195 47.0514 12.9595 46.6914 13.4995 46.6914Z" fill="url(#paint62_radial_2227_85864)"/>
<path opacity="0.5" d="M13.4995 46.6914H31.2795C31.8195 46.6914 32.2595 47.0514 32.2595 47.5014V48.3614C32.2595 48.8114 31.8195 49.1714 31.2795 49.1714H13.4995C12.9595 49.1714 12.5195 48.8114 12.5195 48.3614V47.5014C12.5195 47.0514 12.9595 46.6914 13.4995 46.6914Z" fill="url(#paint63_linear_2227_85864)"/>
<g style="mix-blend-mode:overlay">
<path d="M13.8599 48.9714H30.9199C31.4399 48.9714 31.8599 48.6514 31.8599 48.2614V47.9414C31.8599 48.3314 31.4399 48.6514 30.9199 48.6514H13.8599C13.3399 48.6514 12.9199 48.3314 12.9199 47.9414V48.2614C12.9199 48.6514 13.3399 48.9714 13.8599 48.9714Z" fill="url(#paint64_linear_2227_85864)"/>
</g>
<path style="mix-blend-mode:overlay" d="M13.8599 46.9023H30.9199C31.4399 46.9023 31.8599 47.2223 31.8599 47.6123V47.9323C31.8599 47.5423 31.4399 47.2223 30.9199 47.2223H13.8599C13.3399 47.2223 12.9199 47.5423 12.9199 47.9323V47.6123C12.9199 47.2223 13.3399 46.9023 13.8599 46.9023Z" fill="url(#paint65_linear_2227_85864)"/>
<path opacity="0.4" d="M31.8298 49.04L31.5798 48.8C31.4998 48.72 31.4398 48.56 31.4398 48.39V47.5C31.4398 47.33 31.4898 47.17 31.5798 47.08L31.8298 46.84C31.7598 46.8 31.6898 46.77 31.6098 46.75L31.4398 46.91C31.3498 47 31.2998 47.16 31.2998 47.35V48.53C31.2998 48.71 31.3598 48.88 31.4398 48.96L31.6098 49.13C31.6898 49.11 31.7598 49.08 31.8298 49.04Z" fill="white"/>
<path opacity="0.4" d="M12.9697 49.04L13.2197 48.8C13.2997 48.72 13.3597 48.56 13.3597 48.39V47.5C13.3597 47.33 13.3097 47.17 13.2197 47.08L12.9697 46.84C13.0397 46.8 13.1097 46.77 13.1897 46.75L13.3597 46.91C13.4497 47 13.4997 47.16 13.4997 47.35V48.53C13.4997 48.71 13.4397 48.88 13.3597 48.96L13.1897 49.13C13.1097 49.11 13.0397 49.08 12.9697 49.04Z" fill="white"/>
<g style="mix-blend-mode:overlay" opacity="0.4">
<path d="M30.8292 47.8711H13.9492V47.9911H30.8292V47.8711Z" fill="#010101"/>
</g>
<defs>
<linearGradient id="paint0_linear_2227_85864" x1="35.2998" y1="1.41969" x2="9.4898" y2="1.41969" gradientUnits="userSpaceOnUse">
<stop stop-color="#C8C5C5"/>
<stop offset="0.04" stop-color="#676868"/>
<stop offset="0.11" stop-color="white"/>
<stop offset="0.3" stop-color="#939292"/>
<stop offset="0.49" stop-color="white"/>
<stop offset="0.63" stop-color="#676868"/>
<stop offset="0.77" stop-color="#939292"/>
<stop offset="0.82" stop-color="#C8C5C5"/>
<stop offset="1" stop-color="#343433"/>
</linearGradient>
<linearGradient id="paint1_linear_2227_85864" x1="22.3898" y1="2.36969" x2="22.3898" y2="1.17969" gradientUnits="userSpaceOnUse">
<stop stop-color="#010101"/>
<stop offset="1" stop-color="#010101" stop-opacity="0"/>
</linearGradient>
<linearGradient id="paint2_linear_2227_85864" x1="30.6296" y1="1.0475" x2="35.4696" y2="1.0475" gradientUnits="userSpaceOnUse">
<stop stop-color="#C8C5C5"/>
<stop offset="0.04" stop-color="#676868"/>
<stop offset="0.11" stop-color="white"/>
<stop offset="0.3" stop-color="#939292"/>
<stop offset="0.49" stop-color="white"/>
<stop offset="0.63" stop-color="#676868"/>
<stop offset="0.77" stop-color="#939292"/>
<stop offset="0.82" stop-color="#C8C5C5"/>
<stop offset="1" stop-color="#343433"/>
</linearGradient>
<linearGradient id="paint3_linear_2227_85864" x1="31.8099" y1="-0.352501" x2="31.8099" y2="2.8775" gradientUnits="userSpaceOnUse">
<stop stop-color="#C8C5C5"/>
<stop offset="0.04" stop-color="#676868"/>
<stop offset="0.11" stop-color="white"/>
<stop offset="0.3" stop-color="#939292"/>
<stop offset="0.49" stop-color="white"/>
<stop offset="0.63" stop-color="#676868"/>
<stop offset="0.77" stop-color="#939292"/>
<stop offset="0.82" stop-color="#C8C5C5"/>
<stop offset="1" stop-color="#343433"/>
</linearGradient>
<linearGradient id="paint4_linear_2227_85864" x1="11.7898" y1="1.0475" x2="16.6298" y2="1.0475" gradientUnits="userSpaceOnUse">
<stop stop-color="#C8C5C5"/>
<stop offset="0.04" stop-color="#676868"/>
<stop offset="0.11" stop-color="white"/>
<stop offset="0.3" stop-color="#939292"/>
<stop offset="0.49" stop-color="white"/>
<stop offset="0.63" stop-color="#676868"/>
<stop offset="0.77" stop-color="#939292"/>
<stop offset="0.82" stop-color="#C8C5C5"/>
<stop offset="1" stop-color="#343433"/>
</linearGradient>
<linearGradient id="paint5_linear_2227_85864" x1="12.9691" y1="0.0774996" x2="12.9691" y2="2.3675" gradientUnits="userSpaceOnUse">
<stop stop-color="#C8C5C5"/>
<stop offset="0.04" stop-color="#676868"/>
<stop offset="0.11" stop-color="white"/>
<stop offset="0.3" stop-color="#939292"/>
<stop offset="0.49" stop-color="white"/>
<stop offset="0.63" stop-color="#676868"/>
<stop offset="0.77" stop-color="#939292"/>
<stop offset="0.82" stop-color="#C8C5C5"/>
<stop offset="1" stop-color="#343433"/>
</linearGradient>
<linearGradient id="paint6_linear_2227_85864" x1="32.5505" y1="88.5798" x2="12.2405" y2="88.5798" gradientUnits="userSpaceOnUse">
<stop stop-color="#C8C5C5"/>
<stop offset="0.04" stop-color="#676868"/>
<stop offset="0.11" stop-color="white"/>
<stop offset="0.3" stop-color="#939292"/>
<stop offset="0.49" stop-color="white"/>
<stop offset="0.63" stop-color="#676868"/>
<stop offset="0.77" stop-color="#939292"/>
<stop offset="0.82" stop-color="#C8C5C5"/>
<stop offset="1" stop-color="#343433"/>
</linearGradient>
<linearGradient id="paint7_linear_2227_85864" x1="-1230.89" y1="87.5899" x2="-1231.89" y2="88.7699" gradientUnits="userSpaceOnUse">
<stop stop-color="#010101"/>
<stop offset="1" stop-color="#010101" stop-opacity="0"/>
</linearGradient>
<linearGradient id="paint8_linear_2227_85864" x1="28.8802" y1="88.9598" x2="32.6902" y2="88.9598" gradientUnits="userSpaceOnUse">
<stop stop-color="#C8C5C5"/>
<stop offset="0.04" stop-color="#676868"/>
<stop offset="0.11" stop-color="white"/>
<stop offset="0.3" stop-color="#939292"/>
<stop offset="0.49" stop-color="white"/>
<stop offset="0.63" stop-color="#676868"/>
<stop offset="0.77" stop-color="#939292"/>
<stop offset="0.82" stop-color="#C8C5C5"/>
<stop offset="1" stop-color="#343433"/>
</linearGradient>
<linearGradient id="paint9_linear_2227_85864" x1="29.8002" y1="90.3498" x2="29.8002" y2="87.1298" gradientUnits="userSpaceOnUse">
<stop stop-color="#C8C5C5"/>
<stop offset="0.04" stop-color="#676868"/>
<stop offset="0.11" stop-color="white"/>
<stop offset="0.3" stop-color="#939292"/>
<stop offset="0.49" stop-color="white"/>
<stop offset="0.63" stop-color="#676868"/>
<stop offset="0.77" stop-color="#939292"/>
<stop offset="0.82" stop-color="#C8C5C5"/>
<stop offset="1" stop-color="#343433"/>
</linearGradient>
<linearGradient id="paint10_linear_2227_85864" x1="14.0501" y1="88.9598" x2="17.8601" y2="88.9598" gradientUnits="userSpaceOnUse">
<stop stop-color="#C8C5C5"/>
<stop offset="0.04" stop-color="#676868"/>
<stop offset="0.11" stop-color="white"/>
<stop offset="0.3" stop-color="#939292"/>
<stop offset="0.49" stop-color="white"/>
<stop offset="0.63" stop-color="#676868"/>
<stop offset="0.77" stop-color="#939292"/>
<stop offset="0.82" stop-color="#C8C5C5"/>
<stop offset="1" stop-color="#343433"/>
</linearGradient>
<linearGradient id="paint11_linear_2227_85864" x1="14.9799" y1="89.9298" x2="14.9799" y2="87.6298" gradientUnits="userSpaceOnUse">
<stop stop-color="#C8C5C5"/>
<stop offset="0.04" stop-color="#676868"/>
<stop offset="0.11" stop-color="white"/>
<stop offset="0.3" stop-color="#939292"/>
<stop offset="0.49" stop-color="white"/>
<stop offset="0.63" stop-color="#676868"/>
<stop offset="0.77" stop-color="#939292"/>
<stop offset="0.82" stop-color="#C8C5C5"/>
<stop offset="1" stop-color="#343433"/>
</linearGradient>
<linearGradient id="paint12_linear_2227_85864" x1="22.3502" y1="87.2102" x2="22.3502" y2="86.6802" gradientUnits="userSpaceOnUse">
<stop stop-color="#010101" stop-opacity="0"/>
<stop offset="0.99" stop-color="#010101"/>
</linearGradient>
<linearGradient id="paint13_linear_2227_85864" x1="22.3502" y1="86.8302" x2="22.3502" y2="88.0702" gradientUnits="userSpaceOnUse">
<stop offset="0.42" stop-color="white" stop-opacity="0"/>
<stop offset="1" stop-color="white"/>
</linearGradient>
<linearGradient id="paint14_linear_2227_85864" x1="22.3504" y1="3.39016" x2="22.3504" y2="4.12016" gradientUnits="userSpaceOnUse">
<stop stop-color="#010101"/>
<stop offset="1" stop-color="#010101" stop-opacity="0"/>
</linearGradient>
<radialGradient id="paint15_radial_2227_85864" cx="0" cy="0" r="1" gradientUnits="userSpaceOnUse" gradientTransform="translate(17.6918 44.2008) scale(36.5541 30.21)">
<stop stop-color="white" stop-opacity="0"/>
<stop offset="1" stop-color="white"/>
</radialGradient>
<linearGradient id="paint16_linear_2227_85864" x1="22.3501" y1="64.5812" x2="22.3501" y2="63.7012" gradientUnits="userSpaceOnUse">
<stop stop-color="#010101"/>
<stop offset="1" stop-color="#010101" stop-opacity="0"/>
</linearGradient>
<radialGradient id="paint17_radial_2227_85864" cx="0" cy="0" r="1" gradientUnits="userSpaceOnUse" gradientTransform="translate(45.0754 58.4716) rotate(-180) scale(29.6208 24.48)">
<stop stop-color="white" stop-opacity="0"/>
<stop offset="1" stop-color="white"/>
</radialGradient>
<radialGradient id="paint18_radial_2227_85864" cx="0" cy="0" r="1" gradientUnits="userSpaceOnUse" gradientTransform="translate(41.6632 57.0716) rotate(-180) scale(28.5076 23.56)">
<stop offset="0.01" stop-color="#010101"/>
<stop offset="1" stop-color="#010101" stop-opacity="0"/>
</radialGradient>
<linearGradient id="paint19_linear_2227_85864" x1="22.3501" y1="17.2894" x2="22.3501" y2="18.1694" gradientUnits="userSpaceOnUse">
<stop stop-color="#010101"/>
<stop offset="1" stop-color="#010101" stop-opacity="0"/>
</linearGradient>
<radialGradient id="paint20_radial_2227_85864" cx="0" cy="0" r="1" gradientUnits="userSpaceOnUse" gradientTransform="translate(45.0754 23.3284) rotate(-180) scale(29.6208 24.48)">
<stop stop-color="white" stop-opacity="0"/>
<stop offset="1" stop-color="white"/>
</radialGradient>
<radialGradient id="paint21_radial_2227_85864" cx="0" cy="0" r="1" gradientUnits="userSpaceOnUse" gradientTransform="translate(38.4325 27.6184) rotate(180) scale(39.0951 32.31)">
<stop offset="0.01" stop-color="#010101"/>
<stop offset="1" stop-color="#010101" stop-opacity="0"/>
</radialGradient>
<linearGradient id="paint22_linear_2227_85864" x1="3.79984" y1="52.1025" x2="4.18984" y2="52.1025" gradientUnits="userSpaceOnUse">
<stop stop-color="#010101"/>
<stop offset="1" stop-color="#010101" stop-opacity="0"/>
</linearGradient>
<linearGradient id="paint23_linear_2227_85864" x1="4.53977" y1="51.8333" x2="6.20977" y2="51.8333" gradientUnits="userSpaceOnUse">
<stop stop-color="white"/>
<stop offset="1" stop-color="white" stop-opacity="0"/>
</linearGradient>
<linearGradient id="paint24_linear_2227_85864" x1="7.31977" y1="51.8333" x2="9.56977" y2="51.8333" gradientUnits="userSpaceOnUse">
<stop stop-color="#010101" stop-opacity="0"/>
<stop offset="0.99" stop-color="#010101"/>
</linearGradient>
<linearGradient id="paint25_linear_2227_85864" x1="3.85984" y1="38.5498" x2="4.18984" y2="38.5498" gradientUnits="userSpaceOnUse">
<stop stop-color="#010101"/>
<stop offset="1" stop-color="#010101" stop-opacity="0"/>
</linearGradient>
<linearGradient id="paint26_linear_2227_85864" x1="-1230.89" y1="38.5384" x2="-1231.89" y2="38.5384" gradientUnits="userSpaceOnUse">
<stop stop-color="white"/>
<stop offset="1" stop-color="white" stop-opacity="0"/>
</linearGradient>
<linearGradient id="paint27_linear_2227_85864" x1="7.31953" y1="38.5384" x2="9.56953" y2="38.5384" gradientUnits="userSpaceOnUse">
<stop stop-color="#010101" stop-opacity="0"/>
<stop offset="0.99" stop-color="#010101"/>
</linearGradient>
<linearGradient id="paint28_linear_2227_85864" x1="3.85961" y1="28.3914" x2="4.18961" y2="28.3914" gradientUnits="userSpaceOnUse">
<stop stop-color="#010101"/>
<stop offset="1" stop-color="#010101" stop-opacity="0"/>
</linearGradient>
<linearGradient id="paint29_linear_2227_85864" x1="4.53926" y1="28.4633" x2="6.20926" y2="28.4633" gradientUnits="userSpaceOnUse">
<stop stop-color="white"/>
<stop offset="1" stop-color="white" stop-opacity="0"/>
</linearGradient>
<linearGradient id="paint30_linear_2227_85864" x1="7.31926" y1="28.4633" x2="9.56926" y2="28.4633" gradientUnits="userSpaceOnUse">
<stop stop-color="#010101" stop-opacity="0"/>
<stop offset="0.99" stop-color="#010101"/>
</linearGradient>
<linearGradient id="paint31_linear_2227_85864" x1="40.9897" y1="52.1025" x2="40.5897" y2="52.1025" gradientUnits="userSpaceOnUse">
<stop stop-color="#010101"/>
<stop offset="1" stop-color="#010101" stop-opacity="0"/>
</linearGradient>
<linearGradient id="paint32_linear_2227_85864" x1="40.2396" y1="51.8333" x2="38.5796" y2="51.8333" gradientUnits="userSpaceOnUse">
<stop stop-color="white"/>
<stop offset="1" stop-color="white" stop-opacity="0"/>
</linearGradient>
<linearGradient id="paint33_linear_2227_85864" x1="37.4696" y1="51.8333" x2="35.2196" y2="51.8333" gradientUnits="userSpaceOnUse">
<stop stop-color="#010101" stop-opacity="0"/>
<stop offset="0.99" stop-color="#010101"/>
</linearGradient>
<linearGradient id="paint34_linear_2227_85864" x1="40.9197" y1="38.5498" x2="40.5897" y2="38.5498" gradientUnits="userSpaceOnUse">
<stop stop-color="#010101"/>
<stop offset="1" stop-color="#010101" stop-opacity="0"/>
</linearGradient>
<linearGradient id="paint35_linear_2227_85864" x1="40.2399" y1="38.5384" x2="38.5799" y2="38.5384" gradientUnits="userSpaceOnUse">
<stop stop-color="white"/>
<stop offset="1" stop-color="white" stop-opacity="0"/>
</linearGradient>
<linearGradient id="paint36_linear_2227_85864" x1="37.4699" y1="38.5384" x2="35.2199" y2="38.5384" gradientUnits="userSpaceOnUse">
<stop stop-color="#010101" stop-opacity="0"/>
<stop offset="0.99" stop-color="#010101"/>
</linearGradient>
<linearGradient id="paint37_linear_2227_85864" x1="40.92" y1="28.3914" x2="40.59" y2="28.3914" gradientUnits="userSpaceOnUse">
<stop stop-color="#010101"/>
<stop offset="1" stop-color="#010101" stop-opacity="0"/>
</linearGradient>
<linearGradient id="paint38_linear_2227_85864" x1="40.2399" y1="28.4633" x2="38.5799" y2="28.4633" gradientUnits="userSpaceOnUse">
<stop stop-color="white"/>
<stop offset="1" stop-color="white" stop-opacity="0"/>
</linearGradient>
<linearGradient id="paint39_linear_2227_85864" x1="37.4699" y1="28.4633" x2="35.2199" y2="28.4633" gradientUnits="userSpaceOnUse">
<stop stop-color="#010101" stop-opacity="0"/>
<stop offset="0.99" stop-color="#010101"/>
</linearGradient>
<linearGradient id="paint40_linear_2227_85864" x1="7.79066" y1="64.6416" x2="7.43066" y2="64.6416" gradientUnits="userSpaceOnUse">
<stop stop-color="#010101"/>
<stop offset="1" stop-color="#010101" stop-opacity="0"/>
</linearGradient>
<linearGradient id="paint41_linear_2227_85864" x1="9.00063" y1="64.8703" x2="8.64062" y2="64.8703" gradientUnits="userSpaceOnUse">
<stop stop-color="#010101"/>
<stop offset="1" stop-color="#010101" stop-opacity="0"/>
</linearGradient>
<linearGradient id="paint42_linear_2227_85864" x1="10.2106" y1="65.1398" x2="9.85059" y2="65.1398" gradientUnits="userSpaceOnUse">
<stop stop-color="#010101"/>
<stop offset="1" stop-color="#010101" stop-opacity="0"/>
</linearGradient>
<linearGradient id="paint43_linear_2227_85864" x1="34.5993" y1="65.1398" x2="34.2393" y2="65.1398" gradientUnits="userSpaceOnUse">
<stop stop-color="#010101"/>
<stop offset="1" stop-color="#010101" stop-opacity="0"/>
</linearGradient>
<linearGradient id="paint44_linear_2227_85864" x1="35.8092" y1="64.9094" x2="35.4492" y2="64.9094" gradientUnits="userSpaceOnUse">
<stop stop-color="#010101"/>
<stop offset="1" stop-color="#010101" stop-opacity="0"/>
</linearGradient>
<linearGradient id="paint45_linear_2227_85864" x1="37.0202" y1="64.6398" x2="36.6602" y2="64.6398" gradientUnits="userSpaceOnUse">
<stop stop-color="#010101"/>
<stop offset="1" stop-color="#010101" stop-opacity="0"/>
</linearGradient>
<radialGradient id="paint46_radial_2227_85864" cx="0" cy="0" r="1" gradientUnits="userSpaceOnUse" gradientTransform="translate(45.3291 5.96281) rotate(180) scale(1.5246 1.26)">
<stop stop-color="white" stop-opacity="0"/>
<stop offset="1" stop-color="white"/>
</radialGradient>
<radialGradient id="paint47_radial_2227_85864" cx="0" cy="0" r="1" gradientUnits="userSpaceOnUse" gradientTransform="translate(41.8076 4.23016) rotate(180) scale(1.7908 1.47999)">
<stop stop-color="white" stop-opacity="0"/>
<stop offset="1" stop-color="white"/>
</radialGradient>
<radialGradient id="paint48_radial_2227_85864" cx="0" cy="0" r="1" gradientUnits="userSpaceOnUse" gradientTransform="translate(9.97412 5.96281) scale(1.5246 1.26)">
<stop stop-color="white" stop-opacity="0"/>
<stop offset="1" stop-color="white"/>
</radialGradient>
<radialGradient id="paint49_radial_2227_85864" cx="0" cy="0" r="1" gradientUnits="userSpaceOnUse" gradientTransform="translate(13.4947 4.23016) scale(1.7908 1.47999)">
<stop stop-color="white" stop-opacity="0"/>
<stop offset="1" stop-color="white"/>
</radialGradient>
<linearGradient id="paint50_linear_2227_85864" x1="22.8903" y1="3.58984" x2="22.8903" y2="3.79984" gradientUnits="userSpaceOnUse">
<stop stop-color="#010101"/>
<stop offset="1" stop-color="#010101" stop-opacity="0"/>
</linearGradient>
<linearGradient id="paint51_linear_2227_85864" x1="20.4098" y1="41.2022" x2="21.0998" y2="41.2022" gradientUnits="userSpaceOnUse">
<stop offset="0.42" stop-color="white" stop-opacity="0"/>
<stop offset="1" stop-color="white"/>
</linearGradient>
<linearGradient id="paint52_linear_2227_85864" x1="9.72949" y1="52.8314" x2="20.2795" y2="52.8314" gradientUnits="userSpaceOnUse">
<stop offset="0.42" stop-color="white" stop-opacity="0"/>
<stop offset="1" stop-color="white"/>
</linearGradient>
<linearGradient id="paint53_linear_2227_85864" x1="5.44961" y1="3.82164" x2="13.8796" y2="3.82164" gradientUnits="userSpaceOnUse">
<stop offset="0.42" stop-color="white" stop-opacity="0"/>
<stop offset="1" stop-color="white"/>
</linearGradient>
<linearGradient id="paint54_linear_2227_85864" x1="15.9397" y1="86.3803" x2="16.4397" y2="86.3803" gradientUnits="userSpaceOnUse">
<stop offset="0.42" stop-color="white" stop-opacity="0"/>
<stop offset="1" stop-color="white"/>
</linearGradient>
<linearGradient id="paint55_linear_2227_85864" x1="18.2592" y1="2.70219" x2="18.9692" y2="2.70219" gradientUnits="userSpaceOnUse">
<stop offset="0.42" stop-color="white" stop-opacity="0"/>
<stop offset="1" stop-color="white"/>
</linearGradient>
<linearGradient id="paint56_linear_2227_85864" x1="21.5197" y1="87.3836" x2="22.3297" y2="87.3836" gradientUnits="userSpaceOnUse">
<stop offset="0.42" stop-color="white" stop-opacity="0"/>
<stop offset="1" stop-color="white"/>
</linearGradient>
<linearGradient id="paint57_linear_2227_85864" x1="42.7395" y1="59.3184" x2="42.6195" y2="59.0084" gradientUnits="userSpaceOnUse">
<stop stop-color="white"/>
<stop offset="1" stop-color="white" stop-opacity="0"/>
</linearGradient>
<linearGradient id="paint58_linear_2227_85864" x1="41.5894" y1="58.9901" x2="43.7394" y2="57.7801" gradientUnits="userSpaceOnUse">
<stop stop-color="#010101"/>
<stop offset="1" stop-color="#010101" stop-opacity="0"/>
</linearGradient>
<linearGradient id="paint59_linear_2227_85864" x1="2.04977" y1="59.3184" x2="2.15977" y2="59.0084" gradientUnits="userSpaceOnUse">
<stop stop-color="white"/>
<stop offset="1" stop-color="white" stop-opacity="0"/>
</linearGradient>
<linearGradient id="paint60_linear_2227_85864" x1="3.19" y1="58.9901" x2="1.04" y2="57.7801" gradientUnits="userSpaceOnUse">
<stop stop-color="#010101"/>
<stop offset="1" stop-color="#010101" stop-opacity="0"/>
</linearGradient>
<linearGradient id="paint61_linear_2227_85864" x1="22.5592" y1="46.2322" x2="22.5592" y2="46.8822" gradientUnits="userSpaceOnUse">
<stop stop-color="#010101" stop-opacity="0"/>
<stop offset="0.99" stop-color="#010101"/>
</linearGradient>
<radialGradient id="paint62_radial_2227_85864" cx="0" cy="0" r="1" gradientUnits="userSpaceOnUse" gradientTransform="translate(28.1585 47.9314) rotate(-180) scale(7.0785 5.85001)">
<stop stop-color="white" stop-opacity="0"/>
<stop offset="1" stop-color="white"/>
</radialGradient>
<linearGradient id="paint63_linear_2227_85864" x1="22.3895" y1="47.2414" x2="22.3895" y2="46.7114" gradientUnits="userSpaceOnUse">
<stop stop-color="#010101" stop-opacity="0"/>
<stop offset="0.99" stop-color="#010101"/>
</linearGradient>
<linearGradient id="paint64_linear_2227_85864" x1="31.8599" y1="48.4514" x2="12.9199" y2="48.4514" gradientUnits="userSpaceOnUse">
<stop stop-color="white" stop-opacity="0"/>
<stop offset="1" stop-color="white"/>
</linearGradient>
<linearGradient id="paint65_linear_2227_85864" x1="19.2599" y1="47.4223" x2="30.8899" y2="47.4223" gradientUnits="userSpaceOnUse">
<stop stop-color="white" stop-opacity="0"/>
<stop offset="1" stop-color="white"/>
</linearGradient>
</defs>
</svg>
