<svg width="42" height="33" viewBox="0 0 42 33" fill="none" xmlns="http://www.w3.org/2000/svg">
<g clip-path="url(#clip0_1681_19180)">
<path d="M41.2502 3.21425C41.0343 4.10732 40.4371 4.73176 39.8136 5.3562C34.4337 10.7491 29.0648 16.1541 23.6859 21.548C23.4579 21.7761 23.3651 21.9991 23.3671 22.3225C23.3792 25.2501 23.3741 28.1787 23.3741 31.1062C23.3741 31.2522 23.3741 31.3982 23.3741 31.5979H23.9219C27.9491 31.5979 31.9772 31.5979 36.0044 31.5989C36.192 31.5989 36.3807 31.605 36.5653 31.6333C36.9224 31.6901 37.107 31.9385 37.1211 32.276C37.1342 32.5984 36.9688 32.8498 36.6419 32.942C36.4896 32.9846 36.3252 32.9978 36.1668 32.9978C24.4334 32.9998 12.699 33.0008 0.965577 32.9978C0.780966 32.9978 0.583241 32.9836 0.41477 32.9157C0.127261 32.7991 -0.0180067 32.5568 0.0122574 32.2385C0.0425216 31.9243 0.215027 31.7033 0.52473 31.6435C0.785001 31.5928 1.05536 31.5948 1.37616 31.5695C1.37616 31.4225 1.37616 31.2806 1.37616 31.1387C1.37616 22.6378 1.37616 14.1379 1.3812 5.637C1.3812 5.37141 1.33076 5.21428 1.06747 5.07338C0.372401 4.70135 0.0193191 4.08604 0.00721341 3.29332C-0.00388344 2.63239 0.000151778 1.97146 0.0062046 1.31052C0.0102398 0.793538 0.243274 0.552277 0.76079 0.511729C0.854609 0.504633 0.948428 0.507674 1.04225 0.507674C7.21815 0.507674 13.393 0.507674 19.5689 0.507674C19.7162 0.507674 19.8645 0.512743 20.0098 0.532003C20.3992 0.585729 20.6141 0.819894 20.6191 1.21017C20.6302 1.96538 20.6564 2.72362 20.609 3.47579C20.5626 4.21174 20.1571 4.74798 19.5195 5.12102C19.3995 5.19097 19.2653 5.36837 19.2653 5.49609C19.2522 9.63807 19.2542 13.7811 19.2552 17.923C19.2552 17.9717 19.2633 18.0214 19.2734 18.1339C19.4297 17.9859 19.5457 17.8835 19.6547 17.774C25.2182 12.1835 30.7818 6.59292 36.3433 1.00135C37.1847 0.154907 38.1481 -0.225231 39.3354 0.135646C40.1344 0.378934 40.6711 0.903017 41.0091 1.65316C41.0958 1.84677 41.1705 2.04647 41.2502 2.24313V3.21425ZM17.856 5.39168H2.78042V31.5685H17.856V5.39168ZM19.2532 1.94105H1.37717C1.37717 2.38606 1.35901 2.80371 1.38221 3.21831C1.40844 3.70691 1.67073 3.95223 2.16 3.95223C7.59443 3.95527 13.0289 3.95527 18.4623 3.95223C18.9707 3.95223 19.228 3.70083 19.2502 3.18688C19.2673 2.78445 19.2532 2.37998 19.2532 1.94105ZM21.9981 31.5766C21.9981 29.9759 21.9981 28.427 21.9981 26.8781C21.9981 24.8162 22.0002 22.7543 21.9971 20.6925C21.9971 19.9707 21.64 19.4365 21.0519 19.25C20.1167 18.953 19.2582 19.624 19.2562 20.6712C19.2512 24.2019 19.2542 27.7326 19.2562 31.2644C19.2562 31.3657 19.2744 31.4681 19.2845 31.5776H21.9991L21.9981 31.5766ZM37.1252 2.19244C36.19 3.13417 35.3426 3.97858 34.5103 4.83719C34.4246 4.92639 34.3953 5.10278 34.3943 5.23861C34.3852 6.30401 34.3883 7.37043 34.3903 8.43582C34.3903 8.53314 34.4105 8.63045 34.4296 8.80177C35.3244 7.89755 36.1668 7.0501 37.0041 6.19555C37.0646 6.13371 37.1181 6.03335 37.1181 5.95124C37.1252 4.7419 37.1231 3.53154 37.1231 2.19244H37.1252ZM26.1312 17.1253C27.0674 16.1856 27.9218 15.3351 28.7632 14.4714C28.8409 14.3923 28.854 14.2261 28.855 14.0994C28.863 13.3056 28.859 12.5109 28.859 11.7162C28.859 11.3482 28.859 10.9792 28.859 10.5129C27.9299 11.4445 27.0785 12.296 26.2341 13.1536C26.1756 13.2134 26.1362 13.3188 26.1362 13.404C26.1302 14.5991 26.1322 15.7943 26.1322 17.1242L26.1312 17.1253ZM32.986 6.43579C32.8902 6.48749 32.8519 6.49864 32.8276 6.52297C32.0186 7.3319 31.2065 8.1378 30.4106 8.95889C30.3157 9.05722 30.2764 9.24577 30.2734 9.39377C30.2602 10.149 30.2673 10.9052 30.2673 11.6604C30.2673 12.0578 30.2673 12.4562 30.2673 12.8941C30.3591 12.8464 30.3984 12.8363 30.4237 12.812C31.2317 12.002 32.0438 11.1971 32.8398 10.374C32.9356 10.2747 32.977 10.0861 32.98 9.93813C32.9931 9.14237 32.986 8.34561 32.986 7.54985C32.986 7.19303 32.986 6.83621 32.986 6.43478V6.43579ZM23.3419 20.0072C23.7716 19.548 24.159 19.1587 24.5141 18.7421C24.6311 18.6043 24.727 18.3985 24.73 18.2211C24.7502 17.1577 24.7411 16.0923 24.738 15.0289C24.738 14.9316 24.7189 14.8333 24.7098 14.7552C23.6485 15.8227 22.5984 16.8779 21.5411 17.9423C22.4289 18.2941 23.0352 18.9469 23.3409 20.0072H23.3419ZM38.5223 4.69628C38.936 4.25634 39.3143 3.91573 39.6169 3.51735C39.9528 3.07538 39.9559 2.56346 39.6784 2.0779C39.4303 1.64302 39.054 1.4048 38.5213 1.40987V4.6973L38.5223 4.69628Z" fill="white"/>
<path d="M16.5122 13.315C16.5122 14.9734 16.5142 16.6318 16.5122 18.2902C16.5102 19.3029 15.9523 19.8746 14.9465 19.8756C11.8606 19.8807 8.77467 19.8807 5.68974 19.8756C4.67892 19.8746 4.11904 19.307 4.11904 18.2953C4.11702 14.9653 4.11702 11.6343 4.11904 8.30426C4.11904 7.29056 4.67388 6.72086 5.6847 6.71782C8.77063 6.71174 11.8566 6.71174 14.9415 6.71782C15.9543 6.71985 16.5102 7.28752 16.5122 8.29818C16.5152 9.96977 16.5122 11.6424 16.5122 13.314V13.315ZM5.53237 8.15119V18.4271H7.57823C7.57823 17.9081 7.56108 17.4235 7.58226 16.941C7.62564 15.9313 8.47203 15.0869 9.47982 15.0403C9.90856 15.021 10.3403 15.0525 10.7671 15.0231C12.132 14.9308 13.1569 15.983 13.0661 17.3232C13.0409 17.6921 13.0621 18.0652 13.0621 18.4342H15.0908V8.15018H5.53237V8.15119ZM11.682 18.4514C11.682 17.9729 11.7022 17.5299 11.676 17.089C11.6518 16.6774 11.3834 16.4311 10.9597 16.4139C10.531 16.3966 10.1002 16.3987 9.67149 16.4139C9.31438 16.426 9.01678 16.5994 8.98147 16.9684C8.93406 17.4549 8.97038 17.9506 8.97038 18.4514H11.682Z" fill="white"/>
<path d="M10.2748 30.2417C8.99963 30.2417 7.7245 30.2437 6.44938 30.2417C5.34574 30.2397 4.8141 29.7136 4.81209 28.6086C4.80704 26.6938 4.80704 24.7779 4.81209 22.863C4.81511 21.7672 5.32759 21.24 6.40802 21.238C9.01174 21.2319 11.6155 21.2319 14.2192 21.238C15.3006 21.2411 15.8141 21.7672 15.8171 22.862C15.8222 24.7768 15.8222 26.6927 15.8171 28.6076C15.8141 29.7126 15.2825 30.2397 14.1809 30.2417C12.8795 30.2437 11.5771 30.2417 10.2748 30.2417ZM14.4088 22.6673H6.2224V28.8023H14.4088V22.6673Z" fill="white"/>
<path d="M20.6372 21.9233C20.2347 21.9233 19.922 21.606 19.932 21.2076C19.9401 20.869 20.266 20.5558 20.618 20.5487C20.9862 20.5416 21.3262 20.87 21.3212 21.2289C21.3151 21.6161 21.0125 21.9233 20.6372 21.9233Z" fill="white"/>
<path d="M10.3141 26.0632C10.9708 26.0632 11.6286 26.0511 12.2843 26.0683C12.7665 26.0805 13.053 26.3613 13.053 26.7698C13.053 27.1682 12.7917 27.4216 12.3257 27.4733C12.2863 27.4774 12.245 27.4774 12.2056 27.4774C10.9456 27.4774 9.68562 27.4804 8.42462 27.4763C8.05338 27.4753 7.71845 27.3709 7.60042 26.9705C7.50862 26.6593 7.59135 26.3633 7.88894 26.2042C8.05741 26.1139 8.26926 26.0744 8.46295 26.0693C9.07933 26.0531 9.69571 26.0633 10.3131 26.0643L10.3141 26.0632Z" fill="white"/>
<path d="M10.3555 24.0095C10.9991 24.0095 11.6427 24.0014 12.2853 24.0125C12.7756 24.0207 13.054 24.2802 13.054 24.6998C13.054 25.1124 12.7605 25.3902 12.2833 25.3932C10.9698 25.4003 9.65636 25.4003 8.34189 25.3932C7.86573 25.3902 7.57318 25.1104 7.57318 24.6978C7.57318 24.2791 7.85161 24.0207 8.34391 24.0136C9.01375 24.0034 9.68461 24.0115 10.3545 24.0115L10.3555 24.0095Z" fill="white"/>
</g>
<defs>
<clipPath id="clip0_1681_19180">
<rect width="41.25" height="33" fill="white"/>
</clipPath>
</defs>
</svg>
