<svg width="29" height="70" viewBox="0 0 29 70" fill="none" xmlns="http://www.w3.org/2000/svg">
<g clip-path="url(#clip0_3278_35815)">
<path d="M2.89283 49.7236L2.87891 51.6511L26.2576 51.8169L26.2715 49.8893L2.89283 49.7236Z" fill="#6A6A6A"/>
<path d="M3.1272 65.2844C3.10611 68.377 7.83045 69.5471 10.7146 69.568L18.1492 69.6202C21.0334 69.6411 25.7735 68.5337 25.7946 65.4464L26.2481 58.2061L2.77393 58.0441L3.12192 65.2897L3.1272 65.2844Z" fill="#989898"/>
<path d="M24.6455 65.0922C24.5347 65.1078 24.4609 65.2071 24.4556 65.3168C24.4504 65.7608 24.2764 66.184 23.9705 66.5078C23.8915 66.5914 23.8756 66.7168 23.9442 66.8004C24.0127 66.884 24.1604 66.8787 24.2553 66.7795C24.6296 66.3877 24.8405 65.8653 24.8511 65.3272C24.8511 65.1862 24.7509 65.0817 24.6402 65.0974L24.6455 65.0922Z" fill="#F89521"/>
<path d="M4.29783 64.9511C4.40856 64.9668 4.48237 65.0661 4.48237 65.181C4.48237 65.625 4.6511 66.0534 4.95164 66.3773C5.02546 66.4608 5.04128 66.5862 4.97273 66.6698C4.90419 66.7534 4.75655 66.7482 4.66164 66.6437C4.29255 66.2467 4.08691 65.7243 4.08691 65.181C4.08691 65.0399 4.19237 64.9355 4.29783 64.9511Z" fill="#F89521"/>
<path d="M21.7401 68.6752C21.7401 68.6752 21.5819 68.8215 21.8508 68.8528C22.1144 68.8789 23.0002 68.8058 23.749 67.7662C24.4977 66.7267 23.9441 66.6901 23.9441 66.6901L21.7453 68.6752H21.7401Z" fill="white"/>
<path d="M7.16089 68.576C7.16089 68.576 7.3138 68.7275 7.05016 68.7484C6.78653 68.7745 5.90071 68.6857 5.16781 67.6357C4.4349 66.5857 4.98854 66.5596 4.98854 66.5596L7.16089 68.5708V68.576Z" fill="white"/>
<path style="mix-blend-mode:screen" d="M21.4289 65.437C19.2724 62.9504 9.6971 62.8825 7.50365 65.3377C6.44383 66.5235 10.1031 68.6183 10.1031 68.6183L18.782 68.681C18.782 68.681 22.4676 66.6385 21.4289 65.437Z" fill="url(#paint0_linear_3278_35815)"/>
<path d="M2.86386 59.2414H2.80057L3.69695 65.4787C4.60913 68.4407 7.92039 68.8325 9.5233 68.8429L19.3569 68.9108C20.9598 68.9213 24.2289 68.5765 25.1833 65.6302L26.0955 59.6123H26.0322C26.1588 59.1735 26.2537 58.6877 26.2537 58.2071C26.2642 56.666 26.28 54.4302 26.2958 51.8132C26.2958 51.4109 25.1938 50.5803 25.1938 50.5803L3.92894 50.4288C3.92894 50.4288 2.84803 50.737 2.84276 51.646C2.82694 53.2705 2.80586 56.1019 2.79004 58.0399C2.79004 58.4265 2.81112 58.8496 2.87439 59.2414H2.86386Z" fill="#989898"/>
<path d="M18.7819 68.6757L10.103 68.6183L10.6303 68.9265L18.2441 68.9787L18.7819 68.6757Z" fill="url(#paint1_linear_3278_35815)"/>
<path d="M25.2095 51.8082L26.2798 52.9262C26.2798 52.9785 26.2798 53.0359 26.2798 53.0882C26.2693 55.1568 26.2376 58.5837 26.1533 59.7277L25.1567 58.6621C25.1567 58.6621 25.7315 55.3971 25.2042 51.8082H25.2095Z" fill="url(#paint2_linear_3278_35815)"/>
<path style="mix-blend-mode:screen" d="M26.2851 52.921C26.2746 54.927 26.264 56.0606 26.2587 57.1733C25.9687 56.9591 25.6787 56.7292 25.3887 56.4889C25.4626 55.2352 25.4678 53.5583 25.2095 51.8082L26.2798 52.9262L26.2851 52.921Z" fill="url(#paint3_linear_3278_35815)"/>
<path d="M3.91325 51.6563C3.33852 55.2347 3.86579 58.5101 3.86579 58.5101L2.81652 59.3825C2.76379 58.3377 2.81652 54.378 2.82706 52.7638C2.82706 52.7638 2.82706 52.7586 2.82706 52.7534L3.91325 51.6511V51.6563Z" fill="url(#paint4_linear_3278_35815)"/>
<path style="mix-blend-mode:screen" d="M2.82158 52.7596C2.80576 54.7656 2.79521 55.8992 2.78467 57.0119C3.07467 56.8029 3.37521 56.5731 3.66521 56.338C3.60721 55.0842 3.6283 53.4074 3.90776 51.6572L2.82158 52.7596Z" fill="url(#paint5_linear_3278_35815)"/>
<path d="M26.2374 53.6357C26.3587 53.6357 26.4589 53.7401 26.4589 53.8655L26.443 55.7566C26.443 55.8819 26.3429 55.9864 26.2163 55.9812L26.2321 53.6304L26.2374 53.6357Z" fill="url(#paint6_linear_3278_35815)"/>
<path d="M2.8109 53.4742C2.68963 53.4742 2.58418 53.5735 2.58418 53.6988L2.56836 55.5899C2.56836 55.7153 2.66854 55.8197 2.78981 55.8197L2.80563 53.469L2.8109 53.4742Z" fill="url(#paint7_linear_3278_35815)"/>
<path d="M14.5007 60.6096C11.4214 60.7454 4.71983 59.5648 4.7251 59.4603C4.7251 59.4603 5.04674 65.0708 4.97292 65.9014C4.97292 65.9641 4.96238 66.0215 4.95711 66.0842C5.00456 66.1103 5.05201 66.1364 5.09419 66.1678C7.45108 67.4476 11.4742 68.2887 14.7696 68.2887C17.5378 68.2887 20.2638 68.1476 23.786 66.8573C23.8334 66.8364 23.8809 66.8156 23.9284 66.7947C23.9284 66.732 23.9284 66.6745 23.9284 66.6118C23.9653 64.2611 24.1498 59.5805 24.1498 59.5805C24.1498 59.6745 17.5747 60.7715 14.5007 60.6096Z" fill="#010101"/>
<path d="M23.8543 59.8108C20.6907 61.2474 8.11522 61.2474 4.97266 59.7377C5.10447 61.6862 5.19938 63.8959 5.16247 65.9227C9.90268 68.7018 18.0385 69.1407 23.733 66.6018C23.7805 64.2459 23.9387 59.7742 23.8543 59.8108Z" fill="url(#paint8_linear_3278_35815)"/>
<g style="mix-blend-mode:screen">
<path d="M21.8562 67.0762C21.6505 65.2008 21.4502 62.3695 21.2445 60.4889C20.6645 60.6926 8.68489 60.7501 8.07852 60.5411C7.86234 62.2859 7.63562 64.9971 7.41943 66.7367C10.6042 68.3143 18.0598 68.6016 21.8614 67.0762H21.8562Z" fill="url(#paint9_linear_3278_35815)"/>
</g>
<path d="M2.06207 6.59523L27.7034 6.77284C28.1199 6.77284 28.4574 7.03926 28.4574 7.36314L28.1726 47.4042C28.1726 47.7281 27.8299 47.9893 27.4134 47.984L1.77207 47.8064C1.35552 47.8064 1.01807 47.54 1.01807 47.2161L1.30279 7.17508C1.30279 6.8512 1.64552 6.59001 2.06207 6.59523Z" fill="#DFDFDE"/>
<path d="M22.6889 66.3208C20.0103 67.3969 17.0259 67.9507 13.915 67.8462C13.915 67.9663 13.915 68.0865 13.915 68.2118C17.0734 68.3163 20.1052 67.7521 22.8259 66.6604C22.7785 66.5507 22.731 66.4357 22.6889 66.326V66.3208Z" fill="#010101"/>
<path d="M17.1369 67.8472C17.1369 67.6331 16.172 67.4502 14.9856 67.4398C13.794 67.4293 12.8291 67.6017 12.8291 67.8159C12.8291 68.0301 13.7887 68.2129 14.9804 68.2234C16.172 68.2338 17.1369 68.0614 17.1369 67.8472Z" fill="#010101"/>
<path d="M5.00446 50.439C5.00446 50.439 4.261 52.4765 4.23464 55.8041C4.21882 58.1131 4.92536 60.9496 4.92536 60.9496C5.60029 61.2004 10.0399 62.078 14.4901 62.1093C18.935 62.1407 23.3905 61.4041 24.0759 61.1638C24.0759 61.1638 24.8194 58.4422 24.8352 55.9504C24.8616 52.4399 24.1445 50.5748 24.1445 50.5748L5.00973 50.439H5.00446Z" fill="#989898"/>
<path style="mix-blend-mode:multiply" d="M6.48099 57.7385C6.48626 56.9131 7.16644 56.2497 7.99426 56.2549L22.1304 56.3542C22.9583 56.3594 23.6279 57.0333 23.6226 57.8586C23.6174 58.684 22.9372 59.3474 22.1094 59.3422L7.97317 59.243C7.14535 59.2377 6.47572 58.5639 6.48099 57.7385Z" fill="url(#paint10_linear_3278_35815)"/>
<path d="M6.11136 57.3405C6.11663 56.5151 6.79681 55.8464 7.62463 55.8569L21.7608 55.9561C22.5886 55.9613 23.2583 56.6352 23.253 57.4606C23.2477 58.286 22.5675 58.9494 21.7397 58.9442L7.60354 58.8449C6.77572 58.8397 6.10609 58.1658 6.11136 57.3405Z" fill="#A53D23"/>
<path d="M21.7665 58.8914L7.63031 58.7922C6.8394 58.787 6.20667 58.1444 6.21195 57.3713C6.21722 56.5982 6.86049 55.9661 7.6514 55.9713L21.7876 56.0705C22.5785 56.0758 23.2112 56.7183 23.2059 57.4914C23.2007 58.2646 22.5574 58.8967 21.7665 58.8914Z" fill="#AC4224"/>
<path d="M21.7928 58.8402L7.65659 58.741C6.90259 58.7358 6.30677 58.1298 6.31205 57.4037C6.31205 56.6828 6.92368 56.082 7.67768 56.0873L21.8139 56.1865C22.5679 56.1917 23.1637 56.7977 23.1584 57.5238C23.1584 58.2499 22.5468 58.8455 21.7928 58.8402Z" fill="#B34525"/>
<path d="M21.8191 58.7885L7.68287 58.6893C6.96578 58.6893 6.40687 58.1146 6.41215 57.4408C6.41215 56.7669 6.98687 56.2027 7.70397 56.2079L21.8401 56.3072C22.552 56.3072 23.1161 56.8818 23.1109 57.5557C23.1109 58.2296 22.5361 58.7937 21.8191 58.7885Z" fill="#B84926"/>
<path d="M21.84 58.7295L7.70378 58.6302C7.02887 58.6302 6.5016 58.0869 6.50688 57.4653C6.50688 56.8436 7.04469 56.3108 7.7196 56.316L21.8558 56.4153C22.5307 56.4153 23.058 56.9586 23.0527 57.5802C23.0527 58.2018 22.5149 58.7295 21.84 58.7295Z" fill="#BE4D27"/>
<path d="M21.8667 58.6783L7.73056 58.5791C7.09255 58.5791 6.60219 58.0723 6.60746 57.5029C6.60746 56.9335 7.10837 56.4373 7.74637 56.4425L21.8826 56.5417C22.5206 56.5417 23.0109 57.0485 23.0056 57.6179C23.0056 58.1873 22.5047 58.6835 21.8667 58.6783Z" fill="#C55127"/>
<path d="M21.893 58.6255L7.75684 58.5263C7.15575 58.5263 6.70229 58.0561 6.70757 57.5337C6.70757 57.0113 7.17684 56.5516 7.77266 56.5569L21.9088 56.6561C22.5047 56.6561 22.9634 57.1263 22.9581 57.6487C22.9581 58.171 22.4888 58.6307 21.893 58.6255Z" fill="#CB5627"/>
<path d="M21.9193 58.5723L7.78312 58.473C7.22421 58.473 6.80239 58.0342 6.80767 57.564C6.80767 57.0939 7.24003 56.6655 7.79894 56.6708L21.9351 56.77C22.494 56.77 22.9158 57.2088 22.9106 57.679C22.9106 58.1491 22.4782 58.5775 21.9193 58.5723Z" fill="#D15927"/>
<path d="M21.9454 58.5163L7.80925 58.4171C7.28725 58.4171 6.90234 58.0148 6.90234 57.5969C6.90234 57.179 7.2978 56.7872 7.8198 56.7872L21.956 56.8865C22.478 56.8865 22.8629 57.2887 22.8576 57.7066C22.8576 58.1245 22.4622 58.5216 21.9402 58.5163H21.9454Z" fill="#D75D27"/>
<path d="M21.9722 58.4646L7.83607 58.3654C7.35626 58.3654 7.00293 57.9945 7.00293 57.6288C7.00293 57.2631 7.36153 56.9027 7.84662 56.9079L21.9828 57.0071C22.4626 57.0071 22.8159 57.3728 22.8106 57.7437C22.8106 58.1094 22.452 58.4698 21.9722 58.4698V58.4646Z" fill="#DC6026"/>
<path d="M21.998 58.4113L7.86181 58.3121C7.4189 58.3121 7.10254 57.9778 7.10254 57.6591C7.10254 57.3404 7.42418 57.0166 7.86708 57.0218L22.0033 57.121C22.4462 57.121 22.7625 57.4554 22.7573 57.7688C22.7573 58.0822 22.4356 58.4113 21.9927 58.4061L21.998 58.4113Z" fill="#E46425"/>
<path d="M22.03 57.2354C22.436 57.2354 22.7155 57.5332 22.7155 57.7996C22.7155 58.066 22.4308 58.3586 22.0248 58.3533L7.88858 58.2541C7.48258 58.2541 7.20312 57.9563 7.20312 57.6899C7.20312 57.4235 7.48785 57.131 7.89385 57.1362L22.03 57.2354Z" fill="#EB6824"/>
<path d="M11.8076 55.8642L11.7856 58.8993L17.5697 58.94L17.5916 55.9055L11.8076 55.8642Z" fill="url(#paint11_linear_3278_35815)"/>
<path d="M12.0333 56.0956L12.0146 58.6704L17.3453 58.7086L17.3639 56.1332L12.0333 56.0956Z" fill="url(#paint12_linear_3278_35815)"/>
<path d="M12.2566 56.3275L12.2417 58.4484L17.1136 58.4818L17.1285 56.3609L12.2566 56.3275Z" fill="url(#paint13_linear_3278_35815)"/>
<path style="mix-blend-mode:color-dodge" d="M19.5469 56.2691C19.9212 55.4907 20.7016 55.2661 21.2922 55.7728C21.8827 56.2795 22.0567 57.3191 21.6823 58.0974C21.308 58.8758 20.5276 59.1004 19.9371 58.5937C19.3465 58.087 19.1725 57.0474 19.5469 56.2691Z" fill="url(#paint14_radial_3278_35815)"/>
<path style="mix-blend-mode:color-dodge" d="M18.5659 56.5506C18.9403 55.7723 19.7207 55.5476 20.3112 56.0543C20.9017 56.5611 21.0757 57.6006 20.7014 58.379C20.327 59.1573 19.5467 59.382 18.9561 58.8752C18.3656 58.3685 18.1916 57.329 18.5659 56.5506Z" fill="url(#paint15_radial_3278_35815)"/>
<path style="mix-blend-mode:color-dodge" d="M8.16261 56.1917C8.53697 55.4134 9.31734 55.1887 9.90788 55.6955C10.4984 56.2022 10.6724 57.2417 10.2981 58.0201C9.9237 58.7984 9.14334 59.0231 8.55279 58.5164C7.96224 58.0096 7.78824 56.9701 8.16261 56.1917Z" fill="url(#paint16_radial_3278_35815)"/>
<path style="mix-blend-mode:color-dodge" d="M7.17628 56.4733C7.55064 55.6949 8.33101 55.4703 8.92155 55.977C9.5121 56.4837 9.6861 57.5233 9.31173 58.3016C8.93737 59.08 8.15701 59.3046 7.56646 58.7979C6.97592 58.2912 6.80192 57.2516 7.17628 56.4733Z" fill="url(#paint17_radial_3278_35815)"/>
<g style="mix-blend-mode:screen">
<path d="M6.93377 57.9626C6.93377 57.8163 7.05504 57.7014 7.1974 57.7014L22.1667 57.8059C22.3143 57.8059 22.4303 57.926 22.425 58.0671C22.425 58.2081 22.3038 58.3283 22.1614 58.3231L7.19213 58.2186C7.04449 58.2186 6.92849 58.0984 6.93377 57.9574V57.9626Z" fill="#676767"/>
</g>
<path d="M14.3213 44.7295L13.6674 44.0765L9.79199 47.8638L11.1049 47.869L14.3213 44.7295Z" fill="#010101"/>
<path d="M4.60889 47.8271L5.92179 47.8323L9.13288 44.6928L8.47906 44.0398L4.60889 47.8271Z" fill="#010101"/>
<path d="M25.352 45.4192L22.7578 47.9528L24.0707 47.9632L26.0638 46.0199C25.8054 45.8371 25.5682 45.6386 25.352 45.4244V45.4192Z" fill="#010101"/>
<path d="M11.7275 44.7143L11.0737 44.0561L7.19824 47.8434L8.51115 47.8539L11.7275 44.7143Z" fill="#010101"/>
<path d="M19.5045 44.7662L18.8559 44.1132L14.9805 47.8953L16.2934 47.9058L19.5045 44.7662Z" fill="#010101"/>
<path d="M24.6928 44.8029L24.039 44.15L20.1636 47.9321L21.4765 47.9425L24.6928 44.8029Z" fill="#010101"/>
<path d="M16.9102 44.751L16.2617 44.0928L12.3862 47.8801L13.6991 47.8905L16.9102 44.751Z" fill="#010101"/>
<path d="M3.32755 47.8171L6.53865 44.6776L5.89011 44.0193L2.01465 47.8067L3.32755 47.8171Z" fill="#010101"/>
<path d="M22.0986 44.7878L21.4501 44.1296L17.5693 47.9169L18.8875 47.9273L22.0986 44.7878Z" fill="#010101"/>
<path d="M1.18701 24.6914L1.19756 23.3906L2.64756 22.0219L2.64229 23.3227L1.18701 24.6914Z" fill="#010101"/>
<path d="M1.20264 22.1222L1.21318 20.8215L2.66845 19.4528L2.65791 20.7536L1.20264 22.1222Z" fill="#010101"/>
<path d="M2.54198 37.4385L2.53144 38.7392L1.07617 40.1079L1.08671 38.8071L2.54198 37.4385Z" fill="#010101"/>
<path d="M1.16553 27.2624L1.17607 25.9617L2.63135 24.593L2.62079 25.8938L1.16553 27.2624Z" fill="#010101"/>
<path d="M2.68466 16.8817L2.67939 18.1825L1.22412 19.5563L1.23466 18.2556L2.68466 16.8817Z" fill="#010101"/>
<path d="M1.09717 37.5368L1.10244 36.236L2.55772 34.8674L2.54717 36.1681L1.09717 37.5368Z" fill="#010101"/>
<path d="M1.11328 34.9677L1.12383 33.6669L2.5791 32.2983L2.56856 33.599L1.11328 34.9677Z" fill="#010101"/>
<path d="M1.1499 29.8327L1.16044 28.532L2.61572 27.1581L2.60517 28.4641L1.1499 29.8327Z" fill="#010101"/>
<path d="M1.13428 32.4017L1.13954 31.101L2.59482 29.7271L2.58428 31.0279L1.13428 32.4017Z" fill="#010101"/>
<path d="M2.74703 6.59967L2.4668 46.3681L26.7155 46.5358L26.9957 6.76736L2.74703 6.59967Z" fill="#555555"/>
<path d="M28.315 24.8828L28.3256 23.5768L26.8914 22.1873L26.8809 23.488L28.315 24.8828Z" fill="#010101"/>
<path d="M28.3312 22.3136L28.3417 21.0129L26.9075 19.6181L26.897 20.9241L28.3312 22.3136Z" fill="#010101"/>
<path d="M26.7811 37.6038L26.7705 38.9045L28.2047 40.2941L28.2152 38.9933L26.7811 37.6038Z" fill="#010101"/>
<path d="M28.294 27.4486L28.3046 26.1479L26.8704 24.7583L26.8599 26.059L28.294 27.4486Z" fill="#010101"/>
<path d="M26.929 17.0531L26.9185 18.3538L28.3526 19.7434L28.3632 18.4427L26.929 17.0531Z" fill="#010101"/>
<path d="M28.2257 37.7302L28.231 36.4294L26.7968 35.0347L26.7915 36.3354L28.2257 37.7302Z" fill="#010101"/>
<path d="M28.2418 35.1591L28.2523 33.8583L26.8182 32.4636L26.8076 33.7695L28.2418 35.1591Z" fill="#010101"/>
<path d="M28.2784 30.0198L28.289 28.719L26.8548 27.3295L26.8442 28.6302L28.2784 30.0198Z" fill="#010101"/>
<path d="M28.2569 32.5889L28.2675 31.2881L26.8333 29.8986L26.8228 31.1993L28.2569 32.5889Z" fill="#010101"/>
<path style="mix-blend-mode:multiply" d="M2.44685 43.448L2.42627 46.368L26.7013 46.5359L26.7219 43.6159L2.44685 43.448Z" fill="url(#paint18_linear_3278_35815)"/>
<path d="M3.10768 47.81L3.09424 49.7167L26.0459 49.8754L26.0593 47.9687L3.10768 47.81Z" fill="url(#paint19_linear_3278_35815)"/>
<path d="M0.727156 40.2822L0.673828 47.1618L1.04819 47.1647L1.10151 40.285L0.727156 40.2822Z" fill="url(#paint20_radial_3278_35815)"/>
<path d="M2.88993 64.2417L3.2643 64.2469L3.25375 66.0283L2.87939 65.788L2.88993 64.2417Z" fill="url(#paint21_radial_3278_35815)"/>
<path d="M26.0846 64.4078L25.7103 64.4026L25.6997 66.1839L26.0741 65.9541L26.0846 64.4078Z" fill="url(#paint22_radial_3278_35815)"/>
<path d="M28.1943 40.4698L28.147 47.3495L28.5213 47.3521L28.5686 40.4724L28.1943 40.4698Z" fill="url(#paint23_radial_3278_35815)"/>
<path d="M4.14183 62.884L3.18018 63.2863L3.29306 63.5511L4.25472 63.1484L4.14183 62.884Z" fill="#010101"/>
<path d="M4.97253 64.12C4.97253 64.12 4.08143 63.9372 4.07089 63.2058C4.06034 62.4745 4.99889 61.0066 5.00416 61.9469C5.00943 62.8872 5.05689 63.8431 4.96725 64.12H4.97253Z" fill="url(#paint24_linear_3278_35815)"/>
<path d="M0.153499 63.6028C0.438226 63.9215 2.82677 64.3394 2.82677 64.3394C3.29604 64.4334 3.41204 63.9842 3.42786 63.6185L0.0111331 63.0439C-0.0152305 63.211 -0.00468287 63.4305 0.153499 63.6028Z" fill="#BCBCBC"/>
<path d="M3.42796 63.618C3.4385 63.3829 3.41214 63.1739 3.41214 63.1739L0.0745003 62.7926C0.0745003 62.7926 0.0323214 62.8971 0.0112305 63.0381L3.42796 63.6128V63.618Z" fill="url(#paint25_linear_3278_35815)"/>
<path d="M24.8257 63.0439L24.709 63.3072L25.6648 63.723L25.7815 63.4597L24.8257 63.0439Z" fill="#010101"/>
<path d="M23.9758 64.2553C23.9758 64.2553 24.8669 64.0829 24.888 63.3515C24.909 62.6202 23.9916 61.1418 23.9705 62.0769C23.9494 63.0172 23.8914 63.9732 23.9705 64.25L23.9758 64.2553Z" fill="url(#paint26_linear_3278_35815)"/>
<path d="M28.7953 63.8066C28.5053 64.12 26.1114 64.5066 26.1114 64.5066C25.6422 64.5902 25.5314 64.1461 25.5156 63.7752L28.9376 63.2476C28.9587 63.4148 28.9482 63.6342 28.79 63.8066H28.7953Z" fill="#BCBCBC"/>
<path d="M25.5207 63.7752C25.5102 63.5402 25.5418 63.3312 25.5418 63.3312L28.8847 62.9969C28.8847 62.9969 28.9269 63.1014 28.9427 63.2424L25.5207 63.77V63.7752Z" fill="url(#paint27_linear_3278_35815)"/>
<path d="M8.49478 46.16C8.49478 46.2436 8.25751 47.816 8.26278 47.8943L19.6782 47.9727C19.6835 47.8682 19.9261 46.2697 19.9261 46.1652C19.9261 43.0361 17.3688 40.4973 14.2104 40.4973C11.0521 40.4973 8.48951 43.0309 8.48951 46.16H8.49478Z" fill="url(#paint28_linear_3278_35815)"/>
<path d="M10.4878 20.4282L19.0243 20.4439V20.82L10.4878 20.8043V20.4282Z" fill="url(#paint29_linear_3278_35815)"/>
<path d="M5.50488 20.6527L20.1314 20.6788V22.4445L5.50488 22.4184V20.6527Z" fill="url(#paint30_linear_3278_35815)"/>
<path d="M8.72652 20.4702L5.50488 20.465V22.5859L8.73179 22.5911L8.72652 20.4702Z" fill="url(#paint31_linear_3278_35815)"/>
<path d="M7.0918 20.465H7.4398L8.72634 21.9485V22.3508L7.0918 20.465Z" fill="#989898"/>
<path d="M5.50488 21.8863V21.4893L6.45925 22.5863H6.11125L5.50488 21.8863Z" fill="#989898"/>
<path d="M7.05506 22.5859L5.50488 20.8045V20.465H5.55761L7.40306 22.5859H7.05506Z" fill="#989898"/>
<path d="M8.72637 20.8681V21.2703L8.03564 20.4711H8.38364L8.72637 20.8681Z" fill="#989898"/>
<path d="M8.34668 22.5911H7.99868L6.14795 20.465H6.49595L8.34668 22.5911Z" fill="#989898"/>
<path d="M20.1206 20.4915L23.3475 20.4967V22.6176L20.1259 22.6124L20.1206 20.4915Z" fill="url(#paint32_linear_3278_35815)"/>
<path d="M21.7605 20.4915H21.4125L20.126 21.9699V22.3721L21.7605 20.4915Z" fill="#989898"/>
<path d="M23.3474 21.917V21.52L22.3931 22.617H22.7411L23.3474 21.917Z" fill="#989898"/>
<path d="M21.7972 22.6133L23.3474 20.8372V20.4976H23.2947L21.4492 22.6133H21.7972Z" fill="#989898"/>
<path d="M20.1206 20.8885L20.1259 21.2908L20.8166 20.4915H20.4686L20.1206 20.8885Z" fill="#989898"/>
<path d="M20.5112 22.6133H20.8592L22.6994 20.4976H22.3514L20.5112 22.6133Z" fill="#989898"/>
<path d="M6.44375 21.9539C6.31194 21.6927 6.39103 21.3584 6.61775 21.2069C6.84448 21.0554 7.13448 21.1494 7.2663 21.4106C7.39812 21.6718 7.31903 22.0061 7.0923 22.1576C6.86557 22.3091 6.57557 22.2151 6.44375 21.9539Z" fill="#BCBCBC"/>
<path d="M6.99195 22.1988L6.69141 21.1592L14.3369 18.2652L14.5214 19.3152L6.99195 22.1988Z" fill="#BCBCBC"/>
<path d="M22.2514 21.5249C22.2251 21.8227 21.9931 22.0421 21.7347 22.0107C21.4711 21.9794 21.2813 21.713 21.3076 21.4152C21.334 21.1175 21.566 20.898 21.8243 20.9242C22.0827 20.9555 22.2778 21.2219 22.2514 21.5197V21.5249Z" fill="#BCBCBC"/>
<path d="M21.9245 20.9555L21.6503 22.0055L14.0576 19.3152L14.3371 18.2652L21.9245 20.9555Z" fill="#BCBCBC"/>
<path d="M22.3036 0.274006C22.4354 0.535202 22.3563 0.869531 22.1243 1.0158C21.8923 1.16207 21.6076 1.07326 21.4758 0.812068C21.344 0.550874 21.4231 0.216543 21.6551 0.0702747C21.8871 -0.075994 22.1718 0.0128117 22.3036 0.274006Z" fill="#010101"/>
<path d="M21.7553 0.0224609L22.0506 1.06201L14.3946 3.91948L14.2153 2.86425L21.7553 0.0224609Z" fill="#BCBCBC"/>
<path d="M6.4961 0.613254C6.52246 0.315492 6.75446 0.0960893 7.0181 0.127433C7.27646 0.158776 7.46628 0.425194 7.43992 0.728179C7.41355 1.02594 7.18155 1.24534 6.91792 1.214C6.65955 1.18266 6.46973 0.916239 6.4961 0.613254Z" fill="#010101"/>
<path d="M6.81738 1.18351L7.09684 0.138733L14.679 2.87082L14.3943 3.92082L6.81738 1.18351Z" fill="#BCBCBC"/>
<path d="M11.6377 42.393L16.7997 42.4035L16.805 45.3706L11.6377 45.3654V42.393Z" fill="#3D3D3D"/>
<path d="M10.7461 41.8033H11.5001L11.5054 45.3555H10.7514L10.7461 41.8033Z" fill="#3D3D3D"/>
<path d="M16.9258 41.8135L17.6798 41.8187V45.3657H16.9258V41.8135Z" fill="#3D3D3D"/>
<path d="M12.2702 18.0183L16.3513 18.0235L16.2617 38.1094L12.1753 38.1041L12.2702 18.0183Z" fill="url(#paint33_linear_3278_35815)"/>
<path d="M12.5233 12.7006L16.093 12.7058L16.0033 42.4035L12.439 42.3983L12.5233 12.7006Z" fill="url(#paint34_linear_3278_35815)"/>
<g style="mix-blend-mode:multiply">
<path d="M12.9028 37.4038L14.2368 37.409V37.5553H13.0346V38.4956L14.3001 38.5008V40.0053H13.003L13.0083 41.9068H13.4301V42.0583L12.8765 42.0531V39.8538L14.1736 39.859L14.1683 38.6471H12.9028V37.4038Z" fill="#B0B1B1"/>
</g>
<g style="mix-blend-mode:multiply">
<path d="M14.237 36.8202L15.5657 36.8254V38.0635H14.3003V39.2702L15.5974 39.2754V41.4747L14.1948 41.4694V41.3232H15.4708L15.4655 39.4217L14.1737 39.4165L14.1685 37.912L15.4392 37.9172V36.9717L14.237 36.9665V36.8202Z" fill="#B0B1B1"/>
</g>
<path d="M14.9119 10.9395H15.8979L15.8083 36.3224H14.8223L14.9119 10.9395Z" fill="#BCBCBC"/>
<path d="M14.7852 36.3162H15.845V36.6191H14.7852V36.3162Z" fill="white"/>
<path d="M12.7342 10.9355H13.7149L13.6253 36.3235L12.6445 36.3183L12.7342 10.9355Z" fill="#BCBCBC"/>
<path d="M12.6079 36.3121L13.6677 36.3173V36.6203L12.6079 36.6151V36.3121Z" fill="white"/>
<path d="M13.8433 10.8824L13.7944 41.7033L14.6803 41.7047L14.7291 10.8838L13.8433 10.8824Z" fill="url(#paint35_linear_3278_35815)"/>
<path d="M13.0664 42.3941C13.0664 41.8874 13.425 41.4747 13.8679 41.4747H14.5692C15.0121 41.4747 15.3706 41.8874 15.3706 42.3941C15.3706 42.9009 15.0121 43.3135 14.5692 43.3135H13.8679C13.425 43.3135 13.0664 42.9009 13.0664 42.3889V42.3941Z" fill="url(#paint36_linear_3278_35815)"/>
<path d="M14.8535 10.7008L15.9502 10.706V10.9724L14.8535 10.9672V10.7008Z" fill="url(#paint37_linear_3278_35815)"/>
<path d="M12.6763 10.6947L13.773 10.6999V10.9663H12.6763V10.6947Z" fill="url(#paint38_linear_3278_35815)"/>
<path d="M13.7568 10.7008H14.8536V10.9672H13.7568V10.7008Z" fill="white"/>
<path d="M13.3348 7.4726C13.3348 7.4726 13.377 7.48304 13.3875 7.50916C13.4086 7.54573 13.3981 7.58752 13.3664 7.61364C13.1344 7.77558 13.0131 7.94274 13.0079 8.11513C13.0026 8.31886 13.1661 8.46513 13.1713 8.46513C13.1871 8.4808 13.1977 8.5017 13.1977 8.52782C13.1977 8.55394 13.1871 8.57483 13.1661 8.58528C12.9815 8.71588 12.8813 8.85692 12.8708 9.00319C12.855 9.2017 13.0079 9.35319 13.0079 9.35319C13.0237 9.36886 13.029 9.38976 13.029 9.41066C13.029 9.43155 13.0237 9.45245 13.0079 9.46812C12.8391 9.64051 12.7601 9.83379 12.7706 10.0375C12.797 10.4972 13.2662 10.8838 13.2715 10.8838C13.3031 10.9047 13.3084 10.9517 13.2873 10.9883C13.2662 11.0196 13.2293 11.0301 13.1977 11.0039C13.1766 10.9883 12.6704 10.5704 12.6441 10.0427C12.6335 9.81289 12.7073 9.59871 12.8761 9.41066C12.8181 9.3323 12.7284 9.1808 12.7442 8.99275C12.7548 8.81513 12.8497 8.65842 13.029 8.51215C12.9657 8.43379 12.8761 8.28752 12.8813 8.10468C12.8919 7.88528 13.029 7.67633 13.3031 7.48304C13.3137 7.47782 13.3242 7.4726 13.3348 7.4726Z" fill="#2B2C2B"/>
<path d="M15.2804 7.39301C15.2804 7.39301 15.3015 7.39301 15.312 7.40345C15.5809 7.59674 15.7233 7.80569 15.7339 8.02509C15.7391 8.20793 15.6495 8.3542 15.5862 8.43256C15.7655 8.57883 15.8604 8.74077 15.8709 8.91315C15.8815 9.10121 15.7971 9.25271 15.7391 9.33107C15.9026 9.52435 15.9817 9.73853 15.9711 9.96838C15.9448 10.5012 15.4386 10.9087 15.4175 10.9296C15.3859 10.9557 15.3489 10.9452 15.3279 10.9139C15.3068 10.8826 15.312 10.8355 15.3437 10.8094C15.3437 10.8094 15.8182 10.4176 15.8446 9.96315C15.8551 9.75942 15.776 9.57136 15.6073 9.39375C15.5915 9.37808 15.5862 9.35718 15.5862 9.33629C15.5862 9.31539 15.5968 9.2945 15.6073 9.27883C15.6073 9.27883 15.7602 9.12211 15.7444 8.92883C15.7339 8.78256 15.6337 8.64151 15.4491 8.51092C15.4333 8.50047 15.4175 8.47435 15.4175 8.45345C15.4175 8.42733 15.428 8.40644 15.4439 8.39077C15.4439 8.39077 15.6126 8.2445 15.602 8.03554C15.5968 7.86838 15.4755 7.70121 15.2435 7.53405C15.2119 7.51315 15.2013 7.46614 15.2224 7.42957C15.2329 7.40868 15.254 7.39301 15.2751 7.39301H15.2804Z" fill="#2B2C2B"/>
<path d="M13.8257 2.71802H14.78V7.14786H13.8257V2.71802Z" fill="url(#paint39_linear_3278_35815)"/>
<path d="M13.5297 6.59515H15.0799C15.2856 6.59515 15.449 6.78844 15.449 7.02351V10.722H13.1606V7.02351C13.1606 6.78844 13.3241 6.60038 13.5245 6.60038L13.5297 6.59515Z" fill="url(#paint40_linear_3278_35815)"/>
</g>
<defs>
<linearGradient id="paint0_linear_3278_35815" x1="29.2829" y1="65.9823" x2="11.3278" y2="66.1186" gradientUnits="userSpaceOnUse">
<stop stop-color="#DCDBDB"/>
<stop offset="1" stop-color="#010101"/>
</linearGradient>
<linearGradient id="paint1_linear_3278_35815" x1="10.0893" y1="68.7797" x2="18.768" y2="68.8425" gradientUnits="userSpaceOnUse">
<stop stop-color="#373C3A"/>
<stop offset="1" stop-color="#0E0F0F"/>
</linearGradient>
<linearGradient id="paint2_linear_3278_35815" x1="24.3706" y1="58.24" x2="29.8916" y2="47.6274" gradientUnits="userSpaceOnUse">
<stop stop-color="#373C3A"/>
<stop offset="1" stop-color="#1B1C1C"/>
</linearGradient>
<linearGradient id="paint3_linear_3278_35815" x1="24.8764" y1="56.1018" x2="28.464" y2="49.2095" gradientUnits="userSpaceOnUse">
<stop stop-color="#3C3C3B"/>
<stop offset="1" stop-color="#010101"/>
</linearGradient>
<linearGradient id="paint4_linear_3278_35815" x1="1.92386" y1="58.3001" x2="8.10333" y2="46.4384" gradientUnits="userSpaceOnUse">
<stop stop-color="#373C3A"/>
<stop offset="1" stop-color="#1B1C1C"/>
</linearGradient>
<linearGradient id="paint5_linear_3278_35815" x1="0.953518" y1="56.0998" x2="4.71333" y2="53.2772" gradientUnits="userSpaceOnUse">
<stop stop-color="#010101"/>
<stop offset="1" stop-color="#3C3C3B"/>
</linearGradient>
<linearGradient id="paint6_linear_3278_35815" x1="26.3453" y1="53.6116" x2="26.3287" y2="55.9624" gradientUnits="userSpaceOnUse">
<stop stop-color="#BABCBB"/>
<stop offset="0.08" stop-color="#A0A2A1"/>
<stop offset="0.16" stop-color="#8A8C8B"/>
<stop offset="0.25" stop-color="#797B7A"/>
<stop offset="0.37" stop-color="#6D6F6E"/>
<stop offset="0.54" stop-color="#666867"/>
<stop offset="1" stop-color="#656766"/>
</linearGradient>
<linearGradient id="paint7_linear_3278_35815" x1="2.69269" y1="53.4444" x2="2.67603" y2="55.7952" gradientUnits="userSpaceOnUse">
<stop stop-color="#BABCBB"/>
<stop offset="0.08" stop-color="#A0A2A1"/>
<stop offset="0.16" stop-color="#8A8C8B"/>
<stop offset="0.25" stop-color="#797B7A"/>
<stop offset="0.37" stop-color="#6D6F6E"/>
<stop offset="0.54" stop-color="#666867"/>
<stop offset="1" stop-color="#656766"/>
</linearGradient>
<linearGradient id="paint8_linear_3278_35815" x1="4.93034" y1="63.9528" x2="23.8431" y2="64.0896" gradientUnits="userSpaceOnUse">
<stop stop-color="#373C3A"/>
<stop offset="1" stop-color="#0E0F0F"/>
</linearGradient>
<linearGradient id="paint9_linear_3278_35815" x1="7.39818" y1="64.2083" x2="21.8398" y2="64.3126" gradientUnits="userSpaceOnUse">
<stop stop-color="#3C3C3B"/>
<stop offset="1" stop-color="#010101"/>
</linearGradient>
<linearGradient id="paint10_linear_3278_35815" x1="23.6326" y1="57.8529" x2="6.48612" y2="57.7294" gradientUnits="userSpaceOnUse">
<stop stop-color="white"/>
<stop offset="0.06" stop-color="#EBEBEB"/>
<stop offset="0.14" stop-color="#D5D5D5"/>
<stop offset="0.24" stop-color="#C4C5C5"/>
<stop offset="0.36" stop-color="#B8B9B9"/>
<stop offset="0.53" stop-color="#B1B2B2"/>
<stop offset="1" stop-color="#B0B1B1"/>
</linearGradient>
<linearGradient id="paint11_linear_3278_35815" x1="17.5859" y1="57.4256" x2="11.8019" y2="57.3836" gradientUnits="userSpaceOnUse">
<stop stop-color="#DCDBDB"/>
<stop offset="1" stop-color="#D2D2D2"/>
</linearGradient>
<linearGradient id="paint12_linear_3278_35815" x1="17.3598" y1="57.4235" x2="12.0292" y2="57.3852" gradientUnits="userSpaceOnUse">
<stop stop-color="#DCDBDB"/>
<stop offset="1" stop-color="#E4E4E4"/>
</linearGradient>
<linearGradient id="paint13_linear_3278_35815" x1="17.1237" y1="57.4235" x2="12.2572" y2="57.3884" gradientUnits="userSpaceOnUse">
<stop stop-color="#DCDBDB"/>
<stop offset="1" stop-color="#F7F8F8"/>
</linearGradient>
<radialGradient id="paint14_radial_3278_35815" cx="0" cy="0" r="1" gradientUnits="userSpaceOnUse" gradientTransform="translate(39.4699 73.7419) rotate(-139.404) scale(1.83028 1.96149)">
<stop stop-color="white"/>
<stop offset="0.04" stop-color="#DFDFDF"/>
<stop offset="0.12" stop-color="#A5A5A5"/>
<stop offset="0.2" stop-color="#727272"/>
<stop offset="0.28" stop-color="#494949"/>
<stop offset="0.35" stop-color="#2A2A2A"/>
<stop offset="0.43" stop-color="#131313"/>
<stop offset="0.5" stop-color="#050505"/>
<stop offset="0.56" stop-color="#010101"/>
</radialGradient>
<radialGradient id="paint15_radial_3278_35815" cx="0" cy="0" r="1" gradientUnits="userSpaceOnUse" gradientTransform="translate(38.3095 73.8652) rotate(-139.404) scale(1.83028 1.96149)">
<stop stop-color="white"/>
<stop offset="0.04" stop-color="#DFDFDF"/>
<stop offset="0.12" stop-color="#A5A5A5"/>
<stop offset="0.2" stop-color="#727272"/>
<stop offset="0.28" stop-color="#494949"/>
<stop offset="0.35" stop-color="#2A2A2A"/>
<stop offset="0.43" stop-color="#131313"/>
<stop offset="0.5" stop-color="#050505"/>
<stop offset="0.56" stop-color="#010101"/>
</radialGradient>
<radialGradient id="paint16_radial_3278_35815" cx="0" cy="0" r="1" gradientUnits="userSpaceOnUse" gradientTransform="translate(26.549 72.3158) rotate(-139.404) scale(1.83028 1.96149)">
<stop stop-color="white"/>
<stop offset="0.04" stop-color="#DFDFDF"/>
<stop offset="0.12" stop-color="#A5A5A5"/>
<stop offset="0.2" stop-color="#727272"/>
<stop offset="0.28" stop-color="#494949"/>
<stop offset="0.35" stop-color="#2A2A2A"/>
<stop offset="0.43" stop-color="#131313"/>
<stop offset="0.5" stop-color="#050505"/>
<stop offset="0.56" stop-color="#010101"/>
</radialGradient>
<radialGradient id="paint17_radial_3278_35815" cx="0" cy="0" r="1" gradientUnits="userSpaceOnUse" gradientTransform="translate(25.3886 72.4458) rotate(-139.404) scale(1.83028 1.96149)">
<stop stop-color="white"/>
<stop offset="0.04" stop-color="#DFDFDF"/>
<stop offset="0.12" stop-color="#A5A5A5"/>
<stop offset="0.2" stop-color="#727272"/>
<stop offset="0.28" stop-color="#494949"/>
<stop offset="0.35" stop-color="#2A2A2A"/>
<stop offset="0.43" stop-color="#131313"/>
<stop offset="0.5" stop-color="#050505"/>
<stop offset="0.56" stop-color="#010101"/>
</radialGradient>
<linearGradient id="paint18_linear_3278_35815" x1="14.5638" y1="46.4468" x2="14.584" y2="43.5267" gradientUnits="userSpaceOnUse">
<stop stop-color="#C2C2C2"/>
<stop offset="1" stop-color="white"/>
</linearGradient>
<linearGradient id="paint19_linear_3278_35815" x1="26.0578" y1="48.9299" x2="3.10092" y2="48.7682" gradientUnits="userSpaceOnUse">
<stop stop-color="#080808"/>
<stop offset="0.44" stop-color="#090909"/>
<stop offset="0.6" stop-color="#101010"/>
<stop offset="0.71" stop-color="#1C1C1C"/>
<stop offset="0.8" stop-color="#2D2D2D"/>
<stop offset="0.88" stop-color="#434343"/>
<stop offset="0.95" stop-color="#5D5D5D"/>
<stop offset="1" stop-color="#767676"/>
</linearGradient>
<radialGradient id="paint20_radial_3278_35815" cx="0" cy="0" r="1" gradientUnits="userSpaceOnUse" gradientTransform="translate(0.903276 43.7049) rotate(-179.594) scale(2.45711 2.43433)">
<stop stop-color="#F06339"/>
<stop offset="1" stop-color="#D42627"/>
</radialGradient>
<radialGradient id="paint21_radial_3278_35815" cx="0" cy="0" r="1" gradientUnits="userSpaceOnUse" gradientTransform="translate(3.07302 64.9772) rotate(-179.594) scale(2.45707 0.632927)">
<stop stop-color="#F06339"/>
<stop offset="1" stop-color="#D42627"/>
</radialGradient>
<radialGradient id="paint22_radial_3278_35815" cx="0" cy="0" r="1" gradientUnits="userSpaceOnUse" gradientTransform="translate(25.8955 65.1439) rotate(0.406204) scale(2.45707 0.632925)">
<stop stop-color="#F06339"/>
<stop offset="1" stop-color="#D42627"/>
</radialGradient>
<radialGradient id="paint23_radial_3278_35815" cx="0" cy="0" r="1" gradientUnits="userSpaceOnUse" gradientTransform="translate(28.3749 43.8956) rotate(-179.594) scale(2.45708 2.43433)">
<stop stop-color="#F06339"/>
<stop offset="1" stop-color="#D42627"/>
</radialGradient>
<linearGradient id="paint24_linear_3278_35815" x1="5.19102" y1="63.7935" x2="3.36422" y2="60.0825" gradientUnits="userSpaceOnUse">
<stop stop-color="#373C3A"/>
<stop offset="1" stop-color="#1B1C1C"/>
</linearGradient>
<linearGradient id="paint25_linear_3278_35815" x1="8.16108" y1="62.0378" x2="4.80527" y2="62.5299" gradientUnits="userSpaceOnUse">
<stop stop-color="#373C3A"/>
<stop offset="1" stop-color="#1B1C1C"/>
</linearGradient>
<linearGradient id="paint26_linear_3278_35815" x1="23.787" y1="63.945" x2="25.6608" y2="60.26" gradientUnits="userSpaceOnUse">
<stop stop-color="#373C3A"/>
<stop offset="1" stop-color="#1B1C1C"/>
</linearGradient>
<linearGradient id="paint27_linear_3278_35815" x1="19.3405" y1="61.7317" x2="22.6888" y2="62.2716" gradientUnits="userSpaceOnUse">
<stop stop-color="#373C3A"/>
<stop offset="1" stop-color="#1B1C1C"/>
</linearGradient>
<linearGradient id="paint28_linear_3278_35815" x1="14.6369" y1="49.0955" x2="12.775" y2="40.681" gradientUnits="userSpaceOnUse">
<stop stop-color="#080808"/>
<stop offset="0.44" stop-color="#090909"/>
<stop offset="0.6" stop-color="#101010"/>
<stop offset="0.71" stop-color="#1C1C1C"/>
<stop offset="0.8" stop-color="#2D2D2D"/>
<stop offset="0.88" stop-color="#434343"/>
<stop offset="0.95" stop-color="#5D5D5D"/>
<stop offset="1" stop-color="#767676"/>
</linearGradient>
<linearGradient id="paint29_linear_3278_35815" x1="18.9961" y1="20.5999" x2="10.4596" y2="20.597" gradientUnits="userSpaceOnUse">
<stop stop-color="white"/>
<stop offset="0.04" stop-color="#D9D9D8"/>
<stop offset="0.92" stop-color="#DFDFDE"/>
<stop offset="1" stop-color="#AEAEAE"/>
</linearGradient>
<linearGradient id="paint30_linear_3278_35815" x1="12.7893" y1="22.426" x2="12.7899" y2="20.6342" gradientUnits="userSpaceOnUse">
<stop stop-color="white"/>
<stop offset="0.04" stop-color="#D9D9D8"/>
<stop offset="0.92" stop-color="#DFDFDE"/>
<stop offset="1" stop-color="#AEAEAE"/>
</linearGradient>
<linearGradient id="paint31_linear_3278_35815" x1="7.08944" y1="22.5811" x2="7.09017" y2="20.4445" gradientUnits="userSpaceOnUse">
<stop stop-color="white"/>
<stop offset="0.04" stop-color="#D9D9D8"/>
<stop offset="0.92" stop-color="#DFDFDE"/>
<stop offset="1" stop-color="#AEAEAE"/>
</linearGradient>
<linearGradient id="paint32_linear_3278_35815" x1="21.7156" y1="22.5972" x2="21.7163" y2="20.4606" gradientUnits="userSpaceOnUse">
<stop stop-color="white"/>
<stop offset="0.04" stop-color="#D9D9D8"/>
<stop offset="0.92" stop-color="#DFDFDE"/>
<stop offset="1" stop-color="#AEAEAE"/>
</linearGradient>
<linearGradient id="paint33_linear_3278_35815" x1="16.2783" y1="28.0413" x2="12.1075" y2="28.0399" gradientUnits="userSpaceOnUse">
<stop stop-color="#4D4D4D"/>
<stop offset="0.25" stop-color="#2B2B2B"/>
<stop offset="0.48" stop-color="#080808"/>
<stop offset="0.56" stop-color="#0F0F0F"/>
<stop offset="0.69" stop-color="#242424"/>
<stop offset="0.83" stop-color="#474747"/>
<stop offset="1" stop-color="#767676"/>
</linearGradient>
<linearGradient id="paint34_linear_3278_35815" x1="14.2327" y1="42.3229" x2="14.243" y2="12.6199" gradientUnits="userSpaceOnUse">
<stop stop-color="#010101"/>
<stop offset="1" stop-color="#010101" stop-opacity="0"/>
</linearGradient>
<linearGradient id="paint35_linear_3278_35815" x1="14.6655" y1="26.2708" x2="13.8166" y2="26.2705" gradientUnits="userSpaceOnUse">
<stop stop-color="#AEAEAE"/>
<stop offset="0.38" stop-color="#DFDFDE"/>
<stop offset="0.45" stop-color="#DDDDDC"/>
<stop offset="0.48" stop-color="#D6D6D5"/>
<stop offset="0.49" stop-color="#CACACA"/>
<stop offset="0.51" stop-color="#BBBBBB"/>
<stop offset="0.53" stop-color="#C4C4C4"/>
<stop offset="0.56" stop-color="#D0D0CF"/>
<stop offset="0.62" stop-color="#D7D7D6"/>
<stop offset="0.76" stop-color="#D9D9D8"/>
<stop offset="1" stop-color="white"/>
</linearGradient>
<linearGradient id="paint36_linear_3278_35815" x1="14.1902" y1="43.2903" x2="14.1909" y2="41.4515" gradientUnits="userSpaceOnUse">
<stop stop-color="#080808"/>
<stop offset="0.44" stop-color="#090909"/>
<stop offset="0.6" stop-color="#101010"/>
<stop offset="0.71" stop-color="#1C1C1C"/>
<stop offset="0.8" stop-color="#2D2D2D"/>
<stop offset="0.88" stop-color="#434343"/>
<stop offset="0.95" stop-color="#5D5D5D"/>
<stop offset="1" stop-color="#767676"/>
</linearGradient>
<linearGradient id="paint37_linear_3278_35815" x1="15.9202" y1="10.814" x2="14.8235" y2="10.8136" gradientUnits="userSpaceOnUse">
<stop stop-color="#AEAEAE"/>
<stop offset="0.38" stop-color="#DFDFDE"/>
<stop offset="0.45" stop-color="#DDDDDC"/>
<stop offset="0.48" stop-color="#D6D6D5"/>
<stop offset="0.49" stop-color="#CACACA"/>
<stop offset="0.51" stop-color="#BBBBBB"/>
<stop offset="0.53" stop-color="#C4C4C4"/>
<stop offset="0.56" stop-color="#D0D0CF"/>
<stop offset="0.62" stop-color="#D7D7D6"/>
<stop offset="0.76" stop-color="#D9D9D8"/>
<stop offset="1" stop-color="white"/>
</linearGradient>
<linearGradient id="paint38_linear_3278_35815" x1="13.7429" y1="10.8071" x2="12.6515" y2="10.8067" gradientUnits="userSpaceOnUse">
<stop stop-color="#AEAEAE"/>
<stop offset="0.38" stop-color="#DFDFDE"/>
<stop offset="0.45" stop-color="#DDDDDC"/>
<stop offset="0.48" stop-color="#D6D6D5"/>
<stop offset="0.49" stop-color="#CACACA"/>
<stop offset="0.51" stop-color="#BBBBBB"/>
<stop offset="0.53" stop-color="#C4C4C4"/>
<stop offset="0.56" stop-color="#D0D0CF"/>
<stop offset="0.62" stop-color="#D7D7D6"/>
<stop offset="0.76" stop-color="#D9D9D8"/>
<stop offset="1" stop-color="white"/>
</linearGradient>
<linearGradient id="paint39_linear_3278_35815" x1="14.7521" y1="4.90993" x2="13.7925" y2="4.90959" gradientUnits="userSpaceOnUse">
<stop stop-color="white"/>
<stop offset="0.04" stop-color="#D9D9D8"/>
<stop offset="0.92" stop-color="#DFDFDE"/>
<stop offset="1" stop-color="#AEAEAE"/>
</linearGradient>
<linearGradient id="paint40_linear_3278_35815" x1="15.425" y1="8.63581" x2="13.1261" y2="8.63501" gradientUnits="userSpaceOnUse">
<stop stop-color="white"/>
<stop offset="0.5" stop-color="#D9D9D8"/>
<stop offset="0.53" stop-color="#DFDFDE"/>
<stop offset="0.92" stop-color="#DFDFDE"/>
<stop offset="1" stop-color="#AEAEAE"/>
</linearGradient>
<clipPath id="clip0_3278_35815">
<rect width="29" height="70" fill="white"/>
</clipPath>
</defs>
</svg>
