<svg width="28" height="75" viewBox="0 0 28 75" fill="none" xmlns="http://www.w3.org/2000/svg">
<path d="M1.19002 12.0615L4.22998 12.0615L4.22998 18.5623L1.19002 18.5623C0.90514 18.5623 0.67411 18.3538 0.67411 18.0967L0.67411 12.527C0.67411 12.27 0.905141 12.0615 1.19002 12.0615Z" fill="#3B464E"/>
<path d="M1.48478 18.5623L4.22998 18.5623L4.22998 12.0613L1.48478 12.0613L1.48478 18.5623Z" fill="#222B32"/>
<path d="M26.8098 12.0613L23.7698 12.0613L23.7698 18.562L26.8098 18.562C27.0947 18.562 27.3257 18.3536 27.3257 18.0965L27.3257 12.5268C27.3257 12.2698 27.0947 12.0613 26.8098 12.0613Z" fill="#3B464E"/>
<path d="M26.5147 12.0615L23.7695 12.0615L23.7695 18.5625L26.5147 18.5625L26.5147 12.0615Z" fill="#222B32"/>
<path d="M1.19002 4.99835L4.22998 4.99835L4.22998 11.4991L1.19002 11.4991C0.90514 11.4991 0.67411 11.2906 0.67411 11.0336L0.67411 5.46387C0.67411 5.20682 0.905141 4.99835 1.19002 4.99835Z" fill="#3B464E"/>
<path d="M1.48478 11.4995L4.22998 11.4995L4.22998 4.99856L1.48478 4.99856L1.48478 11.4995Z" fill="#222B32"/>
<path d="M26.8098 4.99838L23.7698 4.99838L23.7698 11.4991L26.8098 11.4991C27.0947 11.4991 27.3257 11.2906 27.3257 11.0336L27.3257 5.4639C27.3257 5.20685 27.0947 4.99838 26.8098 4.99838Z" fill="#3B464E"/>
<path d="M26.5147 4.99869L23.7695 4.99869L23.7695 11.4997L26.5147 11.4997L26.5147 4.99869Z" fill="#222B32"/>
<path d="M6.14088 -5.53141e-06L21.8593 -4.15726e-06C24.0235 -3.96806e-06 25.7778 1.58298 25.7778 3.5358L25.7778 45.2789C25.7778 46.6405 24.5545 47.7443 23.0456 47.7443L4.9544 47.7443C3.4454 47.7443 2.22211 46.6405 2.22211 45.2789L2.22211 3.5358C2.22211 1.58298 3.9767 -5.72061e-06 6.14088 -5.53141e-06Z" fill="#626262"/>
<path d="M7.33638 2.26814L20.6643 2.26814C22.5727 2.26814 24.1196 3.66422 24.1196 5.38602L24.1196 43.3023C24.1196 44.503 23.0408 45.4762 21.7104 45.4762L6.29027 45.4762C4.95957 45.4762 3.88105 44.5028 3.88105 43.3023L3.88106 5.38601C3.88078 3.66397 5.42795 2.26814 7.33638 2.26814Z" fill="#898989"/>
<path d="M22.4443 4.99858C22.7704 4.99858 23.0347 5.23704 23.0347 5.53127L23.0347 42.3519C23.0347 42.5695 22.8393 42.7458 22.5981 42.7458L22.2907 42.7458C22.0495 42.7458 21.8542 42.5693 21.8542 42.3519L21.8542 5.53152C21.8542 5.23704 22.1185 4.99858 22.4443 4.99858Z" fill="#CAD6DD"/>
<path d="M19.0669 4.99858C19.393 4.99858 19.6572 5.23704 19.6572 5.53127L19.6572 42.3519C19.6572 42.5695 19.4616 42.7458 19.2207 42.7458L18.9133 42.7458C18.6721 42.7458 18.4768 42.5693 18.4768 42.3519L18.4768 5.53152C18.4765 5.23704 18.7408 4.99858 19.0669 4.99858Z" fill="#CAD6DD"/>
<path d="M15.6889 4.99858C16.015 4.99858 16.2793 5.23704 16.2793 5.53127L16.2793 42.3519C16.2793 42.5695 16.0837 42.7458 15.8428 42.7458L15.5354 42.7458C15.2942 42.7458 15.0989 42.5693 15.0989 42.3519L15.0989 5.53152C15.0986 5.23704 15.3629 4.99858 15.6889 4.99858Z" fill="#CAD6DD"/>
<path d="M12.3115 4.99858C12.6376 4.99858 12.9019 5.23704 12.9019 5.53127L12.9019 42.3519C12.9019 42.5695 12.7063 42.7458 12.4653 42.7458L12.1579 42.7458C11.9167 42.7458 11.7214 42.5693 11.7214 42.3519L11.7214 5.53152C11.7211 5.23704 11.9854 4.99858 12.3115 4.99858Z" fill="#CAD6DD"/>
<path d="M8.93357 4.99858C9.25965 4.99858 9.52393 5.23704 9.52393 5.53127L9.52393 42.3519C9.52393 42.5695 9.3286 42.7458 9.0874 42.7458L8.78 42.7458C8.53881 42.7458 8.34349 42.5693 8.34349 42.3519L8.34349 5.53152C8.34322 5.23704 8.60749 4.99858 8.93357 4.99858Z" fill="#CAD6DD"/>
<path d="M5.55565 4.99858C5.88173 4.99858 6.146 5.23704 6.146 5.53127L6.146 42.3519C6.146 42.5695 5.9504 42.7458 5.70948 42.7458L5.40208 42.7458C5.16089 42.7458 4.96556 42.5693 4.96556 42.3519L4.96556 5.53152C4.96556 5.23704 5.22956 4.99858 5.55565 4.99858Z" fill="#CAD6DD"/>
<path d="M20.0452 49.2762L7.95456 49.2762C7.48563 49.2762 7.1057 48.9334 7.1057 48.5103C7.1057 48.0874 7.48563 47.7443 7.95456 47.7443L20.0452 47.7443C20.5138 47.7443 20.894 48.0871 20.894 48.5103C20.8938 48.9334 20.5138 49.2762 20.0452 49.2762Z" fill="#222B32"/>
<path d="M20.233 47.7444L7.76709 47.7444L7.76709 49.909L20.233 49.909L20.233 47.7444Z" fill="#3B464E"/>
<path d="M18.9687 47.7444L9.03125 47.7444L9.03125 49.909L18.9687 49.909L18.9687 47.7444Z" fill="#222B32"/>
<path d="M17.6656 49.4146L10.334 49.4146C9.97417 49.4146 9.6827 49.1513 9.6827 48.8268C9.6827 48.5021 9.97445 48.2391 10.334 48.2391L17.6656 48.2391C18.0254 48.2391 18.3169 48.5023 18.3169 48.8268C18.3169 49.1513 18.0251 49.4146 17.6656 49.4146Z" fill="#637079"/>
<path d="M4.81546 70.1059L23.1843 70.1059C24.1794 70.1059 24.7807 71.0959 24.2497 71.8552C23.378 73.1015 21.8383 73.9292 20.0848 73.9292L20.0191 73.9292L20.0191 71.3785L7.98179 71.3785L7.98179 73.9292L7.9164 73.9292C6.16209 73.9292 4.62206 73.1015 3.75013 71.8552C3.21911 71.0959 3.82018 70.1059 4.81546 70.1059Z" fill="#D32F2F"/>
<path d="M6.03327 49.7943L21.9668 49.7943C23.4135 49.7943 24.5859 50.8525 24.5859 52.1579L24.5859 69.1877C24.5859 71.5471 22.4665 73.4595 19.8518 73.4595L8.148 73.4595C5.53329 73.4595 3.41389 71.5471 3.41389 69.1877L3.41389 52.1579C3.41417 50.8525 4.58664 49.7943 6.03327 49.7943Z" fill="#1F71B3"/>
<path d="M8.88399 62.2359C6.39208 64.7882 6.66498 68.6801 9.49355 70.9286C12.3221 73.1772 16.6352 72.9309 19.1271 70.3786C21.6191 67.8263 21.3462 63.9344 18.5176 61.6858C15.689 59.4373 11.3759 59.6835 8.88399 62.2359Z" fill="#1052A9"/>
<path d="M4.59843 58.8522L23.4014 58.8522L23.4014 62.0992C23.4014 64.2219 21.4943 65.9427 19.142 65.9427L8.85784 65.9427C6.50549 65.9427 4.59843 64.2218 4.59843 62.0992L4.59843 58.8522Z" fill="#222B32"/>
<path d="M7.20652 51.1059L20.7935 51.1059C22.2401 51.1059 23.4126 52.1641 23.4126 53.4694L23.4126 58.6043C23.4126 60.4297 21.7728 61.9094 19.7499 61.9094L8.24987 61.9094C6.2269 61.9094 4.58714 60.4297 4.58714 58.6043L4.58714 53.4694C4.58741 52.1641 5.76016 51.1059 7.20652 51.1059Z" fill="#1052A9"/>
<path d="M7.8505 73.4595L20.1499 73.4595L20.1499 73.7022C20.1499 74.0247 19.8601 74.2862 19.5027 74.2862L8.49773 74.2862C8.14033 74.2862 7.8505 74.0247 7.8505 73.7022L7.8505 73.4595Z" fill="#222B32"/>
<path d="M25.379 62.4277L27.6761 62.4277C27.855 62.4277 28 62.2968 28 62.1354L28 61.919C28 61.7576 27.855 61.6268 27.6761 61.6268L25.379 61.6268C25.2001 61.6268 25.0551 61.7576 25.0551 61.919L25.0551 62.1354C25.0554 62.297 25.2001 62.4277 25.379 62.4277Z" fill="#E4EDF1"/>
<path d="M24.0453 62.7968L26.1982 62.7968C26.3801 62.7968 26.5273 62.6639 26.5273 62.4998C26.5273 62.3357 26.3801 62.2029 26.1982 62.2029L24.0453 62.2029C23.8635 62.2029 23.7162 62.3357 23.7162 62.4998C23.7159 62.6639 23.8635 62.7968 24.0453 62.7968Z" fill="#BEC9D2"/>
<path d="M2.62093 62.4277L0.323794 62.4277C0.144956 62.4277 -8.74277e-05 62.2968 -8.74136e-05 62.1354L-8.73947e-05 61.919C-8.73806e-05 61.7576 0.144957 61.6268 0.323794 61.6268L2.62093 61.6268C2.79977 61.6268 2.94482 61.7576 2.94482 61.919L2.94482 62.1354C2.94482 62.297 2.79977 62.4277 2.62093 62.4277Z" fill="#E4EDF1"/>
<path d="M3.95459 62.7968L1.80167 62.7968C1.61981 62.7968 1.47256 62.6639 1.47256 62.4998C1.47256 62.3357 1.61981 62.2029 1.80167 62.2029L3.95459 62.2029C4.13645 62.2029 4.28369 62.3357 4.28369 62.4998C4.28369 62.6639 4.13645 62.7968 3.95459 62.7968Z" fill="#BEC9D2"/>
<path d="M20.5404 52.0498C20.8986 52.0498 21.189 52.3118 21.189 52.6351L21.189 58.7392C21.189 59.0624 20.8986 59.3242 20.5404 59.3242C20.1821 59.3242 19.8918 59.0622 19.8918 58.7392L19.8918 52.6351C19.8921 52.3118 20.1821 52.0498 20.5404 52.0498Z" fill="#2973D6"/>
<path d="M18.3602 52.0498C18.7184 52.0498 19.0088 52.3118 19.0088 52.6351L19.0088 58.7392C19.0088 59.0624 18.7184 59.3242 18.3602 59.3242C18.002 59.3242 17.7116 59.0622 17.7116 58.7392L17.7116 52.6351C17.7116 52.3118 18.002 52.0498 18.3602 52.0498Z" fill="#2973D6"/>
<path d="M16.18 52.0498C16.5382 52.0498 16.8286 52.3118 16.8286 52.6351L16.8286 58.7392C16.8286 59.0624 16.5382 59.3242 16.18 59.3242C15.8218 59.3242 15.5314 59.0622 15.5314 58.7392L15.5314 52.6351C15.5317 52.3118 15.8221 52.0498 16.18 52.0498Z" fill="#2973D6"/>
<path d="M13.9998 52.0498C14.3581 52.0498 14.6484 52.3118 14.6484 52.6351L14.6484 58.7392C14.6484 59.0624 14.3581 59.3242 13.9998 59.3242C13.6416 59.3242 13.3515 59.0622 13.3515 58.7392L13.3515 52.6351C13.3512 52.3118 13.6416 52.0498 13.9998 52.0498Z" fill="#2973D6"/>
<path d="M11.8192 52.0498C12.1774 52.0498 12.4678 52.3118 12.4678 52.6351L12.4678 58.7392C12.4678 59.0624 12.1774 59.3242 11.8192 59.3242C11.461 59.3242 11.1709 59.0622 11.1709 58.7392L11.1709 52.6351C11.1709 52.3118 11.4612 52.0498 11.8192 52.0498Z" fill="#2973D6"/>
<path d="M9.63949 52.0498C9.99771 52.0498 10.2881 52.3118 10.2881 52.6351L10.2881 58.7392C10.2881 59.0624 9.99771 59.3242 9.63948 59.3242C9.28126 59.3242 8.99089 59.0622 8.99089 58.7392L8.99089 52.6351C8.99089 52.3118 9.28126 52.0498 9.63949 52.0498Z" fill="#2973D6"/>
<path d="M7.45911 52.0498C7.81733 52.0498 8.10742 52.3118 8.10742 52.6351L8.10742 58.7392C8.10742 59.0624 7.81706 59.3242 7.45911 59.3242C7.10088 59.3242 6.8105 59.0622 6.8105 58.7392L6.81051 52.6351C6.81078 52.3118 7.10116 52.0498 7.45911 52.0498Z" fill="#2973D6"/>
</svg>
