<svg width="1243" height="402" viewBox="0 0 1243 402" fill="none" xmlns="http://www.w3.org/2000/svg">
<rect y="69" width="100" height="37" rx="18.5" fill="#18A309"/>
<rect x="2" y="300" width="100" height="37" rx="18.5" fill="#18A309"/>
<rect x="43" y="112" width="19" height="183" fill="#D9D9D9"/>
<rect x="109" y="69" width="100" height="37" rx="18.5" fill="#18A309"/>
<rect x="111" y="300" width="100" height="37" rx="18.5" fill="#18A309"/>
<rect x="152" y="112" width="19" height="183" fill="#D9D9D9"/>
<rect x="1017" y="42" width="100" height="37" rx="18.5" fill="#18A309"/>
<rect x="1016" y="1" width="100" height="37" rx="18.5" fill="#18A309"/>
<rect x="1018" y="365" width="100" height="37" rx="18.5" fill="#18A309"/>
<rect x="1018" y="323" width="100" height="37" rx="18.5" fill="#18A309"/>
<rect x="1059" y="83" width="19" height="235" fill="#D9D9D9"/>
<rect x="1142" y="41" width="100" height="37" rx="18.5" fill="#18A309"/>
<rect x="1141" width="100" height="37" rx="18.5" fill="#18A309"/>
<rect x="1143" y="364" width="100" height="37" rx="18.5" fill="#18A309"/>
<rect x="1143" y="322" width="100" height="37" rx="18.5" fill="#18A309"/>
<rect x="1184" y="82" width="19" height="235" fill="#D9D9D9"/>
<rect x="892" y="42" width="100" height="37" rx="18.5" fill="#18A309"/>
<rect x="891" y="1" width="100" height="37" rx="18.5" fill="#18A309"/>
<rect x="893" y="365" width="100" height="37" rx="18.5" fill="#18A309"/>
<rect x="893" y="323" width="100" height="37" rx="18.5" fill="#18A309"/>
<rect x="934" y="83" width="19" height="235" fill="#D9D9D9"/>
<rect x="1203" y="197" width="19.0001" height="1177" transform="rotate(90 1203 197)" fill="#D9D9D9"/>
<circle cx="52.5" cy="206.5" r="26.5" fill="#D9D9D9"/>
<circle cx="161.5" cy="206.5" r="26.5" fill="#D9D9D9"/>
<circle cx="1068.5" cy="205.5" r="26.5" fill="#D9D9D9"/>
<circle cx="1193.5" cy="205.5" r="26.5" fill="#D9D9D9"/>
<circle cx="943.5" cy="205.5" r="26.5" fill="#D9D9D9"/>
</svg>
