<?xml version="1.0" encoding="utf-8"?>
<svg width="1453" height="786" viewBox="0 0 1453 786" fill="none" xmlns="http://www.w3.org/2000/svg">
  <path d="M659 486.5V252.5" stroke="#00637F" stroke-width="3" stroke-miterlimit="10"/>
  <path d="M668 486.5V252.5" stroke="#00637F" stroke-width="3" stroke-miterlimit="10"/>
  <path d="M757.854 317.839C695.129 317.809 649.4 317.638 646.192 317.571C646.192 317.571 642.247 317.455 639.03 316.24C638.805 316.154 638.604 316.069 638.418 315.983C637.48 315.562 632.714 313.413 631.458 308.858C631.295 308.254 630.505 305.128 632.59 301.959C633.326 300.842 634.682 299.321 640.131 296.733C642.161 295.768 643.789 295.115 645.153 294.62C648.858 293.289 651.183 292.477 651.919 292.208C654.741 291.183 657.996 287.867 659.468 277.5" stroke="#027C49" stroke-width="3" stroke-miterlimit="10"/>
  <path d="M659.492 326.87C659.492 319.213 659.476 311.563 659.476 303.907C659.065 303.492 653.392 297.929 645.401 298.748C644.665 298.821 637.348 299.651 635.682 304.017C634.364 307.472 637.495 310.568 637.914 310.971C640.658 313.602 644.913 314.121 646.517 314.305C654.988 315.3 698.531 315.483 757.962 314.726" stroke="#027C49" stroke-width="3" stroke-miterlimit="10"/>
  <path d="M667.598 286.963V301.995C668.466 303.76 670.737 307.667 675.961 310.873C681.844 314.481 687.99 315.067 690.362 315.195" stroke="#027C49" stroke-width="3" stroke-miterlimit="10"/>
  <path d="M667.598 346.065V331.033C668.466 329.269 670.737 325.361 675.961 322.156C681.844 318.547 687.99 317.961 690.362 317.833" stroke="#027C49" stroke-width="3" stroke-miterlimit="10"/>
  <path d="M757.884 442.912C695.159 442.882 649.431 442.711 646.222 442.644C646.222 442.644 642.277 442.528 639.06 441.313C638.836 441.227 638.634 441.142 638.448 441.056C637.51 440.635 632.744 438.486 631.488 433.931C631.325 433.326 630.535 430.2 632.62 427.032C633.356 425.914 634.712 424.394 640.161 421.805C642.192 420.841 643.819 420.187 645.183 419.693C648.888 418.362 651.213 417.55 651.95 417.281C654.771 416.255 658.026 412.94 659.499 402.573" stroke="#027C49" stroke-width="3" stroke-miterlimit="10"/>
  <path d="M659.529 451.942C659.529 444.286 659.514 436.635 659.514 428.979C659.103 428.564 653.429 423.002 645.439 423.82C644.702 423.893 637.386 424.723 635.719 429.089C634.402 432.545 637.533 435.64 637.952 436.043C640.695 438.675 644.95 439.194 646.555 439.377C655.026 440.372 698.569 440.555 758 439.798" stroke="#027C49" stroke-width="3" stroke-miterlimit="10"/>
  <path d="M667.629 412.036V427.068C668.497 428.833 670.768 432.74 675.992 435.945C681.874 439.554 688.021 440.14 690.392 440.268" stroke="#027C49" stroke-width="3" stroke-miterlimit="10"/>
  <path d="M667.629 471.144V456.112C668.497 454.347 670.768 450.44 675.992 447.234C681.874 443.626 688.021 443.04 690.392 442.912" stroke="#027C49" stroke-width="3" stroke-miterlimit="10"/>
  <path d="M744.057 448.297V433.21C744.057 432.178 742.995 431.342 741.685 431.342H738.779C737.469 431.342 736.407 432.178 736.407 433.21V448.297C736.407 449.329 737.469 450.165 738.779 450.165H741.685C742.995 450.165 744.057 449.329 744.057 448.297Z" fill="#FFB948"/>
  <path d="M659 594.5V360.5" stroke="#00637F" stroke-width="3" stroke-miterlimit="10"/>
  <path d="M668 594.5V360.5" stroke="#00637F" stroke-width="3" stroke-miterlimit="10"/>
  <path d="M757.678 551.414C694.953 551.383 649.225 551.212 646.016 551.145C646.016 551.145 642.071 551.029 638.854 549.814C638.63 549.729 638.428 549.643 638.242 549.558C637.304 549.136 632.538 546.987 631.282 542.432C631.119 541.828 630.329 538.702 632.414 535.533C633.15 534.416 634.506 532.895 639.955 530.307C641.986 529.342 643.613 528.689 644.977 528.194C648.682 526.863 651.007 526.051 651.744 525.782C654.565 524.757 657.82 521.441 659.293 511.074" stroke="#027C49" stroke-width="3" stroke-miterlimit="10"/>
  <path d="M659.324 560.444C659.324 552.788 659.308 545.137 659.308 537.481C658.897 537.066 653.224 531.504 645.233 532.322C644.497 532.395 637.18 533.225 635.514 537.591C634.196 541.047 637.327 544.142 637.746 544.545C640.49 547.177 644.745 547.696 646.349 547.879C654.82 548.874 698.363 549.057 757.794 548.3" stroke="#027C49" stroke-width="3" stroke-miterlimit="10"/>
  <path d="M667.423 520.538V535.57C668.291 537.334 670.562 541.242 675.786 544.447C681.668 548.056 687.815 548.642 690.186 548.77" stroke="#027C49" stroke-width="3" stroke-miterlimit="10"/>
  <path d="M667.423 579.645V564.613C668.291 562.849 670.562 558.941 675.786 555.736C681.668 552.127 687.815 551.541 690.186 551.413" stroke="#027C49" stroke-width="3" stroke-miterlimit="10"/>
  <path d="M743.851 556.798V541.712C743.851 540.68 742.789 539.843 741.479 539.843H738.573C737.263 539.843 736.201 540.68 736.201 541.712V556.798C736.201 557.83 737.263 558.667 738.573 558.667H741.479C742.789 558.667 743.851 557.83 743.851 556.798Z" fill="#FFB948"/>
  <path d="M527 233.5C599.664 233.5 672.336 233.5 745 233.5" stroke="#FD0001" stroke-width="3" stroke-miterlimit="10"/>
  <path d="M616.788 234.017C620.19 233.626 625.083 233.381 630.866 234.178C635.881 234.867 640.242 235.465 644.8 238.268C650.652 241.867 653.742 247.182 655.294 250.667C655.576 251.234 655.781 251.693 655.926 252.023C661.002 263.365 658.666 275.106 659.023 275.106C659.229 275.106 659.411 271.131 659.807 265.663C659.807 265.663 659.837 265.257 660.492 257.223C662.006 238.704 663.193 224.275 670.286 220.79C674.677 218.638 676.686 224.214 690.308 226.144C693.831 226.642 697.522 226.695 704.919 226.795C711.692 226.887 717.285 226.757 721.128 226.619" stroke="#027C49" stroke-width="3" stroke-miterlimit="10"/>
  <path d="M713.305 234.17C710.124 233.864 705.459 233.611 699.851 234.01C692.127 234.569 686.754 234.952 681.381 238.26C679.053 239.692 674.297 243.169 670.887 250.66C670.606 251.226 670.4 251.686 670.248 252.015C665.172 263.358 667.508 275.099 667.151 275.099C666.945 275.099 666.763 271.124 666.367 265.655C666.367 265.655 666.337 265.25 665.682 257.216C664.168 238.697 662.981 224.268 655.888 220.783C651.292 218.524 649.222 224.559 635.866 226.136C632.335 226.55 631.445 226.274 619.855 226.351C613.531 226.397 608.379 226.512 605.054 226.604" stroke="#027C49" stroke-width="3" stroke-miterlimit="10"/>
  <path d="M527 226.5C599.664 226.5 672.336 226.5 745 226.5" stroke="#FD0001" stroke-width="3" stroke-miterlimit="10"/>
  <path d="M798.662 234.061C817.763 234.061 825.388 232.421 829.224 236.743C834.03 242.169 833.09 251.305 839.477 256.21C843.886 259.589 851.824 262.425 859.121 258.831C867.327 254.792 868.862 245.503 869 244.553C868.893 228.129 868.786 211.705 868.687 195.281C868.335 193.204 866.96 186.667 861.146 181.218C855.209 175.654 848.447 174.788 846.384 174.604C822.592 174.236 798.8 173.868 775 173.5" stroke="#027C49" stroke-width="3" stroke-miterlimit="10"/>
  <path d="M774 177.5C800.055 178.097 821.038 178.717 836.731 178.755C842.212 178.771 852.347 178.725 858.268 185.675C860.774 188.622 861.388 191.745 862.671 197.952C864.387 206.303 863.97 211.791 863.886 224.964C863.863 229.013 863.856 235.098 864 242.607C862.641 250.782 855.338 255.634 849.219 254.272C843.859 253.078 839.076 247.039 840.435 241.222C841.642 236.07 847.07 233.919 847.663 233.697" stroke="#027C49" stroke-width="3" stroke-miterlimit="10"/>
  <path d="M862.834 198.5C863.044 200.228 863.877 208.454 858.175 216.015C851.956 224.271 842.743 225.386 841.213 225.543C832.473 225.864 823.733 226.186 815 226.5" stroke="#027C49" stroke-width="3" stroke-miterlimit="10"/>
  <path d="M868.082 199.5C867.927 201.291 867.386 209.816 873.656 217.368C880.66 225.809 890.671 226.424 892.249 226.5H918" stroke="#027C49" stroke-width="3" stroke-miterlimit="10"/>
  <path d="M1142 184.5V9.5" stroke="#00637F" stroke-width="3" stroke-miterlimit="10"/>
  <path d="M1149 184.5V9.5" stroke="#00637F" stroke-width="3" stroke-miterlimit="10"/>
  <path d="M1148.92 135.5C1149 132.931 1149.48 128.699 1151.75 124.152C1153.16 121.338 1154.87 117.895 1158.51 115.74C1162.67 113.279 1164.64 115.288 1169.69 112.643C1171.29 111.807 1174.41 110.128 1176.36 106.47C1176.9 105.466 1178.81 101.732 1177.61 97.1922C1176.65 93.5501 1174.22 91.4875 1173.46 90.8434C1171.14 88.8728 1167.89 87.4773 1163.57 87.5003C1143.49 87.5846 1123.42 87.669 1103.35 87.7533C1090.43 87.807 1086.81 94.8689 1084.31 98.1584C1079.92 103.909 1079.27 110.542 1079 114.866" stroke="#00637F" stroke-width="3" stroke-miterlimit="10"/>
  <path d="M1085.14 115.5C1084.86 112.678 1084.52 105.4 1089.23 99.6246C1090.59 97.9538 1093.23 95.3524 1100.78 92.9188C1115.5 92.9189 1121.25 92.9796 1143 92.9186C1146.76 92.9109 1149.74 92.9722 1153.5 92.9188C1157.12 92.8731 1159.5 92.9186 1162.5 92.9187C1166 92.9187 1167.73 92.7835 1170 94.5C1170.63 94.973 1173.18 97.1703 1173 101C1172.73 106.409 1165.63 110.953 1158.5 109C1152.76 107.428 1149.68 102.997 1149.27 102.035" stroke="#00637F" stroke-width="3" stroke-miterlimit="10"/>
  <path d="M1118 93.0003C1120.5 93.0154 1125.5 92.5003 1132.99 97.0062C1138.77 101.797 1141.12 107.635 1142 110.231V126.5" stroke="#00637F" stroke-width="3" stroke-miterlimit="10"/>
  <path d="M1116 87.5C1119.17 87.5 1127.8 87.0643 1135.42 81.0466C1138.59 78.5448 1140.67 75.7951 1142 73.6315V59.5" stroke="#00637F" stroke-width="3" stroke-miterlimit="10"/>
  <path d="M1093.62 101.5H1074.38C1073.07 101.5 1072 102.472 1072 103.67V106.33C1072 107.528 1073.07 108.5 1074.38 108.5H1093.62C1094.93 108.5 1096 107.528 1096 106.33V103.67C1096 102.472 1094.93 101.5 1093.62 101.5Z" fill="#FFB948"/>
  <path d="M973 214.5H950V224.5H973V214.5Z" fill="#FFB948" stroke="#FCAC56" stroke-miterlimit="10"/>
  <path d="M973 235.5H950V245.5H973V235.5Z" fill="#FFB948" stroke="#FCAC56" stroke-miterlimit="10"/>
  <path d="M845 187.118V167.882C845 166.566 844.028 165.5 842.83 165.5H840.17C838.972 165.5 838 166.566 838 167.882V187.118C838 188.434 838.972 189.5 840.17 189.5H842.83C844.028 189.5 845 188.434 845 187.118Z" fill="#FFB948"/>
  <path d="M714 328.713V314.287C714 313.3 712.89 312.5 711.52 312.5H708.48C707.11 312.5 706 313.3 706 314.287V328.713C706 329.7 707.11 330.5 708.48 330.5H711.52C712.89 330.5 714 329.7 714 328.713Z" fill="#FFB948"/>
  <path d="M745 226.5H1190" stroke="#E50014" stroke-width="3" stroke-miterlimit="10"/>
  <path d="M640 383.5V360.5L653 364.034V379.979L640 383.5Z" fill="#FFB948" stroke="#FCAC56" stroke-miterlimit="10"/>
  <path d="M658 362.5V385.5L640 381.961V366.02L658 362.5Z" fill="#FFB948" stroke="#FCAC56" stroke-miterlimit="10"/>
  <path d="M669 503.5V481.5L684 484.88V500.132L669 503.5Z" fill="#FFB948" stroke="#FCAC56" stroke-miterlimit="10"/>
  <path d="M657 480.5V502.5L640 499.114V483.867L657 480.5Z" fill="#FFB948" stroke="#FCAC56" stroke-miterlimit="10"/>
  <path d="M461 380.5C461.338 415.499 461.662 450.501 462 485.5" stroke="#FF7A00" stroke-width="3" stroke-miterlimit="10"/>
  <path d="M470 380.5C470 415.499 470 450.501 470 485.5" stroke="#FF7A00" stroke-width="3" stroke-miterlimit="10"/>
  <path d="M734 238.5V219.5H726V238.5H734Z" fill="#00637F"/>
  <path d="M533 239.5V220.5H523V239.5H533Z" fill="#00637F"/>
  <path d="M745 233.5H1190" stroke="#E50014" stroke-width="3" stroke-miterlimit="10"/>
  <path d="M771 153.5H768V283.5H771V153.5Z" fill="#FFB948"/>
  <path d="M776 153.5H773V283.5H776V153.5Z" fill="#FFB948"/>
  <path d="M1149.07 181.846C1148.37 188.417 1148.68 193.809 1149.09 197.492C1149.9 204.845 1150.64 211.447 1155.39 217.627C1156.65 219.251 1159.31 222.644 1164 224.826C1167.44 226.435 1170.28 226.695 1175.34 227.07C1178.87 227.331 1183.9 227.461 1190 226.795" stroke="#FD0001" stroke-width="3" stroke-miterlimit="10"/>
  <path d="M1141.96 182.006C1142.1 184.763 1142.29 188.968 1142.33 194.13C1142.39 200.854 1142.16 201.077 1142.37 204.4C1142.45 205.611 1142.87 207.587 1144.95 219.871C1145.41 222.613 1145.93 225.63 1147.06 229.552C1148.8 235.617 1149.73 238.673 1152.37 240.021C1154.6 241.155 1157 240.588 1160.7 239.707C1165.24 238.627 1168.4 236.896 1169.11 236.521C1172.92 234.492 1179.19 232.707 1189.99 233.887" stroke="#FD0001" stroke-width="3" stroke-miterlimit="10"/>
  <path d="M1142 182C1142 188.5 1142.5 194 1142.5 197.5C1141.67 204.959 1140.97 211.529 1136.11 217.798C1134.82 219.445 1132.1 222.887 1127.3 225.102C1123.5 226.857 1119.84 226.213 1115.5 226.5C1111.49 226.764 1108.5 226.5 1105.5 226.5" stroke="#00637F" stroke-width="3" stroke-miterlimit="10"/>
  <path d="M1149 181.5C1148.86 184.274 1148.67 188.504 1148.63 193.697C1148.57 200.461 1148.8 200.685 1148.59 204.029C1148.51 205.246 1148.08 207.234 1146 219.592C1145.54 222.351 1145.02 225.386 1143.89 229.331C1142.14 235.433 1141.21 238.507 1138.57 239.863C1136.33 241.004 1133.92 240.434 1130.21 239.547C1126.86 238.746 1125.76 237.822 1121.79 236.342C1119.82 235.603 1116.85 234.624 1113.05 233.846C1104.03 233.823 1095.02 233.792 1086 233.769" stroke="#00637F" stroke-width="3" stroke-miterlimit="10"/>
  <path d="M1189 233.5C1277 233.5 1365 233.5 1453 233.5" stroke="#E50014" stroke-width="3" stroke-miterlimit="10"/>
  <path d="M1189 226.5C1277 226.838 1365 227.162 1453 227.5" stroke="#E50014" stroke-width="3" stroke-miterlimit="10"/>
  <path d="M1283 220.5V239.5H1293V220.5H1283Z" fill="#00637F"/>
  <rect x="396" y="477.5" width="47" height="27" rx="5" fill="#2973D6"/>
  <path d="M407.057 486.773H408.318L411.284 494.017H411.386L414.352 486.773H415.614V495.5H414.625V488.869H414.54L411.812 495.5H410.858L408.131 488.869H408.045V495.5H407.057V486.773ZM417.733 495.5V486.773H420.784C421.392 486.773 421.893 486.878 422.288 487.088C422.683 487.295 422.977 487.575 423.17 487.928C423.363 488.277 423.46 488.665 423.46 489.091C423.46 489.466 423.393 489.776 423.26 490.02C423.129 490.264 422.956 490.457 422.74 490.599C422.527 490.741 422.295 490.847 422.045 490.915V491C422.312 491.017 422.581 491.111 422.85 491.281C423.12 491.452 423.346 491.696 423.528 492.014C423.71 492.332 423.801 492.722 423.801 493.182C423.801 493.619 423.701 494.013 423.502 494.362C423.304 494.712 422.99 494.989 422.561 495.193C422.132 495.398 421.574 495.5 420.886 495.5H417.733ZM418.789 494.562H420.886C421.576 494.562 422.066 494.429 422.356 494.162C422.649 493.892 422.795 493.565 422.795 493.182C422.795 492.886 422.72 492.614 422.569 492.364C422.419 492.111 422.204 491.909 421.926 491.759C421.647 491.605 421.318 491.528 420.937 491.528H418.789V494.562ZM418.789 490.608H420.75C421.068 490.608 421.355 490.545 421.61 490.42C421.869 490.295 422.074 490.119 422.224 489.892C422.377 489.665 422.454 489.398 422.454 489.091C422.454 488.707 422.321 488.382 422.054 488.115C421.787 487.845 421.363 487.71 420.784 487.71H418.789V490.608ZM425.06 487.71V486.773H431.605V487.71H428.861V495.5H427.804V487.71H425.06Z" fill="white"/>
  <rect x="520" y="462.5" width="51" height="27" rx="5" fill="#2973D6"/>
  <path d="M531.057 480.5V471.773H534.108C534.716 471.773 535.217 471.878 535.612 472.088C536.007 472.295 536.301 472.575 536.494 472.928C536.688 473.277 536.784 473.665 536.784 474.091C536.784 474.466 536.717 474.776 536.584 475.02C536.453 475.264 536.28 475.457 536.064 475.599C535.851 475.741 535.619 475.847 535.369 475.915V476C535.636 476.017 535.905 476.111 536.175 476.281C536.445 476.452 536.67 476.696 536.852 477.014C537.034 477.332 537.125 477.722 537.125 478.182C537.125 478.619 537.026 479.013 536.827 479.362C536.628 479.712 536.314 479.989 535.885 480.193C535.456 480.398 534.898 480.5 534.21 480.5H531.057ZM532.114 479.562H534.21C534.901 479.562 535.391 479.429 535.68 479.162C535.973 478.892 536.119 478.565 536.119 478.182C536.119 477.886 536.044 477.614 535.893 477.364C535.743 477.111 535.528 476.909 535.25 476.759C534.972 476.605 534.642 476.528 534.261 476.528H532.114V479.562ZM532.114 475.608H534.074C534.392 475.608 534.679 475.545 534.935 475.42C535.193 475.295 535.398 475.119 535.548 474.892C535.702 474.665 535.778 474.398 535.778 474.091C535.778 473.707 535.645 473.382 535.378 473.115C535.111 472.845 534.688 472.71 534.108 472.71H532.114V475.608ZM538.725 480.5V473.955H539.731V480.5H538.725ZM539.237 472.864C539.04 472.864 538.871 472.797 538.729 472.663C538.59 472.53 538.521 472.369 538.521 472.182C538.521 471.994 538.59 471.834 538.729 471.7C538.871 471.567 539.04 471.5 539.237 471.5C539.433 471.5 539.6 471.567 539.739 471.7C539.881 471.834 539.952 471.994 539.952 472.182C539.952 472.369 539.881 472.53 539.739 472.663C539.6 472.797 539.433 472.864 539.237 472.864ZM542.578 476.562V480.5H541.573V473.955H542.544V474.977H542.63C542.783 474.645 543.016 474.378 543.328 474.176C543.641 473.972 544.044 473.869 544.539 473.869C544.982 473.869 545.37 473.96 545.702 474.142C546.034 474.321 546.293 474.594 546.478 474.96C546.662 475.324 546.755 475.784 546.755 476.341V480.5H545.749V476.409C545.749 475.895 545.615 475.494 545.348 475.207C545.081 474.918 544.715 474.773 544.249 474.773C543.928 474.773 543.641 474.842 543.388 474.982C543.138 475.121 542.941 475.324 542.796 475.591C542.651 475.858 542.578 476.182 542.578 476.562ZM553.229 475.42L552.325 475.676C552.268 475.526 552.185 475.379 552.074 475.237C551.966 475.092 551.818 474.973 551.631 474.879C551.443 474.786 551.203 474.739 550.911 474.739C550.51 474.739 550.176 474.831 549.909 475.016C549.645 475.197 549.513 475.429 549.513 475.71C549.513 475.96 549.604 476.158 549.786 476.303C549.967 476.447 550.251 476.568 550.638 476.665L551.609 476.903C552.195 477.045 552.631 477.263 552.918 477.555C553.205 477.845 553.348 478.219 553.348 478.676C553.348 479.051 553.24 479.386 553.024 479.682C552.811 479.977 552.513 480.21 552.129 480.381C551.746 480.551 551.3 480.636 550.791 480.636C550.124 480.636 549.571 480.491 549.134 480.202C548.696 479.912 548.419 479.489 548.303 478.932L549.257 478.693C549.348 479.045 549.52 479.31 549.773 479.486C550.028 479.662 550.362 479.75 550.774 479.75C551.243 479.75 551.615 479.651 551.891 479.452C552.169 479.25 552.308 479.009 552.308 478.727C552.308 478.5 552.229 478.31 552.07 478.156C551.911 478 551.666 477.884 551.337 477.807L550.246 477.551C549.646 477.409 549.206 477.189 548.925 476.891C548.646 476.589 548.507 476.213 548.507 475.761C548.507 475.392 548.611 475.065 548.818 474.781C549.028 474.497 549.314 474.274 549.675 474.112C550.038 473.95 550.45 473.869 550.911 473.869C551.558 473.869 552.067 474.011 552.436 474.295C552.808 474.58 553.072 474.955 553.229 475.42ZM556.788 480.653C556.373 480.653 555.997 480.575 555.659 480.419C555.321 480.26 555.052 480.031 554.853 479.733C554.654 479.432 554.555 479.068 554.555 478.642C554.555 478.267 554.629 477.963 554.777 477.73C554.924 477.494 555.122 477.31 555.369 477.176C555.616 477.043 555.889 476.943 556.187 476.878C556.488 476.81 556.791 476.756 557.095 476.716C557.493 476.665 557.815 476.626 558.062 476.601C558.312 476.572 558.494 476.526 558.608 476.46C558.724 476.395 558.782 476.281 558.782 476.119V476.085C558.782 475.665 558.667 475.338 558.437 475.105C558.21 474.872 557.865 474.756 557.402 474.756C556.922 474.756 556.545 474.861 556.272 475.071C556 475.281 555.808 475.506 555.697 475.744L554.743 475.403C554.913 475.006 555.14 474.696 555.424 474.474C555.711 474.25 556.024 474.094 556.362 474.006C556.703 473.915 557.038 473.869 557.368 473.869C557.578 473.869 557.819 473.895 558.092 473.946C558.368 473.994 558.633 474.095 558.889 474.249C559.147 474.402 559.362 474.634 559.532 474.943C559.703 475.253 559.788 475.668 559.788 476.188V480.5H558.782V479.614H558.731C558.663 479.756 558.549 479.908 558.39 480.07C558.231 480.232 558.02 480.369 557.755 480.483C557.491 480.597 557.169 480.653 556.788 480.653ZM556.941 479.75C557.339 479.75 557.674 479.672 557.947 479.516C558.223 479.359 558.43 479.158 558.569 478.911C558.711 478.663 558.782 478.403 558.782 478.131V477.21C558.74 477.261 558.646 477.308 558.501 477.351C558.359 477.391 558.194 477.426 558.007 477.457C557.822 477.486 557.642 477.511 557.466 477.534C557.292 477.554 557.152 477.571 557.044 477.585C556.782 477.619 556.538 477.675 556.311 477.751C556.086 477.825 555.904 477.937 555.765 478.088C555.629 478.236 555.561 478.437 555.561 478.693C555.561 479.043 555.69 479.307 555.949 479.486C556.21 479.662 556.541 479.75 556.941 479.75Z" fill="white"/>
  <rect x="269" y="319.5" width="76" height="32.5072" rx="5" fill="#2973D6"/>
  <path d="M280.057 340.253V331.526H283.108C283.716 331.526 284.217 331.631 284.612 331.841C285.007 332.049 285.301 332.329 285.494 332.681C285.688 333.03 285.784 333.418 285.784 333.844C285.784 334.219 285.717 334.529 285.584 334.773C285.453 335.018 285.28 335.211 285.064 335.353C284.851 335.495 284.619 335.6 284.369 335.668V335.753C284.636 335.77 284.905 335.864 285.175 336.035C285.445 336.205 285.67 336.449 285.852 336.768C286.034 337.086 286.125 337.475 286.125 337.935C286.125 338.373 286.026 338.766 285.827 339.116C285.628 339.465 285.314 339.742 284.885 339.947C284.456 340.151 283.898 340.253 283.21 340.253H280.057ZM281.114 339.316H283.21C283.901 339.316 284.391 339.182 284.68 338.915C284.973 338.645 285.119 338.319 285.119 337.935C285.119 337.64 285.044 337.367 284.893 337.117C284.743 336.864 284.528 336.663 284.25 336.512C283.972 336.359 283.642 336.282 283.261 336.282H281.114V339.316ZM281.114 335.361H283.074C283.392 335.361 283.679 335.299 283.935 335.174C284.193 335.049 284.398 334.873 284.548 334.645C284.702 334.418 284.778 334.151 284.778 333.844C284.778 333.461 284.645 333.136 284.378 332.868C284.111 332.599 283.688 332.464 283.108 332.464H281.114V335.361ZM287.862 340.253V331.526H293.129V332.464H288.918V335.413H292.856V336.35H288.918V339.316H293.197V340.253H287.862ZM295.033 340.253V331.526H296.09V339.316H300.147V340.253H295.033ZM301.783 331.526H303.045L306.011 338.77H306.113L309.079 331.526H310.34V340.253H309.352V333.623H309.266L306.539 340.253H305.585L302.857 333.623H302.772V340.253H301.783V331.526ZM312.459 340.253V331.526H317.726V332.464H313.516V335.413H317.453V336.35H313.516V339.316H317.794V340.253H312.459ZM319.631 340.253V331.526H322.58C323.262 331.526 323.821 331.643 324.259 331.876C324.696 332.106 325.02 332.422 325.23 332.826C325.441 333.229 325.546 333.688 325.546 334.202C325.546 334.716 325.441 335.172 325.23 335.57C325.02 335.968 324.698 336.28 324.263 336.508C323.828 336.732 323.273 336.844 322.597 336.844H320.211V335.89H322.563C323.029 335.89 323.404 335.822 323.688 335.685C323.975 335.549 324.182 335.356 324.31 335.106C324.441 334.853 324.506 334.552 324.506 334.202C324.506 333.853 324.441 333.547 324.31 333.286C324.179 333.025 323.971 332.823 323.684 332.681C323.397 332.536 323.017 332.464 322.546 332.464H320.688V340.253H319.631ZM323.739 336.333L325.887 340.253H324.659L322.546 336.333H323.739ZM327.665 340.253H326.557L329.761 331.526H330.852L334.057 340.253H332.949L330.341 332.907H330.273L327.665 340.253ZM328.074 336.844H332.54V337.782H328.074V336.844Z" fill="white"/>
  <rect x="393" y="275.5" width="54" height="29" rx="5" fill="#2973D6"/>
  <path d="M404.057 285.773H405.318L408.284 293.017H408.386L411.352 285.773H412.614V294.5H411.625V287.869H411.54L408.812 294.5H407.858L405.131 287.869H405.045V294.5H404.057V285.773ZM414.733 294.5V285.773H415.789V290.102H415.892L419.812 285.773H421.193L417.528 289.71L421.193 294.5H419.914L416.88 290.443L415.789 291.67V294.5H414.733ZM422.083 286.71V285.773H428.629V286.71H425.885V294.5H424.828V286.71H422.083ZM429.783 286.71V285.773H436.328V286.71H433.584V294.5H432.527V286.71H429.783Z" fill="white"/>
  <rect x="706" y="360.5" width="109" height="29" rx="5" fill="#2973D6"/>
  <path d="M719.75 379.5H717.057V370.773H719.869C720.716 370.773 721.44 370.947 722.043 371.297C722.645 371.643 723.107 372.142 723.428 372.793C723.749 373.44 723.909 374.216 723.909 375.119C723.909 376.028 723.747 376.811 723.423 377.467C723.099 378.121 722.628 378.624 722.009 378.976C721.389 379.325 720.636 379.5 719.75 379.5ZM718.114 378.562H719.682C720.403 378.562 721.001 378.423 721.476 378.145C721.95 377.866 722.304 377.47 722.537 376.956C722.77 376.442 722.886 375.83 722.886 375.119C722.886 374.415 722.771 373.808 722.541 373.3C722.311 372.788 721.967 372.396 721.51 372.124C721.053 371.848 720.483 371.71 719.801 371.71H718.114V378.562ZM728.205 379.636C727.614 379.636 727.095 379.496 726.649 379.214C726.206 378.933 725.859 378.54 725.609 378.034C725.362 377.528 725.239 376.937 725.239 376.261C725.239 375.58 725.362 374.984 725.609 374.476C725.859 373.967 726.206 373.572 726.649 373.291C727.095 373.01 727.614 372.869 728.205 372.869C728.795 372.869 729.313 373.01 729.756 373.291C730.202 373.572 730.548 373.967 730.795 374.476C731.045 374.984 731.17 375.58 731.17 376.261C731.17 376.937 731.045 377.528 730.795 378.034C730.548 378.54 730.202 378.933 729.756 379.214C729.313 379.496 728.795 379.636 728.205 379.636ZM728.205 378.733C728.653 378.733 729.023 378.618 729.312 378.388C729.602 378.158 729.817 377.855 729.956 377.48C730.095 377.105 730.165 376.699 730.165 376.261C730.165 375.824 730.095 375.416 729.956 375.038C729.817 374.661 729.602 374.355 729.312 374.122C729.023 373.889 728.653 373.773 728.205 373.773C727.756 373.773 727.386 373.889 727.097 374.122C726.807 374.355 726.592 374.661 726.453 375.038C726.314 375.416 726.244 375.824 726.244 376.261C726.244 376.699 726.314 377.105 726.453 377.48C726.592 377.855 726.807 378.158 727.097 378.388C727.386 378.618 727.756 378.733 728.205 378.733ZM733.711 370.773V379.5H732.706V370.773H733.711ZM738.212 379.636C737.621 379.636 737.103 379.496 736.657 379.214C736.214 378.933 735.867 378.54 735.617 378.034C735.37 377.528 735.246 376.937 735.246 376.261C735.246 375.58 735.37 374.984 735.617 374.476C735.867 373.967 736.214 373.572 736.657 373.291C737.103 373.01 737.621 372.869 738.212 372.869C738.803 372.869 739.32 373.01 739.763 373.291C740.21 373.572 740.556 373.967 740.803 374.476C741.053 374.984 741.178 375.58 741.178 376.261C741.178 376.937 741.053 377.528 740.803 378.034C740.556 378.54 740.21 378.933 739.763 379.214C739.32 379.496 738.803 379.636 738.212 379.636ZM738.212 378.733C738.661 378.733 739.031 378.618 739.32 378.388C739.61 378.158 739.825 377.855 739.964 377.48C740.103 377.105 740.173 376.699 740.173 376.261C740.173 375.824 740.103 375.416 739.964 375.038C739.825 374.661 739.61 374.355 739.32 374.122C739.031 373.889 738.661 373.773 738.212 373.773C737.763 373.773 737.394 373.889 737.104 374.122C736.815 374.355 736.6 374.661 736.461 375.038C736.322 375.416 736.252 375.824 736.252 376.261C736.252 376.699 736.322 377.105 736.461 377.48C736.6 377.855 736.815 378.158 737.104 378.388C737.394 378.618 737.763 378.733 738.212 378.733ZM743.651 377.114L743.634 375.869H743.838L746.702 372.955H747.946L744.895 376.04H744.81L743.651 377.114ZM742.713 379.5V370.773H743.719V379.5H742.713ZM746.873 379.5L744.316 376.261L745.032 375.562L748.151 379.5H746.873ZM752.752 370.773H754.013L756.979 378.017H757.082L760.048 370.773H761.309V379.5H760.32V372.869H760.235L757.508 379.5H756.553L753.826 372.869H753.741V379.5H752.752V370.773ZM766.036 379.636C765.405 379.636 764.861 379.497 764.404 379.219C763.949 378.938 763.598 378.545 763.351 378.043C763.107 377.537 762.985 376.949 762.985 376.278C762.985 375.608 763.107 375.017 763.351 374.506C763.598 373.991 763.942 373.591 764.382 373.304C764.826 373.014 765.343 372.869 765.934 372.869C766.275 372.869 766.611 372.926 766.944 373.04C767.276 373.153 767.578 373.338 767.851 373.594C768.124 373.847 768.341 374.182 768.503 374.599C768.665 375.017 768.746 375.531 768.746 376.142V376.568H763.701V375.699H767.723C767.723 375.33 767.65 375 767.502 374.71C767.357 374.42 767.15 374.192 766.88 374.024C766.613 373.857 766.297 373.773 765.934 373.773C765.533 373.773 765.186 373.872 764.894 374.071C764.604 374.267 764.381 374.523 764.225 374.838C764.069 375.153 763.99 375.491 763.99 375.852V376.432C763.99 376.926 764.076 377.345 764.246 377.689C764.419 378.03 764.659 378.29 764.966 378.469C765.273 378.645 765.63 378.733 766.036 378.733C766.3 378.733 766.539 378.696 766.752 378.622C766.968 378.545 767.154 378.432 767.31 378.281C767.466 378.128 767.587 377.937 767.672 377.71L768.644 377.983C768.542 378.312 768.37 378.602 768.128 378.852C767.887 379.099 767.588 379.293 767.233 379.432C766.878 379.568 766.479 379.636 766.036 379.636ZM770.276 379.5V372.955H771.248V373.943H771.316C771.435 373.619 771.651 373.357 771.963 373.155C772.276 372.953 772.628 372.852 773.02 372.852C773.094 372.852 773.186 372.854 773.297 372.857C773.408 372.859 773.492 372.864 773.549 372.869V373.892C773.515 373.884 773.436 373.871 773.314 373.854C773.195 373.834 773.069 373.824 772.935 373.824C772.617 373.824 772.333 373.891 772.083 374.024C771.836 374.155 771.64 374.337 771.495 374.57C771.353 374.8 771.282 375.062 771.282 375.358V379.5H770.276ZM776.667 379.653C776.252 379.653 775.876 379.575 775.538 379.419C775.2 379.26 774.931 379.031 774.732 378.733C774.533 378.432 774.434 378.068 774.434 377.642C774.434 377.267 774.508 376.963 774.656 376.73C774.803 376.494 775.001 376.31 775.248 376.176C775.495 376.043 775.768 375.943 776.066 375.878C776.367 375.81 776.67 375.756 776.974 375.716C777.371 375.665 777.694 375.626 777.941 375.601C778.191 375.572 778.373 375.526 778.487 375.46C778.603 375.395 778.661 375.281 778.661 375.119V375.085C778.661 374.665 778.546 374.338 778.316 374.105C778.089 373.872 777.744 373.756 777.281 373.756C776.8 373.756 776.424 373.861 776.151 374.071C775.879 374.281 775.687 374.506 775.576 374.744L774.621 374.403C774.792 374.006 775.019 373.696 775.303 373.474C775.59 373.25 775.903 373.094 776.241 373.006C776.582 372.915 776.917 372.869 777.246 372.869C777.457 372.869 777.698 372.895 777.971 372.946C778.246 372.994 778.512 373.095 778.768 373.249C779.026 373.402 779.241 373.634 779.411 373.943C779.582 374.253 779.667 374.668 779.667 375.188V379.5H778.661V378.614H778.61C778.542 378.756 778.428 378.908 778.269 379.07C778.11 379.232 777.898 379.369 777.634 379.483C777.37 379.597 777.048 379.653 776.667 379.653ZM776.82 378.75C777.218 378.75 777.553 378.672 777.826 378.516C778.102 378.359 778.309 378.158 778.448 377.911C778.59 377.663 778.661 377.403 778.661 377.131V376.21C778.619 376.261 778.525 376.308 778.38 376.351C778.238 376.391 778.073 376.426 777.886 376.457C777.701 376.486 777.521 376.511 777.344 376.534C777.171 376.554 777.031 376.571 776.923 376.585C776.661 376.619 776.417 376.675 776.19 376.751C775.965 376.825 775.783 376.937 775.644 377.088C775.508 377.236 775.44 377.437 775.44 377.693C775.44 378.043 775.569 378.307 775.827 378.486C776.089 378.662 776.42 378.75 776.82 378.75ZM782.985 379.5L780.991 372.955H782.048L783.463 377.966H783.531L784.929 372.955H786.002L787.383 377.949H787.451L788.866 372.955H789.923L787.929 379.5H786.94L785.508 374.472H785.406L783.974 379.5H782.985ZM793.179 379.653C792.764 379.653 792.387 379.575 792.049 379.419C791.711 379.26 791.443 379.031 791.244 378.733C791.045 378.432 790.946 378.068 790.946 377.642C790.946 377.267 791.02 376.963 791.167 376.73C791.315 376.494 791.512 376.31 791.76 376.176C792.007 376.043 792.279 375.943 792.578 375.878C792.879 375.81 793.181 375.756 793.485 375.716C793.883 375.665 794.206 375.626 794.453 375.601C794.703 375.572 794.885 375.526 794.998 375.46C795.115 375.395 795.173 375.281 795.173 375.119V375.085C795.173 374.665 795.058 374.338 794.828 374.105C794.6 373.872 794.255 373.756 793.792 373.756C793.312 373.756 792.936 373.861 792.663 374.071C792.39 374.281 792.199 374.506 792.088 374.744L791.133 374.403C791.304 374.006 791.531 373.696 791.815 373.474C792.102 373.25 792.414 373.094 792.752 373.006C793.093 372.915 793.429 372.869 793.758 372.869C793.968 372.869 794.21 372.895 794.483 372.946C794.758 372.994 795.024 373.095 795.279 373.249C795.538 373.402 795.752 373.634 795.923 373.943C796.093 374.253 796.179 374.668 796.179 375.188V379.5H795.173V378.614H795.122C795.054 378.756 794.94 378.908 794.781 379.07C794.622 379.232 794.41 379.369 794.146 379.483C793.882 379.597 793.559 379.653 793.179 379.653ZM793.332 378.75C793.73 378.75 794.065 378.672 794.338 378.516C794.613 378.359 794.821 378.158 794.96 377.911C795.102 377.663 795.173 377.403 795.173 377.131V376.21C795.13 376.261 795.037 376.308 794.892 376.351C794.75 376.391 794.585 376.426 794.397 376.457C794.213 376.486 794.032 376.511 793.856 376.534C793.683 376.554 793.542 376.571 793.434 376.585C793.173 376.619 792.929 376.675 792.701 376.751C792.477 376.825 792.295 376.937 792.156 377.088C792.02 377.236 791.951 377.437 791.951 377.693C791.951 378.043 792.081 378.307 792.339 378.486C792.6 378.662 792.931 378.75 793.332 378.75ZM799.02 375.562V379.5H798.014V372.955H798.986V373.977H799.071C799.224 373.645 799.457 373.378 799.77 373.176C800.082 372.972 800.486 372.869 800.98 372.869C801.423 372.869 801.811 372.96 802.143 373.142C802.476 373.321 802.734 373.594 802.919 373.96C803.104 374.324 803.196 374.784 803.196 375.341V379.5H802.19V375.409C802.19 374.895 802.057 374.494 801.79 374.207C801.523 373.918 801.156 373.773 800.69 373.773C800.369 373.773 800.082 373.842 799.83 373.982C799.58 374.121 799.382 374.324 799.237 374.591C799.092 374.858 799.02 375.182 799.02 375.562Z" fill="white"/>
  <rect x="827" y="108.5" width="97" height="29" rx="5" fill="#2973D6"/>
  <path d="M837.58 119.71V118.773H844.125V119.71H841.381V127.5H840.324V119.71H837.58ZM847.415 127.636C846.784 127.636 846.24 127.497 845.783 127.219C845.328 126.938 844.977 126.545 844.73 126.043C844.486 125.537 844.364 124.949 844.364 124.278C844.364 123.608 844.486 123.017 844.73 122.506C844.977 121.991 845.321 121.591 845.761 121.304C846.205 121.014 846.722 120.869 847.312 120.869C847.653 120.869 847.99 120.926 848.322 121.04C848.655 121.153 848.957 121.338 849.23 121.594C849.503 121.847 849.72 122.182 849.882 122.599C850.044 123.017 850.125 123.531 850.125 124.142V124.568H845.08V123.699H849.102C849.102 123.33 849.028 123 848.881 122.71C848.736 122.42 848.528 122.192 848.259 122.024C847.991 121.857 847.676 121.773 847.312 121.773C846.912 121.773 846.565 121.872 846.273 122.071C845.983 122.267 845.76 122.523 845.604 122.838C845.447 123.153 845.369 123.491 845.369 123.852V124.432C845.369 124.926 845.455 125.345 845.625 125.689C845.798 126.03 846.038 126.29 846.345 126.469C846.652 126.645 847.009 126.733 847.415 126.733C847.679 126.733 847.918 126.696 848.131 126.622C848.347 126.545 848.533 126.432 848.689 126.281C848.845 126.128 848.966 125.937 849.051 125.71L850.023 125.983C849.92 126.312 849.749 126.602 849.507 126.852C849.266 127.099 848.967 127.293 848.612 127.432C848.257 127.568 847.858 127.636 847.415 127.636ZM851.791 127.5V118.773H852.797V121.994H852.882C852.956 121.881 853.058 121.736 853.189 121.56C853.322 121.381 853.513 121.222 853.76 121.082C854.01 120.94 854.348 120.869 854.774 120.869C855.325 120.869 855.811 121.007 856.232 121.283C856.652 121.558 856.98 121.949 857.216 122.455C857.452 122.96 857.57 123.557 857.57 124.244C857.57 124.938 857.452 125.538 857.216 126.047C856.98 126.553 856.653 126.945 856.236 127.223C855.818 127.499 855.337 127.636 854.791 127.636C854.371 127.636 854.034 127.567 853.781 127.428C853.528 127.286 853.334 127.125 853.197 126.946C853.061 126.764 852.956 126.614 852.882 126.494H852.763V127.5H851.791ZM852.78 124.227C852.78 124.722 852.852 125.158 852.997 125.536C853.142 125.911 853.354 126.205 853.632 126.418C853.911 126.628 854.251 126.733 854.655 126.733C855.075 126.733 855.426 126.622 855.707 126.401C855.991 126.176 856.205 125.875 856.347 125.497C856.491 125.116 856.564 124.693 856.564 124.227C856.564 123.767 856.493 123.352 856.351 122.983C856.212 122.611 856 122.317 855.716 122.101C855.435 121.882 855.081 121.773 854.655 121.773C854.246 121.773 853.902 121.876 853.624 122.084C853.345 122.288 853.135 122.575 852.993 122.945C852.851 123.311 852.78 123.739 852.78 124.227ZM859.108 127.5V120.955H860.114V127.5H859.108ZM859.619 119.864C859.423 119.864 859.254 119.797 859.112 119.663C858.973 119.53 858.903 119.369 858.903 119.182C858.903 118.994 858.973 118.834 859.112 118.7C859.254 118.567 859.423 118.5 859.619 118.5C859.815 118.5 859.983 118.567 860.122 118.7C860.264 118.834 860.335 118.994 860.335 119.182C860.335 119.369 860.264 119.53 860.122 119.663C859.983 119.797 859.815 119.864 859.619 119.864ZM862.961 123.562V127.5H861.956V120.955H862.927V121.977H863.012C863.166 121.645 863.399 121.378 863.711 121.176C864.024 120.972 864.427 120.869 864.922 120.869C865.365 120.869 865.752 120.96 866.085 121.142C866.417 121.321 866.676 121.594 866.86 121.96C867.045 122.324 867.137 122.784 867.137 123.341V127.5H866.132V123.409C866.132 122.895 865.998 122.494 865.731 122.207C865.464 121.918 865.098 121.773 864.632 121.773C864.311 121.773 864.024 121.842 863.771 121.982C863.521 122.121 863.324 122.324 863.179 122.591C863.034 122.858 862.961 123.182 862.961 123.562ZM871.617 130.091C871.131 130.091 870.714 130.028 870.364 129.903C870.015 129.781 869.724 129.619 869.491 129.418C869.261 129.219 869.077 129.006 868.941 128.778L869.742 128.216C869.833 128.335 869.948 128.472 870.087 128.625C870.227 128.781 870.417 128.916 870.658 129.03C870.903 129.146 871.222 129.205 871.617 129.205C872.146 129.205 872.582 129.077 872.925 128.821C873.269 128.565 873.441 128.165 873.441 127.619V126.29H873.356C873.282 126.409 873.177 126.557 873.04 126.733C872.907 126.906 872.714 127.061 872.461 127.197C872.211 127.331 871.873 127.398 871.447 127.398C870.918 127.398 870.444 127.273 870.023 127.023C869.606 126.773 869.275 126.409 869.031 125.932C868.789 125.455 868.668 124.875 868.668 124.193C868.668 123.523 868.786 122.939 869.022 122.442C869.258 121.942 869.586 121.555 870.006 121.283C870.427 121.007 870.913 120.869 871.464 120.869C871.89 120.869 872.228 120.94 872.478 121.082C872.731 121.222 872.924 121.381 873.058 121.56C873.194 121.736 873.299 121.881 873.373 121.994H873.475V120.955H874.447V127.688C874.447 128.25 874.319 128.707 874.063 129.06C873.81 129.415 873.469 129.675 873.04 129.839C872.614 130.007 872.14 130.091 871.617 130.091ZM871.583 126.494C871.987 126.494 872.327 126.402 872.606 126.217C872.884 126.033 873.096 125.767 873.241 125.42C873.386 125.074 873.458 124.659 873.458 124.176C873.458 123.705 873.387 123.288 873.245 122.928C873.103 122.567 872.893 122.284 872.614 122.08C872.336 121.875 871.992 121.773 871.583 121.773C871.157 121.773 870.802 121.881 870.518 122.097C870.237 122.312 870.025 122.602 869.883 122.966C869.744 123.33 869.674 123.733 869.674 124.176C869.674 124.631 869.745 125.033 869.887 125.382C870.032 125.729 870.245 126.001 870.526 126.2C870.81 126.396 871.163 126.494 871.583 126.494ZM879.322 119.71V118.773H885.867V119.71H883.123V127.5H882.066V119.71H879.322ZM887.362 127.5V120.955H888.368V127.5H887.362ZM887.873 119.864C887.677 119.864 887.508 119.797 887.366 119.663C887.227 119.53 887.157 119.369 887.157 119.182C887.157 118.994 887.227 118.834 887.366 118.7C887.508 118.567 887.677 118.5 887.873 118.5C888.069 118.5 888.237 118.567 888.376 118.7C888.518 118.834 888.589 118.994 888.589 119.182C888.589 119.369 888.518 119.53 888.376 119.663C888.237 119.797 888.069 119.864 887.873 119.864ZM891.215 123.562V127.5H890.21V120.955H891.181V121.977H891.266C891.42 121.645 891.653 121.378 891.965 121.176C892.278 120.972 892.681 120.869 893.175 120.869C893.619 120.869 894.006 120.96 894.339 121.142C894.671 121.321 894.93 121.594 895.114 121.96C895.299 122.324 895.391 122.784 895.391 123.341V127.5H894.386V123.409C894.386 122.895 894.252 122.494 893.985 122.207C893.718 121.918 893.352 121.773 892.886 121.773C892.565 121.773 892.278 121.842 892.025 121.982C891.775 122.121 891.577 122.324 891.433 122.591C891.288 122.858 891.215 123.182 891.215 123.562ZM899.871 130.091C899.385 130.091 898.968 130.028 898.618 129.903C898.269 129.781 897.978 129.619 897.745 129.418C897.515 129.219 897.331 129.006 897.195 128.778L897.996 128.216C898.087 128.335 898.202 128.472 898.341 128.625C898.48 128.781 898.671 128.916 898.912 129.03C899.157 129.146 899.476 129.205 899.871 129.205C900.4 129.205 900.836 129.077 901.179 128.821C901.523 128.565 901.695 128.165 901.695 127.619V126.29H901.61C901.536 126.409 901.431 126.557 901.294 126.733C901.161 126.906 900.968 127.061 900.715 127.197C900.465 127.331 900.127 127.398 899.701 127.398C899.172 127.398 898.698 127.273 898.277 127.023C897.86 126.773 897.529 126.409 897.284 125.932C897.043 125.455 896.922 124.875 896.922 124.193C896.922 123.523 897.04 122.939 897.276 122.442C897.512 121.942 897.84 121.555 898.26 121.283C898.681 121.007 899.167 120.869 899.718 120.869C900.144 120.869 900.482 120.94 900.732 121.082C900.985 121.222 901.178 121.381 901.311 121.56C901.448 121.736 901.553 121.881 901.627 121.994H901.729V120.955H902.701V127.688C902.701 128.25 902.573 128.707 902.317 129.06C902.064 129.415 901.723 129.675 901.294 129.839C900.868 130.007 900.394 130.091 899.871 130.091ZM899.837 126.494C900.24 126.494 900.581 126.402 900.86 126.217C901.138 126.033 901.35 125.767 901.495 125.42C901.64 125.074 901.712 124.659 901.712 124.176C901.712 123.705 901.641 123.288 901.499 122.928C901.357 122.567 901.147 122.284 900.868 122.08C900.59 121.875 900.246 121.773 899.837 121.773C899.411 121.773 899.056 121.881 898.772 122.097C898.49 122.312 898.279 122.602 898.137 122.966C897.998 123.33 897.928 123.733 897.928 124.176C897.928 124.631 897.999 125.033 898.141 125.382C898.286 125.729 898.499 126.001 898.78 126.2C899.064 126.396 899.417 126.494 899.837 126.494ZM907.184 130.091C906.698 130.091 906.28 130.028 905.931 129.903C905.581 129.781 905.29 129.619 905.057 129.418C904.827 129.219 904.644 129.006 904.507 128.778L905.309 128.216C905.4 128.335 905.515 128.472 905.654 128.625C905.793 128.781 905.983 128.916 906.225 129.03C906.469 129.146 906.789 129.205 907.184 129.205C907.712 129.205 908.148 129.077 908.492 128.821C908.836 128.565 909.007 128.165 909.007 127.619V126.29H908.922C908.848 126.409 908.743 126.557 908.607 126.733C908.473 126.906 908.28 127.061 908.027 127.197C907.777 127.331 907.439 127.398 907.013 127.398C906.485 127.398 906.01 127.273 905.59 127.023C905.172 126.773 904.841 126.409 904.597 125.932C904.355 125.455 904.235 124.875 904.235 124.193C904.235 123.523 904.353 122.939 904.588 122.442C904.824 121.942 905.152 121.555 905.573 121.283C905.993 121.007 906.479 120.869 907.03 120.869C907.456 120.869 907.794 120.94 908.044 121.082C908.297 121.222 908.49 121.381 908.624 121.56C908.76 121.736 908.865 121.881 908.939 121.994H909.042V120.955H910.013V127.688C910.013 128.25 909.885 128.707 909.63 129.06C909.377 129.415 909.036 129.675 908.607 129.839C908.181 130.007 907.706 130.091 907.184 130.091ZM907.15 126.494C907.553 126.494 907.894 126.402 908.172 126.217C908.451 126.033 908.662 125.767 908.807 125.42C908.952 125.074 909.025 124.659 909.025 124.176C909.025 123.705 908.953 123.288 908.811 122.928C908.669 122.567 908.459 122.284 908.181 122.08C907.902 121.875 907.559 121.773 907.15 121.773C906.723 121.773 906.368 121.881 906.084 122.097C905.803 122.312 905.591 122.602 905.449 122.966C905.31 123.33 905.24 123.733 905.24 124.176C905.24 124.631 905.311 125.033 905.453 125.382C905.598 125.729 905.811 126.001 906.093 126.2C906.377 126.396 906.729 126.494 907.15 126.494ZM911.854 127.5V120.955H912.86V127.5H911.854ZM912.365 119.864C912.169 119.864 912 119.797 911.858 119.663C911.719 119.53 911.65 119.369 911.65 119.182C911.65 118.994 911.719 118.834 911.858 118.7C912 118.567 912.169 118.5 912.365 118.5C912.561 118.5 912.729 118.567 912.868 118.7C913.01 118.834 913.081 118.994 913.081 119.182C913.081 119.369 913.01 119.53 912.868 119.663C912.729 119.797 912.561 119.864 912.365 119.864Z" fill="white"/>
  <rect x="977" y="85.5" width="75" height="29" rx="5" fill="#2973D6"/>
  <path d="M989.114 95.7727V104.5H988.057V95.7727H989.114ZM992.102 100.562V104.5H991.096V97.9545H992.068V98.9773H992.153C992.306 98.6449 992.539 98.3778 992.852 98.1761C993.164 97.9716 993.568 97.8693 994.062 97.8693C994.505 97.8693 994.893 97.9602 995.225 98.142C995.558 98.321 995.816 98.5938 996.001 98.9602C996.186 99.3239 996.278 99.7841 996.278 100.341V104.5H995.272V100.409C995.272 99.8949 995.139 99.4943 994.872 99.2074C994.605 98.9176 994.238 98.7727 993.772 98.7727C993.451 98.7727 993.164 98.8423 992.912 98.9815C992.662 99.1207 992.464 99.3239 992.319 99.5909C992.174 99.858 992.102 100.182 992.102 100.562ZM1000.59 104.636C1000.04 104.636 999.56 104.499 999.143 104.223C998.725 103.945 998.398 103.553 998.163 103.047C997.927 102.538 997.809 101.938 997.809 101.244C997.809 100.557 997.927 99.9602 998.163 99.4545C998.398 98.9489 998.727 98.5582 999.147 98.2827C999.567 98.0071 1000.05 97.8693 1000.6 97.8693C1001.03 97.8693 1001.37 97.9403 1001.61 98.0824C1001.86 98.2216 1002.05 98.3807 1002.19 98.5597C1002.32 98.7358 1002.42 98.8807 1002.5 98.9943H1002.58V95.7727H1003.59V104.5H1002.62V103.494H1002.5C1002.42 103.614 1002.32 103.764 1002.18 103.946C1002.04 104.125 1001.85 104.286 1001.6 104.428C1001.34 104.567 1001.01 104.636 1000.59 104.636ZM1000.72 103.733C1001.13 103.733 1001.47 103.628 1001.75 103.418C1002.02 103.205 1002.24 102.911 1002.38 102.536C1002.53 102.158 1002.6 101.722 1002.6 101.227C1002.6 100.739 1002.53 100.311 1002.39 99.9446C1002.24 99.5753 1002.03 99.2884 1001.75 99.0838C1001.48 98.8764 1001.13 98.7727 1000.72 98.7727C1000.3 98.7727 999.942 98.8821 999.658 99.1009C999.377 99.3168 999.165 99.6108 999.023 99.983C998.884 100.352 998.815 100.767 998.815 101.227C998.815 101.693 998.886 102.116 999.028 102.497C999.173 102.875 999.386 103.176 999.667 103.401C999.951 103.622 1000.3 103.733 1000.72 103.733ZM1005.57 104.5V97.9545H1006.54V98.9432H1006.61C1006.73 98.6193 1006.94 98.3565 1007.26 98.1548C1007.57 97.9531 1007.92 97.8523 1008.31 97.8523C1008.39 97.8523 1008.48 97.8537 1008.59 97.8565C1008.7 97.8594 1008.78 97.8636 1008.84 97.8693V98.892C1008.81 98.8835 1008.73 98.8707 1008.61 98.8537C1008.49 98.8338 1008.36 98.8239 1008.23 98.8239C1007.91 98.8239 1007.63 98.8906 1007.38 99.0241C1007.13 99.1548 1006.93 99.3366 1006.79 99.5696C1006.65 99.7997 1006.57 100.062 1006.57 100.358V104.5H1005.57ZM1011.96 104.653C1011.55 104.653 1011.17 104.575 1010.83 104.419C1010.49 104.26 1010.22 104.031 1010.03 103.733C1009.83 103.432 1009.73 103.068 1009.73 102.642C1009.73 102.267 1009.8 101.963 1009.95 101.73C1010.1 101.494 1010.29 101.31 1010.54 101.176C1010.79 101.043 1011.06 100.943 1011.36 100.878C1011.66 100.81 1011.96 100.756 1012.27 100.716C1012.66 100.665 1012.99 100.626 1013.23 100.601C1013.48 100.572 1013.67 100.526 1013.78 100.46C1013.9 100.395 1013.95 100.281 1013.95 100.119V100.085C1013.95 99.6648 1013.84 99.3381 1013.61 99.1051C1013.38 98.8722 1013.04 98.7557 1012.57 98.7557C1012.09 98.7557 1011.72 98.8608 1011.44 99.071C1011.17 99.2812 1010.98 99.5057 1010.87 99.7443L1009.91 99.4034C1010.08 99.0057 1010.31 98.696 1010.6 98.4744C1010.88 98.25 1011.2 98.0937 1011.53 98.0057C1011.87 97.9148 1012.21 97.8693 1012.54 97.8693C1012.75 97.8693 1012.99 97.8949 1013.26 97.946C1013.54 97.9943 1013.81 98.0952 1014.06 98.2486C1014.32 98.402 1014.53 98.6335 1014.7 98.9432C1014.87 99.2528 1014.96 99.6676 1014.96 100.188V104.5H1013.95V103.614H1013.9C1013.83 103.756 1013.72 103.908 1013.56 104.07C1013.4 104.232 1013.19 104.369 1012.93 104.483C1012.66 104.597 1012.34 104.653 1011.96 104.653ZM1012.11 103.75C1012.51 103.75 1012.85 103.672 1013.12 103.516C1013.39 103.359 1013.6 103.158 1013.74 102.911C1013.88 102.663 1013.95 102.403 1013.95 102.131V101.21C1013.91 101.261 1013.82 101.308 1013.67 101.351C1013.53 101.391 1013.37 101.426 1013.18 101.457C1012.99 101.486 1012.81 101.511 1012.64 101.534C1012.46 101.554 1012.32 101.571 1012.22 101.585C1011.95 101.619 1011.71 101.675 1011.48 101.751C1011.26 101.825 1011.08 101.937 1010.94 102.088C1010.8 102.236 1010.73 102.437 1010.73 102.693C1010.73 103.043 1010.86 103.307 1011.12 103.486C1011.38 103.662 1011.71 103.75 1012.11 103.75ZM1016.8 106.955V97.9545H1017.77V98.9943H1017.89C1017.96 98.8807 1018.06 98.7358 1018.19 98.5597C1018.33 98.3807 1018.52 98.2216 1018.76 98.0824C1019.01 97.9403 1019.35 97.8693 1019.78 97.8693C1020.33 97.8693 1020.82 98.0071 1021.24 98.2827C1021.66 98.5582 1021.98 98.9489 1022.22 99.4545C1022.46 99.9602 1022.57 100.557 1022.57 101.244C1022.57 101.938 1022.46 102.538 1022.22 103.047C1021.98 103.553 1021.66 103.945 1021.24 104.223C1020.82 104.499 1020.34 104.636 1019.8 104.636C1019.38 104.636 1019.04 104.567 1018.79 104.428C1018.53 104.286 1018.34 104.125 1018.2 103.946C1018.07 103.764 1017.96 103.614 1017.89 103.494H1017.8V106.955H1016.8ZM1017.78 101.227C1017.78 101.722 1017.86 102.158 1018 102.536C1018.15 102.911 1018.36 103.205 1018.64 103.418C1018.91 103.628 1019.26 103.733 1019.66 103.733C1020.08 103.733 1020.43 103.622 1020.71 103.401C1021 103.176 1021.21 102.875 1021.35 102.497C1021.5 102.116 1021.57 101.693 1021.57 101.227C1021.57 100.767 1021.5 100.352 1021.36 99.983C1021.22 99.6108 1021 99.3168 1020.72 99.1009C1020.44 98.8821 1020.09 98.7727 1019.66 98.7727C1019.25 98.7727 1018.91 98.8764 1018.63 99.0838C1018.35 99.2884 1018.14 99.5753 1018 99.9446C1017.86 100.311 1017.78 100.739 1017.78 101.227ZM1028.23 101.824V97.9545H1029.24V104.5H1028.23V103.392H1028.16C1028.01 103.724 1027.77 104.007 1027.45 104.24C1027.13 104.47 1026.72 104.585 1026.22 104.585C1025.81 104.585 1025.45 104.496 1025.13 104.317C1024.81 104.135 1024.56 103.862 1024.38 103.499C1024.2 103.132 1024.11 102.67 1024.11 102.114V97.9545H1025.11V102.045C1025.11 102.523 1025.25 102.903 1025.51 103.188C1025.78 103.472 1026.13 103.614 1026.55 103.614C1026.8 103.614 1027.05 103.55 1027.31 103.422C1027.57 103.294 1027.79 103.098 1027.96 102.834C1028.14 102.57 1028.23 102.233 1028.23 101.824ZM1031.08 104.5V97.9545H1032.05V98.9432H1032.12C1032.24 98.6193 1032.46 98.3565 1032.77 98.1548C1033.08 97.9531 1033.43 97.8523 1033.82 97.8523C1033.9 97.8523 1033.99 97.8537 1034.1 97.8565C1034.21 97.8594 1034.3 97.8636 1034.35 97.8693V98.892C1034.32 98.8835 1034.24 98.8707 1034.12 98.8537C1034 98.8338 1033.87 98.8239 1033.74 98.8239C1033.42 98.8239 1033.14 98.8906 1032.89 99.0241C1032.64 99.1548 1032.44 99.3366 1032.3 99.5696C1032.16 99.7997 1032.09 100.062 1032.09 100.358V104.5H1031.08ZM1037.47 104.653C1037.06 104.653 1036.68 104.575 1036.34 104.419C1036 104.26 1035.74 104.031 1035.54 103.733C1035.34 103.432 1035.24 103.068 1035.24 102.642C1035.24 102.267 1035.31 101.963 1035.46 101.73C1035.61 101.494 1035.81 101.31 1036.05 101.176C1036.3 101.043 1036.57 100.943 1036.87 100.878C1037.17 100.81 1037.47 100.756 1037.78 100.716C1038.18 100.665 1038.5 100.626 1038.75 100.601C1039 100.572 1039.18 100.526 1039.29 100.46C1039.41 100.395 1039.47 100.281 1039.47 100.119V100.085C1039.47 99.6648 1039.35 99.3381 1039.12 99.1051C1038.89 98.8722 1038.55 98.7557 1038.09 98.7557C1037.61 98.7557 1037.23 98.8608 1036.96 99.071C1036.68 99.2812 1036.49 99.5057 1036.38 99.7443L1035.43 99.4034C1035.6 99.0057 1035.82 98.696 1036.11 98.4744C1036.39 98.25 1036.71 98.0937 1037.05 98.0057C1037.39 97.9148 1037.72 97.8693 1038.05 97.8693C1038.26 97.8693 1038.5 97.8949 1038.78 97.946C1039.05 97.9943 1039.32 98.0952 1039.57 98.2486C1039.83 98.402 1040.05 98.6335 1040.22 98.9432C1040.39 99.2528 1040.47 99.6676 1040.47 100.188V104.5H1039.47V103.614H1039.41C1039.35 103.756 1039.23 103.908 1039.07 104.07C1038.91 104.232 1038.7 104.369 1038.44 104.483C1038.17 104.597 1037.85 104.653 1037.47 104.653ZM1037.62 103.75C1038.02 103.75 1038.36 103.672 1038.63 103.516C1038.91 103.359 1039.11 103.158 1039.25 102.911C1039.39 102.663 1039.47 102.403 1039.47 102.131V101.21C1039.42 101.261 1039.33 101.308 1039.18 101.351C1039.04 101.391 1038.88 101.426 1038.69 101.457C1038.51 101.486 1038.33 101.511 1038.15 101.534C1037.98 101.554 1037.84 101.571 1037.73 101.585C1037.47 101.619 1037.22 101.675 1036.99 101.751C1036.77 101.825 1036.59 101.937 1036.45 102.088C1036.31 102.236 1036.24 102.437 1036.24 102.693C1036.24 103.043 1036.37 103.307 1036.63 103.486C1036.89 103.662 1037.22 103.75 1037.62 103.75Z" fill="white"/>
  <rect x="1017" y="0.5" width="99" height="29" rx="5" fill="#2973D6"/>
  <path d="M1028.06 19.5V10.7727H1029.11V15.1023H1029.22L1033.14 10.7727H1034.52L1030.85 14.7102L1034.52 19.5H1033.24L1030.2 15.4432L1029.11 16.6705V19.5H1028.06ZM1039.46 16.8239V12.9545H1040.47V19.5H1039.46V18.392H1039.4C1039.24 18.7244 1039 19.0071 1038.68 19.2401C1038.36 19.4702 1037.95 19.5852 1037.45 19.5852C1037.04 19.5852 1036.68 19.4957 1036.36 19.3168C1036.04 19.1349 1035.79 18.8622 1035.61 18.4986C1035.43 18.1321 1035.34 17.6705 1035.34 17.1136V12.9545H1036.34V17.0455C1036.34 17.5227 1036.48 17.9034 1036.74 18.1875C1037.01 18.4716 1037.36 18.6136 1037.78 18.6136C1038.03 18.6136 1038.28 18.5497 1038.54 18.4219C1038.8 18.294 1039.02 18.098 1039.19 17.8338C1039.37 17.5696 1039.46 17.233 1039.46 16.8239ZM1044.24 19.6534C1043.82 19.6534 1043.45 19.5753 1043.11 19.419C1042.77 19.2599 1042.5 19.0312 1042.3 18.733C1042.1 18.4318 1042 18.0682 1042 17.642C1042 17.267 1042.08 16.9631 1042.23 16.7301C1042.37 16.4943 1042.57 16.3097 1042.82 16.1761C1043.07 16.0426 1043.34 15.9432 1043.64 15.8778C1043.94 15.8097 1044.24 15.7557 1044.54 15.7159C1044.94 15.6648 1045.26 15.6264 1045.51 15.6009C1045.76 15.5724 1045.94 15.5256 1046.06 15.4602C1046.17 15.3949 1046.23 15.2812 1046.23 15.1193V15.0852C1046.23 14.6648 1046.12 14.3381 1045.89 14.1051C1045.66 13.8722 1045.31 13.7557 1044.85 13.7557C1044.37 13.7557 1043.99 13.8608 1043.72 14.071C1043.45 14.2812 1043.26 14.5057 1043.15 14.7443L1042.19 14.4034C1042.36 14.0057 1042.59 13.696 1042.87 13.4744C1043.16 13.25 1043.47 13.0937 1043.81 13.0057C1044.15 12.9148 1044.49 12.8693 1044.82 12.8693C1045.03 12.8693 1045.27 12.8949 1045.54 12.946C1045.82 12.9943 1046.08 13.0952 1046.34 13.2486C1046.6 13.402 1046.81 13.6335 1046.98 13.9432C1047.15 14.2528 1047.24 14.6676 1047.24 15.1875V19.5H1046.23V18.6136H1046.18C1046.11 18.7557 1046 18.9077 1045.84 19.0696C1045.68 19.2315 1045.47 19.3693 1045.2 19.483C1044.94 19.5966 1044.62 19.6534 1044.24 19.6534ZM1044.39 18.75C1044.79 18.75 1045.12 18.6719 1045.4 18.5156C1045.67 18.3594 1045.88 18.1577 1046.02 17.9105C1046.16 17.6634 1046.23 17.4034 1046.23 17.1307V16.2102C1046.19 16.2614 1046.1 16.3082 1045.95 16.3509C1045.81 16.3906 1045.64 16.4261 1045.46 16.4574C1045.27 16.4858 1045.09 16.5114 1044.91 16.5341C1044.74 16.554 1044.6 16.571 1044.49 16.5852C1044.23 16.6193 1043.99 16.6747 1043.76 16.7514C1043.54 16.8253 1043.35 16.9375 1043.21 17.0881C1043.08 17.2358 1043.01 17.4375 1043.01 17.6932C1043.01 18.0426 1043.14 18.3068 1043.4 18.4858C1043.66 18.6619 1043.99 18.75 1044.39 18.75ZM1050.08 10.7727V19.5H1049.07V10.7727H1050.08ZM1053.85 19.6534C1053.43 19.6534 1053.06 19.5753 1052.72 19.419C1052.38 19.2599 1052.11 19.0312 1051.91 18.733C1051.71 18.4318 1051.61 18.0682 1051.61 17.642C1051.61 17.267 1051.69 16.9631 1051.84 16.7301C1051.98 16.4943 1052.18 16.3097 1052.43 16.1761C1052.67 16.0426 1052.95 15.9432 1053.25 15.8778C1053.55 15.8097 1053.85 15.7557 1054.15 15.7159C1054.55 15.6648 1054.87 15.6264 1055.12 15.6009C1055.37 15.5724 1055.55 15.5256 1055.67 15.4602C1055.78 15.3949 1055.84 15.2812 1055.84 15.1193V15.0852C1055.84 14.6648 1055.73 14.3381 1055.5 14.1051C1055.27 13.8722 1054.92 13.7557 1054.46 13.7557C1053.98 13.7557 1053.6 13.8608 1053.33 14.071C1053.06 14.2812 1052.87 14.5057 1052.76 14.7443L1051.8 14.4034C1051.97 14.0057 1052.2 13.696 1052.48 13.4744C1052.77 13.25 1053.08 13.0937 1053.42 13.0057C1053.76 12.9148 1054.1 12.8693 1054.43 12.8693C1054.64 12.8693 1054.88 12.8949 1055.15 12.946C1055.43 12.9943 1055.69 13.0952 1055.95 13.2486C1056.21 13.402 1056.42 13.6335 1056.59 13.9432C1056.76 14.2528 1056.85 14.6676 1056.85 15.1875V19.5H1055.84V18.6136H1055.79C1055.72 18.7557 1055.61 18.9077 1055.45 19.0696C1055.29 19.2315 1055.08 19.3693 1054.81 19.483C1054.55 19.5966 1054.23 19.6534 1053.85 19.6534ZM1054 18.75C1054.4 18.75 1054.73 18.6719 1055.01 18.5156C1055.28 18.3594 1055.49 18.1577 1055.63 17.9105C1055.77 17.6634 1055.84 17.4034 1055.84 17.1307V16.2102C1055.8 16.2614 1055.7 16.3082 1055.56 16.3509C1055.42 16.3906 1055.25 16.4261 1055.07 16.4574C1054.88 16.4858 1054.7 16.5114 1054.52 16.5341C1054.35 16.554 1054.21 16.571 1054.1 16.5852C1053.84 16.6193 1053.6 16.6747 1053.37 16.7514C1053.14 16.8253 1052.96 16.9375 1052.82 17.0881C1052.69 17.2358 1052.62 17.4375 1052.62 17.6932C1052.62 18.0426 1052.75 18.3068 1053.01 18.4858C1053.27 18.6619 1053.6 18.75 1054 18.75ZM1061.72 11.7102V10.7727H1068.26V11.7102H1065.52V19.5H1064.46V11.7102H1061.72ZM1070.79 19.6534C1070.38 19.6534 1070 19.5753 1069.66 19.419C1069.32 19.2599 1069.06 19.0312 1068.86 18.733C1068.66 18.4318 1068.56 18.0682 1068.56 17.642C1068.56 17.267 1068.63 16.9631 1068.78 16.7301C1068.93 16.4943 1069.13 16.3097 1069.37 16.1761C1069.62 16.0426 1069.89 15.9432 1070.19 15.8778C1070.49 15.8097 1070.79 15.7557 1071.1 15.7159C1071.5 15.6648 1071.82 15.6264 1072.07 15.6009C1072.32 15.5724 1072.5 15.5256 1072.61 15.4602C1072.73 15.3949 1072.79 15.2812 1072.79 15.1193V15.0852C1072.79 14.6648 1072.67 14.3381 1072.44 14.1051C1072.21 13.8722 1071.87 13.7557 1071.41 13.7557C1070.93 13.7557 1070.55 13.8608 1070.28 14.071C1070 14.2812 1069.81 14.5057 1069.7 14.7443L1068.75 14.4034C1068.92 14.0057 1069.14 13.696 1069.43 13.4744C1069.72 13.25 1070.03 13.0937 1070.37 13.0057C1070.71 12.9148 1071.04 12.8693 1071.37 12.8693C1071.58 12.8693 1071.82 12.8949 1072.1 12.946C1072.37 12.9943 1072.64 13.0952 1072.89 13.2486C1073.15 13.402 1073.37 13.6335 1073.54 13.9432C1073.71 14.2528 1073.79 14.6676 1073.79 15.1875V19.5H1072.79V18.6136H1072.74C1072.67 18.7557 1072.55 18.9077 1072.39 19.0696C1072.24 19.2315 1072.02 19.3693 1071.76 19.483C1071.5 19.5966 1071.17 19.6534 1070.79 19.6534ZM1070.95 18.75C1071.34 18.75 1071.68 18.6719 1071.95 18.5156C1072.23 18.3594 1072.43 18.1577 1072.57 17.9105C1072.72 17.6634 1072.79 17.4034 1072.79 17.1307V16.2102C1072.74 16.2614 1072.65 16.3082 1072.5 16.3509C1072.36 16.3906 1072.2 16.4261 1072.01 16.4574C1071.83 16.4858 1071.65 16.5114 1071.47 16.5341C1071.3 16.554 1071.16 16.571 1071.05 16.5852C1070.79 16.6193 1070.54 16.6747 1070.31 16.7514C1070.09 16.8253 1069.91 16.9375 1069.77 17.0881C1069.63 17.2358 1069.56 17.4375 1069.56 17.6932C1069.56 18.0426 1069.69 18.3068 1069.95 18.4858C1070.21 18.6619 1070.54 18.75 1070.95 18.75ZM1076.63 15.5625V19.5H1075.63V12.9545H1076.6V13.9773H1076.68C1076.84 13.6449 1077.07 13.3778 1077.38 13.1761C1077.7 12.9716 1078.1 12.8693 1078.59 12.8693C1079.04 12.8693 1079.42 12.9602 1079.76 13.142C1080.09 13.321 1080.35 13.5938 1080.53 13.9602C1080.72 14.3239 1080.81 14.7841 1080.81 15.3409V19.5H1079.8V15.4091C1079.8 14.8949 1079.67 14.4943 1079.4 14.2074C1079.14 13.9176 1078.77 13.7727 1078.3 13.7727C1077.98 13.7727 1077.7 13.8423 1077.44 13.9815C1077.19 14.1207 1077 14.3239 1076.85 14.5909C1076.71 14.858 1076.63 15.1818 1076.63 15.5625ZM1082.65 12.9545H1083.65V19.9773C1083.65 20.3807 1083.58 20.7301 1083.44 21.0256C1083.31 21.321 1083.1 21.5497 1082.82 21.7116C1082.55 21.8736 1082.2 21.9545 1081.78 21.9545C1081.74 21.9545 1081.71 21.9545 1081.68 21.9545C1081.64 21.9545 1081.61 21.9545 1081.57 21.9545V21.017C1081.61 21.017 1081.64 21.017 1081.67 21.017C1081.7 21.017 1081.73 21.017 1081.76 21.017C1082.07 21.017 1082.29 20.9261 1082.43 20.7443C1082.58 20.5653 1082.65 20.3097 1082.65 19.9773V12.9545ZM1083.14 11.8636C1082.95 11.8636 1082.78 11.7969 1082.63 11.6634C1082.5 11.5298 1082.43 11.3693 1082.43 11.1818C1082.43 10.9943 1082.5 10.8338 1082.63 10.7003C1082.78 10.5668 1082.95 10.5 1083.14 10.5C1083.34 10.5 1083.5 10.5668 1083.64 10.7003C1083.79 10.8338 1083.86 10.9943 1083.86 11.1818C1083.86 11.3693 1083.79 11.5298 1083.64 11.6634C1083.5 11.7969 1083.34 11.8636 1083.14 11.8636ZM1089.62 16.8239V12.9545H1090.63V19.5H1089.62V18.392H1089.55C1089.4 18.7244 1089.16 19.0071 1088.84 19.2401C1088.51 19.4702 1088.1 19.5852 1087.61 19.5852C1087.2 19.5852 1086.84 19.4957 1086.52 19.3168C1086.2 19.1349 1085.95 18.8622 1085.77 18.4986C1085.59 18.1321 1085.49 17.6705 1085.49 17.1136V12.9545H1086.5V17.0455C1086.5 17.5227 1086.63 17.9034 1086.9 18.1875C1087.17 18.4716 1087.51 18.6136 1087.93 18.6136C1088.18 18.6136 1088.44 18.5497 1088.69 18.4219C1088.96 18.294 1089.18 18.098 1089.35 17.8338C1089.53 17.5696 1089.62 17.233 1089.62 16.8239ZM1093.47 15.5625V19.5H1092.47V12.9545H1093.44V13.9773H1093.52C1093.68 13.6449 1093.91 13.3778 1094.22 13.1761C1094.54 12.9716 1094.94 12.8693 1095.43 12.8693C1095.88 12.8693 1096.26 12.9602 1096.6 13.142C1096.93 13.321 1097.19 13.5938 1097.37 13.9602C1097.56 14.3239 1097.65 14.7841 1097.65 15.3409V19.5H1096.64V15.4091C1096.64 14.8949 1096.51 14.4943 1096.24 14.2074C1095.98 13.9176 1095.61 13.7727 1095.14 13.7727C1094.82 13.7727 1094.54 13.8423 1094.28 13.9815C1094.03 14.1207 1093.84 14.3239 1093.69 14.5909C1093.55 14.858 1093.47 15.1818 1093.47 15.5625ZM1102.13 22.0909C1101.64 22.0909 1101.23 22.0284 1100.88 21.9034C1100.53 21.7812 1100.24 21.6193 1100 21.4176C1099.77 21.2188 1099.59 21.0057 1099.45 20.7784L1100.25 20.2159C1100.34 20.3352 1100.46 20.4716 1100.6 20.625C1100.74 20.7812 1100.93 20.9162 1101.17 21.0298C1101.41 21.1463 1101.73 21.2045 1102.13 21.2045C1102.66 21.2045 1103.09 21.0767 1103.44 20.821C1103.78 20.5653 1103.95 20.1648 1103.95 19.6193V18.2898H1103.87C1103.79 18.4091 1103.69 18.5568 1103.55 18.733C1103.42 18.9062 1103.23 19.0611 1102.97 19.1974C1102.72 19.331 1102.38 19.3977 1101.96 19.3977C1101.43 19.3977 1100.96 19.2727 1100.54 19.0227C1100.12 18.7727 1099.79 18.4091 1099.54 17.9318C1099.3 17.4545 1099.18 16.875 1099.18 16.1932C1099.18 15.5227 1099.3 14.9389 1099.53 14.4418C1099.77 13.9418 1100.1 13.5554 1100.52 13.2827C1100.94 13.0071 1101.42 12.8693 1101.98 12.8693C1102.4 12.8693 1102.74 12.9403 1102.99 13.0824C1103.24 13.2216 1103.44 13.3807 1103.57 13.5597C1103.71 13.7358 1103.81 13.8807 1103.88 13.9943H1103.99V12.9545H1104.96V19.6875C1104.96 20.25 1104.83 20.7074 1104.57 21.0597C1104.32 21.4148 1103.98 21.6747 1103.55 21.8395C1103.13 22.0071 1102.65 22.0909 1102.13 22.0909ZM1102.09 18.4943C1102.5 18.4943 1102.84 18.402 1103.12 18.2173C1103.4 18.0327 1103.61 17.767 1103.75 17.4205C1103.9 17.0739 1103.97 16.6591 1103.97 16.1761C1103.97 15.7045 1103.9 15.2884 1103.76 14.9276C1103.61 14.5668 1103.4 14.2841 1103.13 14.0795C1102.85 13.875 1102.5 13.7727 1102.09 13.7727C1101.67 13.7727 1101.31 13.8807 1101.03 14.0966C1100.75 14.3125 1100.54 14.6023 1100.39 14.9659C1100.26 15.3295 1100.19 15.733 1100.19 16.1761C1100.19 16.6307 1100.26 17.0327 1100.4 17.3821C1100.54 17.7287 1100.76 18.0014 1101.04 18.2003C1101.32 18.3963 1101.67 18.4943 1102.09 18.4943Z" fill="white"/>
  <rect x="709" y="471.5" width="71" height="29" rx="5" fill="#2973D6"/>
  <path d="M724.83 483.955C724.778 483.523 724.571 483.188 724.207 482.949C723.844 482.71 723.398 482.591 722.869 482.591C722.483 482.591 722.145 482.653 721.855 482.778C721.568 482.903 721.344 483.075 721.182 483.294C721.023 483.513 720.943 483.761 720.943 484.04C720.943 484.273 720.999 484.473 721.109 484.641C721.223 484.805 721.368 484.943 721.544 485.054C721.72 485.162 721.905 485.251 722.098 485.322C722.291 485.391 722.469 485.446 722.631 485.489L723.517 485.727C723.744 485.787 723.997 485.869 724.276 485.974C724.557 486.08 724.825 486.223 725.081 486.405C725.339 486.584 725.553 486.814 725.72 487.095C725.888 487.376 725.972 487.722 725.972 488.131C725.972 488.602 725.848 489.028 725.601 489.409C725.357 489.79 724.999 490.092 724.527 490.317C724.058 490.541 723.489 490.653 722.818 490.653C722.193 490.653 721.652 490.553 721.195 490.351C720.74 490.149 720.382 489.868 720.121 489.507C719.862 489.146 719.716 488.727 719.682 488.25H720.773C720.801 488.58 720.912 488.852 721.105 489.068C721.301 489.281 721.548 489.44 721.847 489.545C722.148 489.648 722.472 489.699 722.818 489.699C723.222 489.699 723.584 489.634 723.905 489.503C724.226 489.369 724.48 489.185 724.668 488.949C724.855 488.71 724.949 488.432 724.949 488.114C724.949 487.824 724.868 487.588 724.706 487.406C724.544 487.224 724.331 487.077 724.067 486.963C723.803 486.849 723.517 486.75 723.21 486.665L722.136 486.358C721.455 486.162 720.915 485.882 720.517 485.518C720.119 485.155 719.92 484.679 719.92 484.091C719.92 483.602 720.053 483.176 720.317 482.812C720.584 482.446 720.942 482.162 721.391 481.96C721.842 481.756 722.347 481.653 722.903 481.653C723.466 481.653 723.966 481.754 724.403 481.956C724.841 482.155 725.188 482.428 725.443 482.774C725.702 483.121 725.838 483.514 725.852 483.955H724.83ZM727.573 490.5V483.955H728.578V490.5H727.573ZM728.084 482.864C727.888 482.864 727.719 482.797 727.577 482.663C727.438 482.53 727.368 482.369 727.368 482.182C727.368 481.994 727.438 481.834 727.577 481.7C727.719 481.567 727.888 481.5 728.084 481.5C728.28 481.5 728.448 481.567 728.587 481.7C728.729 481.834 728.8 481.994 728.8 482.182C728.8 482.369 728.729 482.53 728.587 482.663C728.448 482.797 728.28 482.864 728.084 482.864ZM731.426 486.562V490.5H730.42V483.955H731.392V484.977H731.477C731.631 484.645 731.864 484.378 732.176 484.176C732.489 483.972 732.892 483.869 733.386 483.869C733.83 483.869 734.217 483.96 734.55 484.142C734.882 484.321 735.141 484.594 735.325 484.96C735.51 485.324 735.602 485.784 735.602 486.341V490.5H734.597V486.409C734.597 485.895 734.463 485.494 734.196 485.207C733.929 484.918 733.563 484.773 733.097 484.773C732.776 484.773 732.489 484.842 732.236 484.982C731.986 485.121 731.788 485.324 731.643 485.591C731.499 485.858 731.426 486.182 731.426 486.562ZM739.366 490.653C738.951 490.653 738.575 490.575 738.237 490.419C737.899 490.26 737.63 490.031 737.431 489.733C737.233 489.432 737.133 489.068 737.133 488.642C737.133 488.267 737.207 487.963 737.355 487.73C737.502 487.494 737.7 487.31 737.947 487.176C738.194 487.043 738.467 486.943 738.765 486.878C739.066 486.81 739.369 486.756 739.673 486.716C740.071 486.665 740.393 486.626 740.64 486.601C740.89 486.572 741.072 486.526 741.186 486.46C741.302 486.395 741.36 486.281 741.36 486.119V486.085C741.36 485.665 741.245 485.338 741.015 485.105C740.788 484.872 740.443 484.756 739.98 484.756C739.5 484.756 739.123 484.861 738.85 485.071C738.578 485.281 738.386 485.506 738.275 485.744L737.321 485.403C737.491 485.006 737.718 484.696 738.002 484.474C738.289 484.25 738.602 484.094 738.94 484.006C739.281 483.915 739.616 483.869 739.946 483.869C740.156 483.869 740.397 483.895 740.67 483.946C740.946 483.994 741.211 484.095 741.467 484.249C741.725 484.402 741.94 484.634 742.11 484.943C742.281 485.253 742.366 485.668 742.366 486.188V490.5H741.36V489.614H741.309C741.241 489.756 741.127 489.908 740.968 490.07C740.809 490.232 740.598 490.369 740.333 490.483C740.069 490.597 739.747 490.653 739.366 490.653ZM739.52 489.75C739.917 489.75 740.252 489.672 740.525 489.516C740.801 489.359 741.008 489.158 741.147 488.911C741.289 488.663 741.36 488.403 741.36 488.131V487.21C741.318 487.261 741.224 487.308 741.079 487.351C740.937 487.391 740.772 487.426 740.585 487.457C740.4 487.486 740.22 487.511 740.044 487.534C739.87 487.554 739.73 487.571 739.622 487.585C739.36 487.619 739.116 487.675 738.889 487.751C738.664 487.825 738.483 487.937 738.343 488.088C738.207 488.236 738.139 488.437 738.139 488.693C738.139 489.043 738.268 489.307 738.527 489.486C738.788 489.662 739.119 489.75 739.52 489.75ZM745.139 488.114L745.122 486.869H745.327L748.19 483.955H749.435L746.384 487.04H746.298L745.139 488.114ZM744.202 490.5V481.773H745.207V490.5H744.202ZM748.361 490.5L745.804 487.261L746.52 486.562L749.639 490.5H748.361ZM755.365 485.42L754.462 485.676C754.405 485.526 754.321 485.379 754.211 485.237C754.103 485.092 753.955 484.973 753.767 484.879C753.58 484.786 753.34 484.739 753.047 484.739C752.647 484.739 752.313 484.831 752.046 485.016C751.782 485.197 751.65 485.429 751.65 485.71C751.65 485.96 751.74 486.158 751.922 486.303C752.104 486.447 752.388 486.568 752.775 486.665L753.746 486.903C754.331 487.045 754.767 487.263 755.054 487.555C755.341 487.845 755.485 488.219 755.485 488.676C755.485 489.051 755.377 489.386 755.161 489.682C754.948 489.977 754.65 490.21 754.266 490.381C753.882 490.551 753.436 490.636 752.928 490.636C752.26 490.636 751.708 490.491 751.27 490.202C750.833 489.912 750.556 489.489 750.439 488.932L751.394 488.693C751.485 489.045 751.657 489.31 751.909 489.486C752.165 489.662 752.499 489.75 752.911 489.75C753.38 489.75 753.752 489.651 754.027 489.452C754.306 489.25 754.445 489.009 754.445 488.727C754.445 488.5 754.365 488.31 754.206 488.156C754.047 488 753.803 487.884 753.473 487.807L752.382 487.551C751.783 487.409 751.343 487.189 751.061 486.891C750.783 486.589 750.644 486.213 750.644 485.761C750.644 485.392 750.748 485.065 750.955 484.781C751.165 484.497 751.451 484.274 751.811 484.112C752.175 483.95 752.587 483.869 753.047 483.869C753.695 483.869 754.203 484.011 754.573 484.295C754.945 484.58 755.209 484.955 755.365 485.42ZM758.925 490.653C758.51 490.653 758.134 490.575 757.795 490.419C757.457 490.26 757.189 490.031 756.99 489.733C756.791 489.432 756.692 489.068 756.692 488.642C756.692 488.267 756.766 487.963 756.913 487.73C757.061 487.494 757.259 487.31 757.506 487.176C757.753 487.043 758.026 486.943 758.324 486.878C758.625 486.81 758.928 486.756 759.232 486.716C759.629 486.665 759.952 486.626 760.199 486.601C760.449 486.572 760.631 486.526 760.744 486.46C760.861 486.395 760.919 486.281 760.919 486.119V486.085C760.919 485.665 760.804 485.338 760.574 485.105C760.347 484.872 760.001 484.756 759.538 484.756C759.058 484.756 758.682 484.861 758.409 485.071C758.136 485.281 757.945 485.506 757.834 485.744L756.879 485.403C757.05 485.006 757.277 484.696 757.561 484.474C757.848 484.25 758.161 484.094 758.499 484.006C758.839 483.915 759.175 483.869 759.504 483.869C759.714 483.869 759.956 483.895 760.229 483.946C760.504 483.994 760.77 484.095 761.026 484.249C761.284 484.402 761.499 484.634 761.669 484.943C761.839 485.253 761.925 485.668 761.925 486.188V490.5H760.919V489.614H760.868C760.8 489.756 760.686 489.908 760.527 490.07C760.368 490.232 760.156 490.369 759.892 490.483C759.628 490.597 759.305 490.653 758.925 490.653ZM759.078 489.75C759.476 489.75 759.811 489.672 760.084 489.516C760.359 489.359 760.567 489.158 760.706 488.911C760.848 488.663 760.919 488.403 760.919 488.131V487.21C760.876 487.261 760.783 487.308 760.638 487.351C760.496 487.391 760.331 487.426 760.143 487.457C759.959 487.486 759.778 487.511 759.602 487.534C759.429 487.554 759.288 487.571 759.18 487.585C758.919 487.619 758.675 487.675 758.447 487.751C758.223 487.825 758.041 487.937 757.902 488.088C757.766 488.236 757.697 488.437 757.697 488.693C757.697 489.043 757.827 489.307 758.085 489.486C758.347 489.662 758.678 489.75 759.078 489.75ZM764.698 488.114L764.681 486.869H764.885L767.749 483.955H768.993L765.942 487.04H765.857L764.698 488.114ZM763.76 490.5V481.773H764.766V490.5H763.76ZM767.919 490.5L765.363 487.261L766.078 486.562L769.198 490.5H767.919Z" fill="white"/>
  <rect x="710" y="582.5" width="104" height="29" rx="5" fill="#2973D6"/>
  <path d="M725.83 594.955C725.778 594.523 725.571 594.188 725.207 593.949C724.844 593.71 724.398 593.591 723.869 593.591C723.483 593.591 723.145 593.653 722.855 593.778C722.568 593.903 722.344 594.075 722.182 594.294C722.023 594.513 721.943 594.761 721.943 595.04C721.943 595.273 721.999 595.473 722.109 595.641C722.223 595.805 722.368 595.943 722.544 596.054C722.72 596.162 722.905 596.251 723.098 596.322C723.291 596.391 723.469 596.446 723.631 596.489L724.517 596.727C724.744 596.787 724.997 596.869 725.276 596.974C725.557 597.08 725.825 597.223 726.081 597.405C726.339 597.584 726.553 597.814 726.72 598.095C726.888 598.376 726.972 598.722 726.972 599.131C726.972 599.602 726.848 600.028 726.601 600.409C726.357 600.79 725.999 601.092 725.527 601.317C725.058 601.541 724.489 601.653 723.818 601.653C723.193 601.653 722.652 601.553 722.195 601.351C721.74 601.149 721.382 600.868 721.121 600.507C720.862 600.146 720.716 599.727 720.682 599.25H721.773C721.801 599.58 721.912 599.852 722.105 600.068C722.301 600.281 722.548 600.44 722.847 600.545C723.148 600.648 723.472 600.699 723.818 600.699C724.222 600.699 724.584 600.634 724.905 600.503C725.226 600.369 725.48 600.185 725.668 599.949C725.855 599.71 725.949 599.432 725.949 599.114C725.949 598.824 725.868 598.588 725.706 598.406C725.544 598.224 725.331 598.077 725.067 597.963C724.803 597.849 724.517 597.75 724.21 597.665L723.136 597.358C722.455 597.162 721.915 596.882 721.517 596.518C721.119 596.155 720.92 595.679 720.92 595.091C720.92 594.602 721.053 594.176 721.317 593.812C721.584 593.446 721.942 593.162 722.391 592.96C722.842 592.756 723.347 592.653 723.903 592.653C724.466 592.653 724.966 592.754 725.403 592.956C725.841 593.155 726.188 593.428 726.443 593.774C726.702 594.121 726.838 594.514 726.852 594.955H725.83ZM728.573 601.5V594.955H729.578V601.5H728.573ZM729.084 593.864C728.888 593.864 728.719 593.797 728.577 593.663C728.438 593.53 728.368 593.369 728.368 593.182C728.368 592.994 728.438 592.834 728.577 592.7C728.719 592.567 728.888 592.5 729.084 592.5C729.28 592.5 729.448 592.567 729.587 592.7C729.729 592.834 729.8 592.994 729.8 593.182C729.8 593.369 729.729 593.53 729.587 593.663C729.448 593.797 729.28 593.864 729.084 593.864ZM731.42 601.5V594.955H732.392V595.977H732.477C732.614 595.628 732.834 595.357 733.138 595.163C733.442 594.967 733.807 594.869 734.233 594.869C734.665 594.869 735.024 594.967 735.311 595.163C735.601 595.357 735.827 595.628 735.989 595.977H736.057C736.224 595.639 736.476 595.371 736.811 595.172C737.146 594.97 737.548 594.869 738.017 594.869C738.602 594.869 739.081 595.053 739.453 595.419C739.825 595.783 740.011 596.349 740.011 597.119V601.5H739.006V597.119C739.006 596.636 738.874 596.291 738.609 596.084C738.345 595.876 738.034 595.773 737.676 595.773C737.216 595.773 736.859 595.912 736.607 596.19C736.354 596.466 736.227 596.815 736.227 597.239V601.5H735.205V597.017C735.205 596.645 735.084 596.345 734.842 596.118C734.601 595.888 734.29 595.773 733.909 595.773C733.648 595.773 733.403 595.842 733.176 595.982C732.952 596.121 732.77 596.314 732.631 596.561C732.494 596.805 732.426 597.088 732.426 597.409V601.5H731.42ZM741.85 603.955V594.955H742.822V595.994H742.941C743.015 595.881 743.117 595.736 743.248 595.56C743.381 595.381 743.572 595.222 743.819 595.082C744.069 594.94 744.407 594.869 744.833 594.869C745.384 594.869 745.87 595.007 746.29 595.283C746.711 595.558 747.039 595.949 747.275 596.455C747.511 596.96 747.629 597.557 747.629 598.244C747.629 598.938 747.511 599.538 747.275 600.047C747.039 600.553 746.712 600.945 746.295 601.223C745.877 601.499 745.396 601.636 744.85 601.636C744.43 601.636 744.093 601.567 743.84 601.428C743.587 601.286 743.393 601.125 743.256 600.946C743.12 600.764 743.015 600.614 742.941 600.494H742.856V603.955H741.85ZM742.839 598.227C742.839 598.722 742.911 599.158 743.056 599.536C743.201 599.911 743.413 600.205 743.691 600.418C743.969 600.628 744.31 600.733 744.714 600.733C745.134 600.733 745.485 600.622 745.766 600.401C746.05 600.176 746.263 599.875 746.406 599.497C746.55 599.116 746.623 598.693 746.623 598.227C746.623 597.767 746.552 597.352 746.41 596.983C746.271 596.611 746.059 596.317 745.775 596.101C745.494 595.882 745.14 595.773 744.714 595.773C744.305 595.773 743.961 595.876 743.683 596.084C743.404 596.288 743.194 596.575 743.052 596.945C742.91 597.311 742.839 597.739 742.839 598.227ZM751.089 601.653C750.674 601.653 750.298 601.575 749.96 601.419C749.621 601.26 749.353 601.031 749.154 600.733C748.955 600.432 748.856 600.068 748.856 599.642C748.856 599.267 748.93 598.963 749.077 598.73C749.225 598.494 749.423 598.31 749.67 598.176C749.917 598.043 750.19 597.943 750.488 597.878C750.789 597.81 751.092 597.756 751.396 597.716C751.793 597.665 752.116 597.626 752.363 597.601C752.613 597.572 752.795 597.526 752.908 597.46C753.025 597.395 753.083 597.281 753.083 597.119V597.085C753.083 596.665 752.968 596.338 752.738 596.105C752.511 595.872 752.165 595.756 751.702 595.756C751.222 595.756 750.846 595.861 750.573 596.071C750.3 596.281 750.109 596.506 749.998 596.744L749.043 596.403C749.214 596.006 749.441 595.696 749.725 595.474C750.012 595.25 750.325 595.094 750.663 595.006C751.004 594.915 751.339 594.869 751.668 594.869C751.879 594.869 752.12 594.895 752.393 594.946C752.668 594.994 752.934 595.095 753.19 595.249C753.448 595.402 753.663 595.634 753.833 595.943C754.004 596.253 754.089 596.668 754.089 597.188V601.5H753.083V600.614H753.032C752.964 600.756 752.85 600.908 752.691 601.07C752.532 601.232 752.32 601.369 752.056 601.483C751.792 601.597 751.469 601.653 751.089 601.653ZM751.242 600.75C751.64 600.75 751.975 600.672 752.248 600.516C752.523 600.359 752.731 600.158 752.87 599.911C753.012 599.663 753.083 599.403 753.083 599.131V598.21C753.04 598.261 752.947 598.308 752.802 598.351C752.66 598.391 752.495 598.426 752.308 598.457C752.123 598.486 751.942 598.511 751.766 598.534C751.593 598.554 751.452 598.571 751.344 598.585C751.083 598.619 750.839 598.675 750.612 598.751C750.387 598.825 750.205 598.937 750.066 599.088C749.93 599.236 749.862 599.437 749.862 599.693C749.862 600.043 749.991 600.307 750.249 600.486C750.511 600.662 750.842 600.75 751.242 600.75ZM756.93 597.562V601.5H755.924V594.955H756.896V595.977H756.981C757.135 595.645 757.368 595.378 757.68 595.176C757.993 594.972 758.396 594.869 758.89 594.869C759.333 594.869 759.721 594.96 760.054 595.142C760.386 595.321 760.645 595.594 760.829 595.96C761.014 596.324 761.106 596.784 761.106 597.341V601.5H760.1V597.409C760.1 596.895 759.967 596.494 759.7 596.207C759.433 595.918 759.066 595.773 758.6 595.773C758.279 595.773 757.993 595.842 757.74 595.982C757.49 596.121 757.292 596.324 757.147 596.591C757.002 596.858 756.93 597.182 756.93 597.562ZM765.586 604.091C765.1 604.091 764.683 604.028 764.333 603.903C763.984 603.781 763.692 603.619 763.46 603.418C763.229 603.219 763.046 603.006 762.91 602.778L763.711 602.216C763.802 602.335 763.917 602.472 764.056 602.625C764.195 602.781 764.386 602.916 764.627 603.03C764.871 603.146 765.191 603.205 765.586 603.205C766.114 603.205 766.55 603.077 766.894 602.821C767.238 602.565 767.41 602.165 767.41 601.619V600.29H767.325C767.251 600.409 767.146 600.557 767.009 600.733C766.876 600.906 766.683 601.061 766.43 601.197C766.18 601.331 765.842 601.398 765.415 601.398C764.887 601.398 764.413 601.273 763.992 601.023C763.575 600.773 763.244 600.409 762.999 599.932C762.758 599.455 762.637 598.875 762.637 598.193C762.637 597.523 762.755 596.939 762.991 596.442C763.227 595.942 763.555 595.555 763.975 595.283C764.396 595.007 764.881 594.869 765.433 594.869C765.859 594.869 766.197 594.94 766.447 595.082C766.7 595.222 766.893 595.381 767.026 595.56C767.163 595.736 767.268 595.881 767.342 595.994H767.444V594.955H768.415V601.688C768.415 602.25 768.288 602.707 768.032 603.06C767.779 603.415 767.438 603.675 767.009 603.839C766.583 604.007 766.109 604.091 765.586 604.091ZM765.552 600.494C765.955 600.494 766.296 600.402 766.575 600.217C766.853 600.033 767.065 599.767 767.21 599.42C767.354 599.074 767.427 598.659 767.427 598.176C767.427 597.705 767.356 597.288 767.214 596.928C767.072 596.567 766.862 596.284 766.583 596.08C766.305 595.875 765.961 595.773 765.552 595.773C765.126 595.773 764.771 595.881 764.487 596.097C764.205 596.312 763.994 596.602 763.852 596.966C763.712 597.33 763.643 597.733 763.643 598.176C763.643 598.631 763.714 599.033 763.856 599.382C764.001 599.729 764.214 600.001 764.495 600.2C764.779 600.396 765.131 600.494 765.552 600.494ZM773.768 601.5V592.773H776.717C777.401 592.773 777.961 592.896 778.396 593.143C778.833 593.388 779.157 593.719 779.367 594.136C779.577 594.554 779.683 595.02 779.683 595.534C779.683 596.048 779.577 596.516 779.367 596.936C779.16 597.357 778.839 597.692 778.404 597.942C777.969 598.189 777.413 598.312 776.734 598.312H774.62V597.375H776.7C777.168 597.375 777.545 597.294 777.829 597.132C778.113 596.97 778.319 596.751 778.447 596.476C778.577 596.197 778.643 595.884 778.643 595.534C778.643 595.185 778.577 594.872 778.447 594.597C778.319 594.321 778.112 594.105 777.825 593.949C777.538 593.79 777.157 593.71 776.683 593.71H774.825V601.5H773.768ZM783.175 601.653C782.76 601.653 782.384 601.575 782.045 601.419C781.707 601.26 781.439 601.031 781.24 600.733C781.041 600.432 780.942 600.068 780.942 599.642C780.942 599.267 781.016 598.963 781.163 598.73C781.311 598.494 781.509 598.31 781.756 598.176C782.003 598.043 782.276 597.943 782.574 597.878C782.875 597.81 783.178 597.756 783.482 597.716C783.879 597.665 784.202 597.626 784.449 597.601C784.699 597.572 784.881 597.526 784.994 597.46C785.111 597.395 785.169 597.281 785.169 597.119V597.085C785.169 596.665 785.054 596.338 784.824 596.105C784.597 595.872 784.251 595.756 783.788 595.756C783.308 595.756 782.932 595.861 782.659 596.071C782.386 596.281 782.195 596.506 782.084 596.744L781.129 596.403C781.3 596.006 781.527 595.696 781.811 595.474C782.098 595.25 782.411 595.094 782.749 595.006C783.089 594.915 783.425 594.869 783.754 594.869C783.964 594.869 784.206 594.895 784.479 594.946C784.754 594.994 785.02 595.095 785.276 595.249C785.534 595.402 785.749 595.634 785.919 595.943C786.089 596.253 786.175 596.668 786.175 597.188V601.5H785.169V600.614H785.118C785.05 600.756 784.936 600.908 784.777 601.07C784.618 601.232 784.406 601.369 784.142 601.483C783.878 601.597 783.555 601.653 783.175 601.653ZM783.328 600.75C783.726 600.75 784.061 600.672 784.334 600.516C784.609 600.359 784.817 600.158 784.956 599.911C785.098 599.663 785.169 599.403 785.169 599.131V598.21C785.126 598.261 785.033 598.308 784.888 598.351C784.746 598.391 784.581 598.426 784.393 598.457C784.209 598.486 784.028 598.511 783.852 598.534C783.679 598.554 783.538 598.571 783.43 598.585C783.169 598.619 782.925 598.675 782.697 598.751C782.473 598.825 782.291 598.937 782.152 599.088C782.016 599.236 781.947 599.437 781.947 599.693C781.947 600.043 782.077 600.307 782.335 600.486C782.597 600.662 782.928 600.75 783.328 600.75ZM789.016 597.562V601.5H788.01V594.955H788.982V595.977H789.067C789.221 595.645 789.453 595.378 789.766 595.176C790.078 594.972 790.482 594.869 790.976 594.869C791.419 594.869 791.807 594.96 792.14 595.142C792.472 595.321 792.73 595.594 792.915 595.96C793.1 596.324 793.192 596.784 793.192 597.341V601.5H792.186V597.409C792.186 596.895 792.053 596.494 791.786 596.207C791.519 595.918 791.152 595.773 790.686 595.773C790.365 595.773 790.078 595.842 789.826 595.982C789.576 596.121 789.378 596.324 789.233 596.591C789.088 596.858 789.016 597.182 789.016 597.562ZM797.774 601.636C797.143 601.636 796.599 601.497 796.142 601.219C795.688 600.938 795.337 600.545 795.089 600.043C794.845 599.537 794.723 598.949 794.723 598.278C794.723 597.608 794.845 597.017 795.089 596.506C795.337 595.991 795.68 595.591 796.121 595.304C796.564 595.014 797.081 594.869 797.672 594.869C798.013 594.869 798.349 594.926 798.682 595.04C799.014 595.153 799.317 595.338 799.589 595.594C799.862 595.847 800.08 596.182 800.241 596.599C800.403 597.017 800.484 597.531 800.484 598.142V598.568H795.439V597.699H799.462C799.462 597.33 799.388 597 799.24 596.71C799.095 596.42 798.888 596.192 798.618 596.024C798.351 595.857 798.036 595.773 797.672 595.773C797.271 595.773 796.925 595.872 796.632 596.071C796.342 596.267 796.119 596.523 795.963 596.838C795.807 597.153 795.729 597.491 795.729 597.852V598.432C795.729 598.926 795.814 599.345 795.984 599.689C796.158 600.03 796.398 600.29 796.705 600.469C797.011 600.645 797.368 600.733 797.774 600.733C798.038 600.733 798.277 600.696 798.49 600.622C798.706 600.545 798.892 600.432 799.048 600.281C799.205 600.128 799.325 599.937 799.411 599.71L800.382 599.983C800.28 600.312 800.108 600.602 799.866 600.852C799.625 601.099 799.327 601.293 798.972 601.432C798.616 601.568 798.217 601.636 797.774 601.636ZM802.014 601.5V594.955H803.02V601.5H802.014ZM802.526 593.864C802.33 593.864 802.161 593.797 802.018 593.663C801.879 593.53 801.81 593.369 801.81 593.182C801.81 592.994 801.879 592.834 802.018 592.7C802.161 592.567 802.33 592.5 802.526 592.5C802.722 592.5 802.889 592.567 803.028 592.7C803.17 592.834 803.241 592.994 803.241 593.182C803.241 593.369 803.17 593.53 803.028 593.663C802.889 593.797 802.722 593.864 802.526 593.864Z" fill="white"/>
  <rect x="1283" y="182.5" width="51" height="29" rx="5" fill="#2973D6"/>
  <path d="M1295.11 192.773V201.5H1294.06V192.773H1295.11ZM1304.15 192.773V201.5H1303.13L1298.37 194.648H1298.29V201.5H1297.23V192.773H1298.26L1303.03 199.642H1303.11V192.773H1304.15ZM1306.27 201.5V192.773H1307.32V197.102H1307.43L1311.35 192.773H1312.73L1309.06 196.71L1312.73 201.5H1311.45L1308.42 197.443L1307.32 198.67V201.5H1306.27ZM1315.15 192.773V201.5H1314.1V192.773H1315.15ZM1322.04 194.955C1321.99 194.523 1321.79 194.188 1321.42 193.949C1321.06 193.71 1320.61 193.591 1320.08 193.591C1319.7 193.591 1319.36 193.653 1319.07 193.778C1318.78 193.903 1318.56 194.075 1318.4 194.294C1318.24 194.513 1318.16 194.761 1318.16 195.04C1318.16 195.273 1318.21 195.473 1318.32 195.641C1318.44 195.805 1318.58 195.943 1318.76 196.054C1318.94 196.162 1319.12 196.251 1319.31 196.322C1319.51 196.391 1319.68 196.446 1319.85 196.489L1320.73 196.727C1320.96 196.787 1321.21 196.869 1321.49 196.974C1321.77 197.08 1322.04 197.223 1322.3 197.405C1322.55 197.584 1322.77 197.814 1322.94 198.095C1323.1 198.376 1323.19 198.722 1323.19 199.131C1323.19 199.602 1323.06 200.028 1322.82 200.409C1322.57 200.79 1322.21 201.092 1321.74 201.317C1321.27 201.541 1320.7 201.653 1320.03 201.653C1319.41 201.653 1318.87 201.553 1318.41 201.351C1317.95 201.149 1317.6 200.868 1317.34 200.507C1317.08 200.146 1316.93 199.727 1316.9 199.25H1317.99C1318.02 199.58 1318.13 199.852 1318.32 200.068C1318.52 200.281 1318.76 200.44 1319.06 200.545C1319.36 200.648 1319.69 200.699 1320.03 200.699C1320.44 200.699 1320.8 200.634 1321.12 200.503C1321.44 200.369 1321.69 200.185 1321.88 199.949C1322.07 199.71 1322.16 199.432 1322.16 199.114C1322.16 198.824 1322.08 198.588 1321.92 198.406C1321.76 198.224 1321.55 198.077 1321.28 197.963C1321.02 197.849 1320.73 197.75 1320.43 197.665L1319.35 197.358C1318.67 197.162 1318.13 196.882 1317.73 196.518C1317.33 196.155 1317.14 195.679 1317.14 195.091C1317.14 194.602 1317.27 194.176 1317.53 193.812C1317.8 193.446 1318.16 193.162 1318.61 192.96C1319.06 192.756 1319.56 192.653 1320.12 192.653C1320.68 192.653 1321.18 192.754 1321.62 192.956C1322.06 193.155 1322.4 193.428 1322.66 193.774C1322.92 194.121 1323.05 194.514 1323.07 194.955H1322.04Z" fill="white"/>
  <path d="M1136.28 22.5L1154.72 22.5C1155.98 22.5 1157 21.5283 1157 20.3298L1157 17.6702C1157 16.4716 1155.98 15.5 1154.72 15.5L1136.28 15.5C1135.02 15.5 1134 16.4716 1134 17.6702L1134 20.3298C1134 21.5283 1135.02 22.5 1136.28 22.5Z" fill="#FFB948"/>
  <path d="M461.122 306.544V325.4C460.09 327.613 457.392 332.515 451.184 336.536C444.194 341.062 436.891 341.797 434.073 341.958" stroke="#00637F" stroke-width="3" stroke-miterlimit="10"/>
  <path d="M353.876 345.275C428.409 345.236 482.746 345.022 486.558 344.938C486.558 344.938 491.246 344.792 495.068 343.268C495.335 343.161 495.574 343.053 495.795 342.946C496.91 342.418 502.574 339.722 504.066 334.009C504.259 333.25 505.198 329.329 502.721 325.354C501.846 323.953 500.234 322.046 493.76 318.798C491.347 317.588 489.413 316.769 487.792 316.148C483.39 314.479 480.627 313.46 479.752 313.123C476.4 311.837 472.532 307.678 470.782 294.673" stroke="#00637F" stroke-width="3" stroke-miterlimit="10"/>
  <path d="M470.755 356.602C470.755 346.998 470.773 337.401 470.773 327.797C471.261 327.276 478.002 320.299 487.497 321.326C488.372 321.417 497.066 322.459 499.046 327.935C500.612 332.27 496.891 336.153 496.394 336.658C493.134 339.959 488.078 340.61 486.171 340.84C476.105 342.088 424.366 342.318 353.747 341.368" stroke="#00637F" stroke-width="3" stroke-miterlimit="10"/>
  <path d="M461.122 380.681V361.825C460.09 359.611 457.392 354.71 451.184 350.689C444.194 346.163 436.891 345.427 434.073 345.267" stroke="#00637F" stroke-width="3" stroke-miterlimit="10"/>
  <path d="M528 234.5C520.916 234.523 513.823 234.546 506.739 234.569C503.725 234.76 491.842 235.822 482.008 244.184C473.358 251.544 471.555 261.152 470.845 265.654C470.845 287.536 470 535.238 470 659.5" stroke="#E50014" stroke-width="3" stroke-miterlimit="10"/>
  <path d="M527 226.732L509.214 226.518C505.767 226.426 489.907 226.311 476.448 236.383C465.281 244.74 462.164 257.092 461 266.375C461 297.942 461.001 540.197 461 660.5" stroke="#E50014" stroke-width="3" stroke-miterlimit="10"/>
  <path d="M469.716 404.424L469.716 426.157L495.216 451.198L495.216 469.624L495.216 660.5" stroke="#E50014" stroke-width="3"/>
  <path d="M469.715 384.58L469.715 412.456L504.216 445.528L504.216 467.734L504.216 659.555" stroke="#E50014" stroke-width="3"/>
  <path d="M491 477.5H510C511.105 477.5 512 476.605 512 475.5V471.5C512 470.395 511.105 469.5 510 469.5H491C489.895 469.5 489 470.395 489 471.5V475.5C489 476.605 489.895 477.5 491 477.5Z" fill="#1B6EF3"/>
  <path d="M455 294.5H474C475.105 294.5 476 293.605 476 292.5V288.5C476 287.395 475.105 286.5 474 286.5H455C453.895 286.5 453 287.395 453 288.5V292.5C453 293.605 453.895 294.5 455 294.5Z" fill="#1B6EF3"/>
  <path d="M455 493.5H474C475.105 493.5 476 492.605 476 491.5V487.5C476 486.395 475.105 485.5 474 485.5H455C453.895 485.5 453 486.395 453 487.5V491.5C453 492.605 453.895 493.5 455 493.5Z" fill="#1B6EF3"/>
  <path d="M361 334.5L361 353.5C361 354.605 361.895 355.5 363 355.5L367 355.5C368.105 355.5 369 354.605 369 353.5L369 334.5C369 333.395 368.105 332.5 367 332.5L363 332.5C361.895 332.5 361 333.395 361 334.5Z" fill="#1B6EF3"/>
</svg>