<svg width="1395" height="912" viewBox="0 0 1395 912" fill="none" xmlns="http://www.w3.org/2000/svg">
<path d="M411.73 734.03V351.29" stroke="#00637F" stroke-width="3" stroke-miterlimit="10"/>
<path d="M422.219 734.24V351.49" stroke="#00637F" stroke-width="3" stroke-miterlimit="10"/>
<path d="M356.229 297.64C360.699 297.13 367.129 296.81 374.729 297.85C381.319 298.75 387.049 299.53 393.039 303.19C400.729 307.89 404.789 314.83 406.829 319.38C407.199 320.12 407.469 320.72 407.659 321.15C414.329 335.96 411.259 351.29 411.729 351.29C411.999 351.29 412.239 346.1 412.759 338.96C412.759 338.96 412.799 338.43 413.659 327.94C415.649 303.76 417.209 284.92 426.529 280.37C432.299 277.56 434.939 284.84 452.839 287.36C457.469 288.01 462.319 288.08 472.039 288.21C480.939 288.33 488.289 288.16 493.339 287.98" stroke="#027C49" stroke-width="3" stroke-miterlimit="10"/>
<path d="M483.059 297.84C478.879 297.44 472.749 297.11 465.379 297.63C455.229 298.36 448.169 298.86 441.109 303.18C438.049 305.05 431.799 309.59 427.319 319.37C426.949 320.11 426.679 320.71 426.479 321.14C419.809 335.95 422.879 351.28 422.409 351.28C422.139 351.28 421.899 346.09 421.379 338.95C421.379 338.95 421.339 338.42 420.479 327.93C418.489 303.75 416.929 284.91 407.609 280.36C401.569 277.41 398.849 285.29 381.299 287.35C376.659 287.89 375.489 287.53 360.259 287.63C351.949 287.69 345.179 287.84 340.809 287.96" stroke="#027C49" stroke-width="3" stroke-miterlimit="10"/>
<path d="M538.671 469.1C457.741 469.05 398.741 468.77 394.601 468.66C394.601 468.66 389.511 468.47 385.361 466.48C385.071 466.34 384.811 466.2 384.571 466.06C383.361 465.37 377.211 461.85 375.591 454.39C375.381 453.4 374.361 448.28 377.051 443.09C378.001 441.26 379.751 438.77 386.781 434.53C389.401 432.95 391.501 431.88 393.261 431.07C398.041 428.89 401.041 427.56 401.991 427.12C405.631 425.44 409.831 420.01 411.731 403.03" stroke="#027C49" stroke-width="3" stroke-miterlimit="10"/>
<path d="M411.76 483.89C411.76 471.35 411.74 458.82 411.74 446.28C411.21 445.6 403.89 436.49 393.58 437.83C392.63 437.95 383.19 439.31 381.04 446.46C379.34 452.12 383.38 457.19 383.92 457.85C387.46 462.16 392.95 463.01 395.02 463.31C405.95 464.94 462.13 465.24 538.81 464" stroke="#027C49" stroke-width="3" stroke-miterlimit="10"/>
<path d="M422.221 418.53V443.15C423.341 446.04 426.271 452.44 433.011 457.69C440.601 463.6 448.531 464.56 451.591 464.77" stroke="#027C49" stroke-width="3" stroke-miterlimit="10"/>
<path d="M422.221 515.33V490.71C423.341 487.82 426.271 481.42 433.011 476.17C440.601 470.26 448.531 469.3 451.591 469.09" stroke="#027C49" stroke-width="3" stroke-miterlimit="10"/>
<path d="M538.71 673.95C457.78 673.9 398.78 673.62 394.64 673.51C394.64 673.51 389.55 673.32 385.4 671.33C385.11 671.19 384.85 671.05 384.61 670.91C383.4 670.22 377.25 666.7 375.63 659.24C375.42 658.25 374.4 653.13 377.09 647.94C378.04 646.11 379.79 643.62 386.82 639.38C389.44 637.8 391.54 636.73 393.3 635.92C398.08 633.74 401.08 632.41 402.03 631.97C405.67 630.29 409.87 624.86 411.77 607.88" stroke="#027C49" stroke-width="3" stroke-miterlimit="10"/>
<path d="M411.811 688.74C411.811 676.2 411.791 663.67 411.791 651.13C411.261 650.45 403.941 641.34 393.631 642.68C392.681 642.8 383.241 644.16 381.091 651.31C379.391 656.97 383.431 662.04 383.971 662.7C387.511 667.01 393.001 667.86 395.071 668.16C406.001 669.79 462.181 670.09 538.861 668.85" stroke="#027C49" stroke-width="3" stroke-miterlimit="10"/>
<path d="M422.26 623.38V648C423.38 650.89 426.31 657.29 433.05 662.54C440.64 668.45 448.57 669.41 451.63 669.62" stroke="#027C49" stroke-width="3" stroke-miterlimit="10"/>
<path d="M422.26 720.19V695.57C423.38 692.68 426.31 686.28 433.05 681.03C440.64 675.12 448.57 674.16 451.63 673.95" stroke="#027C49" stroke-width="3" stroke-miterlimit="10"/>
<path d="M520.869 682.77V658.06C520.869 656.37 519.499 655 517.809 655H514.059C512.369 655 510.999 656.37 510.999 658.06V682.77C510.999 684.46 512.369 685.83 514.059 685.83H517.809C519.499 685.83 520.869 684.46 520.869 682.77Z" fill="#FFB948"/>
<path d="M411.465 911.74V529" stroke="#00637F" stroke-width="3" stroke-miterlimit="10"/>
<path d="M421.953 911.95V529.2" stroke="#00637F" stroke-width="3" stroke-miterlimit="10"/>
<path d="M538.444 851.66C457.514 851.61 398.514 851.33 394.374 851.22C394.374 851.22 389.284 851.03 385.134 849.04C384.844 848.9 384.584 848.76 384.344 848.62C383.134 847.93 376.984 844.41 375.364 836.95C375.154 835.96 374.134 830.84 376.824 825.65C377.774 823.82 379.524 821.33 386.554 817.09C389.174 815.51 391.274 814.44 393.034 813.63C397.814 811.45 400.814 810.12 401.764 809.68C405.404 808 409.604 802.57 411.504 785.59" stroke="#027C49" stroke-width="3" stroke-miterlimit="10"/>
<path d="M411.545 866.45C411.545 853.91 411.525 841.38 411.525 828.84C410.995 828.16 403.675 819.05 393.365 820.39C392.415 820.51 382.975 821.87 380.825 829.02C379.125 834.68 383.165 839.75 383.705 840.41C387.245 844.72 392.735 845.57 394.805 845.87C405.735 847.5 461.915 847.8 538.595 846.56" stroke="#027C49" stroke-width="3" stroke-miterlimit="10"/>
<path d="M421.994 801.09V825.71C423.114 828.6 426.044 835 432.784 840.25C440.374 846.16 448.304 847.12 451.364 847.33" stroke="#027C49" stroke-width="3" stroke-miterlimit="10"/>
<path d="M421.994 897.9V873.28C423.114 870.39 426.044 863.99 432.784 858.74C440.374 852.83 448.304 851.87 451.364 851.66" stroke="#027C49" stroke-width="3" stroke-miterlimit="10"/>
<path d="M520.604 860.48V835.77C520.604 834.08 519.233 832.71 517.543 832.71H513.793C512.103 832.71 510.733 834.08 510.733 835.77V860.48C510.733 862.17 512.103 863.54 513.793 863.54H517.543C519.233 863.54 520.604 862.17 520.604 860.48Z" fill="#FFB948"/>
<path d="M238.77 297.46C334.32 297.46 429.88 297.46 525.43 297.46" stroke="#FD0001" stroke-width="3" stroke-miterlimit="10"/>
<path d="M238.26 287.56C333.98 287.78 429.71 287.99 525.43 288.21" stroke="#FD0001" stroke-width="3" stroke-miterlimit="10"/>
<path d="M595.501 297.5C620.501 297.5 630.481 295.36 635.501 301C641.791 308.08 640.561 320 648.921 326.4C654.691 330.81 665.081 334.51 674.631 329.82C685.371 324.55 687.381 312.43 687.561 311.19C687.421 289.76 687.281 268.33 687.151 246.9C686.691 244.19 684.891 235.66 677.281 228.55C669.511 221.29 660.661 220.16 657.961 219.92C626.821 219.44 595.681 218.96 564.531 218.48" stroke="#027C49" stroke-width="3" stroke-miterlimit="10"/>
<path d="M563 224.02C597.32 224.8 624.96 225.61 645.63 225.66C652.85 225.68 666.2 225.62 674 234.7C677.3 238.55 678.11 242.63 679.8 250.74C682.06 261.65 681.51 268.82 681.4 286.03C681.37 291.32 681.36 299.27 681.55 309.08C679.76 319.76 670.14 326.1 662.08 324.32C655.02 322.76 648.72 314.87 650.51 307.27C652.1 300.54 659.25 297.73 660.03 297.44" stroke="#027C49" stroke-width="3" stroke-miterlimit="10"/>
<path d="M679.799 250.75C680.079 253.06 681.189 264.06 673.589 274.17C665.299 285.21 653.019 286.7 650.979 286.91C639.329 287.34 627.679 287.77 616.039 288.19" stroke="#027C49" stroke-width="3" stroke-miterlimit="10"/>
<path d="M687.19 252.65C686.99 255.01 686.29 266.24 694.4 276.19C703.46 287.31 716.41 288.12 718.45 288.22H751.76" stroke="#027C49" stroke-width="3" stroke-miterlimit="10"/>
<path d="M1046.34 232.89V4" stroke="#027C49" stroke-width="3" stroke-miterlimit="10"/>
<path d="M1055.69 232.89V4" stroke="#027C49" stroke-width="3" stroke-miterlimit="10"/>
<path d="M1055.69 168.93C1055.79 165.58 1056.42 160.06 1059.42 154.13C1061.27 150.46 1063.53 145.97 1068.32 143.16C1073.8 139.95 1076.39 142.57 1083.05 139.12C1085.15 138.03 1089.26 135.84 1091.83 131.07C1092.54 129.76 1095.06 124.89 1093.48 118.97C1092.21 114.22 1089.01 111.53 1088.01 110.69C1084.96 108.12 1080.67 106.3 1074.98 106.33C1048.54 106.44 1022.1 106.55 995.66 106.66C978.64 106.73 973.88 115.94 970.58 120.23C964.8 127.73 963.95 136.38 963.59 142.02" stroke="#027C49" stroke-width="3" stroke-miterlimit="10"/>
<path d="M971.819 142.44C971.449 138.74 971.009 129.2 977.159 121.63C978.939 119.44 982.399 116.03 992.269 112.84C1007.88 107.8 1017.89 110.3 1046.33 110.22C1051.24 110.21 1056.14 110.47 1061.05 110.4C1065.78 110.34 1068.37 110.18 1072.33 110.87C1076.13 111.53 1079.14 112.05 1082.11 114.3C1082.94 114.92 1088.24 119.07 1088 124.09C1087.65 131.18 1076.35 138.06 1067.03 135.5C1059.52 133.44 1056.21 126.05 1055.67 124.79" stroke="#027C49" stroke-width="3" stroke-miterlimit="10"/>
<path d="M1010 109.67C1013.36 109.69 1024.26 110.18 1034.21 118.24C1041.99 124.55 1045.16 132.24 1046.34 135.66V157.09" stroke="#027C49" stroke-width="3" stroke-miterlimit="10"/>
<path d="M1012.75 106.6C1016.84 106.6 1027.99 106.02 1037.83 98.0101C1041.92 94.6801 1044.61 91.0201 1046.33 88.1401V69.3301" stroke="#027C49" stroke-width="3" stroke-miterlimit="10"/>
<path d="M983.17 124.48H958.46C956.77 124.48 955.4 125.85 955.4 127.54V131.29C955.4 132.98 956.77 134.35 958.46 134.35H983.17C984.86 134.35 986.23 132.98 986.23 131.29V127.54C986.23 125.85 984.86 124.48 983.17 124.48Z" fill="#FFB948"/>
<path d="M825.131 272.74H794.301V285.59H825.131V272.74Z" fill="#FFB948" stroke="#FCAC56" stroke-miterlimit="10"/>
<path d="M239.831 297.76C232.051 297.79 224.261 297.82 216.481 297.85C213.171 298.1 200.121 299.49 189.321 310.43C179.821 320.06 177.841 332.63 177.061 338.52C173.641 364.45 173.881 485.57 178.341 650.61" stroke="#00637F" stroke-width="3" stroke-miterlimit="10"/>
<path d="M825.131 299.51H794.301V312.36H825.131V299.51Z" fill="#FFB948" stroke="#FCAC56" stroke-miterlimit="10"/>
<path d="M656.469 236.37V211.66C656.469 209.97 655.099 208.6 653.409 208.6H649.659C647.969 208.6 646.599 209.97 646.599 211.66V236.37C646.599 238.06 647.969 239.43 649.659 239.43H653.409C655.099 239.43 656.469 238.06 656.469 236.37Z" fill="#FFB948"/>
<path d="M520.449 477.12V452.41C520.449 450.72 519.079 449.35 517.389 449.35H513.639C511.949 449.35 510.579 450.72 510.579 452.41V477.12C510.579 478.81 511.949 480.18 513.639 480.18H517.389C519.079 480.18 520.449 478.81 520.449 477.12Z" fill="#FFB948"/>
<path d="M525.43 288.21H1109.47" stroke="#00637F" stroke-width="3" stroke-miterlimit="10"/>
<path d="M423.73 565.91V529.66L440.13 535.23V560.36L423.73 565.91Z" fill="#FFB948" stroke="#FCAC56" stroke-miterlimit="10"/>
<path d="M410.471 531.88V568.14L391.871 562.56V537.43L410.471 531.88Z" fill="#FFB948" stroke="#FCAC56" stroke-miterlimit="10"/>
<path d="M423 763.25V727L439.4 732.57V757.7L423 763.25Z" fill="#FFB948" stroke="#FCAC56" stroke-miterlimit="10"/>
<path d="M409.6 725V761.26L391 755.68V730.55L409.6 725Z" fill="#FFB948" stroke="#FCAC56" stroke-miterlimit="10"/>
<path d="M238.259 287.56L218.859 287.28C215.099 287.16 197.799 287.01 183.119 300.17C170.939 311.09 167.539 327.23 166.269 339.36C162.519 375.24 161.879 491.75 166.099 649.57" stroke="#00637F" stroke-width="3" stroke-miterlimit="10"/>
<path d="M509.859 303.67V278.48H499.989V303.67H509.859Z" fill="#00637F"/>
<path d="M244.281 304.91V279.72H234.411V304.91H244.281Z" fill="#00637F"/>
<path d="M525.43 297.46H1109.47" stroke="#00637F" stroke-width="3" stroke-miterlimit="10"/>
<path d="M558.271 192.06H555.191V362.88H558.271V192.06Z" fill="#FFB948"/>
<path d="M564.541 192.06H561.461V362.88H564.541V192.06Z" fill="#FFB948"/>
<path d="M1055.69 229.52C1054.77 238.1 1055.17 245.14 1055.71 249.95C1056.78 259.55 1057.75 268.17 1063.99 276.24C1065.64 278.36 1069.14 282.79 1075.3 285.64C1079.82 287.74 1083.56 288.08 1090.2 288.57C1094.84 288.91 1101.45 289.08 1109.47 288.21" stroke="#FD0001" stroke-width="3" stroke-miterlimit="10"/>
<path d="M1046.34 229.73C1046.53 233.33 1046.77 238.82 1046.83 245.56C1046.91 254.34 1046.6 254.63 1046.88 258.97C1046.98 260.55 1047.54 263.13 1050.27 279.17C1050.88 282.75 1051.56 286.69 1053.04 291.81C1055.33 299.73 1056.55 303.72 1060.02 305.48C1062.95 306.96 1066.11 306.22 1070.97 305.07C1076.93 303.66 1081.09 301.4 1082.02 300.91C1087.02 298.26 1095.26 295.93 1109.46 297.47" stroke="#FD0001" stroke-width="3" stroke-miterlimit="10"/>
<path d="M1046.34 229.42C1047.26 238 1046.86 245.04 1046.32 249.85C1045.25 259.45 1044.28 268.07 1038.04 276.14C1036.39 278.26 1032.89 282.69 1026.73 285.54C1021.85 287.8 1017.4 288.1 1011.83 288.47C1006.68 288.81 1002.39 288.54 999.391 288.21" stroke="#027C49" stroke-width="3" stroke-miterlimit="10"/>
<path d="M1055.69 229.62C1055.5 233.22 1055.26 238.71 1055.2 245.45C1055.12 254.23 1055.43 254.52 1055.15 258.86C1055.05 260.44 1054.49 263.02 1051.76 279.06C1051.15 282.64 1050.47 286.58 1048.99 291.7C1046.7 299.62 1045.48 303.61 1042.01 305.37C1039.08 306.85 1035.92 306.11 1031.06 304.96C1026.66 303.92 1025.22 302.72 1020.01 300.8C1017.43 299.84 1013.54 298.57 1008.55 297.56C996.73 297.53 984.91 297.49 973.09 297.46" stroke="#027C49" stroke-width="3" stroke-miterlimit="10"/>
<path d="M160.001 376.21H181.191C182.296 376.21 183.191 375.315 183.191 374.21V368.34C183.191 367.235 182.296 366.34 181.191 366.34H160.001C158.897 366.34 158.001 367.235 158.001 368.34V374.21C158.001 375.315 158.897 376.21 160.001 376.21Z" fill="#1B6EF3"/>
<path d="M160.001 559.87H181.191C182.296 559.87 183.191 558.975 183.191 557.87V552C183.191 550.896 182.296 550 181.191 550H160.001C158.897 550 158.001 550.896 158.001 552V557.87C158.001 558.975 158.897 559.87 160.001 559.87Z" fill="#1B6EF3"/>
<path d="M1107.48 297.46C1203.03 297.46 1298.59 297.46 1394.14 297.46" stroke="#00637F" stroke-width="3" stroke-miterlimit="10"/>
<path d="M1107.48 288.21C1203.2 288.43 1298.93 288.64 1394.65 288.86" stroke="#00637F" stroke-width="3" stroke-miterlimit="10"/>
<path d="M1210.6 279.92V305.11H1220.47V279.92H1210.6Z" fill="#00637F"/>
<rect y="508" width="151" height="35" rx="5" fill="#2973D6"/>
<path d="M11.0568 530V521.273H14.108C14.7159 521.273 15.2173 521.378 15.6122 521.588C16.0071 521.795 16.3011 522.075 16.4943 522.428C16.6875 522.777 16.7841 523.165 16.7841 523.591C16.7841 523.966 16.7173 524.276 16.5838 524.52C16.4531 524.764 16.2798 524.957 16.0639 525.099C15.8509 525.241 15.6193 525.347 15.3693 525.415V525.5C15.6364 525.517 15.9048 525.611 16.1747 525.781C16.4446 525.952 16.6705 526.196 16.8523 526.514C17.0341 526.832 17.125 527.222 17.125 527.682C17.125 528.119 17.0256 528.513 16.8267 528.862C16.6278 529.212 16.3139 529.489 15.8849 529.693C15.456 529.898 14.8977 530 14.2102 530H11.0568ZM12.1136 529.062H14.2102C14.9006 529.062 15.3906 528.929 15.6804 528.662C15.973 528.392 16.1193 528.065 16.1193 527.682C16.1193 527.386 16.044 527.114 15.8935 526.864C15.7429 526.611 15.5284 526.409 15.25 526.259C14.9716 526.105 14.642 526.028 14.2614 526.028H12.1136V529.062ZM12.1136 525.108H14.0739C14.392 525.108 14.679 525.045 14.9347 524.92C15.1932 524.795 15.3977 524.619 15.5483 524.392C15.7017 524.165 15.7784 523.898 15.7784 523.591C15.7784 523.207 15.6449 522.882 15.3778 522.615C15.1108 522.345 14.6875 522.21 14.108 522.21H12.1136V525.108ZM18.8615 530V521.273H24.1286V522.21H19.9183V525.159H23.8558V526.097H19.9183V529.062H24.1967V530H18.8615ZM26.0334 530V521.273H27.0902V529.062H31.147V530H26.0334ZM32.7834 521.273H34.0447L37.0107 528.517H37.1129L40.0788 521.273H41.3402V530H40.3516V523.369H40.2663L37.5391 530H36.5845L33.8572 523.369H33.772V530H32.7834V521.273ZM43.4592 530V521.273H48.7262V522.21H44.516V525.159H48.4535V526.097H44.516V529.062H48.7944V530H43.4592ZM50.631 530V521.273H53.5799C54.2617 521.273 54.8214 521.389 55.2589 521.622C55.6964 521.852 56.0202 522.169 56.2305 522.572C56.4407 522.976 56.5458 523.435 56.5458 523.949C56.5458 524.463 56.4407 524.919 56.2305 525.317C56.0202 525.714 55.6978 526.027 55.2631 526.254C54.8285 526.479 54.2731 526.591 53.5969 526.591H51.2106V525.636H53.5629C54.0288 525.636 54.4038 525.568 54.6879 525.432C54.9748 525.295 55.1822 525.102 55.31 524.852C55.4407 524.599 55.506 524.298 55.506 523.949C55.506 523.599 55.4407 523.294 55.31 523.033C55.1793 522.771 54.9705 522.57 54.6836 522.428C54.3967 522.283 54.0174 522.21 53.5458 522.21H51.6879V530H50.631ZM54.739 526.08L56.8867 530H55.6594L53.5458 526.08H54.739ZM58.6648 530H57.5568L60.7614 521.273H61.8523L65.0568 530H63.9489L61.3409 522.653H61.2727L58.6648 530ZM59.0739 526.591H63.5398V527.528H59.0739V526.591ZM67.7798 528.807L67.7116 529.267C67.6634 529.591 67.5895 529.938 67.4901 530.307C67.3935 530.676 67.2926 531.024 67.1875 531.351C67.0824 531.678 66.9957 531.938 66.9276 532.131H66.1605C66.1974 531.949 66.2457 531.709 66.3054 531.411C66.3651 531.112 66.4247 530.778 66.4844 530.409C66.5469 530.043 66.598 529.668 66.6378 529.284L66.6889 528.807H67.7798ZM73.1545 521.273H74.4158L77.3817 528.517H77.484L80.4499 521.273H81.7113V530H80.7227V523.369H80.6374L77.9102 530H76.9556L74.2283 523.369H74.1431V530H73.1545V521.273ZM83.8303 530V521.273H86.8814C87.4893 521.273 87.9908 521.378 88.3857 521.588C88.7805 521.795 89.0746 522.075 89.2678 522.428C89.4609 522.777 89.5575 523.165 89.5575 523.591C89.5575 523.966 89.4908 524.276 89.3572 524.52C89.2266 524.764 89.0533 524.957 88.8374 525.099C88.6243 525.241 88.3928 525.347 88.1428 525.415V525.5C88.4098 525.517 88.6783 525.611 88.9482 525.781C89.218 525.952 89.4439 526.196 89.6257 526.514C89.8075 526.832 89.8984 527.222 89.8984 527.682C89.8984 528.119 89.799 528.513 89.6001 528.862C89.4013 529.212 89.0874 529.489 88.6584 529.693C88.2294 529.898 87.6712 530 86.9837 530H83.8303ZM84.8871 529.062H86.9837C87.674 529.062 88.1641 528.929 88.4538 528.662C88.7464 528.392 88.8928 528.065 88.8928 527.682C88.8928 527.386 88.8175 527.114 88.6669 526.864C88.5163 526.611 88.3018 526.409 88.0234 526.259C87.745 526.105 87.4155 526.028 87.0348 526.028H84.8871V529.062ZM84.8871 525.108H86.8473C87.1655 525.108 87.4524 525.045 87.7081 524.92C87.9666 524.795 88.1712 524.619 88.3217 524.392C88.4751 524.165 88.5518 523.898 88.5518 523.591C88.5518 523.207 88.4183 522.882 88.1513 522.615C87.8842 522.345 87.4609 522.21 86.8814 522.21H84.8871V525.108ZM91.1577 522.21V521.273H97.7031V522.21H94.9588V530H93.902V522.21H91.1577ZM100.288 528.807L100.219 529.267C100.171 529.591 100.097 529.938 99.9979 530.307C99.9013 530.676 99.8004 531.024 99.6953 531.351C99.5902 531.678 99.5036 531.938 99.4354 532.131H98.6683C98.7053 531.949 98.7536 531.709 98.8132 531.411C98.8729 531.112 98.9325 530.778 98.9922 530.409C99.0547 530.043 99.1058 529.668 99.1456 529.284L99.1967 528.807H100.288ZM105.662 530V521.273H108.713C109.321 521.273 109.823 521.378 110.218 521.588C110.613 521.795 110.907 522.075 111.1 522.428C111.293 522.777 111.39 523.165 111.39 523.591C111.39 523.966 111.323 524.276 111.189 524.52C111.059 524.764 110.885 524.957 110.669 525.099C110.456 525.241 110.225 525.347 109.975 525.415V525.5C110.242 525.517 110.51 525.611 110.78 525.781C111.05 525.952 111.276 526.196 111.458 526.514C111.64 526.832 111.73 527.222 111.73 527.682C111.73 528.119 111.631 528.513 111.432 528.862C111.233 529.212 110.919 529.489 110.49 529.693C110.061 529.898 109.503 530 108.816 530H105.662ZM106.719 529.062H108.816C109.506 529.062 109.996 528.929 110.286 528.662C110.578 528.392 110.725 528.065 110.725 527.682C110.725 527.386 110.65 527.114 110.499 526.864C110.348 526.611 110.134 526.409 109.855 526.259C109.577 526.105 109.248 526.028 108.867 526.028H106.719V529.062ZM106.719 525.108H108.679C108.998 525.108 109.284 525.045 109.54 524.92C109.799 524.795 110.003 524.619 110.154 524.392C110.307 524.165 110.384 523.898 110.384 523.591C110.384 523.207 110.25 522.882 109.983 522.615C109.716 522.345 109.293 522.21 108.713 522.21H106.719V525.108ZM114.524 521.273V530H113.467V521.273H114.524ZM123.563 521.273V530H122.54L117.785 523.148H117.7V530H116.643V521.273H117.665L122.438 528.142H122.523V521.273H123.563ZM130.451 523.455C130.4 523.023 130.192 522.688 129.828 522.449C129.465 522.21 129.019 522.091 128.49 522.091C128.104 522.091 127.766 522.153 127.476 522.278C127.189 522.403 126.965 522.575 126.803 522.794C126.644 523.013 126.564 523.261 126.564 523.54C126.564 523.773 126.62 523.973 126.73 524.141C126.844 524.305 126.989 524.443 127.165 524.554C127.341 524.662 127.526 524.751 127.719 524.822C127.912 524.891 128.09 524.946 128.252 524.989L129.138 525.227C129.365 525.287 129.618 525.369 129.897 525.474C130.178 525.58 130.446 525.723 130.702 525.905C130.961 526.084 131.174 526.314 131.341 526.595C131.509 526.876 131.593 527.222 131.593 527.631C131.593 528.102 131.469 528.528 131.222 528.909C130.978 529.29 130.62 529.592 130.148 529.817C129.679 530.041 129.11 530.153 128.439 530.153C127.814 530.153 127.273 530.053 126.816 529.851C126.361 529.649 126.003 529.368 125.742 529.007C125.483 528.646 125.337 528.227 125.303 527.75H126.394C126.422 528.08 126.533 528.352 126.726 528.568C126.922 528.781 127.169 528.94 127.468 529.045C127.769 529.148 128.093 529.199 128.439 529.199C128.843 529.199 129.205 529.134 129.526 529.003C129.847 528.869 130.101 528.685 130.289 528.449C130.476 528.21 130.57 527.932 130.57 527.614C130.57 527.324 130.489 527.088 130.327 526.906C130.165 526.724 129.952 526.577 129.688 526.463C129.424 526.349 129.138 526.25 128.831 526.165L127.757 525.858C127.076 525.662 126.536 525.382 126.138 525.018C125.74 524.655 125.542 524.179 125.542 523.591C125.542 523.102 125.674 522.676 125.938 522.312C126.205 521.946 126.563 521.662 127.012 521.46C127.463 521.256 127.968 521.153 128.525 521.153C129.087 521.153 129.587 521.254 130.025 521.456C130.462 521.655 130.809 521.928 131.064 522.274C131.323 522.621 131.459 523.014 131.473 523.455H130.451ZM133.688 530H132.58L135.785 521.273H136.876L140.08 530H138.972L136.364 522.653H136.296L133.688 530ZM134.097 526.591H138.563V527.528H134.097V526.591Z" fill="white"/>
<rect x="97" y="325" width="54" height="35" rx="5" fill="#2973D6"/>
<path d="M108.057 338.273H109.318L112.284 345.517H112.386L115.352 338.273H116.614V347H115.625V340.369H115.54L112.812 347H111.858L109.131 340.369H109.045V347H108.057V338.273ZM118.733 347V338.273H119.789V342.602H119.892L123.812 338.273H125.193L121.528 342.21L125.193 347H123.914L120.88 342.943L119.789 344.17V347H118.733ZM126.083 339.21V338.273H132.629V339.21H129.885V347H128.828V339.21H126.083ZM133.783 339.21V338.273H140.328V339.21H137.584V347H136.527V339.21H133.783Z" fill="white"/>
<rect x="511" y="401" width="109" height="35" rx="5" fill="#2973D6"/>
<path d="M524.75 423H522.057V414.273H524.869C525.716 414.273 526.44 414.447 527.043 414.797C527.645 415.143 528.107 415.642 528.428 416.293C528.749 416.94 528.909 417.716 528.909 418.619C528.909 419.528 528.747 420.311 528.423 420.967C528.099 421.621 527.628 422.124 527.009 422.476C526.389 422.825 525.636 423 524.75 423ZM523.114 422.062H524.682C525.403 422.062 526.001 421.923 526.476 421.645C526.95 421.366 527.304 420.97 527.537 420.456C527.77 419.942 527.886 419.33 527.886 418.619C527.886 417.915 527.771 417.308 527.541 416.8C527.311 416.288 526.967 415.896 526.51 415.624C526.053 415.348 525.483 415.21 524.801 415.21H523.114V422.062ZM533.205 423.136C532.614 423.136 532.095 422.996 531.649 422.714C531.206 422.433 530.859 422.04 530.609 421.534C530.362 421.028 530.239 420.437 530.239 419.761C530.239 419.08 530.362 418.484 530.609 417.976C530.859 417.467 531.206 417.072 531.649 416.791C532.095 416.51 532.614 416.369 533.205 416.369C533.795 416.369 534.313 416.51 534.756 416.791C535.202 417.072 535.548 417.467 535.795 417.976C536.045 418.484 536.17 419.08 536.17 419.761C536.17 420.437 536.045 421.028 535.795 421.534C535.548 422.04 535.202 422.433 534.756 422.714C534.313 422.996 533.795 423.136 533.205 423.136ZM533.205 422.233C533.653 422.233 534.023 422.118 534.312 421.888C534.602 421.658 534.817 421.355 534.956 420.98C535.095 420.605 535.165 420.199 535.165 419.761C535.165 419.324 535.095 418.916 534.956 418.538C534.817 418.161 534.602 417.855 534.312 417.622C534.023 417.389 533.653 417.273 533.205 417.273C532.756 417.273 532.386 417.389 532.097 417.622C531.807 417.855 531.592 418.161 531.453 418.538C531.314 418.916 531.244 419.324 531.244 419.761C531.244 420.199 531.314 420.605 531.453 420.98C531.592 421.355 531.807 421.658 532.097 421.888C532.386 422.118 532.756 422.233 533.205 422.233ZM538.711 414.273V423H537.706V414.273H538.711ZM543.212 423.136C542.621 423.136 542.103 422.996 541.657 422.714C541.214 422.433 540.867 422.04 540.617 421.534C540.37 421.028 540.246 420.437 540.246 419.761C540.246 419.08 540.37 418.484 540.617 417.976C540.867 417.467 541.214 417.072 541.657 416.791C542.103 416.51 542.621 416.369 543.212 416.369C543.803 416.369 544.32 416.51 544.763 416.791C545.21 417.072 545.556 417.467 545.803 417.976C546.053 418.484 546.178 419.08 546.178 419.761C546.178 420.437 546.053 421.028 545.803 421.534C545.556 422.04 545.21 422.433 544.763 422.714C544.32 422.996 543.803 423.136 543.212 423.136ZM543.212 422.233C543.661 422.233 544.031 422.118 544.32 421.888C544.61 421.658 544.825 421.355 544.964 420.98C545.103 420.605 545.173 420.199 545.173 419.761C545.173 419.324 545.103 418.916 544.964 418.538C544.825 418.161 544.61 417.855 544.32 417.622C544.031 417.389 543.661 417.273 543.212 417.273C542.763 417.273 542.394 417.389 542.104 417.622C541.815 417.855 541.6 418.161 541.461 418.538C541.322 418.916 541.252 419.324 541.252 419.761C541.252 420.199 541.322 420.605 541.461 420.98C541.6 421.355 541.815 421.658 542.104 421.888C542.394 422.118 542.763 422.233 543.212 422.233ZM548.651 420.614L548.634 419.369H548.838L551.702 416.455H552.946L549.895 419.54H549.81L548.651 420.614ZM547.713 423V414.273H548.719V423H547.713ZM551.873 423L549.316 419.761L550.032 419.062L553.151 423H551.873ZM557.752 414.273H559.013L561.979 421.517H562.082L565.048 414.273H566.309V423H565.32V416.369H565.235L562.508 423H561.553L558.826 416.369H558.741V423H557.752V414.273ZM571.036 423.136C570.405 423.136 569.861 422.997 569.404 422.719C568.949 422.438 568.598 422.045 568.351 421.543C568.107 421.037 567.985 420.449 567.985 419.778C567.985 419.108 568.107 418.517 568.351 418.006C568.598 417.491 568.942 417.091 569.382 416.804C569.826 416.514 570.343 416.369 570.934 416.369C571.275 416.369 571.611 416.426 571.944 416.54C572.276 416.653 572.578 416.838 572.851 417.094C573.124 417.347 573.341 417.682 573.503 418.099C573.665 418.517 573.746 419.031 573.746 419.642V420.068H568.701V419.199H572.723C572.723 418.83 572.65 418.5 572.502 418.21C572.357 417.92 572.15 417.692 571.88 417.524C571.613 417.357 571.297 417.273 570.934 417.273C570.533 417.273 570.186 417.372 569.894 417.571C569.604 417.767 569.381 418.023 569.225 418.338C569.069 418.653 568.99 418.991 568.99 419.352V419.932C568.99 420.426 569.076 420.845 569.246 421.189C569.419 421.53 569.659 421.79 569.966 421.969C570.273 422.145 570.63 422.233 571.036 422.233C571.3 422.233 571.539 422.196 571.752 422.122C571.968 422.045 572.154 421.932 572.31 421.781C572.466 421.628 572.587 421.437 572.672 421.21L573.644 421.483C573.542 421.812 573.37 422.102 573.128 422.352C572.887 422.599 572.588 422.793 572.233 422.932C571.878 423.068 571.479 423.136 571.036 423.136ZM575.276 423V416.455H576.248V417.443H576.316C576.435 417.119 576.651 416.857 576.963 416.655C577.276 416.453 577.628 416.352 578.02 416.352C578.094 416.352 578.186 416.354 578.297 416.357C578.408 416.359 578.492 416.364 578.549 416.369V417.392C578.515 417.384 578.436 417.371 578.314 417.354C578.195 417.334 578.069 417.324 577.935 417.324C577.617 417.324 577.333 417.391 577.083 417.524C576.836 417.655 576.64 417.837 576.495 418.07C576.353 418.3 576.282 418.562 576.282 418.858V423H575.276ZM581.667 423.153C581.252 423.153 580.876 423.075 580.538 422.919C580.2 422.76 579.931 422.531 579.732 422.233C579.533 421.932 579.434 421.568 579.434 421.142C579.434 420.767 579.508 420.463 579.656 420.23C579.803 419.994 580.001 419.81 580.248 419.676C580.495 419.543 580.768 419.443 581.066 419.378C581.367 419.31 581.67 419.256 581.974 419.216C582.371 419.165 582.694 419.126 582.941 419.101C583.191 419.072 583.373 419.026 583.487 418.96C583.603 418.895 583.661 418.781 583.661 418.619V418.585C583.661 418.165 583.546 417.838 583.316 417.605C583.089 417.372 582.744 417.256 582.281 417.256C581.8 417.256 581.424 417.361 581.151 417.571C580.879 417.781 580.687 418.006 580.576 418.244L579.621 417.903C579.792 417.506 580.019 417.196 580.303 416.974C580.59 416.75 580.903 416.594 581.241 416.506C581.582 416.415 581.917 416.369 582.246 416.369C582.457 416.369 582.698 416.395 582.971 416.446C583.246 416.494 583.512 416.595 583.768 416.749C584.026 416.902 584.241 417.134 584.411 417.443C584.582 417.753 584.667 418.168 584.667 418.688V423H583.661V422.114H583.61C583.542 422.256 583.428 422.408 583.269 422.57C583.11 422.732 582.898 422.869 582.634 422.983C582.37 423.097 582.048 423.153 581.667 423.153ZM581.82 422.25C582.218 422.25 582.553 422.172 582.826 422.016C583.102 421.859 583.309 421.658 583.448 421.411C583.59 421.163 583.661 420.903 583.661 420.631V419.71C583.619 419.761 583.525 419.808 583.38 419.851C583.238 419.891 583.073 419.926 582.886 419.957C582.701 419.986 582.521 420.011 582.344 420.034C582.171 420.054 582.031 420.071 581.923 420.085C581.661 420.119 581.417 420.175 581.19 420.251C580.965 420.325 580.783 420.437 580.644 420.588C580.508 420.736 580.44 420.937 580.44 421.193C580.44 421.543 580.569 421.807 580.827 421.986C581.089 422.162 581.42 422.25 581.82 422.25ZM587.985 423L585.991 416.455H587.048L588.463 421.466H588.531L589.929 416.455H591.002L592.383 421.449H592.451L593.866 416.455H594.923L592.929 423H591.94L590.508 417.972H590.406L588.974 423H587.985ZM598.179 423.153C597.764 423.153 597.387 423.075 597.049 422.919C596.711 422.76 596.443 422.531 596.244 422.233C596.045 421.932 595.946 421.568 595.946 421.142C595.946 420.767 596.02 420.463 596.167 420.23C596.315 419.994 596.512 419.81 596.76 419.676C597.007 419.543 597.279 419.443 597.578 419.378C597.879 419.31 598.181 419.256 598.485 419.216C598.883 419.165 599.206 419.126 599.453 419.101C599.703 419.072 599.885 419.026 599.998 418.96C600.115 418.895 600.173 418.781 600.173 418.619V418.585C600.173 418.165 600.058 417.838 599.828 417.605C599.6 417.372 599.255 417.256 598.792 417.256C598.312 417.256 597.936 417.361 597.663 417.571C597.39 417.781 597.199 418.006 597.088 418.244L596.133 417.903C596.304 417.506 596.531 417.196 596.815 416.974C597.102 416.75 597.414 416.594 597.752 416.506C598.093 416.415 598.429 416.369 598.758 416.369C598.968 416.369 599.21 416.395 599.483 416.446C599.758 416.494 600.024 416.595 600.279 416.749C600.538 416.902 600.752 417.134 600.923 417.443C601.093 417.753 601.179 418.168 601.179 418.688V423H600.173V422.114H600.122C600.054 422.256 599.94 422.408 599.781 422.57C599.622 422.732 599.41 422.869 599.146 422.983C598.882 423.097 598.559 423.153 598.179 423.153ZM598.332 422.25C598.73 422.25 599.065 422.172 599.338 422.016C599.613 421.859 599.821 421.658 599.96 421.411C600.102 421.163 600.173 420.903 600.173 420.631V419.71C600.13 419.761 600.037 419.808 599.892 419.851C599.75 419.891 599.585 419.926 599.397 419.957C599.213 419.986 599.032 420.011 598.856 420.034C598.683 420.054 598.542 420.071 598.434 420.085C598.173 420.119 597.929 420.175 597.701 420.251C597.477 420.325 597.295 420.437 597.156 420.588C597.02 420.736 596.951 420.937 596.951 421.193C596.951 421.543 597.081 421.807 597.339 421.986C597.6 422.162 597.931 422.25 598.332 422.25ZM604.02 419.062V423H603.014V416.455H603.986V417.477H604.071C604.224 417.145 604.457 416.878 604.77 416.676C605.082 416.472 605.486 416.369 605.98 416.369C606.423 416.369 606.811 416.46 607.143 416.642C607.476 416.821 607.734 417.094 607.919 417.46C608.104 417.824 608.196 418.284 608.196 418.841V423H607.19V418.909C607.19 418.395 607.057 417.994 606.79 417.707C606.523 417.418 606.156 417.273 605.69 417.273C605.369 417.273 605.082 417.342 604.83 417.482C604.58 417.621 604.382 417.824 604.237 418.091C604.092 418.358 604.02 418.682 604.02 419.062Z" fill="white"/>
<rect x="571" y="142" width="97" height="35" rx="5" fill="#2973D6"/>
<path d="M581.58 156.21V155.273H588.125V156.21H585.381V164H584.324V156.21H581.58ZM591.415 164.136C590.784 164.136 590.24 163.997 589.783 163.719C589.328 163.438 588.977 163.045 588.73 162.543C588.486 162.037 588.364 161.449 588.364 160.778C588.364 160.108 588.486 159.517 588.73 159.006C588.977 158.491 589.321 158.091 589.761 157.804C590.205 157.514 590.722 157.369 591.312 157.369C591.653 157.369 591.99 157.426 592.322 157.54C592.655 157.653 592.957 157.838 593.23 158.094C593.503 158.347 593.72 158.682 593.882 159.099C594.044 159.517 594.125 160.031 594.125 160.642V161.068H589.08V160.199H593.102C593.102 159.83 593.028 159.5 592.881 159.21C592.736 158.92 592.528 158.692 592.259 158.524C591.991 158.357 591.676 158.273 591.312 158.273C590.912 158.273 590.565 158.372 590.273 158.571C589.983 158.767 589.76 159.023 589.604 159.338C589.447 159.653 589.369 159.991 589.369 160.352V160.932C589.369 161.426 589.455 161.845 589.625 162.189C589.798 162.53 590.038 162.79 590.345 162.969C590.652 163.145 591.009 163.233 591.415 163.233C591.679 163.233 591.918 163.196 592.131 163.122C592.347 163.045 592.533 162.932 592.689 162.781C592.845 162.628 592.966 162.437 593.051 162.21L594.023 162.483C593.92 162.812 593.749 163.102 593.507 163.352C593.266 163.599 592.967 163.793 592.612 163.932C592.257 164.068 591.858 164.136 591.415 164.136ZM595.791 164V155.273H596.797V158.494H596.882C596.956 158.381 597.058 158.236 597.189 158.06C597.322 157.881 597.513 157.722 597.76 157.582C598.01 157.44 598.348 157.369 598.774 157.369C599.325 157.369 599.811 157.507 600.232 157.783C600.652 158.058 600.98 158.449 601.216 158.955C601.452 159.46 601.57 160.057 601.57 160.744C601.57 161.438 601.452 162.038 601.216 162.547C600.98 163.053 600.653 163.445 600.236 163.723C599.818 163.999 599.337 164.136 598.791 164.136C598.371 164.136 598.034 164.067 597.781 163.928C597.528 163.786 597.334 163.625 597.197 163.446C597.061 163.264 596.956 163.114 596.882 162.994H596.763V164H595.791ZM596.78 160.727C596.78 161.222 596.852 161.658 596.997 162.036C597.142 162.411 597.354 162.705 597.632 162.918C597.911 163.128 598.251 163.233 598.655 163.233C599.075 163.233 599.426 163.122 599.707 162.901C599.991 162.676 600.205 162.375 600.347 161.997C600.491 161.616 600.564 161.193 600.564 160.727C600.564 160.267 600.493 159.852 600.351 159.483C600.212 159.111 600 158.817 599.716 158.601C599.435 158.382 599.081 158.273 598.655 158.273C598.246 158.273 597.902 158.376 597.624 158.584C597.345 158.788 597.135 159.075 596.993 159.445C596.851 159.811 596.78 160.239 596.78 160.727ZM603.108 164V157.455H604.114V164H603.108ZM603.619 156.364C603.423 156.364 603.254 156.297 603.112 156.163C602.973 156.03 602.903 155.869 602.903 155.682C602.903 155.494 602.973 155.334 603.112 155.2C603.254 155.067 603.423 155 603.619 155C603.815 155 603.983 155.067 604.122 155.2C604.264 155.334 604.335 155.494 604.335 155.682C604.335 155.869 604.264 156.03 604.122 156.163C603.983 156.297 603.815 156.364 603.619 156.364ZM606.961 160.062V164H605.956V157.455H606.927V158.477H607.012C607.166 158.145 607.399 157.878 607.711 157.676C608.024 157.472 608.427 157.369 608.922 157.369C609.365 157.369 609.752 157.46 610.085 157.642C610.417 157.821 610.676 158.094 610.86 158.46C611.045 158.824 611.137 159.284 611.137 159.841V164H610.132V159.909C610.132 159.395 609.998 158.994 609.731 158.707C609.464 158.418 609.098 158.273 608.632 158.273C608.311 158.273 608.024 158.342 607.771 158.482C607.521 158.621 607.324 158.824 607.179 159.091C607.034 159.358 606.961 159.682 606.961 160.062ZM615.617 166.591C615.131 166.591 614.714 166.528 614.364 166.403C614.015 166.281 613.724 166.119 613.491 165.918C613.261 165.719 613.077 165.506 612.941 165.278L613.742 164.716C613.833 164.835 613.948 164.972 614.087 165.125C614.227 165.281 614.417 165.416 614.658 165.53C614.903 165.646 615.222 165.705 615.617 165.705C616.146 165.705 616.582 165.577 616.925 165.321C617.269 165.065 617.441 164.665 617.441 164.119V162.79H617.356C617.282 162.909 617.177 163.057 617.04 163.233C616.907 163.406 616.714 163.561 616.461 163.697C616.211 163.831 615.873 163.898 615.447 163.898C614.918 163.898 614.444 163.773 614.023 163.523C613.606 163.273 613.275 162.909 613.031 162.432C612.789 161.955 612.668 161.375 612.668 160.693C612.668 160.023 612.786 159.439 613.022 158.942C613.258 158.442 613.586 158.055 614.006 157.783C614.427 157.507 614.913 157.369 615.464 157.369C615.89 157.369 616.228 157.44 616.478 157.582C616.731 157.722 616.924 157.881 617.058 158.06C617.194 158.236 617.299 158.381 617.373 158.494H617.475V157.455H618.447V164.188C618.447 164.75 618.319 165.207 618.063 165.56C617.81 165.915 617.469 166.175 617.04 166.339C616.614 166.507 616.14 166.591 615.617 166.591ZM615.583 162.994C615.987 162.994 616.327 162.902 616.606 162.717C616.884 162.533 617.096 162.267 617.241 161.92C617.386 161.574 617.458 161.159 617.458 160.676C617.458 160.205 617.387 159.788 617.245 159.428C617.103 159.067 616.893 158.784 616.614 158.58C616.336 158.375 615.992 158.273 615.583 158.273C615.157 158.273 614.802 158.381 614.518 158.597C614.237 158.812 614.025 159.102 613.883 159.466C613.744 159.83 613.674 160.233 613.674 160.676C613.674 161.131 613.745 161.533 613.887 161.882C614.032 162.229 614.245 162.501 614.526 162.7C614.81 162.896 615.163 162.994 615.583 162.994ZM623.322 156.21V155.273H629.867V156.21H627.123V164H626.066V156.21H623.322ZM631.362 164V157.455H632.368V164H631.362ZM631.873 156.364C631.677 156.364 631.508 156.297 631.366 156.163C631.227 156.03 631.157 155.869 631.157 155.682C631.157 155.494 631.227 155.334 631.366 155.2C631.508 155.067 631.677 155 631.873 155C632.069 155 632.237 155.067 632.376 155.2C632.518 155.334 632.589 155.494 632.589 155.682C632.589 155.869 632.518 156.03 632.376 156.163C632.237 156.297 632.069 156.364 631.873 156.364ZM635.215 160.062V164H634.21V157.455H635.181V158.477H635.266C635.42 158.145 635.653 157.878 635.965 157.676C636.278 157.472 636.681 157.369 637.175 157.369C637.619 157.369 638.006 157.46 638.339 157.642C638.671 157.821 638.93 158.094 639.114 158.46C639.299 158.824 639.391 159.284 639.391 159.841V164H638.386V159.909C638.386 159.395 638.252 158.994 637.985 158.707C637.718 158.418 637.352 158.273 636.886 158.273C636.565 158.273 636.278 158.342 636.025 158.482C635.775 158.621 635.577 158.824 635.433 159.091C635.288 159.358 635.215 159.682 635.215 160.062ZM643.871 166.591C643.385 166.591 642.968 166.528 642.618 166.403C642.269 166.281 641.978 166.119 641.745 165.918C641.515 165.719 641.331 165.506 641.195 165.278L641.996 164.716C642.087 164.835 642.202 164.972 642.341 165.125C642.48 165.281 642.671 165.416 642.912 165.53C643.157 165.646 643.476 165.705 643.871 165.705C644.4 165.705 644.836 165.577 645.179 165.321C645.523 165.065 645.695 164.665 645.695 164.119V162.79H645.61C645.536 162.909 645.431 163.057 645.294 163.233C645.161 163.406 644.968 163.561 644.715 163.697C644.465 163.831 644.127 163.898 643.701 163.898C643.172 163.898 642.698 163.773 642.277 163.523C641.86 163.273 641.529 162.909 641.284 162.432C641.043 161.955 640.922 161.375 640.922 160.693C640.922 160.023 641.04 159.439 641.276 158.942C641.512 158.442 641.84 158.055 642.26 157.783C642.681 157.507 643.167 157.369 643.718 157.369C644.144 157.369 644.482 157.44 644.732 157.582C644.985 157.722 645.178 157.881 645.311 158.06C645.448 158.236 645.553 158.381 645.627 158.494H645.729V157.455H646.701V164.188C646.701 164.75 646.573 165.207 646.317 165.56C646.064 165.915 645.723 166.175 645.294 166.339C644.868 166.507 644.394 166.591 643.871 166.591ZM643.837 162.994C644.24 162.994 644.581 162.902 644.86 162.717C645.138 162.533 645.35 162.267 645.495 161.92C645.64 161.574 645.712 161.159 645.712 160.676C645.712 160.205 645.641 159.788 645.499 159.428C645.357 159.067 645.147 158.784 644.868 158.58C644.59 158.375 644.246 158.273 643.837 158.273C643.411 158.273 643.056 158.381 642.772 158.597C642.49 158.812 642.279 159.102 642.137 159.466C641.998 159.83 641.928 160.233 641.928 160.676C641.928 161.131 641.999 161.533 642.141 161.882C642.286 162.229 642.499 162.501 642.78 162.7C643.064 162.896 643.417 162.994 643.837 162.994ZM651.184 166.591C650.698 166.591 650.28 166.528 649.931 166.403C649.581 166.281 649.29 166.119 649.057 165.918C648.827 165.719 648.644 165.506 648.507 165.278L649.309 164.716C649.4 164.835 649.515 164.972 649.654 165.125C649.793 165.281 649.983 165.416 650.225 165.53C650.469 165.646 650.789 165.705 651.184 165.705C651.712 165.705 652.148 165.577 652.492 165.321C652.836 165.065 653.007 164.665 653.007 164.119V162.79H652.922C652.848 162.909 652.743 163.057 652.607 163.233C652.473 163.406 652.28 163.561 652.027 163.697C651.777 163.831 651.439 163.898 651.013 163.898C650.485 163.898 650.01 163.773 649.59 163.523C649.172 163.273 648.841 162.909 648.597 162.432C648.355 161.955 648.235 161.375 648.235 160.693C648.235 160.023 648.353 159.439 648.588 158.942C648.824 158.442 649.152 158.055 649.573 157.783C649.993 157.507 650.479 157.369 651.03 157.369C651.456 157.369 651.794 157.44 652.044 157.582C652.297 157.722 652.49 157.881 652.624 158.06C652.76 158.236 652.865 158.381 652.939 158.494H653.042V157.455H654.013V164.188C654.013 164.75 653.885 165.207 653.63 165.56C653.377 165.915 653.036 166.175 652.607 166.339C652.181 166.507 651.706 166.591 651.184 166.591ZM651.15 162.994C651.553 162.994 651.894 162.902 652.172 162.717C652.451 162.533 652.662 162.267 652.807 161.92C652.952 161.574 653.025 161.159 653.025 160.676C653.025 160.205 652.953 159.788 652.811 159.428C652.669 159.067 652.459 158.784 652.181 158.58C651.902 158.375 651.559 158.273 651.15 158.273C650.723 158.273 650.368 158.381 650.084 158.597C649.803 158.812 649.591 159.102 649.449 159.466C649.31 159.83 649.24 160.233 649.24 160.676C649.24 161.131 649.311 161.533 649.453 161.882C649.598 162.229 649.811 162.501 650.093 162.7C650.377 162.896 650.729 162.994 651.15 162.994ZM655.854 164V157.455H656.86V164H655.854ZM656.365 156.364C656.169 156.364 656 156.297 655.858 156.163C655.719 156.03 655.65 155.869 655.65 155.682C655.65 155.494 655.719 155.334 655.858 155.2C656 155.067 656.169 155 656.365 155C656.561 155 656.729 155.067 656.868 155.2C657.01 155.334 657.081 155.494 657.081 155.682C657.081 155.869 657.01 156.03 656.868 156.163C656.729 156.297 656.561 156.364 656.365 156.364Z" fill="white"/>
<rect x="876" y="109" width="75" height="35" rx="5" fill="#2973D6"/>
<path d="M888.114 122.273V131H887.057V122.273H888.114ZM891.102 127.062V131H890.096V124.455H891.068V125.477H891.153C891.306 125.145 891.539 124.878 891.852 124.676C892.164 124.472 892.568 124.369 893.062 124.369C893.505 124.369 893.893 124.46 894.225 124.642C894.558 124.821 894.816 125.094 895.001 125.46C895.186 125.824 895.278 126.284 895.278 126.841V131H894.272V126.909C894.272 126.395 894.139 125.994 893.872 125.707C893.605 125.418 893.238 125.273 892.772 125.273C892.451 125.273 892.164 125.342 891.912 125.482C891.662 125.621 891.464 125.824 891.319 126.091C891.174 126.358 891.102 126.682 891.102 127.062ZM899.587 131.136C899.042 131.136 898.56 130.999 898.143 130.723C897.725 130.445 897.398 130.053 897.163 129.547C896.927 129.038 896.809 128.438 896.809 127.744C896.809 127.057 896.927 126.46 897.163 125.955C897.398 125.449 897.727 125.058 898.147 124.783C898.567 124.507 899.053 124.369 899.604 124.369C900.031 124.369 900.367 124.44 900.614 124.582C900.864 124.722 901.055 124.881 901.185 125.06C901.319 125.236 901.423 125.381 901.496 125.494H901.582V122.273H902.587V131H901.616V129.994H901.496C901.423 130.114 901.317 130.264 901.181 130.446C901.045 130.625 900.85 130.786 900.597 130.928C900.344 131.067 900.008 131.136 899.587 131.136ZM899.724 130.233C900.127 130.233 900.468 130.128 900.746 129.918C901.025 129.705 901.237 129.411 901.381 129.036C901.526 128.658 901.599 128.222 901.599 127.727C901.599 127.239 901.528 126.811 901.386 126.445C901.244 126.075 901.033 125.788 900.755 125.584C900.477 125.376 900.133 125.273 899.724 125.273C899.298 125.273 898.942 125.382 898.658 125.601C898.377 125.817 898.165 126.111 898.023 126.483C897.884 126.852 897.815 127.267 897.815 127.727C897.815 128.193 897.886 128.616 898.028 128.997C898.173 129.375 898.386 129.676 898.667 129.901C898.951 130.122 899.303 130.233 899.724 130.233ZM904.569 131V124.455H905.54V125.443H905.609C905.728 125.119 905.944 124.857 906.256 124.655C906.569 124.453 906.921 124.352 907.313 124.352C907.387 124.352 907.479 124.354 907.59 124.357C907.701 124.359 907.785 124.364 907.842 124.369V125.392C907.808 125.384 907.729 125.371 907.607 125.354C907.488 125.334 907.362 125.324 907.228 125.324C906.91 125.324 906.626 125.391 906.376 125.524C906.129 125.655 905.933 125.837 905.788 126.07C905.646 126.3 905.575 126.562 905.575 126.858V131H904.569ZM910.96 131.153C910.545 131.153 910.169 131.075 909.831 130.919C909.493 130.76 909.224 130.531 909.025 130.233C908.826 129.932 908.727 129.568 908.727 129.142C908.727 128.767 908.801 128.463 908.949 128.23C909.096 127.994 909.294 127.81 909.541 127.676C909.788 127.543 910.061 127.443 910.359 127.378C910.66 127.31 910.963 127.256 911.267 127.216C911.664 127.165 911.987 127.126 912.234 127.101C912.484 127.072 912.666 127.026 912.779 126.96C912.896 126.895 912.954 126.781 912.954 126.619V126.585C912.954 126.165 912.839 125.838 912.609 125.605C912.382 125.372 912.037 125.256 911.574 125.256C911.093 125.256 910.717 125.361 910.444 125.571C910.172 125.781 909.98 126.006 909.869 126.244L908.914 125.903C909.085 125.506 909.312 125.196 909.596 124.974C909.883 124.75 910.196 124.594 910.534 124.506C910.875 124.415 911.21 124.369 911.539 124.369C911.75 124.369 911.991 124.395 912.264 124.446C912.539 124.494 912.805 124.595 913.061 124.749C913.319 124.902 913.534 125.134 913.704 125.443C913.875 125.753 913.96 126.168 913.96 126.688V131H912.954V130.114H912.903C912.835 130.256 912.721 130.408 912.562 130.57C912.403 130.732 912.191 130.869 911.927 130.983C911.663 131.097 911.341 131.153 910.96 131.153ZM911.113 130.25C911.511 130.25 911.846 130.172 912.119 130.016C912.395 129.859 912.602 129.658 912.741 129.411C912.883 129.163 912.954 128.903 912.954 128.631V127.71C912.912 127.761 912.818 127.808 912.673 127.851C912.531 127.891 912.366 127.926 912.179 127.957C911.994 127.986 911.814 128.011 911.637 128.034C911.464 128.054 911.324 128.071 911.216 128.085C910.954 128.119 910.71 128.175 910.483 128.251C910.258 128.325 910.076 128.437 909.937 128.588C909.801 128.736 909.733 128.937 909.733 129.193C909.733 129.543 909.862 129.807 910.12 129.986C910.382 130.162 910.713 130.25 911.113 130.25ZM915.795 133.455V124.455H916.767V125.494H916.886C916.96 125.381 917.063 125.236 917.193 125.06C917.327 124.881 917.517 124.722 917.764 124.582C918.014 124.44 918.352 124.369 918.778 124.369C919.33 124.369 919.815 124.507 920.236 124.783C920.656 125.058 920.984 125.449 921.22 125.955C921.456 126.46 921.574 127.057 921.574 127.744C921.574 128.438 921.456 129.038 921.22 129.547C920.984 130.053 920.658 130.445 920.24 130.723C919.822 130.999 919.341 131.136 918.795 131.136C918.375 131.136 918.038 131.067 917.786 130.928C917.533 130.786 917.338 130.625 917.202 130.446C917.065 130.264 916.96 130.114 916.886 129.994H916.801V133.455H915.795ZM916.784 127.727C916.784 128.222 916.857 128.658 917.001 129.036C917.146 129.411 917.358 129.705 917.636 129.918C917.915 130.128 918.256 130.233 918.659 130.233C919.08 130.233 919.43 130.122 919.712 129.901C919.996 129.676 920.209 129.375 920.351 128.997C920.496 128.616 920.568 128.193 920.568 127.727C920.568 127.267 920.497 126.852 920.355 126.483C920.216 126.111 920.004 125.817 919.72 125.601C919.439 125.382 919.085 125.273 918.659 125.273C918.25 125.273 917.906 125.376 917.628 125.584C917.349 125.788 917.139 126.075 916.997 126.445C916.855 126.811 916.784 127.239 916.784 127.727ZM927.233 128.324V124.455H928.239V131H927.233V129.892H927.165C927.011 130.224 926.773 130.507 926.449 130.74C926.125 130.97 925.716 131.085 925.222 131.085C924.812 131.085 924.449 130.996 924.131 130.817C923.813 130.635 923.563 130.362 923.381 129.999C923.199 129.632 923.108 129.17 923.108 128.614V124.455H924.114V128.545C924.114 129.023 924.247 129.403 924.514 129.688C924.784 129.972 925.128 130.114 925.545 130.114C925.795 130.114 926.05 130.05 926.308 129.922C926.57 129.794 926.788 129.598 926.964 129.334C927.143 129.07 927.233 128.733 927.233 128.324ZM930.081 131V124.455H931.052V125.443H931.12C931.24 125.119 931.456 124.857 931.768 124.655C932.081 124.453 932.433 124.352 932.825 124.352C932.899 124.352 932.991 124.354 933.102 124.357C933.213 124.359 933.297 124.364 933.353 124.369V125.392C933.319 125.384 933.241 125.371 933.119 125.354C933 125.334 932.873 125.324 932.74 125.324C932.422 125.324 932.137 125.391 931.887 125.524C931.64 125.655 931.444 125.837 931.299 126.07C931.157 126.3 931.086 126.562 931.086 126.858V131H930.081ZM936.472 131.153C936.057 131.153 935.68 131.075 935.342 130.919C935.004 130.76 934.736 130.531 934.537 130.233C934.338 129.932 934.239 129.568 934.239 129.142C934.239 128.767 934.313 128.463 934.46 128.23C934.608 127.994 934.805 127.81 935.053 127.676C935.3 127.543 935.572 127.443 935.871 127.378C936.172 127.31 936.474 127.256 936.778 127.216C937.176 127.165 937.499 127.126 937.746 127.101C937.996 127.072 938.178 127.026 938.291 126.96C938.408 126.895 938.466 126.781 938.466 126.619V126.585C938.466 126.165 938.351 125.838 938.121 125.605C937.893 125.372 937.548 125.256 937.085 125.256C936.605 125.256 936.229 125.361 935.956 125.571C935.683 125.781 935.491 126.006 935.381 126.244L934.426 125.903C934.597 125.506 934.824 125.196 935.108 124.974C935.395 124.75 935.707 124.594 936.045 124.506C936.386 124.415 936.722 124.369 937.051 124.369C937.261 124.369 937.503 124.395 937.776 124.446C938.051 124.494 938.317 124.595 938.572 124.749C938.831 124.902 939.045 125.134 939.216 125.443C939.386 125.753 939.472 126.168 939.472 126.688V131H938.466V130.114H938.415C938.347 130.256 938.233 130.408 938.074 130.57C937.915 130.732 937.703 130.869 937.439 130.983C937.175 131.097 936.852 131.153 936.472 131.153ZM936.625 130.25C937.023 130.25 937.358 130.172 937.631 130.016C937.906 129.859 938.114 129.658 938.253 129.411C938.395 129.163 938.466 128.903 938.466 128.631V127.71C938.423 127.761 938.33 127.808 938.185 127.851C938.043 127.891 937.878 127.926 937.69 127.957C937.506 127.986 937.325 128.011 937.149 128.034C936.976 128.054 936.835 128.071 936.727 128.085C936.466 128.119 936.222 128.175 935.994 128.251C935.77 128.325 935.588 128.437 935.449 128.588C935.313 128.736 935.244 128.937 935.244 129.193C935.244 129.543 935.374 129.807 935.632 129.986C935.893 130.162 936.224 130.25 936.625 130.25Z" fill="white"/>
<rect x="927" width="99" height="35" rx="5" fill="#2973D6"/>
<path d="M938.057 22V13.2727H939.114V17.6023H939.216L943.136 13.2727H944.517L940.852 17.2102L944.517 22H943.239L940.205 17.9432L939.114 19.1705V22H938.057ZM949.463 19.3239V15.4545H950.469V22H949.463V20.892H949.395C949.242 21.2244 949.003 21.5071 948.679 21.7401C948.355 21.9702 947.946 22.0852 947.452 22.0852C947.043 22.0852 946.679 21.9957 946.361 21.8168C946.043 21.6349 945.793 21.3622 945.611 20.9986C945.429 20.6321 945.338 20.1705 945.338 19.6136V15.4545H946.344V19.5455C946.344 20.0227 946.478 20.4034 946.745 20.6875C947.015 20.9716 947.358 21.1136 947.776 21.1136C948.026 21.1136 948.28 21.0497 948.539 20.9219C948.8 20.794 949.019 20.598 949.195 20.3338C949.374 20.0696 949.463 19.733 949.463 19.3239ZM954.237 22.1534C953.822 22.1534 953.446 22.0753 953.108 21.919C952.77 21.7599 952.501 21.5312 952.303 21.233C952.104 20.9318 952.004 20.5682 952.004 20.142C952.004 19.767 952.078 19.4631 952.226 19.2301C952.374 18.9943 952.571 18.8097 952.818 18.6761C953.065 18.5426 953.338 18.4432 953.636 18.3778C953.938 18.3097 954.24 18.2557 954.544 18.2159C954.942 18.1648 955.264 18.1264 955.511 18.1009C955.761 18.0724 955.943 18.0256 956.057 17.9602C956.173 17.8949 956.232 17.7812 956.232 17.6193V17.5852C956.232 17.1648 956.116 16.8381 955.886 16.6051C955.659 16.3722 955.314 16.2557 954.851 16.2557C954.371 16.2557 953.994 16.3608 953.722 16.571C953.449 16.7812 953.257 17.0057 953.146 17.2443L952.192 16.9034C952.362 16.5057 952.589 16.196 952.874 15.9744C953.161 15.75 953.473 15.5937 953.811 15.5057C954.152 15.4148 954.487 15.3693 954.817 15.3693C955.027 15.3693 955.268 15.3949 955.541 15.446C955.817 15.4943 956.082 15.5952 956.338 15.7486C956.597 15.902 956.811 16.1335 956.982 16.4432C957.152 16.7528 957.237 17.1676 957.237 17.6875V22H956.232V21.1136H956.18C956.112 21.2557 955.999 21.4077 955.839 21.5696C955.68 21.7315 955.469 21.8693 955.205 21.983C954.94 22.0966 954.618 22.1534 954.237 22.1534ZM954.391 21.25C954.788 21.25 955.124 21.1719 955.396 21.0156C955.672 20.8594 955.879 20.6577 956.018 20.4105C956.161 20.1634 956.232 19.9034 956.232 19.6307V18.7102C956.189 18.7614 956.095 18.8082 955.95 18.8509C955.808 18.8906 955.643 18.9261 955.456 18.9574C955.271 18.9858 955.091 19.0114 954.915 19.0341C954.741 19.054 954.601 19.071 954.493 19.0852C954.232 19.1193 953.987 19.1747 953.76 19.2514C953.536 19.3253 953.354 19.4375 953.214 19.5881C953.078 19.7358 953.01 19.9375 953.01 20.1932C953.01 20.5426 953.139 20.8068 953.398 20.9858C953.659 21.1619 953.99 21.25 954.391 21.25ZM960.078 13.2727V22H959.073V13.2727H960.078ZM963.847 22.1534C963.432 22.1534 963.055 22.0753 962.717 21.919C962.379 21.7599 962.111 21.5312 961.912 21.233C961.713 20.9318 961.614 20.5682 961.614 20.142C961.614 19.767 961.688 19.4631 961.835 19.2301C961.983 18.9943 962.18 18.8097 962.428 18.6761C962.675 18.5426 962.947 18.4432 963.246 18.3778C963.547 18.3097 963.849 18.2557 964.153 18.2159C964.551 18.1648 964.874 18.1264 965.121 18.1009C965.371 18.0724 965.553 18.0256 965.666 17.9602C965.783 17.8949 965.841 17.7812 965.841 17.6193V17.5852C965.841 17.1648 965.726 16.8381 965.496 16.6051C965.268 16.3722 964.923 16.2557 964.46 16.2557C963.98 16.2557 963.604 16.3608 963.331 16.571C963.058 16.7812 962.866 17.0057 962.756 17.2443L961.801 16.9034C961.972 16.5057 962.199 16.196 962.483 15.9744C962.77 15.75 963.082 15.5937 963.42 15.5057C963.761 15.4148 964.097 15.3693 964.426 15.3693C964.636 15.3693 964.878 15.3949 965.151 15.446C965.426 15.4943 965.692 15.5952 965.947 15.7486C966.206 15.902 966.42 16.1335 966.591 16.4432C966.761 16.7528 966.847 17.1676 966.847 17.6875V22H965.841V21.1136H965.79C965.722 21.2557 965.608 21.4077 965.449 21.5696C965.29 21.7315 965.078 21.8693 964.814 21.983C964.55 22.0966 964.227 22.1534 963.847 22.1534ZM964 21.25C964.398 21.25 964.733 21.1719 965.006 21.0156C965.281 20.8594 965.489 20.6577 965.628 20.4105C965.77 20.1634 965.841 19.9034 965.841 19.6307V18.7102C965.798 18.7614 965.705 18.8082 965.56 18.8509C965.418 18.8906 965.253 18.9261 965.065 18.9574C964.881 18.9858 964.7 19.0114 964.524 19.0341C964.351 19.054 964.21 19.071 964.102 19.0852C963.841 19.1193 963.597 19.1747 963.369 19.2514C963.145 19.3253 962.963 19.4375 962.824 19.5881C962.688 19.7358 962.619 19.9375 962.619 20.1932C962.619 20.5426 962.749 20.8068 963.007 20.9858C963.268 21.1619 963.599 21.25 964 21.25ZM971.716 14.2102V13.2727H978.262V14.2102H975.517V22H974.461V14.2102H971.716ZM980.792 22.1534C980.377 22.1534 980.001 22.0753 979.663 21.919C979.325 21.7599 979.056 21.5312 978.857 21.233C978.658 20.9318 978.559 20.5682 978.559 20.142C978.559 19.767 978.633 19.4631 978.781 19.2301C978.928 18.9943 979.126 18.8097 979.373 18.6761C979.62 18.5426 979.893 18.4432 980.191 18.3778C980.492 18.3097 980.795 18.2557 981.099 18.2159C981.496 18.1648 981.819 18.1264 982.066 18.1009C982.316 18.0724 982.498 18.0256 982.612 17.9602C982.728 17.8949 982.786 17.7812 982.786 17.6193V17.5852C982.786 17.1648 982.671 16.8381 982.441 16.6051C982.214 16.3722 981.869 16.2557 981.406 16.2557C980.925 16.2557 980.549 16.3608 980.276 16.571C980.004 16.7812 979.812 17.0057 979.701 17.2443L978.746 16.9034C978.917 16.5057 979.144 16.196 979.428 15.9744C979.715 15.75 980.028 15.5937 980.366 15.5057C980.707 15.4148 981.042 15.3693 981.371 15.3693C981.582 15.3693 981.823 15.3949 982.096 15.446C982.371 15.4943 982.637 15.5952 982.893 15.7486C983.151 15.902 983.366 16.1335 983.536 16.4432C983.707 16.7528 983.792 17.1676 983.792 17.6875V22H982.786V21.1136H982.735C982.667 21.2557 982.553 21.4077 982.394 21.5696C982.235 21.7315 982.023 21.8693 981.759 21.983C981.495 22.0966 981.173 22.1534 980.792 22.1534ZM980.945 21.25C981.343 21.25 981.678 21.1719 981.951 21.0156C982.227 20.8594 982.434 20.6577 982.573 20.4105C982.715 20.1634 982.786 19.9034 982.786 19.6307V18.7102C982.744 18.7614 982.65 18.8082 982.505 18.8509C982.363 18.8906 982.198 18.9261 982.011 18.9574C981.826 18.9858 981.646 19.0114 981.469 19.0341C981.296 19.054 981.156 19.071 981.048 19.0852C980.786 19.1193 980.542 19.1747 980.315 19.2514C980.09 19.3253 979.908 19.4375 979.769 19.5881C979.633 19.7358 979.565 19.9375 979.565 20.1932C979.565 20.5426 979.694 20.8068 979.952 20.9858C980.214 21.1619 980.545 21.25 980.945 21.25ZM986.633 18.0625V22H985.627V15.4545H986.599V16.4773H986.684C986.838 16.1449 987.071 15.8778 987.383 15.6761C987.696 15.4716 988.099 15.3693 988.593 15.3693C989.037 15.3693 989.424 15.4602 989.757 15.642C990.089 15.821 990.348 16.0938 990.532 16.4602C990.717 16.8239 990.809 17.2841 990.809 17.8409V22H989.804V17.9091C989.804 17.3949 989.67 16.9943 989.403 16.7074C989.136 16.4176 988.77 16.2727 988.304 16.2727C987.983 16.2727 987.696 16.3423 987.443 16.4815C987.193 16.6207 986.995 16.8239 986.85 17.0909C986.706 17.358 986.633 17.6818 986.633 18.0625ZM992.647 15.4545H993.653V22.4773C993.653 22.8807 993.583 23.2301 993.444 23.5256C993.308 23.821 993.1 24.0497 992.822 24.2116C992.546 24.3736 992.198 24.4545 991.778 24.4545C991.744 24.4545 991.71 24.4545 991.675 24.4545C991.641 24.4545 991.607 24.4545 991.573 24.4545V23.517C991.607 23.517 991.638 23.517 991.667 23.517C991.695 23.517 991.727 23.517 991.761 23.517C992.067 23.517 992.292 23.4261 992.434 23.2443C992.576 23.0653 992.647 22.8097 992.647 22.4773V15.4545ZM993.141 14.3636C992.945 14.3636 992.776 14.2969 992.634 14.1634C992.495 14.0298 992.425 13.8693 992.425 13.6818C992.425 13.4943 992.495 13.3338 992.634 13.2003C992.776 13.0668 992.945 13 993.141 13C993.337 13 993.505 13.0668 993.644 13.2003C993.786 13.3338 993.857 13.4943 993.857 13.6818C993.857 13.8693 993.786 14.0298 993.644 14.1634C993.505 14.2969 993.337 14.3636 993.141 14.3636ZM999.62 19.3239V15.4545H1000.63V22H999.62V20.892H999.551C999.398 21.2244 999.159 21.5071 998.836 21.7401C998.512 21.9702 998.103 22.0852 997.608 22.0852C997.199 22.0852 996.836 21.9957 996.517 21.8168C996.199 21.6349 995.949 21.3622 995.767 20.9986C995.586 20.6321 995.495 20.1705 995.495 19.6136V15.4545H996.5V19.5455C996.5 20.0227 996.634 20.4034 996.901 20.6875C997.171 20.9716 997.515 21.1136 997.932 21.1136C998.182 21.1136 998.436 21.0497 998.695 20.9219C998.956 20.794 999.175 20.598 999.351 20.3338C999.53 20.0696 999.62 19.733 999.62 19.3239ZM1003.47 18.0625V22H1002.47V15.4545H1003.44V16.4773H1003.52C1003.68 16.1449 1003.91 15.8778 1004.22 15.6761C1004.54 15.4716 1004.94 15.3693 1005.43 15.3693C1005.88 15.3693 1006.26 15.4602 1006.6 15.642C1006.93 15.821 1007.19 16.0938 1007.37 16.4602C1007.56 16.8239 1007.65 17.2841 1007.65 17.8409V22H1006.64V17.9091C1006.64 17.3949 1006.51 16.9943 1006.24 16.7074C1005.98 16.4176 1005.61 16.2727 1005.14 16.2727C1004.82 16.2727 1004.54 16.3423 1004.28 16.4815C1004.03 16.6207 1003.84 16.8239 1003.69 17.0909C1003.55 17.358 1003.47 17.6818 1003.47 18.0625ZM1012.13 24.5909C1011.64 24.5909 1011.23 24.5284 1010.88 24.4034C1010.53 24.2812 1010.24 24.1193 1010 23.9176C1009.77 23.7188 1009.59 23.5057 1009.45 23.2784L1010.25 22.7159C1010.34 22.8352 1010.46 22.9716 1010.6 23.125C1010.74 23.2812 1010.93 23.4162 1011.17 23.5298C1011.41 23.6463 1011.73 23.7045 1012.13 23.7045C1012.66 23.7045 1013.09 23.5767 1013.44 23.321C1013.78 23.0653 1013.95 22.6648 1013.95 22.1193V20.7898H1013.87C1013.79 20.9091 1013.69 21.0568 1013.55 21.233C1013.42 21.4062 1013.23 21.5611 1012.97 21.6974C1012.72 21.831 1012.38 21.8977 1011.96 21.8977C1011.43 21.8977 1010.96 21.7727 1010.54 21.5227C1010.12 21.2727 1009.79 20.9091 1009.54 20.4318C1009.3 19.9545 1009.18 19.375 1009.18 18.6932C1009.18 18.0227 1009.3 17.4389 1009.53 16.9418C1009.77 16.4418 1010.1 16.0554 1010.52 15.7827C1010.94 15.5071 1011.42 15.3693 1011.98 15.3693C1012.4 15.3693 1012.74 15.4403 1012.99 15.5824C1013.24 15.7216 1013.44 15.8807 1013.57 16.0597C1013.71 16.2358 1013.81 16.3807 1013.88 16.4943H1013.99V15.4545H1014.96V22.1875C1014.96 22.75 1014.83 23.2074 1014.57 23.5597C1014.32 23.9148 1013.98 24.1747 1013.55 24.3395C1013.13 24.5071 1012.65 24.5909 1012.13 24.5909ZM1012.09 20.9943C1012.5 20.9943 1012.84 20.902 1013.12 20.7173C1013.4 20.5327 1013.61 20.267 1013.75 19.9205C1013.9 19.5739 1013.97 19.1591 1013.97 18.6761C1013.97 18.2045 1013.9 17.7884 1013.76 17.4276C1013.61 17.0668 1013.4 16.7841 1013.13 16.5795C1012.85 16.375 1012.5 16.2727 1012.09 16.2727C1011.67 16.2727 1011.31 16.3807 1011.03 16.5966C1010.75 16.8125 1010.54 17.1023 1010.39 17.4659C1010.26 17.8295 1010.19 18.233 1010.19 18.6761C1010.19 19.1307 1010.26 19.5327 1010.4 19.8821C1010.54 20.2287 1010.76 20.5014 1011.04 20.7003C1011.32 20.8963 1011.67 20.9943 1012.09 20.9943Z" fill="white"/>
<rect x="511" y="596" width="71" height="35" rx="5" fill="#2973D6"/>
<path d="M526.83 611.455C526.778 611.023 526.571 610.688 526.207 610.449C525.844 610.21 525.398 610.091 524.869 610.091C524.483 610.091 524.145 610.153 523.855 610.278C523.568 610.403 523.344 610.575 523.182 610.794C523.023 611.013 522.943 611.261 522.943 611.54C522.943 611.773 522.999 611.973 523.109 612.141C523.223 612.305 523.368 612.443 523.544 612.554C523.72 612.662 523.905 612.751 524.098 612.822C524.291 612.891 524.469 612.946 524.631 612.989L525.517 613.227C525.744 613.287 525.997 613.369 526.276 613.474C526.557 613.58 526.825 613.723 527.081 613.905C527.339 614.084 527.553 614.314 527.72 614.595C527.888 614.876 527.972 615.222 527.972 615.631C527.972 616.102 527.848 616.528 527.601 616.909C527.357 617.29 526.999 617.592 526.527 617.817C526.058 618.041 525.489 618.153 524.818 618.153C524.193 618.153 523.652 618.053 523.195 617.851C522.74 617.649 522.382 617.368 522.121 617.007C521.862 616.646 521.716 616.227 521.682 615.75H522.773C522.801 616.08 522.912 616.352 523.105 616.568C523.301 616.781 523.548 616.94 523.847 617.045C524.148 617.148 524.472 617.199 524.818 617.199C525.222 617.199 525.584 617.134 525.905 617.003C526.226 616.869 526.48 616.685 526.668 616.449C526.855 616.21 526.949 615.932 526.949 615.614C526.949 615.324 526.868 615.088 526.706 614.906C526.544 614.724 526.331 614.577 526.067 614.463C525.803 614.349 525.517 614.25 525.21 614.165L524.136 613.858C523.455 613.662 522.915 613.382 522.517 613.018C522.119 612.655 521.92 612.179 521.92 611.591C521.92 611.102 522.053 610.676 522.317 610.312C522.584 609.946 522.942 609.662 523.391 609.46C523.842 609.256 524.347 609.153 524.903 609.153C525.466 609.153 525.966 609.254 526.403 609.456C526.841 609.655 527.188 609.928 527.443 610.274C527.702 610.621 527.838 611.014 527.852 611.455H526.83ZM529.573 618V611.455H530.578V618H529.573ZM530.084 610.364C529.888 610.364 529.719 610.297 529.577 610.163C529.438 610.03 529.368 609.869 529.368 609.682C529.368 609.494 529.438 609.334 529.577 609.2C529.719 609.067 529.888 609 530.084 609C530.28 609 530.448 609.067 530.587 609.2C530.729 609.334 530.8 609.494 530.8 609.682C530.8 609.869 530.729 610.03 530.587 610.163C530.448 610.297 530.28 610.364 530.084 610.364ZM533.426 614.062V618H532.42V611.455H533.392V612.477H533.477C533.631 612.145 533.864 611.878 534.176 611.676C534.489 611.472 534.892 611.369 535.386 611.369C535.83 611.369 536.217 611.46 536.55 611.642C536.882 611.821 537.141 612.094 537.325 612.46C537.51 612.824 537.602 613.284 537.602 613.841V618H536.597V613.909C536.597 613.395 536.463 612.994 536.196 612.707C535.929 612.418 535.563 612.273 535.097 612.273C534.776 612.273 534.489 612.342 534.236 612.482C533.986 612.621 533.788 612.824 533.643 613.091C533.499 613.358 533.426 613.682 533.426 614.062ZM541.366 618.153C540.951 618.153 540.575 618.075 540.237 617.919C539.899 617.76 539.63 617.531 539.431 617.233C539.233 616.932 539.133 616.568 539.133 616.142C539.133 615.767 539.207 615.463 539.355 615.23C539.502 614.994 539.7 614.81 539.947 614.676C540.194 614.543 540.467 614.443 540.765 614.378C541.066 614.31 541.369 614.256 541.673 614.216C542.071 614.165 542.393 614.126 542.64 614.101C542.89 614.072 543.072 614.026 543.186 613.96C543.302 613.895 543.36 613.781 543.36 613.619V613.585C543.36 613.165 543.245 612.838 543.015 612.605C542.788 612.372 542.443 612.256 541.98 612.256C541.5 612.256 541.123 612.361 540.85 612.571C540.578 612.781 540.386 613.006 540.275 613.244L539.321 612.903C539.491 612.506 539.718 612.196 540.002 611.974C540.289 611.75 540.602 611.594 540.94 611.506C541.281 611.415 541.616 611.369 541.946 611.369C542.156 611.369 542.397 611.395 542.67 611.446C542.946 611.494 543.211 611.595 543.467 611.749C543.725 611.902 543.94 612.134 544.11 612.443C544.281 612.753 544.366 613.168 544.366 613.688V618H543.36V617.114H543.309C543.241 617.256 543.127 617.408 542.968 617.57C542.809 617.732 542.598 617.869 542.333 617.983C542.069 618.097 541.747 618.153 541.366 618.153ZM541.52 617.25C541.917 617.25 542.252 617.172 542.525 617.016C542.801 616.859 543.008 616.658 543.147 616.411C543.289 616.163 543.36 615.903 543.36 615.631V614.71C543.318 614.761 543.224 614.808 543.079 614.851C542.937 614.891 542.772 614.926 542.585 614.957C542.4 614.986 542.22 615.011 542.044 615.034C541.87 615.054 541.73 615.071 541.622 615.085C541.36 615.119 541.116 615.175 540.889 615.251C540.664 615.325 540.483 615.437 540.343 615.588C540.207 615.736 540.139 615.937 540.139 616.193C540.139 616.543 540.268 616.807 540.527 616.986C540.788 617.162 541.119 617.25 541.52 617.25ZM547.139 615.614L547.122 614.369H547.327L550.19 611.455H551.435L548.384 614.54H548.298L547.139 615.614ZM546.202 618V609.273H547.207V618H546.202ZM550.361 618L547.804 614.761L548.52 614.062L551.639 618H550.361ZM557.365 612.92L556.462 613.176C556.405 613.026 556.321 612.879 556.211 612.737C556.103 612.592 555.955 612.473 555.767 612.379C555.58 612.286 555.34 612.239 555.047 612.239C554.647 612.239 554.313 612.331 554.046 612.516C553.782 612.697 553.65 612.929 553.65 613.21C553.65 613.46 553.74 613.658 553.922 613.803C554.104 613.947 554.388 614.068 554.775 614.165L555.746 614.403C556.331 614.545 556.767 614.763 557.054 615.055C557.341 615.345 557.485 615.719 557.485 616.176C557.485 616.551 557.377 616.886 557.161 617.182C556.948 617.477 556.65 617.71 556.266 617.881C555.882 618.051 555.436 618.136 554.928 618.136C554.26 618.136 553.708 617.991 553.27 617.702C552.833 617.412 552.556 616.989 552.439 616.432L553.394 616.193C553.485 616.545 553.657 616.81 553.909 616.986C554.165 617.162 554.499 617.25 554.911 617.25C555.38 617.25 555.752 617.151 556.027 616.952C556.306 616.75 556.445 616.509 556.445 616.227C556.445 616 556.365 615.81 556.206 615.656C556.047 615.5 555.803 615.384 555.473 615.307L554.382 615.051C553.783 614.909 553.343 614.689 553.061 614.391C552.783 614.089 552.644 613.713 552.644 613.261C552.644 612.892 552.748 612.565 552.955 612.281C553.165 611.997 553.451 611.774 553.811 611.612C554.175 611.45 554.587 611.369 555.047 611.369C555.695 611.369 556.203 611.511 556.573 611.795C556.945 612.08 557.209 612.455 557.365 612.92ZM560.925 618.153C560.51 618.153 560.134 618.075 559.795 617.919C559.457 617.76 559.189 617.531 558.99 617.233C558.791 616.932 558.692 616.568 558.692 616.142C558.692 615.767 558.766 615.463 558.913 615.23C559.061 614.994 559.259 614.81 559.506 614.676C559.753 614.543 560.026 614.443 560.324 614.378C560.625 614.31 560.928 614.256 561.232 614.216C561.629 614.165 561.952 614.126 562.199 614.101C562.449 614.072 562.631 614.026 562.744 613.96C562.861 613.895 562.919 613.781 562.919 613.619V613.585C562.919 613.165 562.804 612.838 562.574 612.605C562.347 612.372 562.001 612.256 561.538 612.256C561.058 612.256 560.682 612.361 560.409 612.571C560.136 612.781 559.945 613.006 559.834 613.244L558.879 612.903C559.05 612.506 559.277 612.196 559.561 611.974C559.848 611.75 560.161 611.594 560.499 611.506C560.839 611.415 561.175 611.369 561.504 611.369C561.714 611.369 561.956 611.395 562.229 611.446C562.504 611.494 562.77 611.595 563.026 611.749C563.284 611.902 563.499 612.134 563.669 612.443C563.839 612.753 563.925 613.168 563.925 613.688V618H562.919V617.114H562.868C562.8 617.256 562.686 617.408 562.527 617.57C562.368 617.732 562.156 617.869 561.892 617.983C561.628 618.097 561.305 618.153 560.925 618.153ZM561.078 617.25C561.476 617.25 561.811 617.172 562.084 617.016C562.359 616.859 562.567 616.658 562.706 616.411C562.848 616.163 562.919 615.903 562.919 615.631V614.71C562.876 614.761 562.783 614.808 562.638 614.851C562.496 614.891 562.331 614.926 562.143 614.957C561.959 614.986 561.778 615.011 561.602 615.034C561.429 615.054 561.288 615.071 561.18 615.085C560.919 615.119 560.675 615.175 560.447 615.251C560.223 615.325 560.041 615.437 559.902 615.588C559.766 615.736 559.697 615.937 559.697 616.193C559.697 616.543 559.827 616.807 560.085 616.986C560.347 617.162 560.678 617.25 561.078 617.25ZM566.698 615.614L566.681 614.369H566.885L569.749 611.455H570.993L567.942 614.54H567.857L566.698 615.614ZM565.76 618V609.273H566.766V618H565.76ZM569.919 618L567.363 614.761L568.078 614.062L571.198 618H569.919Z" fill="white"/>
<rect x="509" y="779" width="104" height="35" rx="5" fill="#2973D6"/>
<path d="M524.83 794.455C524.778 794.023 524.571 793.688 524.207 793.449C523.844 793.21 523.398 793.091 522.869 793.091C522.483 793.091 522.145 793.153 521.855 793.278C521.568 793.403 521.344 793.575 521.182 793.794C521.023 794.013 520.943 794.261 520.943 794.54C520.943 794.773 520.999 794.973 521.109 795.141C521.223 795.305 521.368 795.443 521.544 795.554C521.72 795.662 521.905 795.751 522.098 795.822C522.291 795.891 522.469 795.946 522.631 795.989L523.517 796.227C523.744 796.287 523.997 796.369 524.276 796.474C524.557 796.58 524.825 796.723 525.081 796.905C525.339 797.084 525.553 797.314 525.72 797.595C525.888 797.876 525.972 798.222 525.972 798.631C525.972 799.102 525.848 799.528 525.601 799.909C525.357 800.29 524.999 800.592 524.527 800.817C524.058 801.041 523.489 801.153 522.818 801.153C522.193 801.153 521.652 801.053 521.195 800.851C520.74 800.649 520.382 800.368 520.121 800.007C519.862 799.646 519.716 799.227 519.682 798.75H520.773C520.801 799.08 520.912 799.352 521.105 799.568C521.301 799.781 521.548 799.94 521.847 800.045C522.148 800.148 522.472 800.199 522.818 800.199C523.222 800.199 523.584 800.134 523.905 800.003C524.226 799.869 524.48 799.685 524.668 799.449C524.855 799.21 524.949 798.932 524.949 798.614C524.949 798.324 524.868 798.088 524.706 797.906C524.544 797.724 524.331 797.577 524.067 797.463C523.803 797.349 523.517 797.25 523.21 797.165L522.136 796.858C521.455 796.662 520.915 796.382 520.517 796.018C520.119 795.655 519.92 795.179 519.92 794.591C519.92 794.102 520.053 793.676 520.317 793.312C520.584 792.946 520.942 792.662 521.391 792.46C521.842 792.256 522.347 792.153 522.903 792.153C523.466 792.153 523.966 792.254 524.403 792.456C524.841 792.655 525.188 792.928 525.443 793.274C525.702 793.621 525.838 794.014 525.852 794.455H524.83ZM527.573 801V794.455H528.578V801H527.573ZM528.084 793.364C527.888 793.364 527.719 793.297 527.577 793.163C527.438 793.03 527.368 792.869 527.368 792.682C527.368 792.494 527.438 792.334 527.577 792.2C527.719 792.067 527.888 792 528.084 792C528.28 792 528.448 792.067 528.587 792.2C528.729 792.334 528.8 792.494 528.8 792.682C528.8 792.869 528.729 793.03 528.587 793.163C528.448 793.297 528.28 793.364 528.084 793.364ZM530.42 801V794.455H531.392V795.477H531.477C531.614 795.128 531.834 794.857 532.138 794.663C532.442 794.467 532.807 794.369 533.233 794.369C533.665 794.369 534.024 794.467 534.311 794.663C534.601 794.857 534.827 795.128 534.989 795.477H535.057C535.224 795.139 535.476 794.871 535.811 794.672C536.146 794.47 536.548 794.369 537.017 794.369C537.602 794.369 538.081 794.553 538.453 794.919C538.825 795.283 539.011 795.849 539.011 796.619V801H538.006V796.619C538.006 796.136 537.874 795.791 537.609 795.584C537.345 795.376 537.034 795.273 536.676 795.273C536.216 795.273 535.859 795.412 535.607 795.69C535.354 795.966 535.227 796.315 535.227 796.739V801H534.205V796.517C534.205 796.145 534.084 795.845 533.842 795.618C533.601 795.388 533.29 795.273 532.909 795.273C532.648 795.273 532.403 795.342 532.176 795.482C531.952 795.621 531.77 795.814 531.631 796.061C531.494 796.305 531.426 796.588 531.426 796.909V801H530.42ZM540.85 803.455V794.455H541.822V795.494H541.941C542.015 795.381 542.117 795.236 542.248 795.06C542.381 794.881 542.572 794.722 542.819 794.582C543.069 794.44 543.407 794.369 543.833 794.369C544.384 794.369 544.87 794.507 545.29 794.783C545.711 795.058 546.039 795.449 546.275 795.955C546.511 796.46 546.629 797.057 546.629 797.744C546.629 798.438 546.511 799.038 546.275 799.547C546.039 800.053 545.712 800.445 545.295 800.723C544.877 800.999 544.396 801.136 543.85 801.136C543.43 801.136 543.093 801.067 542.84 800.928C542.587 800.786 542.393 800.625 542.256 800.446C542.12 800.264 542.015 800.114 541.941 799.994H541.856V803.455H540.85ZM541.839 797.727C541.839 798.222 541.911 798.658 542.056 799.036C542.201 799.411 542.413 799.705 542.691 799.918C542.969 800.128 543.31 800.233 543.714 800.233C544.134 800.233 544.485 800.122 544.766 799.901C545.05 799.676 545.263 799.375 545.406 798.997C545.55 798.616 545.623 798.193 545.623 797.727C545.623 797.267 545.552 796.852 545.41 796.483C545.271 796.111 545.059 795.817 544.775 795.601C544.494 795.382 544.14 795.273 543.714 795.273C543.305 795.273 542.961 795.376 542.683 795.584C542.404 795.788 542.194 796.075 542.052 796.445C541.91 796.811 541.839 797.239 541.839 797.727ZM550.089 801.153C549.674 801.153 549.298 801.075 548.96 800.919C548.621 800.76 548.353 800.531 548.154 800.233C547.955 799.932 547.856 799.568 547.856 799.142C547.856 798.767 547.93 798.463 548.077 798.23C548.225 797.994 548.423 797.81 548.67 797.676C548.917 797.543 549.19 797.443 549.488 797.378C549.789 797.31 550.092 797.256 550.396 797.216C550.793 797.165 551.116 797.126 551.363 797.101C551.613 797.072 551.795 797.026 551.908 796.96C552.025 796.895 552.083 796.781 552.083 796.619V796.585C552.083 796.165 551.968 795.838 551.738 795.605C551.511 795.372 551.165 795.256 550.702 795.256C550.222 795.256 549.846 795.361 549.573 795.571C549.3 795.781 549.109 796.006 548.998 796.244L548.043 795.903C548.214 795.506 548.441 795.196 548.725 794.974C549.012 794.75 549.325 794.594 549.663 794.506C550.004 794.415 550.339 794.369 550.668 794.369C550.879 794.369 551.12 794.395 551.393 794.446C551.668 794.494 551.934 794.595 552.19 794.749C552.448 794.902 552.663 795.134 552.833 795.443C553.004 795.753 553.089 796.168 553.089 796.688V801H552.083V800.114H552.032C551.964 800.256 551.85 800.408 551.691 800.57C551.532 800.732 551.32 800.869 551.056 800.983C550.792 801.097 550.469 801.153 550.089 801.153ZM550.242 800.25C550.64 800.25 550.975 800.172 551.248 800.016C551.523 799.859 551.731 799.658 551.87 799.411C552.012 799.163 552.083 798.903 552.083 798.631V797.71C552.04 797.761 551.947 797.808 551.802 797.851C551.66 797.891 551.495 797.926 551.308 797.957C551.123 797.986 550.942 798.011 550.766 798.034C550.593 798.054 550.452 798.071 550.344 798.085C550.083 798.119 549.839 798.175 549.612 798.251C549.387 798.325 549.205 798.437 549.066 798.588C548.93 798.736 548.862 798.937 548.862 799.193C548.862 799.543 548.991 799.807 549.249 799.986C549.511 800.162 549.842 800.25 550.242 800.25ZM555.93 797.062V801H554.924V794.455H555.896V795.477H555.981C556.135 795.145 556.368 794.878 556.68 794.676C556.993 794.472 557.396 794.369 557.89 794.369C558.333 794.369 558.721 794.46 559.054 794.642C559.386 794.821 559.645 795.094 559.829 795.46C560.014 795.824 560.106 796.284 560.106 796.841V801H559.1V796.909C559.1 796.395 558.967 795.994 558.7 795.707C558.433 795.418 558.066 795.273 557.6 795.273C557.279 795.273 556.993 795.342 556.74 795.482C556.49 795.621 556.292 795.824 556.147 796.091C556.002 796.358 555.93 796.682 555.93 797.062ZM564.586 803.591C564.1 803.591 563.683 803.528 563.333 803.403C562.984 803.281 562.692 803.119 562.46 802.918C562.229 802.719 562.046 802.506 561.91 802.278L562.711 801.716C562.802 801.835 562.917 801.972 563.056 802.125C563.195 802.281 563.386 802.416 563.627 802.53C563.871 802.646 564.191 802.705 564.586 802.705C565.114 802.705 565.55 802.577 565.894 802.321C566.238 802.065 566.41 801.665 566.41 801.119V799.79H566.325C566.251 799.909 566.146 800.057 566.009 800.233C565.876 800.406 565.683 800.561 565.43 800.697C565.18 800.831 564.842 800.898 564.415 800.898C563.887 800.898 563.413 800.773 562.992 800.523C562.575 800.273 562.244 799.909 561.999 799.432C561.758 798.955 561.637 798.375 561.637 797.693C561.637 797.023 561.755 796.439 561.991 795.942C562.227 795.442 562.555 795.055 562.975 794.783C563.396 794.507 563.881 794.369 564.433 794.369C564.859 794.369 565.197 794.44 565.447 794.582C565.7 794.722 565.893 794.881 566.026 795.06C566.163 795.236 566.268 795.381 566.342 795.494H566.444V794.455H567.415V801.188C567.415 801.75 567.288 802.207 567.032 802.56C566.779 802.915 566.438 803.175 566.009 803.339C565.583 803.507 565.109 803.591 564.586 803.591ZM564.552 799.994C564.955 799.994 565.296 799.902 565.575 799.717C565.853 799.533 566.065 799.267 566.21 798.92C566.354 798.574 566.427 798.159 566.427 797.676C566.427 797.205 566.356 796.788 566.214 796.428C566.072 796.067 565.862 795.784 565.583 795.58C565.305 795.375 564.961 795.273 564.552 795.273C564.126 795.273 563.771 795.381 563.487 795.597C563.205 795.812 562.994 796.102 562.852 796.466C562.712 796.83 562.643 797.233 562.643 797.676C562.643 798.131 562.714 798.533 562.856 798.882C563.001 799.229 563.214 799.501 563.495 799.7C563.779 799.896 564.131 799.994 564.552 799.994ZM572.768 801V792.273H575.717C576.401 792.273 576.961 792.396 577.396 792.643C577.833 792.888 578.157 793.219 578.367 793.636C578.577 794.054 578.683 794.52 578.683 795.034C578.683 795.548 578.577 796.016 578.367 796.436C578.16 796.857 577.839 797.192 577.404 797.442C576.969 797.689 576.413 797.812 575.734 797.812H573.62V796.875H575.7C576.168 796.875 576.545 796.794 576.829 796.632C577.113 796.47 577.319 796.251 577.447 795.976C577.577 795.697 577.643 795.384 577.643 795.034C577.643 794.685 577.577 794.372 577.447 794.097C577.319 793.821 577.112 793.605 576.825 793.449C576.538 793.29 576.157 793.21 575.683 793.21H573.825V801H572.768ZM582.175 801.153C581.76 801.153 581.384 801.075 581.045 800.919C580.707 800.76 580.439 800.531 580.24 800.233C580.041 799.932 579.942 799.568 579.942 799.142C579.942 798.767 580.016 798.463 580.163 798.23C580.311 797.994 580.509 797.81 580.756 797.676C581.003 797.543 581.276 797.443 581.574 797.378C581.875 797.31 582.178 797.256 582.482 797.216C582.879 797.165 583.202 797.126 583.449 797.101C583.699 797.072 583.881 797.026 583.994 796.96C584.111 796.895 584.169 796.781 584.169 796.619V796.585C584.169 796.165 584.054 795.838 583.824 795.605C583.597 795.372 583.251 795.256 582.788 795.256C582.308 795.256 581.932 795.361 581.659 795.571C581.386 795.781 581.195 796.006 581.084 796.244L580.129 795.903C580.3 795.506 580.527 795.196 580.811 794.974C581.098 794.75 581.411 794.594 581.749 794.506C582.089 794.415 582.425 794.369 582.754 794.369C582.964 794.369 583.206 794.395 583.479 794.446C583.754 794.494 584.02 794.595 584.276 794.749C584.534 794.902 584.749 795.134 584.919 795.443C585.089 795.753 585.175 796.168 585.175 796.688V801H584.169V800.114H584.118C584.05 800.256 583.936 800.408 583.777 800.57C583.618 800.732 583.406 800.869 583.142 800.983C582.878 801.097 582.555 801.153 582.175 801.153ZM582.328 800.25C582.726 800.25 583.061 800.172 583.334 800.016C583.609 799.859 583.817 799.658 583.956 799.411C584.098 799.163 584.169 798.903 584.169 798.631V797.71C584.126 797.761 584.033 797.808 583.888 797.851C583.746 797.891 583.581 797.926 583.393 797.957C583.209 797.986 583.028 798.011 582.852 798.034C582.679 798.054 582.538 798.071 582.43 798.085C582.169 798.119 581.925 798.175 581.697 798.251C581.473 798.325 581.291 798.437 581.152 798.588C581.016 798.736 580.947 798.937 580.947 799.193C580.947 799.543 581.077 799.807 581.335 799.986C581.597 800.162 581.928 800.25 582.328 800.25ZM588.016 797.062V801H587.01V794.455H587.982V795.477H588.067C588.221 795.145 588.453 794.878 588.766 794.676C589.078 794.472 589.482 794.369 589.976 794.369C590.419 794.369 590.807 794.46 591.14 794.642C591.472 794.821 591.73 795.094 591.915 795.46C592.1 795.824 592.192 796.284 592.192 796.841V801H591.186V796.909C591.186 796.395 591.053 795.994 590.786 795.707C590.519 795.418 590.152 795.273 589.686 795.273C589.365 795.273 589.078 795.342 588.826 795.482C588.576 795.621 588.378 795.824 588.233 796.091C588.088 796.358 588.016 796.682 588.016 797.062ZM596.774 801.136C596.143 801.136 595.599 800.997 595.142 800.719C594.688 800.438 594.337 800.045 594.089 799.543C593.845 799.037 593.723 798.449 593.723 797.778C593.723 797.108 593.845 796.517 594.089 796.006C594.337 795.491 594.68 795.091 595.121 794.804C595.564 794.514 596.081 794.369 596.672 794.369C597.013 794.369 597.349 794.426 597.682 794.54C598.014 794.653 598.317 794.838 598.589 795.094C598.862 795.347 599.08 795.682 599.241 796.099C599.403 796.517 599.484 797.031 599.484 797.642V798.068H594.439V797.199H598.462C598.462 796.83 598.388 796.5 598.24 796.21C598.095 795.92 597.888 795.692 597.618 795.524C597.351 795.357 597.036 795.273 596.672 795.273C596.271 795.273 595.925 795.372 595.632 795.571C595.342 795.767 595.119 796.023 594.963 796.338C594.807 796.653 594.729 796.991 594.729 797.352V797.932C594.729 798.426 594.814 798.845 594.984 799.189C595.158 799.53 595.398 799.79 595.705 799.969C596.011 800.145 596.368 800.233 596.774 800.233C597.038 800.233 597.277 800.196 597.49 800.122C597.706 800.045 597.892 799.932 598.048 799.781C598.205 799.628 598.325 799.437 598.411 799.21L599.382 799.483C599.28 799.812 599.108 800.102 598.866 800.352C598.625 800.599 598.327 800.793 597.972 800.932C597.616 801.068 597.217 801.136 596.774 801.136ZM601.014 801V794.455H602.02V801H601.014ZM601.526 793.364C601.33 793.364 601.161 793.297 601.018 793.163C600.879 793.03 600.81 792.869 600.81 792.682C600.81 792.494 600.879 792.334 601.018 792.2C601.161 792.067 601.33 792 601.526 792C601.722 792 601.889 792.067 602.028 792.2C602.17 792.334 602.241 792.494 602.241 792.682C602.241 792.869 602.17 793.03 602.028 793.163C601.889 793.297 601.722 793.364 601.526 793.364Z" fill="white"/>
<rect x="1211" y="233" width="51" height="35" rx="5" fill="#2973D6"/>
<path d="M1223.11 246.273V255H1222.06V246.273H1223.11ZM1232.15 246.273V255H1231.13L1226.37 248.148H1226.29V255H1225.23V246.273H1226.26L1231.03 253.142H1231.11V246.273H1232.15ZM1234.27 255V246.273H1235.32V250.602H1235.43L1239.35 246.273H1240.73L1237.06 250.21L1240.73 255H1239.45L1236.42 250.943L1235.32 252.17V255H1234.27ZM1243.15 246.273V255H1242.1V246.273H1243.15ZM1250.04 248.455C1249.99 248.023 1249.79 247.688 1249.42 247.449C1249.06 247.21 1248.61 247.091 1248.08 247.091C1247.7 247.091 1247.36 247.153 1247.07 247.278C1246.78 247.403 1246.56 247.575 1246.4 247.794C1246.24 248.013 1246.16 248.261 1246.16 248.54C1246.16 248.773 1246.21 248.973 1246.32 249.141C1246.44 249.305 1246.58 249.443 1246.76 249.554C1246.94 249.662 1247.12 249.751 1247.31 249.822C1247.51 249.891 1247.68 249.946 1247.85 249.989L1248.73 250.227C1248.96 250.287 1249.21 250.369 1249.49 250.474C1249.77 250.58 1250.04 250.723 1250.3 250.905C1250.55 251.084 1250.77 251.314 1250.94 251.595C1251.1 251.876 1251.19 252.222 1251.19 252.631C1251.19 253.102 1251.06 253.528 1250.82 253.909C1250.57 254.29 1250.21 254.592 1249.74 254.817C1249.27 255.041 1248.7 255.153 1248.03 255.153C1247.41 255.153 1246.87 255.053 1246.41 254.851C1245.95 254.649 1245.6 254.368 1245.34 254.007C1245.08 253.646 1244.93 253.227 1244.9 252.75H1245.99C1246.02 253.08 1246.13 253.352 1246.32 253.568C1246.52 253.781 1246.76 253.94 1247.06 254.045C1247.36 254.148 1247.69 254.199 1248.03 254.199C1248.44 254.199 1248.8 254.134 1249.12 254.003C1249.44 253.869 1249.69 253.685 1249.88 253.449C1250.07 253.21 1250.16 252.932 1250.16 252.614C1250.16 252.324 1250.08 252.088 1249.92 251.906C1249.76 251.724 1249.55 251.577 1249.28 251.463C1249.02 251.349 1248.73 251.25 1248.43 251.165L1247.35 250.858C1246.67 250.662 1246.13 250.382 1245.73 250.018C1245.33 249.655 1245.14 249.179 1245.14 248.591C1245.14 248.102 1245.27 247.676 1245.53 247.312C1245.8 246.946 1246.16 246.662 1246.61 246.46C1247.06 246.256 1247.56 246.153 1248.12 246.153C1248.68 246.153 1249.18 246.254 1249.62 246.456C1250.06 246.655 1250.4 246.928 1250.66 247.274C1250.92 247.621 1251.05 248.014 1251.07 248.455H1250.04Z" fill="white"/>
<path d="M1038.06 21.8701L1062.77 21.8701C1064.46 21.8701 1065.83 20.5001 1065.83 18.8101L1065.83 15.0601C1065.83 13.3701 1064.46 12.0001 1062.77 12.0001L1038.06 12.0001C1036.37 12.0001 1035 13.3701 1035 15.0601L1035 18.8101C1035 20.5001 1036.37 21.8701 1038.06 21.8701Z" fill="#FFB948"/>
</svg>
