<svg width="1395" height="746" viewBox="0 0 1395 746" fill="none" xmlns="http://www.w3.org/2000/svg">
<path d="M411.73 734.03V351.29" stroke="#00637F" stroke-width="3" stroke-miterlimit="10"/>
<path d="M422.219 734.24V351.49" stroke="#00637F" stroke-width="3" stroke-miterlimit="10"/>
<path d="M356.229 297.64C360.699 297.13 367.129 296.81 374.729 297.85C381.319 298.75 387.049 299.53 393.039 303.19C400.729 307.89 404.789 314.83 406.829 319.38C407.199 320.12 407.469 320.72 407.659 321.15C414.329 335.96 411.259 351.29 411.729 351.29C411.999 351.29 412.239 346.1 412.759 338.96C412.759 338.96 412.799 338.43 413.659 327.94C415.649 303.76 417.209 284.92 426.529 280.37C432.299 277.56 434.939 284.84 452.839 287.36C457.469 288.01 462.319 288.08 472.039 288.21C480.939 288.33 488.289 288.16 493.339 287.98" stroke="#027C49" stroke-width="3" stroke-miterlimit="10"/>
<path d="M483.059 297.84C478.879 297.44 472.749 297.11 465.379 297.63C455.229 298.36 448.169 298.86 441.109 303.18C438.049 305.05 431.799 309.59 427.319 319.37C426.949 320.11 426.679 320.71 426.479 321.14C419.809 335.95 422.879 351.28 422.409 351.28C422.139 351.28 421.899 346.09 421.379 338.95C421.379 338.95 421.339 338.42 420.479 327.93C418.489 303.75 416.929 284.91 407.609 280.36C401.569 277.41 398.849 285.29 381.299 287.35C376.659 287.89 375.489 287.53 360.259 287.63C351.949 287.69 345.179 287.84 340.809 287.96" stroke="#027C49" stroke-width="3" stroke-miterlimit="10"/>
<path d="M538.671 469.1C457.741 469.05 398.741 468.77 394.601 468.66C394.601 468.66 389.511 468.47 385.361 466.48C385.071 466.34 384.811 466.2 384.571 466.06C383.361 465.37 377.211 461.85 375.591 454.39C375.381 453.4 374.361 448.28 377.051 443.09C378.001 441.26 379.751 438.77 386.781 434.53C389.401 432.95 391.501 431.88 393.261 431.07C398.041 428.89 401.041 427.56 401.991 427.12C405.631 425.44 409.831 420.01 411.731 403.03" stroke="#027C49" stroke-width="3" stroke-miterlimit="10"/>
<path d="M411.76 483.89C411.76 471.35 411.74 458.82 411.74 446.28C411.21 445.6 403.89 436.49 393.58 437.83C392.63 437.95 383.19 439.31 381.04 446.46C379.34 452.12 383.38 457.19 383.92 457.85C387.46 462.16 392.95 463.01 395.02 463.31C405.95 464.94 462.13 465.24 538.81 464" stroke="#027C49" stroke-width="3" stroke-miterlimit="10"/>
<path d="M422.221 418.53V443.15C423.341 446.04 426.271 452.44 433.011 457.69C440.601 463.6 448.531 464.56 451.591 464.77" stroke="#027C49" stroke-width="3" stroke-miterlimit="10"/>
<path d="M422.221 515.33V490.71C423.341 487.82 426.271 481.42 433.011 476.17C440.601 470.26 448.531 469.3 451.591 469.09" stroke="#027C49" stroke-width="3" stroke-miterlimit="10"/>
<path d="M538.71 673.95C457.78 673.9 398.78 673.62 394.64 673.51C394.64 673.51 389.55 673.32 385.4 671.33C385.11 671.19 384.85 671.05 384.61 670.91C383.4 670.22 377.25 666.7 375.63 659.24C375.42 658.25 374.4 653.13 377.09 647.94C378.04 646.11 379.79 643.62 386.82 639.38C389.44 637.8 391.54 636.73 393.3 635.92C398.08 633.74 401.08 632.41 402.03 631.97C405.67 630.29 409.87 624.86 411.77 607.88" stroke="#027C49" stroke-width="3" stroke-miterlimit="10"/>
<path d="M411.811 688.74C411.811 676.2 411.791 663.67 411.791 651.13C411.261 650.45 403.941 641.34 393.631 642.68C392.681 642.8 383.241 644.16 381.091 651.31C379.391 656.97 383.431 662.04 383.971 662.7C387.511 667.01 393.001 667.86 395.071 668.16C406.001 669.79 462.181 670.09 538.861 668.85" stroke="#027C49" stroke-width="3" stroke-miterlimit="10"/>
<path d="M422.26 623.38V648C423.38 650.89 426.31 657.29 433.05 662.54C440.64 668.45 448.57 669.41 451.63 669.62" stroke="#027C49" stroke-width="3" stroke-miterlimit="10"/>
<path d="M422.26 720.19V695.57C423.38 692.68 426.31 686.28 433.05 681.03C440.64 675.12 448.57 674.16 451.63 673.95" stroke="#027C49" stroke-width="3" stroke-miterlimit="10"/>
<path d="M520.869 682.77V658.06C520.869 656.37 519.499 655 517.809 655H514.059C512.369 655 510.999 656.37 510.999 658.06V682.77C510.999 684.46 512.369 685.83 514.059 685.83H517.809C519.499 685.83 520.869 684.46 520.869 682.77Z" fill="#FFB948"/>
<path d="M238.77 297.46C334.32 297.46 429.88 297.46 525.43 297.46" stroke="#FD0001" stroke-width="3" stroke-miterlimit="10"/>
<path d="M238.26 287.56C333.98 287.78 429.71 287.99 525.43 288.21" stroke="#FD0001" stroke-width="3" stroke-miterlimit="10"/>
<path d="M595.501 297.5C620.501 297.5 630.481 295.36 635.501 301C641.791 308.08 640.561 320 648.921 326.4C654.691 330.81 665.081 334.51 674.631 329.82C685.371 324.55 687.381 312.43 687.561 311.19C687.421 289.76 687.281 268.33 687.151 246.9C686.691 244.19 684.891 235.66 677.281 228.55C669.511 221.29 660.661 220.16 657.961 219.92C626.821 219.44 595.681 218.96 564.531 218.48" stroke="#027C49" stroke-width="3" stroke-miterlimit="10"/>
<path d="M563 224.02C597.32 224.8 624.96 225.61 645.63 225.66C652.85 225.68 666.2 225.62 674 234.7C677.3 238.55 678.11 242.63 679.8 250.74C682.06 261.65 681.51 268.82 681.4 286.03C681.37 291.32 681.36 299.27 681.55 309.08C679.76 319.76 670.14 326.1 662.08 324.32C655.02 322.76 648.72 314.87 650.51 307.27C652.1 300.54 659.25 297.73 660.03 297.44" stroke="#027C49" stroke-width="3" stroke-miterlimit="10"/>
<path d="M679.799 250.75C680.079 253.06 681.189 264.06 673.589 274.17C665.299 285.21 653.019 286.7 650.979 286.91C639.329 287.34 627.679 287.77 616.039 288.19" stroke="#027C49" stroke-width="3" stroke-miterlimit="10"/>
<path d="M687.19 252.65C686.99 255.01 686.29 266.24 694.4 276.19C703.46 287.31 716.41 288.12 718.45 288.22H751.76" stroke="#027C49" stroke-width="3" stroke-miterlimit="10"/>
<path d="M1046.34 232.89V4" stroke="#027C49" stroke-width="3" stroke-miterlimit="10"/>
<path d="M1055.69 232.89V4" stroke="#027C49" stroke-width="3" stroke-miterlimit="10"/>
<path d="M1055.69 168.93C1055.79 165.58 1056.42 160.06 1059.42 154.13C1061.27 150.46 1063.53 145.97 1068.32 143.16C1073.8 139.95 1076.39 142.57 1083.05 139.12C1085.15 138.03 1089.26 135.84 1091.83 131.07C1092.54 129.76 1095.06 124.89 1093.48 118.97C1092.21 114.22 1089.01 111.53 1088.01 110.69C1084.96 108.12 1080.67 106.3 1074.98 106.33C1048.54 106.44 1022.1 106.55 995.66 106.66C978.64 106.73 973.88 115.94 970.58 120.23C964.8 127.73 963.95 136.38 963.59 142.02" stroke="#027C49" stroke-width="3" stroke-miterlimit="10"/>
<path d="M971.819 142.44C971.449 138.74 971.009 129.2 977.159 121.63C978.939 119.44 982.399 116.03 992.269 112.84C1007.88 107.8 1017.89 110.3 1046.33 110.22C1051.24 110.21 1056.14 110.47 1061.05 110.4C1065.78 110.34 1068.37 110.18 1072.33 110.87C1076.13 111.53 1079.14 112.05 1082.11 114.3C1082.94 114.92 1088.24 119.07 1088 124.09C1087.65 131.18 1076.35 138.06 1067.03 135.5C1059.52 133.44 1056.21 126.05 1055.67 124.79" stroke="#027C49" stroke-width="3" stroke-miterlimit="10"/>
<path d="M1010 109.67C1013.36 109.69 1024.26 110.18 1034.21 118.24C1041.99 124.55 1045.16 132.24 1046.34 135.66V157.09" stroke="#027C49" stroke-width="3" stroke-miterlimit="10"/>
<path d="M1012.75 106.6C1016.84 106.6 1027.99 106.02 1037.83 98.0101C1041.92 94.6801 1044.61 91.0201 1046.33 88.1401V69.3301" stroke="#027C49" stroke-width="3" stroke-miterlimit="10"/>
<path d="M983.17 124.48H958.46C956.77 124.48 955.4 125.85 955.4 127.54V131.29C955.4 132.98 956.77 134.35 958.46 134.35H983.17C984.86 134.35 986.23 132.98 986.23 131.29V127.54C986.23 125.85 984.86 124.48 983.17 124.48Z" fill="#FFB948"/>
<path d="M825.131 272.74H794.301V285.59H825.131V272.74Z" fill="#FFB948" stroke="#FCAC56" stroke-miterlimit="10"/>
<path d="M239.831 297.76C232.051 297.79 224.261 297.82 216.481 297.85C213.171 298.1 200.121 299.49 189.321 310.43C179.821 320.06 177.841 332.63 177.061 338.52C173.641 364.45 173.881 485.57 178.341 650.61" stroke="#00637F" stroke-width="3" stroke-miterlimit="10"/>
<path d="M825.131 299.51H794.301V312.36H825.131V299.51Z" fill="#FFB948" stroke="#FCAC56" stroke-miterlimit="10"/>
<path d="M656.469 236.37V211.66C656.469 209.97 655.099 208.6 653.409 208.6H649.659C647.969 208.6 646.599 209.97 646.599 211.66V236.37C646.599 238.06 647.969 239.43 649.659 239.43H653.409C655.099 239.43 656.469 238.06 656.469 236.37Z" fill="#FFB948"/>
<path d="M520.449 477.12V452.41C520.449 450.72 519.079 449.35 517.389 449.35H513.639C511.949 449.35 510.579 450.72 510.579 452.41V477.12C510.579 478.81 511.949 480.18 513.639 480.18H517.389C519.079 480.18 520.449 478.81 520.449 477.12Z" fill="#FFB948"/>
<path d="M525.43 288.21H1109.47" stroke="#00637F" stroke-width="3" stroke-miterlimit="10"/>
<path d="M423.73 565.91V529.66L440.13 535.23V560.36L423.73 565.91Z" fill="#FFB948" stroke="#FCAC56" stroke-miterlimit="10"/>
<path d="M410.471 531.88V568.14L391.871 562.56V537.43L410.471 531.88Z" fill="#FFB948" stroke="#FCAC56" stroke-miterlimit="10"/>
<path d="M238.259 287.56L218.859 287.28C215.099 287.16 197.799 287.01 183.119 300.17C170.939 311.09 167.539 327.23 166.269 339.36C162.519 375.24 161.879 491.75 166.099 649.57" stroke="#00637F" stroke-width="3" stroke-miterlimit="10"/>
<path d="M509.859 303.67V278.48H499.989V303.67H509.859Z" fill="#00637F"/>
<path d="M244.281 304.91V279.72H234.411V304.91H244.281Z" fill="#00637F"/>
<path d="M525.43 297.46H1109.47" stroke="#00637F" stroke-width="3" stroke-miterlimit="10"/>
<path d="M558.271 192.06H555.191V362.88H558.271V192.06Z" fill="#FFB948"/>
<path d="M564.541 192.06H561.461V362.88H564.541V192.06Z" fill="#FFB948"/>
<path d="M1055.69 229.52C1054.77 238.1 1055.17 245.14 1055.71 249.95C1056.78 259.55 1057.75 268.17 1063.99 276.24C1065.64 278.36 1069.14 282.79 1075.3 285.64C1079.82 287.74 1083.56 288.08 1090.2 288.57C1094.84 288.91 1101.45 289.08 1109.47 288.21" stroke="#FD0001" stroke-width="3" stroke-miterlimit="10"/>
<path d="M1046.34 229.73C1046.53 233.33 1046.77 238.82 1046.83 245.56C1046.91 254.34 1046.6 254.63 1046.88 258.97C1046.98 260.55 1047.54 263.13 1050.27 279.17C1050.88 282.75 1051.56 286.69 1053.04 291.81C1055.33 299.73 1056.55 303.72 1060.02 305.48C1062.95 306.96 1066.11 306.22 1070.97 305.07C1076.93 303.66 1081.09 301.4 1082.02 300.91C1087.02 298.26 1095.26 295.93 1109.46 297.47" stroke="#FD0001" stroke-width="3" stroke-miterlimit="10"/>
<path d="M1046.34 229.42C1047.26 238 1046.86 245.04 1046.32 249.85C1045.25 259.45 1044.28 268.07 1038.04 276.14C1036.39 278.26 1032.89 282.69 1026.73 285.54C1021.85 287.8 1017.4 288.1 1011.83 288.47C1006.68 288.81 1002.39 288.54 999.391 288.21" stroke="#027C49" stroke-width="3" stroke-miterlimit="10"/>
<path d="M1055.69 229.62C1055.5 233.22 1055.26 238.71 1055.2 245.45C1055.12 254.23 1055.43 254.52 1055.15 258.86C1055.05 260.44 1054.49 263.02 1051.76 279.06C1051.15 282.64 1050.47 286.58 1048.99 291.7C1046.7 299.62 1045.48 303.61 1042.01 305.37C1039.08 306.85 1035.92 306.11 1031.06 304.96C1026.66 303.92 1025.22 302.72 1020.01 300.8C1017.43 299.84 1013.54 298.57 1008.55 297.56C996.73 297.53 984.91 297.49 973.09 297.46" stroke="#027C49" stroke-width="3" stroke-miterlimit="10"/>
<path d="M160.001 376.21H181.191C182.296 376.21 183.191 375.315 183.191 374.21V368.34C183.191 367.235 182.296 366.34 181.191 366.34H160.001C158.897 366.34 158.001 367.235 158.001 368.34V374.21C158.001 375.315 158.897 376.21 160.001 376.21Z" fill="#1B6EF3"/>
<path d="M160.001 559.87H181.191C182.296 559.87 183.191 558.975 183.191 557.87V552C183.191 550.896 182.296 550 181.191 550H160.001C158.897 550 158.001 550.896 158.001 552V557.87C158.001 558.975 158.897 559.87 160.001 559.87Z" fill="#1B6EF3"/>
<path d="M1107.48 297.46C1203.03 297.46 1298.59 297.46 1394.14 297.46" stroke="#00637F" stroke-width="3" stroke-miterlimit="10"/>
<path d="M1107.48 288.21C1203.2 288.43 1298.93 288.64 1394.65 288.86" stroke="#00637F" stroke-width="3" stroke-miterlimit="10"/>
<path d="M1210.6 279.92V305.11H1220.47V279.92H1210.6Z" fill="#00637F"/>
<rect y="508" width="151" height="35" rx="5" fill="#2973D6"/>
<path d="M11.0568 530V521.273H14.108C14.7159 521.273 15.2173 521.378 15.6122 521.588C16.0071 521.795 16.3011 522.075 16.4943 522.428C16.6875 522.777 16.7841 523.165 16.7841 523.591C16.7841 523.966 16.7173 524.276 16.5838 524.52C16.4531 524.764 16.2798 524.957 16.0639 525.099C15.8509 525.241 15.6193 525.347 15.3693 525.415V525.5C15.6364 525.517 15.9048 525.611 16.1747 525.781C16.4446 525.952 16.6705 526.196 16.8523 526.514C17.0341 526.832 17.125 527.222 17.125 527.682C17.125 528.119 17.0256 528.513 16.8267 528.862C16.6278 529.212 16.3139 529.489 15.8849 529.693C15.456 529.898 14.8977 530 14.2102 530H11.0568ZM12.1136 529.062H14.2102C14.9006 529.062 15.3906 528.929 15.6804 528.662C15.973 528.392 16.1193 528.065 16.1193 527.682C16.1193 527.386 16.044 527.114 15.8935 526.864C15.7429 526.611 15.5284 526.409 15.25 526.259C14.9716 526.105 14.642 526.028 14.2614 526.028H12.1136V529.062ZM12.1136 525.108H14.0739C14.392 525.108 14.679 525.045 14.9347 524.92C15.1932 524.795 15.3977 524.619 15.5483 524.392C15.7017 524.165 15.7784 523.898 15.7784 523.591C15.7784 523.207 15.6449 522.882 15.3778 522.615C15.1108 522.345 14.6875 522.21 14.108 522.21H12.1136V525.108ZM18.8615 530V521.273H24.1286V522.21H19.9183V525.159H23.8558V526.097H19.9183V529.062H24.1967V530H18.8615ZM26.0334 530V521.273H27.0902V529.062H31.147V530H26.0334ZM32.7834 521.273H34.0447L37.0107 528.517H37.1129L40.0788 521.273H41.3402V530H40.3516V523.369H40.2663L37.5391 530H36.5845L33.8572 523.369H33.772V530H32.7834V521.273ZM43.4592 530V521.273H48.7262V522.21H44.516V525.159H48.4535V526.097H44.516V529.062H48.7944V530H43.4592ZM50.631 530V521.273H53.5799C54.2617 521.273 54.8214 521.389 55.2589 521.622C55.6964 521.852 56.0202 522.169 56.2305 522.572C56.4407 522.976 56.5458 523.435 56.5458 523.949C56.5458 524.463 56.4407 524.919 56.2305 525.317C56.0202 525.714 55.6978 526.027 55.2631 526.254C54.8285 526.479 54.2731 526.591 53.5969 526.591H51.2106V525.636H53.5629C54.0288 525.636 54.4038 525.568 54.6879 525.432C54.9748 525.295 55.1822 525.102 55.31 524.852C55.4407 524.599 55.506 524.298 55.506 523.949C55.506 523.599 55.4407 523.294 55.31 523.033C55.1793 522.771 54.9705 522.57 54.6836 522.428C54.3967 522.283 54.0174 522.21 53.5458 522.21H51.6879V530H50.631ZM54.739 526.08L56.8867 530H55.6594L53.5458 526.08H54.739ZM58.6648 530H57.5568L60.7614 521.273H61.8523L65.0568 530H63.9489L61.3409 522.653H61.2727L58.6648 530ZM59.0739 526.591H63.5398V527.528H59.0739V526.591ZM67.7798 528.807L67.7116 529.267C67.6634 529.591 67.5895 529.938 67.4901 530.307C67.3935 530.676 67.2926 531.024 67.1875 531.351C67.0824 531.678 66.9957 531.938 66.9276 532.131H66.1605C66.1974 531.949 66.2457 531.709 66.3054 531.411C66.3651 531.112 66.4247 530.778 66.4844 530.409C66.5469 530.043 66.598 529.668 66.6378 529.284L66.6889 528.807H67.7798ZM73.1545 521.273H74.4158L77.3817 528.517H77.484L80.4499 521.273H81.7113V530H80.7227V523.369H80.6374L77.9102 530H76.9556L74.2283 523.369H74.1431V530H73.1545V521.273ZM83.8303 530V521.273H86.8814C87.4893 521.273 87.9908 521.378 88.3857 521.588C88.7805 521.795 89.0746 522.075 89.2678 522.428C89.4609 522.777 89.5575 523.165 89.5575 523.591C89.5575 523.966 89.4908 524.276 89.3572 524.52C89.2266 524.764 89.0533 524.957 88.8374 525.099C88.6243 525.241 88.3928 525.347 88.1428 525.415V525.5C88.4098 525.517 88.6783 525.611 88.9482 525.781C89.218 525.952 89.4439 526.196 89.6257 526.514C89.8075 526.832 89.8984 527.222 89.8984 527.682C89.8984 528.119 89.799 528.513 89.6001 528.862C89.4013 529.212 89.0874 529.489 88.6584 529.693C88.2294 529.898 87.6712 530 86.9837 530H83.8303ZM84.8871 529.062H86.9837C87.674 529.062 88.1641 528.929 88.4538 528.662C88.7464 528.392 88.8928 528.065 88.8928 527.682C88.8928 527.386 88.8175 527.114 88.6669 526.864C88.5163 526.611 88.3018 526.409 88.0234 526.259C87.745 526.105 87.4155 526.028 87.0348 526.028H84.8871V529.062ZM84.8871 525.108H86.8473C87.1655 525.108 87.4524 525.045 87.7081 524.92C87.9666 524.795 88.1712 524.619 88.3217 524.392C88.4751 524.165 88.5518 523.898 88.5518 523.591C88.5518 523.207 88.4183 522.882 88.1513 522.615C87.8842 522.345 87.4609 522.21 86.8814 522.21H84.8871V525.108ZM91.1577 522.21V521.273H97.7031V522.21H94.9588V530H93.902V522.21H91.1577ZM100.288 528.807L100.219 529.267C100.171 529.591 100.097 529.938 99.9979 530.307C99.9013 530.676 99.8004 531.024 99.6953 531.351C99.5902 531.678 99.5036 531.938 99.4354 532.131H98.6683C98.7053 531.949 98.7536 531.709 98.8132 531.411C98.8729 531.112 98.9325 530.778 98.9922 530.409C99.0547 530.043 99.1058 529.668 99.1456 529.284L99.1967 528.807H100.288ZM105.662 530V521.273H108.713C109.321 521.273 109.823 521.378 110.218 521.588C110.613 521.795 110.907 522.075 111.1 522.428C111.293 522.777 111.39 523.165 111.39 523.591C111.39 523.966 111.323 524.276 111.189 524.52C111.059 524.764 110.885 524.957 110.669 525.099C110.456 525.241 110.225 525.347 109.975 525.415V525.5C110.242 525.517 110.51 525.611 110.78 525.781C111.05 525.952 111.276 526.196 111.458 526.514C111.64 526.832 111.73 527.222 111.73 527.682C111.73 528.119 111.631 528.513 111.432 528.862C111.233 529.212 110.919 529.489 110.49 529.693C110.061 529.898 109.503 530 108.816 530H105.662ZM106.719 529.062H108.816C109.506 529.062 109.996 528.929 110.286 528.662C110.578 528.392 110.725 528.065 110.725 527.682C110.725 527.386 110.65 527.114 110.499 526.864C110.348 526.611 110.134 526.409 109.855 526.259C109.577 526.105 109.248 526.028 108.867 526.028H106.719V529.062ZM106.719 525.108H108.679C108.998 525.108 109.284 525.045 109.54 524.92C109.799 524.795 110.003 524.619 110.154 524.392C110.307 524.165 110.384 523.898 110.384 523.591C110.384 523.207 110.25 522.882 109.983 522.615C109.716 522.345 109.293 522.21 108.713 522.21H106.719V525.108ZM114.524 521.273V530H113.467V521.273H114.524ZM123.563 521.273V530H122.54L117.785 523.148H117.7V530H116.643V521.273H117.665L122.438 528.142H122.523V521.273H123.563ZM130.451 523.455C130.4 523.023 130.192 522.688 129.828 522.449C129.465 522.21 129.019 522.091 128.49 522.091C128.104 522.091 127.766 522.153 127.476 522.278C127.189 522.403 126.965 522.575 126.803 522.794C126.644 523.013 126.564 523.261 126.564 523.54C126.564 523.773 126.62 523.973 126.73 524.141C126.844 524.305 126.989 524.443 127.165 524.554C127.341 524.662 127.526 524.751 127.719 524.822C127.912 524.891 128.09 524.946 128.252 524.989L129.138 525.227C129.365 525.287 129.618 525.369 129.897 525.474C130.178 525.58 130.446 525.723 130.702 525.905C130.961 526.084 131.174 526.314 131.341 526.595C131.509 526.876 131.593 527.222 131.593 527.631C131.593 528.102 131.469 528.528 131.222 528.909C130.978 529.29 130.62 529.592 130.148 529.817C129.679 530.041 129.11 530.153 128.439 530.153C127.814 530.153 127.273 530.053 126.816 529.851C126.361 529.649 126.003 529.368 125.742 529.007C125.483 528.646 125.337 528.227 125.303 527.75H126.394C126.422 528.08 126.533 528.352 126.726 528.568C126.922 528.781 127.169 528.94 127.468 529.045C127.769 529.148 128.093 529.199 128.439 529.199C128.843 529.199 129.205 529.134 129.526 529.003C129.847 528.869 130.101 528.685 130.289 528.449C130.476 528.21 130.57 527.932 130.57 527.614C130.57 527.324 130.489 527.088 130.327 526.906C130.165 526.724 129.952 526.577 129.688 526.463C129.424 526.349 129.138 526.25 128.831 526.165L127.757 525.858C127.076 525.662 126.536 525.382 126.138 525.018C125.74 524.655 125.542 524.179 125.542 523.591C125.542 523.102 125.674 522.676 125.938 522.312C126.205 521.946 126.563 521.662 127.012 521.46C127.463 521.256 127.968 521.153 128.525 521.153C129.087 521.153 129.587 521.254 130.025 521.456C130.462 521.655 130.809 521.928 131.064 522.274C131.323 522.621 131.459 523.014 131.473 523.455H130.451ZM133.688 530H132.58L135.785 521.273H136.876L140.08 530H138.972L136.364 522.653H136.296L133.688 530ZM134.097 526.591H138.563V527.528H134.097V526.591Z" fill="white"/>
<rect x="97" y="325" width="54" height="35" rx="5" fill="#2973D6"/>
<path d="M108.057 338.273H109.318L112.284 345.517H112.386L115.352 338.273H116.614V347H115.625V340.369H115.54L112.812 347H111.858L109.131 340.369H109.045V347H108.057V338.273ZM118.733 347V338.273H119.789V342.602H119.892L123.812 338.273H125.193L121.528 342.21L125.193 347H123.914L120.88 342.943L119.789 344.17V347H118.733ZM126.083 339.21V338.273H132.629V339.21H129.885V347H128.828V339.21H126.083ZM133.783 339.21V338.273H140.328V339.21H137.584V347H136.527V339.21H133.783Z" fill="white"/>
<rect x="509" y="498" width="109" height="35" rx="5" fill="#2973D6"/>
<path d="M522.75 520H520.057V511.273H522.869C523.716 511.273 524.44 511.447 525.043 511.797C525.645 512.143 526.107 512.642 526.428 513.293C526.749 513.94 526.909 514.716 526.909 515.619C526.909 516.528 526.747 517.311 526.423 517.967C526.099 518.621 525.628 519.124 525.009 519.476C524.389 519.825 523.636 520 522.75 520ZM521.114 519.062H522.682C523.403 519.062 524.001 518.923 524.476 518.645C524.95 518.366 525.304 517.97 525.537 517.456C525.77 516.942 525.886 516.33 525.886 515.619C525.886 514.915 525.771 514.308 525.541 513.8C525.311 513.288 524.967 512.896 524.51 512.624C524.053 512.348 523.483 512.21 522.801 512.21H521.114V519.062ZM531.205 520.136C530.614 520.136 530.095 519.996 529.649 519.714C529.206 519.433 528.859 519.04 528.609 518.534C528.362 518.028 528.239 517.437 528.239 516.761C528.239 516.08 528.362 515.484 528.609 514.976C528.859 514.467 529.206 514.072 529.649 513.791C530.095 513.51 530.614 513.369 531.205 513.369C531.795 513.369 532.313 513.51 532.756 513.791C533.202 514.072 533.548 514.467 533.795 514.976C534.045 515.484 534.17 516.08 534.17 516.761C534.17 517.437 534.045 518.028 533.795 518.534C533.548 519.04 533.202 519.433 532.756 519.714C532.313 519.996 531.795 520.136 531.205 520.136ZM531.205 519.233C531.653 519.233 532.023 519.118 532.312 518.888C532.602 518.658 532.817 518.355 532.956 517.98C533.095 517.605 533.165 517.199 533.165 516.761C533.165 516.324 533.095 515.916 532.956 515.538C532.817 515.161 532.602 514.855 532.312 514.622C532.023 514.389 531.653 514.273 531.205 514.273C530.756 514.273 530.386 514.389 530.097 514.622C529.807 514.855 529.592 515.161 529.453 515.538C529.314 515.916 529.244 516.324 529.244 516.761C529.244 517.199 529.314 517.605 529.453 517.98C529.592 518.355 529.807 518.658 530.097 518.888C530.386 519.118 530.756 519.233 531.205 519.233ZM536.711 511.273V520H535.706V511.273H536.711ZM541.212 520.136C540.621 520.136 540.103 519.996 539.657 519.714C539.214 519.433 538.867 519.04 538.617 518.534C538.37 518.028 538.246 517.437 538.246 516.761C538.246 516.08 538.37 515.484 538.617 514.976C538.867 514.467 539.214 514.072 539.657 513.791C540.103 513.51 540.621 513.369 541.212 513.369C541.803 513.369 542.32 513.51 542.763 513.791C543.21 514.072 543.556 514.467 543.803 514.976C544.053 515.484 544.178 516.08 544.178 516.761C544.178 517.437 544.053 518.028 543.803 518.534C543.556 519.04 543.21 519.433 542.763 519.714C542.32 519.996 541.803 520.136 541.212 520.136ZM541.212 519.233C541.661 519.233 542.031 519.118 542.32 518.888C542.61 518.658 542.825 518.355 542.964 517.98C543.103 517.605 543.173 517.199 543.173 516.761C543.173 516.324 543.103 515.916 542.964 515.538C542.825 515.161 542.61 514.855 542.32 514.622C542.031 514.389 541.661 514.273 541.212 514.273C540.763 514.273 540.394 514.389 540.104 514.622C539.815 514.855 539.6 515.161 539.461 515.538C539.322 515.916 539.252 516.324 539.252 516.761C539.252 517.199 539.322 517.605 539.461 517.98C539.6 518.355 539.815 518.658 540.104 518.888C540.394 519.118 540.763 519.233 541.212 519.233ZM546.651 517.614L546.634 516.369H546.838L549.702 513.455H550.946L547.895 516.54H547.81L546.651 517.614ZM545.713 520V511.273H546.719V520H545.713ZM549.873 520L547.316 516.761L548.032 516.062L551.151 520H549.873ZM555.752 511.273H557.013L559.979 518.517H560.082L563.048 511.273H564.309V520H563.32V513.369H563.235L560.508 520H559.553L556.826 513.369H556.741V520H555.752V511.273ZM569.036 520.136C568.405 520.136 567.861 519.997 567.404 519.719C566.949 519.438 566.598 519.045 566.351 518.543C566.107 518.037 565.985 517.449 565.985 516.778C565.985 516.108 566.107 515.517 566.351 515.006C566.598 514.491 566.942 514.091 567.382 513.804C567.826 513.514 568.343 513.369 568.934 513.369C569.275 513.369 569.611 513.426 569.944 513.54C570.276 513.653 570.578 513.838 570.851 514.094C571.124 514.347 571.341 514.682 571.503 515.099C571.665 515.517 571.746 516.031 571.746 516.642V517.068H566.701V516.199H570.723C570.723 515.83 570.65 515.5 570.502 515.21C570.357 514.92 570.15 514.692 569.88 514.524C569.613 514.357 569.297 514.273 568.934 514.273C568.533 514.273 568.186 514.372 567.894 514.571C567.604 514.767 567.381 515.023 567.225 515.338C567.069 515.653 566.99 515.991 566.99 516.352V516.932C566.99 517.426 567.076 517.845 567.246 518.189C567.419 518.53 567.659 518.79 567.966 518.969C568.273 519.145 568.63 519.233 569.036 519.233C569.3 519.233 569.539 519.196 569.752 519.122C569.968 519.045 570.154 518.932 570.31 518.781C570.466 518.628 570.587 518.437 570.672 518.21L571.644 518.483C571.542 518.812 571.37 519.102 571.128 519.352C570.887 519.599 570.588 519.793 570.233 519.932C569.878 520.068 569.479 520.136 569.036 520.136ZM573.276 520V513.455H574.248V514.443H574.316C574.435 514.119 574.651 513.857 574.963 513.655C575.276 513.453 575.628 513.352 576.02 513.352C576.094 513.352 576.186 513.354 576.297 513.357C576.408 513.359 576.492 513.364 576.549 513.369V514.392C576.515 514.384 576.436 514.371 576.314 514.354C576.195 514.334 576.069 514.324 575.935 514.324C575.617 514.324 575.333 514.391 575.083 514.524C574.836 514.655 574.64 514.837 574.495 515.07C574.353 515.3 574.282 515.562 574.282 515.858V520H573.276ZM579.667 520.153C579.252 520.153 578.876 520.075 578.538 519.919C578.2 519.76 577.931 519.531 577.732 519.233C577.533 518.932 577.434 518.568 577.434 518.142C577.434 517.767 577.508 517.463 577.656 517.23C577.803 516.994 578.001 516.81 578.248 516.676C578.495 516.543 578.768 516.443 579.066 516.378C579.367 516.31 579.67 516.256 579.974 516.216C580.371 516.165 580.694 516.126 580.941 516.101C581.191 516.072 581.373 516.026 581.487 515.96C581.603 515.895 581.661 515.781 581.661 515.619V515.585C581.661 515.165 581.546 514.838 581.316 514.605C581.089 514.372 580.744 514.256 580.281 514.256C579.8 514.256 579.424 514.361 579.151 514.571C578.879 514.781 578.687 515.006 578.576 515.244L577.621 514.903C577.792 514.506 578.019 514.196 578.303 513.974C578.59 513.75 578.903 513.594 579.241 513.506C579.582 513.415 579.917 513.369 580.246 513.369C580.457 513.369 580.698 513.395 580.971 513.446C581.246 513.494 581.512 513.595 581.768 513.749C582.026 513.902 582.241 514.134 582.411 514.443C582.582 514.753 582.667 515.168 582.667 515.688V520H581.661V519.114H581.61C581.542 519.256 581.428 519.408 581.269 519.57C581.11 519.732 580.898 519.869 580.634 519.983C580.37 520.097 580.048 520.153 579.667 520.153ZM579.82 519.25C580.218 519.25 580.553 519.172 580.826 519.016C581.102 518.859 581.309 518.658 581.448 518.411C581.59 518.163 581.661 517.903 581.661 517.631V516.71C581.619 516.761 581.525 516.808 581.38 516.851C581.238 516.891 581.073 516.926 580.886 516.957C580.701 516.986 580.521 517.011 580.344 517.034C580.171 517.054 580.031 517.071 579.923 517.085C579.661 517.119 579.417 517.175 579.19 517.251C578.965 517.325 578.783 517.437 578.644 517.588C578.508 517.736 578.44 517.937 578.44 518.193C578.44 518.543 578.569 518.807 578.827 518.986C579.089 519.162 579.42 519.25 579.82 519.25ZM585.985 520L583.991 513.455H585.048L586.463 518.466H586.531L587.929 513.455H589.002L590.383 518.449H590.451L591.866 513.455H592.923L590.929 520H589.94L588.508 514.972H588.406L586.974 520H585.985ZM596.179 520.153C595.764 520.153 595.387 520.075 595.049 519.919C594.711 519.76 594.443 519.531 594.244 519.233C594.045 518.932 593.946 518.568 593.946 518.142C593.946 517.767 594.02 517.463 594.167 517.23C594.315 516.994 594.512 516.81 594.76 516.676C595.007 516.543 595.279 516.443 595.578 516.378C595.879 516.31 596.181 516.256 596.485 516.216C596.883 516.165 597.206 516.126 597.453 516.101C597.703 516.072 597.885 516.026 597.998 515.96C598.115 515.895 598.173 515.781 598.173 515.619V515.585C598.173 515.165 598.058 514.838 597.828 514.605C597.6 514.372 597.255 514.256 596.792 514.256C596.312 514.256 595.936 514.361 595.663 514.571C595.39 514.781 595.199 515.006 595.088 515.244L594.133 514.903C594.304 514.506 594.531 514.196 594.815 513.974C595.102 513.75 595.414 513.594 595.752 513.506C596.093 513.415 596.429 513.369 596.758 513.369C596.968 513.369 597.21 513.395 597.483 513.446C597.758 513.494 598.024 513.595 598.279 513.749C598.538 513.902 598.752 514.134 598.923 514.443C599.093 514.753 599.179 515.168 599.179 515.688V520H598.173V519.114H598.122C598.054 519.256 597.94 519.408 597.781 519.57C597.622 519.732 597.41 519.869 597.146 519.983C596.882 520.097 596.559 520.153 596.179 520.153ZM596.332 519.25C596.73 519.25 597.065 519.172 597.338 519.016C597.613 518.859 597.821 518.658 597.96 518.411C598.102 518.163 598.173 517.903 598.173 517.631V516.71C598.13 516.761 598.037 516.808 597.892 516.851C597.75 516.891 597.585 516.926 597.397 516.957C597.213 516.986 597.032 517.011 596.856 517.034C596.683 517.054 596.542 517.071 596.434 517.085C596.173 517.119 595.929 517.175 595.701 517.251C595.477 517.325 595.295 517.437 595.156 517.588C595.02 517.736 594.951 517.937 594.951 518.193C594.951 518.543 595.081 518.807 595.339 518.986C595.6 519.162 595.931 519.25 596.332 519.25ZM602.02 516.062V520H601.014V513.455H601.986V514.477H602.071C602.224 514.145 602.457 513.878 602.77 513.676C603.082 513.472 603.486 513.369 603.98 513.369C604.423 513.369 604.811 513.46 605.143 513.642C605.476 513.821 605.734 514.094 605.919 514.46C606.104 514.824 606.196 515.284 606.196 515.841V520H605.19V515.909C605.19 515.395 605.057 514.994 604.79 514.707C604.523 514.418 604.156 514.273 603.69 514.273C603.369 514.273 603.082 514.342 602.83 514.482C602.58 514.621 602.382 514.824 602.237 515.091C602.092 515.358 602.02 515.682 602.02 516.062Z" fill="white"/>
<rect x="571" y="142" width="97" height="35" rx="5" fill="#2973D6"/>
<path d="M581.58 156.21V155.273H588.125V156.21H585.381V164H584.324V156.21H581.58ZM591.415 164.136C590.784 164.136 590.24 163.997 589.783 163.719C589.328 163.438 588.977 163.045 588.73 162.543C588.486 162.037 588.364 161.449 588.364 160.778C588.364 160.108 588.486 159.517 588.73 159.006C588.977 158.491 589.321 158.091 589.761 157.804C590.205 157.514 590.722 157.369 591.312 157.369C591.653 157.369 591.99 157.426 592.322 157.54C592.655 157.653 592.957 157.838 593.23 158.094C593.503 158.347 593.72 158.682 593.882 159.099C594.044 159.517 594.125 160.031 594.125 160.642V161.068H589.08V160.199H593.102C593.102 159.83 593.028 159.5 592.881 159.21C592.736 158.92 592.528 158.692 592.259 158.524C591.991 158.357 591.676 158.273 591.312 158.273C590.912 158.273 590.565 158.372 590.273 158.571C589.983 158.767 589.76 159.023 589.604 159.338C589.447 159.653 589.369 159.991 589.369 160.352V160.932C589.369 161.426 589.455 161.845 589.625 162.189C589.798 162.53 590.038 162.79 590.345 162.969C590.652 163.145 591.009 163.233 591.415 163.233C591.679 163.233 591.918 163.196 592.131 163.122C592.347 163.045 592.533 162.932 592.689 162.781C592.845 162.628 592.966 162.437 593.051 162.21L594.023 162.483C593.92 162.812 593.749 163.102 593.507 163.352C593.266 163.599 592.967 163.793 592.612 163.932C592.257 164.068 591.858 164.136 591.415 164.136ZM595.791 164V155.273H596.797V158.494H596.882C596.956 158.381 597.058 158.236 597.189 158.06C597.322 157.881 597.513 157.722 597.76 157.582C598.01 157.44 598.348 157.369 598.774 157.369C599.325 157.369 599.811 157.507 600.232 157.783C600.652 158.058 600.98 158.449 601.216 158.955C601.452 159.46 601.57 160.057 601.57 160.744C601.57 161.438 601.452 162.038 601.216 162.547C600.98 163.053 600.653 163.445 600.236 163.723C599.818 163.999 599.337 164.136 598.791 164.136C598.371 164.136 598.034 164.067 597.781 163.928C597.528 163.786 597.334 163.625 597.197 163.446C597.061 163.264 596.956 163.114 596.882 162.994H596.763V164H595.791ZM596.78 160.727C596.78 161.222 596.852 161.658 596.997 162.036C597.142 162.411 597.354 162.705 597.632 162.918C597.911 163.128 598.251 163.233 598.655 163.233C599.075 163.233 599.426 163.122 599.707 162.901C599.991 162.676 600.205 162.375 600.347 161.997C600.491 161.616 600.564 161.193 600.564 160.727C600.564 160.267 600.493 159.852 600.351 159.483C600.212 159.111 600 158.817 599.716 158.601C599.435 158.382 599.081 158.273 598.655 158.273C598.246 158.273 597.902 158.376 597.624 158.584C597.345 158.788 597.135 159.075 596.993 159.445C596.851 159.811 596.78 160.239 596.78 160.727ZM603.108 164V157.455H604.114V164H603.108ZM603.619 156.364C603.423 156.364 603.254 156.297 603.112 156.163C602.973 156.03 602.903 155.869 602.903 155.682C602.903 155.494 602.973 155.334 603.112 155.2C603.254 155.067 603.423 155 603.619 155C603.815 155 603.983 155.067 604.122 155.2C604.264 155.334 604.335 155.494 604.335 155.682C604.335 155.869 604.264 156.03 604.122 156.163C603.983 156.297 603.815 156.364 603.619 156.364ZM606.961 160.062V164H605.956V157.455H606.927V158.477H607.012C607.166 158.145 607.399 157.878 607.711 157.676C608.024 157.472 608.427 157.369 608.922 157.369C609.365 157.369 609.752 157.46 610.085 157.642C610.417 157.821 610.676 158.094 610.86 158.46C611.045 158.824 611.137 159.284 611.137 159.841V164H610.132V159.909C610.132 159.395 609.998 158.994 609.731 158.707C609.464 158.418 609.098 158.273 608.632 158.273C608.311 158.273 608.024 158.342 607.771 158.482C607.521 158.621 607.324 158.824 607.179 159.091C607.034 159.358 606.961 159.682 606.961 160.062ZM615.617 166.591C615.131 166.591 614.714 166.528 614.364 166.403C614.015 166.281 613.724 166.119 613.491 165.918C613.261 165.719 613.077 165.506 612.941 165.278L613.742 164.716C613.833 164.835 613.948 164.972 614.087 165.125C614.227 165.281 614.417 165.416 614.658 165.53C614.903 165.646 615.222 165.705 615.617 165.705C616.146 165.705 616.582 165.577 616.925 165.321C617.269 165.065 617.441 164.665 617.441 164.119V162.79H617.356C617.282 162.909 617.177 163.057 617.04 163.233C616.907 163.406 616.714 163.561 616.461 163.697C616.211 163.831 615.873 163.898 615.447 163.898C614.918 163.898 614.444 163.773 614.023 163.523C613.606 163.273 613.275 162.909 613.031 162.432C612.789 161.955 612.668 161.375 612.668 160.693C612.668 160.023 612.786 159.439 613.022 158.942C613.258 158.442 613.586 158.055 614.006 157.783C614.427 157.507 614.913 157.369 615.464 157.369C615.89 157.369 616.228 157.44 616.478 157.582C616.731 157.722 616.924 157.881 617.058 158.06C617.194 158.236 617.299 158.381 617.373 158.494H617.475V157.455H618.447V164.188C618.447 164.75 618.319 165.207 618.063 165.56C617.81 165.915 617.469 166.175 617.04 166.339C616.614 166.507 616.14 166.591 615.617 166.591ZM615.583 162.994C615.987 162.994 616.327 162.902 616.606 162.717C616.884 162.533 617.096 162.267 617.241 161.92C617.386 161.574 617.458 161.159 617.458 160.676C617.458 160.205 617.387 159.788 617.245 159.428C617.103 159.067 616.893 158.784 616.614 158.58C616.336 158.375 615.992 158.273 615.583 158.273C615.157 158.273 614.802 158.381 614.518 158.597C614.237 158.812 614.025 159.102 613.883 159.466C613.744 159.83 613.674 160.233 613.674 160.676C613.674 161.131 613.745 161.533 613.887 161.882C614.032 162.229 614.245 162.501 614.526 162.7C614.81 162.896 615.163 162.994 615.583 162.994ZM623.322 156.21V155.273H629.867V156.21H627.123V164H626.066V156.21H623.322ZM631.362 164V157.455H632.368V164H631.362ZM631.873 156.364C631.677 156.364 631.508 156.297 631.366 156.163C631.227 156.03 631.157 155.869 631.157 155.682C631.157 155.494 631.227 155.334 631.366 155.2C631.508 155.067 631.677 155 631.873 155C632.069 155 632.237 155.067 632.376 155.2C632.518 155.334 632.589 155.494 632.589 155.682C632.589 155.869 632.518 156.03 632.376 156.163C632.237 156.297 632.069 156.364 631.873 156.364ZM635.215 160.062V164H634.21V157.455H635.181V158.477H635.266C635.42 158.145 635.653 157.878 635.965 157.676C636.278 157.472 636.681 157.369 637.175 157.369C637.619 157.369 638.006 157.46 638.339 157.642C638.671 157.821 638.93 158.094 639.114 158.46C639.299 158.824 639.391 159.284 639.391 159.841V164H638.386V159.909C638.386 159.395 638.252 158.994 637.985 158.707C637.718 158.418 637.352 158.273 636.886 158.273C636.565 158.273 636.278 158.342 636.025 158.482C635.775 158.621 635.577 158.824 635.433 159.091C635.288 159.358 635.215 159.682 635.215 160.062ZM643.871 166.591C643.385 166.591 642.968 166.528 642.618 166.403C642.269 166.281 641.978 166.119 641.745 165.918C641.515 165.719 641.331 165.506 641.195 165.278L641.996 164.716C642.087 164.835 642.202 164.972 642.341 165.125C642.48 165.281 642.671 165.416 642.912 165.53C643.157 165.646 643.476 165.705 643.871 165.705C644.4 165.705 644.836 165.577 645.179 165.321C645.523 165.065 645.695 164.665 645.695 164.119V162.79H645.61C645.536 162.909 645.431 163.057 645.294 163.233C645.161 163.406 644.968 163.561 644.715 163.697C644.465 163.831 644.127 163.898 643.701 163.898C643.172 163.898 642.698 163.773 642.277 163.523C641.86 163.273 641.529 162.909 641.284 162.432C641.043 161.955 640.922 161.375 640.922 160.693C640.922 160.023 641.04 159.439 641.276 158.942C641.512 158.442 641.84 158.055 642.26 157.783C642.681 157.507 643.167 157.369 643.718 157.369C644.144 157.369 644.482 157.44 644.732 157.582C644.985 157.722 645.178 157.881 645.311 158.06C645.448 158.236 645.553 158.381 645.627 158.494H645.729V157.455H646.701V164.188C646.701 164.75 646.573 165.207 646.317 165.56C646.064 165.915 645.723 166.175 645.294 166.339C644.868 166.507 644.394 166.591 643.871 166.591ZM643.837 162.994C644.24 162.994 644.581 162.902 644.86 162.717C645.138 162.533 645.35 162.267 645.495 161.92C645.64 161.574 645.712 161.159 645.712 160.676C645.712 160.205 645.641 159.788 645.499 159.428C645.357 159.067 645.147 158.784 644.868 158.58C644.59 158.375 644.246 158.273 643.837 158.273C643.411 158.273 643.056 158.381 642.772 158.597C642.49 158.812 642.279 159.102 642.137 159.466C641.998 159.83 641.928 160.233 641.928 160.676C641.928 161.131 641.999 161.533 642.141 161.882C642.286 162.229 642.499 162.501 642.78 162.7C643.064 162.896 643.417 162.994 643.837 162.994ZM651.184 166.591C650.698 166.591 650.28 166.528 649.931 166.403C649.581 166.281 649.29 166.119 649.057 165.918C648.827 165.719 648.644 165.506 648.507 165.278L649.309 164.716C649.4 164.835 649.515 164.972 649.654 165.125C649.793 165.281 649.983 165.416 650.225 165.53C650.469 165.646 650.789 165.705 651.184 165.705C651.712 165.705 652.148 165.577 652.492 165.321C652.836 165.065 653.007 164.665 653.007 164.119V162.79H652.922C652.848 162.909 652.743 163.057 652.607 163.233C652.473 163.406 652.28 163.561 652.027 163.697C651.777 163.831 651.439 163.898 651.013 163.898C650.485 163.898 650.01 163.773 649.59 163.523C649.172 163.273 648.841 162.909 648.597 162.432C648.355 161.955 648.235 161.375 648.235 160.693C648.235 160.023 648.353 159.439 648.588 158.942C648.824 158.442 649.152 158.055 649.573 157.783C649.993 157.507 650.479 157.369 651.03 157.369C651.456 157.369 651.794 157.44 652.044 157.582C652.297 157.722 652.49 157.881 652.624 158.06C652.76 158.236 652.865 158.381 652.939 158.494H653.042V157.455H654.013V164.188C654.013 164.75 653.885 165.207 653.63 165.56C653.377 165.915 653.036 166.175 652.607 166.339C652.181 166.507 651.706 166.591 651.184 166.591ZM651.15 162.994C651.553 162.994 651.894 162.902 652.172 162.717C652.451 162.533 652.662 162.267 652.807 161.92C652.952 161.574 653.025 161.159 653.025 160.676C653.025 160.205 652.953 159.788 652.811 159.428C652.669 159.067 652.459 158.784 652.181 158.58C651.902 158.375 651.559 158.273 651.15 158.273C650.723 158.273 650.368 158.381 650.084 158.597C649.803 158.812 649.591 159.102 649.449 159.466C649.31 159.83 649.24 160.233 649.24 160.676C649.24 161.131 649.311 161.533 649.453 161.882C649.598 162.229 649.811 162.501 650.093 162.7C650.377 162.896 650.729 162.994 651.15 162.994ZM655.854 164V157.455H656.86V164H655.854ZM656.365 156.364C656.169 156.364 656 156.297 655.858 156.163C655.719 156.03 655.65 155.869 655.65 155.682C655.65 155.494 655.719 155.334 655.858 155.2C656 155.067 656.169 155 656.365 155C656.561 155 656.729 155.067 656.868 155.2C657.01 155.334 657.081 155.494 657.081 155.682C657.081 155.869 657.01 156.03 656.868 156.163C656.729 156.297 656.561 156.364 656.365 156.364Z" fill="white"/>
<rect x="876" y="109" width="75" height="35" rx="5" fill="#2973D6"/>
<path d="M888.114 122.273V131H887.057V122.273H888.114ZM891.102 127.062V131H890.096V124.455H891.068V125.477H891.153C891.306 125.145 891.539 124.878 891.852 124.676C892.164 124.472 892.568 124.369 893.062 124.369C893.505 124.369 893.893 124.46 894.225 124.642C894.558 124.821 894.816 125.094 895.001 125.46C895.186 125.824 895.278 126.284 895.278 126.841V131H894.272V126.909C894.272 126.395 894.139 125.994 893.872 125.707C893.605 125.418 893.238 125.273 892.772 125.273C892.451 125.273 892.164 125.342 891.912 125.482C891.662 125.621 891.464 125.824 891.319 126.091C891.174 126.358 891.102 126.682 891.102 127.062ZM899.587 131.136C899.042 131.136 898.56 130.999 898.143 130.723C897.725 130.445 897.398 130.053 897.163 129.547C896.927 129.038 896.809 128.438 896.809 127.744C896.809 127.057 896.927 126.46 897.163 125.955C897.398 125.449 897.727 125.058 898.147 124.783C898.567 124.507 899.053 124.369 899.604 124.369C900.031 124.369 900.367 124.44 900.614 124.582C900.864 124.722 901.055 124.881 901.185 125.06C901.319 125.236 901.423 125.381 901.496 125.494H901.582V122.273H902.587V131H901.616V129.994H901.496C901.423 130.114 901.317 130.264 901.181 130.446C901.045 130.625 900.85 130.786 900.597 130.928C900.344 131.067 900.008 131.136 899.587 131.136ZM899.724 130.233C900.127 130.233 900.468 130.128 900.746 129.918C901.025 129.705 901.237 129.411 901.381 129.036C901.526 128.658 901.599 128.222 901.599 127.727C901.599 127.239 901.528 126.811 901.386 126.445C901.244 126.075 901.033 125.788 900.755 125.584C900.477 125.376 900.133 125.273 899.724 125.273C899.298 125.273 898.942 125.382 898.658 125.601C898.377 125.817 898.165 126.111 898.023 126.483C897.884 126.852 897.815 127.267 897.815 127.727C897.815 128.193 897.886 128.616 898.028 128.997C898.173 129.375 898.386 129.676 898.667 129.901C898.951 130.122 899.303 130.233 899.724 130.233ZM904.569 131V124.455H905.54V125.443H905.609C905.728 125.119 905.944 124.857 906.256 124.655C906.569 124.453 906.921 124.352 907.313 124.352C907.387 124.352 907.479 124.354 907.59 124.357C907.701 124.359 907.785 124.364 907.842 124.369V125.392C907.808 125.384 907.729 125.371 907.607 125.354C907.488 125.334 907.362 125.324 907.228 125.324C906.91 125.324 906.626 125.391 906.376 125.524C906.129 125.655 905.933 125.837 905.788 126.07C905.646 126.3 905.575 126.562 905.575 126.858V131H904.569ZM910.96 131.153C910.545 131.153 910.169 131.075 909.831 130.919C909.493 130.76 909.224 130.531 909.025 130.233C908.826 129.932 908.727 129.568 908.727 129.142C908.727 128.767 908.801 128.463 908.949 128.23C909.096 127.994 909.294 127.81 909.541 127.676C909.788 127.543 910.061 127.443 910.359 127.378C910.66 127.31 910.963 127.256 911.267 127.216C911.664 127.165 911.987 127.126 912.234 127.101C912.484 127.072 912.666 127.026 912.779 126.96C912.896 126.895 912.954 126.781 912.954 126.619V126.585C912.954 126.165 912.839 125.838 912.609 125.605C912.382 125.372 912.037 125.256 911.574 125.256C911.093 125.256 910.717 125.361 910.444 125.571C910.172 125.781 909.98 126.006 909.869 126.244L908.914 125.903C909.085 125.506 909.312 125.196 909.596 124.974C909.883 124.75 910.196 124.594 910.534 124.506C910.875 124.415 911.21 124.369 911.539 124.369C911.75 124.369 911.991 124.395 912.264 124.446C912.539 124.494 912.805 124.595 913.061 124.749C913.319 124.902 913.534 125.134 913.704 125.443C913.875 125.753 913.96 126.168 913.96 126.688V131H912.954V130.114H912.903C912.835 130.256 912.721 130.408 912.562 130.57C912.403 130.732 912.191 130.869 911.927 130.983C911.663 131.097 911.341 131.153 910.96 131.153ZM911.113 130.25C911.511 130.25 911.846 130.172 912.119 130.016C912.395 129.859 912.602 129.658 912.741 129.411C912.883 129.163 912.954 128.903 912.954 128.631V127.71C912.912 127.761 912.818 127.808 912.673 127.851C912.531 127.891 912.366 127.926 912.179 127.957C911.994 127.986 911.814 128.011 911.637 128.034C911.464 128.054 911.324 128.071 911.216 128.085C910.954 128.119 910.71 128.175 910.483 128.251C910.258 128.325 910.076 128.437 909.937 128.588C909.801 128.736 909.733 128.937 909.733 129.193C909.733 129.543 909.862 129.807 910.12 129.986C910.382 130.162 910.713 130.25 911.113 130.25ZM915.795 133.455V124.455H916.767V125.494H916.886C916.96 125.381 917.063 125.236 917.193 125.06C917.327 124.881 917.517 124.722 917.764 124.582C918.014 124.44 918.352 124.369 918.778 124.369C919.33 124.369 919.815 124.507 920.236 124.783C920.656 125.058 920.984 125.449 921.22 125.955C921.456 126.46 921.574 127.057 921.574 127.744C921.574 128.438 921.456 129.038 921.22 129.547C920.984 130.053 920.658 130.445 920.24 130.723C919.822 130.999 919.341 131.136 918.795 131.136C918.375 131.136 918.038 131.067 917.786 130.928C917.533 130.786 917.338 130.625 917.202 130.446C917.065 130.264 916.96 130.114 916.886 129.994H916.801V133.455H915.795ZM916.784 127.727C916.784 128.222 916.857 128.658 917.001 129.036C917.146 129.411 917.358 129.705 917.636 129.918C917.915 130.128 918.256 130.233 918.659 130.233C919.08 130.233 919.43 130.122 919.712 129.901C919.996 129.676 920.209 129.375 920.351 128.997C920.496 128.616 920.568 128.193 920.568 127.727C920.568 127.267 920.497 126.852 920.355 126.483C920.216 126.111 920.004 125.817 919.72 125.601C919.439 125.382 919.085 125.273 918.659 125.273C918.25 125.273 917.906 125.376 917.628 125.584C917.349 125.788 917.139 126.075 916.997 126.445C916.855 126.811 916.784 127.239 916.784 127.727ZM927.233 128.324V124.455H928.239V131H927.233V129.892H927.165C927.011 130.224 926.773 130.507 926.449 130.74C926.125 130.97 925.716 131.085 925.222 131.085C924.812 131.085 924.449 130.996 924.131 130.817C923.813 130.635 923.563 130.362 923.381 129.999C923.199 129.632 923.108 129.17 923.108 128.614V124.455H924.114V128.545C924.114 129.023 924.247 129.403 924.514 129.688C924.784 129.972 925.128 130.114 925.545 130.114C925.795 130.114 926.05 130.05 926.308 129.922C926.57 129.794 926.788 129.598 926.964 129.334C927.143 129.07 927.233 128.733 927.233 128.324ZM930.081 131V124.455H931.052V125.443H931.12C931.24 125.119 931.456 124.857 931.768 124.655C932.081 124.453 932.433 124.352 932.825 124.352C932.899 124.352 932.991 124.354 933.102 124.357C933.213 124.359 933.297 124.364 933.353 124.369V125.392C933.319 125.384 933.241 125.371 933.119 125.354C933 125.334 932.873 125.324 932.74 125.324C932.422 125.324 932.137 125.391 931.887 125.524C931.64 125.655 931.444 125.837 931.299 126.07C931.157 126.3 931.086 126.562 931.086 126.858V131H930.081ZM936.472 131.153C936.057 131.153 935.68 131.075 935.342 130.919C935.004 130.76 934.736 130.531 934.537 130.233C934.338 129.932 934.239 129.568 934.239 129.142C934.239 128.767 934.313 128.463 934.46 128.23C934.608 127.994 934.805 127.81 935.053 127.676C935.3 127.543 935.572 127.443 935.871 127.378C936.172 127.31 936.474 127.256 936.778 127.216C937.176 127.165 937.499 127.126 937.746 127.101C937.996 127.072 938.178 127.026 938.291 126.96C938.408 126.895 938.466 126.781 938.466 126.619V126.585C938.466 126.165 938.351 125.838 938.121 125.605C937.893 125.372 937.548 125.256 937.085 125.256C936.605 125.256 936.229 125.361 935.956 125.571C935.683 125.781 935.491 126.006 935.381 126.244L934.426 125.903C934.597 125.506 934.824 125.196 935.108 124.974C935.395 124.75 935.707 124.594 936.045 124.506C936.386 124.415 936.722 124.369 937.051 124.369C937.261 124.369 937.503 124.395 937.776 124.446C938.051 124.494 938.317 124.595 938.572 124.749C938.831 124.902 939.045 125.134 939.216 125.443C939.386 125.753 939.472 126.168 939.472 126.688V131H938.466V130.114H938.415C938.347 130.256 938.233 130.408 938.074 130.57C937.915 130.732 937.703 130.869 937.439 130.983C937.175 131.097 936.852 131.153 936.472 131.153ZM936.625 130.25C937.023 130.25 937.358 130.172 937.631 130.016C937.906 129.859 938.114 129.658 938.253 129.411C938.395 129.163 938.466 128.903 938.466 128.631V127.71C938.423 127.761 938.33 127.808 938.185 127.851C938.043 127.891 937.878 127.926 937.69 127.957C937.506 127.986 937.325 128.011 937.149 128.034C936.976 128.054 936.835 128.071 936.727 128.085C936.466 128.119 936.222 128.175 935.994 128.251C935.77 128.325 935.588 128.437 935.449 128.588C935.313 128.736 935.244 128.937 935.244 129.193C935.244 129.543 935.374 129.807 935.632 129.986C935.893 130.162 936.224 130.25 936.625 130.25Z" fill="white"/>
<rect x="927" width="99" height="35" rx="5" fill="#2973D6"/>
<path d="M938.057 22V13.2727H939.114V17.6023H939.216L943.136 13.2727H944.517L940.852 17.2102L944.517 22H943.239L940.205 17.9432L939.114 19.1705V22H938.057ZM949.463 19.3239V15.4545H950.469V22H949.463V20.892H949.395C949.242 21.2244 949.003 21.5071 948.679 21.7401C948.355 21.9702 947.946 22.0852 947.452 22.0852C947.043 22.0852 946.679 21.9957 946.361 21.8168C946.043 21.6349 945.793 21.3622 945.611 20.9986C945.429 20.6321 945.338 20.1705 945.338 19.6136V15.4545H946.344V19.5455C946.344 20.0227 946.478 20.4034 946.745 20.6875C947.015 20.9716 947.358 21.1136 947.776 21.1136C948.026 21.1136 948.28 21.0497 948.539 20.9219C948.8 20.794 949.019 20.598 949.195 20.3338C949.374 20.0696 949.463 19.733 949.463 19.3239ZM954.237 22.1534C953.822 22.1534 953.446 22.0753 953.108 21.919C952.77 21.7599 952.501 21.5312 952.303 21.233C952.104 20.9318 952.004 20.5682 952.004 20.142C952.004 19.767 952.078 19.4631 952.226 19.2301C952.374 18.9943 952.571 18.8097 952.818 18.6761C953.065 18.5426 953.338 18.4432 953.636 18.3778C953.938 18.3097 954.24 18.2557 954.544 18.2159C954.942 18.1648 955.264 18.1264 955.511 18.1009C955.761 18.0724 955.943 18.0256 956.057 17.9602C956.173 17.8949 956.232 17.7812 956.232 17.6193V17.5852C956.232 17.1648 956.116 16.8381 955.886 16.6051C955.659 16.3722 955.314 16.2557 954.851 16.2557C954.371 16.2557 953.994 16.3608 953.722 16.571C953.449 16.7812 953.257 17.0057 953.146 17.2443L952.192 16.9034C952.362 16.5057 952.589 16.196 952.874 15.9744C953.161 15.75 953.473 15.5937 953.811 15.5057C954.152 15.4148 954.487 15.3693 954.817 15.3693C955.027 15.3693 955.268 15.3949 955.541 15.446C955.817 15.4943 956.082 15.5952 956.338 15.7486C956.597 15.902 956.811 16.1335 956.982 16.4432C957.152 16.7528 957.237 17.1676 957.237 17.6875V22H956.232V21.1136H956.18C956.112 21.2557 955.999 21.4077 955.839 21.5696C955.68 21.7315 955.469 21.8693 955.205 21.983C954.94 22.0966 954.618 22.1534 954.237 22.1534ZM954.391 21.25C954.788 21.25 955.124 21.1719 955.396 21.0156C955.672 20.8594 955.879 20.6577 956.018 20.4105C956.161 20.1634 956.232 19.9034 956.232 19.6307V18.7102C956.189 18.7614 956.095 18.8082 955.95 18.8509C955.808 18.8906 955.643 18.9261 955.456 18.9574C955.271 18.9858 955.091 19.0114 954.915 19.0341C954.741 19.054 954.601 19.071 954.493 19.0852C954.232 19.1193 953.987 19.1747 953.76 19.2514C953.536 19.3253 953.354 19.4375 953.214 19.5881C953.078 19.7358 953.01 19.9375 953.01 20.1932C953.01 20.5426 953.139 20.8068 953.398 20.9858C953.659 21.1619 953.99 21.25 954.391 21.25ZM960.078 13.2727V22H959.073V13.2727H960.078ZM963.847 22.1534C963.432 22.1534 963.055 22.0753 962.717 21.919C962.379 21.7599 962.111 21.5312 961.912 21.233C961.713 20.9318 961.614 20.5682 961.614 20.142C961.614 19.767 961.688 19.4631 961.835 19.2301C961.983 18.9943 962.18 18.8097 962.428 18.6761C962.675 18.5426 962.947 18.4432 963.246 18.3778C963.547 18.3097 963.849 18.2557 964.153 18.2159C964.551 18.1648 964.874 18.1264 965.121 18.1009C965.371 18.0724 965.553 18.0256 965.666 17.9602C965.783 17.8949 965.841 17.7812 965.841 17.6193V17.5852C965.841 17.1648 965.726 16.8381 965.496 16.6051C965.268 16.3722 964.923 16.2557 964.46 16.2557C963.98 16.2557 963.604 16.3608 963.331 16.571C963.058 16.7812 962.866 17.0057 962.756 17.2443L961.801 16.9034C961.972 16.5057 962.199 16.196 962.483 15.9744C962.77 15.75 963.082 15.5937 963.42 15.5057C963.761 15.4148 964.097 15.3693 964.426 15.3693C964.636 15.3693 964.878 15.3949 965.151 15.446C965.426 15.4943 965.692 15.5952 965.947 15.7486C966.206 15.902 966.42 16.1335 966.591 16.4432C966.761 16.7528 966.847 17.1676 966.847 17.6875V22H965.841V21.1136H965.79C965.722 21.2557 965.608 21.4077 965.449 21.5696C965.29 21.7315 965.078 21.8693 964.814 21.983C964.55 22.0966 964.227 22.1534 963.847 22.1534ZM964 21.25C964.398 21.25 964.733 21.1719 965.006 21.0156C965.281 20.8594 965.489 20.6577 965.628 20.4105C965.77 20.1634 965.841 19.9034 965.841 19.6307V18.7102C965.798 18.7614 965.705 18.8082 965.56 18.8509C965.418 18.8906 965.253 18.9261 965.065 18.9574C964.881 18.9858 964.7 19.0114 964.524 19.0341C964.351 19.054 964.21 19.071 964.102 19.0852C963.841 19.1193 963.597 19.1747 963.369 19.2514C963.145 19.3253 962.963 19.4375 962.824 19.5881C962.688 19.7358 962.619 19.9375 962.619 20.1932C962.619 20.5426 962.749 20.8068 963.007 20.9858C963.268 21.1619 963.599 21.25 964 21.25ZM971.716 14.2102V13.2727H978.262V14.2102H975.517V22H974.461V14.2102H971.716ZM980.792 22.1534C980.377 22.1534 980.001 22.0753 979.663 21.919C979.325 21.7599 979.056 21.5312 978.857 21.233C978.658 20.9318 978.559 20.5682 978.559 20.142C978.559 19.767 978.633 19.4631 978.781 19.2301C978.928 18.9943 979.126 18.8097 979.373 18.6761C979.62 18.5426 979.893 18.4432 980.191 18.3778C980.492 18.3097 980.795 18.2557 981.099 18.2159C981.496 18.1648 981.819 18.1264 982.066 18.1009C982.316 18.0724 982.498 18.0256 982.612 17.9602C982.728 17.8949 982.786 17.7812 982.786 17.6193V17.5852C982.786 17.1648 982.671 16.8381 982.441 16.6051C982.214 16.3722 981.869 16.2557 981.406 16.2557C980.925 16.2557 980.549 16.3608 980.276 16.571C980.004 16.7812 979.812 17.0057 979.701 17.2443L978.746 16.9034C978.917 16.5057 979.144 16.196 979.428 15.9744C979.715 15.75 980.028 15.5937 980.366 15.5057C980.707 15.4148 981.042 15.3693 981.371 15.3693C981.582 15.3693 981.823 15.3949 982.096 15.446C982.371 15.4943 982.637 15.5952 982.893 15.7486C983.151 15.902 983.366 16.1335 983.536 16.4432C983.707 16.7528 983.792 17.1676 983.792 17.6875V22H982.786V21.1136H982.735C982.667 21.2557 982.553 21.4077 982.394 21.5696C982.235 21.7315 982.023 21.8693 981.759 21.983C981.495 22.0966 981.173 22.1534 980.792 22.1534ZM980.945 21.25C981.343 21.25 981.678 21.1719 981.951 21.0156C982.227 20.8594 982.434 20.6577 982.573 20.4105C982.715 20.1634 982.786 19.9034 982.786 19.6307V18.7102C982.744 18.7614 982.65 18.8082 982.505 18.8509C982.363 18.8906 982.198 18.9261 982.011 18.9574C981.826 18.9858 981.646 19.0114 981.469 19.0341C981.296 19.054 981.156 19.071 981.048 19.0852C980.786 19.1193 980.542 19.1747 980.315 19.2514C980.09 19.3253 979.908 19.4375 979.769 19.5881C979.633 19.7358 979.565 19.9375 979.565 20.1932C979.565 20.5426 979.694 20.8068 979.952 20.9858C980.214 21.1619 980.545 21.25 980.945 21.25ZM986.633 18.0625V22H985.627V15.4545H986.599V16.4773H986.684C986.838 16.1449 987.071 15.8778 987.383 15.6761C987.696 15.4716 988.099 15.3693 988.593 15.3693C989.037 15.3693 989.424 15.4602 989.757 15.642C990.089 15.821 990.348 16.0938 990.532 16.4602C990.717 16.8239 990.809 17.2841 990.809 17.8409V22H989.804V17.9091C989.804 17.3949 989.67 16.9943 989.403 16.7074C989.136 16.4176 988.77 16.2727 988.304 16.2727C987.983 16.2727 987.696 16.3423 987.443 16.4815C987.193 16.6207 986.995 16.8239 986.85 17.0909C986.706 17.358 986.633 17.6818 986.633 18.0625ZM992.647 15.4545H993.653V22.4773C993.653 22.8807 993.583 23.2301 993.444 23.5256C993.308 23.821 993.1 24.0497 992.822 24.2116C992.546 24.3736 992.198 24.4545 991.778 24.4545C991.744 24.4545 991.71 24.4545 991.675 24.4545C991.641 24.4545 991.607 24.4545 991.573 24.4545V23.517C991.607 23.517 991.638 23.517 991.667 23.517C991.695 23.517 991.727 23.517 991.761 23.517C992.067 23.517 992.292 23.4261 992.434 23.2443C992.576 23.0653 992.647 22.8097 992.647 22.4773V15.4545ZM993.141 14.3636C992.945 14.3636 992.776 14.2969 992.634 14.1634C992.495 14.0298 992.425 13.8693 992.425 13.6818C992.425 13.4943 992.495 13.3338 992.634 13.2003C992.776 13.0668 992.945 13 993.141 13C993.337 13 993.505 13.0668 993.644 13.2003C993.786 13.3338 993.857 13.4943 993.857 13.6818C993.857 13.8693 993.786 14.0298 993.644 14.1634C993.505 14.2969 993.337 14.3636 993.141 14.3636ZM999.62 19.3239V15.4545H1000.63V22H999.62V20.892H999.551C999.398 21.2244 999.159 21.5071 998.836 21.7401C998.512 21.9702 998.103 22.0852 997.608 22.0852C997.199 22.0852 996.836 21.9957 996.517 21.8168C996.199 21.6349 995.949 21.3622 995.767 20.9986C995.586 20.6321 995.495 20.1705 995.495 19.6136V15.4545H996.5V19.5455C996.5 20.0227 996.634 20.4034 996.901 20.6875C997.171 20.9716 997.515 21.1136 997.932 21.1136C998.182 21.1136 998.436 21.0497 998.695 20.9219C998.956 20.794 999.175 20.598 999.351 20.3338C999.53 20.0696 999.62 19.733 999.62 19.3239ZM1003.47 18.0625V22H1002.47V15.4545H1003.44V16.4773H1003.52C1003.68 16.1449 1003.91 15.8778 1004.22 15.6761C1004.54 15.4716 1004.94 15.3693 1005.43 15.3693C1005.88 15.3693 1006.26 15.4602 1006.6 15.642C1006.93 15.821 1007.19 16.0938 1007.37 16.4602C1007.56 16.8239 1007.65 17.2841 1007.65 17.8409V22H1006.64V17.9091C1006.64 17.3949 1006.51 16.9943 1006.24 16.7074C1005.98 16.4176 1005.61 16.2727 1005.14 16.2727C1004.82 16.2727 1004.54 16.3423 1004.28 16.4815C1004.03 16.6207 1003.84 16.8239 1003.69 17.0909C1003.55 17.358 1003.47 17.6818 1003.47 18.0625ZM1012.13 24.5909C1011.64 24.5909 1011.23 24.5284 1010.88 24.4034C1010.53 24.2812 1010.24 24.1193 1010 23.9176C1009.77 23.7188 1009.59 23.5057 1009.45 23.2784L1010.25 22.7159C1010.34 22.8352 1010.46 22.9716 1010.6 23.125C1010.74 23.2812 1010.93 23.4162 1011.17 23.5298C1011.41 23.6463 1011.73 23.7045 1012.13 23.7045C1012.66 23.7045 1013.09 23.5767 1013.44 23.321C1013.78 23.0653 1013.95 22.6648 1013.95 22.1193V20.7898H1013.87C1013.79 20.9091 1013.69 21.0568 1013.55 21.233C1013.42 21.4062 1013.23 21.5611 1012.97 21.6974C1012.72 21.831 1012.38 21.8977 1011.96 21.8977C1011.43 21.8977 1010.96 21.7727 1010.54 21.5227C1010.12 21.2727 1009.79 20.9091 1009.54 20.4318C1009.3 19.9545 1009.18 19.375 1009.18 18.6932C1009.18 18.0227 1009.3 17.4389 1009.53 16.9418C1009.77 16.4418 1010.1 16.0554 1010.52 15.7827C1010.94 15.5071 1011.42 15.3693 1011.98 15.3693C1012.4 15.3693 1012.74 15.4403 1012.99 15.5824C1013.24 15.7216 1013.44 15.8807 1013.57 16.0597C1013.71 16.2358 1013.81 16.3807 1013.88 16.4943H1013.99V15.4545H1014.96V22.1875C1014.96 22.75 1014.83 23.2074 1014.57 23.5597C1014.32 23.9148 1013.98 24.1747 1013.55 24.3395C1013.13 24.5071 1012.65 24.5909 1012.13 24.5909ZM1012.09 20.9943C1012.5 20.9943 1012.84 20.902 1013.12 20.7173C1013.4 20.5327 1013.61 20.267 1013.75 19.9205C1013.9 19.5739 1013.97 19.1591 1013.97 18.6761C1013.97 18.2045 1013.9 17.7884 1013.76 17.4276C1013.61 17.0668 1013.4 16.7841 1013.13 16.5795C1012.85 16.375 1012.5 16.2727 1012.09 16.2727C1011.67 16.2727 1011.31 16.3807 1011.03 16.5966C1010.75 16.8125 1010.54 17.1023 1010.39 17.4659C1010.26 17.8295 1010.19 18.233 1010.19 18.6761C1010.19 19.1307 1010.26 19.5327 1010.4 19.8821C1010.54 20.2287 1010.76 20.5014 1011.04 20.7003C1011.32 20.8963 1011.67 20.9943 1012.09 20.9943Z" fill="white"/>
<rect x="509" y="711" width="71" height="35" rx="5" fill="#2973D6"/>
<path d="M524.83 726.455C524.778 726.023 524.571 725.688 524.207 725.449C523.844 725.21 523.398 725.091 522.869 725.091C522.483 725.091 522.145 725.153 521.855 725.278C521.568 725.403 521.344 725.575 521.182 725.794C521.023 726.013 520.943 726.261 520.943 726.54C520.943 726.773 520.999 726.973 521.109 727.141C521.223 727.305 521.368 727.443 521.544 727.554C521.72 727.662 521.905 727.751 522.098 727.822C522.291 727.891 522.469 727.946 522.631 727.989L523.517 728.227C523.744 728.287 523.997 728.369 524.276 728.474C524.557 728.58 524.825 728.723 525.081 728.905C525.339 729.084 525.553 729.314 525.72 729.595C525.888 729.876 525.972 730.222 525.972 730.631C525.972 731.102 525.848 731.528 525.601 731.909C525.357 732.29 524.999 732.592 524.527 732.817C524.058 733.041 523.489 733.153 522.818 733.153C522.193 733.153 521.652 733.053 521.195 732.851C520.74 732.649 520.382 732.368 520.121 732.007C519.862 731.646 519.716 731.227 519.682 730.75H520.773C520.801 731.08 520.912 731.352 521.105 731.568C521.301 731.781 521.548 731.94 521.847 732.045C522.148 732.148 522.472 732.199 522.818 732.199C523.222 732.199 523.584 732.134 523.905 732.003C524.226 731.869 524.48 731.685 524.668 731.449C524.855 731.21 524.949 730.932 524.949 730.614C524.949 730.324 524.868 730.088 524.706 729.906C524.544 729.724 524.331 729.577 524.067 729.463C523.803 729.349 523.517 729.25 523.21 729.165L522.136 728.858C521.455 728.662 520.915 728.382 520.517 728.018C520.119 727.655 519.92 727.179 519.92 726.591C519.92 726.102 520.053 725.676 520.317 725.312C520.584 724.946 520.942 724.662 521.391 724.46C521.842 724.256 522.347 724.153 522.903 724.153C523.466 724.153 523.966 724.254 524.403 724.456C524.841 724.655 525.188 724.928 525.443 725.274C525.702 725.621 525.838 726.014 525.852 726.455H524.83ZM527.573 733V726.455H528.578V733H527.573ZM528.084 725.364C527.888 725.364 527.719 725.297 527.577 725.163C527.438 725.03 527.368 724.869 527.368 724.682C527.368 724.494 527.438 724.334 527.577 724.2C527.719 724.067 527.888 724 528.084 724C528.28 724 528.448 724.067 528.587 724.2C528.729 724.334 528.8 724.494 528.8 724.682C528.8 724.869 528.729 725.03 528.587 725.163C528.448 725.297 528.28 725.364 528.084 725.364ZM531.426 729.062V733H530.42V726.455H531.392V727.477H531.477C531.631 727.145 531.864 726.878 532.176 726.676C532.489 726.472 532.892 726.369 533.386 726.369C533.83 726.369 534.217 726.46 534.55 726.642C534.882 726.821 535.141 727.094 535.325 727.46C535.51 727.824 535.602 728.284 535.602 728.841V733H534.597V728.909C534.597 728.395 534.463 727.994 534.196 727.707C533.929 727.418 533.563 727.273 533.097 727.273C532.776 727.273 532.489 727.342 532.236 727.482C531.986 727.621 531.788 727.824 531.643 728.091C531.499 728.358 531.426 728.682 531.426 729.062ZM539.366 733.153C538.951 733.153 538.575 733.075 538.237 732.919C537.899 732.76 537.63 732.531 537.431 732.233C537.233 731.932 537.133 731.568 537.133 731.142C537.133 730.767 537.207 730.463 537.355 730.23C537.502 729.994 537.7 729.81 537.947 729.676C538.194 729.543 538.467 729.443 538.765 729.378C539.066 729.31 539.369 729.256 539.673 729.216C540.071 729.165 540.393 729.126 540.64 729.101C540.89 729.072 541.072 729.026 541.186 728.96C541.302 728.895 541.36 728.781 541.36 728.619V728.585C541.36 728.165 541.245 727.838 541.015 727.605C540.788 727.372 540.443 727.256 539.98 727.256C539.5 727.256 539.123 727.361 538.85 727.571C538.578 727.781 538.386 728.006 538.275 728.244L537.321 727.903C537.491 727.506 537.718 727.196 538.002 726.974C538.289 726.75 538.602 726.594 538.94 726.506C539.281 726.415 539.616 726.369 539.946 726.369C540.156 726.369 540.397 726.395 540.67 726.446C540.946 726.494 541.211 726.595 541.467 726.749C541.725 726.902 541.94 727.134 542.11 727.443C542.281 727.753 542.366 728.168 542.366 728.688V733H541.36V732.114H541.309C541.241 732.256 541.127 732.408 540.968 732.57C540.809 732.732 540.598 732.869 540.333 732.983C540.069 733.097 539.747 733.153 539.366 733.153ZM539.52 732.25C539.917 732.25 540.252 732.172 540.525 732.016C540.801 731.859 541.008 731.658 541.147 731.411C541.289 731.163 541.36 730.903 541.36 730.631V729.71C541.318 729.761 541.224 729.808 541.079 729.851C540.937 729.891 540.772 729.926 540.585 729.957C540.4 729.986 540.22 730.011 540.044 730.034C539.87 730.054 539.73 730.071 539.622 730.085C539.36 730.119 539.116 730.175 538.889 730.251C538.664 730.325 538.483 730.437 538.343 730.588C538.207 730.736 538.139 730.937 538.139 731.193C538.139 731.543 538.268 731.807 538.527 731.986C538.788 732.162 539.119 732.25 539.52 732.25ZM545.139 730.614L545.122 729.369H545.327L548.19 726.455H549.435L546.384 729.54H546.298L545.139 730.614ZM544.202 733V724.273H545.207V733H544.202ZM548.361 733L545.804 729.761L546.52 729.062L549.639 733H548.361ZM555.365 727.92L554.462 728.176C554.405 728.026 554.321 727.879 554.211 727.737C554.103 727.592 553.955 727.473 553.767 727.379C553.58 727.286 553.34 727.239 553.047 727.239C552.647 727.239 552.313 727.331 552.046 727.516C551.782 727.697 551.65 727.929 551.65 728.21C551.65 728.46 551.74 728.658 551.922 728.803C552.104 728.947 552.388 729.068 552.775 729.165L553.746 729.403C554.331 729.545 554.767 729.763 555.054 730.055C555.341 730.345 555.485 730.719 555.485 731.176C555.485 731.551 555.377 731.886 555.161 732.182C554.948 732.477 554.65 732.71 554.266 732.881C553.882 733.051 553.436 733.136 552.928 733.136C552.26 733.136 551.708 732.991 551.27 732.702C550.833 732.412 550.556 731.989 550.439 731.432L551.394 731.193C551.485 731.545 551.657 731.81 551.909 731.986C552.165 732.162 552.499 732.25 552.911 732.25C553.38 732.25 553.752 732.151 554.027 731.952C554.306 731.75 554.445 731.509 554.445 731.227C554.445 731 554.365 730.81 554.206 730.656C554.047 730.5 553.803 730.384 553.473 730.307L552.382 730.051C551.783 729.909 551.343 729.689 551.061 729.391C550.783 729.089 550.644 728.713 550.644 728.261C550.644 727.892 550.748 727.565 550.955 727.281C551.165 726.997 551.451 726.774 551.811 726.612C552.175 726.45 552.587 726.369 553.047 726.369C553.695 726.369 554.203 726.511 554.573 726.795C554.945 727.08 555.209 727.455 555.365 727.92ZM558.925 733.153C558.51 733.153 558.134 733.075 557.795 732.919C557.457 732.76 557.189 732.531 556.99 732.233C556.791 731.932 556.692 731.568 556.692 731.142C556.692 730.767 556.766 730.463 556.913 730.23C557.061 729.994 557.259 729.81 557.506 729.676C557.753 729.543 558.026 729.443 558.324 729.378C558.625 729.31 558.928 729.256 559.232 729.216C559.629 729.165 559.952 729.126 560.199 729.101C560.449 729.072 560.631 729.026 560.744 728.96C560.861 728.895 560.919 728.781 560.919 728.619V728.585C560.919 728.165 560.804 727.838 560.574 727.605C560.347 727.372 560.001 727.256 559.538 727.256C559.058 727.256 558.682 727.361 558.409 727.571C558.136 727.781 557.945 728.006 557.834 728.244L556.879 727.903C557.05 727.506 557.277 727.196 557.561 726.974C557.848 726.75 558.161 726.594 558.499 726.506C558.839 726.415 559.175 726.369 559.504 726.369C559.714 726.369 559.956 726.395 560.229 726.446C560.504 726.494 560.77 726.595 561.026 726.749C561.284 726.902 561.499 727.134 561.669 727.443C561.839 727.753 561.925 728.168 561.925 728.688V733H560.919V732.114H560.868C560.8 732.256 560.686 732.408 560.527 732.57C560.368 732.732 560.156 732.869 559.892 732.983C559.628 733.097 559.305 733.153 558.925 733.153ZM559.078 732.25C559.476 732.25 559.811 732.172 560.084 732.016C560.359 731.859 560.567 731.658 560.706 731.411C560.848 731.163 560.919 730.903 560.919 730.631V729.71C560.876 729.761 560.783 729.808 560.638 729.851C560.496 729.891 560.331 729.926 560.143 729.957C559.959 729.986 559.778 730.011 559.602 730.034C559.429 730.054 559.288 730.071 559.18 730.085C558.919 730.119 558.675 730.175 558.447 730.251C558.223 730.325 558.041 730.437 557.902 730.588C557.766 730.736 557.697 730.937 557.697 731.193C557.697 731.543 557.827 731.807 558.085 731.986C558.347 732.162 558.678 732.25 559.078 732.25ZM564.698 730.614L564.681 729.369H564.885L567.749 726.455H568.993L565.942 729.54H565.857L564.698 730.614ZM563.76 733V724.273H564.766V733H563.76ZM567.919 733L565.363 729.761L566.078 729.062L569.198 733H567.919Z" fill="white"/>
<rect x="1211" y="233" width="51" height="35" rx="5" fill="#2973D6"/>
<path d="M1223.11 246.273V255H1222.06V246.273H1223.11ZM1232.15 246.273V255H1231.13L1226.37 248.148H1226.29V255H1225.23V246.273H1226.26L1231.03 253.142H1231.11V246.273H1232.15ZM1234.27 255V246.273H1235.32V250.602H1235.43L1239.35 246.273H1240.73L1237.06 250.21L1240.73 255H1239.45L1236.42 250.943L1235.32 252.17V255H1234.27ZM1243.15 246.273V255H1242.1V246.273H1243.15ZM1250.04 248.455C1249.99 248.023 1249.79 247.688 1249.42 247.449C1249.06 247.21 1248.61 247.091 1248.08 247.091C1247.7 247.091 1247.36 247.153 1247.07 247.278C1246.78 247.403 1246.56 247.575 1246.4 247.794C1246.24 248.013 1246.16 248.261 1246.16 248.54C1246.16 248.773 1246.21 248.973 1246.32 249.141C1246.44 249.305 1246.58 249.443 1246.76 249.554C1246.94 249.662 1247.12 249.751 1247.31 249.822C1247.51 249.891 1247.68 249.946 1247.85 249.989L1248.73 250.227C1248.96 250.287 1249.21 250.369 1249.49 250.474C1249.77 250.58 1250.04 250.723 1250.3 250.905C1250.55 251.084 1250.77 251.314 1250.94 251.595C1251.1 251.876 1251.19 252.222 1251.19 252.631C1251.19 253.102 1251.06 253.528 1250.82 253.909C1250.57 254.29 1250.21 254.592 1249.74 254.817C1249.27 255.041 1248.7 255.153 1248.03 255.153C1247.41 255.153 1246.87 255.053 1246.41 254.851C1245.95 254.649 1245.6 254.368 1245.34 254.007C1245.08 253.646 1244.93 253.227 1244.9 252.75H1245.99C1246.02 253.08 1246.13 253.352 1246.32 253.568C1246.52 253.781 1246.76 253.94 1247.06 254.045C1247.36 254.148 1247.69 254.199 1248.03 254.199C1248.44 254.199 1248.8 254.134 1249.12 254.003C1249.44 253.869 1249.69 253.685 1249.88 253.449C1250.07 253.21 1250.16 252.932 1250.16 252.614C1250.16 252.324 1250.08 252.088 1249.92 251.906C1249.76 251.724 1249.55 251.577 1249.28 251.463C1249.02 251.349 1248.73 251.25 1248.43 251.165L1247.35 250.858C1246.67 250.662 1246.13 250.382 1245.73 250.018C1245.33 249.655 1245.14 249.179 1245.14 248.591C1245.14 248.102 1245.27 247.676 1245.53 247.312C1245.8 246.946 1246.16 246.662 1246.61 246.46C1247.06 246.256 1247.56 246.153 1248.12 246.153C1248.68 246.153 1249.18 246.254 1249.62 246.456C1250.06 246.655 1250.4 246.928 1250.66 247.274C1250.92 247.621 1251.05 248.014 1251.07 248.455H1250.04Z" fill="white"/>
<path d="M1038.06 21.8701L1062.77 21.8701C1064.46 21.8701 1065.83 20.5001 1065.83 18.8101L1065.83 15.0601C1065.83 13.3701 1064.46 12.0001 1062.77 12.0001L1038.06 12.0001C1036.37 12.0001 1035 13.3701 1035 15.0601L1035 18.8101C1035 20.5001 1036.37 21.8701 1038.06 21.8701Z" fill="#FFB948"/>
</svg>
